<svg width="500" height="500" viewBox="0 0 500 500" fill="none" xmlns="http://www.w3.org/2000/svg">
<path d="M218.455 127.165C224.114 125.868 226.73 125.876 232.575 126.142L233.169 126.22C243.391 127.485 254.945 127.359 265.427 130.157C270.002 131.378 271.748 132.796 275.691 134.185L280.451 132.897C283.837 134.006 289.243 135.165 291.214 137.912C290.431 140.986 289.41 138.085 289.897 140.994C291.191 141.221 293.334 139.033 294.366 138.103C300.401 139.655 305.202 141.482 310.938 143.887C314.186 145.249 318.328 145.895 321.641 147.266C351.167 158.918 380.707 178.193 398.841 204.661C401.155 208.04 402.595 211.766 404.46 215.362C406.086 218.499 409.019 221.252 409.965 224.826C414.623 238.013 417.978 252.373 418.796 266.339C418.658 268.662 417.481 270.612 417.434 272.986C417.329 278.197 418.432 283.575 417.56 288.743C416.991 292.111 416.045 295.69 415.02 298.934C413.792 302.817 412.586 307.047 410.844 310.716C408.44 315.781 406.562 320.953 404.386 326.093C398.73 332.206 396.657 338.939 391.306 345.183C381.596 356.685 370.113 366.897 357.717 375.434C356.51 376.267 353.62 375.465 351.933 377.096C351.406 378.274 350.693 380.688 349.457 380.965C334.177 384.388 307.433 400.517 292.306 398.579C290.85 399.411 289.178 400.552 287.582 400.767C278.24 397.594 279.48 401.552 272.53 401.869C272.486 401.391 272.44 400.913 272.391 400.435C266.837 400.605 258.228 404.899 254.159 399.532C250.093 402.562 244.101 402.272 240.681 398.448C239.974 398.333 233.787 399.935 231.709 399.662C222.247 398.419 202.056 393.105 193.503 394.956C187.943 391.26 186.32 392.053 180.123 390.436C178.164 389.925 176.952 387.712 174.552 387.533C167.551 390.112 169.582 386.566 164.994 385.396C153.678 382.511 143.711 378.78 133.692 372.726C130.765 370.958 126.913 365.688 124.182 365.005C122.612 365.303 122.279 365.433 120.658 365.362C119.028 364.21 119.37 364.929 119.009 363.414L120.477 362.16C120.061 360.118 105.284 355.692 107.411 349.403C107.981 347.717 101.872 343.732 100.797 341.902C98.8817 338.644 96.8095 335.346 94.4884 332.219C91.0782 327.009 91.3742 326.263 90.6817 319.874C90.1498 319.166 87.9931 316.285 87.7277 315.149C85.8517 307.121 82.7037 297.041 82.902 288.905C82.9311 287.707 84.2942 287.311 85.1168 286.911L84.9795 286.325C80.4947 282.574 81.4941 281.931 81.4112 276.475C81.0871 269.782 81.394 263.073 81.589 256.44C81.8482 247.625 83.0293 241.162 85.8074 232.781C87.2372 228.468 87.8954 224.375 89.8867 220.008C92.2469 214.834 95.3077 210.206 97.4877 205.005C99.0805 200.794 98.7559 200.802 102.933 198.94C106.321 184.833 126.609 163.449 137.675 154.287C145.172 148.078 162.607 137.928 172.261 136.194C174.832 135.668 177.406 134.305 180.048 133.363C184.209 131.88 187.112 131.333 191.449 130.607C191.621 130.591 191.794 130.575 191.966 130.559C196.867 131.288 199.355 127.47 203.782 129.193C206.979 126.918 214.92 125.84 218.455 127.165Z" fill="#96DA01"/>
<path d="M172.262 136.195C174.833 135.669 177.407 134.306 180.049 133.364C184.21 131.881 187.112 131.334 191.45 130.607C188.081 133.84 176.759 138.449 172.262 136.195Z" fill="#97C829"/>
<path d="M203.785 129.192C206.982 126.917 214.923 125.839 218.458 127.164L218.605 127.957C216.907 129.077 205.711 130.895 204.351 130.141L203.785 129.192Z" fill="#97C829"/>
<path d="M90.6836 319.875C94.6542 321.005 94.6823 323.205 95.8791 326.958C95.4039 328.709 94.9412 330.463 94.4903 332.22C91.0801 327.01 91.3761 326.263 90.6836 319.875Z" fill="#97C829"/>
<path d="M240.684 398.449L241.096 398.47C248.318 398.762 245.634 396.868 254.162 399.533C250.096 402.563 244.103 402.274 240.684 398.449Z" fill="#97C829"/>
<path d="M315.461 273.164L316.581 272.918C316.876 271.665 316.879 272.328 316.006 270.868C316.908 270.454 316.419 270.591 317.744 271.019C317.702 271.705 317.715 272.323 317.772 273.014L318.513 273.089L320.43 271.469C324.14 271.795 323.807 275.671 326.597 277.154C327.147 276.532 327.193 276.295 327.96 275.971C330.582 278.264 329.732 280.313 328.08 282.815L328.142 283.378C329.273 283.251 328.919 283.305 329.996 282.827C331.43 285.788 326.864 298.344 323.34 299.919L322.461 299.394C322.592 298.417 322.706 297.438 322.804 296.457C320.847 298.287 320.358 300.253 319.601 302.809C318.176 303.997 319.012 303.635 316.886 303.609C316.928 305.209 317.008 305.651 317.272 307.178L316.89 307.76L313.226 308.151L312.854 309.056C313.778 309.874 313.815 309.644 314.2 310.79L313.254 311.375L312.003 309.685C310.309 310.466 310.395 312.007 309.95 312.164C307.04 313.19 307.925 309.874 305.454 314.377C302.955 315.792 302.544 314.587 300.677 316.149C301.083 316.735 301.357 317.157 301.747 317.777C299.056 320.058 293.776 319 290.759 320.527C290.659 320.578 289.721 323.309 289.566 323.782C288.259 324.413 284.351 325.411 283.004 324.95L282.663 323.755L281.738 323.96L282.554 325.074C280.905 326.224 278.744 325.316 275.829 326.689C276.008 327.745 275.884 327.289 276.145 328.071C272.301 328.904 270.792 324.589 267.892 328.684C267.429 329.338 262.133 327.859 260.889 328.592L261.148 330.24L260.615 330.388L259.16 329.541C258.111 330.006 257.922 330.107 256.972 330.748C255.612 330.582 255.086 330.109 253.935 329.379C250.909 329.367 251.128 331.051 248.091 330.733C247.534 329.745 247.224 329.094 246.759 328.057C245.399 327.416 246.114 327.573 244.512 327.711L243.9 328.655L243.867 328.609C244.311 328.865 245.885 329.723 246.162 330.004L245.661 330.671C242.562 330.731 245.057 329.716 242.969 329.891C241.579 330.008 241.159 331.633 239.333 331.544C239.725 330.395 239.706 330.588 240.395 329.537C238.638 328.189 235.536 331.167 233.097 330.729C230.668 329.184 229.824 328.094 227.263 328.007C226.346 328.77 226.401 328.705 225.959 329.815C223.816 329.521 223.335 329.072 222.218 327.239C219.651 327.125 214.499 327.876 213.006 327.469C212.465 326.536 212.088 325.826 211.614 324.857C209.829 323.941 209.373 323.506 207.442 324.566C205.247 322.861 207.17 321.793 204.32 321.815C202.378 321.83 201.896 322.304 200.078 321.442L199.349 320.645L198.147 320.897L196.714 321.649C194.501 321.034 195.163 319.656 192.648 318.657L191.222 319.6L190.268 319.283C187.573 315.544 187.18 316.179 182.219 314.975L182.861 313.967C181.551 311.315 174.764 309.834 175.354 306.087L177.001 305.547C173.448 304.173 167.56 298.831 167.385 294.425C167.311 292.557 168.276 292.449 167.247 290.357C166.035 289.898 165.619 289.86 164.688 288.965L165.015 288.106C165.729 288.312 166.404 288.572 167.086 288.867C167.946 287.209 166.688 283.481 167.35 280.585C168.548 280.897 167.992 280.974 169.062 280.646L169.496 279.631L168.243 278.664L168.177 277.812L169.072 276.911L170.505 277.016C171.927 276.01 173.469 274.062 174.657 272.704C176.483 272.103 182.223 273.885 184.254 274.527L184.243 275.656L184.754 275.994C186.641 275.414 187.394 274.881 189.035 276.124L188.208 277.798L188.533 278.502C192.09 279.425 189.247 277.033 192.307 278.322C194.555 279.269 195.949 281.992 198.65 282.062C198.18 280.791 198.195 281.144 198.112 279.848C199.707 280.07 199.866 280.292 201.244 281.089C201.245 282.133 201.289 281.6 201.104 282.69C202.097 282.986 202.382 283.113 203.278 283.578L204.103 284.011L204.705 282.621L205.264 282.651L205.57 284.643C207.637 285.265 216.349 285.165 219.322 285.346C223.767 285.617 227.598 285.925 232.069 286.906L232.621 288.074C234.2 288.63 236.902 286.941 239.75 286.832C243.351 292.187 243.348 287.213 246.914 287.007C248.138 286.936 252.549 288.098 253.67 287.704C255.088 287.208 254.244 286.352 256.786 286.33L257.948 287.818C259.779 288.367 267.474 285.405 269.868 284.59L270.262 286.046C271.647 285.994 272.675 286.13 273.799 285.379C273.166 284.404 272.593 284.491 271.219 283.981C272.094 283.725 272.693 283.687 273.598 283.94C277.87 285.129 276.912 282.134 281.004 281.574C282.6 282.464 282.586 282.786 284.122 282.209C284.832 280.475 285 279.448 286.842 279.181C286.962 280.047 287.004 280.258 287.2 281.079C291.753 281.885 294.677 275.937 298.603 276.646C300.139 276.923 300.467 276.769 302.092 276.592L302.708 276.521C303.411 275.774 303.113 276.199 303.113 274.721L303.728 274.195L305.043 274.803C305.723 274.652 309.58 271.446 311.369 270.447C312.73 271.395 314.069 272.264 315.461 273.164Z" fill="#000101"/>
<path d="M177 305.547C179.459 306.57 179.907 307.228 181.762 309.193L183.864 309.447L184.392 310.136C184.157 311.377 184.131 311.315 183.458 312.405L183.749 312.797C188.093 313.083 191.938 317.044 196.155 318.778C196.494 318.538 196.832 318.299 197.171 318.058C198.929 320.333 195.56 318.686 198.145 320.897L196.713 321.649C194.5 321.034 195.162 319.655 192.647 318.657L191.221 319.6L190.267 319.283C187.572 315.544 187.179 316.179 182.217 314.975L182.859 313.967C181.55 311.314 174.763 309.834 175.353 306.087L177 305.547Z" fill="#97C829"/>
<path d="M311.368 270.447C312.729 271.395 314.067 272.264 315.46 273.164C314.918 273.727 314.685 273.982 314.287 274.671C312.063 275.838 309.123 277.675 306.597 276.308C305.156 275.527 303.869 276.579 302.707 276.521C303.41 275.774 303.112 276.199 303.112 274.721L303.727 274.195L305.042 274.803C305.722 274.652 309.579 271.446 311.368 270.447Z" fill="#103306"/>
<path d="M206.62 224.613C211.447 227.863 220.691 227.112 222.285 229.258C222.014 230.335 221.914 230.725 221.751 231.831C228.662 234.155 224.702 235.586 225.683 239.227C226.809 240.52 227.197 240.816 227.784 242.463C227.606 244.256 228.006 243.626 227.034 244.745L225.601 244.261L225.355 244.864C226.658 246.038 226.87 246.048 227.477 247.725C226.693 249.436 225.703 249.739 223.996 250.625L223.242 251.01C223.458 251.972 223.624 252.007 224.201 252.818L223.426 253.394C222.533 252.317 223.061 252.561 221.943 252.182C220.511 254.063 222.419 254.132 220.514 256.047C218.917 256.304 218.493 256.396 216.956 256.882C217.101 258.136 217.073 258.082 216.791 259.326C216.38 258.808 215.724 257.768 215.202 257.654C212.031 256.964 206.083 258.304 203.014 259.111L202.246 258.274L202.443 256.488L201.67 256.049L200.292 256.548C199.403 253.766 196.222 252.15 193.521 249.871C192.324 246.682 194.105 235.223 195.055 231.794L195.806 231.408L197.094 232.89L197.674 232.434C199.352 225.519 202.418 228.599 206.62 224.613Z" fill="#000101"/>
<path d="M283.928 225.557C285.939 227.596 291.366 226.754 293.764 227.336C292.883 228.294 292.92 227.903 292.724 228.902C294.066 229.621 294.242 229.521 295.146 230.66L294.117 231.555C294.353 232.815 294.073 232.261 295.224 233.113L297.232 232.698C298.234 233.698 300.151 237.159 300.973 238.543L300.565 238.884L297.976 238.451L297.806 239.171C299.017 240.012 299.316 240.11 300.222 241.294C298.977 244.89 300.097 242.838 301.632 244.883C300.465 246.473 298.686 246.619 297.044 248.827L297.223 249.605L298.424 250.284L298.968 248.909L299.438 249.042C299.568 250.45 299.723 250.501 299.053 251.692L298.2 251.837C296.805 251.003 296.886 250.849 295.337 250.639C294.308 252.447 296.736 253.114 295.468 254.279C293.055 256.497 288.348 261.255 284.982 259.127C285.688 258.275 286.888 258.456 288.377 258.271L288.715 257.068L288.325 256.458C287.28 256.744 287.711 256.652 286.772 257.675L286.3 256.931L285.057 256.703C282.8 258.075 285.559 257.08 283.845 259.842C282.206 260.037 282.787 260.036 281.043 258.839C275.062 261.835 277.379 258.33 274.713 256.185C273.242 256.3 270.825 256.877 270.166 255.307L272.21 255.675C270.701 254.195 269.972 253.726 269.225 251.822C270.138 246.321 269.172 248.477 266.939 246.227C266.13 242.494 266.649 239.781 268.523 236.595C269.784 236.91 269.41 237 270.553 236.77C268.916 235.024 267.993 234.128 268.015 231.775C269.406 230.625 269.735 231.33 272.434 231.546C275.194 229.173 273.22 228.675 273.9 226.845C275.937 226.643 274.579 228.086 277.676 228.893C277.047 228.027 277.199 228.27 276.791 227.292L277.564 226.655C279.724 226.212 281.001 226.247 283.122 226.989L283.928 225.557Z" fill="#000101"/>
<path d="M266.288 225.128C268.019 217.505 269.512 214.197 273.136 207.183C273.731 206.036 273.294 201.956 273.592 200.64C274.369 197.254 276.882 191.647 278.721 188.671C292.332 166.712 307.303 158.992 330.731 152.43C330.634 153.553 330.737 152.913 330.391 154.386C335.709 154.929 348.142 149.086 354.28 153.233L351.068 155.062L351.354 155.648C354.935 155.358 356.301 152.286 359.592 151.809C362.306 162.305 366.561 153.976 373.628 156.68C386.213 161.491 408.614 176.87 414.746 188.948C416.786 191.544 419.76 195.166 421.424 197.942C421.642 200.906 431.544 221.821 433.645 225.466C438.362 224.308 445.009 223.547 449.732 225.08C452.136 227.271 453.43 236.796 453.8 240.249C455.081 241.553 449.004 250.649 448.561 250.776C435.824 254.391 432.667 245.313 430.913 264.157C430.542 268.183 423.215 282.688 419.354 286.702L419.56 287.076L421.102 287.155C413.313 300.247 407.685 312.711 394.87 321.934C384.203 330.065 373.47 331.381 361.759 334.719C345.471 339.373 347.996 339.367 330.591 337.151L330.16 335.974C328.77 335.328 329.492 335.395 327.993 335.793L328.806 337.652L328.132 338.008C322.972 336.276 309.889 329.051 304.244 326.437C303.072 325.894 297.377 318.717 294.961 317.963L294.706 319.653L293.468 319.26C292.812 315.077 289.758 314.872 285.406 311.263L285.715 309.162L284.374 309.772C284.89 305.583 279.656 299.83 277.016 295.925C271.685 288.03 266.422 270.29 267.496 260.759C266.549 260.651 265.96 260.608 265.02 260.56C264.789 258.828 265.305 256.836 265.621 255.073C263.223 253.957 256.356 255.955 252.847 253.256C251.918 252.544 248.786 252.351 247.766 253.281C246.637 254.313 245.301 256.093 244.688 257.596C239.048 272.173 232.923 286.63 225.771 300.549C225.182 301.696 224.915 304.641 224.794 305.915C219.864 309.542 207.85 323.709 204.881 324.844L204.657 323.021C202.301 324.675 203.461 327.777 201.166 328.93C196.959 331.025 192.551 332.727 188.271 334.634C170.253 342.656 149.921 343.513 131.193 337.519C123.756 335.141 117.746 331.248 110.606 328.646C108.87 328.013 109.344 328.84 107.613 327.482L108.105 325.719L107.371 325.049C105.574 325.894 106.302 325.846 104.499 325.677C102.107 323.347 99.7517 321.27 97.8515 318.536L98.756 316.816C97.9668 316.671 93.2376 315.741 92.9159 315.162C89.4737 308.975 82.6621 302.396 79.7906 296.173C80.5312 295.062 80.343 295.66 80.4098 294.41C78.892 294.489 79.5781 294.645 78.3396 294.048C77.1133 291.247 76.148 288.362 75.2192 285.453C72.2262 276.079 68.523 266.958 65.3297 257.651C65.785 255.906 66.21 255.043 65.7061 253.323C62.1121 249.363 60.4548 251.132 56.0594 250.45C50.966 249.665 48.7744 245.506 46 241.613C46.1336 237.17 46.1153 229.824 46.9774 225.69C53.2304 225.569 51.7613 218.923 61.3958 222.473C66.0886 224.199 73.3736 202.312 76.1723 197.339C83.7306 183.914 96.6251 177.679 108.591 168.341C109.92 168.643 109.246 168.535 110.612 168.667C111.28 167.581 111.808 166.808 112.555 165.77L113.138 166.205L112.513 169.162L113.156 169.096L114.425 166.796C118.796 164.327 119.179 163.724 124.09 164.509L124.77 164.623L128.898 161.195C134.052 161.165 141.064 159.885 146.935 159.643L148.282 160.947C152.374 161.177 147.657 159.921 151.445 158.72L152.01 160.235C157.905 160.084 168.735 162.112 173.373 160.537C173.75 161.448 173.78 161.726 173.871 162.68C178.825 164.647 183.761 166.639 188.818 168.311C189.407 168.088 189.995 167.871 190.584 167.647C191.537 167.955 191.44 167.792 192.09 168.571C195.787 172.959 206.824 176.237 210.63 180.184C213.727 183.401 216.301 191.085 220.902 194.592C221.2 193.946 221.491 193.306 221.789 192.661C223.92 193.542 224.029 194.375 225.71 196.451C224.776 197.671 224.994 197.157 224.691 198.666C228.521 204.032 232.407 210.443 235.703 216.062C236.96 218.205 237.652 225.322 239.546 225.569C247.165 226.577 259.228 226.462 266.288 225.128Z" fill="#121211"/>
<path d="M421.423 197.941L418.88 199.625L418.097 199.311C417.222 195.521 413.622 191.289 413.422 190.07L414.745 188.947C416.785 191.543 419.76 195.164 421.423 197.941Z" fill="#474442"/>
<path d="M147.774 183.623C147.822 185.138 147.713 184.553 148.49 185.959C150.408 186.816 150.542 186.17 153.304 185.18C153.195 186.526 153.177 185.868 153.347 187.16C158.938 186.508 154.804 187.208 157.566 188.85L158.471 188.156L157.511 186.394L158.513 186.176C159.059 186.901 159.557 187.534 160.134 188.235C161.53 186.623 160.948 186.689 162.508 186.218L162.071 187.915C163.576 189.013 164.833 187.359 165.397 187.637C168.506 189.158 167.789 185.881 170.934 186.4L169.89 188.168C170.145 188.259 170.394 188.355 170.649 188.452C173.702 188.096 178.195 190.13 181.097 191.566C180.903 193.202 180.787 192.605 181.388 194.077L182.208 194.271C182.961 193.468 183.009 193.462 183.877 192.78L184.818 193.172L184.229 194.669L184.509 195.158L187.271 194.977C191.035 198.852 195.315 201.206 198.478 204.574C198.071 205.467 197.95 205.757 197.61 206.717C199.613 208.19 200.621 209.035 202.855 210.073C203.79 209.198 203.286 209.445 204.263 209.174L204.433 210.121C203.504 210.93 202.673 211.606 201.701 212.373L202.151 213.079C203.802 212.819 204.239 212.729 205.896 212.771C206.959 214.28 207.566 215.849 206.843 217.564L205.368 217.473C206.315 218.958 207.366 221.119 208.64 222.067L210.14 220.92L210.753 221.36L210.613 222.845C209.745 232.853 214.657 223.431 214.104 231.477C213.527 239.806 215.154 235.593 217.589 238.479L217.249 239.281L215.343 239.957C217.589 244.955 214.948 241.78 216.435 245.022C217.552 244.877 217.121 244.732 217.807 245.136C216.788 246.651 216.314 247.032 216.095 248.824C216.8 249.434 217.486 249.784 218.299 250.225C219.161 251.848 219.289 251.758 219.04 253.538C215.306 257.1 215.598 258.247 215.701 263.202C213.91 263.407 214.675 263.087 213.273 264.114L214.572 265.218L214.335 266.407L212.72 267.21C211.482 271.616 211.142 273.524 208.804 277.423L208.331 278.196L209.612 278.884C209.163 280.097 208.027 281.552 207.044 282.391C203.298 285.584 203.438 290.497 200.955 294.704C198.071 295.247 197.051 295.036 195.594 297.662L197.294 299.249L197.081 300.378C194.435 299.931 194.532 299.412 192.631 300.402C191.988 302.473 191.939 303.016 190.549 304.748C186.488 306.203 185.037 306.318 183.592 310.664C181.904 311.798 174.565 314.641 172.798 314.116C168.142 316.132 159.94 316.005 155.004 314.726L154.227 314.515L153.28 315.867C150.627 316.663 147.494 315.468 145.649 313.579C143.372 313.525 143.245 313.464 141.047 312.68L140.507 312.48C139.857 313.597 140.313 313.211 139.183 313.675C131.352 309.559 120.588 304.905 116.302 297.022C114.469 298.042 115.319 298.042 113.692 297.68C112.89 296.05 113.006 295.742 111.652 294.74L110.486 295.96L109.673 295.718C108.823 293.63 108.975 294.777 109.97 292.097C108.507 291.475 106.874 290.932 105.684 289.918L106.777 288.403L106.273 287.328L104.415 287.533C101.92 284.684 106.024 286.586 104.209 284.654C103.025 283.399 101.331 282.397 100.409 280.58C101.495 279.524 101.204 279.982 101.835 278.636L99.668 277.194C99.5405 275.757 99.5708 275.763 99.9351 274.417C94.6048 273.204 95.8858 268.508 95.139 263.172L93.1418 261.753L92.99 260.679C93.7671 260.401 94.4713 260.136 95.2423 259.834L92.0611 255.307C92.5286 254.462 93.0021 253.623 93.4817 252.784C92.1279 251.534 91.1627 250.937 90.7256 249.174C92.9718 248.311 92.2433 249.03 93.3603 247.382C93.1296 247.219 92.0793 246.422 91.9457 246.494C90.4948 247.261 93.0264 239.764 92.5468 239.082C91.533 237.621 91.8243 240.012 90.5312 237.126C91.2658 236.619 91.964 236.227 92.7593 235.835L92.5589 234.881L90.8287 234.175L90.6891 233.692C91.3144 233.475 93.0203 232.883 93.0264 232.539C93.0932 228.742 92.9111 224.499 94.7506 221.034C95.819 219.03 95.4973 219.682 97.9135 218.964C99.1034 208.274 106.133 203.331 114.329 197.126L114.086 195.333C118.731 193.154 120.576 193.45 124.692 191.295C126.562 190.323 125.202 189.176 127.479 188.319L128.377 189.659L129.002 189.17C129.027 187.746 128.839 187.909 129.355 186.701C130.198 187.649 129.707 187.154 130.86 188.144C134.582 187.715 144.878 185.663 147.774 183.623Z" fill="#FEFEFE"/>
<path d="M156.896 236.264C159.828 237.857 162.39 235.72 166.409 236.632L166.724 237.501L165.328 239.813C166.809 239.952 166.366 238.376 168.758 236.843L170.415 238.34L172.134 237.181L172.905 237.706L171.885 239.191C173.16 240.326 173.129 240.145 174.762 240.773C176.007 242.722 179.024 248.269 178.739 250.539L176.899 250.08L176.389 250.943C176.845 252.036 177.245 253.032 177.652 254.148L175.673 255.205C176.99 257.239 178.156 258.132 177.185 260.384C175.655 260.251 175.709 260.233 174.216 260.559L173.621 262.883C170.986 266.824 155.742 264.567 153.623 261.76C154.103 260.281 153.921 261.042 154.164 259.49C153.793 259.267 153.429 259.044 153.065 258.808C150.582 257.185 150.09 256.327 149.52 253.569L150.892 252.253C150.691 250.231 150.175 247.913 149.774 245.885C152.021 241.781 158.65 241.618 156.896 236.264Z" fill="#121211"/>
<path d="M349.11 177.697L349.972 177.691C349.99 179.345 349.65 178.748 350.591 179.72C351.957 178.808 352.054 178.573 353.633 178.277L355.138 180.106C356.759 179.834 358.38 179.581 360.007 179.339C364.117 181.162 366.151 181.458 369.162 184.802L369.593 185.273C371.342 187.198 373.57 184.736 376.119 186.335L375.591 187.464C375.961 188.466 389.178 198.311 390.853 199.644C391.315 201.033 391.303 201.16 391.375 202.596C394.217 204.455 391.515 202.143 394.314 202.542C396.184 210.383 399.51 210.751 403.062 217.65C403.797 219.087 401.708 220.65 402.534 223.42C404.385 223.994 403.857 223.674 405.381 224.736C403.22 230.127 405.697 226.613 406.844 230.802L405.49 231.267C405.703 234.448 406.316 231.279 407.463 234.672C405.836 237.014 405.387 236.905 405.776 239.024C407.397 240.044 406.947 239.549 408.058 241.009C407.233 241.855 407.178 241.927 406.486 242.826C407.032 244.347 407.123 244.233 408.198 245.482L407.585 247.939C406.826 250.878 406.498 251.609 407.087 254.633C405.745 254.597 406.109 254.578 404.683 254.826L404.422 256.136L405.915 257.114L405.952 258.073L403.608 258.9C403.548 264.622 403.523 267.26 399.395 271.021C398.06 272.24 397.1 274.244 397.21 276.151L398.746 276.441C397.647 279.175 395.528 276.851 394.435 279.531C386.968 297.784 377.516 299.293 362.654 310.176C359.734 307.865 357.427 311.903 353.851 313.219C347.562 315.536 344.854 315.289 338.729 313.176L338.577 312.784C338.243 313.086 337.909 313.382 337.575 313.683L336.786 312.808L337.648 310.762L337.017 310.442C336.021 311.722 335.541 312.645 334.03 313.17C332.33 311.553 331.164 311.71 329.222 310.255L329.349 308.185C326.605 307.533 329.562 308.661 326.836 309.657L324.007 306.977L322.252 307.032L322.325 305.565L321.712 305.227L319.065 306.935C318.889 305.981 319.059 305.553 319.223 304.605L318.136 303.845C316.315 303.965 314.196 304.46 313.188 302.788L314.785 301.297C311.683 300.012 307.737 296.698 305.187 294.362C303.657 292.962 305.624 293.988 305.916 291.875C304.289 292.092 304.956 292.322 303.766 291.598L303.912 289.563L301.362 288.821C300.185 285.441 301.994 288.887 302.048 285.978L299.966 285.791C297.222 282.568 294.472 269.838 293.658 265.395L295.055 263.651C294.126 262.449 294.569 262.987 292.681 262.389C292.299 260.711 290.052 252.454 290.198 251.542C290.556 249.351 291.503 245.567 291.764 242.597C290.647 243.038 291.273 242.844 289.864 243.122L289.785 242.144C290.878 240.883 291.643 240.213 292.171 238.625C291.2 237.231 290.957 237.219 290.908 235.583C291.758 234.146 292.396 233.398 292.432 231.738L291.188 231.678C291.036 229.837 293.446 225.207 294.241 222.684L293.227 221.157C293.136 218.066 293.409 221.338 295.644 218.151L294.636 216.618C294.666 209.29 298.011 209.29 300.743 203.091C302.589 198.884 305.029 196.965 307.47 193.204L306.772 191.828L307.233 191.043L308.144 190.772C313.255 189.275 312.946 189.112 316.916 185.587C324.954 178.458 338.996 180.064 349.11 177.697Z" fill="#FEFEFE"/>
<path d="M345.778 231.749C346.744 231.278 346.179 231.399 347.496 231.61L347.867 233.065C349.287 233.53 349.755 233.566 351.242 233.844C351.169 235.075 351.187 234.405 351.212 235.854C352.936 237.616 351.886 236.982 354.696 237.393L355.249 238.153L354.077 239.686C354.284 242.022 356.979 243.199 357.586 244.908C359.93 251.469 349.591 264.175 342.864 263.631C339.015 263.945 334.851 262.098 331.585 260.01C330.237 259.147 331.985 259.714 331.827 257.106C330.813 256.925 329.976 256.75 328.98 256.533C327.608 254.016 329.035 254.529 328.877 250.666L327.141 249.441L327.201 248.167C328.106 247.763 328.701 247.467 329.569 246.99C329.272 236.843 333.272 238.781 340.545 233.771C342.943 232.117 342.64 232.298 345.778 231.749Z" fill="#121211"/>
</svg>
