<svg width="500" height="500" viewBox="0 0 500 500" fill="none" xmlns="http://www.w3.org/2000/svg">
<path d="M220.077 155.063C227.147 142.902 237.567 136.314 251.757 136.015C254.807 135.951 257.268 136.018 259.918 137.638C265.008 139.749 266.038 141.587 268.593 146.379C276.543 153.704 270.497 157.269 278.507 163.15C279.442 163.836 283.848 165.589 285.298 166.283C288.533 165.792 290.348 165.531 293.643 165.432C309.803 149.76 331.733 152.911 340.673 171.682C344.553 179.831 340.213 187.849 347.218 195.063C349.383 197.03 353.827 198.625 356.617 200.114C359.832 199.512 363.308 198.79 366.513 198.281C375.133 202.281 378.528 199.281 383.223 210.85C386.908 219.921 384.518 224.508 384.273 233.459C380.433 238.244 379.673 240.785 377.293 246.481C377.918 248.615 378.838 252.164 379.628 254.125C390.438 261.699 397.348 267.914 400.393 281.793C401.653 287.519 398.832 293.637 396.182 298.755C386.522 304.809 386.443 307.678 380.158 316.834C381.888 319.74 382.233 320.273 384.593 322.754C385.123 329.65 389.073 335.083 389.363 341.576C389.613 347.09 385.833 355.127 383.228 360.09C380.458 361.579 375.743 365.28 374.638 365.71C366.373 368.919 349.623 365.085 347.723 376.723C347.473 378.279 347.122 377.746 347.382 379.745C348.757 384.215 348.432 391.69 346.762 395.965C339.737 409.975 333.508 412.488 318.348 412.075L317.843 412.405C309.743 417.64 307.328 409.384 296.488 407.065C285.078 412.857 285.062 421.179 275.887 429.09C266.132 437.505 247.442 439.077 238.367 428.938C235.862 426.135 237.672 427.188 233.817 425.764C232.262 424.036 230.773 421.565 229.473 419.587C223.803 419.037 223.447 418.703 218.632 415.553C196.917 427.006 169.923 428.686 164.913 398.329C164.333 394.801 164.698 393.91 167.208 391.663C165.463 387.668 160.978 384.288 159.283 380.045C154.373 376.934 150.583 376.566 145.038 376.57C134.193 374.539 134.213 376.665 124.298 369.365C107.723 357.16 112.683 348.353 119.853 331.933C120.978 329.356 122.623 327.544 124.338 325.414L124.298 323.608C124.208 320.428 124.428 319.463 124.963 316.367C123.143 313.702 118.093 309.127 115.163 305.411C107.833 304.367 100.157 300.393 99.1875 292.404C98.0975 283.388 101.823 268.969 108.738 262.784C114.023 258.055 120.903 257.98 121.233 248.731C122.258 239.718 117.593 236.542 115.298 228.685C114.308 225.294 115.143 220.901 114.303 217.293C115.213 211.479 116.368 210.218 119.653 205.501C121.038 203.148 122.272 202.82 124.447 201.558C132.957 196.622 139.632 200.051 148.492 199.431C152.317 199.163 154.587 198.17 158.132 196.787C159.647 194.478 161.203 192.195 162.803 189.941C162.478 186.275 162.307 182.918 163.202 179.29C164.697 171.938 165.837 165.115 171.077 159.126C175.832 153.685 182.603 153.921 189.268 153.588C196.218 159.675 206.512 162.656 215.377 159.411C216.857 158.869 218.992 156.279 220.077 155.063Z" fill="#FDEA03"/>
<path d="M259.918 137.639C265.008 139.75 266.038 141.588 268.593 146.38C265.948 145.732 264.498 144.869 262.083 143.658C261.158 141.644 260.603 139.742 259.918 137.639Z" fill="#F6E74B"/>
<path d="M299.252 243.193C300.252 242.401 302.452 241.923 303.722 241.956C310.637 242.134 317.917 239.734 324.162 243.719C326.817 245.566 322.672 247.067 326.512 250.65C327.542 250.123 327.347 250.247 328.222 249.578L328.732 250.167C328.477 251.301 328.417 251.529 327.972 252.598L328.472 252.718L329.512 251.718C330.692 254.856 327.697 258.262 329.137 259.608L330.972 259.544L331.052 260.462C329.997 260.36 330.512 260.441 329.492 260.22L328.872 261.409C329.647 263.471 329.687 262.506 328.942 264.406L326.972 265.044L326.777 266.135C327.447 266.87 328.027 267.481 328.737 268.178C327.782 269.341 327.947 269.024 326.522 269.83C325.672 272.747 325.882 274.591 324.437 277.191L323.887 277.423L322.682 276.452C320.407 278.072 323.182 277.376 319.252 280.459C319.352 279.998 319.147 279.614 319.017 279.171C317.617 279.426 317.712 279.393 316.687 280.384C316.662 281.85 316.922 282.108 317.532 283.442C316.692 283.145 316.287 282.968 315.487 282.577L314.907 283.003L315.567 284.103L315.127 284.087C313.627 284.043 313.377 283.992 311.877 284.401C309.177 287.074 312.947 287.475 307.547 288.533C303.187 292.491 304.022 286.588 300.132 288.196C298.922 288.696 297.567 290.449 296.112 290.46L295.677 289.174C293.822 289.072 294.142 289.247 292.952 290.743C289.542 291.87 287.782 289.563 284.782 288.91L283.827 289.895C282.712 288.925 282.682 288.388 282.157 286.985C281.002 286.068 280.957 285.828 279.552 285.61L278.847 286.004C277.987 286.473 277.617 286.644 276.727 287.008C274.887 285.815 275.042 284.909 274.482 282.46C272.747 281.61 270.722 280.834 269.502 279.443L271.482 279.544L272.122 278.598C271.712 278.078 271.547 277.79 271.047 277.367L269.782 278.245C266.267 278.114 264.832 274.28 262.912 271.899C256.657 264.147 257.312 256.877 256.707 247.156C257.492 246.776 258.282 246.407 259.077 246.05C267.127 242.455 271.257 244.711 279.467 244.07C283.052 243.79 287.797 241.882 291.437 241.81C294.287 241.753 296.587 242.176 299.252 243.193Z" fill="#000101"/>
<path d="M256.707 247.156C257.492 246.776 258.282 246.407 259.077 246.05C267.127 242.455 271.257 244.711 279.467 244.07C283.052 243.79 287.797 241.882 291.437 241.81C294.287 241.753 296.587 242.176 299.252 243.193L299.952 243.97C298.702 245.673 296.967 243.778 296.007 245.872C297.417 245.927 297.592 245.853 298.997 245.582L299.547 246.158C298.182 248.151 293.752 248.216 291.832 250.38L292.477 250.825L293.962 249.581L294.342 250.054C292.907 252.493 286.917 256.258 284.297 257.861C283.662 259.149 283.817 259.518 283.867 260.961C282.867 261.831 280.957 261.878 279.167 263.078L278.432 264.315C279.832 266.66 279.982 263.399 280.327 266.134L279.832 266.552L278.627 266.353C278.272 267.346 278.217 267.461 277.997 268.501C277.327 267.993 277.282 267.826 276.457 267.655C275.527 269.357 274.047 271.867 273.612 273.703C273.002 276.29 272.007 275.957 271.047 277.367L269.782 278.245C266.267 278.114 264.832 274.28 262.912 271.899C256.657 264.147 257.312 256.877 256.707 247.156Z" fill="#FEFDFC"/>
<path d="M200.013 247.572C204.758 247.818 207.033 245.694 209.633 245.784L209.838 247.21C214.028 248.427 221.428 243.346 228.593 247.864C228.403 249.033 228.018 249.134 227.143 250.203C228.193 250.015 228.358 249.942 229.373 249.613L230.568 250.877L231.733 250.756L232.713 249.52L233.608 249.731C234.263 252.94 232.263 249.703 233.058 252.992C233.788 252.993 234.393 252.985 235.128 252.958L234.973 253.513C233.233 254.044 233.548 254.542 232.088 255.197C233.468 255.289 234.073 255.27 235.458 255.19L236.703 256.184C236.783 259.579 235.148 257.13 235.538 258.897C236.118 261.515 237.943 262.808 237.913 265.662C235.738 267.498 236.778 264.893 234.853 266.693C235.778 267.743 235.923 267.812 237.073 268.642L237.248 269.492C236.283 269.659 235.318 269.798 234.343 269.909L233.903 270.633L235.693 273.251C235.068 274.562 235.523 273.994 233.988 274.711C233.143 274.371 232.298 274.038 231.453 273.711L231.333 274.848C232.293 275.909 232.888 275.911 234.288 276.334L234.038 277.768C232.518 278.287 233.133 278.149 231.398 277.936C229.558 279.462 230.013 281.947 230.153 284.092C227.693 285.875 228.013 283.791 225.948 286.392C226.158 287.651 226.113 287.598 226.738 288.702L226.643 289.027L225.323 288.069C224.668 288.214 218.743 291.75 217.113 292.56L216.623 294.306L216.093 294.358L215.713 292.222C212.808 292.095 209.668 295.686 205.198 295.197C201.223 290.786 199.908 294.585 195.053 295.315C194.063 294.362 193.508 294.216 193.438 293.197L195.843 293.672C195.973 292.552 195.903 293.051 194.883 291.67C193.263 291.815 193.138 291.954 191.678 292.567C187.393 291.469 187.588 288.233 183.288 291.121C182.003 290.535 180.978 288.906 180.048 287.723L180.428 287.524L183.033 288.551L183.158 287.957C180.798 284.8 179.363 287.051 176.613 283.703C177.453 283.284 178.188 283.586 179.318 283.715C179.018 282.322 178.718 282.448 177.463 281.254L176.598 281.1C176.333 281.462 176.068 281.823 175.803 282.185L175.778 280.852L175.983 280.803L176.153 279.458C174.598 280.473 175.398 280.316 173.718 280.16C167.038 275.906 164.328 258.769 165.663 251.73C166.688 250.425 167.788 249.178 168.868 247.918C176.503 248.157 184.643 247.108 192.318 246.913C195.193 246.84 197.748 245.565 200.013 247.572Z" fill="#000101"/>
<path d="M168.868 247.916C176.503 248.156 184.643 247.106 192.318 246.911C195.193 246.838 197.748 245.564 200.013 247.57C199.358 249.158 199.383 249.486 198.063 250.59L198.043 251.612L199.158 252.676C197.673 253.968 196.328 252.773 194.883 254.137L194.943 255.006L196.128 255.865C195.413 256.977 195.233 257.032 194.213 257.909C194.378 258.613 194.533 259.32 194.683 260.027C193.433 260.007 194.063 260.125 192.843 259.164C191.628 261.122 192.788 262.869 191.373 265.413L190.848 265.359L190.033 263.881C184.028 268.165 184.198 274.656 178.923 275.958C178.633 276.828 178.358 277.701 178.093 278.578C177.408 278.913 176.868 279.223 176.153 279.457C174.598 280.472 175.398 280.314 173.718 280.159C167.038 275.905 164.328 258.767 165.663 251.728C166.688 250.423 167.788 249.177 168.868 247.916Z" fill="#FEFDFC"/>
<path d="M284.22 315.634L284.43 315.709L284.54 316.952C287.67 317.007 284.18 316.456 287.02 315.209C287.21 315.593 287.615 316.645 288.035 316.657C292.055 316.768 299.795 316.679 303.485 318.07C304.225 319.682 303.945 321.702 303.875 323.543L304.595 323.629C305.145 322.376 305.35 321.696 306.275 320.659L306.78 321.067C306.605 324.025 304.51 323.648 305.755 327.588C307.045 327.055 306.85 326.785 307.75 325.306L308.08 325.793C308.1 327.701 308.23 328.455 307.55 330.263C305.75 331.209 305.75 331.107 304.62 332.737C305.23 333.157 304.955 333.001 305.67 333.34L306.195 333.582C306.185 335.015 306.36 335.159 305.53 336.254L304.03 336.405L303.745 337.128C304.71 337.593 304.53 337.43 305.33 338.109L304.89 338.926C303.64 339.712 302.78 339.462 301.25 339.376L300.6 339.336C301.005 339.949 301.415 340.558 301.83 341.161C300.38 343.091 297.775 341.62 296.815 340.09L295.1 340.469L293.715 339.282L293.085 339.649L293.275 340.327L295.7 341.444L295.475 341.967C292.41 342.64 293.485 341.802 291.67 341.348C288.635 340.588 286.28 342.599 281.8 341.81C277.92 337.8 275.79 342.483 272.585 342.279C268.67 342.03 264.59 340.972 260.425 340.741C255.66 340.476 252.29 342.697 247.97 342.598L247.7 342.087L248.965 340.165L248.74 339.591L247.8 339.69C246.065 342.892 245.85 342.128 242.24 342.014C239.155 345.188 240.315 342.196 236.78 342.059C236.295 342.04 235.805 343.6 233.525 343.988L234.665 342.349C231.45 341.614 230.42 342.976 227.845 344.534L225.41 343.423C223.39 343.519 223.92 344.143 221.89 343.651C222.11 342.644 222.09 343.141 221.96 342.163C220.7 341.556 221.2 341.629 219.835 341.737C220 343.181 220.155 342.712 219.67 343.91C218.14 342.797 218.32 341.277 216.12 340.289L215.29 340.629C215.695 342.14 216.99 343.219 218.1 344.416L218.04 344.785C216.045 344.623 213.635 343.268 212.165 341.913C212.74 340.372 212.905 340.686 212.69 339.322C210.08 339.392 212.895 340.231 210.45 340.848C207.54 337.031 208.71 333.38 209.495 329.256C208.58 329.68 208.625 329.652 207.58 329.983L206.41 329.322L206.54 328.574L209.38 327.962L209.85 327.126L209.43 326.463C208.505 326.701 208.9 326.778 208.21 326.422C210.155 323.556 209.845 324.74 210.045 321.708C211.715 320.667 211.36 322.251 213.55 321.453C213.275 320.615 213.08 319.922 212.855 319.069L213.565 318.822C214.34 319.953 214.33 320.212 215.52 320.79C218.255 320.075 217.635 318.807 218.28 318.669C220.35 318.226 222.495 320.8 224.63 319.845C223.695 318.647 223.7 319.129 223.665 318.013L224.975 317.816C225.825 318.54 225.65 318.494 226.025 319.553C228.995 319.948 230.255 317.674 232.725 318.387L231.275 319.505L231.34 320.194C233.095 321.036 232.225 320.921 234 320.776L234.35 318.694C235.775 317.828 234.98 318.129 236.955 318.191C238.28 319.002 238.5 319.22 240.01 319.68C240.485 318.614 240.225 319.106 240.775 318.195C243.165 318.3 246.465 318.474 248.8 318.766C249.275 318.825 251.855 316.204 253.875 316.376L254.36 317.862L254.975 318.087L257.01 316.848C257.52 317.39 257.96 317.83 258.495 318.343L259.415 317.938L259.975 316.014L260.485 316.135L260.81 317.758C262.64 319.269 265.25 316.941 266.86 316.615C267.615 316.462 268.3 318.63 270.99 318.81L271.295 318.305L270.04 316.543C272.22 315.633 281.005 317.665 284.22 315.634Z" fill="#000101"/>
<path d="M241.82 65.5987C242.322 65.4427 242.979 65.2244 242.647 65.441C244.762 64.0631 255.619 62.6569 255.892 66.4245L256.047 66.4567C258.938 67.0859 260.84 67.7906 262.758 70.2652C264.895 73.9503 265.34 74.9133 266.067 79.1557C267.789 79.3955 267.766 79.4471 268.988 79.8247C270.656 80.3397 279.491 81.6267 280.852 81.5857C284.446 82.3454 288.975 83.7353 292.425 84.135C294.247 84.1721 302.551 87.2434 304.65 88.2038C307.11 89.5463 309.517 90.9461 311.978 92.2922C313.353 93.044 316.268 94.0323 317.299 94.9128C320.658 97.7799 327.836 103.678 329.997 107.532C333.551 113.867 337.125 120.92 339.387 127.774C339.934 130.225 339.67 132.839 339.843 135.343C339.848 136.543 340.84 137.928 340.885 139.077C341.143 145.699 342.161 152.27 342.662 158.866C343.035 163.787 342.275 167.725 343.629 172.579C343.85 172.824 344.116 173.119 344.428 173.464C346.603 173.774 350.491 174.046 352.526 174.148C356.791 177.619 359.99 177.857 361.577 183.351L362.142 184.475C362.164 186.946 362.348 189.379 362.123 191.826C362.006 193.087 361.624 194.305 361.471 195.474C360.436 200.966 354.397 205.892 349.249 206.01C344.446 206.119 330.164 209.107 327.165 206.49C324.565 206.268 319.211 207.46 316.358 207.438C312.01 207.404 307.859 206.61 303.563 207.724L303.002 207.53L303.109 206.798C303.793 206.403 304.377 206.585 305.192 206.675C305.785 206.268 305.794 206.321 306.056 205.659C303.694 204.874 298.515 208.49 297.886 207.943L298.226 207.513C298.68 206.938 298.802 206.708 299.148 206.072L299.006 205.589L298.292 205.339C292.626 208.518 294.22 204.481 288.65 207.819C287.743 207.379 286.589 206.773 285.687 206.389C282.521 207.154 276.325 207.48 273.118 207.499C270.465 207.516 268.902 204.812 267.223 207.264C267.034 207.539 260.57 206.512 259.832 206.781C258.774 206.826 257.332 206.997 256.481 206.473L256.206 205.875C254.471 205.937 254.758 207.825 253.121 206.346C252.344 205.642 251.743 205.777 250.807 206.052L250.681 206.26L251.42 206.837L251.188 207.404L250.696 207.454L250.508 207.101C250.217 206.565 250.336 206.77 249.957 206.226C248.144 206.032 245.623 205.827 244.141 206.725C243.367 207.191 242.411 206.832 241.611 206.627C239.006 205.954 235.006 207.157 232.305 206.983C230.284 206.854 228.902 205.39 226.856 206.515C226.327 206.809 225.802 207.112 225.283 207.426L224.889 207.292L224.473 205.996L224.024 205.816C223.343 206.251 223.578 206.055 223.101 206.748C220.201 206.686 217.341 206.537 214.436 206.734C214.248 206.745 213.453 206.279 213.249 206.161C211.154 206.411 212.661 208.01 210.114 206.254C209.985 206.259 209.648 206.268 209.472 206.304C206.02 207.067 201.995 206.442 198.474 206.546C191.095 206.759 183.539 207.081 176.171 206.722C174.603 206.644 171.579 207.497 170.266 207.438C169.209 207.39 167.428 206.621 165.79 206.431C163.921 208.044 164.422 206.17 161.94 206.058C159.634 208.094 157.199 206.428 154.365 206.346C153.315 206.318 152.22 206.394 151.176 206.478C150.719 205.996 150.081 205.174 149.301 205.353C147.407 205.788 144.747 204.105 143.053 203.272C142.196 201.039 142.669 201.404 140.437 200.865C141.002 200.386 140.73 200.63 141.253 200.13C139.073 198.13 140.109 197.996 138.53 195.794C138.043 196.151 138.035 196.157 137.475 196.38C137 195.909 137.152 196.198 137.051 195.496C138.72 193.842 137.535 192.556 137.155 190.07C136.174 183.646 140.027 180.559 143.615 175.963C147.061 175.086 152.531 173.978 156.271 173.867C156.079 173.872 157.605 174.242 157.551 174.229C157.904 167.447 156.325 158.196 157.498 151.27C157.915 148.807 159.204 140.376 160.006 138.745C160.19 136.97 159.884 134.69 159.708 132.869C161.186 130.215 161.443 129.571 161.983 126.654C162.03 125.979 163.083 122.256 163.337 120.955C163.702 119.933 163.311 120.944 163.687 120.154C169.913 107.089 175.743 97.4716 189.018 90.6437C189.503 90.0981 197.928 86.33 199.046 86.1098C204.043 85.1258 209.189 83.3799 214.126 82.2102C216.804 81.873 231.297 80.1487 232.827 78.9894L234.422 79.4328C233.976 73.3208 239.673 69.8313 240.733 66.7485L241.82 65.5987Z" fill="#FFDEF3"/>
<path d="M299.969 174.686C300.869 173.514 301.829 172.275 303.469 172.277C304.146 172.819 303.987 172.475 304.109 173.249L303.032 173.596L303.115 173.907C303.854 174.594 303.979 174.521 304.966 174.683C305.499 173.412 305.568 172.395 306.492 171.412L306.901 171.442C307.646 172.412 307.773 173.573 308.056 174.801L310.259 173.382C312.409 173.416 313.652 173.681 315.769 173.995C316.331 173.656 316.473 173.567 316.935 173.126L317.289 172.782C318.343 172.618 317.862 172.55 318.795 172.895C319 173.506 319.103 173.845 319.225 174.469L319.327 174.997L319.685 175.197L320.081 174.959C320.297 174.189 320.353 173.974 320.689 173.256C321.954 172.916 322.746 172.866 323.898 173.408C324.478 174.151 324.406 174.218 325.197 174.664L325.584 173.609C326.56 173.166 337.001 174.207 339.064 173.856C339.369 173.803 339.656 174.415 339.855 174.699C340.794 174.743 341.514 173.841 342.841 173.177L343.082 173.058L343.629 172.58C343.85 172.825 344.116 173.12 344.428 173.465C346.603 173.775 350.491 174.047 352.526 174.148C356.791 177.619 359.99 177.857 361.577 183.352L362.142 184.476C362.164 186.947 362.348 189.379 362.123 191.826C362.006 193.087 361.624 194.305 361.471 195.475C360.436 200.967 354.397 205.893 349.249 206.01C344.446 206.12 330.164 209.107 327.165 206.49C324.565 206.269 319.211 207.461 316.358 207.438C312.01 207.405 307.859 206.611 303.563 207.724L303.002 207.531L303.109 206.799C303.793 206.403 304.377 206.586 305.192 206.675C305.785 206.269 305.794 206.322 306.056 205.66C303.694 204.874 298.515 208.49 297.886 207.943L298.226 207.514C298.68 206.939 298.802 206.709 299.148 206.072L299.006 205.59L298.292 205.34C292.626 208.518 294.22 204.482 288.65 207.82C287.743 207.379 286.589 206.773 285.687 206.389C282.521 207.155 276.325 207.48 273.118 207.5C270.465 207.517 268.902 204.813 267.223 207.264C267.034 207.539 260.57 206.513 259.832 206.782C258.774 206.827 257.332 206.998 256.481 206.473L256.206 205.876C254.471 205.938 254.758 207.825 253.121 206.347C252.344 205.643 251.743 205.778 250.807 206.053L250.681 206.26L251.42 206.838L251.188 207.405L250.696 207.455L250.508 207.102C250.217 206.566 250.336 206.771 249.957 206.226C248.144 206.033 245.623 205.828 244.141 206.726C243.367 207.191 242.411 206.832 241.611 206.628C239.006 205.954 235.006 207.158 232.305 206.984C230.284 206.855 228.902 205.391 226.856 206.515C226.327 206.81 225.802 207.113 225.283 207.427L224.889 207.292L224.473 205.996L224.024 205.817C223.343 206.252 223.578 206.055 223.101 206.748C220.201 206.687 217.341 206.538 214.436 206.734C214.248 206.745 213.453 206.28 213.249 206.162C211.154 206.412 212.661 208.011 210.114 206.255C209.985 206.26 209.648 206.269 209.472 206.305C206.02 207.068 201.995 206.442 198.474 206.546C191.095 206.759 183.539 207.082 176.171 206.723C174.603 206.644 171.579 207.497 170.266 207.438C169.209 207.391 167.428 206.622 165.79 206.431C163.921 208.044 164.422 206.17 161.94 206.058C159.634 208.095 157.199 206.428 154.365 206.347C153.315 206.319 152.22 206.395 151.176 206.479C150.719 205.996 150.081 205.175 149.301 205.354C147.407 205.789 144.747 204.106 143.053 203.273C142.196 201.04 142.669 201.405 140.437 200.866C141.002 200.386 140.73 200.63 141.253 200.131C139.073 198.131 140.109 197.996 138.53 195.795C138.043 196.151 138.035 196.158 137.475 196.38C137 195.91 137.152 196.199 137.051 195.497C138.72 193.842 137.535 192.557 137.155 190.071C136.174 183.647 140.027 180.56 143.615 175.964C147.061 175.087 152.531 173.979 156.271 173.867C156.079 173.873 157.605 174.243 157.551 174.229L157.677 174.375C158.279 174.124 159.039 174.086 159.713 173.995C161.693 173.855 162.159 173.307 163.94 173.09C166.803 174.727 169.906 173.929 173.106 174.087C175.835 174.221 178.258 173.049 180.954 172.849L181.227 173.092C180.711 173.649 180.613 173.523 180.611 174.006L186.751 174.33C188.071 173.662 187.538 173.462 188.739 172.188L189.172 172.241C189.942 173.39 190.137 174.295 191.49 173.853C192.035 173.117 192.257 172.673 193.077 172.269C194.224 172.682 193.682 173.04 194.916 174.363L195.603 174.373C195.972 174.142 197.427 173.199 197.724 173.228C201.319 173.573 205.149 175.348 208.706 173.343C209.194 174.525 208.975 174.585 209.829 175.014C211.558 174.778 211.971 174.44 213.514 173.892C213.943 173.74 215.069 173.717 215.768 173.538C218.934 173.4 219.983 173.174 222.972 172.331C223.673 172.91 223.576 172.988 223.962 173.888L224.445 174.039C225.489 173.248 226.255 172.211 227.301 171.999L227.68 172.087C227.343 172.822 227.374 172.625 226.679 173.214C228.526 174.385 234.837 172.767 236.582 173.895C236.171 173.629 237.706 174.955 237.325 174.619C238.025 174.406 238.737 173.618 238.996 173.568C240.824 173.213 244.541 172.968 246.263 173.451C249.848 174.458 248.746 175.142 251.183 172.102C251.835 173.31 252.163 174.443 253.263 174.864C253.93 174.522 253.897 174.5 254.408 173.932C254.979 174.838 255.231 175.474 256.185 175.917C257.327 175.949 258.014 175.543 259.09 175.092C260.327 174.394 262.319 173.659 263.819 172.871C265.19 173.882 266.506 175.207 268.272 174.356C268.098 173.255 267.409 173.807 266.738 172.554C268.876 172.453 272.187 175.378 273.642 174.65C273.38 174.011 273.143 173.544 272.835 172.929L273.147 172.579C273.867 172.996 274.745 174.094 275.432 174.237C277.111 174.588 278.187 174.773 279.739 173.879C281.313 173.411 282.481 173.383 284.103 173.251L285.161 173.231C286.203 173.26 287.512 173.252 288.522 173.375C291.831 174.378 295.757 174.548 298.286 171.828L299.969 174.686Z" fill="#FE03BB"/>
<path d="M247.6 205.782C250.823 204.189 263.807 206.189 268.204 205.364C269.433 205.132 271.538 206.801 272.623 206.829C275.153 206.829 277.66 206.315 280.192 206.209C284.765 206.012 288.846 206.439 293.372 205.35C293.871 205.233 297.815 205.022 298.146 205.045L298.291 205.339C292.626 208.517 294.22 204.481 288.649 207.819C287.742 207.378 286.588 206.773 285.686 206.388C282.521 207.154 276.325 207.479 273.118 207.499C270.464 207.516 268.901 204.812 267.222 207.263C267.034 207.538 260.569 206.512 259.831 206.781C258.773 206.826 257.332 206.997 256.48 206.472L256.205 205.875C254.471 205.937 254.757 207.824 253.121 206.346C252.344 205.642 251.742 205.777 250.807 206.052L250.68 206.259L251.42 206.837L251.188 207.404L250.696 207.454L250.508 207.101C250.216 206.565 250.335 206.77 249.956 206.226C248.144 206.032 245.622 205.827 244.14 206.725C243.367 207.191 242.41 206.831 241.61 206.627C239.005 205.953 235.006 207.157 232.305 206.983C230.283 206.854 228.901 205.39 226.855 206.514C226.326 206.809 225.802 207.112 225.283 207.426L224.888 207.292L224.472 205.996L224.024 205.816C223.342 206.251 223.577 206.054 223.1 206.747C220.2 206.686 217.34 206.537 214.436 206.733C214.247 206.745 213.453 206.279 213.248 206.161C211.153 206.411 212.661 208.01 210.113 206.254C210.356 206.268 210.604 206.293 210.845 206.231C214.683 205.241 225.949 204.946 230.096 205.129C232.582 205.235 235.039 205.878 237.535 205.937C241.698 206.032 243.02 204.5 247.6 205.782Z" fill="#FE03F6"/>
<path d="M143.615 175.964C147.061 175.087 152.531 173.979 156.271 173.867C156.079 173.873 157.605 174.243 157.551 174.229L157.677 174.375C156.123 175.577 152.81 175.369 150.736 175.606C148.357 175.864 145.996 176.261 143.663 176.796C142.591 180.2 140.636 179.426 140.366 183.197C138.715 184.45 137.836 184.935 137.892 187.276C138.007 192.116 138.778 198.877 143.92 200.748C144.337 201.424 144.251 201.525 144.279 202.352C145.282 203.214 146.33 202.74 147.572 202.479C148.044 202.93 149.451 204.291 149.961 204.487C152.972 205.651 158.849 206.462 161.94 206.058C159.634 208.094 157.199 206.428 154.365 206.347C153.315 206.319 152.22 206.395 151.176 206.479C150.719 205.996 150.081 205.174 149.301 205.354C147.407 205.789 144.747 204.106 143.053 203.272C142.196 201.04 142.669 201.404 140.437 200.866C141.002 200.386 140.73 200.63 141.253 200.131C139.073 198.131 140.109 197.996 138.53 195.795C138.043 196.151 138.035 196.158 137.475 196.38C137 195.909 137.152 196.199 137.051 195.497C138.72 193.842 137.535 192.556 137.155 190.07C136.174 183.647 140.027 180.56 143.615 175.964Z" fill="#FE03F6"/>
<path d="M343.629 172.58C343.85 172.825 344.116 173.12 344.428 173.465C346.603 173.775 350.491 174.047 352.526 174.148C356.791 177.619 359.99 177.857 361.577 183.352C357.348 180.544 357.128 180.825 354.492 176.51C352.234 176.067 350.477 175.236 348.287 174.767C347.599 174.62 347.284 175.178 346.696 175.736C345.428 175.459 343.999 173.979 343.082 173.058L343.629 172.58Z" fill="#FE03F6"/>
<path d="M285.16 173.23C286.202 173.259 287.511 173.251 288.521 173.374C287.821 174.28 286.943 175.847 285.812 175.764C285.219 174.949 285.265 174.252 285.16 173.23Z" fill="#FE03F6"/>
<path d="M279.738 173.879C281.312 173.41 282.48 173.382 284.102 173.25L283.908 173.427C283.02 174.243 282.519 174.833 281.74 175.754C280.797 175.115 280.69 174.46 279.738 173.879Z" fill="#FE03F6"/>
<path d="M281.359 186.393C282.349 186.836 283.861 188.026 284.216 189.104C284.425 189.741 284.222 189.764 283.849 190.555L283.112 190.356C281.909 189.262 280.627 188.057 281.359 186.393Z" fill="#FE03F6"/>
<path d="M273.636 186.137C274.56 186.667 275.123 187.386 275.715 188.244L275.594 188.916C274.38 189.055 273.918 189.308 273.081 188.361C273.019 187.34 273.227 187.063 273.636 186.137Z" fill="#FE03F6"/>
<path d="M150.348 195.289L150.908 195.549C151.573 196.738 151.742 197.203 150.877 198.328C150.08 198.016 149.99 198.086 149.551 197.388C149.464 196.489 149.863 196.073 150.348 195.289Z" fill="#FE03F6"/>
<path d="M243.441 189.727C244.34 189.732 244.486 189.653 245.277 190.091C245.756 190.851 245.564 191.42 245.458 192.342C244.248 191.878 243.976 190.91 243.441 189.727Z" fill="#FE03F6"/>
<path d="M240.161 193.549C240.502 193.441 240.874 193.53 241.129 193.782C241.385 194.034 241.482 194.407 241.382 194.753C241.282 195.098 241.001 195.36 240.651 195.434C240.146 195.54 239.647 195.229 239.516 194.726C239.386 194.223 239.669 193.706 240.161 193.549Z" fill="#FE03F6"/>
<path d="M156.667 184.967C158.073 185.751 158.136 186.342 157.96 187.776C157.207 187.613 157.261 187.591 156.703 187.035C156.372 186.084 156.486 185.954 156.667 184.967Z" fill="#FE03F6"/>
<path d="M241.822 65.5987C242.324 65.4427 242.981 65.2244 242.648 65.441C244.764 64.0631 255.621 62.6569 255.894 66.4245L256.049 66.4567C258.94 67.0859 260.841 67.7906 262.76 70.2652C264.896 73.9503 265.341 74.9133 266.069 79.1557C265.919 79.3394 265.378 80.2738 264.466 80.2702C258.581 80.2466 252.338 79.9939 246.507 79.8772C246.341 79.8738 245.91 79.1074 245.747 78.8303C243.728 78.6087 243.537 82.0755 240.047 79.4311C238.241 79.7434 239.883 80.4469 238.785 80.3291C236.548 80.089 237.086 78.9495 234.423 79.4328C233.977 73.3208 239.674 69.8313 240.735 66.7485L241.822 65.5987Z" fill="#FE03BB"/>
<path d="M241.82 65.5987C242.322 65.4427 242.979 65.2244 242.647 65.441C244.762 64.0631 255.619 62.6569 255.892 66.4245C255.193 66.2318 254.158 65.597 253.48 65.2183C252.057 65.2396 250.599 65.2777 249.181 65.3885C246.197 65.6216 244.669 66.8248 241.82 65.5987Z" fill="#FE03F6"/>
<path d="M256.047 66.457C258.938 67.0862 260.839 67.7909 262.758 70.2655C260.532 70.2969 257.048 68.4548 256.047 66.457Z" fill="#FE03F6"/>
<path d="M280.852 81.5859C284.446 82.3456 288.975 83.7355 292.425 84.1352C292.395 84.568 292.464 84.3467 292.137 84.7675C289.706 85.0368 282.233 83.3164 280.098 81.9509L280.852 81.5859Z" fill="#FFDEF3"/>
<path d="M254.41 173.931C254.685 173.01 254.453 173.398 255.13 172.722C257.011 172.359 258.291 173.499 259.092 175.091C258.016 175.542 257.329 175.948 256.187 175.917C255.233 175.473 254.981 174.837 254.41 173.931Z" fill="#FF0749"/>
<path d="M211.009 171.736C212.197 173.316 212.177 173.524 214.176 173.527L215.768 173.539C215.069 173.717 213.944 173.74 213.515 173.892C211.971 174.441 211.559 174.778 209.83 175.014C208.976 174.585 209.195 174.525 208.707 173.343C209.488 172.777 210.201 172.263 211.009 171.736Z" fill="#FF920F"/>
<path d="M231.92 131.926C232.7 132.73 232.259 133.323 232.601 134.681L232.993 134.759C233.986 133.816 234.247 133.208 235.561 133.713C236.46 134.747 236.62 135.85 237.332 136.474C238.048 135.99 238.049 135.954 238.857 135.693L239.151 136.109C238.838 136.742 238.654 137.146 238.398 137.804C240.109 139.001 239.74 140.381 241.032 142.172C240.494 142.797 240.033 143.348 239.523 143.995L239.783 144.068C240.569 143.763 241.089 143.471 241.924 143.532C243.288 144.474 243.225 146.524 244.829 146.681C245.426 145.866 245.165 146.04 245.954 145.533C246.925 146.188 245.759 146.123 246.296 147.405C247.18 147.255 247.251 147.27 248.154 147.319C250.591 148.959 250.099 146.941 251.143 146.091C251.46 146.873 251.512 147.229 252.207 147.698C253.408 147.804 258.948 143.704 260.806 142.838C260.071 142.125 259.8 141.714 259.192 140.874L259.249 140.556C260.112 140.603 260.458 140.693 261.259 140.348C261.946 138.627 260.623 139.503 260.285 138.095L260.647 137.705L261.798 137.839L262.039 137.369C261.583 136.633 261.663 136.944 261.595 136.118C264.074 133.59 265.239 134.694 267.609 133.44C267.471 132.944 267.465 132.935 267.392 132.409L267.91 132.372L268.121 133.167C268.76 133.454 269.448 133.083 270.321 132.858L271.021 133.307C271.556 134.563 271.06 134.247 271.125 135.797C272.481 135.087 272.977 134.175 274.545 134.791L274.713 135.286C273.467 138.365 274.985 138.96 275.04 142.17C275.063 143.509 274.426 145.244 273.971 146.53C272.728 146.643 272.52 146.464 272.083 147.637C272.776 148.699 273.055 147.936 273.878 148.931L273.528 149.214C272.024 149.096 271.838 148.834 270.82 149.961C272.003 152.932 269.886 152.978 267.611 153.374C266.863 154.06 267.077 154.025 266.783 155.227C265.951 154.749 266.22 154.773 265.348 154.65L265.042 155.209L265.424 156.448L265.012 156.714C264.311 156.612 263.745 156.546 263.039 156.487L262.74 156.877C262.756 157.718 262.796 157.909 262.613 158.743L262.19 158.781C261.791 157.946 261.902 157.944 261.27 157.36C260.121 158.054 261.04 158.532 259.717 159.313C255.912 158.343 258.247 160.369 256.386 161.538L255.999 161.268C256.007 160.586 255.996 159.904 255.965 159.222L255.595 159.111C255.006 160.12 254.891 160.852 253.706 160.743C251.2 158.244 252.06 161.238 249.546 161.509C248.7 160.969 250.076 160.927 249.705 159.723C248.796 159.513 246.817 160.05 245.8 160.26C246.247 160.652 246.082 160.401 246.245 161.045L245.808 161.168C244.517 160.745 243.559 159.916 242.446 159.105C240.766 159.069 242.569 159.396 241.068 159.925C239.735 158.713 240.684 158.47 239.685 157.486C238.845 157.9 239.191 158.311 238.284 159.269C237.268 158.251 238.468 157.829 237.526 156.85L236.634 157.613C235.756 157.489 235.159 156.74 234.377 156.07L233.974 156.139L233.335 157.141H233.058C233.143 156.495 233.215 155.848 233.276 155.199C232.643 154.467 232.532 154.649 231.386 154.345C230.675 153.749 230.616 153.232 230.313 152.331L230.191 151.96C229.375 151.291 229.629 151.505 228.258 151.553C227.713 150.588 228.508 150.125 228.412 149.702C228.075 148.216 226.67 146.609 226.162 145.111L226.968 143.816C224.147 139.847 227.437 140.686 225.551 137.471L225.714 137.091L227.26 136.99L227.519 136.564C226.856 134.439 227.753 134.479 229.393 132.999C229.669 133.324 229.756 133.802 229.9 134.244L230.439 134.353C231.269 133.796 231.364 133.257 231.762 132.31L231.92 131.926Z" fill="black"/>
<path d="M240.734 66.75C239.674 69.8328 233.977 73.3223 234.423 79.4344L232.828 78.9909C233.269 77.6397 233.151 77.0843 233.435 75.8441C234.57 70.8757 236.903 69.3433 240.734 66.75Z" fill="#FE03F6"/>
<path d="M362.144 184.477C363.371 186.644 364.502 187.683 363.769 190.386C363.338 191.976 362.4 194.129 361.473 195.476C361.626 194.306 362.007 193.088 362.124 191.827C362.35 189.38 362.166 186.948 362.144 184.477Z" fill="#FE03F6"/>
</svg>
