<svg width="500" height="500" viewBox="0 0 500 500" fill="none" xmlns="http://www.w3.org/2000/svg">
<path d="M233.077 147.649C240.147 135.488 250.567 128.9 264.757 128.601C267.807 128.537 270.268 128.604 272.918 130.224C278.008 132.335 279.038 134.173 281.593 138.965C289.543 146.29 283.497 149.855 291.507 155.736C292.442 156.422 296.848 158.175 298.298 158.869C301.533 158.378 303.348 158.117 306.643 158.018C322.803 142.346 344.733 145.497 353.673 164.268C357.553 172.417 353.213 180.435 360.218 187.649C362.383 189.616 366.827 191.211 369.617 192.7C372.832 192.098 376.308 191.376 379.513 190.867C388.133 194.867 391.528 191.867 396.223 203.436C399.908 212.507 397.518 217.094 397.273 226.045C393.433 230.83 392.673 233.371 390.293 239.067C390.918 241.201 391.838 244.75 392.628 246.711C403.438 254.285 410.348 260.5 413.393 274.379C414.653 280.105 411.832 286.223 409.182 291.341C399.522 297.395 399.443 300.264 393.158 309.42C394.888 312.326 395.233 312.859 397.593 315.34C398.123 322.236 402.073 327.669 402.363 334.162C402.613 339.676 398.833 347.713 396.228 352.676C393.458 354.165 388.743 357.866 387.638 358.296C379.373 361.505 362.623 357.671 360.723 369.309C360.473 370.865 360.122 370.332 360.382 372.331C361.757 376.801 361.432 384.276 359.762 388.551C352.737 402.561 346.508 405.074 331.348 404.661L330.843 404.991C322.743 410.226 320.328 401.97 309.488 399.651C298.078 405.443 298.062 413.765 288.887 421.676C279.132 430.091 260.442 431.663 251.367 421.524C248.862 418.721 250.672 419.774 246.817 418.35C245.262 416.622 243.773 414.151 242.473 412.173C236.803 411.623 236.447 411.289 231.632 408.139C209.917 419.592 182.923 421.272 177.913 390.915C177.333 387.387 177.698 386.496 180.208 384.249C178.463 380.254 173.978 376.874 172.283 372.631C167.373 369.52 163.583 369.152 158.038 369.156C147.193 367.125 147.213 369.251 137.298 361.951C120.723 349.746 125.683 340.939 132.853 324.519C133.978 321.942 135.623 320.13 137.338 318L137.298 316.194C137.208 313.014 137.428 312.049 137.963 308.953C136.143 306.288 131.093 301.713 128.163 297.997C120.833 296.953 113.157 292.979 112.187 284.99C111.097 275.974 114.823 261.555 121.738 255.37C127.023 250.641 133.903 250.566 134.233 241.317C135.258 232.304 130.593 229.128 128.298 221.271C127.308 217.88 128.143 213.487 127.303 209.879C128.213 204.065 129.368 202.804 132.653 198.087C134.038 195.734 135.272 195.406 137.447 194.144C145.957 189.208 152.632 192.637 161.492 192.017C165.317 191.749 167.587 190.756 171.132 189.373C172.647 187.064 174.203 184.781 175.803 182.527C175.478 178.861 175.307 175.504 176.202 171.876C177.697 164.524 178.837 157.701 184.077 151.712C188.832 146.271 195.603 146.507 202.268 146.174C209.218 152.261 219.512 155.242 228.377 151.997C229.857 151.455 231.992 148.865 233.077 147.649Z" fill="#FDEA03"/>
<path d="M272.918 130.225C278.008 132.336 279.038 134.174 281.593 138.966C278.948 138.318 277.498 137.455 275.083 136.244C274.158 134.23 273.603 132.328 272.918 130.225Z" fill="#F6E74B"/>
<path d="M312.252 235.779C313.252 234.987 315.452 234.509 316.722 234.542C323.637 234.72 330.917 232.32 337.162 236.305C339.817 238.152 335.672 239.653 339.512 243.236C340.542 242.709 340.347 242.833 341.222 242.164L341.732 242.753C341.477 243.887 341.417 244.115 340.972 245.184L341.472 245.304L342.512 244.304C343.692 247.442 340.697 250.848 342.137 252.194L343.972 252.13L344.052 253.048C342.997 252.946 343.512 253.027 342.492 252.806L341.872 253.995C342.647 256.057 342.687 255.092 341.942 256.992L339.972 257.63L339.777 258.721C340.447 259.456 341.027 260.067 341.737 260.764C340.782 261.927 340.947 261.61 339.522 262.416C338.672 265.333 338.882 267.177 337.437 269.777L336.887 270.009L335.682 269.038C333.407 270.658 336.182 269.962 332.252 273.045C332.352 272.584 332.147 272.2 332.017 271.757C330.617 272.012 330.712 271.979 329.687 272.97C329.662 274.436 329.922 274.694 330.532 276.028C329.692 275.731 329.287 275.554 328.487 275.163L327.907 275.589L328.567 276.689L328.127 276.673C326.627 276.629 326.377 276.578 324.877 276.987C322.177 279.66 325.947 280.061 320.547 281.119C316.187 285.077 317.022 279.174 313.132 280.782C311.922 281.282 310.567 283.035 309.112 283.046L308.677 281.76C306.822 281.658 307.142 281.833 305.952 283.329C302.542 284.456 300.782 282.149 297.782 281.496L296.827 282.481C295.712 281.511 295.682 280.974 295.157 279.571C294.002 278.654 293.957 278.414 292.552 278.196L291.847 278.59C290.987 279.059 290.617 279.23 289.727 279.594C287.887 278.401 288.042 277.495 287.482 275.046C285.747 274.196 283.722 273.42 282.502 272.029L284.482 272.13L285.122 271.184C284.712 270.664 284.547 270.376 284.047 269.953L282.782 270.831C279.267 270.7 277.832 266.866 275.912 264.485C269.657 256.733 270.312 249.463 269.707 239.742C270.492 239.362 271.282 238.993 272.077 238.636C280.127 235.041 284.257 237.297 292.467 236.656C296.052 236.376 300.797 234.468 304.437 234.396C307.287 234.339 309.587 234.762 312.252 235.779Z" fill="#000101"/>
<path d="M269.707 239.742C270.492 239.362 271.282 238.993 272.077 238.636C280.127 235.041 284.257 237.297 292.467 236.656C296.052 236.376 300.797 234.468 304.437 234.396C307.287 234.339 309.587 234.762 312.252 235.779L312.952 236.556C311.702 238.259 309.967 236.364 309.007 238.458C310.417 238.513 310.592 238.439 311.997 238.168L312.547 238.744C311.182 240.737 306.752 240.802 304.832 242.966L305.477 243.411L306.962 242.167L307.342 242.64C305.907 245.079 299.917 248.844 297.297 250.447C296.662 251.735 296.817 252.104 296.867 253.547C295.867 254.417 293.957 254.464 292.167 255.664L291.432 256.901C292.832 259.246 292.982 255.985 293.327 258.72L292.832 259.138L291.627 258.939C291.272 259.932 291.217 260.047 290.997 261.087C290.327 260.579 290.282 260.412 289.457 260.241C288.527 261.943 287.047 264.453 286.612 266.289C286.002 268.876 285.007 268.543 284.047 269.953L282.782 270.831C279.267 270.7 277.832 266.866 275.912 264.485C269.657 256.733 270.312 249.463 269.707 239.742Z" fill="#FEFDFC"/>
<path d="M213.013 240.157C217.758 240.404 220.033 238.28 222.633 238.37L222.838 239.795C227.028 241.012 234.428 235.932 241.593 240.449C241.403 241.618 241.018 241.72 240.143 242.788C241.193 242.6 241.358 242.527 242.373 242.199L243.568 243.462L244.733 243.341L245.713 242.105L246.608 242.317C247.263 245.525 245.263 242.288 246.058 245.577C246.788 245.578 247.393 245.57 248.128 245.544L247.973 246.099C246.233 246.63 246.548 247.128 245.088 247.783C246.468 247.875 247.073 247.856 248.458 247.776L249.703 248.77C249.783 252.164 248.148 249.716 248.538 251.482C249.118 254.1 250.943 255.394 250.913 258.248C248.738 260.083 249.778 257.478 247.853 259.279C248.778 260.329 248.923 260.397 250.073 261.227L250.248 262.077C249.283 262.244 248.318 262.383 247.343 262.495L246.903 263.218L248.693 265.836C248.068 267.148 248.523 266.58 246.988 267.297C246.143 266.957 245.298 266.623 244.453 266.297L244.333 267.433C245.293 268.495 245.888 268.496 247.288 268.919L247.038 270.353C245.518 270.873 246.133 270.735 244.398 270.522C242.558 272.047 243.013 274.533 243.153 276.678C240.693 278.461 241.013 276.377 238.948 278.977C239.158 280.237 239.113 280.183 239.738 281.288L239.643 281.612L238.323 280.655C237.668 280.799 231.743 284.336 230.113 285.146L229.623 286.892L229.093 286.943L228.713 284.807C225.808 284.681 222.668 288.272 218.198 287.783C214.223 283.371 212.908 287.171 208.053 287.901C207.063 286.947 206.508 286.802 206.438 285.783L208.843 286.257C208.973 285.138 208.903 285.637 207.883 284.255C206.263 284.401 206.138 284.54 204.678 285.152C200.393 284.054 200.588 280.819 196.288 283.706C195.003 283.12 193.978 281.491 193.048 280.309L193.428 280.109L196.033 281.136L196.158 280.543C193.798 277.386 192.363 279.637 189.613 276.288C190.453 275.87 191.188 276.171 192.318 276.301C192.018 274.907 191.718 275.034 190.463 273.84L189.598 273.685C189.333 274.047 189.068 274.409 188.803 274.771L188.778 273.438L188.983 273.389L189.153 272.044C187.598 273.059 188.398 272.901 186.718 272.746C180.038 268.492 177.328 251.354 178.663 244.315C179.688 243.01 180.788 241.764 181.868 240.503C189.503 240.743 197.643 239.693 205.318 239.498C208.193 239.425 210.748 238.151 213.013 240.157Z" fill="#000101"/>
<path d="M181.868 240.502C189.503 240.742 197.643 239.692 205.318 239.497C208.193 239.424 210.748 238.15 213.013 240.156C212.358 241.744 212.383 242.072 211.063 243.176L211.043 244.198L212.158 245.262C210.673 246.554 209.328 245.359 207.883 246.723L207.943 247.592L209.128 248.451C208.413 249.563 208.233 249.618 207.213 250.495C207.378 251.199 207.533 251.906 207.683 252.613C206.433 252.593 207.063 252.711 205.843 251.75C204.628 253.708 205.788 255.455 204.373 257.999L203.848 257.945L203.033 256.467C197.028 260.751 197.198 267.242 191.923 268.544C191.633 269.414 191.358 270.287 191.093 271.164C190.408 271.499 189.868 271.809 189.153 272.043C187.598 273.058 188.398 272.9 186.718 272.745C180.038 268.491 177.328 251.353 178.663 244.314C179.688 243.009 180.788 241.763 181.868 240.502Z" fill="#FEFDFC"/>
<path d="M297.22 308.22L297.43 308.295L297.54 309.538C300.67 309.593 297.18 309.042 300.02 307.795C300.21 308.179 300.615 309.231 301.035 309.243C305.055 309.354 312.795 309.265 316.485 310.656C317.225 312.268 316.945 314.288 316.875 316.129L317.595 316.215C318.145 314.962 318.35 314.281 319.275 313.244L319.78 313.653C319.605 316.611 317.51 316.234 318.755 320.174C320.045 319.641 319.85 319.371 320.75 317.892L321.08 318.378C321.1 320.286 321.23 321.041 320.55 322.849C318.75 323.795 318.75 323.692 317.62 325.322C318.23 325.743 317.955 325.587 318.67 325.926L319.195 326.168C319.185 327.601 319.36 327.745 318.53 328.84L317.03 328.99L316.745 329.714C317.71 330.179 317.53 330.015 318.33 330.695L317.89 331.512C316.64 332.298 315.78 332.048 314.25 331.962L313.6 331.922C314.005 332.535 314.415 333.144 314.83 333.747C313.38 335.676 310.775 334.206 309.815 332.676L308.1 333.055L306.715 331.868L306.085 332.235L306.275 332.913L308.7 334.03L308.475 334.553C305.41 335.226 306.485 334.388 304.67 333.934C301.635 333.174 299.28 335.185 294.8 334.396C290.92 330.386 288.79 335.069 285.585 334.865C281.67 334.616 277.59 333.558 273.425 333.327C268.66 333.062 265.29 335.283 260.97 335.184L260.7 334.673L261.965 332.751L261.74 332.177L260.8 332.276C259.065 335.478 258.85 334.713 255.24 334.6C252.155 337.773 253.315 334.782 249.78 334.645C249.295 334.626 248.805 336.186 246.525 336.574L247.665 334.934C244.45 334.199 243.42 335.561 240.845 337.119L238.41 336.009C236.39 336.105 236.92 336.729 234.89 336.237C235.11 335.23 235.09 335.727 234.96 334.748C233.7 334.141 234.2 334.215 232.835 334.323C233 335.767 233.155 335.298 232.67 336.496C231.14 335.383 231.32 333.863 229.12 332.875L228.29 333.214C228.695 334.726 229.99 335.805 231.1 337.002L231.04 337.371C229.045 337.208 226.635 335.854 225.165 334.499C225.74 332.958 225.905 333.272 225.69 331.908C223.08 331.978 225.895 332.816 223.45 333.433C220.54 329.617 221.71 325.965 222.495 321.842C221.58 322.265 221.625 322.238 220.58 322.569L219.41 321.908L219.54 321.16L222.38 320.548L222.85 319.712L222.43 319.049C221.505 319.287 221.9 319.364 221.21 319.008C223.155 316.142 222.845 317.325 223.045 314.294C224.715 313.252 224.36 314.837 226.55 314.039C226.275 313.201 226.08 312.508 225.855 311.655L226.565 311.407C227.34 312.538 227.33 312.798 228.52 313.376C231.255 312.661 230.635 311.393 231.28 311.255C233.35 310.812 235.495 313.385 237.63 312.431C236.695 311.232 236.7 311.714 236.665 310.599L237.975 310.402C238.825 311.125 238.65 311.08 239.025 312.139C241.995 312.533 243.255 310.259 245.725 310.972L244.275 312.091L244.34 312.78C246.095 313.622 245.225 313.507 247 313.362L247.35 311.279C248.775 310.413 247.98 310.715 249.955 310.777C251.28 311.588 251.5 311.806 253.01 312.266C253.485 311.2 253.225 311.692 253.775 310.781C256.165 310.885 259.465 311.059 261.8 311.351C262.275 311.411 264.855 308.79 266.875 308.962L267.36 310.448L267.975 310.673L270.01 309.433C270.52 309.976 270.96 310.416 271.495 310.929L272.415 310.523L272.975 308.6L273.485 308.721L273.81 310.344C275.64 311.855 278.25 309.527 279.86 309.201C280.615 309.048 281.3 311.216 283.99 311.395L284.295 310.891L283.04 309.128C285.22 308.219 294.005 310.251 297.22 308.22Z" fill="#000101"/>
<path d="M124.738 212.052C124.784 211.775 124.824 211.499 124.864 211.223C119.994 199.579 119.89 188.122 118.754 175.982C117.461 162.141 114.135 157.162 118.883 142.527C122.563 131.178 123.448 121.953 133.308 111.541C144.723 96.723 165.363 90.9987 181.405 80.0178C183.924 78.6407 188.507 78.2672 190.926 77.1552C219.446 64.0493 250.831 65.6156 281.159 63.4051C306.52 61.5574 336.221 79.4486 344.235 97.4145C352.91 116.863 357.347 140.015 363.017 160.56C371.34 163.184 379.585 166.698 379.662 175.283C377.966 175.224 378.567 174.981 377.358 175.564C377.592 176.194 377.809 176.829 377.999 177.47C381.551 189.742 365.345 211.045 352.551 218.491C350.483 219.694 347.176 222.079 344.85 222.692C344.096 222.337 343.658 222.139 342.862 221.824C339.575 226.723 332.061 224.878 327.089 227.572C313.515 234.929 299.45 239.372 283.804 241.741L281.038 244.401C276.538 244.61 274.6 244.77 270.133 245.784C262.768 247.456 255.356 249.069 247.972 250.683C243.975 251.557 239.66 251.65 235.632 252.456C224.503 255.249 213.274 257.016 202.009 259.08C201.088 258.108 201.498 258.279 200.259 257.745L199.691 259.855L199.005 259.926C198.343 259.421 197.683 258.921 197.012 258.426C196.806 258.981 196.617 259.457 196.392 260.004C193.613 260.883 189.981 260.189 187.231 260.568C177.266 261.943 168.067 262.24 158.245 261.215C155.102 260.888 143.95 258.171 141.986 256.144C141.108 255.208 141.875 255.522 140.568 255.018C127.83 250.097 116.822 237.926 116.156 226.001C115.873 220.905 120.465 215.746 124.738 212.052Z" fill="#0167FC"/>
<path d="M124.74 212.052C126.39 212.033 139.705 208.058 143.205 207.236C156.02 204.052 168.658 200.49 181.561 197.57C183.912 197.038 184.388 196.089 188.187 195.403C201.442 193.007 215.147 190.102 228.254 187.025C228.888 187.761 228.619 187.402 228.65 188.552C232.086 188.05 234.976 185.888 238.745 185.273C245.899 184.107 253.308 182.882 260.36 181.163C263.059 180.506 268.305 178.422 270.886 178.429C271.57 178.429 272.103 178.893 272.777 178.923C274.345 178.991 279.28 176.942 281.299 176.435C290.429 174.141 324.735 165.969 331.308 167.414C332.959 167.775 334.613 168.102 336.257 168.482L336.7 168.021C335.626 167.154 335.704 167.172 334.3 166.688C339 165.823 344.288 165.063 348.832 164.11C353.62 163.105 358.037 161.592 363.019 160.561C371.342 163.185 379.587 166.698 379.664 175.283C377.968 175.224 378.569 174.981 377.36 175.564C377.593 176.194 377.811 176.829 378.001 177.471C381.552 189.742 365.347 211.045 352.553 218.491C350.485 219.694 347.178 222.079 344.852 222.693C344.098 222.337 343.66 222.14 342.864 221.825C339.576 226.723 332.062 224.878 327.091 227.573C313.517 234.929 299.452 239.372 283.806 241.741L281.04 244.401C276.54 244.61 274.602 244.77 270.135 245.784C262.77 247.456 255.357 249.069 247.974 250.683C243.977 251.557 239.662 251.65 235.633 252.456C224.505 255.249 213.276 257.016 202.011 259.08C201.09 258.108 201.499 258.279 200.26 257.745L199.693 259.856L199.007 259.926C198.345 259.422 197.684 258.921 197.014 258.426C196.808 258.981 196.619 259.457 196.394 260.004C193.614 260.883 189.983 260.189 187.233 260.569C177.268 261.943 168.069 262.241 158.247 261.216C155.103 260.888 143.952 258.171 141.988 256.144C141.11 255.208 141.876 255.522 140.57 255.018C127.832 250.097 116.823 237.926 116.157 226.001C115.875 220.906 120.467 215.746 124.74 212.052Z" fill="#121211"/>
<path d="M209.994 118.908L210.579 118.54C212.454 118.885 218.174 116.776 220.504 116.609C234.838 115.582 252.485 107.317 266.032 111.646C266.263 112.164 266.504 112.498 266.39 113.032C266.155 114.164 270.521 116.344 270.746 117.921C271.181 120.988 269.413 122.051 270.746 125.001C271.798 127.789 275.13 132.213 273.963 135.285C271.759 141.091 280.017 140.621 273.181 146.836C266.582 152.839 260.781 151.454 253.225 153.67L252.722 153.718C245.589 154.495 241.213 156.948 235.093 157.639L233.996 156.544C231.303 156.721 222.811 160.15 219.559 160.835C216.281 161.527 217.913 159.635 215.753 160.45C210.684 162.363 212.569 163.84 206.464 163.688C187.488 156.157 196.602 152.7 189.025 144.387C190.562 138.177 188.276 129.564 189.552 125.99C192.409 122.571 203.945 120.775 209.994 118.908Z" fill="#121211"/>
</svg>
