<svg width="500" height="500" viewBox="0 0 500 500" fill="none" xmlns="http://www.w3.org/2000/svg">
<path d="M215.309 98.0979C223.511 83.9902 235.6 76.3467 252.062 76.0004C255.6 75.9255 258.454 76.0033 261.529 77.8827C267.434 80.3323 268.629 82.464 271.593 88.0239C280.816 96.5219 273.803 100.657 283.095 107.48C284.18 108.276 289.291 110.309 290.973 111.115C294.726 110.546 296.831 110.243 300.654 110.127C319.402 91.9463 344.843 95.6013 355.215 117.378C359.716 126.832 354.681 136.134 362.808 144.503C365.32 146.785 370.476 148.636 373.713 150.363C377.443 149.665 381.474 148.827 385.193 148.236C395.193 152.877 399.132 149.397 404.578 162.819C408.853 173.342 406.081 178.663 405.796 189.047C401.342 194.599 400.46 197.546 397.699 204.154C398.424 206.63 399.491 210.748 400.408 213.023C412.949 221.809 420.965 229.02 424.498 245.122C425.96 251.764 422.688 258.862 419.614 264.799C408.407 271.823 408.314 275.151 401.023 285.774C403.03 289.145 403.43 289.763 406.168 292.641C406.783 300.642 411.365 306.944 411.702 314.477C411.992 320.874 407.606 330.198 404.584 335.956C401.371 337.684 395.901 341.977 394.619 342.476C385.03 346.198 365.598 341.751 363.394 355.252C363.104 357.058 362.698 356.439 362.999 358.758C364.594 363.944 364.217 372.616 362.28 377.576C354.13 393.829 346.903 396.744 329.315 396.265L328.729 396.648C319.332 402.722 316.53 393.143 303.955 390.453C290.718 397.172 290.7 406.827 280.056 416.005C268.739 425.767 247.056 427.591 236.528 415.829C233.622 412.577 235.722 413.798 231.249 412.146C229.445 410.142 227.717 407.275 226.209 404.98C219.631 404.342 219.219 403.954 213.633 400.3C188.441 413.587 157.123 415.536 151.311 380.318C150.638 376.225 151.061 375.191 153.973 372.584C151.949 367.95 146.746 364.029 144.779 359.106C139.083 355.497 134.686 355.07 128.253 355.075C115.672 352.719 115.695 355.185 104.192 346.716C84.963 332.556 90.7172 322.339 99.0354 303.29C100.341 300.301 102.249 298.199 104.239 295.727L104.192 293.632C104.088 289.943 104.343 288.823 104.964 285.232C102.852 282.14 96.9935 276.832 93.5944 272.521C85.0906 271.31 76.1866 266.699 75.0613 257.431C73.7967 246.971 78.1183 230.243 86.1405 223.069C92.2718 217.582 100.253 217.495 100.636 206.765C101.825 196.309 96.4135 192.624 93.751 183.509C92.6025 179.575 93.5712 174.478 92.5967 170.293C93.6524 163.548 94.9923 162.085 98.8033 156.613C100.41 153.883 101.843 153.502 104.366 152.038C114.239 146.312 121.983 150.29 132.261 149.57C136.699 149.26 139.332 148.108 143.445 146.504C145.203 143.824 147.007 141.176 148.863 138.561C148.486 134.308 148.289 130.413 149.327 126.205C151.061 117.675 152.384 109.76 158.463 102.812C163.979 96.4992 171.833 96.7736 179.566 96.3873C187.629 103.449 199.572 106.907 209.857 103.143C211.574 102.514 214.05 99.5092 215.309 98.0979Z" fill="#FDEA03"/>
<path d="M261.527 77.8828C267.432 80.3324 268.627 82.4642 271.591 88.0241C268.523 87.2723 266.841 86.2711 264.039 84.8656C262.966 82.5291 262.322 80.3231 261.527 77.8828Z" fill="#F6E74B"/>
<path d="M307.162 200.34C308.322 199.42 310.875 198.866 312.348 198.904C320.37 199.111 328.816 196.327 336.061 200.949C339.141 203.092 334.333 204.834 338.787 208.99C339.982 208.379 339.756 208.523 340.771 207.747L341.363 208.43C341.067 209.745 340.998 210.01 340.481 211.25L341.061 211.389L342.268 210.23C343.637 213.87 340.162 217.821 341.833 219.383L343.962 219.309L344.054 220.373C342.831 220.255 343.428 220.35 342.245 220.093L341.525 221.473C342.424 223.864 342.471 222.745 341.607 224.949L339.321 225.689L339.095 226.955C339.872 227.807 340.545 228.516 341.369 229.326C340.261 230.675 340.452 230.306 338.799 231.241C337.813 234.626 338.057 236.765 336.38 239.781L335.742 240.051L334.344 238.924C331.705 240.803 334.924 239.996 330.365 243.572C330.481 243.038 330.243 242.593 330.092 242.079C328.468 242.374 328.578 242.336 327.389 243.486C327.36 245.186 327.662 245.486 328.37 247.033C327.395 246.689 326.925 246.484 325.997 246.03L325.324 246.524L326.09 247.801L325.579 247.782C323.839 247.731 323.549 247.671 321.809 248.146C318.677 251.247 323.05 251.712 316.786 252.94C311.727 257.531 312.696 250.683 308.183 252.548C306.779 253.128 305.208 255.162 303.52 255.175L303.015 253.684C300.863 253.565 301.234 253.768 299.854 255.504C295.897 256.811 293.856 254.134 290.375 253.377L289.267 254.519C287.974 253.394 287.939 252.771 287.33 251.144C285.99 250.08 285.938 249.801 284.308 249.548L283.49 250.005C282.492 250.549 282.063 250.748 281.03 251.17C278.896 249.787 279.076 248.735 278.426 245.894C276.413 244.908 274.064 244.007 272.649 242.394L274.946 242.511L275.688 241.413C275.212 240.811 275.021 240.477 274.441 239.985L272.973 241.004C268.896 240.852 267.231 236.405 265.003 233.642C257.747 224.648 258.507 216.215 257.805 204.937C258.715 204.496 259.632 204.068 260.554 203.654C269.893 199.484 274.685 202.101 284.209 201.357C288.368 201.032 293.873 198.818 298.096 198.735C301.402 198.669 304.071 199.159 307.162 200.34Z" fill="#000101"/>
<path d="M257.805 204.937C258.715 204.495 259.632 204.068 260.554 203.653C269.893 199.483 274.685 202.1 284.209 201.357C288.368 201.032 293.873 198.818 298.096 198.734C301.402 198.669 304.071 199.159 307.162 200.339L307.974 201.24C306.524 203.216 304.511 201.017 303.398 203.447C305.033 203.511 305.237 203.425 306.866 203.11L307.505 203.779C305.921 206.091 300.782 206.167 298.554 208.677L299.303 209.193L301.025 207.75L301.466 208.298C299.801 211.129 292.852 215.496 289.813 217.356C289.076 218.85 289.256 219.278 289.314 220.952C288.154 221.961 285.938 222.016 283.861 223.408L283.008 224.844C284.633 227.564 284.807 223.781 285.207 226.954L284.633 227.439L283.235 227.207C282.823 228.36 282.759 228.493 282.504 229.7C281.727 229.111 281.674 228.917 280.717 228.718C279.638 230.692 277.921 233.604 277.417 235.734C276.709 238.736 275.555 238.349 274.441 239.985L272.973 241.004C268.896 240.852 267.231 236.404 265.003 233.642C257.747 224.648 258.507 216.215 257.805 204.937Z" fill="#FEFDFC"/>
<path d="M192.031 205.419C197.536 205.705 200.175 203.241 203.191 203.345L203.429 204.999C208.29 206.411 216.875 200.517 225.188 205.758C224.967 207.114 224.52 207.231 223.505 208.471C224.723 208.253 224.915 208.168 226.092 207.787L227.479 209.253L228.83 209.113L229.967 207.679L231.006 207.924C231.765 211.646 229.445 207.891 230.367 211.707C231.214 211.708 231.916 211.699 232.769 211.668L232.589 212.312C230.571 212.928 230.936 213.505 229.242 214.265C230.843 214.372 231.545 214.35 233.152 214.257L234.596 215.41C234.689 219.348 232.792 216.508 233.245 218.557C233.917 221.594 236.035 223.095 236 226.406C233.477 228.535 234.683 225.513 232.45 227.602C233.523 228.82 233.691 228.9 235.025 229.863L235.228 230.849C234.109 231.042 232.989 231.204 231.858 231.333L231.348 232.172L233.424 235.21C232.699 236.731 233.227 236.072 231.446 236.904C230.466 236.51 229.486 236.123 228.505 235.744L228.366 237.062C229.48 238.294 230.17 238.296 231.794 238.786L231.504 240.45C229.741 241.053 230.454 240.893 228.442 240.645C226.307 242.415 226.835 245.299 226.997 247.787C224.143 249.856 224.515 247.438 222.119 250.455C222.363 251.916 222.31 251.854 223.035 253.135L222.925 253.512L221.394 252.401C220.634 252.569 213.76 256.671 211.869 257.611L211.301 259.637L210.686 259.697L210.245 257.218C206.875 257.072 203.232 261.238 198.046 260.67C193.435 255.553 191.909 259.96 186.277 260.807C185.128 259.701 184.484 259.532 184.403 258.35L187.193 258.901C187.344 257.602 187.263 258.181 186.08 256.578C184.2 256.747 184.055 256.908 182.361 257.619C177.39 256.345 177.616 252.591 172.628 255.941C171.137 255.261 169.948 253.371 168.869 252L169.31 251.768L172.332 252.96L172.477 252.271C169.739 248.609 168.074 251.22 164.884 247.335C165.859 246.85 166.711 247.2 168.022 247.35C167.674 245.733 167.326 245.88 165.87 244.495L164.867 244.316C164.559 244.735 164.252 245.155 163.944 245.575L163.915 244.028L164.153 243.972L164.35 242.411C162.546 243.589 163.474 243.406 161.525 243.226C153.776 238.29 150.632 218.409 152.181 210.243C153.37 208.729 154.646 207.283 155.899 205.82C164.756 206.098 174.2 204.88 183.104 204.654C186.439 204.57 189.403 203.091 192.031 205.419Z" fill="#000101"/>
<path d="M155.899 205.82C164.756 206.098 174.2 204.88 183.104 204.654C186.439 204.569 189.403 203.091 192.031 205.418C191.271 207.261 191.3 207.641 189.769 208.921L189.746 210.108L191.039 211.341C189.316 212.841 187.756 211.454 186.08 213.036L186.149 214.044L187.524 215.041C186.694 216.331 186.486 216.395 185.302 217.412C185.494 218.23 185.673 219.049 185.848 219.87C184.397 219.847 185.128 219.984 183.713 218.868C182.303 221.14 183.649 223.167 182.007 226.118L181.398 226.055L180.453 224.341C173.486 229.311 173.684 236.842 167.564 238.352C167.228 239.361 166.908 240.374 166.601 241.392C165.806 241.78 165.18 242.139 164.35 242.411C162.546 243.588 163.474 243.406 161.525 243.225C153.776 238.29 150.632 218.408 152.181 210.242C153.37 208.728 154.646 207.282 155.899 205.82Z" fill="#FEFDFC"/>
<path d="M289.723 284.382L289.966 284.469L290.094 285.911C293.725 285.975 289.676 285.335 292.971 283.889C293.191 284.335 293.661 285.555 294.149 285.569C298.812 285.698 307.792 285.594 312.073 287.208C312.931 289.078 312.606 291.421 312.525 293.558L313.36 293.658C313.998 292.203 314.236 291.414 315.309 290.211L315.895 290.685C315.692 294.117 313.262 293.679 314.706 298.25C316.203 297.632 315.976 297.318 317.02 295.603L317.403 296.167C317.427 298.38 317.577 299.256 316.789 301.354C314.7 302.451 314.7 302.332 313.389 304.223C314.097 304.711 313.778 304.53 314.607 304.924L315.217 305.204C315.205 306.867 315.408 307.034 314.445 308.304L312.705 308.478L312.374 309.318C313.494 309.857 313.285 309.667 314.213 310.456L313.703 311.404C312.252 312.315 311.255 312.025 309.48 311.926L308.726 311.879C309.195 312.591 309.671 313.297 310.153 313.996C308.47 316.235 305.448 314.529 304.334 312.754L302.345 313.194L300.738 311.816L300.007 312.242L300.228 313.029L303.041 314.325L302.78 314.932C299.224 315.712 300.471 314.741 298.366 314.213C294.845 313.332 292.113 315.665 286.915 314.75C282.414 310.097 279.943 315.531 276.225 315.293C271.683 315.004 266.949 313.778 262.117 313.509C256.589 313.202 252.68 315.779 247.668 315.663L247.355 315.071L248.822 312.841L248.561 312.176L247.471 312.29C245.458 316.005 245.209 315.118 241.021 314.986C237.442 318.668 238.787 315.197 234.686 315.038C234.124 315.017 233.555 316.826 230.91 317.277L232.233 315.374C228.503 314.521 227.308 316.101 224.32 317.909L221.496 316.621C219.152 316.732 219.767 317.456 217.412 316.886C217.667 315.717 217.644 316.293 217.493 315.158C216.031 314.454 216.611 314.54 215.028 314.665C215.219 316.34 215.399 315.796 214.836 317.186C213.061 315.894 213.27 314.131 210.718 312.985L209.755 313.379C210.225 315.132 211.727 316.384 213.015 317.773L212.945 318.201C210.631 318.012 207.835 316.441 206.13 314.869C206.797 313.082 206.988 313.446 206.739 311.863C203.711 311.944 206.977 312.917 204.14 313.633C200.764 309.205 202.121 304.969 203.032 300.185C201.971 300.676 202.023 300.644 200.81 301.029L199.453 300.262L199.604 299.394L202.899 298.684L203.444 297.714L202.957 296.945C201.884 297.221 202.342 297.311 201.541 296.897C203.798 293.572 203.438 294.945 203.67 291.428C205.608 290.22 205.196 292.059 207.736 291.133C207.417 290.161 207.191 289.357 206.93 288.367L207.754 288.08C208.653 289.392 208.641 289.693 210.022 290.364C213.195 289.534 212.476 288.063 213.224 287.903C215.625 287.389 218.114 290.374 220.591 289.267C219.506 287.877 219.512 288.436 219.471 287.142L220.991 286.913C221.977 287.753 221.774 287.7 222.209 288.928C225.655 289.386 227.116 286.748 229.982 287.575L228.3 288.873L228.375 289.672C230.411 290.649 229.402 290.515 231.461 290.348L231.867 287.931C233.52 286.926 232.598 287.277 234.889 287.349C236.426 288.29 236.682 288.542 238.433 289.076C238.984 287.839 238.683 288.41 239.321 287.353C242.094 287.474 245.922 287.676 248.631 288.015C249.182 288.084 252.175 285.043 254.519 285.243L255.081 286.967L255.795 287.228L258.156 285.79C258.747 286.419 259.258 286.929 259.878 287.525L260.946 287.054L261.595 284.823L262.187 284.963L262.564 286.846C264.687 288.599 267.715 285.898 269.583 285.52C270.459 285.342 271.253 287.857 274.374 288.066L274.728 287.48L273.272 285.436C275.801 284.381 285.993 286.738 289.723 284.382Z" fill="#000101"/>
<path d="M316.131 163.193C316.448 162.672 316.401 162.656 316.949 162.424C317.967 162.681 318.009 163.351 319.132 164.021L319.402 163.926L319.854 162.743C321.823 162.09 331.123 161.208 333.552 161.262C332.86 161.247 335.036 161.679 334.695 161.61C335.048 161.231 335.062 161.18 335.287 160.723L335.844 160.631C337.086 161.319 336.987 161.47 338.143 160.692C339.172 160.709 338.822 161.382 339.936 161.745C340.081 161.396 340.23 161.049 340.386 160.705C345.889 158.991 354.059 159.73 359.814 159.78C362.971 159.808 364.593 159.394 367.955 159.74L367.872 160.473C368.671 160.542 368.781 160.643 369.445 161.033C370.705 160.924 371.204 160.304 372.081 160.599C372.277 161.292 372.308 161.591 372.39 162.288C372.858 161.977 373.362 160.869 373.73 160.258L373.403 159.635C373.907 159.765 374.162 159.731 374.454 160.048C375.17 161.261 375.272 161.048 376.685 161.18C378.848 161.897 380.45 162.058 381.878 163.725L382.053 164.049C382.275 164.466 382.354 164.687 382.511 165.142L382.865 165.284C383.475 164.701 384.009 164.113 384.741 163.697C387.891 168.359 388.128 173.166 387.027 178.526C386.502 181.086 385.543 185.055 384.166 187.332C383.555 187.282 383.328 187.23 382.826 187.71C381.39 189.084 377.802 193.249 378.373 195.312C375.893 201.289 376.766 208.16 375.979 214.56C375.474 218.657 374.614 223.322 374.407 227.462C374.305 229.528 373.256 232.355 373.183 234.574C372.355 237.998 371.341 238.285 370.946 242.305C370.638 243.122 369.751 245.03 369.634 245.704C368.793 250.526 365.035 254.734 364.048 259.279C363.132 260.103 362.708 260.156 361.549 260.452C360.522 261.98 358.004 267.172 356.476 267.335C355.668 267.092 356.038 267.051 355.321 267.423C354.199 269.254 352.563 272.435 350.272 272.596C350.153 273.287 350.128 274.323 349.696 274.653C349.226 274.179 349.194 274.023 348.897 273.432L348.482 273.589C348.235 275.257 343.964 277.35 342.389 276.618C341.772 276.329 342.328 278.351 340.715 278.19C340.318 277.648 340.176 277.433 339.695 276.95C338.659 278.635 339.438 278.482 337.158 279.264C335.706 279.762 332.069 281.109 330.634 281.012L330.383 280.674L330.354 280.992C326.871 283.586 325.494 281.877 321.305 282.786C320.523 282.911 319.471 282.855 318.653 282.85C318.253 283.031 318.109 283.029 317.674 283.122C315.925 282.359 316.23 282.409 314.716 283.416C310.493 282.483 303.823 283.269 300.623 281.09L300.647 280.509L300.447 280.401L299.643 281.105C298.703 281.301 294.298 279.567 292.928 279.38C292.313 279.295 290.594 278.785 289.864 278.621C288.304 277.113 288.3 277.351 286.363 276.425C284.592 275.578 282.52 274.116 281.082 272.769C280.72 272.428 280.464 272.501 279.956 272.414C278.678 271.316 277.554 269.848 276.415 268.59C270.039 261.544 265.798 253.187 261.448 244.827C260.371 242.754 259.978 241.173 259.167 239.025C259.083 238.802 258.549 238.852 258.17 238.817C257.646 237.232 257.746 235.086 257.188 233.671C255.662 229.795 254.537 225.919 252.523 222.245C252.209 221.674 252.254 220.341 251.922 219.491C251.603 217.467 251.213 216.761 250.293 214.993C250.217 212.182 246.782 209.184 244.74 207.38C240.572 207.167 240.672 206.613 236.981 209.331C235.259 210.599 234.544 211.409 234.252 213.555C233.813 214.576 233.215 215.805 232.824 216.807C232.371 218.598 232.095 220.343 231.781 222.153C231.536 223.563 230.629 226.258 230.523 227.531C230.163 231.88 230.03 235.696 228.883 239.977C228.419 241.708 227.218 243.555 226.788 245.061C225.66 249.014 224.683 253.756 223.3 257.572C221.953 261.286 219.158 265.499 217.771 269.117C216.856 269.479 216.126 269.66 215.456 270.359L215.401 270.778L215.362 271.044C214.918 274.248 210.314 277.33 209.042 281.097L208.202 281.73L207.874 281.898C206.804 282.455 206.367 282.698 205.198 283.052C204.854 283.47 204.323 284.109 204.178 284.538C203.651 286.1 198.128 288.151 196.315 288.779C195.913 289.278 195.936 289.255 195.719 289.865C194.913 290.13 193.687 290.603 192.884 290.641C191.576 290.289 191.553 290.842 190.83 291.974C189.558 292.063 188.29 292.213 187.032 292.426C186.658 292.489 186.632 292.541 186.329 292.76L185.813 292.767L185.308 292.464C184.853 292.844 184.487 293.455 183.913 293.623C182.464 294.042 180.913 294.192 179.417 294.358C177.013 294.282 172.755 295.467 170.551 295.32C170.475 295.304 170.398 295.289 170.322 295.273L169.946 295.205C168.178 294.884 163.586 294.763 161.814 295.039C160.648 294.126 156.616 293.568 155.187 293.605C154.52 293.662 152.526 292.922 151.382 292.778C150.005 292.602 148.561 292.663 147.328 292.39C146.543 291.875 145.426 291.131 144.576 290.791C142.907 290.124 142.986 289.734 142.01 288.337C141.466 288.725 141.447 288.814 140.808 288.935C139.171 288.463 138.8 286.893 137.45 285.756L136.927 286.104C135.768 286.115 130.841 279.575 129.232 278.091L128.319 278.545L127.557 278.243C126.766 277.314 124.993 274.433 124.275 273.305C123.89 271.573 122.366 269.255 121.809 267.473C121.052 265.047 120.658 266.164 119.281 264.785C118.065 261.851 116.745 259.531 115.513 256.193C114.666 253.523 113.402 251.03 112.913 248.321C112.568 247.495 111.983 245.066 111.576 243.975C110.108 240.039 107.392 230.89 107.6 227.081C108.584 224.632 107.599 223.843 106.245 221.757L105.865 221.906L105.62 221.784C104.486 220.008 105.286 216.728 104.234 215.861L104.047 216.196C103.27 215.745 102.691 214.017 102.005 213.331C99.98 211.306 97.6649 209.808 96.0679 207.357C92.4897 201.865 90.3618 193.472 91.538 187.059L92.2352 187.209L92.6802 186.559C94.3827 184.026 96.0796 182.787 98.6795 181.355C98.8249 182.109 98.807 182.175 99.1606 182.886C99.52 182.714 99.7457 181.739 99.923 181.242C102.101 181.175 103.301 180.424 105.321 179.921C106.275 179.684 106.117 181.174 107.806 179.498C108.855 178.457 110.012 178.659 111.377 178.545C111.85 178.097 111.935 177.942 112.546 177.719L112.865 177.956C113.037 178.568 113.075 178.734 113.35 179.328L113.617 179.199C113.628 179.016 113.615 178.5 113.694 178.308C114.129 177.245 119.86 178.078 121.175 177.617C121.416 177.532 121.756 177.225 121.98 177.074C123.476 176.971 121.77 177.344 123.043 177.992C123.531 177.288 123.753 176.981 124.39 176.419L124.576 177.327L124.671 177.71L124.98 177.883C125.625 177.454 125.974 177.246 126.658 176.881C128.248 176.89 127.158 177.603 128.435 177.539C129.554 177.496 131.731 176.616 132.734 176.696C134.328 176.823 135.203 178.546 136.484 177.045C137.71 175.607 138.309 176.447 139.873 176.98C140.574 176.878 140.791 176.609 141.348 176.159L141.562 175.984C143.635 176.687 144.953 176.382 146.862 175.317L146.953 176.326L147.177 176.661C149.095 176.88 149.354 175.827 150.543 176.799C151.036 176.547 151.04 176.518 151.452 176.137C155.839 176.112 160.566 176.522 164.979 176.458C168.255 176.411 168.425 176.171 171.62 177.161C172.731 176.379 172.797 175.839 174.197 176.328C174.629 177.033 174.712 177.283 175.009 178.068L175.206 178.11C175.41 177.462 175.602 176.511 176.09 176.131C177.884 176.471 177.013 178.642 178.571 177.252C179.24 177.33 179.554 177.577 180.134 177.912C181.138 177.856 181.253 177.596 182.098 176.918C182.712 176.816 182.788 176.739 183.366 176.914C183.606 177.404 183.851 177.892 184.1 178.378L184.452 178.443C185.105 177.851 186.321 176.627 187.065 176.333C187.66 176.58 187.983 176.742 188.529 177.107C190.847 178.656 191.565 175.565 192.57 178.961L192.855 179.154C193.39 178.5 193.711 178.06 194.186 177.359C196.573 177.935 198.741 177.916 199.902 180.234C200.54 179.505 200.968 178.855 201.842 178.494C203.734 178.436 203.729 180.864 205.955 179.388C206.987 179.904 207.025 180.042 207.459 181.15C208.171 181.218 208.789 180.653 209.483 180.262C211.118 180.87 211.633 181.127 213.379 181.332C215.221 181.548 216.362 181.277 218.037 182.029C219.72 182.201 219.993 182.999 220.937 183.09C221.434 182.489 221.33 182.186 221.49 181.283C222.472 181.116 222.553 181.543 222.988 182.367L223.131 182.856C224.242 183.208 224.155 183.107 224.988 182.27L225.383 182.341L226.189 183.524L226.427 183.535L226.9 182.761L227.259 182.762C227.58 183.28 227.877 183.771 228.232 184.268C228.894 183.956 228.906 183.701 229.4 183.018C231.795 183.521 233.048 183.728 235.49 184.339C236.242 183.876 236.962 183.445 237.68 182.93C238.113 183.53 238.407 184.148 239.001 184.418C239.5 183.618 239.401 183.474 240.101 183.158L241.381 183.328C242.273 180.982 246.165 182.255 248.581 181.478C248.915 180.958 248.975 180.818 249.427 180.381L249.842 180.513C250.128 181.017 250.248 181.218 250.599 181.677C251.321 181.476 251.175 181.4 251.754 180.65C253.145 180.894 251.689 180.809 252.777 181.486C253.734 181.35 255.892 181.196 256.435 180.619C258.009 179.643 262.965 177.967 264.814 177.813L265.13 177.853C265.963 177.251 266.519 177.157 267.38 176.751C270.426 175.319 273.416 173.619 276.449 172.076L278.661 171.947C279.452 171.568 280.119 171.226 280.956 171.315C282.384 172.438 282.712 170.604 284.356 170.437C284.885 170.384 285.253 169.392 285.424 169.038L286.182 168.46C286.741 169.081 286.728 169.218 286.91 170.014C286.825 170.519 286.82 170.259 287.099 170.797L287.408 170.747C287.931 169.874 288.186 169.26 289.089 168.814C290.1 168.71 290.876 169.213 291.843 169.646C292.815 169.436 292.798 168.576 293.146 168.407C294.912 167.553 296.954 167.586 298.764 166.646L298.936 166.814C299.221 166.267 299.363 165.891 299.825 165.477C300.343 165.919 300.235 165.901 300.512 166.601L300.6 166.826L300.846 166.855L301.47 165.503C302.835 165.348 304.682 165.123 306.085 164.821C306.272 164.931 306.459 165.041 306.645 165.15C307.472 165.002 309.632 164.206 310.335 164.138C311.569 164.019 314.381 163.162 315.15 164.104C315.218 164.151 315.286 164.199 315.356 164.246L316.131 163.193Z" fill="#000101"/>
<path d="M316.131 163.193C316.448 162.672 316.401 162.656 316.949 162.424C317.968 162.68 318.01 163.35 319.133 164.021L319.402 163.925L319.854 162.743C321.823 162.09 331.123 161.207 333.552 161.262C332.86 161.247 335.037 161.679 334.695 161.61C335.048 161.231 335.063 161.18 335.287 160.723L335.844 160.631C337.086 161.319 336.987 161.469 338.143 160.692C339.173 160.709 338.823 161.382 339.936 161.745C340.081 161.396 340.23 161.049 340.387 160.705C345.889 158.991 354.059 159.73 359.814 159.78C362.972 159.808 364.593 159.394 367.955 159.74L367.872 160.473C364.266 160.795 360.779 160.228 357.162 161.029C356.955 161.075 356.293 160.346 356.157 160.197C355.365 160.104 355.72 160.021 355.051 160.446C354.763 161.043 354.493 161.584 354.177 162.168L353.79 162.155C353.34 161.513 353.261 161.346 352.914 160.631C352.345 160.541 350.974 161.745 350.542 162.183C349.023 161.537 349.234 158.809 346.279 162.242C344.194 160.974 343.876 161.561 342.152 162.768C341.025 162.381 341.588 161.449 340.665 161.468C339.616 162.379 339.755 162.446 338.309 162.182C337.997 162.59 337.757 162.922 337.47 163.349C336.336 163.322 336.799 162.358 335.719 162.55C335.002 163.254 335.4 163.116 334.567 163.179C333.902 162.775 333.146 162.2 332.41 162.179C331.869 162.492 331.745 162.828 331.425 163.368C329.125 164.238 327.687 162.264 326.71 164.655C326.467 165.248 326.488 165.306 326.184 165.327L326.026 165.071C325.652 164.467 325.509 164.08 324.891 163.767C322.019 163.742 319.295 166.226 316.93 163.635C316.63 163.304 316.56 163.303 316.131 163.193Z" fill="#000101"/>
<path d="M112.914 248.32C115.304 250.37 115.897 253.187 115.515 256.192C114.667 253.522 113.403 251.029 112.914 248.32Z" fill="#000101"/>
<path d="M373.402 159.635C373.906 159.765 374.162 159.731 374.453 160.049C375.169 161.261 375.271 161.048 376.684 161.18C376.187 161.55 375.459 162.673 375.053 163.235C374.767 161.708 374.846 161.058 373.73 160.259L373.402 159.635Z" fill="#000101"/>
<path d="M318.653 282.849C319.311 282.313 320.213 281.359 320.88 281.243C321.351 281.849 321.204 281.874 321.304 282.786C320.522 282.91 319.47 282.854 318.653 282.849Z" fill="#000101"/>
<path d="M276.45 172.075L278.662 171.946C277.803 173.048 277.631 173.395 277.022 174.615C276.878 173.782 276.765 172.847 276.45 172.075Z" fill="#000101"/>
<path d="M336.54 179.349C337.061 178.231 337.585 176.644 338.728 176.208C339.527 177.268 338.794 177.045 339.78 177.555C341.274 177.402 341.306 177.141 342.268 175.962L342.512 175.661L342.808 175.867C342.906 176.49 342.982 176.98 343.139 177.597C344.163 177.342 345.127 176.728 345.706 176.475C346.12 176.295 348.92 178.015 349.474 178.141C349.796 178.215 350.32 177.283 350.479 177.023L350.795 177.108L351.092 178.071L351.497 178.144L352.093 177.717C352.298 179.939 354.22 179.55 355.154 180.855C356.768 183.108 358.682 186.068 359.224 188.832C359.412 190.03 359.112 190.791 359.635 191.988C360.055 191.719 359.95 191.675 360.249 191.107C361.457 193.384 360.296 203.987 360.729 207.031C360.903 208.258 360.076 211.754 360.099 213.171C359.811 217.331 359.732 219.757 358.772 223.828C358.982 228.452 356.618 234.899 355.658 239.468C355.404 240.677 354.601 242.062 353.741 242.963L353.671 243.038L353.601 243.271C352.997 245.374 353.726 245.842 351.831 247.186C351.354 248.436 350.317 251.707 349.733 252.485L349.508 252.531L349.186 251.667C348.278 253.048 349.232 254.399 347.698 255.6L347.326 254.964C346.034 255.794 346.459 258.352 345.3 258.354L345.11 257.825C344.197 258.235 344.484 258.102 343.82 259.015C343.805 259.596 343.793 259.952 343.724 260.539L343.514 260.498L343.29 259.551L342.991 259.471C341.623 260.464 341.699 260.262 341.141 261.749C340.661 261.273 340.611 261.275 340.24 260.697C339.08 261.934 337.81 263.256 336.242 263.957C335.769 263.735 335.876 263.797 335.47 263.491C334.32 263.919 331.874 265.528 330.808 266.252C330.234 265.667 330.133 265.406 329.749 264.702C329.224 265.825 328.684 266.774 328.508 267.993L328.277 268.064C327.762 267.155 327.61 266.674 327.25 265.68C326.647 266.387 326.625 267.088 325.916 267.567C325.192 267.478 324.921 267.416 324.487 266.802L324.313 266.859C323.808 266.897 323.242 266.829 322.727 266.792L322.483 266.587C322.274 267.205 322.11 267.737 321.817 268.327L321.528 268.344C320.964 267.66 320.976 267.675 320.634 266.853C320.318 267.557 320.25 267.757 320.036 268.502C319.857 268.98 319.259 269.667 318.916 270.11L318.696 270.035C318.511 268.971 318.571 268.202 317.611 267.681C317.018 268.148 317.058 268.244 316.377 268.348C315.731 267.719 315.91 267.759 315.632 266.74C315.15 267.119 314.565 268.621 314.27 269.263C313.742 268.308 313.235 267.251 312.743 266.27C312.549 267.422 312.243 268.414 311.923 269.528L310.822 266.104C310.673 266.86 310.573 268.063 309.877 268.43C309.168 268.135 308.204 266.927 307.637 266.302L307.425 266.335C307.298 266.862 307.202 267.225 307.033 267.738C306.497 267.415 306.004 266.205 305.687 265.578C305.34 266.352 305.067 267.254 304.792 268.068C304.223 267.36 303.618 266.428 303.092 265.668C300.715 265.701 299.516 265.612 297.108 265.368C296.935 264.618 296.856 263.996 296.445 263.352C295.97 263.807 296.015 264.283 295.836 265.065C292.125 260.798 287.341 258.338 284.394 253.254C283.993 252.561 283.881 252.707 283.488 251.717L282.999 251.61L282.028 252.098L281.613 251.956C281.152 251.267 281.325 249.874 281.346 248.963C279.379 245.322 277.815 241.995 275.946 238.46L275.39 238.311C274.869 237.073 275.421 234.562 274.291 233.629C273.93 234.191 274.144 234.108 273.697 234.232C273.232 233.023 273.264 231.322 272.84 229.899C272.364 228.305 270.634 224.499 270.358 223.187C269.759 220.345 268.384 212.104 268.524 209.686C267.948 207.783 268.475 205.038 268.749 203.018C270.453 197.974 271.894 193.98 276.246 190.703C277.768 189.558 279.596 188.552 280.71 187.152C280.978 186.815 281.017 186.807 281.422 186.687C281.902 187.026 281.675 186.841 282.106 187.242C283.784 186.867 284.182 184.132 285.942 186.416L286.084 186.469C286.535 185.885 286.727 185.464 287.332 185.159C287.644 185.549 287.556 185.396 287.713 185.862C288.332 185.123 288.69 184.426 289.478 183.912C291.055 183.795 289.881 184.817 291.086 183.651C291.288 184.08 291.423 184.407 291.592 184.849C292.34 184.407 291.52 183.946 292.443 183.704C292.89 184.129 292.892 184.322 293.097 184.909C293.359 184.211 293.589 183.207 294.093 182.85C294.376 183.328 294.385 183.345 294.549 183.875L296.006 182L296.401 182.841C298.115 183.393 301.436 181.636 302.858 181.448C305.56 181.091 308.606 181.236 311.358 180.437C312.148 180.208 311.605 179.336 312.44 179.334C312.851 179.902 312.872 180.422 312.998 181.12C313.534 181.193 313.79 180.875 314.179 180.493C314.911 179.7 316.339 179.649 317.399 179.456C319.089 179.148 320.818 178.866 322.502 178.482C323.424 178.272 323.579 179.15 323.788 179.793L324.014 179.903C324.371 179.034 325.547 177.772 326.488 177.684C326.797 178.289 326.736 178.573 326.797 179.286C327.165 179.187 328.586 176.965 328.915 176.463C329.04 177.294 329.102 178.26 329.443 178.986C329.709 178.66 329.616 178.797 329.703 178.336C330.607 177.714 333.546 176.77 334.605 176.97L334.695 177.309C334.805 177.7 334.829 177.786 334.983 178.141C335.427 177.542 335.484 177.018 335.922 176.649C336.919 176.914 336.588 178.476 336.54 179.349Z" fill="#000101"/>
<path d="M358.775 223.828C358.985 228.452 356.62 234.9 355.661 239.468C355.406 240.677 354.603 242.062 353.744 242.963L353.674 243.039C353.698 242.459 354.032 240.482 354.306 240.02C356.247 236.748 356.949 226.474 358.775 223.828Z" fill="#000101"/>
<path d="M268.751 203.02C269.999 205.099 269.368 207.56 268.526 209.688C267.95 207.784 268.476 205.039 268.751 203.02Z" fill="#000101"/>
<path d="M317.613 267.681C318.158 267.558 318.505 267.477 319.045 267.306C319.744 267.693 319.573 267.684 320.039 268.502C319.86 268.981 319.262 269.667 318.919 270.111L318.699 270.035C318.514 268.971 318.574 268.202 317.613 267.681Z" fill="#000101"/>
<path d="M281.349 248.962C281.978 250.142 282.219 250.531 283.002 251.609L282.031 252.097L281.616 251.955C281.155 251.266 281.327 249.873 281.349 248.962Z" fill="#000101"/>
<path d="M123.09 228.644C122.743 222.005 121.293 216.013 120.784 209.48C120.718 208.639 122.266 201.689 122.531 201.424L122.875 202.096L123.152 202.033C123.474 200.899 124.633 197.674 125.703 197.201L125.989 197.621C126.585 197.029 126.063 196.106 127.003 194.898L127.227 195C127.469 195.637 127.339 195.48 127.754 195.97L128.218 195.827C129.02 194.855 129.973 193.735 131.338 194.016C134.301 194.627 134.225 192.315 135.748 191.669C135.876 192.487 135.769 192.734 136.221 193.264C136.582 192.788 136.432 192.904 136.905 192.578L137.135 192.872L137.314 193.109L137.592 192.847C137.589 192.257 137.572 192.322 137.673 191.742C138.126 192.22 138.29 192.895 138.536 193.549L138.687 193.604C138.82 192.75 138.68 192.747 139.152 192.199L139.659 192.26C140.432 192.741 140.474 192.907 140.998 193.704L141.153 193.944C141.211 193.301 141.208 192.794 141.208 192.155C141.586 191.682 141.35 191.839 141.957 191.69C142.514 191.872 142.627 192.127 142.989 192.599L143.124 192.779L143.339 192.795C143.744 192.262 144.02 191.915 144.463 191.417L144.825 191.478L145.278 192.518C145.748 192.06 145.258 191.767 145.849 191.063L146.538 192.43L146.844 192.49L147.516 191.57L147.747 191.768C147.64 192.372 147.56 192.872 147.484 193.479L147.719 193.48C147.925 192.26 148.292 191.612 149.577 191.725C150.132 192.148 150.129 192.454 150.304 193.14L150.365 193.389L150.64 193.465C150.681 193.275 150.963 192.002 151.015 191.897C151.576 190.771 156.144 192.29 157.359 191.732C158.122 191.381 157.97 191.418 158.257 190.747L158.524 190.652C159.278 192.369 159.956 192.155 161.687 192.993L162.357 190.523L162.952 192.361L163.137 192.44C163.249 191.748 163.202 191.544 163.54 190.962C163.875 191.621 163.997 192.333 164.395 192.655C164.494 191.981 164.506 191.086 164.941 190.72C165.433 191.371 164.895 191.687 165.459 192.154L166.188 191.403L166.482 191.419L166.985 192.196C167.221 191.961 167.403 191.773 167.627 191.533C168.218 191.722 168.322 192.022 168.678 192.553L168.814 192.76C169.059 191.999 169.139 191.043 169.582 190.634C169.684 191.234 169.698 191.819 170.08 192.257L170.78 191.795C171.217 191.943 171.072 191.899 171.555 191.891L171.801 191.474C171.866 191.953 171.922 192.159 172.049 192.628C172.654 192.378 172.662 191.285 173.372 191.048C173.533 191.52 173.606 191.732 173.825 192.177C174.525 191.906 174.276 191.888 174.937 191.965L175.131 192.812L175.384 192.885C175.567 192.306 175.619 191.883 176.083 191.515C177.468 192.344 176.919 191.613 177.698 191.3C177.752 191.893 177.726 192.183 177.986 192.714C178.332 192.136 178.357 192.035 178.852 191.556C179.404 191.918 179.157 191.742 179.461 192.581L179.694 192.647C179.801 191.932 179.687 192.146 180.034 191.571C180.293 192.062 180.365 192.302 180.781 192.664L181.203 191.705L181.756 191.681L181.994 191.363L181.871 191.05L182.145 190.59L182.423 190.682L182.517 191.315C183.197 191.791 182.828 191.645 183.678 191.736C184.336 191.382 184.52 190.798 184.879 190.11L185.27 190.002C185.763 190.57 185.834 190.503 185.804 191.512C185.961 192.56 185.765 192.314 186.395 192.927C187.05 193.102 187.607 192.779 188.277 192.53L188.687 192.645C188.988 193.201 188.902 193.719 188.894 194.368C189.267 193.706 189.307 193.551 189.937 193.096C190.843 192.93 191.602 193.533 192.548 193.754C194.028 193.26 196.344 194.402 197.581 195.186L198.25 193.56C198.781 194.317 198.239 195.501 198.84 195.637C199.882 194.88 200.916 195.067 201.994 195.668C202.15 196.115 202.161 196.187 202.229 196.659C203.021 197.099 203.546 196.793 203.914 196.936C204.694 197.242 204.192 198.185 204.999 198.596L205.407 198.214C207.911 199.304 208.531 201.079 209.255 203.598L209.922 202.474L210.242 202.399C210.687 203.136 211.01 205.116 211.607 206.507C212.123 207.725 212.357 208.764 212.869 209.844L212.924 209.771C213.203 210.88 213.469 215.858 213.547 215.961L214.149 215.116C214.624 216.023 214.126 219.383 214.141 220.543C214.244 228.399 212.665 235.92 210.653 243.485C210.344 244.645 210.243 245.951 209.872 247.13C209.759 247.487 209.633 247.839 209.495 248.186L209.451 248.053C207.614 252.537 206.947 256.867 205.462 260.815C205.252 259.91 205.117 259.157 204.75 258.299C203.91 263.049 202.664 264.479 199.569 268.259C198.269 269.846 197.558 270.148 196.98 272.152C196.224 271.249 197.314 271.141 196.35 271.006C193.845 272.911 191.419 274.783 188.699 276.408C188.105 276.763 186.213 276.73 185.53 277.043C184.868 277.346 184.473 278.048 183.792 278.569C182.835 277.823 184.113 277.984 182.909 277.622C179.831 278.658 178.414 279.27 175.504 280.458C174.747 279.686 175.605 278.921 174.853 278.834C173.935 279.544 173.734 280.034 173.282 281.121C172.741 280.336 172.147 279.509 171.665 278.692C171.448 279.383 171.35 280.167 170.863 280.509C170.622 280.328 170.378 280.148 170.131 279.974L170.036 280.9L169.741 281.092C169.285 280.538 169.245 280.368 168.947 279.724C168.212 280.108 168.631 280.856 167.902 281.135C167.449 280.334 167.476 280.182 167.355 279.241L167.11 279.092C166.64 279.536 166.574 280.448 166.443 281.138C165.846 281.318 165.838 279.88 164.932 279.472C164.971 280.013 165.042 279.876 164.853 280.312C164.038 279.866 163.558 279.584 162.801 279.052L162.572 281.183C162.165 280.159 161.867 279.411 161.352 278.421L161.14 278.419L161.028 279.759L160.81 279.921C160.253 279.468 159.689 279.022 159.117 278.587C158.745 278.976 158.745 279.166 158.541 279.692C158.09 279.384 158.001 279.29 157.591 278.923C156.87 278.617 156.335 278.174 155.643 277.793L155.263 277.96L154.95 278.906C155.164 279.564 155.151 280.331 154.815 280.934C153.602 280.985 153.414 279.461 153.318 278.532C152.957 277.896 152.568 277.002 151.971 276.682C150.339 276.786 150.435 275.952 149.914 274.537C149.834 275.075 149.748 276.012 149.398 276.29C146.517 272.996 144.312 273.772 142.993 270.188L142.858 269.818C142.212 269.966 142.998 270.149 142.307 271.108C140.125 268.138 137.91 265.682 136.656 262.208C136.134 262.642 135.331 264.627 134.992 265.36C135.101 263.412 135.857 262.602 134.953 260.886C134.053 257.161 132.23 255.544 131.363 252.113C131.153 251.284 131.263 250.495 130.736 249.713C130.724 250.322 130.752 250.759 130.584 251.351C130.085 250.618 128.489 244.736 128.173 243.515L127.761 244.665L127.559 244.639C126.959 240.786 126.273 239.312 125.504 235.793C122.703 234.821 123.054 231.086 123.09 228.644Z" fill="#000101"/>
<path d="M149.915 274.535L150.002 273.775L150.163 273.682C150.806 274.049 150.556 274.05 150.804 274.218C153.269 275.877 156.149 275.502 157.593 278.922C156.871 278.615 156.336 278.172 155.644 277.792L155.265 277.958L154.951 278.904C155.166 279.563 155.152 280.33 154.817 280.932C153.603 280.983 153.416 279.459 153.319 278.53C152.959 277.895 152.569 277.001 151.972 276.681C150.341 276.785 150.436 275.95 149.915 274.535Z" fill="#000101"/>
<path d="M153.317 278.531L153.657 277.645L153.972 277.521C154.457 278.063 154.583 278.299 154.949 278.906C155.164 279.564 155.15 280.331 154.815 280.934C153.601 280.985 153.414 279.46 153.317 278.531Z" fill="#000101"/>
<path d="M123.09 228.644C124.67 231.286 124.98 232.765 125.504 235.793C122.703 234.821 123.054 231.086 123.09 228.644Z" fill="#000101"/>
<path d="M181.755 191.681L181.993 191.363L181.87 191.05L182.144 190.59L182.422 190.682L182.516 191.315C183.196 191.791 182.827 191.645 183.677 191.736C184.335 191.382 184.519 190.798 184.877 190.109L185.269 190.002C185.762 190.57 185.833 190.503 185.803 191.512C185.541 192.244 185.292 193.146 184.813 193.721C184.674 193.17 184.59 192.652 184.492 192.094C184.164 192.407 183.878 192.694 183.559 193.016L183.085 192.977C182.449 192.316 182.325 192.456 181.755 191.681Z" fill="#000101"/>
<path d="M162.803 279.051C163.558 278.55 166.418 278.044 167.313 278.52C167.492 279.01 167.488 278.77 167.357 279.24L167.112 279.092C166.642 279.535 166.576 280.447 166.445 281.137C165.848 281.317 165.84 279.879 164.934 279.471C164.973 280.012 165.044 279.875 164.854 280.311C164.039 279.865 163.56 279.583 162.803 279.051Z" fill="#000101"/>
<path d="M188.893 194.369C189.267 193.707 189.307 193.551 189.937 193.096C190.842 192.931 191.601 193.534 192.547 193.755L192.343 194.272L192 194.375C190.67 194.779 190.236 195.378 188.94 194.9L188.893 194.369Z" fill="#000101"/>
<path d="M209.256 203.597L209.923 202.473L210.242 202.398C210.687 203.135 211.011 205.115 211.608 206.506C210.528 205.971 209.845 204.646 209.256 203.597Z" fill="#000101"/>
<path d="M134.955 260.886L135.551 260.966C135.984 261.587 136.047 261.85 136.658 262.208C136.136 262.642 135.332 264.626 134.994 265.36C135.103 263.412 135.859 262.602 134.955 260.886Z" fill="#000101"/>
<path d="M322.73 266.793C323.245 266.829 323.811 266.897 324.317 266.86C323.958 267.464 323.801 268.044 323.562 268.713C323.208 268.075 322.995 267.469 322.73 266.793Z" fill="#000101"/>
<path d="M146.952 176.325C147.991 175.883 148.064 175.252 149.129 175.143C152.123 174.836 155.144 175.238 158.12 175.57L159.106 174.983C161.992 175.139 165.648 174.965 168.416 175.007C168.73 175.012 170.494 176.166 171.804 176.036C172.789 175.382 172.765 175.149 173.874 175.306C175.208 175.538 176.47 176.052 177.804 176.25C178.451 176.345 181.875 175.607 182.121 175.786C184.359 177.359 184.97 176.39 187.48 175.951C188.141 175.762 192.781 177.2 192.814 177.191C195.194 176.523 196.149 177.3 198.3 177.343C202.48 177.427 205.36 178.327 209.335 179.568C209.389 179.771 209.496 180.076 209.482 180.261C208.789 180.652 208.171 181.217 207.459 181.149C207.024 180.041 206.986 179.903 205.954 179.387C203.729 180.863 203.734 178.435 201.841 178.493C200.967 178.855 200.539 179.504 199.901 180.233C198.74 177.916 196.573 177.934 194.185 177.358C193.711 178.059 193.39 178.5 192.855 179.153L192.57 178.96C191.564 175.564 190.846 178.655 188.528 177.106C187.982 176.741 187.659 176.58 187.064 176.332C186.32 176.626 185.105 177.85 184.451 178.442L184.1 178.377C183.85 177.891 183.605 177.403 183.366 176.913C182.788 176.738 182.711 176.815 182.097 176.917C181.252 177.595 181.137 177.855 180.134 177.911C179.553 177.576 179.239 177.329 178.57 177.251C177.012 178.641 177.883 176.47 176.089 176.13C175.601 176.51 175.409 177.461 175.206 178.109L175.008 178.067C174.712 177.282 174.629 177.032 174.196 176.327C172.797 175.838 172.73 176.378 171.619 177.16C168.424 176.17 168.254 176.41 164.978 176.457C160.566 176.521 155.839 176.111 151.451 176.136C151.039 176.517 151.035 176.547 150.542 176.798C149.354 175.826 149.094 176.879 147.177 176.66L146.952 176.325Z" fill="#000101"/>
<path d="M279.957 272.414C280.465 272.501 280.721 272.428 281.083 272.769C282.521 274.116 284.593 275.578 286.364 276.425C288.3 277.351 288.305 277.112 289.865 278.621C290.595 278.785 292.314 279.295 292.929 279.38C294.299 279.567 298.704 281.301 299.644 281.105L300.448 280.401L300.648 280.508L300.624 281.09C303.824 283.269 310.494 282.483 314.717 283.416C316.231 282.408 315.925 282.359 317.675 283.122C318.11 283.029 318.254 283.03 318.654 282.85C319.472 282.855 320.523 282.91 321.306 282.786C325.495 281.877 326.872 283.585 330.355 280.992C330.108 282.26 329.588 282.767 328.321 283.175C326.787 283.666 325.069 283.126 323.444 283.188C321.479 283.264 318.827 284.67 316.941 283.761C316.489 283.497 316.59 283.513 315.973 283.258C315.369 283.798 315.339 283.876 314.583 284.226C311.657 283.99 308.795 283.753 305.838 283.765C304.957 283.768 302.651 282.659 301.62 282.519C299.347 282.216 298.929 282.622 297.061 281.154L296.832 280.97C296.734 281.267 296.815 281.102 296.518 281.427C295.385 280.985 294.154 281.242 293.982 281.166C288.499 278.791 283.969 277.012 279.957 272.414Z" fill="#000101"/>
<path d="M91.5396 187.059C92.3648 183.801 99.2977 178.765 101.887 180.348C102.764 180.323 102.608 179.405 103.192 179.263C104.18 178.932 106.666 179.417 107.487 178.684C110.231 176.233 122.32 177.46 123.897 176.223L124.392 176.419C123.754 176.981 123.533 177.289 123.045 177.992C121.772 177.344 123.477 176.971 121.981 177.075C121.758 177.225 121.418 177.532 121.176 177.617C119.861 178.079 114.131 177.245 113.695 178.308C113.617 178.5 113.629 179.017 113.618 179.2L113.352 179.328C113.077 178.735 113.039 178.569 112.867 177.956L112.548 177.719C111.936 177.943 111.852 178.097 111.379 178.545C110.013 178.659 108.857 178.458 107.807 179.499C106.119 181.174 106.276 179.685 105.323 179.922C103.302 180.424 102.102 181.175 99.9246 181.242C99.7473 181.74 99.5215 182.715 99.1622 182.886C98.8086 182.176 98.8265 182.11 98.6811 181.355C96.0811 182.788 94.3843 184.026 92.6817 186.559L92.2367 187.209L91.5396 187.059Z" fill="#000101"/>
<path d="M127.558 278.243L128.32 278.545L129.233 278.091C130.842 279.575 135.768 286.115 136.928 286.104L137.451 285.756C138.801 286.893 139.172 288.462 140.809 288.935C141.448 288.813 141.467 288.725 142.011 288.336C142.987 289.734 142.908 290.124 144.577 290.791C145.427 291.13 146.544 291.875 147.329 292.39L146.98 293.22C143.714 291.053 139.461 289.785 136.264 287.158C134.835 285.985 133.597 283.906 132.386 282.854C129.927 280.721 129.321 281.092 127.558 278.243Z" fill="#000101"/>
<path d="M285.425 169.038C285.254 169.392 284.886 170.383 284.357 170.437C282.714 170.604 282.386 172.437 280.957 171.314C280.12 171.226 279.454 171.568 278.663 171.946L276.451 172.076C273.417 173.618 270.427 175.319 267.381 176.751C266.52 177.156 265.965 177.251 265.131 177.853L264.815 177.812C264.796 177.4 264.84 176.747 264.854 176.314C265.959 175.691 266.316 175.393 267.592 175.133C269.287 174.787 272.835 173.113 274.27 172.144C276.716 170.491 283.779 170.43 285.425 169.038Z" fill="#000101"/>
<path d="M330.634 281.012C332.069 281.109 335.705 279.762 337.157 279.264C339.437 278.483 338.658 278.635 339.694 276.95C340.175 277.433 340.317 277.648 340.714 278.19C342.327 278.352 341.771 276.33 342.388 276.618C343.963 277.351 348.234 275.257 348.482 273.59L348.896 273.432C348.742 274.263 348.576 275.739 347.888 276.126C346.872 276.699 341.556 279.23 340.78 279.189L340.409 278.689C337.29 280.082 334.709 282.069 330.916 281.641L330.634 281.012Z" fill="#000101"/>
<path d="M124.578 177.326C125.194 177.279 125.575 176.746 126.127 176.247C126.863 176.125 129.862 176.046 130.684 176.094C135.201 176.356 142.667 174.754 146.863 175.317C144.954 176.381 143.636 176.686 141.563 175.983L141.349 176.158C140.793 176.608 140.576 176.877 139.874 176.979C138.31 176.447 137.712 175.607 136.485 177.044C135.204 178.546 134.329 176.822 132.735 176.695C131.732 176.615 129.556 177.496 128.437 177.539C127.16 177.603 128.25 176.89 126.659 176.88C125.976 177.245 125.626 177.453 124.982 177.882L124.673 177.71L124.578 177.326Z" fill="#000101"/>
<path d="M234.253 213.555C234.546 211.41 235.26 210.599 236.983 209.331C240.673 206.614 240.574 207.168 244.742 207.38C246.784 209.184 250.219 212.183 250.295 214.994C248.899 212.335 247.21 210.474 244.833 208.681L240.181 208.303C239.823 208.594 239.356 208.986 238.949 209.178C237.046 210.074 235.586 211.914 234.253 213.555Z" fill="#000101"/>
<path d="M170.551 295.32C172.754 295.467 177.013 294.282 179.416 294.358C180.913 294.191 182.463 294.042 183.913 293.623C184.487 293.455 184.853 292.844 185.308 292.464L185.813 292.767L185.332 293.347C184.643 293.922 183.948 295.164 183.311 295.411C183.078 294.959 183.043 294.817 182.892 294.327C182.248 294.295 181.942 295.052 181.697 295.088C178.504 295.565 175.363 295.844 172.213 296.672C171.256 296.924 171.201 295.923 170.705 295.532L170.551 295.32Z" fill="#000101"/>
<path d="M230.552 182.367C233.304 182.309 236.037 182.396 238.782 182.25C240.386 182.165 240.717 181.704 241.383 183.328L240.103 183.159C239.402 183.474 239.502 183.618 239.003 184.419C238.409 184.148 238.115 183.53 237.682 182.93C236.964 183.446 236.243 183.877 235.492 184.339C233.05 183.728 231.797 183.521 229.402 183.019L230.552 182.367Z" fill="#000101"/>
<path d="M195.722 289.864C195.938 289.255 195.915 289.278 196.317 288.779C198.13 288.15 203.653 286.099 204.181 284.537C204.326 284.108 204.856 283.469 205.201 283.052C206.369 282.698 206.806 282.454 207.877 281.898C207.361 282.979 207.019 283.951 205.927 284.5C205.357 284.248 205.613 284.435 205.275 283.751C204.661 284.462 203.974 285.886 203.498 286.341C201.67 288.096 198.341 289.11 196.201 290.363L195.722 289.864Z" fill="#000101"/>
<path d="M208.201 281.73L209.041 281.097C210.313 277.33 214.916 274.248 215.36 271.045L215.4 270.778L215.454 270.359C216.125 269.66 216.855 269.479 217.769 269.117C215.513 273.047 213.771 276.205 210.302 279.203C209.96 280.38 209.733 281.436 209.1 282.477L208.695 282.676C208.195 282.261 208.415 282.5 208.201 281.73Z" fill="#000101"/>
<path d="M286.911 170.014C287.43 169.559 288.232 168.537 288.757 168.186C290.22 167.205 293.361 167.872 294.906 167.332C295.107 166.669 294.986 166.87 295.376 166.328C295.951 166.391 296.097 166.434 296.659 166.559C297.312 166.28 297.561 166.209 298.224 166.02L298.765 166.645C296.956 167.586 294.914 167.552 293.147 168.407C292.799 168.575 292.816 169.435 291.844 169.646C290.877 169.213 290.101 168.709 289.091 168.814C288.188 169.259 287.932 169.873 287.41 170.746L287.101 170.796C286.821 170.258 286.826 170.518 286.911 170.014Z" fill="#000101"/>
<path d="M350.272 272.596C352.563 272.436 354.199 269.255 355.321 267.423C356.038 267.051 355.668 267.093 356.476 267.336C357.148 267.72 357.177 267.681 357.918 267.764C356.969 269.244 354.044 271.063 352.688 272.381C351.903 273.147 351.439 273.811 350.805 274.691L350.272 272.596Z" fill="#000101"/>
<path d="M209.336 179.568C211.848 179.837 214.337 180.268 216.882 180.537C218.041 181.066 218.604 181.111 219.843 181.334C219.041 181.767 218.929 181.797 218.037 182.029C216.362 181.276 215.221 181.548 213.379 181.331C211.633 181.127 211.118 180.869 209.483 180.261C209.496 180.076 209.389 179.772 209.336 179.568Z" fill="#000101"/>
<path d="M356.478 267.336C358.006 267.172 360.524 261.98 361.55 260.453C362.709 260.156 363.134 260.103 364.049 259.28C363.325 261.042 359.147 265.082 357.919 267.764C357.178 267.681 357.15 267.719 356.478 267.336Z" fill="#000101"/>
<path d="M256.434 180.619L256.545 180.377C257.748 177.806 262.24 177.258 264.851 176.314C264.837 176.747 264.793 177.4 264.813 177.813C262.964 177.967 258.008 179.643 256.434 180.619Z" fill="#000101"/>
<path d="M147.329 292.389C148.562 292.663 150.006 292.602 151.382 292.778C152.527 292.922 154.521 293.661 155.188 293.604L155.762 294.574L155.333 294.74C152.343 293.838 148.874 294.246 146.98 293.22L147.329 292.389Z" fill="#000101"/>
<path d="M161.815 295.039C163.586 294.762 168.179 294.884 169.947 295.205L170.322 295.272C170.399 295.288 170.475 295.303 170.552 295.319L170.706 295.531C169.765 297.222 168.198 296.478 167.073 295.544L166.852 295.36C166.124 296.256 163.219 296.073 162.036 295.957L161.815 295.039Z" fill="#000101"/>
<path d="M374.453 160.049L374.703 160.108C378.709 161.022 378.448 159.785 382.667 162.537C382.099 162.961 382.128 163.066 381.878 163.725C380.449 162.059 378.847 161.898 376.684 161.18C375.271 161.048 375.169 161.261 374.453 160.049Z" fill="#000101"/>
<path d="M378.372 195.312C377.801 193.249 381.389 189.085 382.824 187.711C383.327 187.23 383.554 187.282 384.165 187.333C382.443 191.005 380.487 190.417 378.372 195.312Z" fill="#000101"/>
<path d="M155.188 293.604C156.617 293.567 160.649 294.125 161.815 295.038L162.036 295.956L161.385 295.637C160.151 296.074 157.1 294.967 155.762 294.573L155.188 293.604Z" fill="#000101"/>
<path d="M119.281 264.785C120.658 266.164 121.052 265.047 121.81 267.473C122.366 269.255 123.891 271.573 124.276 273.305C122.341 270.872 120.269 267.751 119.281 264.785Z" fill="#000101"/>
<path d="M222.988 182.368C226.159 181.718 227.348 182.037 230.551 182.367L229.401 183.019C228.906 183.702 228.895 183.956 228.233 184.268C227.878 183.771 227.58 183.28 227.259 182.762L226.9 182.761L226.427 183.535L226.189 183.524L225.383 182.342L224.988 182.271C224.156 183.107 224.242 183.208 223.131 182.856L222.988 182.368Z" fill="#000101"/>
<path d="M367.954 159.74C368.948 159.16 372.24 159.999 373.402 159.634L373.73 160.258C373.361 160.868 372.857 161.976 372.389 162.287C372.307 161.59 372.276 161.291 372.08 160.598C371.203 160.304 370.704 160.924 369.444 161.033C368.78 160.643 368.67 160.542 367.871 160.473L367.954 159.74Z" fill="#000101"/>
<path d="M185.811 292.767L186.327 292.76C186.63 292.541 186.656 292.489 187.03 292.426C188.288 292.213 189.556 292.063 190.829 291.974L191.085 292.582C189.114 293.309 187.923 293.651 185.891 294.127C185.393 293.776 185.617 293.98 185.33 293.347L185.811 292.767Z" fill="#000101"/>
<path d="M105.866 221.906L106.247 221.757C107.601 223.843 108.585 224.632 107.602 227.08C106.556 224.816 106.535 224.264 105.866 221.906Z" fill="#000101"/>
<path d="M251.755 180.65L251.985 180.396C254.122 180.859 254.906 179.371 255.907 179.654L256.435 180.62C255.892 181.196 253.734 181.35 252.778 181.487C251.689 180.809 253.145 180.894 251.755 180.65Z" fill="#000101"/>
<path d="M382.666 162.537C383.481 162.941 384.004 163.175 384.74 163.697C384.007 164.113 383.474 164.701 382.864 165.284L382.51 165.142C382.353 164.687 382.273 164.466 382.051 164.049L381.877 163.725C382.128 163.066 382.098 162.96 382.666 162.537Z" fill="#000101"/>
<path d="M195.72 289.864L196.198 290.363C195.568 290.996 195.29 291.34 194.532 291.791C193.833 291.721 194.171 291.834 193.551 291.282L192.885 290.64C193.688 290.602 194.914 290.129 195.72 289.864Z" fill="#000101"/>
<path d="M219.842 181.335C220.691 181.591 220.643 181.579 221.489 181.283C221.329 182.186 221.433 182.489 220.935 183.09C219.992 182.999 219.718 182.201 218.035 182.029C218.928 181.797 219.039 181.767 219.842 181.335Z" fill="#000101"/>
<path d="M190.83 291.973C191.553 290.842 191.576 290.288 192.884 290.64L193.55 291.282C192.682 291.773 192 292.162 191.086 292.582L190.83 291.973Z" fill="#000101"/>
</svg>
