<svg width="500" height="500" viewBox="0 0 500 500" fill="none" xmlns="http://www.w3.org/2000/svg">
<path d="M114.856 241.456C114.779 238.946 118.577 219.681 119.443 216.511C119.579 216.016 122.626 215.661 123.482 215.516L123.659 214.566C122.001 213.386 122.011 215.251 119.864 214.636C121.339 207.806 131.492 194.276 135.612 188.101C136.833 186.271 143.269 177.531 144.721 176.321C154.467 168.206 167.599 164.236 179.498 160.491C184.596 158.916 189.626 159.896 195.104 157.971C200.611 159.816 200.09 159.456 205.333 159.676C209.181 160.006 212.258 159.946 215.724 161.591C217.902 162.151 247.899 174.166 248.485 174.781L248.394 176.511C249.566 177.361 250.9 177.056 252.441 176.991C256.301 177.486 265.03 180.846 268.068 183.091C272.362 182.571 274.636 183.146 278.729 184.056C295.499 187.786 313.584 185.856 330.3 189.531C331.599 189.816 348.31 196.611 348.797 197.071C351.72 198.891 355.026 201.706 357.066 202.931C360.668 203.781 374.157 221.246 377.065 225.211C377.295 225.526 378.783 230.886 378.796 231.356C379.811 233.381 380.585 234.856 381.358 237.006C383.685 241.746 384.288 243.471 383.568 248.921C383.015 253.116 383.735 256.111 382.866 261.376C379.609 281.116 364.676 299.006 366.071 319.341C366.717 321.461 368.203 325.851 369.161 327.716C373.105 335.406 383.284 341.201 389.386 347.241C396.552 354.331 404.673 362.631 408.182 372.251C410.074 377.441 413.337 391.741 412.218 396.721C410.927 396.101 410.77 394.511 410.069 392.736C409.922 395.351 410.925 400.456 410.712 401.516C409.4 408.031 404.24 416.071 400.501 421.531C399.245 423.366 397.949 424.381 396.706 426.326L391.122 428.456C389.917 430.091 388.643 431.751 387.56 433.466C381.137 435.846 376.456 438.536 369.429 439.881C365.405 440.646 359.248 440.376 355.978 441.346C356.033 441.836 356.087 442.326 356.142 442.816C353.33 443.231 352.351 440.671 349.396 441.061C349.318 442.331 349.283 441.921 349.563 443.111C346.927 443.481 341.666 440.291 338.649 441.566C339.11 442.826 338.904 442.416 339.727 443.481C336.534 443.816 332.607 442.696 329.339 442.726C322.272 442.786 317.545 443.321 310.689 441.196C308.302 442.361 306.939 442.796 304.226 442.751C291.223 442.546 277.891 441.701 264.919 441.541L193.922 441.081C178.741 440.871 163.077 441.441 147.834 440.696C144.203 440.521 142.771 439.806 139.925 437.641C138.579 437.711 133.42 438.021 132.489 437.646C126.365 435.171 115.791 431.061 112.851 424.991C109.145 422.861 106.845 423.141 104.165 419.621C99.3056 413.241 97.1931 405.756 91.3621 400.171L91.2941 399.226C90.6806 391.221 86.6511 385.821 90.7021 380.051C89.0941 380.271 89.6101 380.356 88.1051 380.036C87.6071 378.116 89.0111 366.151 89.5641 363.921C90.4966 358.901 91.9316 351.401 94.2121 346.866C100.816 333.736 111.733 324.156 118.086 311.191C118.986 308.996 118.895 305.866 119.629 303.706C122.331 295.756 122.991 289.511 117.793 282.246C118.138 279.526 117.795 275.206 117.658 272.331C116.552 269.676 116.325 269.106 115.907 266.281C115.049 263.351 114.794 258.011 114.528 254.761C113.823 250.261 113.792 245.891 114.856 241.456Z" fill="#F07350"/>
<path d="M89.5641 363.92C91.5281 366.88 92.8876 377.325 90.7021 380.05C89.0941 380.27 89.6101 380.355 88.1051 380.035C87.6071 378.115 89.0111 366.15 89.5641 363.92Z" fill="#EB7F6C"/>
<path d="M378.796 231.355C379.811 233.38 380.584 234.855 381.358 237.005C383.684 241.745 384.287 243.47 383.568 248.92L382.985 248.635C382.986 244.575 381.739 246.035 379.86 242.03C377.413 238.055 378.079 236.055 378.796 231.355Z" fill="#EB7F6C"/>
<path d="M252.441 176.99C256.301 177.485 265.03 180.845 268.068 183.09C267.884 183.16 267.7 183.235 267.516 183.305C258.644 183.055 258.45 181.565 252.441 176.99Z" fill="#EB7F6C"/>
<path d="M114.856 241.455C116.061 243.845 116.45 244.16 118.712 245.585C115.713 249.79 116.064 249.765 114.528 254.76C113.822 250.26 113.792 245.89 114.856 241.455Z" fill="#EB7F6C"/>
<path d="M348.795 197.07C351.718 198.89 355.024 201.705 357.065 202.93C355.077 204.615 350.875 202.615 348.849 201.49C347.924 200.105 348.494 199.275 348.795 197.07Z" fill="#EBA4A1"/>
<path d="M205.332 159.676C209.181 160.006 212.257 159.946 215.724 161.591C210.294 162.056 208.747 164.846 205.332 159.676Z" fill="#EB7F6C"/>
<path d="M115.906 266.281L116.545 265.676C116.626 265.871 116.708 266.066 116.79 266.261C118.899 265.711 117.941 265.606 119.778 266.281C120.412 268.901 119.089 270.096 117.657 272.331C116.551 269.676 116.324 269.106 115.906 266.281Z" fill="#EB7F6C"/>
<path d="M188.044 262.167C187.476 260.532 187.542 260.632 187.809 258.902C190.311 255.402 194.169 258.677 197.545 259.507L198.511 259.732C200.738 260.427 205.234 260.787 206.696 261.417C217.033 265.897 225.743 276.087 223.774 287.792C223.084 288.812 222.994 288.757 221.935 289.437C224.457 295.652 218.386 301.882 213.677 305.427C211.88 307.497 210.385 308.267 208.093 309.742C204.051 309.992 193.729 312.787 192.518 307.587L193.318 306.342C193.063 305.742 193.189 306.102 193.002 305.127L192.845 304.292L191.529 304.367C191.366 304.927 191.413 305.482 191.418 306.062C186.493 310.592 185.644 306.077 180.947 307.107C176.311 308.122 179.629 306.117 175.088 303.962C173.913 303.797 174.275 303.842 173.162 303.242C173.16 302.017 173.183 301.977 172.876 300.802C171.397 300.527 170.989 300.617 169.885 299.617C170.266 297.927 170.751 297.947 172.259 296.507L170.377 296.687C169.552 295.657 168.706 294.747 167.825 293.767L169.451 292.007C168.551 290.067 161.991 288.307 165.263 283.532L166.669 284.332C167.641 283.327 167.473 278.327 168.191 276.717C168.592 275.817 168.945 277.357 170.543 275.732L168.574 275.597L168.265 274.712C169.435 272.887 174.298 265.182 175.571 265.267C181.782 265.687 178.229 265.262 182.383 262.062C183.865 262.852 184.202 263.032 185.854 263.602C187.749 263.132 187.086 263.657 188.044 262.167Z" fill="#000101"/>
<path d="M188.047 262.167C187.479 260.532 187.545 260.632 187.813 258.902C190.314 255.402 194.172 258.677 197.548 259.507L198.514 259.732C200.742 260.427 205.237 260.787 206.7 261.417C217.036 265.897 225.746 276.087 223.777 287.792C223.087 288.812 222.997 288.757 221.939 289.437C224.461 295.652 218.389 301.882 213.681 305.427C211.883 307.497 210.388 308.267 208.096 309.742C204.055 309.992 193.732 312.787 192.521 307.587L193.322 306.342L195.132 302.907L195.533 301.562C197.491 301.512 198.628 301.512 200.609 301.252C202.026 299.722 200.217 299.362 201.039 296.802C202.775 297.412 202 297.502 203.483 297.072C204.493 295.302 205.968 292.987 205.487 290.982C204.565 291.822 204.895 291.712 203.812 292.137L203.914 291.217L206.283 290.097C206.347 289.182 206.718 285.442 206.412 284.437C206.258 283.927 205.74 284.682 204.784 283.432C207.156 280.002 208.524 277.542 204.846 274.202L202.464 272.062C202.949 270.997 203.038 270.742 203.341 269.607C201.492 268.367 202.242 269.852 198.828 270.012C199.107 269.612 199.38 269.207 199.648 268.797C200.956 266.767 200.656 267.067 200.238 265.012C200.027 266.512 200.165 266.547 199.168 267.632C196.033 267.182 197.922 263.777 192.227 263.897L192.12 263.477L191.438 263.117C189.85 263.352 189.458 262.952 188.047 262.167Z" fill="#FEFDFC"/>
<path d="M188.047 262.167C187.479 260.532 187.545 260.632 187.813 258.902C190.314 255.402 194.172 258.677 197.548 259.507L198.514 259.732C200.742 260.427 205.237 260.787 206.7 261.417C217.036 265.897 225.746 276.087 223.777 287.792C223.087 288.812 222.997 288.757 221.939 289.437C220.196 286.837 222.974 276.302 217.418 274.032C214.295 272.752 216.795 271.457 215.532 270.122C212.298 266.707 204.984 262.672 200.419 262.112L199.888 262.677L200.238 265.012C200.027 266.512 200.165 266.547 199.168 267.632C196.033 267.182 197.922 263.777 192.227 263.897L192.12 263.477L191.438 263.117C189.85 263.352 189.458 262.952 188.047 262.167Z" fill="#F1DED7"/>
<path d="M188.047 262.167C187.479 260.532 187.545 260.632 187.813 258.902C190.314 255.402 194.172 258.677 197.548 259.507L198.514 259.732C195.999 260.052 192.606 260.777 192.227 263.897L192.12 263.477L191.438 263.117C189.85 263.352 189.458 262.952 188.047 262.167Z" fill="#EB7F6C"/>
<path d="M193.32 306.341L195.131 302.906C195.62 305.251 197.357 308.016 199.857 308.971C204.91 310.896 210.475 305.831 213.679 305.426C211.882 307.496 210.387 308.266 208.095 309.741C204.053 309.991 193.731 312.786 192.52 307.586L193.32 306.341Z" fill="#F1DED7"/>
<path d="M175.09 303.961C179.419 301.761 179.061 306.936 183.469 305.846C185.996 305.226 187.304 303.406 190.14 303.566L191.531 304.366C191.367 304.926 191.414 305.481 191.419 306.061C186.495 310.591 185.645 306.076 180.949 307.106C176.312 308.121 179.63 306.116 175.09 303.961Z" fill="#32090A"/>
<path d="M283.733 269.045C282.009 268.23 277.315 266.3 276.53 264.955C279.84 264.195 288.465 263.065 291.329 264.385C291.082 265.225 290.986 265.56 290.939 266.45C296.086 266.825 302.179 270.345 305.533 274.175C308.468 277.535 308.402 281.3 310.315 284.905C313.157 289.765 307.458 294.43 307.445 297.395L308.941 299.25C308.071 303.09 301.076 304.6 301.915 307.235L303.181 308.165L303.113 308.98L302.478 309.475L301.993 309.22C301.369 308.9 300.888 308.69 300.249 308.42C295.273 310.97 284.862 317.285 280.269 311.975C280.05 310.76 279.288 309.535 279.211 308.575C278.86 308.265 276.16 308.275 275.5 308.25C275.44 309.24 275.428 309.165 275.196 310.125L273.334 308.84L273.85 310.91C272.888 311.945 273.463 311.59 272.018 311.92C270.548 311.15 269.912 309.16 269.156 307.555L268.414 307.455C268.03 308.73 268.293 308.135 267.64 309.25C264.146 308.87 260.029 305.195 257.916 302.49C255.875 299.88 258.135 300.96 258.697 298.36L257.981 297.975L256.706 298.99L256.083 298.72C255.656 297.75 253.558 296.185 253.644 295.695C254.078 293.215 253.805 293.625 252.432 291.715L252.707 291.155C253.313 291.545 253.82 291.935 254.355 292.405L254.959 291.45C254.46 290.05 253.563 290.195 251.84 288.93C253.011 287.93 252.781 288.51 253.078 287.305L251.43 285.355C251.666 283.725 255.05 278.03 256.06 276.215L255.717 276.515C256.938 273.3 258.038 273.54 259.476 270.29C261.472 269.46 263.462 268.615 265.445 267.755L266.692 268.865L267.468 268.675C269.027 266.185 268.871 265.855 271.809 265.77L272.564 267.105L272.087 265.765L272.568 265.785L273.131 266.73L273.699 266.125L273.429 265.905C273.842 267.215 272.321 266.22 271.243 268.445L271.998 268.82C280.618 265.28 277.113 271.64 283.733 269.045Z" fill="#000101"/>
<path d="M283.735 269.045C282.01 268.23 277.317 266.3 276.531 264.955C279.842 264.195 288.467 263.065 291.33 264.385C291.083 265.225 290.988 265.56 290.941 266.45C296.088 266.825 302.181 270.345 305.534 274.175C308.47 277.535 308.404 281.3 310.317 284.905C313.158 289.765 307.459 294.43 307.446 297.395L308.942 299.25C308.073 303.09 301.077 304.6 301.917 307.235L303.183 308.165L303.114 308.98L302.48 309.475L301.994 309.22C301.37 308.9 300.889 308.69 300.25 308.42C295.274 310.97 284.864 317.285 280.271 311.975C280.052 310.76 279.289 309.535 279.212 308.575C282.072 308.37 284.063 307.445 283.722 304.32L284.458 304.23C285.829 303.185 291.564 301.12 290.956 298.145L288.91 298.42L288.539 297.985L289.102 297.155C290.588 296.865 290.543 296.93 291.824 296.155C292.192 294.335 294.025 286.81 293.479 285.755C292.313 286.73 292.933 286.55 291.631 286.79L291.418 286.2L292.61 284.635C292.411 281.655 292.214 284.995 290.911 282.56C291.536 281.74 292.138 280.905 292.715 280.055C292.468 274.825 287.561 276.34 285.421 274.425C285.754 272.465 286.362 274.525 288.286 272.695C287.471 271.205 285.244 270.035 283.735 269.045Z" fill="#FEFDFC"/>
<path d="M275.5 308.25C276.511 308.03 276.615 308.05 277.565 307.665C276.543 306.69 276.992 307.19 276.521 305.59L277.128 304.73C280.14 303.795 280.592 303.81 283.721 304.32C284.062 307.445 282.071 308.37 279.211 308.575C278.86 308.265 276.16 308.275 275.5 308.25Z" fill="#181313"/>
<path d="M201.359 342.945C204.106 343.245 205.108 343.975 207.515 345.24C209.968 344.78 207.339 345.205 208.929 343.15C209.988 343.37 209.829 343.22 210.528 343.86C215.183 348.125 213.497 344.655 216.625 345.04L217.276 346.695C218.395 347.015 219.39 346.485 220.655 345.85C225.53 343.4 230.626 347.085 235.962 346.48C242.67 341.75 243.81 347.26 247.311 347.475C249.719 347.625 252.968 345.215 256.561 346.1C260.531 347.08 266.343 348.725 269.482 348.09L269.386 346.59L270.179 346.42C271.338 347.175 271.572 347.365 272.841 347.875C275.757 346.87 278.253 345.505 280.175 348.8L279.447 350.47C280.175 352.575 282.274 350.525 282.622 351.22C284.255 354.47 283.778 355.055 286.842 357.565C284.576 360.14 285.216 359.54 284.762 363.265C282.776 365.755 279.998 367.485 276.89 368.175C273.644 368.875 268.097 370.085 265.004 369.47L267.66 368.18C266.88 367.05 266.279 367.225 264.584 366.705C263.249 368.005 263.787 368.555 262.119 368.925C254.562 365.02 255.759 369.455 248.989 368.395C248.969 367.665 248.963 366.935 248.97 366.2C246.846 365.785 244.171 368.44 241.787 368.255C240.775 367.225 240.363 366.63 238.997 366.13C238.083 366.975 238.505 366.525 237.729 367.48C235.396 367.27 234.918 367.06 232.711 366.17L232.108 365.925L231.429 367.215C229.656 367.545 225.339 367.19 223.542 366.745C223.13 365.68 223.155 365.72 222.578 364.69C218.993 366.065 215.291 367.55 211.559 366.625L213.192 365.455C210.9 363.935 198.753 365.845 194.785 365.43C189.664 364.9 190.49 363.26 185.908 364.155C184.627 362.695 185.026 363.12 184.664 360.89C182.673 359.8 182.564 361.51 180.296 360.415L180.23 359.66L181.807 359.195C182.274 358.035 182.252 358.635 181.804 357.4L180.406 356.765L182.41 355.27C183.098 353.635 182.328 350.935 182.273 348.91C183.727 346.82 183.518 349.385 186.069 347.835C186.479 345.63 186.243 345.185 188.194 344.4L188.985 345.345C191.295 345.81 193.794 343.595 197.351 343.685L197.866 345.185C200.616 345.8 198.731 345.15 200.673 344.455C201.102 344.3 202.439 346.085 203.951 345.66C203.398 343.82 203.419 344.33 201.359 342.945Z" fill="#000101"/>
<path d="M196.644 225.892L197.317 226.212C200.411 227.682 201.603 227.952 204.941 228.722C204.819 229.397 204.705 229.977 204.561 230.657C205.842 231.047 205.979 230.982 207.339 231.002L208.439 232.197L208.342 233.002C206.803 233.222 206.044 233.242 204.517 233.292L204.58 234.097C206.605 234.982 207.634 234.702 209.1 236.377C209.239 238.432 205.994 244.367 203.066 244.322L201.403 243.147C199.804 243.967 199.541 244.202 198.155 245.257C197.303 245.082 193.783 244.052 193.619 244.052C190.179 244.122 186.532 244.332 183.068 244.407L181.768 245.777L180.994 245.502L180.63 243.887C178.639 243.942 175.901 244.812 173.865 245.247C170.251 246.022 160.679 246.267 157.517 245.062C156.609 243.322 156.47 242.157 155.105 241.682C154.735 242.612 154.819 242.122 154.873 243.157C153.583 242.177 153.698 242.177 153.02 240.672C153.18 239.422 153.316 239.152 153.738 237.947C153.243 234.292 150.914 233.197 153.197 230.517C154.209 229.332 156.677 227.712 158.039 226.742C157.972 226.252 157.898 225.767 157.816 225.282C160.226 224.867 170.397 223.697 172.32 224.282L172.897 225.937L173.73 225.922C176.337 225.897 179.318 226.367 182.053 226.447L183.177 225.072C186.274 225.192 188.104 227.052 189.979 226.537L190.658 225.112L191.446 225.087L191.476 227.012C192.726 227.182 192.133 227.257 193.261 226.822C195.011 226.887 195.106 226.677 196.644 225.892Z" fill="#000101"/>
<path d="M193.26 226.821C195.01 226.886 195.105 226.676 196.643 225.891L197.855 227.536C197.494 229.221 197.915 228.536 196.455 229.601C194.747 229.781 194.871 229.771 193.353 228.941L192.832 227.946L193.26 226.821Z" fill="#181313"/>
<path d="M274.79 229.291C275.581 229.476 276.421 229.691 277.23 229.741C281.423 229.996 284.243 231.936 288.535 232.211L290.715 230.261C296.744 228.856 308.725 231.621 314.616 233.736C317.372 238.986 317.665 235.201 320.123 238.276L318.884 239.661C318.972 246.301 316.414 249.536 309.343 249.341C306.44 249.261 304.442 249.341 301.826 247.866C299.016 249.286 288.006 248.086 284.14 248.386C282.593 248.506 282.678 248.041 281.611 246.866C277.725 245.351 258.41 252.721 261.78 238.831L261.956 238.136L261.078 236.736C262.474 236.886 261.962 236.971 263.252 236.526L263.793 235.391C263.197 234.641 262.761 234.281 261.979 233.726C264.041 229.701 271.031 231.871 274.79 229.291Z" fill="#000101"/>
<path d="M237.244 70.6588C238.712 70.1014 238.855 69.9166 239.602 68.6593C241.207 65.9561 245.162 65.0036 248.091 63.8053C248.552 63.6168 249.093 64.0819 249.854 63.7122C249.86 63.4069 249.873 63.1356 249.894 62.831L250.281 62.7616C250.627 62.9456 250.877 63.072 251.239 63.2309C253.901 61.7037 262.285 63.7208 264.521 66.1033C267.8 66.4999 267.264 66.2003 268.256 68.278C268.783 69.3781 271.632 70.6746 271.561 72.3149C271.488 74.0081 273.745 76.1754 274.066 77.9664C274.561 79.6183 274.181 80.2582 274.501 81.6401C275.179 82.4351 276.836 82.6786 277.863 82.2797C278.441 81.9571 278.747 80.9149 279.264 80.5757C284.212 77.3358 288.944 73.7159 295.296 73.0578C295.916 72.9937 296.919 72.6399 297.541 72.7674L297.522 73.389L297.907 73.6912C298.821 73.7409 299.775 73.1978 300.613 73.7989C301.802 74.6493 304.038 74.0539 305.343 74.5288C307.551 75.3057 309.275 77.1058 311.196 78.2376C313.955 79.8617 314.543 81.0676 316.074 83.4938L316.07 84.1025C316.028 86.4245 317.608 87.7833 318.114 90.0069C318.222 90.4868 317.923 92.1024 317.936 92.8711C319.887 95.4219 315.202 100.517 317.268 104.159C321.008 104.908 325.045 103.816 328.736 103.446C330.208 103.299 332.062 104.11 333.573 104.208C334.063 104.013 334.418 103.792 334.916 103.897C336.012 104.817 336.723 104.763 338.008 105.307C341.02 106.582 342.956 108.486 345.338 110.442C345.996 113.063 347.676 112.637 347.883 114.515C348.006 115.625 348.093 115.361 348.467 116.298C349.924 119.942 350.11 126.881 347.697 130.15C345.837 132.669 345.153 132.683 343.401 135.877C342.772 136.124 340.762 137.088 340.862 137.581C341.113 138.819 341.247 138.261 340.61 139.635C342.104 141.2 343.865 139.172 345.132 140.272C345.884 140.992 347.258 141.311 348.365 141.654C361.603 145.757 363.135 164.453 356.422 173.98C355.974 174.156 355.448 174.333 354.985 174.498C354.562 174.986 354.7 174.854 354.702 175.632C355.999 178.148 359.128 179.952 360.274 182.301C361.116 182.735 361.688 182.999 362.572 183.358C363.314 184.73 363.843 185.678 365.023 186.823C367.851 189.57 369.06 193.052 371.558 196.048C371.491 197.746 372.073 199.175 372.073 200.871C372.07 204.539 370.776 208.777 368.818 212.045C367.739 213.846 363.369 217.658 361.024 218.217C359.405 218.604 358.731 218.383 357.26 219.561C357.088 219.671 353.311 219.914 352.578 219.999C351.912 219.503 352.42 218.836 351.529 219.068C348.645 219.821 347.256 218.361 344.719 217.606C343.631 217.282 342.797 217.456 341.36 216.932C339.8 214.994 337.406 214.009 335.379 212.528C334.15 211.632 334.163 211.312 332.503 211.019C330.473 210.659 328.521 209.985 326.473 209.623C323.72 210.843 323.945 211.41 322.332 213.506C321.014 215.216 319.412 217.027 318.018 218.709C316.779 220.129 313.714 221.858 312.904 223.103C309.789 223.916 308.785 223.255 306.42 224.862C305.868 224.836 304.308 224.719 303.789 224.783C297.144 225.593 293.208 223.514 287.317 220.873C285.939 218.822 286.236 219.005 283.688 218.353C282.744 217.868 281.622 216.604 280.985 215.9C279.479 214.238 277.879 212.865 276.349 211.239C276.428 211.323 273.999 210.525 273.643 210.348C273.155 210.627 271.26 211.623 270.985 211.896C268.423 214.432 266.659 218.282 263.958 220.64C263.172 221.326 259.694 222.564 259.112 223.613C258.778 224.214 252.586 224.546 251.717 224.308C250.069 224.194 249.1 224.912 247.255 224.433C243.439 223.455 239.545 222.214 236.174 220.294C235.543 219.936 233.946 219.624 233.469 219.054C230.485 215.487 227.887 211.598 224.792 208.077C224.754 208.024 224.716 207.97 224.678 207.917C221.733 207.267 222.669 208.294 220.078 208.763C218.695 209.94 218.346 211.322 217.383 212.326C215.492 214.296 210.723 218.346 207.929 218.86L206.81 219.929C204.261 220.106 201.949 220.626 199.5 220.815C197.847 220.944 191.869 220.609 190.466 219.595C190.172 219.383 189.995 219.076 189.817 218.788C189.079 218.488 185.964 217.36 185.632 216.973C184.192 215.292 182.61 214 180.968 212.488C180.818 212.021 180.718 211.69 180.605 211.208L180.263 211.114C177.838 210.42 178.24 209.051 177.045 207.809C175.138 205.832 172.726 204.21 171.945 201.51C170.804 201.092 170.141 200.86 169.073 200.301C167.214 200.518 166.635 200.986 164.966 201.291C163.644 202.909 162.467 204.009 160.672 205.231C159.081 206.315 158.279 206.607 156.944 207.939C156.871 207.946 156.797 207.951 156.724 207.957C155.594 207.791 154.124 209.373 153.485 208.886C153.376 208.802 152.908 208.638 152.776 208.589C151.98 209.007 151.388 209.407 150.472 209.421C148.919 209.445 146.042 210.084 144.661 210.13C140.107 210.282 132.901 206.693 129.501 204.343C126.456 202.238 122.551 197.035 122.331 193.539C122.241 192.12 122.177 188.148 122.969 186.805C123.238 186.349 124.211 185.377 124.629 184.865C124.978 184.718 124.472 183.891 124.486 183.872C125.774 182.047 127.336 180.292 128.87 178.63C129.558 177.885 130.648 177.095 131.494 176.473C133.023 175.351 134.46 174.005 136.081 173.005C137.486 172.139 139.149 171.451 140.543 170.553C141.678 169.757 143.12 168.443 144.219 167.932C143.661 167.603 143.63 167.614 143.199 167.125C143 164.821 141.841 165.763 140.723 164.161C139.905 162.988 139.111 161.359 138.539 160.064C138.065 158.988 136.983 157.398 137.384 156.293C137.524 155.884 137.564 155.767 137.523 155.312C137.448 155.235 136.771 154.521 136.769 154.472C136.6 150.461 137.961 146.536 139.276 142.788C139.531 142.06 140.912 140.901 141.262 140.035C141.054 139.655 141.017 139.639 140.948 139.227C144.066 135.156 147.291 131.466 153.181 130.739C154.02 130.636 154.911 130.458 155.746 130.306C156.183 129.879 156.707 129.425 157.166 129.008C157.059 126.7 156.056 124.408 155.554 122.061C155.409 121.985 154.634 121.57 154.578 121.509C153.998 120.729 152.632 118.371 152.623 117.451C152.59 114.248 153.675 111.126 153.571 107.837C153.556 107.353 154.619 107.003 154.642 106.916C155.222 104.742 156.491 103.203 158.036 101.514C160.041 100.954 161.275 99.3571 162.939 98.2793C168.11 94.9319 178.576 93.1038 184.283 96.205C184.364 96.327 184.446 96.448 184.53 96.5682C185.049 97.2993 185.322 97.2403 186.417 97.4361C187.651 97.6565 188.055 97.9479 189.128 98.5205C191.14 97.6474 189.988 96.5485 189.837 94.6828C189.329 88.3866 189.528 81.5588 194.383 76.5649C194.54 76.4032 195.763 76.6037 195.872 75.4639C196.367 73.6263 199.758 72.3622 201.215 71.0675C203.73 68.4194 217.414 68.7007 219.263 70.9777C224.505 72.6751 226.108 76.014 229.613 79.0305L229.805 79.1936C230.228 79.2642 231.597 79.5103 231.939 79.2855C233.633 78.1722 234.266 75.7748 235.2 74.142C235.665 73.3307 236.125 72.7952 236.456 72.0321C236.723 71.4148 236.887 71.1981 237.244 70.6588Z" fill="#E70083"/>
<path d="M354.702 175.633C355.999 178.148 359.128 179.953 360.275 182.302C361.116 182.736 361.689 183 362.572 183.358C363.315 184.73 363.843 185.678 365.024 186.824C367.851 189.571 369.06 193.052 371.559 196.049C371.491 197.747 372.073 199.175 372.073 200.871C372.071 204.539 370.777 208.778 368.818 212.045C367.739 213.847 363.369 217.659 361.024 218.218C359.405 218.604 358.732 218.383 357.26 219.561C357.088 219.672 353.312 219.915 352.579 220C351.912 219.503 352.42 218.837 351.53 219.069C348.645 219.822 347.256 218.361 344.719 217.606C343.632 217.283 342.797 217.457 341.361 216.932C339.801 214.995 337.406 214.009 335.379 212.529C334.15 211.632 334.163 211.313 332.503 211.019C330.473 210.66 328.522 209.985 326.473 209.623C323.72 210.843 323.946 211.41 322.332 213.506C321.015 215.217 319.412 217.028 318.019 218.71C316.779 220.13 313.714 221.858 312.905 223.104C309.789 223.917 308.785 223.256 306.42 224.863C305.868 224.836 304.309 224.72 303.79 224.783C297.144 225.594 293.208 223.515 287.318 220.874C285.939 218.823 286.236 219.005 283.689 218.353C282.744 217.869 281.622 216.605 280.986 215.901C279.479 214.239 277.879 212.866 276.349 211.24C276.428 211.324 273.999 210.526 273.643 210.349C273.155 210.627 271.26 211.624 270.985 211.897C268.424 214.433 266.659 218.282 263.959 220.641C263.173 221.326 259.695 222.564 259.113 223.614C258.779 224.214 252.587 224.546 251.718 224.308C250.07 224.194 249.1 224.912 247.256 224.433C243.439 223.456 239.546 222.214 236.174 220.295C235.544 219.936 233.946 219.624 233.469 219.054C230.485 215.488 227.888 211.598 224.792 208.078C224.754 208.025 224.717 207.971 224.679 207.918C221.733 207.268 222.67 208.295 220.079 208.764C218.695 209.941 218.346 211.323 217.384 212.327C215.492 214.297 210.724 218.347 207.93 218.861L206.811 219.93C204.261 220.107 201.95 220.626 199.501 220.816C197.847 220.945 191.869 220.61 190.466 219.596C190.173 219.384 189.995 219.077 189.818 218.788C189.079 218.489 185.965 217.361 185.632 216.973C184.193 215.292 182.611 214.001 180.969 212.488C180.819 212.022 180.718 211.69 180.605 211.209L180.264 211.115C177.839 210.42 178.241 209.051 177.045 207.81C175.139 205.832 172.726 204.211 171.946 201.511C170.804 201.093 170.142 200.861 169.073 200.302C167.215 200.518 166.636 200.986 164.967 201.292C163.644 202.91 162.468 204.009 160.673 205.232C159.082 206.316 158.279 206.608 156.945 207.94C156.871 207.946 156.798 207.951 156.725 207.958C155.594 207.792 154.124 209.374 153.485 208.887C153.377 208.803 152.909 208.639 152.776 208.59C151.981 209.007 151.388 209.407 150.473 209.422C148.92 209.445 146.042 210.085 144.662 210.131C140.108 210.283 132.901 206.694 129.502 204.343C126.457 202.238 122.552 197.036 122.331 193.54C122.242 192.12 122.177 188.149 122.97 186.805C123.238 186.35 124.211 185.377 124.63 184.866C124.979 184.719 124.473 183.892 124.486 183.873C125.775 182.047 127.336 180.292 128.87 178.631C129.558 177.886 130.649 177.096 131.494 176.474C133.023 175.351 134.46 174.006 136.082 173.005C137.486 172.14 139.149 171.451 140.543 170.554C141.679 169.758 143.12 168.444 144.219 167.932C144.56 168.26 150.053 171.559 150.668 171.782C153.627 172.852 157.897 173.738 161.094 174.29C162.128 174.47 163.334 175.462 164.377 175.736C165.229 175.96 166.719 175.549 167.471 175.899C168.458 177.764 168.519 175.859 170.279 177.017L170.454 177.135L170.945 176.787C171.845 176.776 171.001 177.546 172.153 177.656C172.655 177.703 174.128 177.673 174.546 177.729C174.56 177.73 175.899 178.62 176.258 178.721C177.846 179.173 179.873 179.235 181.362 179.857C181.589 180.173 181.673 180.292 181.948 180.572C182.263 180.299 182.132 180.373 182.561 180.23C183.388 181.272 186.201 181.38 187.686 181.718C189.78 182.195 191.892 182.864 193.986 183.231C195.975 183.581 198.4 183.341 200.359 183.914C201.453 184.252 202.503 184.819 203.77 184.658L203.975 184.054L204.23 184.02L204.344 184.583C204.869 185.034 210.101 185.788 211.105 185.924C211.609 185.713 211.475 185.73 212.003 185.651C212.232 185.932 212.44 186.17 212.685 186.442C213.871 186.648 214.65 186.381 215.791 186.532L216.693 187.208C217.893 187.387 219.575 187.639 220.728 187.753C221.155 187.428 220.97 187.477 221.462 187.378L222.112 188.082C223.21 188.347 222.066 187.914 223.164 187.653L223.453 188.121C223.644 188.22 227.703 189 228.347 189.152C228.63 188.915 228.919 188.694 229.21 188.467C229.749 188.424 229.523 188.348 229.93 188.61L229.835 189.18C230.224 189.433 234.834 189.127 235.875 189.174C236.186 189.492 236.254 189.576 236.622 189.832C238.83 189.116 239.856 189.906 242.2 190.132C244.76 190.379 247.535 190.058 249.988 190.572C250.632 190.706 250.956 191.098 251.711 190.765C251.582 190.409 251.582 190.527 251.593 190.173C253.68 190.111 257.807 191.254 260 191.353C260.634 191.383 260.512 190.532 262.192 190.999C263.756 191.433 266.46 191.145 268.132 191.007C269.057 190.091 268.614 190.874 269.825 191.023L270.506 190.515C270.944 190.574 271.05 190.825 271.468 191.173C272.37 191.923 271.768 190.991 272.823 190.887C273.013 191.034 273.809 191.641 273.945 191.633C275.539 191.523 277.837 191.264 279.406 191.185C279.784 190.822 279.627 190.913 280.102 190.685C283.636 191.428 285.559 190.016 288.853 190.606C289.21 190.67 288.901 190.801 289.607 190.785C289.676 190.675 289.964 190.208 289.993 190.203C291.004 190.001 292.763 190.246 293.771 190.134C295.034 189.993 296.71 189.478 297.832 189.407C300.139 189.262 302.354 189.124 304.655 189.021C305.169 188.997 306.888 188.354 307.474 188.257C308.855 188.031 310.105 188.085 311.575 187.953C312.945 187.831 314.657 187.425 316.016 187.424C316.35 187.595 316.627 187.737 316.848 187.85C317.095 187.658 317.132 187.619 317.356 187.381L317.552 187.17C318.846 186.795 320.744 186.541 322.126 186.313C322.306 186.283 322.457 186.712 323.354 186.706C323.566 186.398 323.587 186.351 323.868 186.094C326.824 185.768 328.092 185.949 330.961 186.067L331.086 185.536C331.515 185.16 331.258 185.283 331.922 185.226C332.355 185.432 332.436 185.553 332.753 185.879L332.86 185.992C336.228 182.688 348.391 182.017 354.702 175.633Z" fill="#3908FF"/>
<path d="M268.946 149.999C268.161 148.644 267.26 147.938 266.202 146.752C266.366 146.382 266.318 146.505 266.682 146.203C266.454 145.204 266.299 145.877 266.138 145.368C265.799 144.297 266.831 144.137 265.743 143.379C265.523 142.318 264.849 137.692 265.58 136.794C265.954 136.333 266.168 136.388 266.138 135.819L265.579 135.428C265.367 133.497 267.985 132.319 268.232 131.559L267.687 131.28C267.674 130.63 269.15 129.145 269.665 128.648C271.251 127.116 275.24 125.377 277.607 125.447C280.73 125.541 283.819 126.664 285.923 128.784C287.655 130.529 288.874 132.007 289.318 134.335C289.38 134.664 289.822 135.054 290.088 135.313C289.875 135.754 289.89 135.697 289.576 136.099C289.951 137.724 290.622 139.736 290.307 141.311L290.145 141.508L289.802 141.546C289.682 142.526 290.522 144.099 289.955 144.698C288.695 146.028 288.556 148.204 287.637 149.762C287.588 149.843 286.667 149.966 286.486 149.987C286.298 150.461 286.32 150.571 286.289 151.067C283.581 153.148 279.528 155.033 275.738 154.231C274.656 154.003 271.367 152.368 270.764 151.507C270.154 151.031 269.539 150.497 268.946 149.999Z" fill="#1D1D1D"/>
<path d="M268.945 150C269.763 149.82 269.79 149.683 270.451 149.886C270.774 150.376 270.727 150.923 270.763 151.507C270.153 151.031 269.538 150.498 268.945 150Z" fill="#281E1D"/>
<path d="M222.027 123.239C227.004 123.265 231.368 126.414 233.065 130.529L232.756 130.85L232.786 131.138L233.655 131.598C234.092 132.454 233.171 132.028 233.535 132.736C233.83 133.311 234.396 133.385 234.513 134.268C233.728 135.54 234.394 134.733 234.879 135.672C234.799 136.613 234.081 136.944 234.154 137.651C234.542 137.908 234.643 137.925 234.888 138.285C234.626 140.725 234.09 139.463 233.704 140.179C235.164 141.707 233.388 142.103 232.745 143.538C232.642 143.768 232.775 144.452 232.641 144.675C231.064 147.293 228.627 149.289 225.528 150.398C224.568 150.749 224.094 150.957 223.254 150.65C223.012 150.595 222.965 150.68 222.634 150.798C221.495 150.615 220.296 151.043 219.254 150.617C212.698 147.934 212.977 147.353 210.171 141.469C209.573 140.215 210.037 139.791 210.138 138.354C209.574 137.885 209.439 137.884 209.624 137.273L210.243 137.001L210.318 136.716C209.284 135.492 210.872 134.955 211.285 133.388C211.045 132.957 211.023 132.935 210.903 132.472C211.196 131.824 212.024 129.95 212.434 129.244C212.451 129.215 212.753 129.275 213.154 128.953L213.208 127.809C213.716 127.249 214.256 126.494 215.102 126.388C215.961 126.28 215.848 125.983 215.941 125.374C216.602 124.601 220.755 123.476 222.027 123.239Z" fill="#1D1D1D"/>
</svg>
