<svg width="500" height="500" viewBox="0 0 500 500" fill="none" xmlns="http://www.w3.org/2000/svg">
<path d="M249.425 96.935C251.63 90.075 256.365 89.42 258.555 84.145L258.205 83.745L255.955 84.87C256.355 80.145 261.375 79.685 263.975 77L272.295 78.145C274.46 81.085 271.675 81.97 272.555 85.24C273.95 85.04 273.41 85.065 274.795 83.945C275.955 84.99 275.93 86.53 275.41 88.01C274.06 91.855 281.24 101.54 281.275 104.46C281.395 113.3 284.73 117.785 287.705 125.76C288.715 128.47 286.735 131.805 287.42 133.4C288.75 133.295 289.345 133.175 290.655 132.905L291.09 133.46C290.795 134.545 290.585 135.35 290.555 136.48C292.92 137.795 301.075 132.28 303.155 130.7C303.85 130.175 306.105 131.19 306.76 131.48C308.335 130.945 308.64 130.065 309.55 128.635C320.48 124.34 331.27 117.13 342.06 112.335C348.46 109.49 349.91 115.335 348.35 120.755L348.69 121.68L350.31 122.025C350.88 124.19 348.975 126.835 347.825 128.89C352.125 135.825 349.195 133.26 347.48 140.66C344.995 151.4 344.41 162.58 342.905 173.375C348.565 176.505 346.975 175.065 352.5 175.12C356.875 173.455 359.395 172.65 363.835 174.03C365.985 172.565 376.08 170.96 378.36 171.285L378.225 172.75L378.815 172.995C379.605 171.985 379.85 171.5 380.49 170.405L381.52 170.155C383.11 171.01 383.275 171.595 384.19 173.145C384.645 172.225 385.395 170.995 386.665 170.735C391.225 169.805 399.2 168.74 403.57 170.515C405.185 171.17 405.805 174.08 406.16 175.505C406.45 176.665 406.73 177.83 406.995 178.995C404.94 181.69 404.455 182.875 401.24 183.545C398.385 193.395 399.35 187.375 394.67 192.35L393.915 195.785C393.435 197.965 384.41 206.82 382.145 208.325C380.735 212.555 377.865 217.56 375.405 221.35L374.195 220.695L373.335 221.605C372.155 224.405 371.97 224.47 369.86 226.54L367.76 228.615C370.25 231.215 370.92 231.335 374.285 232.435C374.6 233.69 374.62 233.915 374.7 235.21C382.205 236.37 394.155 239.685 399.55 245.075C403.455 244.18 414.095 249.005 418.205 250.615C419.46 251.11 421.195 254.47 422.48 255.175C423.705 255.805 424.335 254.17 425.595 255.46C425.69 257.54 425.685 257.655 425.325 259.7C423.095 264.3 425.655 264.56 420.705 266.83C418.89 268.32 398.965 275.21 396.575 275.01L396.25 276L395.69 276.21C385.435 280.075 375.245 285.96 364.925 289.925C363.5 290.475 364.205 294.355 364.51 295.425C366.13 296.5 367.175 296.775 367.89 298.255L366.745 298.75C368.365 303.355 371.29 302 371.295 308.795L372.095 309.46C373.725 308.93 373.46 308.825 375.075 308.94L375.47 309.73C375.135 310.69 374.92 311.51 374.42 312.39C377.54 313.42 377.785 313.935 379.03 316.965L380.8 319.735C383.63 324.075 385.145 330.565 389.065 334.21C391.08 336.585 390.585 336.84 391.835 338.89C398.285 348.74 397.295 357.94 383.57 353.28C377.045 352.805 368.09 350.525 361.245 349.77C360.265 349.665 357.295 348.2 355.34 347.735L354.865 348.435L354.08 348.54C354.105 347.745 354.075 348.02 354.16 347.3L354.22 346.835C349.95 345.145 344.92 348.3 342.555 344.01L341.36 344.985C339.34 345.375 334.84 344.7 332.52 344.45L330.735 343.705C321.555 342.6 322.63 349.195 323.69 355.57C324.075 357.915 323.515 360.68 323.12 363.055C323.07 365.355 323.74 372.715 323.395 373.7C323.76 375.655 323.8 375.35 323.51 377.155C323.015 380.225 324.245 385.36 323.735 388.63C322.92 393.835 320.94 397.615 320.705 403.025L321.075 403.325L323.06 401.05C324.055 402.485 322.125 403.965 321.12 405.035C320.77 406.485 321.495 407.545 322.135 408.98L321.795 409.81C319.61 408.115 319.96 407.755 317.965 407.955C319.395 409.08 319.07 408.4 319.545 409.84C318.87 410.595 318.185 411.32 317.435 411.995C318.245 412.37 318.41 412.27 318.805 412.83C316.2 413.05 313.5 414.39 312.32 414.115C308.75 413.29 310.56 411.075 309.31 409.125C307.77 409.46 306.525 409.955 305.125 409.405C303.67 407.9 304.485 407.485 304 406.08C302.27 401.095 296.09 401.425 295.14 395.515L294.445 394.92L293.05 395.61C290.245 394.945 289.36 394.12 287.685 391.755C285.515 388.88 282.14 385.8 279.5 383.235C279.34 383.145 279.175 383.06 279.015 382.97C273.785 377.725 266.37 372.04 260.695 367.475C258.895 369.74 257.605 371.355 254.56 371.345L253.885 372.105C252.89 376.35 251.75 377.895 248.72 380.97C246.23 383.945 247.625 382.43 244.505 383.54C243.565 383.875 242.335 389.385 241.66 390.965C240.62 393.38 232.925 401.49 232.86 403.05C232.51 411.15 226.08 409.73 224.93 419.9C223.785 420.205 223.83 420.165 222.64 420.055C220.62 421.395 218.485 423.15 216.19 423.475C212.525 422.525 209.81 416.31 209.57 412.685C207.01 410.765 208.915 414.13 206.625 411.505C207.09 405.04 204.655 401.725 202.685 395.605C201.53 392.015 200.515 390.875 202.01 387.145C199.03 385.77 195.8 373.97 196.365 370.85L197.295 370.215L197.59 369.62L195.61 369.935C194.49 368.12 194.755 364.895 194.79 362.675C193.36 361.88 189.945 359.465 188.69 360.04C177.995 364.91 170.135 370.51 158.645 374.25C156.935 376.745 154.115 379.735 151.135 380.58C149.96 381.03 148.275 382.045 147.125 382.195C144.98 382.47 142.12 381.84 140.535 383.815C139.35 385.29 140.92 385.585 139.215 387.115C132.165 384.71 133.54 383.315 132.98 375.87C137.63 370.125 135.26 371.22 137.26 365.085C142.47 353.805 144.39 338.05 148.75 326.175C143.225 323.36 140.92 323.26 134.99 323.82C128.7 325.155 123.195 324.285 117.015 323.325C116.16 324.655 116.21 324.625 115.005 325.63L114.01 325.58C113.6 324.695 113.285 323.98 112.935 323.07C111.97 323.635 111.13 324.375 110.255 324.755L110.775 326.075C107.945 326.51 106.785 325.815 103.47 326.265C98.5447 327.46 94.1897 325.75 90.3897 325.75L90.2197 326.205L91.5597 327.01L91.4347 327.5C88.7097 328.055 87.0247 327.19 84.6747 325.885C83.6547 324.425 84.0997 321.615 84.1897 319.67C86.6347 315.785 90.8847 310.165 93.8247 306.66C96.6697 303.23 101.115 299.63 102.855 295.455C105.38 289.39 122.775 272.87 122.685 267.575L121.745 266.96C122.615 265.795 122.685 265.755 123.235 264.43C121.715 262.01 111.93 258.115 108.89 256.555C106.515 256.435 97.1147 246.55 96.7997 246.535C88.4797 246.15 85.7847 240.13 79.4447 236.195C74.3647 233.05 70.9547 228.23 77.9947 225.01C78.4697 223.155 78.0347 223.81 79.5497 222.47L80.0347 222.045C83.3997 219.05 89.4547 219.565 92.9047 216.32C93.8947 215.385 93.7397 215.495 94.9547 215.105C94.5047 216.165 94.1197 217.23 93.7847 218.33C96.0247 216.825 102.415 211.23 104.53 211.84C103.815 212.92 102.8 213.935 102.97 214.865C105.3 213.865 105.27 212.405 105.835 212.12C112.9 208.58 141.86 206.21 129.52 193.275C129.52 193.275 129.68 191.03 129.695 190.79C122.065 189.815 128.845 186.245 123.905 181.68C122.915 180.76 122.5 180.08 122.07 178.845C122.055 176.82 122.18 176.885 123.31 175.1C116.045 172.675 116.245 170.155 116.13 163L115.515 162.41L114.275 162.45C110.085 160.535 101.685 142.115 105.555 137.32C106.605 136.02 107.795 134.26 109.68 134.3C114.265 134.395 115.585 133.95 119.19 136.665C119.36 136.86 120.035 137.6 120.13 137.795C121.025 137.27 122.17 136.25 123.8 136.92C128.13 138.705 132.865 140.665 137.275 142.38C137.545 142.96 137.815 143.545 138.09 144.13C141.265 144.08 141.67 142.925 144.945 145.365C147.555 147.305 149.04 147.47 152.28 147.55C159.915 153.685 158.25 149.505 161.99 151.48C163.585 157.16 164.79 153.505 167.755 153.615L168.925 155.195C178.97 156.185 174.92 131.73 175.215 126.11C175.905 123.38 174.1 121.87 175 119.25C175.905 118.335 176.665 117.775 177.005 116.555C176.515 115.85 175.19 113.885 175.19 113.175C175.205 106.965 174.895 91.15 178.45 86.12C179.965 85.41 179.47 85.63 181.565 86.24L182.21 83.995C188.04 81.24 198.22 95.295 199.76 100.155C201.88 104.585 207.76 106.185 208.36 111.885L209.7 112.185C214.735 120.28 217.095 122.19 221.275 131.17C222.895 132.905 223.285 132.26 225.755 132.765C225.005 134.82 222.92 134.23 223.08 135.885C225.855 136.335 228.2 132.87 230.375 131.14C231.73 129.31 234.91 125.18 236.005 123.32C237.77 120.64 238.905 115.575 240.505 113.04C243.145 108.855 246.01 99.705 249.425 96.935Z" fill="#FD235B"/>
<path d="M175.218 126.111C176.023 127.541 176.533 128.596 177.538 129.896C177.673 133.566 177.708 136.976 177.583 140.586C177.458 144.321 175.998 149.276 177.603 152.526C178.418 154.176 178.808 154.041 178.348 155.746L177.593 155.906L177.253 155.496C176.713 154.861 176.933 155.111 176.233 154.386C174.288 154.641 172.758 155.586 171.303 156.896C167.948 156.751 166.608 155.921 163.428 155.606C161.503 155.416 159.708 156.146 158.148 155.171L157.558 153.701L156.028 153.536L155.918 154.971L155.278 155.451C153.323 154.051 154.123 150.321 150.478 149.131C145.343 147.456 138.163 147.461 132.908 147.951L132.518 147.386C133.448 145.341 133.753 145.631 133.208 144.096C127.913 140.756 125.153 144.206 120.133 137.796C121.028 137.271 122.173 136.251 123.803 136.921C128.133 138.706 132.868 140.666 137.278 142.381C137.548 142.961 137.818 143.546 138.093 144.131C141.268 144.081 141.673 142.926 144.948 145.366C147.558 147.306 149.043 147.471 152.283 147.551C159.918 153.686 158.253 149.506 161.993 151.481C163.588 157.161 164.793 153.506 167.758 153.616L168.928 155.196C178.973 156.186 174.923 131.731 175.218 126.111Z" fill="#EE4177"/>
<path d="M379.03 316.967L380.8 319.737C383.63 324.077 385.145 330.567 389.065 334.212C391.08 336.587 390.585 336.842 391.835 338.892C398.285 348.742 397.295 357.942 383.57 353.282C387 348.767 386.515 352.487 391.12 351.152C392.195 349.287 392.51 346.937 390.53 345.587C388.27 346.122 388.05 346.272 386.545 344.702L386.82 343.877L387.755 343.812C388.41 343.177 388.875 342.677 389.485 342.012C388.665 338.997 386.79 341.052 385.54 335.517C384.23 335.177 383.82 335.102 382.61 334.532C380.8 332.062 380.715 330.117 380.185 327.057C380.925 321.512 377.63 321.137 379.03 316.967Z" fill="#EE4177"/>
<path d="M230.375 131.141C231.73 129.311 234.91 125.181 236.005 123.321C237.77 120.641 238.905 115.576 240.505 113.041C243.145 108.856 246.01 99.7055 249.425 96.9355C248.43 100.161 247.02 102.831 246.55 105.996C246.995 106.766 247.305 107.361 247.62 108.201C245.28 112.186 241.325 114.651 239.525 118.181C236.92 123.281 243.44 126.941 234.22 128.611C233.36 129.721 233.355 131.441 233.165 132.926C231.24 132.501 232.475 131.951 230.375 131.141Z" fill="#EE4177"/>
<path d="M318.276 380.936C322.061 378.191 322.446 378.336 323.396 373.701C323.761 375.656 323.801 375.351 323.511 377.156C323.016 380.226 324.246 385.361 323.736 388.631C322.921 393.836 320.941 397.616 320.706 403.026L321.076 403.326L323.061 401.051C324.056 402.486 322.126 403.966 321.121 405.036C320.771 406.486 321.496 407.546 322.136 408.981L321.796 409.811C319.611 408.116 319.961 407.756 317.966 407.956C316.471 399.631 320.011 398.271 321.501 390.531C322.251 386.631 320.636 383.966 318.276 380.936Z" fill="#EE4177"/>
<path d="M115.516 162.411L114.276 162.451C110.086 160.536 101.686 142.116 105.556 137.321C106.606 136.021 107.796 134.261 109.681 134.301C114.266 134.396 115.586 133.951 119.191 136.666C114.221 137.111 108.471 132.836 106.241 140.786C106.786 142.506 109.391 150.251 110.386 151.586C112.666 154.636 113.996 160.096 115.516 162.411Z" fill="#EE4177"/>
<path d="M137.26 365.086C139.71 370.751 135.295 374.231 138.01 376.481L140.675 376.901C140.055 378.846 137.785 377.786 137.105 381.896L137.651 382.656C140.191 382.546 142.22 380.591 144.12 379.856C143.3 380.171 151.19 380.586 151.135 380.581C149.96 381.031 148.275 382.046 147.125 382.196C144.98 382.471 142.12 381.841 140.535 383.816C139.35 385.291 140.921 385.586 139.216 387.116C132.166 384.711 133.54 383.316 132.98 375.871C137.63 370.126 135.26 371.221 137.26 365.086Z" fill="#EE4177"/>
<path d="M384.191 173.146C384.646 172.226 385.396 170.996 386.666 170.736C391.226 169.806 399.201 168.741 403.571 170.516C405.186 171.171 405.806 174.081 406.161 175.506C406.451 176.666 406.731 177.831 406.996 178.996C404.941 181.691 404.456 182.876 401.241 183.546C401.906 180.711 405.566 178.251 404.501 174.946C403.306 173.556 399.931 172.156 398.171 172.346C397.716 174.101 398.046 173.656 397.051 174.996L396.251 174.886C395.506 173.746 395.476 173.411 394.321 172.781C393.786 173.556 393.411 174.031 392.806 174.761L392.121 174.496L391.626 172.466L390.976 172.361C388.441 173.461 386.786 174.511 384.191 173.146Z" fill="#EE4177"/>
<path d="M399.551 245.077C403.456 244.182 414.096 249.007 418.206 250.617C419.461 251.112 421.196 254.472 422.481 255.177C423.706 255.807 424.336 254.172 425.596 255.462C425.691 257.542 425.686 257.657 425.326 259.702C424.281 258.927 424.391 258.912 423.681 257.807C422.976 259.212 422.286 259.147 420.926 259.547C417.071 256.547 419.576 255.837 417.211 253.767C412.256 253.802 414.431 251.747 413.146 250.957C408.486 248.097 403.646 250.177 399.551 245.077Z" fill="#EE4177"/>
<path d="M181.566 86.2401L182.211 83.9951C188.041 81.2401 198.221 95.2952 199.761 100.155C196.121 98.5452 191.021 91.0251 188.681 87.6751C187.611 86.1401 183.316 89.1551 181.566 86.2401Z" fill="#EE4177"/>
<path d="M321.857 344.197C323.342 342.462 324.162 341.717 325.882 340.182L330.737 343.707C321.557 342.602 322.632 349.197 323.692 355.572C324.077 357.917 323.517 360.682 323.122 363.057C321.887 361.807 320.462 360.777 320.027 359.282C320.342 358.977 321.357 358.027 321.377 357.612C321.562 353.092 321.457 348.732 321.857 344.197Z" fill="#EE4177"/>
<path d="M279.5 383.237C281.67 383.017 282.175 382.787 284.06 383.662C285.865 385.592 286.15 387.187 287.64 388.967C289.22 388.757 291.115 388.277 292.47 388.947C293.025 391.162 292.11 392.227 293.245 394.102L294.445 394.922L293.05 395.612C290.245 394.947 289.36 394.122 287.685 391.757C285.515 388.882 282.14 385.802 279.5 383.237Z" fill="#EE4177"/>
<path d="M208.362 111.887L209.702 112.187C214.737 120.282 217.097 122.192 221.277 131.172C217.087 129.212 220.472 131.687 216.652 130.902L216.512 130.212C217.802 129.402 218.027 129.502 218.702 128.287C216.702 125.037 213.437 118.972 209.512 118.427C207.867 118.702 207.472 119.302 206.252 120.452L205.807 120.872C205.072 119.912 208.307 116.097 208.707 114.822C208.707 114.822 208.387 112.117 208.362 111.887Z" fill="#EE4177"/>
<path d="M123.311 175.102C129.466 181.532 126.131 183.602 129.696 190.792C122.066 189.817 128.846 186.247 123.906 181.682C122.916 180.762 122.501 180.082 122.071 178.847C122.056 176.822 122.181 176.887 123.311 175.102Z" fill="#EE4177"/>
<path d="M77.9961 225.01C78.4711 223.155 78.0361 223.811 79.5511 222.471L80.0361 222.045C83.4011 219.05 89.4561 219.565 92.9061 216.32C93.8961 215.385 93.7411 215.495 94.9561 215.105C94.5061 216.165 94.1211 217.231 93.7861 218.331C91.6111 219.186 91.4011 218.81 90.6311 220.35C91.0411 222.34 91.3061 221.62 90.4911 222.855C89.2811 222.48 88.5561 221.615 87.6061 220.735C86.3811 221.515 86.4411 221.845 85.6661 223.23C83.3311 223.905 82.0511 222.52 80.2411 223.165C77.8711 224.005 81.0111 224.92 77.9961 225.01Z" fill="#EE4177"/>
<path d="M202.011 387.147C199.031 385.772 195.801 373.972 196.366 370.852L197.296 370.217C197.991 373.987 199.706 376.837 201.041 380.362C201.786 382.337 201.736 384.957 202.011 387.147Z" fill="#EE4177"/>
<path d="M117.016 323.326C120.411 321.016 123.236 324.036 125.766 322.816C126.331 322.201 126.816 321.421 127.441 321.321C128.361 321.176 134.416 323.476 134.991 323.821C128.701 325.156 123.196 324.286 117.016 323.326Z" fill="#EE4177"/>
<path d="M420.927 259.547C422.287 259.147 422.977 259.212 423.682 257.807C424.392 258.912 424.282 258.927 425.327 259.702C423.097 264.302 425.657 264.562 420.707 266.832C420.602 264.512 420.752 261.867 420.927 259.547Z" fill="#EE4177"/>
<path d="M352.5 175.121C356.875 173.456 359.395 172.651 363.835 174.031C360.145 177.001 356.835 177.486 352.5 175.121Z" fill="#EE4177"/>
<path d="M367.761 228.615C366.936 227.37 366.881 226.22 366.621 224.74C367.906 221.33 369.926 223.465 373.336 221.605C372.156 224.405 371.971 224.47 369.861 226.54L367.761 228.615Z" fill="#EE4177"/>
<path d="M248.721 380.971C247.826 375.801 249.456 374.29 253.886 372.105C252.891 376.35 251.751 377.896 248.721 380.971Z" fill="#EE4177"/>
<path d="M332.52 344.451C336.045 343.721 338.975 340.986 341.68 342.361L342.555 344.011L341.359 344.986C339.339 345.376 334.84 344.701 332.52 344.451Z" fill="#EE4177"/>
<path d="M103.473 326.266C102.858 326.206 103.243 326.276 102.363 325.881C102.978 324.416 104.188 322.981 105.778 322.676C107.183 325.116 107.378 324.451 110.258 324.756L110.778 326.076C107.948 326.511 106.788 325.816 103.473 326.266Z" fill="#EE4177"/>
<path d="M259.13 259.961C261.825 261.136 267.2 262.351 270.435 263.396C275.59 269.396 276.185 264.476 278.26 267.361L277.16 268.811L277.695 269.401C278.63 268.776 279.025 268.586 280.04 268.096C281.52 268.371 292.925 275.976 293.98 277.246C293.455 284.061 303.71 283.296 303.52 290.871C303.5 291.576 308.69 294.786 308.89 296.571C309.305 300.231 307.545 307.006 306.245 310.096C304.3 309.916 304.365 309.896 302.475 310.351C301.475 311.531 301.805 310.821 301.845 312.696L301.21 313.111C289.315 314.316 293.555 310.586 289.29 307.646C288.29 308.511 288.335 308.586 287.1 308.991C283.5 307.031 280.19 302.226 276.995 299.721C276.295 299.176 271.175 298.276 270.83 297.516C270.255 296.241 271.095 295.711 269.485 294.691C268.005 295.266 268.365 295.411 267.425 297.301C264.855 297.506 258.11 293.341 253.765 293.151C252.265 294.091 251.51 294.761 249.745 294.946L249.37 294.311C250.61 293.481 250.705 293.421 251.735 292.346L251.34 291.991L250.355 292.066C249.19 293.141 248.945 293.431 247.565 294.271C246.68 294.346 245.7 294.421 244.96 293.811C243.255 292.396 240.32 294.216 238.33 294.426C234.07 294.871 234.61 295.091 231.35 293.076C229.455 293.576 222.805 298.661 221 300.026C219.705 299.631 221.135 299.341 219.94 297.246C216.65 300.086 203.71 311.861 199.275 314.501C198.465 314.986 197.4 311.601 192.645 312.436C191.565 311.916 190.54 311.551 189.425 311.131C189.335 309.596 189.32 309.176 189.46 307.586L191.4 307.536L191.545 307.031C190.115 306.176 190.05 306.331 189.06 305.041C189.735 303.906 190.73 302.686 189.575 301.571L188.085 302.636L187.785 301.746C187.935 300.436 188.2 300.086 189.09 299.131C192.66 295.296 189.575 296.506 190.675 293.596C191.91 293.431 191.495 293.561 192.645 293.011L191.985 291.541L192.36 290.856C193.575 291.006 193.185 291.026 194.32 290.821L194.47 289.756L193.255 288.396L193.965 286.941C195.51 285.956 194.665 286.156 196.615 286.511C198.02 286.041 202.97 280.056 205.015 278.376C206.345 278.961 205.83 278.871 207.255 278.941C209.445 275.811 206.49 278.836 207.42 275.661L208.93 276.016L209.535 275.581L208.765 274.421C212.935 269.486 220.69 269.276 224.885 266.306C225.03 265.181 225.02 265.131 225.435 264.086C226.71 263.666 228.275 263.586 229.51 264.041C231.99 264.956 234.335 264.006 237 263.256L236.94 263.426C238.075 263.166 245.035 261.446 245.605 261.446C249.33 261.421 253.455 262.551 257.49 261.816C258.175 260.486 257.87 260.966 259.13 259.961Z" fill="#000101"/>
<path d="M275.911 212.997C276.906 214.187 277.196 214.222 277.286 215.697L275.796 214.577L275.191 215.007C277.176 218.867 280.911 216.562 280.126 219.957L281.081 220.482C282.291 219.907 281.871 220.187 282.781 219.152C284.826 219.207 289.301 219.537 291.036 218.972C293.256 215.327 290.656 216.927 292.596 213.812L294.486 213.802C296.401 211.172 293.466 208.297 296.066 207.167L299.176 208.282L299.371 207.902L298.221 206.427L298.741 205.997C299.641 206.377 300.391 206.717 301.271 207.147C302.166 206.642 302.631 206.362 303.461 205.762C305.096 206.162 304.981 206.172 306.281 207.272L305.706 207.442L306.201 207.062L306.026 206.892L305.781 207.427L303.306 207.397C303.841 208.742 306.511 209.367 306.901 211.472C306.981 211.907 308.096 213.422 308.391 213.837L308.886 213.712C309.321 212.162 309.251 212.107 309.216 210.467C310.251 213.797 308.981 224.897 308.046 228.817C307.841 229.667 307.051 230.007 306.311 230.287L306.146 229.492C307.871 226.962 308.166 227.392 307.996 224.872L307.396 224.437C305.811 225.777 303.501 233.317 300.631 234.562L300.256 234.122L300.761 232.452C300.146 232.927 296.931 235.582 296.516 235.812C293.766 237.342 290.216 236.927 287.331 238.467L286.146 237.822C283.156 238.757 279.041 242.302 277.136 236.427L276.101 235.452C271.121 235.587 271.446 236.807 267.956 231.687C263.306 230.652 262.301 230.357 261.596 225.542C262.126 222.317 261.911 225.957 264.746 222.927C265.141 221.317 265.191 221.422 264.761 219.837C263.466 219.477 263.471 219.642 262.116 219.817C261.286 218.422 261.921 217.487 261.831 215.212L260.556 215.082L260.316 214.442C261.626 213.637 261.576 213.702 262.541 212.517L261.336 209.287L261.836 209.047C263.501 210.182 263.606 210.332 265.596 210.422C264.166 208.397 263.986 208.847 264.046 206.872C265.921 205.877 267.161 206.867 268.856 207.892L269.536 207.507L268.821 206.207C271.886 206.587 275.406 209.757 275.911 212.997Z" fill="#000101"/>
<path d="M265.595 210.42C264.165 208.395 263.985 208.845 264.045 206.87C265.92 205.875 267.16 206.865 268.855 207.89L269.535 207.505L268.82 206.205C271.885 206.585 275.405 209.755 275.91 212.995C274.525 211.915 273.375 210.24 271.785 210.115L271.435 210.51C268.245 214.095 268.99 210.225 265.595 210.42Z" fill="#32090A"/>
<path d="M277.137 236.426C280.747 237.321 279.342 236.681 282.927 236.186L283.387 236.436C284.302 236.931 285.217 237.371 286.147 237.821C283.157 238.756 279.042 242.301 277.137 236.426Z" fill="#181313"/>
<path d="M261.598 225.541C265.328 227.316 265.903 228.066 267.958 231.686C263.308 230.651 262.303 230.356 261.598 225.541Z" fill="#DA1D4E"/>
<path d="M207.712 212.195C218.597 215.795 217.802 223.995 215.692 233.425C214.537 233.15 215.152 233.255 213.852 233.145C212.642 235.34 214.382 234.89 213.367 237.125C210.417 236.56 208.317 239.75 206.397 242.055C206.387 244.73 206.527 244.3 204.102 245.345C204.587 244.2 204.612 244.75 204.297 243.67L202.822 243.24C201.042 243.93 201.812 243.395 200.592 245.1L200.727 245.81C201.772 245.225 201.687 245.235 202.882 245.225C201.942 245.89 200.242 246.745 199.057 246.195C196.057 244.805 189.667 248.3 187.207 245.785L188.852 244.745L188.702 244.27C187.167 243.965 186.527 244.415 185.057 245.005L184.487 245.24L183.787 244.795C183.497 243.28 183.522 242.96 182.792 241.575L182.077 242.575L181.112 242.57C177.787 240.815 177.102 240.08 175.792 236.59C174.627 236.92 175.017 236.935 173.957 238.175L173.122 238.025C170.462 234.92 167.967 222.675 170.252 219.725L170.902 221.325L171.467 221.455L171.942 220.53C171.512 219.48 171.387 219.12 171.107 218.02L171.717 217.16C176.857 216.28 173.047 215.985 175.772 214.48C179.157 215.85 180.497 214.26 182.832 215.3C183.227 216.99 182.747 217.03 181.762 219.075L182.392 219.685C183.457 218.675 182.977 218.925 184.312 218.47C185.742 219.805 185.352 219.03 185.767 220.735L184.652 221.9L184.867 222.615C187.137 224.495 195.287 229.485 197.062 227.23C201.687 221.36 200.467 216.745 207.712 212.195Z" fill="#000101"/>
<path d="M316.586 232.695C317.856 233.375 320.666 235.495 322.291 236.505C327.356 239.645 332.861 241.825 337.236 245.85C344.691 252.705 342.866 255.195 343.306 263.725C341.746 265.71 340.261 267.1 338.481 268.86C336.436 270.475 330.806 271.695 328.196 272.275C317.991 267.17 315.946 261.95 315.356 250.925C314.946 243.31 313.596 240.025 316.586 232.695Z" fill="#4BBCF5"/>
<path d="M171.177 244.771C179.467 247.506 178.217 269.336 174.217 275.246C170.787 280.311 166.912 280.311 161.442 281.641L156.567 280.251C153.312 275.301 152.252 275.661 149.352 271.841C149.867 270.766 150.007 270.606 149.932 269.381C149.367 259.856 159.142 255.936 165.352 250.721C167.687 248.761 169.087 247.156 171.177 244.771Z" fill="#4BBCF5"/>
<path d="M255.43 203.795C256.855 197.48 258.085 194.74 261.07 188.93C261.56 187.98 261.2 184.6 261.445 183.51C262.085 180.705 264.155 176.06 265.67 173.595C276.88 155.405 289.21 149.01 308.505 143.575C308.425 144.505 308.51 143.975 308.225 145.195C312.605 145.645 322.845 140.805 327.9 144.24L325.255 145.755L325.49 146.24C328.44 146 329.565 143.455 332.275 143.06C334.51 151.755 338.015 144.855 343.835 147.095C354.2 151.08 372.65 163.82 377.7 173.825C379.38 175.975 381.83 178.975 383.2 181.275C383.38 183.73 391.535 201.055 393.265 204.075C397.15 203.115 402.625 202.485 406.515 203.755C408.495 205.57 409.56 213.46 409.865 216.32C410.92 217.4 405.915 224.935 405.55 225.04C395.06 228.035 392.46 220.515 391.015 236.125C390.71 239.46 384.675 251.475 381.495 254.8L381.665 255.11L382.935 255.175C376.52 266.02 371.885 276.345 361.33 283.985C352.545 290.72 343.705 291.81 334.06 294.575C320.645 298.43 322.725 298.425 308.39 296.59L308.035 295.615C306.89 295.08 307.485 295.135 306.25 295.465L306.92 297.005L306.365 297.3C302.115 295.865 291.34 289.88 286.69 287.715C285.725 287.265 281.035 281.32 279.045 280.695L278.835 282.095L277.815 281.77C277.275 278.305 274.76 278.135 271.175 275.145L271.43 273.405L270.325 273.91C270.75 270.44 266.44 265.675 264.265 262.44C259.875 255.9 255.54 241.205 256.425 233.31C255.645 233.22 255.16 233.185 254.385 233.145C254.195 231.71 254.62 230.06 254.88 228.6C252.905 227.675 247.25 229.33 244.36 227.095C243.595 226.505 241.015 226.345 240.175 227.115C239.245 227.97 238.145 229.445 237.64 230.69C232.995 242.765 227.95 254.74 222.06 266.27C221.575 267.22 221.355 269.66 221.255 270.715C217.195 273.72 207.3 285.455 204.855 286.395L204.67 284.885C202.73 286.255 203.685 288.825 201.795 289.78C198.33 291.515 194.7 292.925 191.175 294.505C176.335 301.15 159.59 301.86 144.165 296.895C138.04 294.925 133.09 291.7 127.21 289.545C125.78 289.02 126.17 289.705 124.745 288.58L125.15 287.12L124.545 286.565C123.065 287.265 123.665 287.225 122.18 287.085C120.21 285.155 118.27 283.435 116.705 281.17L117.45 279.745C116.8 279.625 112.905 278.855 112.64 278.375C109.805 273.25 104.195 267.8 101.83 262.645C102.44 261.725 102.285 262.22 102.34 261.185C101.09 261.25 101.655 261.38 100.635 260.885C99.625 258.565 98.83 256.175 98.065 253.765C95.6 246 92.55 238.445 89.92 230.735C90.295 229.29 90.645 228.575 90.23 227.15C87.27 223.87 85.905 225.335 82.285 224.77C78.09 224.12 76.285 220.675 74 217.45C74.11 213.77 74.095 207.685 74.805 204.26C79.955 204.16 78.745 198.655 86.68 201.595C90.545 203.025 96.545 184.895 98.85 180.775C105.075 169.655 115.695 164.49 125.55 156.755C126.645 157.005 126.09 156.915 127.215 157.025C127.765 156.125 128.2 155.485 128.815 154.625L129.295 154.985L128.78 157.435L129.31 157.38L130.355 155.475C133.955 153.43 134.27 152.93 138.315 153.58L138.875 153.675L142.275 150.835C146.52 150.81 152.295 149.75 157.13 149.55L158.24 150.63C161.61 150.82 157.725 149.78 160.845 148.785L161.31 150.04C166.165 149.915 175.085 151.595 178.905 150.29C179.215 151.045 179.24 151.275 179.315 152.065C183.395 153.695 187.46 155.345 191.625 156.73C192.11 156.545 192.595 156.365 193.08 156.18C193.865 156.435 193.785 156.3 194.32 156.945C197.365 160.58 206.455 163.295 209.59 166.565C212.14 169.23 214.26 175.595 218.05 178.5C218.295 177.965 218.535 177.435 218.78 176.9C220.535 177.63 220.625 178.32 222.01 180.04C221.24 181.05 221.42 180.625 221.17 181.875C224.325 186.32 227.525 191.63 230.24 196.285C231.275 198.06 231.845 203.955 233.405 204.16C239.68 204.995 249.615 204.9 255.43 203.795Z" fill="#121211"/>
<path d="M383.199 181.274L381.104 182.669L380.459 182.409C379.739 179.269 376.774 175.764 376.609 174.754L377.699 173.824C379.379 175.974 381.829 178.974 383.199 181.274Z" fill="#474442"/>
<path d="M157.821 169.414C157.861 170.669 157.771 170.184 158.411 171.349C159.991 172.059 160.101 171.524 162.376 170.704C162.286 171.819 162.271 171.274 162.411 172.344C167.016 171.804 163.611 172.384 165.886 173.744L166.631 173.169L165.841 171.709L166.666 171.529C167.116 172.129 167.526 172.654 168.001 173.234C169.151 171.899 168.671 171.954 169.956 171.564L169.596 172.969C170.836 173.879 171.871 172.509 172.336 172.739C174.896 173.999 174.306 171.284 176.896 171.714L176.036 173.179C176.246 173.254 176.451 173.334 176.661 173.414C179.176 173.119 182.876 174.804 185.266 175.994C185.106 177.349 185.011 176.854 185.506 178.074L186.181 178.234C186.801 177.569 186.841 177.564 187.556 176.999L188.331 177.324L187.846 178.564L188.076 178.969L190.351 178.819C193.451 182.029 196.976 183.979 199.581 186.769C199.246 187.509 199.146 187.749 198.866 188.544C200.516 189.764 201.346 190.464 203.186 191.324C203.956 190.599 203.541 190.804 204.346 190.579L204.486 191.364C203.721 192.034 203.036 192.594 202.236 193.229L202.606 193.814C203.966 193.599 204.326 193.524 205.691 193.559C206.566 194.809 207.066 196.109 206.471 197.529L205.256 197.454C206.036 198.684 206.901 200.474 207.951 201.259L209.186 200.309L209.691 200.674L209.576 201.904C208.861 210.194 212.906 202.389 212.451 209.054C211.976 215.954 213.316 212.464 215.321 214.854L215.041 215.519L213.471 216.079C215.321 220.219 213.146 217.589 214.371 220.274C215.291 220.154 214.936 220.034 215.501 220.369C214.661 221.624 214.271 221.939 214.091 223.424C214.671 223.929 215.236 224.219 215.906 224.584C216.616 225.929 216.721 225.854 216.516 227.329C213.441 230.279 213.681 231.229 213.766 235.334C212.291 235.504 212.921 235.239 211.766 236.089L212.836 237.004L212.641 237.989L211.311 238.654C210.291 242.304 210.011 243.884 208.086 247.114L207.696 247.754L208.751 248.324C208.381 249.329 207.446 250.534 206.636 251.229C203.551 253.874 203.666 257.944 201.621 261.429C199.246 261.879 198.406 261.704 197.206 263.879L198.606 265.194L198.431 266.129C196.251 265.759 196.331 265.329 194.766 266.149C194.236 267.864 194.196 268.314 193.051 269.749C189.706 270.954 188.511 271.049 187.321 274.649C185.931 275.589 179.886 277.944 178.431 277.509C174.596 279.179 167.841 279.074 163.776 278.014L163.136 277.839L162.356 278.959C160.171 279.619 157.591 278.629 156.071 277.064C154.196 277.019 154.091 276.969 152.281 276.319L151.836 276.154C151.301 277.079 151.676 276.759 150.746 277.144C144.296 273.734 135.431 269.879 131.901 263.349C130.391 264.194 131.091 264.194 129.751 263.894C129.091 262.544 129.186 262.289 128.071 261.459L127.111 262.469L126.441 262.269C125.741 260.539 125.866 261.489 126.686 259.269C125.481 258.754 124.136 258.304 123.156 257.464L124.056 256.209L123.641 255.319L122.111 255.489C120.056 253.129 123.436 254.704 121.941 253.104C120.966 252.064 119.571 251.234 118.811 249.729C119.706 248.854 119.466 249.234 119.986 248.119L118.201 246.924C118.096 245.734 118.121 245.739 118.421 244.624C114.031 243.619 115.086 239.729 114.471 235.309L112.826 234.134L112.701 233.244C113.341 233.014 113.921 232.794 114.556 232.544L111.936 228.794C112.321 228.094 112.711 227.399 113.106 226.704C111.991 225.669 111.196 225.174 110.836 223.714C112.686 222.999 112.086 223.594 113.006 222.229C112.816 222.094 111.951 221.434 111.841 221.494C110.646 222.129 112.731 215.919 112.336 215.354C111.501 214.144 111.741 216.124 110.676 213.734C111.281 213.314 111.856 212.989 112.511 212.664L112.346 211.874L110.921 211.289L110.806 210.889C111.321 210.709 112.726 210.219 112.731 209.934C112.786 206.789 112.636 203.274 114.151 200.404C115.031 198.744 114.766 199.284 116.756 198.689C117.736 189.834 123.526 185.739 130.276 180.599L130.076 179.114C133.901 177.309 135.421 177.554 138.811 175.769C140.351 174.964 139.231 174.014 141.106 173.304L141.846 174.414L142.361 174.009C142.381 172.829 142.226 172.964 142.651 171.964C143.346 172.749 142.941 172.339 143.891 173.159C146.956 172.804 155.436 171.104 157.821 169.414Z" fill="#FEFEFE"/>
<path d="M165.333 213.02C167.748 214.34 169.858 212.57 173.168 213.325L173.428 214.044L172.278 215.96C173.498 216.075 173.133 214.77 175.103 213.5L176.468 214.74L177.883 213.78L178.518 214.215L177.678 215.445C178.728 216.385 178.703 216.235 180.048 216.755C181.073 218.37 183.558 222.965 183.323 224.845L181.808 224.465L181.388 225.18C181.763 226.085 182.093 226.91 182.428 227.835L180.798 228.71C181.883 230.395 182.843 231.135 182.043 233C180.783 232.89 180.828 232.875 179.598 233.145L179.108 235.07C176.938 238.335 164.383 236.465 162.638 234.14C163.033 232.915 162.883 233.545 163.083 232.26C162.778 232.075 162.478 231.89 162.178 231.695C160.133 230.35 159.728 229.64 159.258 227.355L160.388 226.265C160.223 224.59 159.798 222.67 159.468 220.99C161.318 217.59 166.778 217.455 165.333 213.02Z" fill="#121211"/>
<path d="M323.641 164.505L324.351 164.5C324.366 165.87 324.086 165.375 324.861 166.18C325.986 165.425 326.066 165.23 327.366 164.985L328.606 166.5C329.941 166.275 331.276 166.065 332.616 165.865C336.001 167.375 337.676 167.62 340.156 170.39L340.511 170.78C341.951 172.375 343.786 170.335 345.886 171.66L345.451 172.595C345.756 173.425 356.641 181.58 358.021 182.685C358.401 183.835 358.391 183.94 358.451 185.13C360.791 186.67 358.566 184.755 360.871 185.085C362.411 191.58 365.151 191.885 368.076 197.6C368.681 198.79 366.961 200.085 367.641 202.38C369.166 202.855 368.731 202.59 369.986 203.47C368.206 207.935 370.246 205.025 371.191 208.495L370.076 208.88C370.251 211.515 370.756 208.89 371.701 211.7C370.361 213.64 369.991 213.55 370.311 215.305C371.646 216.15 371.276 215.74 372.191 216.95C371.511 217.65 371.466 217.71 370.896 218.455C371.346 219.715 371.421 219.62 372.306 220.655L371.801 222.69C371.176 225.125 370.906 225.73 371.391 228.235C370.286 228.205 370.586 228.19 369.411 228.395L369.196 229.48L370.426 230.29L370.456 231.085L368.526 231.77C368.476 236.51 368.456 238.695 365.056 241.81C363.956 242.82 363.166 244.48 363.256 246.06L364.521 246.3C363.616 248.565 361.871 246.64 360.971 248.86C354.821 263.98 347.036 265.23 334.796 274.245C332.391 272.33 330.491 275.675 327.546 276.765C322.366 278.685 320.136 278.48 315.091 276.73L314.966 276.405C314.691 276.655 314.416 276.9 314.141 277.15L313.491 276.425L314.201 274.73L313.681 274.465C312.861 275.525 312.466 276.29 311.221 276.725C309.821 275.385 308.861 275.515 307.261 274.31L307.366 272.595C305.106 272.055 307.541 272.99 305.296 273.815L302.966 271.595L301.521 271.64L301.581 270.425L301.076 270.145L298.896 271.56C298.751 270.77 298.891 270.415 299.026 269.63L298.131 269C296.631 269.1 294.886 269.51 294.056 268.125L295.371 266.89C292.816 265.825 289.566 263.08 287.466 261.145C286.206 259.985 287.826 260.835 288.066 259.085C286.726 259.265 287.276 259.455 286.296 258.855L286.416 257.17L284.316 256.555C283.346 253.755 284.836 256.61 284.881 254.2L283.166 254.045C280.906 251.375 278.641 240.83 277.971 237.15L279.121 235.705C278.356 234.71 278.721 235.155 277.166 234.66C276.851 233.27 275.001 226.43 275.121 225.675C275.416 223.86 276.196 220.725 276.411 218.265C275.491 218.63 276.006 218.47 274.846 218.7L274.781 217.89C275.681 216.845 276.311 216.29 276.746 214.975C275.946 213.82 275.746 213.81 275.706 212.455C276.406 211.265 276.931 210.645 276.961 209.27L275.936 209.22C275.811 207.695 277.796 203.86 278.451 201.77L277.616 200.505C277.541 197.945 277.766 200.655 279.606 198.015L278.776 196.745C278.801 190.675 281.556 190.675 283.806 185.54C285.326 182.055 287.336 180.465 289.346 177.35L288.771 176.21L289.151 175.56L289.901 175.335C294.111 174.095 293.856 173.96 297.126 171.04C303.746 165.135 315.311 166.465 323.641 164.505Z" fill="#FEFEFE"/>
<path d="M320.897 209.279C321.692 208.889 321.227 208.989 322.312 209.164L322.617 210.369C323.787 210.754 324.172 210.784 325.397 211.014C325.337 212.034 325.352 211.479 325.372 212.679C326.792 214.139 325.927 213.614 328.242 213.954L328.697 214.584L327.732 215.854C327.902 217.789 330.122 218.764 330.622 220.179C332.552 225.614 324.037 236.139 318.497 235.689C315.327 235.949 311.897 234.419 309.207 232.689C308.097 231.974 309.537 232.444 309.407 230.284C308.572 230.134 307.882 229.989 307.062 229.809C305.932 227.724 307.107 228.149 306.977 224.949L305.547 223.934L305.597 222.879C306.342 222.544 306.832 222.299 307.547 221.904C307.302 213.499 310.597 215.104 316.587 210.954C318.562 209.584 318.312 209.734 320.897 209.279Z" fill="#121211"/>
</svg>
