<svg width="500" height="500" viewBox="0 0 500 500" fill="none" xmlns="http://www.w3.org/2000/svg">
<path d="M249.425 96.935C251.63 90.075 256.365 89.42 258.555 84.145L258.205 83.745L255.955 84.87C256.355 80.145 261.375 79.685 263.975 77L272.295 78.145C274.46 81.085 271.675 81.97 272.555 85.24C273.95 85.04 273.41 85.065 274.795 83.945C275.955 84.99 275.93 86.53 275.41 88.01C274.06 91.855 281.24 101.54 281.275 104.46C281.395 113.3 284.73 117.785 287.705 125.76C288.715 128.47 286.735 131.805 287.42 133.4C288.75 133.295 289.345 133.175 290.655 132.905L291.09 133.46C290.795 134.545 290.585 135.35 290.555 136.48C292.92 137.795 301.075 132.28 303.155 130.7C303.85 130.175 306.105 131.19 306.76 131.48C308.335 130.945 308.64 130.065 309.55 128.635C320.48 124.34 331.27 117.13 342.06 112.335C348.46 109.49 349.91 115.335 348.35 120.755L348.69 121.68L350.31 122.025C350.88 124.19 348.975 126.835 347.825 128.89C352.125 135.825 349.195 133.26 347.48 140.66C344.995 151.4 344.41 162.58 342.905 173.375C348.565 176.505 346.975 175.065 352.5 175.12C356.875 173.455 359.395 172.65 363.835 174.03C365.985 172.565 376.08 170.96 378.36 171.285L378.225 172.75L378.815 172.995C379.605 171.985 379.85 171.5 380.49 170.405L381.52 170.155C383.11 171.01 383.275 171.595 384.19 173.145C384.645 172.225 385.395 170.995 386.665 170.735C391.225 169.805 399.2 168.74 403.57 170.515C405.185 171.17 405.805 174.08 406.16 175.505C406.45 176.665 406.73 177.83 406.995 178.995C404.94 181.69 404.455 182.875 401.24 183.545C398.385 193.395 399.35 187.375 394.67 192.35L393.915 195.785C393.435 197.965 384.41 206.82 382.145 208.325C380.735 212.555 377.865 217.56 375.405 221.35L374.195 220.695L373.335 221.605C372.155 224.405 371.97 224.47 369.86 226.54L367.76 228.615C370.25 231.215 370.92 231.335 374.285 232.435C374.6 233.69 374.62 233.915 374.7 235.21C382.205 236.37 394.155 239.685 399.55 245.075C403.455 244.18 414.095 249.005 418.205 250.615C419.46 251.11 421.195 254.47 422.48 255.175C423.705 255.805 424.335 254.17 425.595 255.46C425.69 257.54 425.685 257.655 425.325 259.7C423.095 264.3 425.655 264.56 420.705 266.83C418.89 268.32 398.965 275.21 396.575 275.01L396.25 276L395.69 276.21C385.435 280.075 375.245 285.96 364.925 289.925C363.5 290.475 364.205 294.355 364.51 295.425C366.13 296.5 367.175 296.775 367.89 298.255L366.745 298.75C368.365 303.355 371.29 302 371.295 308.795L372.095 309.46C373.725 308.93 373.46 308.825 375.075 308.94L375.47 309.73C375.135 310.69 374.92 311.51 374.42 312.39C377.54 313.42 377.785 313.935 379.03 316.965L380.8 319.735C383.63 324.075 385.145 330.565 389.065 334.21C391.08 336.585 390.585 336.84 391.835 338.89C398.285 348.74 397.295 357.94 383.57 353.28C377.045 352.805 368.09 350.525 361.245 349.77C360.265 349.665 357.295 348.2 355.34 347.735L354.865 348.435L354.08 348.54C354.105 347.745 354.075 348.02 354.16 347.3L354.22 346.835C349.95 345.145 344.92 348.3 342.555 344.01L341.36 344.985C339.34 345.375 334.84 344.7 332.52 344.45L330.735 343.705C321.555 342.6 322.63 349.195 323.69 355.57C324.075 357.915 323.515 360.68 323.12 363.055C323.07 365.355 323.74 372.715 323.395 373.7C323.76 375.655 323.8 375.35 323.51 377.155C323.015 380.225 324.245 385.36 323.735 388.63C322.92 393.835 320.94 397.615 320.705 403.025L321.075 403.325L323.06 401.05C324.055 402.485 322.125 403.965 321.12 405.035C320.77 406.485 321.495 407.545 322.135 408.98L321.795 409.81C319.61 408.115 319.96 407.755 317.965 407.955C319.395 409.08 319.07 408.4 319.545 409.84C318.87 410.595 318.185 411.32 317.435 411.995C318.245 412.37 318.41 412.27 318.805 412.83C316.2 413.05 313.5 414.39 312.32 414.115C308.75 413.29 310.56 411.075 309.31 409.125C307.77 409.46 306.525 409.955 305.125 409.405C303.67 407.9 304.485 407.485 304 406.08C302.27 401.095 296.09 401.425 295.14 395.515L294.445 394.92L293.05 395.61C290.245 394.945 289.36 394.12 287.685 391.755C285.515 388.88 282.14 385.8 279.5 383.235C279.34 383.145 279.175 383.06 279.015 382.97C273.785 377.725 266.37 372.04 260.695 367.475C258.895 369.74 257.605 371.355 254.56 371.345L253.885 372.105C252.89 376.35 251.75 377.895 248.72 380.97C246.23 383.945 247.625 382.43 244.505 383.54C243.565 383.875 242.335 389.385 241.66 390.965C240.62 393.38 232.925 401.49 232.86 403.05C232.51 411.15 226.08 409.73 224.93 419.9C223.785 420.205 223.83 420.165 222.64 420.055C220.62 421.395 218.485 423.15 216.19 423.475C212.525 422.525 209.81 416.31 209.57 412.685C207.01 410.765 208.915 414.13 206.625 411.505C207.09 405.04 204.655 401.725 202.685 395.605C201.53 392.015 200.515 390.875 202.01 387.145C199.03 385.77 195.8 373.97 196.365 370.85L197.295 370.215L197.59 369.62L195.61 369.935C194.49 368.12 194.755 364.895 194.79 362.675C193.36 361.88 189.945 359.465 188.69 360.04C177.995 364.91 170.135 370.51 158.645 374.25C156.935 376.745 154.115 379.735 151.135 380.58C149.96 381.03 148.275 382.045 147.125 382.195C144.98 382.47 142.12 381.84 140.535 383.815C139.35 385.29 140.92 385.585 139.215 387.115C132.165 384.71 133.54 383.315 132.98 375.87C137.63 370.125 135.26 371.22 137.26 365.085C142.47 353.805 144.39 338.05 148.75 326.175C143.225 323.36 140.92 323.26 134.99 323.82C128.7 325.155 123.195 324.285 117.015 323.325C116.16 324.655 116.21 324.625 115.005 325.63L114.01 325.58C113.6 324.695 113.285 323.98 112.935 323.07C111.97 323.635 111.13 324.375 110.255 324.755L110.775 326.075C107.945 326.51 106.785 325.815 103.47 326.265C98.5447 327.46 94.1897 325.75 90.3897 325.75L90.2197 326.205L91.5597 327.01L91.4347 327.5C88.7097 328.055 87.0247 327.19 84.6747 325.885C83.6547 324.425 84.0997 321.615 84.1897 319.67C86.6347 315.785 90.8847 310.165 93.8247 306.66C96.6697 303.23 101.115 299.63 102.855 295.455C105.38 289.39 122.775 272.87 122.685 267.575L121.745 266.96C122.615 265.795 122.685 265.755 123.235 264.43C121.715 262.01 111.93 258.115 108.89 256.555C106.515 256.435 97.1147 246.55 96.7997 246.535C88.4797 246.15 85.7847 240.13 79.4447 236.195C74.3647 233.05 70.9547 228.23 77.9947 225.01C78.4697 223.155 78.0347 223.81 79.5497 222.47L80.0347 222.045C83.3997 219.05 89.4547 219.565 92.9047 216.32C93.8947 215.385 93.7397 215.495 94.9547 215.105C94.5047 216.165 94.1197 217.23 93.7847 218.33C96.0247 216.825 102.415 211.23 104.53 211.84C103.815 212.92 102.8 213.935 102.97 214.865C105.3 213.865 105.27 212.405 105.835 212.12C112.9 208.58 141.86 206.21 129.52 193.275C129.52 193.275 129.68 191.03 129.695 190.79C122.065 189.815 128.845 186.245 123.905 181.68C122.915 180.76 122.5 180.08 122.07 178.845C122.055 176.82 122.18 176.885 123.31 175.1C116.045 172.675 116.245 170.155 116.13 163L115.515 162.41L114.275 162.45C110.085 160.535 101.685 142.115 105.555 137.32C106.605 136.02 107.795 134.26 109.68 134.3C114.265 134.395 115.585 133.95 119.19 136.665C119.36 136.86 120.035 137.6 120.13 137.795C121.025 137.27 122.17 136.25 123.8 136.92C128.13 138.705 132.865 140.665 137.275 142.38C137.545 142.96 137.815 143.545 138.09 144.13C141.265 144.08 141.67 142.925 144.945 145.365C147.555 147.305 149.04 147.47 152.28 147.55C159.915 153.685 158.25 149.505 161.99 151.48C163.585 157.16 164.79 153.505 167.755 153.615L168.925 155.195C178.97 156.185 174.92 131.73 175.215 126.11C175.905 123.38 174.1 121.87 175 119.25C175.905 118.335 176.665 117.775 177.005 116.555C176.515 115.85 175.19 113.885 175.19 113.175C175.205 106.965 174.895 91.15 178.45 86.12C179.965 85.41 179.47 85.63 181.565 86.24L182.21 83.995C188.04 81.24 198.22 95.295 199.76 100.155C201.88 104.585 207.76 106.185 208.36 111.885L209.7 112.185C214.735 120.28 217.095 122.19 221.275 131.17C222.895 132.905 223.285 132.26 225.755 132.765C225.005 134.82 222.92 134.23 223.08 135.885C225.855 136.335 228.2 132.87 230.375 131.14C231.73 129.31 234.91 125.18 236.005 123.32C237.77 120.64 238.905 115.575 240.505 113.04C243.145 108.855 246.01 99.705 249.425 96.935Z" fill="#FD235B"/>
<path d="M175.218 126.111C176.023 127.541 176.533 128.596 177.538 129.896C177.673 133.566 177.708 136.976 177.583 140.586C177.458 144.321 175.998 149.276 177.603 152.526C178.418 154.176 178.808 154.041 178.348 155.746L177.593 155.906L177.253 155.496C176.713 154.861 176.933 155.111 176.233 154.386C174.288 154.641 172.758 155.586 171.303 156.896C167.948 156.751 166.608 155.921 163.428 155.606C161.503 155.416 159.708 156.146 158.148 155.171L157.558 153.701L156.028 153.536L155.918 154.971L155.278 155.451C153.323 154.051 154.123 150.321 150.478 149.131C145.343 147.456 138.163 147.461 132.908 147.951L132.518 147.386C133.448 145.341 133.753 145.631 133.208 144.096C127.913 140.756 125.153 144.206 120.133 137.796C121.028 137.271 122.173 136.251 123.803 136.921C128.133 138.706 132.868 140.666 137.278 142.381C137.548 142.961 137.818 143.546 138.093 144.131C141.268 144.081 141.673 142.926 144.948 145.366C147.558 147.306 149.043 147.471 152.283 147.551C159.918 153.686 158.253 149.506 161.993 151.481C163.588 157.161 164.793 153.506 167.758 153.616L168.928 155.196C178.973 156.186 174.923 131.731 175.218 126.111Z" fill="#EE4177"/>
<path d="M379.03 316.967L380.8 319.737C383.63 324.077 385.145 330.567 389.065 334.212C391.08 336.587 390.585 336.842 391.835 338.892C398.285 348.742 397.295 357.942 383.57 353.282C387 348.767 386.515 352.487 391.12 351.152C392.195 349.287 392.51 346.937 390.53 345.587C388.27 346.122 388.05 346.272 386.545 344.702L386.82 343.877L387.755 343.812C388.41 343.177 388.875 342.677 389.485 342.012C388.665 338.997 386.79 341.052 385.54 335.517C384.23 335.177 383.82 335.102 382.61 334.532C380.8 332.062 380.715 330.117 380.185 327.057C380.925 321.512 377.63 321.137 379.03 316.967Z" fill="#EE4177"/>
<path d="M230.375 131.141C231.73 129.311 234.91 125.181 236.005 123.321C237.77 120.641 238.905 115.576 240.505 113.041C243.145 108.856 246.01 99.7055 249.425 96.9355C248.43 100.161 247.02 102.831 246.55 105.996C246.995 106.766 247.305 107.361 247.62 108.201C245.28 112.186 241.325 114.651 239.525 118.181C236.92 123.281 243.44 126.941 234.22 128.611C233.36 129.721 233.355 131.441 233.165 132.926C231.24 132.501 232.475 131.951 230.375 131.141Z" fill="#EE4177"/>
<path d="M318.276 380.936C322.061 378.191 322.446 378.336 323.396 373.701C323.761 375.656 323.801 375.351 323.511 377.156C323.016 380.226 324.246 385.361 323.736 388.631C322.921 393.836 320.941 397.616 320.706 403.026L321.076 403.326L323.061 401.051C324.056 402.486 322.126 403.966 321.121 405.036C320.771 406.486 321.496 407.546 322.136 408.981L321.796 409.811C319.611 408.116 319.961 407.756 317.966 407.956C316.471 399.631 320.011 398.271 321.501 390.531C322.251 386.631 320.636 383.966 318.276 380.936Z" fill="#EE4177"/>
<path d="M115.516 162.411L114.276 162.451C110.086 160.536 101.686 142.116 105.556 137.321C106.606 136.021 107.796 134.261 109.681 134.301C114.266 134.396 115.586 133.951 119.191 136.666C114.221 137.111 108.471 132.836 106.241 140.786C106.786 142.506 109.391 150.251 110.386 151.586C112.666 154.636 113.996 160.096 115.516 162.411Z" fill="#EE4177"/>
<path d="M137.26 365.086C139.71 370.751 135.295 374.231 138.01 376.481L140.675 376.901C140.055 378.846 137.785 377.786 137.105 381.896L137.651 382.656C140.191 382.546 142.22 380.591 144.12 379.856C143.3 380.171 151.19 380.586 151.135 380.581C149.96 381.031 148.275 382.046 147.125 382.196C144.98 382.471 142.12 381.841 140.535 383.816C139.35 385.291 140.921 385.586 139.216 387.116C132.166 384.711 133.54 383.316 132.98 375.871C137.63 370.126 135.26 371.221 137.26 365.086Z" fill="#EE4177"/>
<path d="M384.191 173.146C384.646 172.226 385.396 170.996 386.666 170.736C391.226 169.806 399.201 168.741 403.571 170.516C405.186 171.171 405.806 174.081 406.161 175.506C406.451 176.666 406.731 177.831 406.996 178.996C404.941 181.691 404.456 182.876 401.241 183.546C401.906 180.711 405.566 178.251 404.501 174.946C403.306 173.556 399.931 172.156 398.171 172.346C397.716 174.101 398.046 173.656 397.051 174.996L396.251 174.886C395.506 173.746 395.476 173.411 394.321 172.781C393.786 173.556 393.411 174.031 392.806 174.761L392.121 174.496L391.626 172.466L390.976 172.361C388.441 173.461 386.786 174.511 384.191 173.146Z" fill="#EE4177"/>
<path d="M399.551 245.077C403.456 244.182 414.096 249.007 418.206 250.617C419.461 251.112 421.196 254.472 422.481 255.177C423.706 255.807 424.336 254.172 425.596 255.462C425.691 257.542 425.686 257.657 425.326 259.702C424.281 258.927 424.391 258.912 423.681 257.807C422.976 259.212 422.286 259.147 420.926 259.547C417.071 256.547 419.576 255.837 417.211 253.767C412.256 253.802 414.431 251.747 413.146 250.957C408.486 248.097 403.646 250.177 399.551 245.077Z" fill="#EE4177"/>
<path d="M181.566 86.2401L182.211 83.9951C188.041 81.2401 198.221 95.2952 199.761 100.155C196.121 98.5452 191.021 91.0251 188.681 87.6751C187.611 86.1401 183.316 89.1551 181.566 86.2401Z" fill="#EE4177"/>
<path d="M321.857 344.197C323.342 342.462 324.162 341.717 325.882 340.182L330.737 343.707C321.557 342.602 322.632 349.197 323.692 355.572C324.077 357.917 323.517 360.682 323.122 363.057C321.887 361.807 320.462 360.777 320.027 359.282C320.342 358.977 321.357 358.027 321.377 357.612C321.562 353.092 321.457 348.732 321.857 344.197Z" fill="#EE4177"/>
<path d="M279.5 383.237C281.67 383.017 282.175 382.787 284.06 383.662C285.865 385.592 286.15 387.187 287.64 388.967C289.22 388.757 291.115 388.277 292.47 388.947C293.025 391.162 292.11 392.227 293.245 394.102L294.445 394.922L293.05 395.612C290.245 394.947 289.36 394.122 287.685 391.757C285.515 388.882 282.14 385.802 279.5 383.237Z" fill="#EE4177"/>
<path d="M208.362 111.887L209.702 112.187C214.737 120.282 217.097 122.192 221.277 131.172C217.087 129.212 220.472 131.687 216.652 130.902L216.512 130.212C217.802 129.402 218.027 129.502 218.702 128.287C216.702 125.037 213.437 118.972 209.512 118.427C207.867 118.702 207.472 119.302 206.252 120.452L205.807 120.872C205.072 119.912 208.307 116.097 208.707 114.822C208.707 114.822 208.387 112.117 208.362 111.887Z" fill="#EE4177"/>
<path d="M123.311 175.102C129.466 181.532 126.131 183.602 129.696 190.792C122.066 189.817 128.846 186.247 123.906 181.682C122.916 180.762 122.501 180.082 122.071 178.847C122.056 176.822 122.181 176.887 123.311 175.102Z" fill="#EE4177"/>
<path d="M77.9961 225.01C78.4711 223.155 78.0361 223.811 79.5511 222.471L80.0361 222.045C83.4011 219.05 89.4561 219.565 92.9061 216.32C93.8961 215.385 93.7411 215.495 94.9561 215.105C94.5061 216.165 94.1211 217.231 93.7861 218.331C91.6111 219.186 91.4011 218.81 90.6311 220.35C91.0411 222.34 91.3061 221.62 90.4911 222.855C89.2811 222.48 88.5561 221.615 87.6061 220.735C86.3811 221.515 86.4411 221.845 85.6661 223.23C83.3311 223.905 82.0511 222.52 80.2411 223.165C77.8711 224.005 81.0111 224.92 77.9961 225.01Z" fill="#EE4177"/>
<path d="M202.011 387.147C199.031 385.772 195.801 373.972 196.366 370.852L197.296 370.217C197.991 373.987 199.706 376.837 201.041 380.362C201.786 382.337 201.736 384.957 202.011 387.147Z" fill="#EE4177"/>
<path d="M117.016 323.326C120.411 321.016 123.236 324.036 125.766 322.816C126.331 322.201 126.816 321.421 127.441 321.321C128.361 321.176 134.416 323.476 134.991 323.821C128.701 325.156 123.196 324.286 117.016 323.326Z" fill="#EE4177"/>
<path d="M420.927 259.547C422.287 259.147 422.977 259.212 423.682 257.807C424.392 258.912 424.282 258.927 425.327 259.702C423.097 264.302 425.657 264.562 420.707 266.832C420.602 264.512 420.752 261.867 420.927 259.547Z" fill="#EE4177"/>
<path d="M352.5 175.121C356.875 173.456 359.395 172.651 363.835 174.031C360.145 177.001 356.835 177.486 352.5 175.121Z" fill="#EE4177"/>
<path d="M367.761 228.615C366.936 227.37 366.881 226.22 366.621 224.74C367.906 221.33 369.926 223.465 373.336 221.605C372.156 224.405 371.971 224.47 369.861 226.54L367.761 228.615Z" fill="#EE4177"/>
<path d="M248.721 380.971C247.826 375.801 249.456 374.29 253.886 372.105C252.891 376.35 251.751 377.896 248.721 380.971Z" fill="#EE4177"/>
<path d="M332.52 344.451C336.045 343.721 338.975 340.986 341.68 342.361L342.555 344.011L341.359 344.986C339.339 345.376 334.84 344.701 332.52 344.451Z" fill="#EE4177"/>
<path d="M103.473 326.266C102.858 326.206 103.243 326.276 102.363 325.881C102.978 324.416 104.188 322.981 105.778 322.676C107.183 325.116 107.378 324.451 110.258 324.756L110.778 326.076C107.948 326.511 106.788 325.816 103.473 326.266Z" fill="#EE4177"/>
<path d="M259.13 259.961C261.825 261.136 267.2 262.351 270.435 263.396C275.59 269.396 276.185 264.476 278.26 267.361L277.16 268.811L277.695 269.401C278.63 268.776 279.025 268.586 280.04 268.096C281.52 268.371 292.925 275.976 293.98 277.246C293.455 284.061 303.71 283.296 303.52 290.871C303.5 291.576 308.69 294.786 308.89 296.571C309.305 300.231 307.545 307.006 306.245 310.096C304.3 309.916 304.365 309.896 302.475 310.351C301.475 311.531 301.805 310.821 301.845 312.696L301.21 313.111C289.315 314.316 293.555 310.586 289.29 307.646C288.29 308.511 288.335 308.586 287.1 308.991C283.5 307.031 280.19 302.226 276.995 299.721C276.295 299.176 271.175 298.276 270.83 297.516C270.255 296.241 271.095 295.711 269.485 294.691C268.005 295.266 268.365 295.411 267.425 297.301C264.855 297.506 258.11 293.341 253.765 293.151C252.265 294.091 251.51 294.761 249.745 294.946L249.37 294.311C250.61 293.481 250.705 293.421 251.735 292.346L251.34 291.991L250.355 292.066C249.19 293.141 248.945 293.431 247.565 294.271C246.68 294.346 245.7 294.421 244.96 293.811C243.255 292.396 240.32 294.216 238.33 294.426C234.07 294.871 234.61 295.091 231.35 293.076C229.455 293.576 222.805 298.661 221 300.026C219.705 299.631 221.135 299.341 219.94 297.246C216.65 300.086 203.71 311.861 199.275 314.501C198.465 314.986 197.4 311.601 192.645 312.436C191.565 311.916 190.54 311.551 189.425 311.131C189.335 309.596 189.32 309.176 189.46 307.586L191.4 307.536L191.545 307.031C190.115 306.176 190.05 306.331 189.06 305.041C189.735 303.906 190.73 302.686 189.575 301.571L188.085 302.636L187.785 301.746C187.935 300.436 188.2 300.086 189.09 299.131C192.66 295.296 189.575 296.506 190.675 293.596C191.91 293.431 191.495 293.561 192.645 293.011L191.985 291.541L192.36 290.856C193.575 291.006 193.185 291.026 194.32 290.821L194.47 289.756L193.255 288.396L193.965 286.941C195.51 285.956 194.665 286.156 196.615 286.511C198.02 286.041 202.97 280.056 205.015 278.376C206.345 278.961 205.83 278.871 207.255 278.941C209.445 275.811 206.49 278.836 207.42 275.661L208.93 276.016L209.535 275.581L208.765 274.421C212.935 269.486 220.69 269.276 224.885 266.306C225.03 265.181 225.02 265.131 225.435 264.086C226.71 263.666 228.275 263.586 229.51 264.041C231.99 264.956 234.335 264.006 237 263.256L236.94 263.426C238.075 263.166 245.035 261.446 245.605 261.446C249.33 261.421 253.455 262.551 257.49 261.816C258.175 260.486 257.87 260.966 259.13 259.961Z" fill="#000101"/>
<path d="M275.911 212.997C276.906 214.187 277.196 214.222 277.286 215.697L275.796 214.577L275.191 215.007C277.176 218.867 280.911 216.562 280.126 219.957L281.081 220.482C282.291 219.907 281.871 220.187 282.781 219.152C284.826 219.207 289.301 219.537 291.036 218.972C293.256 215.327 290.656 216.927 292.596 213.812L294.486 213.802C296.401 211.172 293.466 208.297 296.066 207.167L299.176 208.282L299.371 207.902L298.221 206.427L298.741 205.997C299.641 206.377 300.391 206.717 301.271 207.147C302.166 206.642 302.631 206.362 303.461 205.762C305.096 206.162 304.981 206.172 306.281 207.272L305.706 207.442L306.201 207.062L306.026 206.892L305.781 207.427L303.306 207.397C303.841 208.742 306.511 209.367 306.901 211.472C306.981 211.907 308.096 213.422 308.391 213.837L308.886 213.712C309.321 212.162 309.251 212.107 309.216 210.467C310.251 213.797 308.981 224.897 308.046 228.817C307.841 229.667 307.051 230.007 306.311 230.287L306.146 229.492C307.871 226.962 308.166 227.392 307.996 224.872L307.396 224.437C305.811 225.777 303.501 233.317 300.631 234.562L300.256 234.122L300.761 232.452C300.146 232.927 296.931 235.582 296.516 235.812C293.766 237.342 290.216 236.927 287.331 238.467L286.146 237.822C283.156 238.757 279.041 242.302 277.136 236.427L276.101 235.452C271.121 235.587 271.446 236.807 267.956 231.687C263.306 230.652 262.301 230.357 261.596 225.542C262.126 222.317 261.911 225.957 264.746 222.927C265.141 221.317 265.191 221.422 264.761 219.837C263.466 219.477 263.471 219.642 262.116 219.817C261.286 218.422 261.921 217.487 261.831 215.212L260.556 215.082L260.316 214.442C261.626 213.637 261.576 213.702 262.541 212.517L261.336 209.287L261.836 209.047C263.501 210.182 263.606 210.332 265.596 210.422C264.166 208.397 263.986 208.847 264.046 206.872C265.921 205.877 267.161 206.867 268.856 207.892L269.536 207.507L268.821 206.207C271.886 206.587 275.406 209.757 275.911 212.997Z" fill="#000101"/>
<path d="M265.595 210.42C264.165 208.395 263.985 208.845 264.045 206.87C265.92 205.875 267.16 206.865 268.855 207.89L269.535 207.505L268.82 206.205C271.885 206.585 275.405 209.755 275.91 212.995C274.525 211.915 273.375 210.24 271.785 210.115L271.435 210.51C268.245 214.095 268.99 210.225 265.595 210.42Z" fill="#32090A"/>
<path d="M277.137 236.426C280.747 237.321 279.342 236.681 282.927 236.186L283.387 236.436C284.302 236.931 285.217 237.371 286.147 237.821C283.157 238.756 279.042 242.301 277.137 236.426Z" fill="#181313"/>
<path d="M261.598 225.541C265.328 227.316 265.903 228.066 267.958 231.686C263.308 230.651 262.303 230.356 261.598 225.541Z" fill="#DA1D4E"/>
<path d="M207.712 212.195C218.597 215.795 217.802 223.995 215.692 233.425C214.537 233.15 215.152 233.255 213.852 233.145C212.642 235.34 214.382 234.89 213.367 237.125C210.417 236.56 208.317 239.75 206.397 242.055C206.387 244.73 206.527 244.3 204.102 245.345C204.587 244.2 204.612 244.75 204.297 243.67L202.822 243.24C201.042 243.93 201.812 243.395 200.592 245.1L200.727 245.81C201.772 245.225 201.687 245.235 202.882 245.225C201.942 245.89 200.242 246.745 199.057 246.195C196.057 244.805 189.667 248.3 187.207 245.785L188.852 244.745L188.702 244.27C187.167 243.965 186.527 244.415 185.057 245.005L184.487 245.24L183.787 244.795C183.497 243.28 183.522 242.96 182.792 241.575L182.077 242.575L181.112 242.57C177.787 240.815 177.102 240.08 175.792 236.59C174.627 236.92 175.017 236.935 173.957 238.175L173.122 238.025C170.462 234.92 167.967 222.675 170.252 219.725L170.902 221.325L171.467 221.455L171.942 220.53C171.512 219.48 171.387 219.12 171.107 218.02L171.717 217.16C176.857 216.28 173.047 215.985 175.772 214.48C179.157 215.85 180.497 214.26 182.832 215.3C183.227 216.99 182.747 217.03 181.762 219.075L182.392 219.685C183.457 218.675 182.977 218.925 184.312 218.47C185.742 219.805 185.352 219.03 185.767 220.735L184.652 221.9L184.867 222.615C187.137 224.495 195.287 229.485 197.062 227.23C201.687 221.36 200.467 216.745 207.712 212.195Z" fill="#000101"/>
<path fill-rule="evenodd" clip-rule="evenodd" d="M210.377 424.798C210.97 425.554 211.574 426.282 212.186 426.971C211.574 426.282 210.97 425.554 210.377 424.798ZM315.851 411.329C316.053 411.454 316.271 411.612 316.501 411.794C316.271 411.612 316.053 411.454 315.851 411.329ZM311.849 411.09C311.889 411.112 311.932 411.13 311.974 411.148C311.932 411.13 311.889 411.113 311.848 411.09C311.827 411.059 311.809 411.026 311.79 410.994C311.809 411.026 311.828 411.059 311.849 411.09ZM315.082 411.016C315.088 411.016 315.093 411.017 315.099 411.017C315.093 411.017 315.087 411.016 315.081 411.016C315.08 411.015 315.079 411.015 315.077 411.015C315.079 411.015 315.081 411.015 315.082 411.016ZM311.557 410.51C311.6 410.624 311.65 410.734 311.706 410.843C311.65 410.734 311.6 410.624 311.557 410.51ZM310.905 407.438C311.176 408.439 311.215 409.342 311.435 410.135C311.215 409.342 311.175 408.439 310.905 407.438ZM202.602 411.7C202.647 411.94 202.698 412.172 202.754 412.395C202.698 412.172 202.647 411.94 202.602 411.7ZM201.832 406.8C202.104 407.862 202.236 409.194 202.409 410.464C202.236 409.195 202.104 407.862 201.832 406.8ZM310.607 406.557C310.638 406.633 310.667 406.707 310.695 406.782C310.667 406.707 310.637 406.632 310.606 406.556L310.607 406.557ZM201.212 404.98C201.258 405.099 201.301 405.22 201.346 405.34C201.22 405.001 201.091 404.665 200.958 404.332L201.212 404.98ZM306.617 402.087C306.802 402.237 306.983 402.386 307.16 402.533C306.759 402.201 306.336 401.859 305.903 401.513L306.617 402.087ZM330.364 399.961C331.368 400.086 332.176 400.083 333.011 400.616C332.176 400.083 331.368 400.087 330.364 399.962L330.364 399.961ZM199.589 401.163C199.9 401.853 200.206 402.547 200.505 403.247C200.025 402.123 199.521 401.019 199.026 399.91L199.589 401.163ZM297.001 394.603C297.147 394.68 297.296 394.758 297.45 394.837C297.296 394.758 297.147 394.68 297.001 394.603ZM197.194 395.247C197.25 395.447 197.31 395.642 197.373 395.832C197.31 395.642 197.25 395.447 197.194 395.247ZM195.625 387.579C196.012 388.851 196.249 390.361 196.501 391.861C196.563 392.236 196.627 392.611 196.695 392.981C196.762 393.351 196.832 393.717 196.908 394.074C196.45 391.93 196.204 389.486 195.624 387.578L195.625 387.579ZM122.837 387.179C122.893 387.237 122.952 387.292 123.011 387.349C122.837 387.18 122.671 387.009 122.518 386.832L122.837 387.179ZM120.778 383.241C120.829 383.484 120.888 383.721 120.956 383.952C120.888 383.721 120.829 383.484 120.778 383.241ZM381.107 207.504C386.74 205.143 388.185 211.064 385.502 215.119L385.501 215.119C383.075 216.631 375.64 229.639 373.455 232.624C370.243 237.014 364.472 245.993 360.51 249.399C361.064 251.71 361.183 254.439 361.455 256.836C363.262 272.771 362.807 291.531 360.913 307.526C368.961 299.688 374.966 294.816 380.058 284.692L380.059 284.693C380.627 282.796 381.254 279.751 382.101 278.078C383.133 276.041 385.381 277.282 386.952 278.104C388.254 281.86 388.729 285.77 386.814 289.351C385.908 291.044 384.486 293.88 383.358 295.361L383.359 295.362C381.897 296.442 379.276 299.886 377.959 301.349C372.852 307.026 367.766 312.483 361.169 316.491C360.246 317.178 358.916 317.854 358.057 318.576C343.092 331.165 324.293 339.644 306.425 347.326C259.321 367.575 207.252 362.296 159.13 349.012C155.348 347.966 152.865 346.103 149.483 344.299C149.443 344.292 146.553 344.632 146.202 344.124C141.223 342.717 136.929 340.895 132.212 338.794C130.544 342.488 130.483 346.233 129.398 349.969C128.617 352.587 127.78 355.165 126.965 357.744C126.694 358.604 126.425 359.464 126.161 360.325C125.104 363.77 124.131 367.239 123.418 370.825C123.093 372.458 121.077 374.728 120.817 376.717C120.601 378.367 120.496 379.814 120.537 381.098L120.564 381.638C120.468 380.222 120.571 378.602 120.817 376.716C121.077 374.727 123.092 372.458 123.417 370.825C124.842 363.652 127.315 356.948 129.398 349.968C130.483 346.232 130.544 342.487 132.212 338.793C127.7 335.829 115.863 332.044 115.825 325.458C115.83 323.867 116.487 322.344 117.643 321.242C117.513 321.197 117.354 321.163 117.171 321.136C117.355 321.163 117.513 321.197 117.644 321.242L118.56 321.393L118.56 321.394C120.8 322.19 124.507 324.722 126.595 326.039C128.926 327.536 131.354 328.877 133.863 330.057C134.239 328.445 136.417 322.755 135.879 321.819C135.522 321.614 135.139 321.431 134.736 321.266C135.139 321.431 135.522 321.614 135.88 321.819C136.419 322.754 134.241 328.445 133.864 330.057C136.024 332.345 142.974 334.443 146.25 335.7C145.247 332.868 144.473 329.944 143.481 327.124C141.409 321.02 138.972 314.903 137.909 308.513C136.106 297.669 132.658 286.876 131.398 275.985C122.479 273.811 112.209 267.335 103.917 262.921C102.527 264.405 101.651 265.85 100.419 267.334C93.44 275.74 86.5311 283.637 81.3751 293.351C80.4995 295.002 77.4631 297.414 76.2607 298.989C71.3602 304.846 64.5484 311.613 64.4879 319.697C64.4767 321.198 64.9911 322.284 65.8117 323.088C64.9906 322.284 64.4757 321.198 64.4869 319.697C64.5472 311.613 71.3592 304.846 76.2598 298.989C77.4621 297.414 80.4972 295.002 81.3731 293.352C86.5292 283.637 93.4389 275.739 100.418 267.333C101.65 265.849 102.526 264.404 103.916 262.92C99.8279 260.442 93.4141 256.8 96.7469 251.397C97.3655 250.395 97.8893 250.315 98.9561 250.028C102.096 251.252 110.998 257.185 114.552 259.305C119.814 262.443 125.745 264.96 130.71 267.905C134.434 267.453 138.361 266.357 142.286 265.906C152.715 264.706 163.009 263.597 173.339 261.653C174.685 261.4 177.06 260.11 178.324 259.908C181.934 259.331 184.896 259.128 188.439 258.034C198.526 254.919 208.979 251.904 218.993 248.635C226.186 246.287 230.095 244.341 237.902 242.832C250.669 240.364 260.902 241.601 273.518 242.188C284.189 242.685 296.775 243.297 307.418 243.079C316.467 242.854 325.511 242.415 334.543 241.76C341.228 241.232 352.133 239.81 358.354 240.549C366.343 230.803 373.07 217.121 381.107 207.504ZM191.926 377.244C192.173 378.002 192.421 378.734 192.658 379.431C192.421 378.734 192.173 378.002 191.926 377.244ZM191.142 374.757C191.342 375.414 191.545 376.06 191.748 376.69C191.545 376.06 191.342 375.414 191.142 374.757ZM270.419 372.021C271.09 372.537 271.767 373.063 272.45 373.597C271.767 373.063 271.09 372.537 270.419 372.021ZM188.335 361.112C188.387 362.426 188.557 363.853 188.811 365.337C188.557 363.853 188.387 362.426 188.335 361.111L188.335 361.112ZM249.138 352.395C247.811 351.468 246.897 351.649 245.363 351.822C244.722 352.61 244.663 352.409 244.728 353.142C245.495 353.437 247.626 353 248.636 352.885L249.185 352.819L249.138 352.395ZM238.928 351.815C238.182 352.347 238.157 352.192 237.841 352.904C238.422 353.361 240.015 353.185 240.83 353.151L241.409 352.965L241.441 352.614C240.682 351.824 239.991 351.818 238.928 351.815ZM234.677 353.291C233.697 351.441 231.776 351.893 229.887 351.994C230.434 353.704 233.092 353.308 234.677 353.291ZM254.5 350.833C253.63 351.306 253.187 351.449 252.626 352.262L252.665 352.663C253.563 352.923 253.993 352.675 254.988 352.417C256.036 352.321 256.171 352.475 256.945 351.912C256.629 351.014 255.383 350.881 254.5 350.833ZM264.503 350.818C263.33 350.18 262.409 350.349 261.128 350.486C260.517 351.168 260.504 350.964 260.46 351.682C261.113 352.037 262.955 351.619 263.827 351.489L264.516 351.251L264.503 350.818ZM218.324 352.33C218.197 350.492 216.365 350.742 214.884 350.796L214.644 351.532C215.383 352.55 217.087 352.231 218.324 352.33ZM404.934 347.838C404.949 347.839 404.963 347.839 404.978 347.84C404.963 347.839 404.948 347.839 404.933 347.838C404.906 347.836 404.879 347.832 404.852 347.829C404.879 347.832 404.906 347.836 404.934 347.838ZM403.384 347.664C403.446 347.672 403.509 347.68 403.572 347.688C403.509 347.68 403.446 347.672 403.384 347.664ZM269.865 348.617C269.178 349.155 268.84 349.285 268.657 350.077C269.316 350.809 269.881 350.504 270.796 350.258L271.759 349.755L271.855 349.251C271.229 348.697 270.744 348.701 269.865 348.617ZM210.698 351.377C210.479 349.501 208.469 349.82 206.987 349.951L206.833 350.841C207.645 351.802 209.418 351.326 210.698 351.377ZM198.907 349.377C199.511 350.143 200.825 350.226 201.762 350.337C202.205 350.394 202.649 350.441 203.093 350.481C203.015 348.627 200.565 348.679 199.061 348.612L198.907 349.377ZM285.931 345.331C285.069 345.038 284.919 345.106 283.982 345.203C283.102 345.571 282.952 345.614 282.426 346.394L282.325 346.999L282.729 347.17C283.074 347.027 283.451 346.883 283.782 346.716C284.727 346.441 285.425 346.367 286.039 345.643L285.931 345.331ZM191.012 348.147C191.685 348.821 193.779 348.878 194.9 349.152L195.165 348.708C194.433 347.78 192.522 347.717 191.364 347.594L191.012 348.147ZM187.478 347.776C186.599 346.067 184.444 345.964 182.746 346.308C183.729 347.571 185.951 347.997 187.478 347.776ZM291.629 342.95C290.7 343.384 290.315 343.465 289.736 344.309L289.823 344.582C290.232 344.558 290.314 344.583 290.703 344.472C291.656 344.238 292.13 344.216 292.844 343.552L292.764 343.179C292.286 343.03 292.132 342.946 291.629 342.95ZM371.421 342.489C371.594 342.531 371.768 342.573 371.942 342.615C371.768 342.573 371.594 342.531 371.421 342.489ZM176.481 344.542C175.66 345.146 175.615 344.959 175.44 345.711C176.024 346.343 177.711 346.507 178.704 346.814L179.347 346.299C179.41 344.997 177.552 344.623 176.481 344.542ZM367.902 341.583C368.289 341.685 368.677 341.785 369.064 341.887C368.677 341.785 368.289 341.685 367.902 341.583ZM168.593 342.803C168.423 342.817 168.253 342.831 168.082 342.842L167.642 343.518C168.001 344.845 170.526 344.991 171.829 345.239L172.171 344.753C171.854 343.43 170.061 342.739 168.81 342.795L168.593 342.803ZM298.521 339.886C297.658 340.558 297.304 340.759 296.816 341.771L296.91 342.184C297.498 342.255 297.475 342.288 298.018 342.078C298.845 341.721 299.742 341.468 300.22 340.772C299.89 340.079 299.265 340.021 298.521 339.886ZM363.846 340.543C364 340.58 364.153 340.616 364.307 340.654C364.153 340.616 364 340.58 363.846 340.543ZM359.002 339.599C359.06 339.607 359.118 339.616 359.176 339.624C359.118 339.616 359.06 339.607 359.002 339.599ZM357.886 339.46C357.93 339.465 357.975 339.47 358.019 339.475C357.975 339.47 357.93 339.465 357.886 339.46ZM356.997 339.362C357.028 339.367 357.059 339.371 357.09 339.375C357.059 339.371 357.028 339.367 356.997 339.362ZM355.051 338.94C355.349 339.018 355.645 339.093 355.935 339.159C355.645 339.093 355.349 339.018 355.051 338.94ZM306.644 337.416C305.127 337.779 304.371 337.859 303.442 339.175L303.443 339.735C303.569 339.73 303.708 339.757 303.819 339.699C304.786 339.229 306.386 338.542 307.127 337.859L307.103 337.555L306.644 337.416ZM352.593 338.336C352.638 338.345 352.683 338.354 352.727 338.363C352.683 338.354 352.638 338.345 352.593 338.336ZM411.367 335.41C411.467 335.693 411.56 335.977 411.647 336.262C411.56 335.977 411.467 335.693 411.367 335.411L411.367 335.41ZM154.692 337.52C154.821 339.805 155.12 340.731 157.596 340.566L157.847 340.548C157.612 339.455 156.946 338.502 155.998 337.904C155.582 337.641 155.171 337.582 154.692 337.52ZM313.983 334.721C313.374 334.3 313.721 334.435 312.854 334.472C311.5 335.176 311.021 335.373 309.969 336.455L309.92 336.91C310.452 337.005 310.418 337.026 310.921 336.842C312.03 336.369 313.503 335.852 313.983 334.721ZM320.156 332.175C319.688 331.746 319.166 331.888 318.487 331.919C317.767 332.423 317.286 332.642 316.942 333.437C317.462 333.718 317.379 333.594 318.159 333.396C318.906 333.052 319.69 332.803 320.156 332.175ZM408.459 329.573C408.745 330.032 409.021 330.494 409.286 330.96C409.021 330.494 408.745 330.032 408.459 329.573ZM153.077 330.751C152.774 332.608 152.923 334.925 155.057 335.561C155.037 334.169 154.366 332.424 153.718 331.206L153.077 330.751ZM326.453 328.928C325.633 328.847 325.562 328.858 324.743 329.005C324.018 329.404 323.471 329.582 323.128 330.3L323.357 330.632C324.044 330.654 324.075 330.676 324.773 330.509C325.552 330.134 326.221 329.941 326.65 329.233L326.453 328.928ZM406.923 327.242C407.05 327.424 407.176 327.607 407.301 327.791C407.176 327.607 407.05 327.424 406.923 327.242ZM404.568 323.968C405.247 324.889 405.93 325.822 406.595 326.77C405.93 325.822 405.247 324.889 404.568 323.968ZM333.205 325.242C332.561 324.904 332.336 324.992 331.613 325.061C330.498 325.712 329.347 326.367 329.036 327.722L329.355 328.042C329.927 327.973 329.993 327.995 330.531 327.75C331.629 327.054 332.3 326.698 333.163 325.724L333.205 325.242ZM150.851 324.809C150.819 326.435 151.358 328.01 152.904 328.772C152.928 327.116 152.622 325.42 150.851 324.809ZM338.687 321.871C337.658 322.39 336.407 322.849 336.027 323.905C336.302 324.056 336.324 324.123 336.596 324.137C337.547 323.607 338.658 323.089 339.348 322.273L339.216 321.924L338.687 321.871ZM401.849 320.242C402.134 320.646 402.429 321.052 402.726 321.461C402.589 321.272 402.451 321.085 402.316 320.897L401.849 320.242ZM400.957 318.944L401.396 319.591C401.154 319.24 400.92 318.891 400.694 318.544C400.78 318.677 400.868 318.81 400.957 318.944ZM347.195 316.374C345.601 317.182 343.111 318.402 342.023 319.772L341.895 320.45C342.322 320.773 342.1 320.738 342.542 320.7C344.146 319.66 346.457 318.209 347.652 316.791L347.566 316.478L347.195 316.374ZM69.4428 324.918C70.2296 325.132 71.0397 325.296 71.8178 325.437C71.0397 325.296 70.2296 325.132 69.4428 324.918ZM399.535 316.648C399.636 316.824 399.737 316.999 399.84 317.174C399.737 316.999 399.636 316.824 399.535 316.648ZM68.528 324.639C68.6059 324.666 68.6844 324.692 68.7632 324.718C68.6844 324.692 68.6059 324.666 68.528 324.639ZM67.8085 324.363C67.923 324.412 68.039 324.459 68.1566 324.504C68.039 324.459 67.923 324.412 67.8085 324.363ZM66.0622 323.316C66.5085 323.697 67.0286 324.007 67.5933 324.267C67.0285 324.008 66.5087 323.697 66.0622 323.316ZM84.5549 323.801L84.5529 323.801C84.5086 323.801 84.4644 323.802 84.4201 323.802C84.465 323.802 84.5099 323.801 84.5549 323.801ZM148.737 317.594C148.495 319.305 148.752 321.225 150.521 322.014C151.026 320.344 150.552 318.205 148.737 317.594ZM396.17 310.02C397.124 311.939 398.034 313.911 399.084 315.839C398.034 313.911 397.124 311.939 396.17 310.021L396.17 310.02ZM98.5088 322.278C98.7152 322.351 98.9197 322.398 99.1226 322.424C98.9196 322.398 98.7152 322.351 98.5088 322.278ZM97.5694 321.788C97.6028 321.804 97.6362 321.823 97.6695 321.846C97.8388 321.961 98.0078 322.057 98.1744 322.137C98.0074 322.057 97.8383 321.961 97.6685 321.846C97.6355 321.824 97.6026 321.804 97.5694 321.788ZM131.89 320.451C132.738 320.61 133.546 320.823 134.294 321.094C133.546 320.823 132.738 320.61 131.89 320.451ZM97.2698 321.714C97.3129 321.714 97.3555 321.72 97.3981 321.729C97.3555 321.72 97.3129 321.714 97.2698 321.714ZM116.086 321.052C116.35 321.06 116.593 321.073 116.811 321.093C116.593 321.073 116.35 321.06 116.086 321.052ZM105.243 320.462C107.087 320.895 109.116 321.028 111.004 321.058L111.003 321.058C109.115 321.028 107.087 320.895 105.243 320.462ZM129.818 320.164C130.251 320.204 130.679 320.255 131.1 320.317C130.679 320.255 130.251 320.204 129.818 320.164ZM126.438 320.057C127.225 320.04 128.017 320.05 128.799 320.091C128.017 320.05 127.225 320.04 126.438 320.057ZM103.989 320.11C104.208 320.183 104.433 320.249 104.659 320.312C104.433 320.249 104.209 320.183 103.989 320.11ZM349.998 309.21C349.346 310.73 348.577 312.074 348.982 313.687L349.46 314.149C349.669 314.141 350.147 314.138 350.325 314.106C351.442 312.5 352.715 310.125 349.998 309.21ZM146.39 311.164C146.676 312.678 146.8 314.257 147.957 315.288L148.607 315.471C148.588 313.766 148.569 311.431 146.39 311.164ZM394.148 306.285C394.268 306.483 394.386 306.682 394.502 306.882C394.386 306.682 394.268 306.483 394.148 306.285ZM351.587 302.426C350.988 303.712 350.641 305.035 350.78 306.452C351.085 306.91 351.049 306.899 351.516 307.188C352.22 306.199 352.814 303.675 352.008 302.645L351.587 302.426ZM392.909 304.408C392.819 304.284 392.726 304.163 392.634 304.04C392.726 304.163 392.819 304.284 392.909 304.408ZM390.328 301.465C390.816 301.919 391.271 302.393 391.7 302.885L391.261 302.399C390.963 302.079 390.652 301.767 390.327 301.464L390.328 301.465ZM145.273 304.706C145.102 306.085 145.18 307.001 145.936 308.183L146.712 308.491C146.969 307.149 146.691 306.18 145.947 305.05L145.273 304.706ZM389.126 300.421C389.167 300.464 389.212 300.504 389.26 300.545C389.212 300.504 389.167 300.464 389.126 300.421ZM388.921 300.148L388.921 300.148L388.921 300.148ZM351.816 295.481C351.557 296.814 351.347 298.605 351.622 299.932C352.066 300.229 351.87 300.226 352.267 300.197C352.793 298.595 353.687 296.541 351.816 295.481ZM384.127 295.837C386.044 296.729 387.859 295.498 388.748 296.579C387.859 295.499 386.044 296.729 384.127 295.837ZM143.366 298.045C143.621 299.401 143.691 301.3 145.219 301.748C145.236 300.328 145.327 299.447 144.286 298.384C144.036 298.287 143.61 298.105 143.366 298.045ZM352.503 288.178C351.729 289.399 351.126 292.475 352.723 293.236C353.318 291.867 353.346 290.154 353.156 288.691C352.794 288.232 353.013 288.385 352.503 288.178ZM141.303 291.118C141.208 292.486 141.505 293.937 142.27 295.089L142.703 295.323L143.295 295.068C144.441 292.852 143.893 291.667 141.303 291.118ZM352.358 281.013C351.996 282.326 352.039 284.201 352.359 285.523C352.885 286.098 352.573 285.966 353.295 286.001C353.633 284.488 354.226 281.746 352.358 281.013ZM139.724 284.819C139.922 285.979 140.069 287.584 140.706 288.504L141.141 288.678C141.493 288.514 141.888 288.342 142.228 288.165C142.736 286.252 141.607 285.001 139.724 284.819ZM377.809 282.131C377.952 282.289 378.098 282.443 378.244 282.595C378.098 282.443 377.952 282.289 377.809 282.131ZM376.811 280.794C376.953 281.037 377.105 281.262 377.265 281.474C377.105 281.262 376.953 281.037 376.811 280.794ZM375.996 278.169C375.988 278.552 376.069 279.011 376.255 279.565C376.3 279.698 376.347 279.826 376.397 279.949C376.347 279.825 376.299 279.698 376.254 279.565C376.105 279.122 376.024 278.74 376.001 278.408L375.996 278.169ZM352.156 274.632C352.077 275.999 351.838 277.56 352.589 278.719L353.389 278.992C353.512 277.541 353.815 276.197 352.983 275.016L352.156 274.632ZM414.908 259.1C413.763 259.361 412.695 259.659 411.799 260.086C402.022 264.738 392.414 269.857 382.598 274.452C381.961 274.753 381.231 274.974 380.579 275.245C378.758 276.138 376.413 276.106 376.045 277.743L376.01 277.947C376.224 276.102 378.684 276.174 380.578 275.245C380.904 275.109 381.25 274.985 381.593 274.859C381.937 274.732 382.278 274.602 382.597 274.452C392.413 269.857 402.021 264.738 411.798 260.086C412.157 259.915 412.543 259.765 412.95 259.629C413.154 259.562 413.363 259.497 413.577 259.436C414.004 259.314 414.45 259.204 414.908 259.1ZM352.044 267.638C351.938 268.829 351.705 270.276 352.03 271.384L352.444 271.774L352.974 271.721C353.351 270.381 353.597 269.512 352.988 268.217C352.617 267.917 352.502 267.769 352.044 267.638ZM146.879 275.369C146.348 274.237 145.049 274.336 143.954 274.406C143.523 274.981 143.184 275.274 143.211 275.975C144.033 276.362 144.943 275.926 145.898 275.638L146.573 275.67L146.879 275.369ZM151.595 273.895C150.727 274.609 150.709 274.404 150.385 275.304C150.97 275.701 151.194 275.571 152.062 275.412C153.141 275.133 152.925 275.365 153.42 274.644C152.986 273.786 152.497 273.857 151.595 273.895ZM159.625 273.479C158.216 273.917 158.641 273.594 157.826 274.599L157.847 275.127C158.339 275.284 158.117 275.317 158.532 275.165C159.493 274.937 160.055 274.908 160.765 274.239L160.698 273.823C160.252 273.624 160.114 273.525 159.625 273.479ZM167.409 272.74C166.389 272.811 165.716 272.774 164.829 273.305L164.649 273.716C165.016 274.164 165.036 274.277 165.584 274.471C166.668 274.109 167.059 274.04 167.897 273.218L167.962 272.739L167.409 272.74ZM174.248 271.713C173.253 271.96 172.769 271.993 172.068 272.766L172.164 273.107C172.376 273.112 172.904 273.139 173.081 273.102C174.148 272.989 174.552 273.024 175.366 272.286L175.341 271.959C174.767 271.756 174.831 271.717 174.248 271.713ZM181.488 270.217C180.65 270.639 180.081 270.824 179.521 271.567L179.707 271.875L180.574 271.892C181.585 271.683 182.088 271.674 182.774 270.882L182.706 270.503C182.146 270.263 182.113 270.205 181.488 270.217ZM189.065 268.301C188.118 268.789 187.408 269.077 186.68 269.871L186.649 270.271C187.217 270.506 187.263 270.453 187.862 270.385C189.034 270.147 189.439 270.14 190.311 269.276L190.437 268.872C190.014 268.353 189.779 268.335 189.065 268.301ZM196.279 266.134C194.854 266.657 194.571 266.724 193.469 267.754L193.264 268.333C193.856 268.797 193.665 268.652 194.601 268.66C195.624 268.22 196.511 267.92 197.299 267.125L197.4 266.638C196.89 266.208 196.938 266.208 196.279 266.134ZM351.719 260.136C351.629 261.575 351.381 263.353 352.034 264.628C352.509 264.819 352.395 264.826 352.884 264.864C353.354 263.102 353.165 262.129 352.391 260.514L351.719 260.136ZM211.42 262.167C210.94 262.015 210.974 262 210.494 262.137C209.098 262.487 208.851 262.524 207.718 263.403L207.529 263.879C208.026 264.068 207.831 264.053 208.355 263.988C209.54 263.531 210.357 263.292 211.345 262.49L211.42 262.167ZM440.341 248.925C438.738 250.489 436.453 251.335 434.325 252.242C430.678 253.797 426.09 255.035 422.559 256.926C421.541 257.471 420.388 257.852 419.197 258.158L418.478 258.332C418.959 258.22 419.437 258.099 419.906 257.963C420.257 257.862 420.604 257.752 420.942 257.631C421.507 257.43 422.049 257.199 422.558 256.926C424.324 255.981 426.354 255.198 428.398 254.458C429.676 253.995 430.959 253.549 432.187 253.09C432.924 252.814 433.641 252.534 434.325 252.242C436.175 251.453 438.144 250.71 439.68 249.501C439.757 249.441 439.833 249.379 439.908 249.317C439.982 249.254 440.056 249.19 440.128 249.125L440.341 248.925ZM217.077 259.453C216.087 259.743 215.462 259.792 214.878 260.602L214.766 261.183C215.374 261.746 215.527 261.781 216.529 261.743L216.81 261.731C217.832 261.332 218.041 261.34 218.577 260.465L218.601 259.941C217.877 259.371 218.141 259.545 217.077 259.453ZM349.635 251.064C349.071 251.485 348.353 251.88 348.179 252.514C349.505 252.86 350.161 252.386 351.265 252.931C351.707 253.882 350.782 255.399 351.624 257.771L352.076 258.152C352.871 257.613 352.438 254.789 352.369 253.769C351.45 252.446 351.109 251.603 349.635 251.064ZM225.753 257.804C224.994 257.354 223.774 257.554 222.896 257.648C222.24 258.266 222.299 258.022 222.202 258.739C223.033 259.146 224.024 258.826 224.904 258.598L225.656 258.167L225.753 257.804ZM309.294 255.577C308.28 253.956 307.191 254.211 305.352 254.441C306.161 256.135 307.529 255.966 309.294 255.577ZM316.478 254.646C315.475 253.809 314.182 254.139 312.801 254.259L312.613 254.275C312.762 255.258 312.571 254.959 313.231 255.528C314.271 255.806 315.395 255.555 316.473 255.403L316.478 254.646ZM301.743 255.67C301.242 253.992 299.354 254.354 297.771 254.36C298.437 256.048 300.156 255.731 301.743 255.67ZM232.341 255.33C231.23 255.64 230.378 255.769 229.598 256.626L229.523 257.121L229.754 257.355L230.32 257.189C231.328 256.84 232.34 256.569 233.159 255.89L233.14 255.49C233.051 255.471 232.456 255.331 232.341 255.33ZM323.657 254.233C322.851 253.623 320.67 253.85 319.602 253.9C320.181 255.688 322.062 255.212 323.493 254.742L323.657 254.233ZM294.697 255.106C293.799 253.428 292.208 253.92 290.472 254.042C291.265 255.82 292.965 255.278 294.697 255.106ZM285.124 253.558C284.389 253.556 283.656 253.627 282.934 253.769C283.996 254.982 285.717 254.87 287.185 254.399C286.52 253.735 286.269 253.551 285.124 253.558ZM344.818 251.876C343.912 251.422 342.879 251.558 341.861 251.672C341.195 252.28 341.321 251.933 341.272 252.662C342.179 253.248 343.467 253.028 344.548 252.921L344.933 252.349L344.818 251.876ZM239.558 253.123C238.626 253.666 237.724 254.094 237.016 254.889L237.017 255.295C237.542 255.464 237.377 255.459 237.91 255.46C238.865 255.088 239.644 254.872 240.367 254.137L240.47 253.656C240.068 253.268 240.095 253.217 239.558 253.123ZM275.39 252.86C276.054 254.83 277.784 254.284 279.655 254.182C278.929 252.619 276.967 252.864 275.39 252.86ZM268.079 251.757C267.806 252.763 267.762 252.4 268.044 253.317C268.998 254.009 270.206 253.788 271.401 253.708C271.46 252.756 271.572 253.103 271.066 252.366C270.062 251.812 269.234 251.85 268.079 251.757ZM263.368 252.105C262.296 251.523 261.519 251.625 260.287 251.724C260.222 252.72 260.102 252.363 260.657 253.085C261.624 253.64 262.677 253.636 263.79 253.704C263.797 252.552 263.94 252.945 263.368 252.105ZM246.259 251.964C245.741 251.994 245.223 252.037 244.707 252.093C244.239 252.929 244.248 252.62 244.419 253.384C245.411 254.174 246.643 253.779 247.741 253.448C248.407 252.838 248.253 253.194 248.363 252.421C247.803 251.919 247.003 251.929 246.259 251.964ZM252.91 251.453C252.454 252.175 252.49 251.9 252.495 252.662C253.481 253.389 255.009 253.149 256.291 253.095C256.18 252.149 256.342 252.506 255.666 251.81C254.643 251.418 253.989 251.471 252.91 251.453ZM441.858 246.71L441.859 246.711C441.573 247.395 441.193 247.984 440.743 248.5C441.129 248.058 441.462 247.561 441.73 246.997C441.774 246.904 441.817 246.808 441.858 246.71ZM443.637 236.791L443.686 238.92C442.948 240.15 442.917 243.098 442.351 245.32L442.21 245.818C442.412 245.174 442.554 244.442 442.672 243.695C442.82 242.762 442.931 241.804 443.077 240.962C443.164 240.456 443.263 239.992 443.39 239.6C443.411 239.534 443.433 239.471 443.456 239.41C443.524 239.226 443.6 239.061 443.685 238.919L443.636 236.792C443.579 236.777 443.523 236.76 443.467 236.745C443.523 236.76 443.58 236.776 443.637 236.791ZM441.66 236.141C442.031 236.29 442.424 236.431 442.845 236.563C442.424 236.431 442.031 236.29 441.66 236.141ZM439.99 235.339C440.269 235.496 440.561 235.647 440.868 235.793C440.561 235.647 440.269 235.496 439.99 235.339ZM438.436 234.346C438.699 234.531 438.967 234.712 439.244 234.89C438.967 234.712 438.699 234.531 438.436 234.346ZM434.694 231.641C434.835 231.73 434.97 231.822 435.105 231.911C434.97 231.822 434.835 231.73 434.694 231.641ZM432.512 230.443C433.1 230.719 433.633 231.003 434.124 231.292C433.633 231.003 433.1 230.719 432.511 230.443C432.419 230.401 432.327 230.362 432.235 230.321C432.327 230.362 432.42 230.401 432.512 230.443ZM428.291 228.76C428.679 228.895 429.068 229.036 429.459 229.182C429.068 229.036 428.679 228.895 428.291 228.76ZM417.065 225.458C420.211 226.449 423.37 227.182 426.644 228.216C425.28 227.785 423.935 227.406 422.603 227.039C421.538 226.746 420.481 226.46 419.428 226.161C418.638 225.937 417.851 225.706 417.065 225.458ZM413.134 224.045C413.503 224.198 413.871 224.341 414.239 224.481C413.871 224.341 413.503 224.198 413.134 224.045ZM409.509 222.305C409.929 222.537 410.346 222.76 410.764 222.968C410.346 222.76 409.929 222.537 409.509 222.305ZM406.766 220.622C407.47 221.102 408.172 221.538 408.868 221.942C408.438 221.693 408.004 221.433 407.572 221.156L406.766 220.622ZM406.135 220.272C406.263 220.333 406.38 220.392 406.486 220.451L406.634 220.537C406.494 220.452 406.326 220.364 406.135 220.272ZM403.51 219.291C403.943 219.429 404.347 219.565 404.718 219.698C404.347 219.565 403.943 219.429 403.51 219.291ZM401.033 218.561C401.41 218.665 401.777 218.768 402.133 218.871C401.777 218.768 401.41 218.665 401.033 218.561ZM397.82 217.721C398.062 217.781 398.303 217.841 398.542 217.901C398.303 217.841 398.062 217.781 397.82 217.721ZM391.482 216.263C392.115 216.398 392.77 216.542 393.438 216.691C392.77 216.542 392.115 216.398 391.482 216.263ZM387.895 215.537C388.142 215.584 388.401 215.634 388.67 215.686C388.401 215.634 388.142 215.585 387.894 215.537L387.895 215.537Z" fill="white"/>
<path d="M255.43 203.795C256.855 197.48 258.085 194.74 261.07 188.93C261.56 187.98 261.2 184.6 261.445 183.51C262.085 180.705 264.155 176.06 265.67 173.595C276.88 155.405 289.21 149.01 308.505 143.575C308.425 144.505 308.51 143.975 308.225 145.195C312.605 145.645 322.845 140.805 327.9 144.24L325.255 145.755L325.49 146.24C328.44 146 329.565 143.455 332.275 143.06C334.51 151.755 338.015 144.855 343.835 147.095C354.2 151.08 372.65 163.82 377.7 173.825C379.38 175.975 381.83 178.975 383.2 181.275C383.38 183.73 391.535 201.055 393.265 204.075C397.15 203.115 402.625 202.485 406.515 203.755C408.495 205.57 409.56 213.46 409.865 216.32C410.92 217.4 405.915 224.935 405.55 225.04C395.06 228.035 392.46 220.515 391.015 236.125C390.71 239.46 384.675 251.475 381.495 254.8L381.665 255.11L382.935 255.175C376.52 266.02 371.885 276.345 361.33 283.985C352.545 290.72 343.705 291.81 334.06 294.575C320.645 298.43 322.725 298.425 308.39 296.59L308.035 295.615C306.89 295.08 307.485 295.135 306.25 295.465L306.92 297.005L306.365 297.3C302.115 295.865 291.34 289.88 286.69 287.715C285.725 287.265 281.035 281.32 279.045 280.695L278.835 282.095L277.815 281.77C277.275 278.305 274.76 278.135 271.175 275.145L271.43 273.405L270.325 273.91C270.75 270.44 266.44 265.675 264.265 262.44C259.875 255.9 255.54 241.205 256.425 233.31C255.645 233.22 255.16 233.185 254.385 233.145C254.195 231.71 254.62 230.06 254.88 228.6C252.905 227.675 247.25 229.33 244.36 227.095C243.595 226.505 241.015 226.345 240.175 227.115C239.245 227.97 238.145 229.445 237.64 230.69C232.995 242.765 227.95 254.74 222.06 266.27C221.575 267.22 221.355 269.66 221.255 270.715C217.195 273.72 207.3 285.455 204.855 286.395L204.67 284.885C202.73 286.255 203.685 288.825 201.795 289.78C198.33 291.515 194.7 292.925 191.175 294.505C176.335 301.15 159.59 301.86 144.165 296.895C138.04 294.925 133.09 291.7 127.21 289.545C125.78 289.02 126.17 289.705 124.745 288.58L125.15 287.12L124.545 286.565C123.065 287.265 123.665 287.225 122.18 287.085C120.21 285.155 118.27 283.435 116.705 281.17L117.45 279.745C116.8 279.625 112.905 278.855 112.64 278.375C109.805 273.25 104.195 267.8 101.83 262.645C102.44 261.725 102.285 262.22 102.34 261.185C101.09 261.25 101.655 261.38 100.635 260.885C99.625 258.565 98.83 256.175 98.065 253.765C95.6 246 92.55 238.445 89.92 230.735C90.295 229.29 90.645 228.575 90.23 227.15C87.27 223.87 85.905 225.335 82.285 224.77C78.09 224.12 76.285 220.675 74 217.45C74.11 213.77 74.095 207.685 74.805 204.26C79.955 204.16 78.745 198.655 86.68 201.595C90.545 203.025 96.545 184.895 98.85 180.775C105.075 169.655 115.695 164.49 125.55 156.755C126.645 157.005 126.09 156.915 127.215 157.025C127.765 156.125 128.2 155.485 128.815 154.625L129.295 154.985L128.78 157.435L129.31 157.38L130.355 155.475C133.955 153.43 134.27 152.93 138.315 153.58L138.875 153.675L142.275 150.835C146.52 150.81 152.295 149.75 157.13 149.55L158.24 150.63C161.61 150.82 157.725 149.78 160.845 148.785L161.31 150.04C166.165 149.915 175.085 151.595 178.905 150.29C179.215 151.045 179.24 151.275 179.315 152.065C183.395 153.695 187.46 155.345 191.625 156.73C192.11 156.545 192.595 156.365 193.08 156.18C193.865 156.435 193.785 156.3 194.32 156.945C197.365 160.58 206.455 163.295 209.59 166.565C212.14 169.23 214.26 175.595 218.05 178.5C218.295 177.965 218.535 177.435 218.78 176.9C220.535 177.63 220.625 178.32 222.01 180.04C221.24 181.05 221.42 180.625 221.17 181.875C224.325 186.32 227.525 191.63 230.24 196.285C231.275 198.06 231.845 203.955 233.405 204.16C239.68 204.995 249.615 204.9 255.43 203.795Z" fill="#121211"/>
<path d="M383.199 181.274L381.104 182.669L380.459 182.409C379.739 179.269 376.774 175.764 376.609 174.754L377.699 173.824C379.379 175.974 381.829 178.974 383.199 181.274Z" fill="#474442"/>
<path d="M157.821 169.414C157.861 170.669 157.771 170.184 158.411 171.349C159.991 172.059 160.101 171.524 162.376 170.704C162.286 171.819 162.271 171.274 162.411 172.344C167.016 171.804 163.611 172.384 165.886 173.744L166.631 173.169L165.841 171.709L166.666 171.529C167.116 172.129 167.526 172.654 168.001 173.234C169.151 171.899 168.671 171.954 169.956 171.564L169.596 172.969C170.836 173.879 171.871 172.509 172.336 172.739C174.896 173.999 174.306 171.284 176.896 171.714L176.036 173.179C176.246 173.254 176.451 173.334 176.661 173.414C179.176 173.119 182.876 174.804 185.266 175.994C185.106 177.349 185.011 176.854 185.506 178.074L186.181 178.234C186.801 177.569 186.841 177.564 187.556 176.999L188.331 177.324L187.846 178.564L188.076 178.969L190.351 178.819C193.451 182.029 196.976 183.979 199.581 186.769C199.246 187.509 199.146 187.749 198.866 188.544C200.516 189.764 201.346 190.464 203.186 191.324C203.956 190.599 203.541 190.804 204.346 190.579L204.486 191.364C203.721 192.034 203.036 192.594 202.236 193.229L202.606 193.814C203.966 193.599 204.326 193.524 205.691 193.559C206.566 194.809 207.066 196.109 206.471 197.529L205.256 197.454C206.036 198.684 206.901 200.474 207.951 201.259L209.186 200.309L209.691 200.674L209.576 201.904C208.861 210.194 212.906 202.389 212.451 209.054C211.976 215.954 213.316 212.464 215.321 214.854L215.041 215.519L213.471 216.079C215.321 220.219 213.146 217.589 214.371 220.274C215.291 220.154 214.936 220.034 215.501 220.369C214.661 221.624 214.271 221.939 214.091 223.424C214.671 223.929 215.236 224.219 215.906 224.584C216.616 225.929 216.721 225.854 216.516 227.329C213.441 230.279 213.681 231.229 213.766 235.334C212.291 235.504 212.921 235.239 211.766 236.089L212.836 237.004L212.641 237.989L211.311 238.654C210.291 242.304 210.011 243.884 208.086 247.114L207.696 247.754L208.751 248.324C208.381 249.329 207.446 250.534 206.636 251.229C203.551 253.874 203.666 257.944 201.621 261.429C199.246 261.879 198.406 261.704 197.206 263.879L198.606 265.194L198.431 266.129C196.251 265.759 196.331 265.329 194.766 266.149C194.236 267.864 194.196 268.314 193.051 269.749C189.706 270.954 188.511 271.049 187.321 274.649C185.931 275.589 179.886 277.944 178.431 277.509C174.596 279.179 167.841 279.074 163.776 278.014L163.136 277.839L162.356 278.959C160.171 279.619 157.591 278.629 156.071 277.064C154.196 277.019 154.091 276.969 152.281 276.319L151.836 276.154C151.301 277.079 151.676 276.759 150.746 277.144C144.296 273.734 135.431 269.879 131.901 263.349C130.391 264.194 131.091 264.194 129.751 263.894C129.091 262.544 129.186 262.289 128.071 261.459L127.111 262.469L126.441 262.269C125.741 260.539 125.866 261.489 126.686 259.269C125.481 258.754 124.136 258.304 123.156 257.464L124.056 256.209L123.641 255.319L122.111 255.489C120.056 253.129 123.436 254.704 121.941 253.104C120.966 252.064 119.571 251.234 118.811 249.729C119.706 248.854 119.466 249.234 119.986 248.119L118.201 246.924C118.096 245.734 118.121 245.739 118.421 244.624C114.031 243.619 115.086 239.729 114.471 235.309L112.826 234.134L112.701 233.244C113.341 233.014 113.921 232.794 114.556 232.544L111.936 228.794C112.321 228.094 112.711 227.399 113.106 226.704C111.991 225.669 111.196 225.174 110.836 223.714C112.686 222.999 112.086 223.594 113.006 222.229C112.816 222.094 111.951 221.434 111.841 221.494C110.646 222.129 112.731 215.919 112.336 215.354C111.501 214.144 111.741 216.124 110.676 213.734C111.281 213.314 111.856 212.989 112.511 212.664L112.346 211.874L110.921 211.289L110.806 210.889C111.321 210.709 112.726 210.219 112.731 209.934C112.786 206.789 112.636 203.274 114.151 200.404C115.031 198.744 114.766 199.284 116.756 198.689C117.736 189.834 123.526 185.739 130.276 180.599L130.076 179.114C133.901 177.309 135.421 177.554 138.811 175.769C140.351 174.964 139.231 174.014 141.106 173.304L141.846 174.414L142.361 174.009C142.381 172.829 142.226 172.964 142.651 171.964C143.346 172.749 142.941 172.339 143.891 173.159C146.956 172.804 155.436 171.104 157.821 169.414Z" fill="#FEFEFE"/>
<path d="M165.333 213.02C167.748 214.34 169.858 212.57 173.168 213.325L173.428 214.044L172.278 215.96C173.498 216.075 173.133 214.77 175.103 213.5L176.468 214.74L177.883 213.78L178.518 214.215L177.678 215.445C178.728 216.385 178.703 216.235 180.048 216.755C181.073 218.37 183.558 222.965 183.323 224.845L181.808 224.465L181.388 225.18C181.763 226.085 182.093 226.91 182.428 227.835L180.798 228.71C181.883 230.395 182.843 231.135 182.043 233C180.783 232.89 180.828 232.875 179.598 233.145L179.108 235.07C176.938 238.335 164.383 236.465 162.638 234.14C163.033 232.915 162.883 233.545 163.083 232.26C162.778 232.075 162.478 231.89 162.178 231.695C160.133 230.35 159.728 229.64 159.258 227.355L160.388 226.265C160.223 224.59 159.798 222.67 159.468 220.99C161.318 217.59 166.778 217.455 165.333 213.02Z" fill="#121211"/>
<path d="M323.641 164.505L324.351 164.5C324.366 165.87 324.086 165.375 324.861 166.18C325.986 165.425 326.066 165.23 327.366 164.985L328.606 166.5C329.941 166.275 331.276 166.065 332.616 165.865C336.001 167.375 337.676 167.62 340.156 170.39L340.511 170.78C341.951 172.375 343.786 170.335 345.886 171.66L345.451 172.595C345.756 173.425 356.641 181.58 358.021 182.685C358.401 183.835 358.391 183.94 358.451 185.13C360.791 186.67 358.566 184.755 360.871 185.085C362.411 191.58 365.151 191.885 368.076 197.6C368.681 198.79 366.961 200.085 367.641 202.38C369.166 202.855 368.731 202.59 369.986 203.47C368.206 207.935 370.246 205.025 371.191 208.495L370.076 208.88C370.251 211.515 370.756 208.89 371.701 211.7C370.361 213.64 369.991 213.55 370.311 215.305C371.646 216.15 371.276 215.74 372.191 216.95C371.511 217.65 371.466 217.71 370.896 218.455C371.346 219.715 371.421 219.62 372.306 220.655L371.801 222.69C371.176 225.125 370.906 225.73 371.391 228.235C370.286 228.205 370.586 228.19 369.411 228.395L369.196 229.48L370.426 230.29L370.456 231.085L368.526 231.77C368.476 236.51 368.456 238.695 365.056 241.81C363.956 242.82 363.166 244.48 363.256 246.06L364.521 246.3C363.616 248.565 361.871 246.64 360.971 248.86C354.821 263.98 347.036 265.23 334.796 274.245C332.391 272.33 330.491 275.675 327.546 276.765C322.366 278.685 320.136 278.48 315.091 276.73L314.966 276.405C314.691 276.655 314.416 276.9 314.141 277.15L313.491 276.425L314.201 274.73L313.681 274.465C312.861 275.525 312.466 276.29 311.221 276.725C309.821 275.385 308.861 275.515 307.261 274.31L307.366 272.595C305.106 272.055 307.541 272.99 305.296 273.815L302.966 271.595L301.521 271.64L301.581 270.425L301.076 270.145L298.896 271.56C298.751 270.77 298.891 270.415 299.026 269.63L298.131 269C296.631 269.1 294.886 269.51 294.056 268.125L295.371 266.89C292.816 265.825 289.566 263.08 287.466 261.145C286.206 259.985 287.826 260.835 288.066 259.085C286.726 259.265 287.276 259.455 286.296 258.855L286.416 257.17L284.316 256.555C283.346 253.755 284.836 256.61 284.881 254.2L283.166 254.045C280.906 251.375 278.641 240.83 277.971 237.15L279.121 235.705C278.356 234.71 278.721 235.155 277.166 234.66C276.851 233.27 275.001 226.43 275.121 225.675C275.416 223.86 276.196 220.725 276.411 218.265C275.491 218.63 276.006 218.47 274.846 218.7L274.781 217.89C275.681 216.845 276.311 216.29 276.746 214.975C275.946 213.82 275.746 213.81 275.706 212.455C276.406 211.265 276.931 210.645 276.961 209.27L275.936 209.22C275.811 207.695 277.796 203.86 278.451 201.77L277.616 200.505C277.541 197.945 277.766 200.655 279.606 198.015L278.776 196.745C278.801 190.675 281.556 190.675 283.806 185.54C285.326 182.055 287.336 180.465 289.346 177.35L288.771 176.21L289.151 175.56L289.901 175.335C294.111 174.095 293.856 173.96 297.126 171.04C303.746 165.135 315.311 166.465 323.641 164.505Z" fill="#FEFEFE"/>
<path d="M320.897 209.279C321.692 208.889 321.227 208.989 322.312 209.164L322.617 210.369C323.787 210.754 324.172 210.784 325.397 211.014C325.337 212.034 325.352 211.479 325.372 212.679C326.792 214.139 325.927 213.614 328.242 213.954L328.697 214.584L327.732 215.854C327.902 217.789 330.122 218.764 330.622 220.179C332.552 225.614 324.037 236.139 318.497 235.689C315.327 235.949 311.897 234.419 309.207 232.689C308.097 231.974 309.537 232.444 309.407 230.284C308.572 230.134 307.882 229.989 307.062 229.809C305.932 227.724 307.107 228.149 306.977 224.949L305.547 223.934L305.597 222.879C306.342 222.544 306.832 222.299 307.547 221.904C307.302 213.499 310.597 215.104 316.587 210.954C318.562 209.584 318.312 209.734 320.897 209.279Z" fill="#121211"/>
</svg>
