<svg width="500" height="500" viewBox="0 0 500 500" fill="none" xmlns="http://www.w3.org/2000/svg">
<path d="M249.425 126.935C251.63 120.075 256.365 119.42 258.555 114.145L258.205 113.745L255.955 114.87C256.355 110.145 261.375 109.685 263.975 107L272.295 108.145C274.46 111.085 271.675 111.97 272.555 115.24C273.95 115.04 273.41 115.065 274.795 113.945C275.955 114.99 275.93 116.53 275.41 118.01C274.06 121.855 281.24 131.54 281.275 134.46C281.395 143.3 284.73 147.785 287.705 155.76C288.715 158.47 286.735 161.805 287.42 163.4C288.75 163.295 289.345 163.175 290.655 162.905L291.09 163.46C290.795 164.545 290.585 165.35 290.555 166.48C292.92 167.795 301.075 162.28 303.155 160.7C303.85 160.175 306.105 161.19 306.76 161.48C308.335 160.945 308.64 160.065 309.55 158.635C320.48 154.34 331.27 147.13 342.06 142.335C348.46 139.49 349.91 145.335 348.35 150.755L348.69 151.68L350.31 152.025C350.88 154.19 348.975 156.835 347.825 158.89C352.125 165.825 349.195 163.26 347.48 170.66C344.995 181.4 344.41 192.58 342.905 203.375C348.565 206.505 346.975 205.065 352.5 205.12C356.875 203.455 359.395 202.65 363.835 204.03C365.985 202.565 376.08 200.96 378.36 201.285L378.225 202.75L378.815 202.995C379.605 201.985 379.85 201.5 380.49 200.405L381.52 200.155C383.11 201.01 383.275 201.595 384.19 203.145C384.645 202.225 385.395 200.995 386.665 200.735C391.225 199.805 399.2 198.74 403.57 200.515C405.185 201.17 405.805 204.08 406.16 205.505C406.45 206.665 406.73 207.83 406.995 208.995C404.94 211.69 404.455 212.875 401.24 213.545C398.385 223.395 399.35 217.375 394.67 222.35L393.915 225.785C393.435 227.965 384.41 236.82 382.145 238.325C380.735 242.555 377.865 247.56 375.405 251.35L374.195 250.695L373.335 251.605C372.155 254.405 371.97 254.47 369.86 256.54L367.76 258.615C370.25 261.215 370.92 261.335 374.285 262.435C374.6 263.69 374.62 263.915 374.7 265.21C382.205 266.37 394.155 269.685 399.55 275.075C403.455 274.18 414.095 279.005 418.205 280.615C419.46 281.11 421.195 284.47 422.48 285.175C423.705 285.805 424.335 284.17 425.595 285.46C425.69 287.54 425.685 287.655 425.325 289.7C423.095 294.3 425.655 294.56 420.705 296.83C418.89 298.32 398.965 305.21 396.575 305.01L396.25 306L395.69 306.21C385.435 310.075 375.245 315.96 364.925 319.925C363.5 320.475 364.205 324.355 364.51 325.425C366.13 326.5 367.175 326.775 367.89 328.255L366.745 328.75C368.365 333.355 371.29 332 371.295 338.795L372.095 339.46C373.725 338.93 373.46 338.825 375.075 338.94L375.47 339.73C375.135 340.69 374.92 341.51 374.42 342.39C377.54 343.42 377.785 343.935 379.03 346.965L380.8 349.735C383.63 354.075 385.145 360.565 389.065 364.21C391.08 366.585 390.585 366.84 391.835 368.89C398.285 378.74 397.295 387.94 383.57 383.28C377.045 382.805 368.09 380.525 361.245 379.77C360.265 379.665 357.295 378.2 355.34 377.735L354.865 378.435L354.08 378.54C354.105 377.745 354.075 378.02 354.16 377.3L354.22 376.835C349.95 375.145 344.92 378.3 342.555 374.01L341.36 374.985C339.34 375.375 334.84 374.7 332.52 374.45L330.735 373.705C321.555 372.6 322.63 379.195 323.69 385.57C324.075 387.915 323.515 390.68 323.12 393.055C323.07 395.355 323.74 402.715 323.395 403.7C323.76 405.655 323.8 405.35 323.51 407.155C323.015 410.225 324.245 415.36 323.735 418.63C322.92 423.835 320.94 427.615 320.705 433.025L321.075 433.325L323.06 431.05C324.055 432.485 322.125 433.965 321.12 435.035C320.77 436.485 321.495 437.545 322.135 438.98L321.795 439.81C319.61 438.115 319.96 437.755 317.965 437.955C319.395 439.08 319.07 438.4 319.545 439.84C318.87 440.595 318.185 441.32 317.435 441.995C318.245 442.37 318.41 442.27 318.805 442.83C316.2 443.05 313.5 444.39 312.32 444.115C308.75 443.29 310.56 441.075 309.31 439.125C307.77 439.46 306.525 439.955 305.125 439.405C303.67 437.9 304.485 437.485 304 436.08C302.27 431.095 296.09 431.425 295.14 425.515L294.445 424.92L293.05 425.61C290.245 424.945 289.36 424.12 287.685 421.755C285.515 418.88 282.14 415.8 279.5 413.235C279.34 413.145 279.175 413.06 279.015 412.97C273.785 407.725 266.37 402.04 260.695 397.475C258.895 399.74 257.605 401.355 254.56 401.345L253.885 402.105C252.89 406.35 251.75 407.895 248.72 410.97C246.23 413.945 247.625 412.43 244.505 413.54C243.565 413.875 242.335 419.385 241.66 420.965C240.62 423.38 232.925 431.49 232.86 433.05C232.51 441.15 226.08 439.73 224.93 449.9C223.785 450.205 223.83 450.165 222.64 450.055C220.62 451.395 218.485 453.15 216.19 453.475C212.525 452.525 209.81 446.31 209.57 442.685C207.01 440.765 208.915 444.13 206.625 441.505C207.09 435.04 204.655 431.725 202.685 425.605C201.53 422.015 200.515 420.875 202.01 417.145C199.03 415.77 195.8 403.97 196.365 400.85L197.295 400.215L197.59 399.62L195.61 399.935C194.49 398.12 194.755 394.895 194.79 392.675C193.36 391.88 189.945 389.465 188.69 390.04C177.995 394.91 170.135 400.51 158.645 404.25C156.935 406.745 154.115 409.735 151.135 410.58C149.96 411.03 148.275 412.045 147.125 412.195C144.98 412.47 142.12 411.84 140.535 413.815C139.35 415.29 140.92 415.585 139.215 417.115C132.165 414.71 133.54 413.315 132.98 405.87C137.63 400.125 135.26 401.22 137.26 395.085C142.47 383.805 144.39 368.05 148.75 356.175C143.225 353.36 140.92 353.26 134.99 353.82C128.7 355.155 123.195 354.285 117.015 353.325C116.16 354.655 116.21 354.625 115.005 355.63L114.01 355.58C113.6 354.695 113.285 353.98 112.935 353.07C111.97 353.635 111.13 354.375 110.255 354.755L110.775 356.075C107.945 356.51 106.785 355.815 103.47 356.265C98.5447 357.46 94.1897 355.75 90.3897 355.75L90.2197 356.205L91.5597 357.01L91.4347 357.5C88.7097 358.055 87.0247 357.19 84.6747 355.885C83.6547 354.425 84.0997 351.615 84.1897 349.67C86.6347 345.785 90.8847 340.165 93.8247 336.66C96.6697 333.23 101.115 329.63 102.855 325.455C105.38 319.39 122.775 302.87 122.685 297.575L121.745 296.96C122.615 295.795 122.685 295.755 123.235 294.43C121.715 292.01 111.93 288.115 108.89 286.555C106.515 286.435 97.1147 276.55 96.7997 276.535C88.4797 276.15 85.7847 270.13 79.4447 266.195C74.3647 263.05 70.9547 258.23 77.9947 255.01C78.4697 253.155 78.0347 253.81 79.5497 252.47L80.0347 252.045C83.3997 249.05 89.4547 249.565 92.9047 246.32C93.8947 245.385 93.7397 245.495 94.9547 245.105C94.5047 246.165 94.1197 247.23 93.7847 248.33C96.0247 246.825 102.415 241.23 104.53 241.84C103.815 242.92 102.8 243.935 102.97 244.865C105.3 243.865 105.27 242.405 105.835 242.12C112.9 238.58 141.86 236.21 129.52 223.275C129.52 223.275 129.68 221.03 129.695 220.79C122.065 219.815 128.845 216.245 123.905 211.68C122.915 210.76 122.5 210.08 122.07 208.845C122.055 206.82 122.18 206.885 123.31 205.1C116.045 202.675 116.245 200.155 116.13 193L115.515 192.41L114.275 192.45C110.085 190.535 101.685 172.115 105.555 167.32C106.605 166.02 107.795 164.26 109.68 164.3C114.265 164.395 115.585 163.95 119.19 166.665C119.36 166.86 120.035 167.6 120.13 167.795C121.025 167.27 122.17 166.25 123.8 166.92C128.13 168.705 132.865 170.665 137.275 172.38C137.545 172.96 137.815 173.545 138.09 174.13C141.265 174.08 141.67 172.925 144.945 175.365C147.555 177.305 149.04 177.47 152.28 177.55C159.915 183.685 158.25 179.505 161.99 181.48C163.585 187.16 164.79 183.505 167.755 183.615L168.925 185.195C178.97 186.185 174.92 161.73 175.215 156.11C175.905 153.38 174.1 151.87 175 149.25C175.905 148.335 176.665 147.775 177.005 146.555C176.515 145.85 175.19 143.885 175.19 143.175C175.205 136.965 174.895 121.15 178.45 116.12C179.965 115.41 179.47 115.63 181.565 116.24L182.21 113.995C188.04 111.24 198.22 125.295 199.76 130.155C201.88 134.585 207.76 136.185 208.36 141.885L209.7 142.185C214.735 150.28 217.095 152.19 221.275 161.17C222.895 162.905 223.285 162.26 225.755 162.765C225.005 164.82 222.92 164.23 223.08 165.885C225.855 166.335 228.2 162.87 230.375 161.14C231.73 159.31 234.91 155.18 236.005 153.32C237.77 150.64 238.905 145.575 240.505 143.04C243.145 138.855 246.01 129.705 249.425 126.935Z" fill="#FD235B"/>
<path d="M175.218 156.111C176.023 157.541 176.533 158.596 177.538 159.896C177.673 163.566 177.708 166.976 177.583 170.586C177.458 174.321 175.998 179.276 177.603 182.526C178.418 184.176 178.808 184.041 178.348 185.746L177.593 185.906L177.253 185.496C176.713 184.861 176.933 185.111 176.233 184.386C174.288 184.641 172.758 185.586 171.303 186.896C167.948 186.751 166.608 185.921 163.428 185.606C161.503 185.416 159.708 186.146 158.148 185.171L157.558 183.701L156.028 183.536L155.918 184.971L155.278 185.451C153.323 184.051 154.123 180.321 150.478 179.131C145.343 177.456 138.163 177.461 132.908 177.951L132.518 177.386C133.448 175.341 133.753 175.631 133.208 174.096C127.913 170.756 125.153 174.206 120.133 167.796C121.028 167.271 122.173 166.251 123.803 166.921C128.133 168.706 132.868 170.666 137.278 172.381C137.548 172.961 137.818 173.546 138.093 174.131C141.268 174.081 141.673 172.926 144.948 175.366C147.558 177.306 149.043 177.471 152.283 177.551C159.918 183.686 158.253 179.506 161.993 181.481C163.588 187.161 164.793 183.506 167.758 183.616L168.928 185.196C178.973 186.186 174.923 161.731 175.218 156.111Z" fill="#EE4177"/>
<path d="M379.03 346.967L380.8 349.737C383.63 354.077 385.145 360.567 389.065 364.212C391.08 366.587 390.585 366.842 391.835 368.892C398.285 378.742 397.295 387.942 383.57 383.282C387 378.767 386.515 382.487 391.12 381.152C392.195 379.287 392.51 376.937 390.53 375.587C388.27 376.122 388.05 376.272 386.545 374.702L386.82 373.877L387.755 373.812C388.41 373.177 388.875 372.677 389.485 372.012C388.665 368.997 386.79 371.052 385.54 365.517C384.23 365.177 383.82 365.102 382.61 364.532C380.8 362.062 380.715 360.117 380.185 357.057C380.925 351.512 377.63 351.137 379.03 346.967Z" fill="#EE4177"/>
<path d="M230.375 161.141C231.73 159.311 234.91 155.181 236.005 153.321C237.77 150.641 238.905 145.576 240.505 143.041C243.145 138.856 246.01 129.706 249.425 126.936C248.43 130.161 247.02 132.831 246.55 135.996C246.995 136.766 247.305 137.361 247.62 138.201C245.28 142.186 241.325 144.651 239.525 148.181C236.92 153.281 243.44 156.941 234.22 158.611C233.36 159.721 233.355 161.441 233.165 162.926C231.24 162.501 232.475 161.951 230.375 161.141Z" fill="#EE4177"/>
<path d="M318.276 410.936C322.061 408.191 322.446 408.336 323.396 403.701C323.761 405.656 323.801 405.351 323.511 407.156C323.016 410.226 324.246 415.361 323.736 418.631C322.921 423.836 320.941 427.616 320.706 433.026L321.076 433.326L323.061 431.051C324.056 432.486 322.126 433.966 321.121 435.036C320.771 436.486 321.496 437.546 322.136 438.981L321.796 439.811C319.611 438.116 319.961 437.756 317.966 437.956C316.471 429.631 320.011 428.271 321.501 420.531C322.251 416.631 320.636 413.966 318.276 410.936Z" fill="#EE4177"/>
<path d="M115.516 192.411L114.276 192.451C110.086 190.536 101.686 172.116 105.556 167.321C106.606 166.021 107.796 164.261 109.681 164.301C114.266 164.396 115.586 163.951 119.191 166.666C114.221 167.111 108.471 162.836 106.241 170.786C106.786 172.506 109.391 180.251 110.386 181.586C112.666 184.636 113.996 190.096 115.516 192.411Z" fill="#EE4177"/>
<path d="M137.26 395.086C139.71 400.751 135.295 404.231 138.01 406.481L140.675 406.901C140.055 408.846 137.785 407.786 137.105 411.896L137.651 412.656C140.191 412.546 142.22 410.591 144.12 409.856C143.3 410.171 151.19 410.586 151.135 410.581C149.96 411.031 148.275 412.046 147.125 412.196C144.98 412.471 142.12 411.841 140.535 413.816C139.35 415.291 140.921 415.586 139.216 417.116C132.166 414.711 133.54 413.316 132.98 405.871C137.63 400.126 135.26 401.221 137.26 395.086Z" fill="#EE4177"/>
<path d="M384.191 203.146C384.646 202.226 385.396 200.996 386.666 200.736C391.226 199.806 399.201 198.741 403.571 200.516C405.186 201.171 405.806 204.081 406.161 205.506C406.451 206.666 406.731 207.831 406.996 208.996C404.941 211.691 404.456 212.876 401.241 213.546C401.906 210.711 405.566 208.251 404.501 204.946C403.306 203.556 399.931 202.156 398.171 202.346C397.716 204.101 398.046 203.656 397.051 204.996L396.251 204.886C395.506 203.746 395.476 203.411 394.321 202.781C393.786 203.556 393.411 204.031 392.806 204.761L392.121 204.496L391.626 202.466L390.976 202.361C388.441 203.461 386.786 204.511 384.191 203.146Z" fill="#EE4177"/>
<path d="M399.551 275.077C403.456 274.182 414.096 279.007 418.206 280.617C419.461 281.112 421.196 284.472 422.481 285.177C423.706 285.807 424.336 284.172 425.596 285.462C425.691 287.542 425.686 287.657 425.326 289.702C424.281 288.927 424.391 288.912 423.681 287.807C422.976 289.212 422.286 289.147 420.926 289.547C417.071 286.547 419.576 285.837 417.211 283.767C412.256 283.802 414.431 281.747 413.146 280.957C408.486 278.097 403.646 280.177 399.551 275.077Z" fill="#EE4177"/>
<path d="M181.566 116.24L182.211 113.995C188.041 111.24 198.221 125.295 199.761 130.155C196.121 128.545 191.021 121.025 188.681 117.675C187.611 116.14 183.316 119.155 181.566 116.24Z" fill="#EE4177"/>
<path d="M321.857 374.197C323.342 372.462 324.162 371.717 325.882 370.182L330.737 373.707C321.557 372.602 322.632 379.197 323.692 385.572C324.077 387.917 323.517 390.682 323.122 393.057C321.887 391.807 320.462 390.777 320.027 389.282C320.342 388.977 321.357 388.027 321.377 387.612C321.562 383.092 321.457 378.732 321.857 374.197Z" fill="#EE4177"/>
<path d="M279.5 413.237C281.67 413.017 282.175 412.787 284.06 413.662C285.865 415.592 286.15 417.187 287.64 418.967C289.22 418.757 291.115 418.277 292.47 418.947C293.025 421.162 292.11 422.227 293.245 424.102L294.445 424.922L293.05 425.612C290.245 424.947 289.36 424.122 287.685 421.757C285.515 418.882 282.14 415.802 279.5 413.237Z" fill="#EE4177"/>
<path d="M208.362 141.887L209.702 142.187C214.737 150.282 217.097 152.192 221.277 161.172C217.087 159.212 220.472 161.687 216.652 160.902L216.512 160.212C217.802 159.402 218.027 159.502 218.702 158.287C216.702 155.037 213.437 148.972 209.512 148.427C207.867 148.702 207.472 149.302 206.252 150.452L205.807 150.872C205.072 149.912 208.307 146.097 208.707 144.822C208.707 144.822 208.387 142.117 208.362 141.887Z" fill="#EE4177"/>
<path d="M123.311 205.102C129.466 211.532 126.131 213.602 129.696 220.792C122.066 219.817 128.846 216.247 123.906 211.682C122.916 210.762 122.501 210.082 122.071 208.847C122.056 206.822 122.181 206.887 123.311 205.102Z" fill="#EE4177"/>
<path d="M77.9961 255.01C78.4711 253.155 78.0361 253.811 79.5511 252.471L80.0361 252.045C83.4011 249.05 89.4561 249.565 92.9061 246.32C93.8961 245.385 93.7411 245.495 94.9561 245.105C94.5061 246.165 94.1211 247.231 93.7861 248.331C91.6111 249.186 91.4011 248.81 90.6311 250.35C91.0411 252.34 91.3061 251.62 90.4911 252.855C89.2811 252.48 88.5561 251.615 87.6061 250.735C86.3811 251.515 86.4411 251.845 85.6661 253.23C83.3311 253.905 82.0511 252.52 80.2411 253.165C77.8711 254.005 81.0111 254.92 77.9961 255.01Z" fill="#EE4177"/>
<path d="M202.011 417.147C199.031 415.772 195.801 403.972 196.366 400.852L197.296 400.217C197.991 403.987 199.706 406.837 201.041 410.362C201.786 412.337 201.736 414.957 202.011 417.147Z" fill="#EE4177"/>
<path d="M117.016 353.326C120.411 351.016 123.236 354.036 125.766 352.816C126.331 352.201 126.816 351.421 127.441 351.321C128.361 351.176 134.416 353.476 134.991 353.821C128.701 355.156 123.196 354.286 117.016 353.326Z" fill="#EE4177"/>
<path d="M420.927 289.547C422.287 289.147 422.977 289.212 423.682 287.807C424.392 288.912 424.282 288.927 425.327 289.702C423.097 294.302 425.657 294.562 420.707 296.832C420.602 294.512 420.752 291.867 420.927 289.547Z" fill="#EE4177"/>
<path d="M352.5 205.121C356.875 203.456 359.395 202.651 363.835 204.031C360.145 207.001 356.835 207.486 352.5 205.121Z" fill="#EE4177"/>
<path d="M367.761 258.615C366.936 257.37 366.881 256.22 366.621 254.74C367.906 251.33 369.926 253.465 373.336 251.605C372.156 254.405 371.971 254.47 369.861 256.54L367.761 258.615Z" fill="#EE4177"/>
<path d="M248.721 410.971C247.826 405.801 249.456 404.29 253.886 402.105C252.891 406.35 251.751 407.896 248.721 410.971Z" fill="#EE4177"/>
<path d="M332.52 374.451C336.045 373.721 338.975 370.986 341.68 372.361L342.555 374.011L341.359 374.986C339.339 375.376 334.84 374.701 332.52 374.451Z" fill="#EE4177"/>
<path d="M103.473 356.266C102.858 356.206 103.243 356.276 102.363 355.881C102.978 354.416 104.188 352.981 105.778 352.676C107.183 355.116 107.378 354.451 110.258 354.756L110.778 356.076C107.948 356.511 106.788 355.816 103.473 356.266Z" fill="#EE4177"/>
<path d="M259.13 289.961C261.825 291.136 267.2 292.351 270.435 293.396C275.59 299.396 276.185 294.476 278.26 297.361L277.16 298.811L277.695 299.401C278.63 298.776 279.025 298.586 280.04 298.096C281.52 298.371 292.925 305.976 293.98 307.246C293.455 314.061 303.71 313.296 303.52 320.871C303.5 321.576 308.69 324.786 308.89 326.571C309.305 330.231 307.545 337.006 306.245 340.096C304.3 339.916 304.365 339.896 302.475 340.351C301.475 341.531 301.805 340.821 301.845 342.696L301.21 343.111C289.315 344.316 293.555 340.586 289.29 337.646C288.29 338.511 288.335 338.586 287.1 338.991C283.5 337.031 280.19 332.226 276.995 329.721C276.295 329.176 271.175 328.276 270.83 327.516C270.255 326.241 271.095 325.711 269.485 324.691C268.005 325.266 268.365 325.411 267.425 327.301C264.855 327.506 258.11 323.341 253.765 323.151C252.265 324.091 251.51 324.761 249.745 324.946L249.37 324.311C250.61 323.481 250.705 323.421 251.735 322.346L251.34 321.991L250.355 322.066C249.19 323.141 248.945 323.431 247.565 324.271C246.68 324.346 245.7 324.421 244.96 323.811C243.255 322.396 240.32 324.216 238.33 324.426C234.07 324.871 234.61 325.091 231.35 323.076C229.455 323.576 222.805 328.661 221 330.026C219.705 329.631 221.135 329.341 219.94 327.246C216.65 330.086 203.71 341.861 199.275 344.501C198.465 344.986 197.4 341.601 192.645 342.436C191.565 341.916 190.54 341.551 189.425 341.131C189.335 339.596 189.32 339.176 189.46 337.586L191.4 337.536L191.545 337.031C190.115 336.176 190.05 336.331 189.06 335.041C189.735 333.906 190.73 332.686 189.575 331.571L188.085 332.636L187.785 331.746C187.935 330.436 188.2 330.086 189.09 329.131C192.66 325.296 189.575 326.506 190.675 323.596C191.91 323.431 191.495 323.561 192.645 323.011L191.985 321.541L192.36 320.856C193.575 321.006 193.185 321.026 194.32 320.821L194.47 319.756L193.255 318.396L193.965 316.941C195.51 315.956 194.665 316.156 196.615 316.511C198.02 316.041 202.97 310.056 205.015 308.376C206.345 308.961 205.83 308.871 207.255 308.941C209.445 305.811 206.49 308.836 207.42 305.661L208.93 306.016L209.535 305.581L208.765 304.421C212.935 299.486 220.69 299.276 224.885 296.306C225.03 295.181 225.02 295.131 225.435 294.086C226.71 293.666 228.275 293.586 229.51 294.041C231.99 294.956 234.335 294.006 237 293.256L236.94 293.426C238.075 293.166 245.035 291.446 245.605 291.446C249.33 291.421 253.455 292.551 257.49 291.816C258.175 290.486 257.87 290.966 259.13 289.961Z" fill="#000101"/>
<path d="M275.911 242.997C276.906 244.187 277.196 244.222 277.286 245.697L275.796 244.577L275.191 245.007C277.176 248.867 280.911 246.562 280.126 249.957L281.081 250.482C282.291 249.907 281.871 250.187 282.781 249.152C284.826 249.207 289.301 249.537 291.036 248.972C293.256 245.327 290.656 246.927 292.596 243.812L294.486 243.802C296.401 241.172 293.466 238.297 296.066 237.167L299.176 238.282L299.371 237.902L298.221 236.427L298.741 235.997C299.641 236.377 300.391 236.717 301.271 237.147C302.166 236.642 302.631 236.362 303.461 235.762C305.096 236.162 304.981 236.172 306.281 237.272L305.706 237.442L306.201 237.062L306.026 236.892L305.781 237.427L303.306 237.397C303.841 238.742 306.511 239.367 306.901 241.472C306.981 241.907 308.096 243.422 308.391 243.837L308.886 243.712C309.321 242.162 309.251 242.107 309.216 240.467C310.251 243.797 308.981 254.897 308.046 258.817C307.841 259.667 307.051 260.007 306.311 260.287L306.146 259.492C307.871 256.962 308.166 257.392 307.996 254.872L307.396 254.437C305.811 255.777 303.501 263.317 300.631 264.562L300.256 264.122L300.761 262.452C300.146 262.927 296.931 265.582 296.516 265.812C293.766 267.342 290.216 266.927 287.331 268.467L286.146 267.822C283.156 268.757 279.041 272.302 277.136 266.427L276.101 265.452C271.121 265.587 271.446 266.807 267.956 261.687C263.306 260.652 262.301 260.357 261.596 255.542C262.126 252.317 261.911 255.957 264.746 252.927C265.141 251.317 265.191 251.422 264.761 249.837C263.466 249.477 263.471 249.642 262.116 249.817C261.286 248.422 261.921 247.487 261.831 245.212L260.556 245.082L260.316 244.442C261.626 243.637 261.576 243.702 262.541 242.517L261.336 239.287L261.836 239.047C263.501 240.182 263.606 240.332 265.596 240.422C264.166 238.397 263.986 238.847 264.046 236.872C265.921 235.877 267.161 236.867 268.856 237.892L269.536 237.507L268.821 236.207C271.886 236.587 275.406 239.757 275.911 242.997Z" fill="#000101"/>
<path d="M265.595 240.42C264.165 238.395 263.985 238.845 264.045 236.87C265.92 235.875 267.16 236.865 268.855 237.89L269.535 237.505L268.82 236.205C271.885 236.585 275.405 239.755 275.91 242.995C274.525 241.915 273.375 240.24 271.785 240.115L271.435 240.51C268.245 244.095 268.99 240.225 265.595 240.42Z" fill="#32090A"/>
<path d="M277.137 266.426C280.747 267.321 279.342 266.681 282.927 266.186L283.387 266.436C284.302 266.931 285.217 267.371 286.147 267.821C283.157 268.756 279.042 272.301 277.137 266.426Z" fill="#181313"/>
<path d="M261.598 255.541C265.328 257.316 265.903 258.066 267.958 261.686C263.308 260.651 262.303 260.356 261.598 255.541Z" fill="#DA1D4E"/>
<path d="M207.712 242.195C218.597 245.795 217.802 253.995 215.692 263.425C214.537 263.15 215.152 263.255 213.852 263.145C212.642 265.34 214.382 264.89 213.367 267.125C210.417 266.56 208.317 269.75 206.397 272.055C206.387 274.73 206.527 274.3 204.102 275.345C204.587 274.2 204.612 274.75 204.297 273.67L202.822 273.24C201.042 273.93 201.812 273.395 200.592 275.1L200.727 275.81C201.772 275.225 201.687 275.235 202.882 275.225C201.942 275.89 200.242 276.745 199.057 276.195C196.057 274.805 189.667 278.3 187.207 275.785L188.852 274.745L188.702 274.27C187.167 273.965 186.527 274.415 185.057 275.005L184.487 275.24L183.787 274.795C183.497 273.28 183.522 272.96 182.792 271.575L182.077 272.575L181.112 272.57C177.787 270.815 177.102 270.08 175.792 266.59C174.627 266.92 175.017 266.935 173.957 268.175L173.122 268.025C170.462 264.92 167.967 252.675 170.252 249.725L170.902 251.325L171.467 251.455L171.942 250.53C171.512 249.48 171.387 249.12 171.107 248.02L171.717 247.16C176.857 246.28 173.047 245.985 175.772 244.48C179.157 245.85 180.497 244.26 182.832 245.3C183.227 246.99 182.747 247.03 181.762 249.075L182.392 249.685C183.457 248.675 182.977 248.925 184.312 248.47C185.742 249.805 185.352 249.03 185.767 250.735L184.652 251.9L184.867 252.615C187.137 254.495 195.287 259.485 197.062 257.23C201.687 251.36 200.467 246.745 207.712 242.195Z" fill="#000101"/>
<path d="M219.842 142.571C219.959 142.384 220.073 142.195 220.188 142.007C221.503 131.903 225.295 123.499 228.767 114.257C232.726 103.721 232.627 98.9929 240.07 89.8577C245.842 82.7734 249.411 76.324 258.16 71.9503C269.217 64.868 282.134 67.4544 294.367 64.6925C296.171 64.5126 298.738 65.7425 300.4 65.7235C319.993 65.5009 336.186 76.9376 353.084 85.2681C367.214 92.2347 377.027 115.046 375.263 130.799C373.353 147.853 367.942 166.222 364.063 183.092C367.615 187.738 370.827 193.009 367.986 199.306C367.102 198.707 367.503 198.727 366.664 198.756C366.576 199.293 366.479 199.828 366.365 200.359C364.136 210.489 348.349 220.738 339.034 221.982C337.528 222.184 334.965 222.841 333.52 222.527C333.238 222.02 333.071 221.732 332.753 221.241C329.357 223.741 325.974 219.929 322.42 220.267C312.719 221.191 303.735 219.824 294.605 216.424L292.238 217.46C289.771 216.138 288.685 215.619 285.965 214.895C281.48 213.701 276.99 212.449 272.514 211.207C270.092 210.534 267.762 209.188 265.345 208.455C258.479 206.846 251.904 204.455 245.211 202.269C245.046 201.257 245.207 201.516 244.727 200.719L243.715 202.075L243.326 201.902C243.143 201.316 242.96 200.733 242.768 200.152C242.472 200.49 242.212 200.776 241.908 201.102C240.132 200.833 238.431 199.134 236.839 198.51C231.069 196.246 226.069 193.447 221.181 189.477C219.616 188.207 214.588 182.565 214.223 180.44C214.069 179.468 214.372 179.949 213.846 179.152C208.713 171.38 206.936 158.878 210.586 149.948C212.146 146.132 216.325 143.868 219.842 142.571Z" fill="#0167FC"/>
<path d="M219.842 142.571C220.727 143.098 229.155 144.56 231.296 145.107C239.191 146.984 247.12 148.526 254.974 150.624C256.404 151.006 256.977 150.469 259.231 151.213C267.096 153.81 275.372 156.182 283.388 158.232C283.478 158.978 283.455 158.628 283.086 159.478C285.085 160.238 287.35 159.606 289.564 160.393C293.767 161.887 298.125 163.421 302.459 164.478C304.117 164.883 307.612 165.081 308.984 165.932C309.349 166.157 309.477 166.67 309.826 166.914C310.638 167.477 313.954 167.599 315.201 167.89C320.835 169.209 341.853 174.488 344.87 177.699C345.628 178.505 346.399 179.286 347.147 180.102L347.538 179.911C347.257 178.925 347.293 178.964 346.707 178.15C349.501 179.059 352.574 180.238 355.314 181.032C358.202 181.868 361.063 182.211 364.063 183.091C367.616 187.738 370.827 193.008 367.986 199.306C367.102 198.706 367.504 198.726 366.664 198.756C366.577 199.292 366.479 199.827 366.365 200.359C364.136 210.489 348.35 220.738 339.034 221.982C337.528 222.183 334.966 222.841 333.52 222.526C333.238 222.02 333.071 221.731 332.753 221.24C329.357 223.741 325.974 219.929 322.421 220.267C312.72 221.19 303.735 219.824 294.605 216.424L292.238 217.46C289.771 216.137 288.685 215.619 285.965 214.895C281.48 213.701 276.99 212.449 272.515 211.206C270.092 210.534 267.762 209.187 265.346 208.455C258.48 206.846 251.905 204.455 245.211 202.268C245.047 201.256 245.207 201.515 244.727 200.719L243.716 202.075L243.326 201.901C243.144 201.316 242.96 200.733 242.769 200.152C242.473 200.49 242.212 200.776 241.909 201.101C240.133 200.832 238.431 199.134 236.839 198.51C231.069 196.246 226.069 193.447 221.181 189.477C219.616 188.207 214.589 182.565 214.223 180.44C214.07 179.468 214.373 179.949 213.846 179.152C208.713 171.38 206.936 158.878 210.586 149.948C212.146 146.132 216.325 143.868 219.842 142.571Z" fill="#121211"/>
<path d="M296.535 102.48L296.97 102.403C297.853 103.27 301.608 103.605 302.905 104.247C310.886 108.197 323.062 107.946 328.824 115.551C328.774 116.005 328.79 116.328 328.55 116.681C328.045 117.431 329.638 120.455 329.228 121.681C328.43 124.064 327.131 124.261 326.851 126.854C326.475 129.235 326.764 133.56 325.111 135.422C321.987 138.941 326.544 141.306 320.815 143.605C315.284 145.827 312.659 142.912 307.89 142.053L307.606 141.924C303.545 140.152 300.391 140.508 296.898 139.007L296.682 137.847C295.188 137.093 289.513 136.814 287.55 136.248C285.572 135.678 287.077 134.831 285.652 134.718C282.31 134.453 282.818 136.151 279.617 134.038C272.038 122.313 278.053 122.776 276.809 114.218C279.713 110.185 281.387 103.143 283.267 100.95C285.938 99.3891 292.686 101.86 296.535 102.48Z" fill="#121211"/>
<path fill-rule="evenodd" clip-rule="evenodd" d="M209.326 453.208C209.533 453.473 209.742 453.735 209.952 453.992C209.742 453.734 209.533 453.473 209.325 453.207L209.326 453.208ZM201.191 437.602C201.389 439.153 201.564 440.773 202.055 441.862C201.564 440.774 201.389 439.153 201.191 437.602ZM310.169 437.467C310.269 438.099 310.371 438.677 310.626 439.197C310.371 438.677 310.269 438.099 310.169 437.467ZM309.223 434.277C309.424 434.641 309.577 434.996 309.697 435.34C309.577 434.996 309.424 434.641 309.223 434.277ZM308.769 433.56C308.874 433.707 308.969 433.852 309.058 433.996C309.018 433.932 308.977 433.867 308.934 433.802L308.769 433.56ZM200.781 435.21C200.855 435.501 200.919 435.811 200.976 436.135C200.919 435.811 200.855 435.501 200.781 435.21ZM331.244 432.054C331.243 432.106 331.247 432.157 331.256 432.206C331.262 432.241 331.268 432.276 331.274 432.312C331.268 432.277 331.262 432.241 331.256 432.207C331.247 432.157 331.243 432.107 331.244 432.054ZM199.993 432.963C200.096 433.224 200.197 433.486 200.295 433.75C200.197 433.486 200.096 433.224 199.993 432.963ZM329.313 428.372C330.317 428.497 331.125 428.493 331.96 429.026L331.96 429.027C331.125 428.494 330.318 428.498 329.313 428.373L329.313 428.372ZM198.539 429.574C198.837 430.238 199.132 430.906 199.42 431.579C199.132 430.906 198.837 430.238 198.539 429.574ZM297.291 423.686C297.486 423.779 297.687 423.873 297.893 423.967C297.687 423.873 297.486 423.779 297.291 423.686ZM196.143 423.657C196.185 423.808 196.229 423.955 196.275 424.1C196.229 423.955 196.185 423.808 196.143 423.657ZM194.287 415.095C194.388 415.395 194.484 415.693 194.574 415.989C195.182 417.988 195.423 420.576 195.926 422.791C195.423 420.576 195.181 417.987 194.573 415.988C194.393 415.396 194.188 414.795 193.969 414.19L194.287 415.095ZM131.426 413.075C131.452 413.076 131.479 413.077 131.505 413.078C131.479 413.077 131.452 413.076 131.426 413.075ZM119.939 404.37C119.859 404.626 119.799 404.879 119.766 405.128C119.551 406.778 119.446 408.224 119.487 409.508C119.445 408.224 119.551 406.777 119.766 405.127C119.799 404.878 119.859 404.625 119.939 404.369L119.939 404.37ZM190.395 404.152C190.824 405.519 191.259 406.823 191.668 408.02C191.259 406.823 190.824 405.519 190.395 404.152ZM120.618 402.819C120.481 403.078 120.352 403.338 120.237 403.597L120.075 403.984C120.175 403.727 120.291 403.467 120.418 403.208L120.618 402.819ZM122.947 396.566C122.739 397.45 122.545 398.339 122.367 399.236C122.245 399.848 121.886 400.55 121.47 401.293L121.042 402.047C121.619 401.027 122.204 400.051 122.366 399.235C122.544 398.338 122.739 397.449 122.947 396.565L122.947 396.566ZM187.284 389.523C187.352 391.212 187.613 393.088 187.997 395.031C187.613 393.088 187.352 391.212 187.284 389.522L187.284 389.523ZM125.11 388.735C124.582 390.458 124.074 392.186 123.609 393.932L123.269 395.245C123.822 393.05 124.449 390.887 125.11 388.734L125.11 388.735ZM380.056 235.915C385.689 233.553 387.134 239.474 384.451 243.529C384.701 243.565 385.007 243.616 385.363 243.677C385.007 243.616 384.7 243.565 384.45 243.529C382.024 245.04 374.589 258.049 372.404 261.035C369.192 265.424 363.421 274.404 359.46 277.81C360.014 280.121 360.132 282.85 360.404 285.247C362.211 301.182 361.757 319.941 359.862 335.936C367.91 328.098 373.917 323.227 379.009 313.103C378.861 312.875 378.703 312.662 378.539 312.459L378.288 312.162C378.543 312.453 378.787 312.761 379.009 313.103C379.576 311.206 380.203 308.161 381.05 306.489C382.082 304.451 384.33 305.693 385.901 306.515C387.203 310.271 387.678 314.181 385.764 317.763C384.857 319.455 383.435 322.29 382.307 323.771L382.308 323.772C380.846 324.852 378.226 328.296 376.908 329.759C371.802 335.436 366.715 340.893 360.118 344.901C359.195 345.588 357.865 346.264 357.006 346.986C342.041 359.575 323.243 368.054 305.374 375.737C258.271 395.985 206.202 390.707 158.079 377.423C154.297 376.377 151.815 374.514 148.432 372.709C148.388 372.702 145.502 373.042 145.151 372.534C140.172 371.127 135.878 369.305 131.161 367.204C131.057 367.435 130.959 367.666 130.866 367.897C130.82 368.013 130.776 368.129 130.733 368.244C130.516 368.823 130.331 369.403 130.17 369.983L129.988 370.68C130.276 369.517 130.64 368.358 131.161 367.203C126.649 364.239 114.812 360.454 114.774 353.868C114.779 352.278 115.436 350.755 116.592 349.653C116.52 349.628 116.438 349.606 116.349 349.587C116.439 349.607 116.52 349.628 116.593 349.653L117.511 349.805C119.751 350.601 123.457 353.133 125.545 354.449C127.875 355.946 130.303 357.288 132.812 358.468C133.189 356.856 135.367 351.164 134.828 350.229C134.583 350.088 134.326 349.959 134.059 349.837C134.326 349.959 134.584 350.088 134.829 350.229C135.369 351.164 133.189 356.856 132.813 358.468C134.973 360.756 141.924 362.854 145.2 364.111C144.196 361.279 143.422 358.355 142.431 355.535C140.358 349.431 137.921 343.313 136.859 336.924C135.055 326.079 131.607 315.286 130.348 304.395C121.428 302.222 111.159 295.745 102.867 291.331C101.476 292.815 100.601 294.26 99.368 295.744C92.3892 304.15 85.4803 312.047 80.3243 321.762C79.4486 323.412 76.4123 325.825 75.21 327.4C70.3094 333.257 63.4974 340.024 63.4371 348.108C63.4185 350.614 64.8655 351.962 66.7567 352.773C64.8649 351.962 63.4176 350.614 63.4362 348.108C63.4964 340.024 70.3083 333.256 75.209 327.399C76.4115 325.824 79.4466 323.412 80.3223 321.762C85.4784 312.047 92.3882 304.15 99.367 295.744C100.6 294.26 101.475 292.815 102.866 291.331C98.777 288.853 92.3629 285.21 95.6962 279.807C96.3147 278.805 96.8385 278.725 97.9053 278.438C101.045 279.662 109.947 285.595 113.501 287.715C118.763 290.853 124.694 293.371 129.659 296.316C133.383 295.864 137.31 294.768 141.235 294.316C151.665 293.116 161.958 292.007 172.288 290.063C173.634 289.81 176.009 288.52 177.273 288.318C180.883 287.742 183.845 287.538 187.389 286.444C197.475 283.329 207.928 280.314 217.942 277.045C225.136 274.698 229.044 272.752 236.851 271.243C249.619 268.775 259.851 270.012 272.467 270.599C283.139 271.095 295.724 271.707 306.367 271.49C315.416 271.264 324.46 270.825 333.492 270.17C340.177 269.642 351.082 268.22 357.303 268.959C365.292 259.213 372.019 245.531 380.056 235.915ZM128.347 378.379C127.826 380.124 127.281 381.852 126.734 383.574L125.915 386.154C126.729 383.575 127.566 380.996 128.347 378.378L128.347 378.379ZM248.087 380.805C246.76 379.878 245.846 380.06 244.312 380.233C243.671 381.02 243.612 380.819 243.677 381.553C244.445 381.848 246.576 381.41 247.585 381.295L248.134 381.23L248.087 380.805ZM237.877 380.225C237.131 380.757 237.106 380.603 236.791 381.315C237.371 381.772 238.964 381.595 239.779 381.561L240.358 381.375L240.39 381.024C239.631 380.234 238.94 380.228 237.877 380.225ZM233.627 381.702C232.646 379.852 230.726 380.304 228.837 380.405C229.384 382.115 232.042 381.719 233.627 381.702ZM253.449 379.244C252.579 379.716 252.136 379.859 251.575 380.672L251.614 381.074C252.512 381.333 252.942 381.086 253.937 380.827C254.985 380.731 255.12 380.885 255.894 380.322C255.579 379.424 254.332 379.291 253.449 379.244ZM263.453 379.229C262.279 378.591 261.358 378.76 260.077 378.897C259.466 379.579 259.453 379.374 259.409 380.092C260.062 380.447 261.904 380.03 262.776 379.899L263.465 379.662L263.453 379.229ZM217.273 380.74C217.146 378.903 215.314 379.152 213.833 379.207L213.593 379.943C214.332 380.961 216.037 380.641 217.273 380.74ZM331.199 374.5C331.264 375.181 331.323 375.863 331.377 376.544C331.323 375.863 331.264 375.182 331.199 374.501L331.199 374.5ZM268.814 377.027C268.127 377.565 267.789 377.696 267.606 378.488C268.265 379.22 268.831 378.914 269.745 378.668L270.708 378.166L270.804 377.661C270.178 377.108 269.694 377.111 268.814 377.027ZM209.647 379.787C209.429 377.912 207.418 378.231 205.937 378.362L205.782 379.251C206.594 380.212 208.367 379.736 209.647 379.787ZM197.856 377.788C198.46 378.554 199.775 378.636 200.711 378.747C201.154 378.804 201.598 378.852 202.043 378.892C201.965 377.038 199.514 377.089 198.01 377.022L197.856 377.788ZM284.88 373.741C284.019 373.448 283.869 373.516 282.932 373.613C282.051 373.981 281.901 374.025 281.376 374.804L281.274 375.409L281.678 375.58C282.024 375.437 282.4 375.293 282.731 375.126C283.676 374.851 284.374 374.778 284.988 374.054L284.88 373.741ZM189.961 376.557C190.634 377.232 192.728 377.288 193.85 377.562L194.114 377.119C193.382 376.19 191.471 376.127 190.314 376.004L189.961 376.557ZM378.342 372.388C378.512 372.413 378.682 372.436 378.851 372.46C378.682 372.436 378.512 372.413 378.342 372.388ZM129.823 371.378C129.407 373.24 129.146 375.109 128.711 376.978L128.539 377.678C129.083 375.577 129.355 373.473 129.823 371.378ZM186.427 376.187C185.548 374.477 183.393 374.374 181.695 374.718C182.678 375.981 184.9 376.408 186.427 376.187ZM290.578 371.36C289.649 371.794 289.264 371.876 288.685 372.72L288.772 372.992C289.181 372.968 289.263 372.994 289.652 372.882C290.605 372.648 291.079 372.627 291.793 371.962L291.713 371.589C291.235 371.44 291.081 371.356 290.578 371.36ZM175.431 372.952C174.609 373.556 174.564 373.37 174.389 374.121C174.973 374.753 176.66 374.917 177.654 375.224L178.296 374.709C178.359 373.407 176.501 373.033 175.431 372.952ZM411.241 367.723C411.27 367.979 411.294 368.236 411.31 368.495C411.294 368.237 411.27 367.98 411.241 367.724L411.241 367.723ZM167.544 371.213C167.373 371.227 167.202 371.241 167.032 371.252L166.591 371.928C166.951 373.255 169.475 373.402 170.778 373.65L171.121 373.164C170.804 371.841 169.011 371.15 167.759 371.206L167.544 371.213ZM297.47 368.296C296.608 368.968 296.254 369.169 295.765 370.181L295.859 370.594C296.447 370.665 296.425 370.698 296.969 370.488C297.795 370.131 298.692 369.878 299.169 369.182C298.839 368.49 298.214 368.431 297.47 368.296ZM352.559 366.978C352.682 367.009 352.806 367.04 352.93 367.072C352.806 367.04 352.682 367.009 352.559 366.978ZM305.594 365.827C304.077 366.189 303.32 366.269 302.391 367.586L302.392 368.146C302.518 368.141 302.658 368.168 302.769 368.11C303.735 367.64 305.335 366.953 306.077 366.271L306.052 365.966L305.594 365.827ZM341.882 366.156C341.917 366.16 341.951 366.165 341.984 366.169C341.951 366.165 341.917 366.16 341.882 366.156ZM339.974 365.815C340.11 365.843 340.245 365.871 340.377 365.898C340.245 365.871 340.11 365.843 339.974 365.815ZM335.92 365.129C336.046 365.136 336.175 365.147 336.304 365.159C336.175 365.147 336.046 365.136 335.92 365.129ZM153.641 365.93C153.77 368.215 154.07 369.141 156.547 368.976L156.796 368.958C156.561 367.866 155.895 366.914 154.948 366.315C154.532 366.052 154.12 365.992 153.641 365.93ZM312.932 363.132C312.323 362.711 312.671 362.845 311.804 362.882C310.449 363.586 309.97 363.783 308.918 364.865L308.869 365.321C309.401 365.416 309.367 365.437 309.871 365.253C310.979 364.78 312.452 364.263 312.932 363.132ZM319.105 360.585C318.637 360.156 318.115 360.298 317.437 360.329C316.716 360.833 316.235 361.052 315.891 361.847C316.411 362.128 316.328 362.005 317.108 361.807C317.855 361.462 318.639 361.214 319.105 360.585ZM405.771 355.503C406.539 356.609 407.279 357.735 407.955 358.882C407.688 358.429 407.412 357.98 407.127 357.534C406.975 357.295 406.821 357.057 406.665 356.82C406.373 356.378 406.074 355.939 405.771 355.503ZM152.027 359.161C151.723 361.019 151.872 363.335 154.006 363.971C153.986 362.579 153.315 360.834 152.667 359.616L152.027 359.161ZM325.402 357.338C324.582 357.257 324.512 357.269 323.692 357.415C322.967 357.814 322.42 357.992 322.077 358.71L322.307 359.043C322.994 359.065 323.024 359.087 323.722 358.921C324.501 358.545 325.17 358.351 325.599 357.643L325.402 357.338ZM404.219 353.332C403.986 353.013 403.751 352.696 403.517 352.379C403.751 352.696 403.986 353.013 404.219 353.332ZM332.154 353.652C331.51 353.314 331.285 353.403 330.562 353.472C329.448 354.123 328.296 354.777 327.985 356.132L328.304 356.452C328.876 356.384 328.943 356.405 329.48 356.16C330.578 355.464 331.249 355.109 332.112 354.134L332.154 353.652ZM149.8 353.219C149.769 354.845 150.307 356.42 151.853 357.182C151.877 355.526 151.571 353.831 149.8 353.219ZM337.637 350.281C336.607 350.8 335.357 351.259 334.976 352.316C335.251 352.467 335.273 352.534 335.545 352.548C336.496 352.018 337.607 351.499 338.298 350.683L338.165 350.334L337.637 350.281ZM400.345 348.001C400.743 348.579 401.16 349.162 401.587 349.75C401 348.942 400.433 348.144 399.906 347.355L400.345 348.001ZM346.144 344.785C344.55 345.592 342.06 346.812 340.972 348.182L340.844 348.86C341.272 349.183 341.05 349.149 341.492 349.111C343.095 348.071 345.406 346.62 346.601 345.202L346.516 344.888L346.144 344.785ZM69.6336 353.626C70.1962 353.745 70.7557 353.847 71.2927 353.942L71.2928 353.943C70.7557 353.848 70.1963 353.745 69.6336 353.626ZM67.7823 353.151C67.8983 353.188 68.0159 353.221 68.1335 353.256C68.0159 353.221 67.8983 353.188 67.7823 353.151ZM398.455 345.008C398.565 345.201 398.676 345.393 398.79 345.584C398.676 345.393 398.565 345.201 398.455 345.008ZM67.1442 352.929C67.2277 352.961 67.3117 352.992 67.3964 353.022C67.3117 352.992 67.2277 352.961 67.1442 352.929ZM76.5334 352.291C79.6245 352.224 82.7285 352.224 85.8294 352.19L85.8284 352.19C82.7279 352.224 79.6242 352.224 76.5334 352.291ZM147.686 346.004C147.444 347.715 147.701 349.635 149.471 350.424C149.976 348.754 149.502 346.615 147.686 346.004ZM397.472 343.192C397.715 343.66 397.963 344.127 398.221 344.59C397.963 344.127 397.715 343.661 397.472 343.193L397.472 343.192ZM98.2217 350.849C98.2962 350.855 98.3704 350.858 98.4446 350.858C98.3704 350.858 98.2962 350.855 98.2217 350.849ZM96.912 350.437C97.1884 350.593 97.4608 350.701 97.7304 350.769C97.4607 350.701 97.1885 350.593 96.912 350.437ZM132.832 349.364C133.11 349.454 133.38 349.552 133.642 349.658C133.38 349.552 133.11 349.454 132.832 349.364ZM96.3876 350.15C96.4651 350.171 96.5422 350.205 96.6187 350.257C96.6444 350.275 96.6713 350.29 96.697 350.307C96.671 350.29 96.6438 350.275 96.6177 350.257C96.5417 350.205 96.4647 350.171 96.3876 350.15ZM131.83 349.077C131.972 349.112 132.112 349.149 132.25 349.188C132.112 349.149 131.972 349.112 131.83 349.077ZM115.873 349.515C115.931 349.521 115.986 349.528 116.04 349.535C115.986 349.528 115.931 349.521 115.873 349.515ZM114.369 349.451C114.661 349.453 114.934 349.459 115.186 349.469C114.934 349.459 114.661 349.453 114.369 349.451ZM105.234 349.083C106.464 349.296 107.747 349.398 108.994 349.444C107.747 349.398 106.464 349.296 105.234 349.083ZM130.398 348.782C130.663 348.826 130.924 348.876 131.181 348.929C130.924 348.876 130.663 348.826 130.398 348.782ZM129.267 348.626C129.36 348.637 129.452 348.648 129.544 348.659C129.452 348.648 129.36 348.637 129.267 348.626ZM127.071 348.473C127.509 348.486 127.945 348.51 128.377 348.543C127.945 348.51 127.509 348.486 127.071 348.473ZM103.661 348.737C103.8 348.775 103.941 348.811 104.083 348.846C103.941 348.811 103.8 348.775 103.661 348.737ZM348.947 337.62C348.295 339.141 347.526 340.484 347.931 342.097L348.409 342.559C348.618 342.551 349.096 342.548 349.274 342.516C350.391 340.91 351.665 338.535 348.947 337.62ZM145.339 339.574C145.626 341.088 145.749 342.668 146.906 343.699L147.556 343.881C147.537 342.176 147.518 339.841 145.339 339.574ZM392.081 333.134C392.57 333.832 393.022 334.553 393.451 335.292C393.022 334.553 392.57 333.832 392.081 333.134ZM350.537 330.836C349.937 332.122 349.591 333.446 349.729 334.863C350.034 335.321 349.998 335.309 350.465 335.598C351.169 334.609 351.763 332.085 350.957 331.055L350.537 330.836ZM390.272 330.878C390.611 331.245 390.933 331.624 391.242 332.011C390.933 331.624 390.611 331.245 390.272 330.878ZM144.222 333.116C144.051 334.495 144.129 335.411 144.885 336.594L145.661 336.901C145.918 335.56 145.64 334.591 144.896 333.461L144.222 333.116ZM388.254 328.994C388.458 329.157 388.656 329.324 388.85 329.493C388.656 329.324 388.459 329.158 388.255 328.995L388.254 328.994ZM387.819 328.462C387.88 328.586 387.959 328.704 388.061 328.815C387.96 328.704 387.88 328.587 387.819 328.463L387.819 328.462ZM350.765 323.891C350.506 325.224 350.296 327.016 350.571 328.343C351.015 328.64 350.819 328.637 351.216 328.607C351.742 327.005 352.636 324.951 350.765 323.891ZM384.905 324.597C386.193 324.578 387.283 324.204 387.849 325.21C387.283 324.204 386.193 324.578 384.905 324.597ZM383.259 324.327C383.82 324.55 384.37 324.604 384.888 324.597C384.37 324.604 383.82 324.55 383.259 324.327ZM142.316 326.455C142.571 327.811 142.64 329.71 144.168 330.158C144.185 328.738 144.276 327.858 143.236 326.795C142.985 326.698 142.56 326.515 142.316 326.455ZM382.619 323.994C382.771 324.093 382.923 324.177 383.075 324.247C382.923 324.177 382.771 324.093 382.619 323.994ZM351.452 316.588C350.678 317.809 350.075 320.886 351.672 321.647C352.267 320.278 352.295 318.564 352.106 317.101C351.743 316.642 351.962 316.795 351.452 316.588ZM140.253 319.528C140.157 320.896 140.454 322.348 141.22 323.5L141.652 323.734L142.245 323.479C143.39 321.263 142.842 320.078 140.253 319.528ZM351.307 309.423C350.945 310.736 350.989 312.611 351.309 313.933C351.835 314.509 351.522 314.376 352.245 314.411C352.582 312.898 353.175 310.156 351.307 309.423ZM138.673 313.229C138.871 314.389 139.019 315.994 139.655 316.914L140.091 317.089C140.442 316.925 140.837 316.753 141.177 316.576C141.686 314.663 140.557 313.411 138.673 313.229ZM375.557 308.827C375.949 309.612 376.448 310.215 376.973 310.775C376.623 310.402 376.284 310.009 375.981 309.556C375.905 309.442 375.831 309.326 375.76 309.204C375.69 309.083 375.622 308.957 375.556 308.826L375.557 308.827ZM421.508 285.337C418.251 287.081 413.615 287.132 410.749 288.497C400.971 293.149 391.363 298.268 381.547 302.863C380.91 303.164 380.181 303.384 379.528 303.655C377.197 304.798 374.008 304.427 375.205 307.977C375.23 308.053 375.257 308.129 375.285 308.202C375.257 308.128 375.23 308.053 375.204 307.976C374.008 304.427 377.196 304.798 379.527 303.655C379.69 303.587 379.858 303.522 380.028 303.459C380.539 303.268 381.068 303.088 381.546 302.862C391.362 298.267 400.97 293.148 410.748 288.496C411.016 288.368 411.301 288.252 411.598 288.144C411.697 288.108 411.798 288.074 411.899 288.041C414.752 287.093 418.657 286.862 421.507 285.336L421.508 285.337ZM351.106 303.042C351.027 304.41 350.787 305.971 351.538 307.13L352.339 307.403C352.461 305.952 352.765 304.607 351.932 303.426L351.106 303.042ZM350.993 296.048C350.887 297.239 350.654 298.686 350.979 299.795L351.393 300.185L351.923 300.131C352.3 298.791 352.546 297.923 351.937 296.628C351.566 296.328 351.451 296.179 350.993 296.048ZM145.829 303.779C145.297 302.647 143.998 302.747 142.903 302.816C142.472 303.392 142.134 303.685 142.16 304.386C142.983 304.773 143.893 304.336 144.847 304.048L145.522 304.081L145.829 303.779ZM150.544 302.305C149.676 303.019 149.659 302.814 149.334 303.715C149.92 304.112 150.143 303.981 151.011 303.822C152.09 303.544 151.875 303.775 152.369 303.054C151.935 302.196 151.446 302.267 150.544 302.305ZM158.575 301.889C157.165 302.327 157.59 302.005 156.775 303.01L156.796 303.538C157.288 303.695 157.067 303.728 157.481 303.576C158.443 303.348 159.004 303.318 159.715 302.649L159.647 302.233C159.201 302.035 159.063 301.935 158.575 301.889ZM166.358 301.151C165.339 301.221 164.666 301.185 163.778 301.716L163.598 302.127C163.965 302.575 163.985 302.688 164.534 302.882C165.617 302.52 166.008 302.451 166.846 301.629L166.911 301.149L166.358 301.151ZM173.197 300.123C172.202 300.37 171.718 300.403 171.017 301.176L171.113 301.517C171.325 301.522 171.853 301.55 172.03 301.513C173.098 301.4 173.502 301.434 174.315 300.696L174.29 300.369C173.716 300.166 173.78 300.127 173.197 300.123ZM180.438 298.627C179.599 299.049 179.03 299.234 178.47 299.977L178.656 300.286L179.524 300.303C180.535 300.094 181.037 300.085 181.723 299.293L181.656 298.913C181.095 298.673 181.063 298.615 180.438 298.627ZM188.015 296.712C187.067 297.199 186.357 297.488 185.629 298.282L185.598 298.681C186.166 298.916 186.212 298.864 186.811 298.796C187.984 298.558 188.388 298.551 189.26 297.686L189.387 297.283C188.964 296.763 188.728 296.745 188.015 296.712ZM195.228 294.544C193.803 295.067 193.52 295.135 192.418 296.165L192.213 296.745C192.805 297.208 192.614 297.062 193.55 297.07C194.573 296.63 195.461 296.331 196.248 295.535L196.349 295.048C195.839 294.619 195.887 294.618 195.228 294.544ZM350.668 288.546C350.578 289.985 350.33 291.764 350.983 293.039C351.458 293.23 351.345 293.236 351.833 293.274C352.303 291.512 352.115 290.54 351.34 288.925L350.668 288.546ZM210.369 290.577C209.89 290.425 209.923 290.41 209.443 290.547C208.047 290.897 207.8 290.935 206.667 291.814L206.478 292.29C206.975 292.479 206.78 292.463 207.304 292.398C208.489 291.941 209.307 291.702 210.294 290.9L210.369 290.577ZM216.027 287.863C215.036 288.153 214.411 288.202 213.827 289.012L213.715 289.594C214.324 290.156 214.476 290.192 215.478 290.155L215.759 290.141C216.781 289.742 216.99 289.751 217.526 288.876L217.55 288.351C216.827 287.781 217.09 287.955 216.027 287.863ZM348.584 279.474C348.02 279.895 347.302 280.29 347.128 280.924C348.454 281.27 349.11 280.797 350.215 281.343C350.657 282.293 349.731 283.81 350.574 286.181L351.025 286.563C351.82 286.023 351.387 283.199 351.318 282.179C350.4 280.857 350.058 280.013 348.584 279.474ZM441.081 274.466C441 274.699 440.909 274.919 440.808 275.121C439.501 278.248 436.234 279.391 433.275 280.653C430.311 281.917 426.727 282.971 423.593 284.336C426.727 282.971 430.311 281.916 433.274 280.652C436.234 279.39 439.5 278.247 440.807 275.121C440.908 274.919 440.999 274.699 441.081 274.465L441.081 274.466ZM224.702 286.214C223.944 285.764 222.723 285.965 221.845 286.059C221.189 286.677 221.248 286.433 221.151 287.15C221.982 287.557 222.973 287.237 223.853 287.009L224.606 286.578L224.702 286.214ZM308.243 283.988C307.229 282.367 306.14 282.622 304.302 282.852C305.111 284.546 306.478 284.377 308.243 283.988ZM315.427 283.057C314.424 282.22 313.131 282.549 311.751 282.669L311.562 282.686C311.711 283.669 311.521 283.37 312.18 283.938C313.221 284.216 314.344 283.966 315.423 283.814L315.427 283.057ZM300.692 284.081C300.191 282.403 298.303 282.765 296.721 282.771C297.387 284.459 299.105 284.142 300.692 284.081ZM231.29 283.74C230.18 284.05 229.328 284.179 228.548 285.036L228.472 285.531L228.703 285.765L229.27 285.599C230.278 285.25 231.29 284.979 232.108 284.3L232.089 283.9C232 283.881 231.405 283.741 231.29 283.74ZM322.606 282.643C321.8 282.033 319.619 282.261 318.551 282.312C319.131 284.099 321.012 283.622 322.442 283.153L322.606 282.643ZM293.646 283.516C292.748 281.839 291.158 282.33 289.422 282.452C290.215 284.23 291.914 283.688 293.646 283.516ZM284.074 281.969C283.338 281.967 282.605 282.038 281.884 282.18C282.945 283.393 284.666 283.28 286.135 282.81C285.469 282.145 285.218 281.963 284.074 281.969ZM343.768 280.286C342.862 279.832 341.828 279.968 340.81 280.082C340.145 280.69 340.27 280.344 340.221 281.072C341.128 281.658 342.416 281.439 343.498 281.332L343.882 280.76L343.768 280.286ZM238.508 281.533C237.575 282.077 236.673 282.505 235.966 283.3L235.966 283.705C236.491 283.874 236.326 283.87 236.859 283.871C237.814 283.499 238.593 283.283 239.316 282.548L239.419 282.066C239.018 281.679 239.044 281.627 238.508 281.533ZM274.339 281.27C275.004 283.24 276.734 282.695 278.604 282.593C277.878 281.03 275.916 281.274 274.339 281.27ZM267.028 280.167C266.755 281.174 266.711 280.811 266.993 281.728C267.948 282.42 269.156 282.199 270.35 282.119C270.409 281.166 270.521 281.514 270.015 280.777C269.011 280.223 268.183 280.26 267.028 280.167ZM262.318 280.515C261.245 279.933 260.469 280.035 259.237 280.134C259.172 281.13 259.051 280.773 259.606 281.495C260.573 282.05 261.626 282.047 262.739 282.115C262.746 280.963 262.89 281.356 262.318 280.515ZM245.208 280.375C244.69 280.405 244.172 280.448 243.656 280.504C243.188 281.341 243.198 281.031 243.368 281.795C244.36 282.584 245.592 282.19 246.69 281.859C247.357 281.249 247.202 281.604 247.312 280.831C246.752 280.329 245.952 280.34 245.208 280.375ZM251.859 279.863C251.403 280.586 251.439 280.311 251.445 281.072C252.43 281.799 253.958 281.56 255.24 281.506C255.129 280.56 255.291 280.917 254.615 280.221C253.592 279.829 252.938 279.881 251.859 279.863ZM442.586 265.203L442.635 267.33C441.897 268.56 441.866 271.508 441.3 273.73L441.159 274.228C441.361 273.584 441.503 272.852 441.621 272.106C441.681 271.732 441.734 271.355 441.786 270.983C441.994 269.495 442.18 268.087 442.634 267.33L442.585 265.202L442.586 265.203ZM441.202 264.777C441.532 264.895 441.88 265.004 442.248 265.108C441.88 265.004 441.532 264.895 441.202 264.777ZM439.814 264.202C439.998 264.289 440.186 264.376 440.382 264.459C440.186 264.376 439.998 264.289 439.814 264.202ZM437.386 262.756C437.679 262.964 437.979 263.168 438.293 263.365C437.979 263.168 437.679 262.964 437.386 262.756ZM431.461 258.853C431.51 258.876 431.558 258.9 431.606 258.923C431.558 258.9 431.509 258.876 431.46 258.853C431.173 258.722 430.888 258.595 430.603 258.473L431.461 258.853ZM428.573 257.654C428.768 257.728 428.964 257.803 429.16 257.88C428.964 257.803 428.768 257.728 428.573 257.654ZM412.87 252.771C414.348 253.346 415.822 253.82 417.301 254.257C415.822 253.82 414.348 253.346 412.87 252.771ZM407.631 250.244C408.062 250.498 408.49 250.742 408.919 250.97C408.49 250.742 408.062 250.498 407.631 250.244ZM404.951 248.622C405.067 248.675 405.174 248.728 405.274 248.779C405.174 248.728 405.067 248.675 404.951 248.622ZM404.046 248.248C404.147 248.287 404.244 248.325 404.339 248.363C404.244 248.325 404.147 248.287 404.046 248.248ZM401.616 247.441C401.907 247.529 402.189 247.615 402.459 247.701C402.189 247.615 401.907 247.529 401.616 247.441ZM386.844 243.947C387.978 244.163 389.345 244.441 390.823 244.759C389.345 244.441 387.977 244.164 386.843 243.947L386.844 243.947Z" fill="white"/>
</svg>
