<svg width="30" height="8" viewBox="0 0 30 8" fill="none" xmlns="http://www.w3.org/2000/svg">
<path d="M1.02069 5.56788C0.360688 5.56788 0.000687525 5.02788 0.000687525 4.41588C0.000687525 3.65988 0.516688 2.68788 1.38069 2.68788C1.96869 2.68788 2.40069 3.14388 2.40069 3.71988C2.40069 4.49988 1.93269 5.56788 1.02069 5.56788ZM1.00869 4.91988C1.62069 4.91988 1.81269 4.16388 1.81269 3.68388C1.81269 3.45588 1.63269 3.21588 1.39269 3.21588C0.792688 3.21588 0.588688 3.98388 0.588688 4.45188C0.588688 4.69188 0.756688 4.91988 1.00869 4.91988ZM3.07269 4.07988C3.07269 3.86388 3.28869 3.77988 3.46869 3.77988C3.96069 3.77988 4.48869 3.79188 4.98069 3.71988C5.00469 2.77188 4.86069 1.81188 4.86069 0.863878C4.86069 0.707878 4.98069 0.587878 5.13669 0.587878C5.34069 0.587878 5.44869 0.791879 5.47269 0.971879C5.53269 1.31988 5.53269 1.71588 5.55669 2.06388C5.65269 3.57588 5.74869 5.08788 5.74869 6.59988C5.74869 6.82788 5.66469 7.12788 5.38869 7.12788C5.28069 7.12788 5.20869 7.07988 5.13669 6.99588C5.05269 6.88788 5.02869 6.73188 5.02869 6.59988C5.02869 5.83188 4.99269 5.07588 4.99269 4.30788C4.59669 4.35588 4.20069 4.37988 3.80469 4.37988H3.46869C3.27669 4.37988 3.07269 4.30788 3.07269 4.07988ZM7.14069 7.06788C7.14069 5.26788 7.24869 3.47988 7.41669 1.69188C7.42869 1.51188 7.53669 1.30788 7.75269 1.30788C7.95669 1.30788 8.01669 1.49988 8.01669 1.66788C8.01669 2.02788 7.96869 2.39988 7.95669 2.75988C7.93269 3.22788 7.90869 3.70788 7.89669 4.17588C7.87269 5.13588 7.86069 6.10788 7.86069 7.06788C7.86069 7.29588 7.78869 7.60788 7.50069 7.60788C7.21269 7.60788 7.14069 7.29588 7.14069 7.06788ZM12.376 3.20388C12.832 3.20388 12.76 3.80388 12.76 4.10388C12.76 4.63188 12.712 5.12388 12.628 5.63988C12.892 5.62788 13.168 5.55588 13.42 5.55588C13.552 5.55588 13.744 5.63988 13.744 5.80788C13.744 5.87988 13.732 5.96388 13.684 6.02388C13.516 6.27588 11.896 6.27588 11.548 6.27588C10.936 6.27588 10.324 6.28788 9.71197 6.23988C9.60397 6.22788 9.55597 6.22788 9.49597 6.13188C9.44797 6.07188 9.42397 6.01188 9.42397 5.92788C9.42397 5.75988 9.53197 5.63988 9.69997 5.63988C10.132 5.63988 10.564 5.68788 10.996 5.68788C11.32 5.68788 11.656 5.68788 11.98 5.66388C12.064 5.12388 12.112 4.55988 12.112 4.00788C12.112 3.81588 12.076 3.61188 12.076 3.41988C12.076 3.26388 12.244 3.20388 12.376 3.20388ZM11.716 2.51988C11.416 2.51988 11.092 2.53188 10.792 2.55588C10.492 2.56788 10.18 2.63988 9.87997 2.63988C9.72397 2.63988 9.60397 2.51988 9.60397 2.36388C9.60397 2.17188 9.74797 2.06388 9.91597 2.02788C10.468 1.93188 11.116 1.91988 11.68 1.91988H12.628C12.808 1.91988 13.528 1.90788 13.624 2.05188C13.66 2.09988 13.684 2.20788 13.684 2.26788C13.684 2.39988 13.588 2.54388 13.444 2.54388C13.18 2.54388 12.904 2.51988 12.64 2.51988H11.716ZM10.348 3.93588C10.348 3.64788 10.324 3.20388 10.72 3.20388C10.912 3.20388 11.02 3.28788 11.02 3.49188C11.02 3.63588 10.996 3.79188 10.996 3.94788C10.996 4.23588 11.044 4.52388 11.044 4.81188C11.044 5.00388 10.948 5.14788 10.744 5.14788C10.276 5.14788 10.348 4.25988 10.348 3.93588ZM15.724 7.06788C15.724 5.03988 15.796 2.98788 16 0.971879C16.024 0.791879 16.12 0.587878 16.336 0.587878C16.54 0.587878 16.6 0.779879 16.6 0.947879C16.6 1.31988 16.552 1.71588 16.54 2.08788C16.516 2.61588 16.492 3.13188 16.48 3.65988C16.456 4.79988 16.444 5.92788 16.444 7.06788C16.444 7.29588 16.372 7.60788 16.084 7.60788C15.796 7.60788 15.724 7.29588 15.724 7.06788ZM21.5828 0.587878C21.2828 0.587878 20.9708 0.599878 20.6708 0.611879C20.3468 0.635879 19.9988 0.695879 19.6628 0.695879C19.4948 0.695879 19.3508 0.515879 19.3508 0.347879C19.3508 0.203878 19.4708 0.131879 19.5908 0.107878C20.2268 -0.000121117 20.9468 -0.000121117 21.5948 -0.000121117C22.5788 -0.000121117 22.5668 0.659878 22.5668 1.49988C22.5668 2.02788 22.3388 2.14788 21.8708 2.27988L19.8188 2.85588C19.5428 2.92788 19.3628 3.05988 19.2668 3.33588C19.2188 3.47988 19.1228 3.65988 19.1228 3.81588C19.1228 3.98388 19.2548 4.11588 19.4228 4.11588C20.0228 4.11588 20.6108 4.09188 21.2108 4.06788C21.7268 4.04388 22.3388 3.95988 22.8428 3.95988C22.9268 3.95988 23.0228 3.98388 23.0948 4.03188C23.1548 4.11588 23.2028 4.19988 23.2028 4.29588C23.2028 4.45188 23.1428 4.54788 22.9868 4.55988C21.7868 4.66788 20.5868 4.71588 19.3868 4.71588C18.9428 4.71588 18.4268 4.55988 18.4268 4.01988C18.4268 3.70788 18.6188 3.35988 18.7148 3.08388C18.8828 2.62788 19.0388 2.47188 19.5068 2.33988L21.6308 1.73988C21.8348 1.67988 21.9308 1.54788 21.9188 1.33188C21.9068 1.06788 21.9788 0.587878 21.5828 0.587878ZM18.1508 7.23588C18.1508 7.06788 18.3188 6.97188 18.4628 6.94788C19.0388 6.85188 19.7708 6.89988 20.3228 6.89988L20.3708 5.81988C20.3828 5.62788 20.4908 5.43588 20.7068 5.43588C20.9108 5.43588 21.0308 5.63988 21.0188 5.81988L20.9708 6.89988C21.0308 6.89988 23.0468 6.83988 23.2148 7.04388C23.2508 7.07988 23.3108 7.21188 23.3108 7.25988C23.3108 7.41588 23.1788 7.53588 23.0228 7.53588C22.2428 7.53588 21.4508 7.48788 20.6708 7.48788C19.9268 7.48788 19.1948 7.54788 18.4508 7.54788C18.2588 7.54788 18.1508 7.42788 18.1508 7.23588ZM28.0061 1.17588C28.0061 1.12788 27.9941 1.09188 27.9941 1.04388L27.9461 0.983878L27.8861 0.959879C27.0461 0.947879 26.2061 1.11588 25.3661 1.11588C25.1981 1.11588 25.1381 0.935878 25.1381 0.803879C25.1381 0.647878 25.2461 0.539878 25.3901 0.515879C25.8221 0.431878 27.2501 0.359879 27.7301 0.359879C28.3421 0.359879 28.7261 0.563879 28.7021 1.23588L28.5941 4.43988C28.5821 4.63188 28.4861 4.79988 28.2701 4.79988C28.0421 4.79988 27.8981 4.63188 27.8981 4.40388C27.8981 3.33588 27.9701 2.24388 28.0061 1.17588ZM24.5741 7.12788C24.5741 6.94788 24.7301 6.85188 24.8861 6.82788C25.1981 6.77988 25.5821 6.75588 25.8941 6.75588H27.1301C27.8741 6.75588 28.6541 6.74388 29.3861 6.81588C29.5541 6.82788 29.7341 6.95988 29.7341 7.13988C29.7341 7.28388 29.6021 7.41588 29.4581 7.41588C28.6661 7.41588 27.8861 7.36788 27.0941 7.36788C26.3501 7.36788 25.6181 7.42788 24.8741 7.42788C24.6941 7.42788 24.5741 7.30788 24.5741 7.12788Z" fill="white"/>
</svg>
