<svg width="500" height="500" viewBox="0 0 500 500" fill="none" xmlns="http://www.w3.org/2000/svg">
<path d="M216.919 159.204C222.855 157.844 225.599 157.852 231.732 158.131L232.355 158.213C243.079 159.54 255.199 159.408 266.196 162.343C270.995 163.624 272.827 165.112 276.963 166.569L281.958 165.218C285.51 166.382 291.181 167.597 293.248 170.479C292.427 173.704 291.356 170.661 291.867 173.713C293.224 173.95 295.473 171.655 296.555 170.68C302.887 172.308 307.923 174.224 313.94 176.747C317.348 178.176 321.693 178.854 325.169 180.292C356.144 192.516 387.134 212.737 406.158 240.504C408.586 244.049 410.096 247.957 412.053 251.731C413.759 255.021 416.835 257.91 417.827 261.658C422.714 275.493 426.234 290.558 427.092 305.209C426.947 307.646 425.713 309.692 425.663 312.183C425.553 317.649 426.71 323.291 425.795 328.712C425.199 332.246 424.206 336 423.13 339.404C421.843 343.477 420.578 347.915 418.75 351.764C416.228 357.078 414.257 362.504 411.975 367.896C406.042 374.309 403.866 381.373 398.253 387.922C388.066 399.989 376.02 410.703 363.016 419.659C361.749 420.533 358.718 419.691 356.947 421.402C356.395 422.638 355.646 425.17 354.35 425.461C338.32 429.052 310.264 445.972 294.394 443.939C292.867 444.812 291.113 446.009 289.439 446.235C279.638 442.906 280.939 447.058 273.647 447.391C273.602 446.889 273.553 446.388 273.501 445.886C267.675 446.065 258.644 450.57 254.375 444.939C250.109 448.118 243.823 447.814 240.235 443.802C239.493 443.681 233.003 445.362 230.823 445.075C220.897 443.771 199.715 438.197 190.742 440.139C184.909 436.261 183.206 437.093 176.706 435.397C174.65 434.86 173.379 432.539 170.861 432.352C163.516 435.057 165.647 431.337 160.834 430.11C148.963 427.083 138.506 423.169 127.995 416.818C124.925 414.962 120.883 409.434 118.019 408.717C116.372 409.03 116.022 409.166 114.322 409.092C112.611 407.884 112.971 408.638 112.592 407.048L114.132 405.733C113.696 403.59 98.1936 398.948 100.424 392.35C101.022 390.581 94.6141 386.401 93.4856 384.48C91.4766 381.063 89.3026 377.603 86.8676 374.323C83.2901 368.857 83.6006 368.074 82.8741 361.372C82.3161 360.629 80.0536 357.606 79.7751 356.414C77.8071 347.993 74.5046 337.418 74.7126 328.883C74.7431 327.626 76.1731 327.21 77.0361 326.791L76.8921 326.176C72.1871 322.241 73.2356 321.566 73.1486 315.842C72.8086 308.821 73.1306 301.783 73.3351 294.825C73.6071 285.576 74.8461 278.797 77.7606 270.004C79.2606 265.48 79.9511 261.185 82.0401 256.604C84.5161 251.176 87.7271 246.321 90.0141 240.865C91.6851 236.447 91.3446 236.456 95.7266 234.502C99.2806 219.703 120.565 197.269 132.174 187.657C140.039 181.144 158.329 170.496 168.457 168.677C171.155 168.125 173.855 166.695 176.627 165.707C180.992 164.151 184.037 163.577 188.587 162.815C188.768 162.799 188.949 162.782 189.129 162.765C194.271 163.53 196.881 159.525 201.526 161.332C204.879 158.945 213.21 157.815 216.919 159.204Z" fill="#96DA01"/>
<path d="M168.457 168.678C171.155 168.126 173.855 166.696 176.627 165.708C180.992 164.152 184.037 163.578 188.587 162.816C185.053 166.208 173.175 171.043 168.457 168.678Z" fill="#97C829"/>
<path d="M201.527 161.332C204.881 158.945 213.212 157.814 216.92 159.204L217.075 160.036C215.293 161.21 203.548 163.118 202.121 162.327L201.527 161.332Z" fill="#97C829"/>
<path d="M82.875 361.373C87.0405 362.558 87.07 364.866 88.3255 368.804C87.827 370.641 87.3415 372.481 86.8685 374.324C83.291 368.858 83.6015 368.075 82.875 361.373Z" fill="#97C829"/>
<path d="M240.238 443.803L240.671 443.825C248.248 444.132 245.432 442.144 254.378 444.94C250.112 448.119 243.826 447.815 240.238 443.803Z" fill="#97C829"/>
<path d="M318.685 312.37L319.86 312.112C320.17 310.797 320.173 311.493 319.257 309.961C320.203 309.527 319.69 309.67 321.08 310.119C321.036 310.839 321.049 311.487 321.109 312.213L321.887 312.291L323.898 310.591C327.79 310.934 327.441 315 330.368 316.556C330.945 315.903 330.993 315.654 331.798 315.315C334.548 317.72 333.657 319.869 331.923 322.495L331.989 323.085C333.175 322.952 332.804 323.009 333.933 322.507C335.438 325.614 330.647 338.785 326.95 340.438L326.029 339.887C326.166 338.862 326.286 337.835 326.388 336.806C324.335 338.726 323.823 340.789 323.028 343.47C321.534 344.716 322.41 344.336 320.18 344.309C320.224 345.987 320.308 346.451 320.585 348.053L320.184 348.663L316.341 349.074L315.95 350.024C316.919 350.881 316.958 350.641 317.362 351.842L316.37 352.456L315.058 350.683C313.28 351.502 313.37 353.119 312.903 353.284C309.851 354.361 310.779 350.882 308.187 355.606C305.566 357.09 305.134 355.826 303.176 357.465C303.602 358.079 303.889 358.522 304.298 359.173C301.475 361.566 295.936 360.456 292.771 362.058C292.666 362.111 291.682 364.976 291.519 365.472C290.148 366.134 286.048 367.181 284.635 366.697L284.277 365.444L283.307 365.659L284.163 366.827C282.433 368.034 280.166 367.082 277.108 368.522C277.295 369.63 277.165 369.151 277.439 369.972C273.407 370.846 271.824 366.318 268.782 370.615C268.296 371.301 262.74 369.749 261.435 370.518L261.707 372.247L261.148 372.402L259.621 371.514C258.52 372.002 258.322 372.107 257.326 372.78C255.899 372.606 255.347 372.109 254.14 371.344C250.965 371.331 251.195 373.098 248.009 372.765C247.425 371.728 247.099 371.045 246.611 369.957C245.185 369.284 245.935 369.449 244.254 369.594L243.612 370.584L243.578 370.536C244.043 370.804 245.695 371.705 245.985 372L245.46 372.699C242.209 372.762 244.825 371.697 242.635 371.881C241.177 372.004 240.736 373.709 238.821 373.615C239.232 372.409 239.212 372.612 239.935 371.51C238.091 370.096 234.838 373.22 232.278 372.76C229.73 371.139 228.845 369.995 226.158 369.904C225.197 370.705 225.254 370.636 224.791 371.801C222.542 371.493 222.038 371.022 220.866 369.099C218.173 368.979 212.768 369.767 211.202 369.34C210.634 368.362 210.238 367.616 209.741 366.6C207.868 365.639 207.39 365.183 205.365 366.295C203.062 364.506 205.08 363.386 202.089 363.409C200.052 363.424 199.546 363.921 197.639 363.017L196.875 362.181L195.613 362.445L194.11 363.235C191.789 362.59 192.483 361.143 189.845 360.096L188.349 361.085L187.348 360.753C184.521 356.83 184.108 357.496 178.903 356.233L179.577 355.176C178.203 352.393 171.083 350.839 171.702 346.909L173.43 346.342C169.702 344.901 163.525 339.297 163.342 334.675C163.264 332.715 164.276 332.601 163.197 330.407C161.926 329.925 161.489 329.885 160.512 328.947L160.856 328.045C161.605 328.262 162.312 328.534 163.028 328.843C163.93 327.104 162.61 323.193 163.305 320.155C164.561 320.482 163.979 320.563 165.101 320.219L165.557 319.155L164.241 318.14L164.173 317.246L165.112 316.301L166.614 316.411C168.107 315.356 169.725 313.312 170.97 311.888C172.886 311.257 178.908 313.126 181.039 313.8L181.027 314.984L181.563 315.338C183.543 314.73 184.332 314.171 186.054 315.475L185.186 317.231L185.527 317.97C189.259 318.938 186.277 316.429 189.487 317.781C191.845 318.775 193.308 321.631 196.141 321.704C195.648 320.371 195.664 320.741 195.577 319.382C197.25 319.615 197.417 319.848 198.862 320.684C198.864 321.779 198.91 321.22 198.716 322.363C199.757 322.674 200.057 322.807 200.997 323.295L201.862 323.749L202.494 322.291L203.079 322.322L203.401 324.412C205.569 325.065 214.709 324.96 217.827 325.15C222.491 325.434 226.51 325.757 231.201 326.786L231.78 328.011C233.436 328.595 236.27 326.823 239.258 326.709C243.036 332.327 243.033 327.108 246.774 326.892C248.058 326.817 252.685 328.036 253.861 327.624C255.349 327.103 254.463 326.205 257.131 326.182L258.35 327.743C260.27 328.319 268.343 325.212 270.854 324.357L271.268 325.884C272.721 325.83 273.799 325.972 274.979 325.184C274.314 324.162 273.713 324.252 272.272 323.718C273.19 323.449 273.818 323.41 274.768 323.674C279.249 324.922 278.244 321.78 282.537 321.193C284.212 322.127 284.197 322.464 285.808 321.859C286.553 320.039 286.729 318.963 288.661 318.682C288.787 319.591 288.831 319.812 289.037 320.674C293.813 321.519 296.881 315.279 301 316.023C302.611 316.314 302.955 316.152 304.66 315.966L305.306 315.891C306.043 315.108 305.731 315.554 305.731 314.003L306.376 313.451L307.756 314.089C308.469 313.931 312.515 310.568 314.392 309.52C315.82 310.514 317.224 311.425 318.685 312.37Z" fill="#000101"/>
<path d="M173.43 346.342C176.01 347.415 176.48 348.105 178.426 350.167L180.632 350.434L181.185 351.156C180.938 352.458 180.912 352.393 180.206 353.537L180.511 353.948C185.068 354.248 189.102 358.403 193.526 360.223C193.881 359.971 194.236 359.719 194.591 359.467C196.436 361.854 192.902 360.126 195.614 362.445L194.111 363.234C191.789 362.589 192.484 361.143 189.845 360.095L188.349 361.084L187.349 360.752C184.521 356.83 184.109 357.496 178.904 356.232L179.577 355.175C178.204 352.392 171.084 350.839 171.702 346.908L173.43 346.342Z" fill="#97C829"/>
<path d="M314.391 309.52C315.819 310.514 317.223 311.425 318.683 312.37C318.115 312.96 317.87 313.228 317.453 313.951C315.12 315.175 312.036 317.103 309.385 315.668C307.874 314.849 306.524 315.953 305.305 315.891C306.042 315.108 305.729 315.554 305.729 314.003L306.375 313.451L307.754 314.089C308.467 313.931 312.514 310.568 314.391 309.52Z" fill="#103306"/>
<path d="M204.501 261.436C209.566 264.845 219.263 264.057 220.935 266.308C220.651 267.439 220.546 267.847 220.375 269.008C227.625 271.446 223.471 272.947 224.5 276.766C225.681 278.123 226.088 278.434 226.704 280.161C226.518 282.043 226.937 281.381 225.918 282.556L224.414 282.048L224.156 282.68C225.523 283.912 225.746 283.923 226.382 285.681C225.559 287.477 224.521 287.795 222.73 288.724L221.939 289.128C222.166 290.137 222.34 290.174 222.946 291.025L222.132 291.629C221.196 290.499 221.749 290.755 220.576 290.357C219.074 292.331 221.075 292.403 219.077 294.412C217.402 294.682 216.957 294.779 215.345 295.288C215.497 296.604 215.468 296.547 215.172 297.852C214.741 297.308 214.052 296.217 213.504 296.098C210.178 295.374 203.938 296.78 200.719 297.626L199.912 296.748L200.119 294.875L199.309 294.414L197.863 294.938C196.93 292.019 193.593 290.324 190.76 287.933C189.504 284.588 191.372 272.566 192.368 268.969L193.156 268.564L194.508 270.119L195.117 269.641C196.877 262.386 200.093 265.617 204.501 261.436Z" fill="#000101"/>
<path d="M285.604 262.426C287.714 264.565 293.407 263.682 295.923 264.293C294.999 265.297 295.038 264.888 294.832 265.935C296.24 266.689 296.424 266.584 297.373 267.779L296.293 268.719C296.541 270.041 296.247 269.459 297.454 270.353L299.562 269.918C300.613 270.966 302.623 274.598 303.486 276.05L303.058 276.407L300.342 275.953L300.164 276.709C301.434 277.59 301.747 277.693 302.698 278.936C301.392 282.708 302.567 280.556 304.177 282.7C302.953 284.369 301.086 284.522 299.364 286.838L299.552 287.654L300.812 288.366L301.382 286.924L301.876 287.063C302.012 288.541 302.174 288.595 301.471 289.844L300.576 289.996C299.113 289.121 299.198 288.959 297.573 288.739C296.494 290.636 299.041 291.335 297.711 292.558C295.18 294.885 290.241 299.876 286.71 297.643C287.45 296.75 288.709 296.94 290.272 296.746L290.626 295.483L290.217 294.844C289.121 295.144 289.573 295.047 288.588 296.121L288.092 295.34L286.788 295.101C284.421 296.54 287.315 295.496 285.517 298.394C283.798 298.598 284.408 298.597 282.578 297.342C276.303 300.485 278.734 296.807 275.937 294.557C274.394 294.678 271.858 295.283 271.167 293.636L273.311 294.023C271.728 292.47 270.963 291.977 270.179 289.98C271.137 284.209 270.124 286.471 267.781 284.11C266.933 280.195 267.478 277.348 269.443 274.006C270.766 274.337 270.374 274.431 271.573 274.19C269.855 272.358 268.887 271.418 268.91 268.95C270.369 267.743 270.715 268.483 273.546 268.709C276.441 266.22 274.371 265.697 275.084 263.778C277.221 263.565 275.796 265.08 279.046 265.926C278.385 265.017 278.545 265.272 278.117 264.246L278.928 263.578C281.194 263.113 282.533 263.15 284.759 263.929L285.604 262.426Z" fill="#000101"/>
<path d="M269.5 76.3416C271.1 75.9085 271.268 75.7322 272.168 74.5119C274.104 71.8882 278.363 71.2848 281.561 70.3319C282.065 70.1821 282.594 70.7108 283.43 70.4033C283.464 70.0904 283.502 69.813 283.551 69.5022L283.966 69.4676C284.315 69.6893 284.567 69.8428 284.935 70.0402C287.881 68.7243 296.548 71.5897 298.694 74.248C302.119 74.9659 301.58 74.6075 302.44 76.8348C302.898 78.0144 305.788 79.6156 305.567 81.2932C305.338 83.0249 307.525 85.4642 307.704 87.3336C308.078 89.0767 307.62 89.6978 307.833 91.147C308.478 92.0277 310.205 92.4346 311.324 92.1223C311.963 91.8459 312.379 90.8047 312.955 90.5054C318.467 87.6472 323.785 84.3785 330.547 84.3045C331.207 84.2974 332.297 84.0291 332.942 84.219L332.866 84.8555L333.245 85.2022C334.206 85.3399 335.261 84.8725 336.092 85.5691C337.27 86.555 339.683 86.1555 341.017 86.7667C343.277 87.7736 344.936 89.7853 346.862 91.1295C349.628 93.0585 350.141 94.3525 351.538 96.9889L351.48 97.6135C351.227 99.9937 352.773 101.539 353.107 103.87C353.179 104.373 352.719 106.004 352.664 106.794C354.494 109.598 349.093 114.387 350.946 118.322C354.827 119.445 359.185 118.706 363.112 118.676C364.68 118.664 366.563 119.673 368.148 119.916C368.683 119.762 369.078 119.569 369.594 119.725C370.668 120.773 371.423 120.785 372.731 121.465C375.795 123.06 377.667 125.199 380.006 127.433C380.466 130.186 382.276 129.907 382.327 131.856C382.356 133.007 382.472 132.745 382.783 133.742C383.995 137.621 383.569 144.765 380.73 147.893C378.54 150.302 377.817 150.252 375.683 153.366C374.997 153.56 372.789 154.36 372.851 154.875C373.005 156.17 373.196 155.61 372.4 156.961C373.837 158.709 375.877 156.794 377.116 158.043C377.845 158.853 379.267 159.311 380.404 159.768C394.006 165.236 393.948 184.579 386.01 193.725C385.521 193.864 384.95 193.995 384.447 194.12C383.957 194.582 384.115 194.46 384.046 195.259C385.19 197.964 388.33 200.114 389.329 202.635C390.179 203.16 390.759 203.485 391.66 203.937C392.32 205.416 392.793 206.44 393.936 207.728C396.674 210.816 397.638 214.506 400.006 217.819C399.782 219.556 400.268 221.078 400.117 222.82C399.785 226.586 398.04 230.816 395.68 233.985C394.38 235.733 389.428 239.233 386.903 239.585C385.159 239.828 384.469 239.538 382.81 240.608C382.619 240.705 378.612 240.597 377.831 240.615C377.172 240.042 377.768 239.405 376.807 239.559C373.695 240.059 372.361 238.428 369.751 237.412C368.632 236.977 367.736 237.077 366.267 236.402C364.795 234.265 362.356 233.026 360.35 231.314C359.133 230.277 359.175 229.95 357.45 229.491C355.34 228.93 353.341 228.053 351.212 227.487C348.197 228.479 348.385 229.082 346.494 231.082C344.95 232.713 343.097 234.421 341.476 236.016C340.04 237.357 336.651 238.841 335.685 240.044C332.325 240.583 331.325 239.809 328.685 241.236C328.105 241.156 326.47 240.889 325.916 240.905C318.831 241.108 314.864 238.6 308.884 235.33C307.613 233.093 307.91 233.309 305.28 232.398C304.327 231.811 303.256 230.407 302.647 229.624C301.207 227.774 299.641 226.213 298.172 224.398C298.248 224.492 295.756 223.443 295.397 223.227C294.856 223.467 292.768 224.31 292.453 224.565C289.523 226.926 287.315 230.712 284.254 232.878C283.364 233.507 279.583 234.449 278.874 235.471C278.468 236.056 271.904 235.811 271.008 235.484C269.279 235.211 268.192 235.856 266.289 235.19C262.348 233.825 258.351 232.181 254.965 229.89C254.332 229.463 252.674 228.991 252.222 228.36C249.392 224.415 247 220.176 244.049 216.267C244.013 216.209 243.978 216.15 243.943 216.093C240.893 215.146 241.789 216.289 239.013 216.525C237.447 217.603 236.956 218.989 235.85 219.928C233.677 221.772 228.282 225.479 225.288 225.742L224.011 226.734C221.305 226.674 218.819 226.988 216.218 226.951C214.462 226.927 208.183 226.017 206.793 224.843C206.502 224.597 206.343 224.265 206.181 223.952C205.429 223.574 202.243 222.121 201.927 221.692C200.558 219.829 199.005 218.353 197.408 216.645C197.291 216.151 197.215 215.802 197.139 215.297L196.787 215.167C194.29 214.225 194.837 212.857 193.686 211.469C191.852 209.258 189.451 207.364 188.869 204.518C187.702 203.98 187.024 203.679 185.946 203.004C183.966 203.05 183.313 203.476 181.524 203.632C179.984 205.168 178.643 206.185 176.64 207.271C174.864 208.233 173.991 208.457 172.463 209.698C172.385 209.698 172.307 209.696 172.229 209.696C171.051 209.418 169.358 210.903 168.727 210.343C168.621 210.246 168.141 210.034 168.006 209.971C167.129 210.324 166.468 210.679 165.501 210.607C163.86 210.484 160.766 210.868 159.305 210.784C154.485 210.509 147.202 206.141 143.825 203.405C140.801 200.956 137.146 195.243 137.226 191.633C137.259 190.167 137.547 186.083 138.504 184.778C138.827 184.336 139.941 183.429 140.429 182.944C140.81 182.826 140.351 181.929 140.367 181.91C141.89 180.158 143.695 178.504 145.463 176.944C146.255 176.243 147.477 175.536 148.425 174.977C150.139 173.969 151.776 172.724 153.577 171.85C155.136 171.094 156.953 170.545 158.505 169.756C159.774 169.046 161.413 167.833 162.619 167.412C162.06 167.021 162.025 167.03 161.615 166.487C161.611 164.102 160.304 164.96 159.267 163.209C158.509 161.927 157.817 160.179 157.33 158.795C156.926 157.646 155.927 155.91 156.448 154.813C156.633 154.406 156.686 154.291 156.683 153.819C156.611 153.733 155.96 152.936 155.963 152.885C156.144 148.751 157.932 144.849 159.655 141.125C159.99 140.402 161.551 139.343 161.998 138.487C161.812 138.077 161.775 138.056 161.739 137.627C165.394 133.742 169.128 130.259 175.408 130.071C176.303 130.044 177.259 129.946 178.154 129.869C178.653 129.472 179.247 129.055 179.769 128.671C179.862 126.291 179.01 123.842 178.69 121.385C178.544 121.293 177.763 120.793 177.709 120.725C177.167 119.869 175.937 117.318 176.01 116.373C176.262 113.081 177.687 109.978 177.872 106.591C177.899 106.092 179.053 105.833 179.085 105.746C179.891 103.569 181.368 102.109 183.15 100.521C185.316 100.136 186.761 98.6132 188.614 97.6642C194.37 94.7167 205.579 93.8311 211.324 97.5561C211.398 97.689 211.474 97.8211 211.552 97.9525C212.034 98.7524 212.327 98.7176 213.465 99.0225C214.748 99.3656 215.148 99.7031 216.229 100.393C218.431 99.6869 217.313 98.4493 217.321 96.5193C217.349 90.0059 218.171 83.0138 223.741 78.3459C223.921 78.1947 225.194 78.5165 225.412 77.3565C226.098 75.5164 229.79 74.5396 231.444 73.3482C234.335 70.8673 248.751 72.4525 250.497 74.9657C255.877 77.2053 257.269 80.7856 260.698 84.2151L260.886 84.4008C261.326 84.5133 262.748 84.8957 263.13 84.6972C265.017 83.7145 265.899 81.3128 267.032 79.7247C267.595 78.9357 268.128 78.4294 268.546 77.6771C268.884 77.0686 269.076 76.8617 269.5 76.3416Z" fill="#FE4E00"/>
<path d="M384.048 195.259C385.191 197.964 388.331 200.114 389.33 202.634C390.18 203.16 390.76 203.485 391.661 203.937C392.321 205.416 392.794 206.439 393.937 207.727C396.675 210.816 397.639 214.505 400.007 217.819C399.783 219.556 400.269 221.078 400.118 222.82C399.786 226.586 398.041 230.815 395.681 233.985C394.381 235.733 389.429 239.233 386.904 239.585C385.16 239.828 384.47 239.537 382.812 240.608C382.62 240.705 378.613 240.596 377.832 240.614C377.173 240.041 377.769 239.405 376.808 239.559C373.697 240.059 372.362 238.428 369.752 237.412C368.633 236.977 367.737 237.077 366.268 236.402C364.796 234.265 362.357 233.026 360.351 231.314C359.134 230.277 359.176 229.95 357.451 229.491C355.341 228.93 353.342 228.052 351.213 227.487C348.198 228.479 348.386 229.082 346.495 231.081C344.952 232.713 343.098 234.42 341.477 236.016C340.042 237.357 336.652 238.841 335.687 240.043C332.326 240.583 331.326 239.809 328.686 241.235C328.106 241.156 326.471 240.888 325.917 240.904C318.832 241.107 314.865 238.599 308.885 235.33C307.614 233.093 307.911 233.309 305.281 232.398C304.328 231.811 303.257 230.406 302.648 229.624C301.208 227.774 299.642 226.212 298.173 224.398C298.249 224.492 295.757 223.442 295.398 223.227C294.857 223.467 292.769 224.31 292.454 224.565C289.524 226.926 287.317 230.711 284.256 232.878C283.365 233.507 279.584 234.449 278.876 235.471C278.469 236.056 271.905 235.811 271.009 235.484C269.28 235.211 268.193 235.856 266.29 235.189C262.35 233.824 258.352 232.18 254.966 229.89C254.333 229.462 252.675 228.99 252.223 228.36C249.394 224.415 247.001 220.175 244.05 216.267C244.015 216.209 243.98 216.15 243.944 216.092C240.894 215.145 241.79 216.289 239.014 216.525C237.449 217.603 236.957 218.988 235.851 219.928C233.678 221.772 228.284 225.479 225.289 225.742L224.013 226.734C221.306 226.674 218.82 226.988 216.219 226.951C214.463 226.926 208.184 226.017 206.794 224.842C206.504 224.597 206.344 224.265 206.182 223.952C205.43 223.574 202.244 222.121 201.928 221.691C200.559 219.829 199.006 218.353 197.409 216.644C197.292 216.151 197.216 215.801 197.14 215.296L196.788 215.167C194.291 214.225 194.838 212.857 193.687 211.469C191.853 209.257 189.452 207.364 188.871 204.517C187.703 203.98 187.025 203.679 185.947 203.004C183.967 203.05 183.314 203.476 181.525 203.631C179.985 205.168 178.645 206.185 176.641 207.27C174.865 208.233 173.992 208.457 172.464 209.698C172.386 209.698 172.308 209.696 172.23 209.695C171.052 209.418 169.359 210.903 168.728 210.342C168.622 210.246 168.142 210.033 168.007 209.971C167.13 210.324 166.469 210.679 165.502 210.607C163.861 210.483 160.767 210.868 159.306 210.784C154.486 210.509 147.203 206.141 143.826 203.405C140.802 200.955 137.147 195.243 137.228 191.633C137.26 190.167 137.548 186.082 138.505 184.778C138.829 184.335 139.943 183.429 140.43 182.944C140.812 182.826 140.352 181.928 140.368 181.91C141.891 180.158 143.696 178.504 145.464 176.943C146.256 176.243 147.478 175.535 148.426 174.977C150.14 173.969 151.777 172.724 153.578 171.85C155.138 171.094 156.954 170.545 158.506 169.755C159.775 169.046 161.414 167.833 162.62 167.411C162.95 167.78 168.451 171.688 169.08 171.976C172.106 173.354 176.533 174.669 179.857 175.538C180.933 175.821 182.116 176.954 183.193 177.334C184.072 177.645 185.68 177.364 186.443 177.794C187.317 179.803 187.552 177.853 189.306 179.209L189.481 179.347L190.03 179.035C190.98 179.11 190.021 179.82 191.227 180.042C191.752 180.138 193.309 180.247 193.745 180.345C193.759 180.346 195.093 181.387 195.463 181.525C197.098 182.139 199.232 182.395 200.747 183.175C200.958 183.521 201.037 183.651 201.301 183.964C201.658 183.714 201.513 183.778 201.979 183.671C202.759 184.82 205.717 185.197 207.254 185.685C209.421 186.373 211.589 187.26 213.767 187.836C215.834 188.383 218.415 188.366 220.431 189.14C221.555 189.591 222.612 190.272 223.964 190.227L224.234 189.627L224.506 189.616L224.576 190.205C225.089 190.718 230.543 191.987 231.591 192.222C232.141 192.054 231.998 192.058 232.562 192.027C232.779 192.337 232.978 192.601 233.212 192.904C234.444 193.228 235.291 193.028 236.481 193.29L237.373 194.07C238.623 194.368 240.375 194.785 241.582 195.012C242.062 194.718 241.862 194.751 242.39 194.696L243.013 195.481C244.148 195.857 242.979 195.304 244.162 195.14L244.424 195.648C244.617 195.768 248.831 196.953 249.496 197.17C249.817 196.954 250.142 196.754 250.469 196.549C251.041 196.556 250.81 196.456 251.215 196.763L251.064 197.34C251.452 197.636 256.344 197.759 257.439 197.906C257.738 198.262 257.802 198.354 258.168 198.653C260.563 198.126 261.575 199.035 264.027 199.489C266.706 199.985 269.664 199.919 272.206 200.678C272.874 200.877 273.181 201.31 274.008 201.039C273.903 200.662 273.893 200.783 273.936 200.421C276.144 200.555 280.397 202.119 282.702 202.429C283.368 202.52 283.316 201.635 285.047 202.273C286.659 202.867 289.538 202.827 291.315 202.844C292.373 201.991 291.835 202.753 293.1 203.02L293.863 202.564C294.32 202.666 294.41 202.934 294.82 203.33C295.705 204.186 295.153 203.172 296.276 203.166C296.463 203.334 297.248 204.033 297.393 204.037C299.085 204.075 301.533 204.027 303.196 204.095C303.627 203.757 303.454 203.836 303.976 203.647C307.638 204.745 309.793 203.477 313.217 204.396C313.588 204.495 313.25 204.6 313.997 204.65C314.08 204.544 314.425 204.092 314.457 204.09C315.541 203.978 317.376 204.396 318.449 204.377C319.795 204.351 321.61 203.981 322.8 204.014C325.247 204.084 327.597 204.152 330.035 204.265C330.579 204.288 332.45 203.791 333.078 203.747C334.555 203.645 335.869 203.82 337.432 203.824C338.889 203.828 340.732 203.573 342.167 203.701C342.504 203.908 342.783 204.08 343.006 204.218C343.284 204.044 343.326 204.007 343.584 203.784L343.811 203.585C345.209 203.323 347.235 203.242 348.714 203.139C348.906 203.125 349.028 203.58 349.974 203.659C350.226 203.362 350.252 203.316 350.572 203.08C353.72 203.025 355.042 203.33 358.06 203.724L358.239 203.19C358.725 202.844 358.443 202.946 359.148 202.95C359.587 203.204 359.662 203.335 359.968 203.7L360.07 203.827C363.92 200.753 376.815 201.216 384.048 195.259Z" fill="#FEB502"/>
<path d="M295.846 160.813C295.139 159.346 294.251 158.536 293.241 157.218C293.447 156.854 293.386 156.975 293.797 156.699C293.646 155.652 293.421 156.328 293.297 155.791C293.035 154.659 294.139 154.593 293.059 153.711C292.922 152.6 292.625 147.787 293.477 146.934C293.912 146.496 294.133 146.573 294.153 145.986L293.598 145.532C293.548 143.528 296.415 142.567 296.745 141.809L296.194 141.471C296.238 140.803 297.929 139.418 298.517 138.957C300.328 137.534 304.694 136.125 307.185 136.422C310.473 136.814 313.631 138.26 315.662 140.636C317.334 142.592 318.488 144.225 318.747 146.658C318.784 147.002 319.215 147.443 319.472 147.735C319.208 148.168 319.229 148.11 318.862 148.493C319.112 150.197 319.64 152.327 319.165 153.915L318.978 154.101L318.612 154.108C318.398 155.103 319.143 156.798 318.491 157.359C317.043 158.605 316.701 160.827 315.592 162.339C315.532 162.418 314.55 162.457 314.357 162.461C314.115 162.93 314.129 163.045 314.052 163.551C311.008 165.432 306.562 166.984 302.634 165.801C301.512 165.465 298.188 163.474 297.63 162.533C297.028 161.986 296.427 161.38 295.846 160.813Z" fill="#1D1D1D"/>
<path d="M295.847 160.814C296.727 160.707 296.767 160.569 297.446 160.84C297.743 161.374 297.645 161.931 297.631 162.534C297.029 161.988 296.428 161.382 295.847 160.814Z" fill="#281E1D"/>
<path d="M248.733 128.891C253.982 129.39 258.305 133.036 259.727 137.422L259.372 137.723L259.378 138.022L260.254 138.576C260.639 139.497 259.705 138.971 260.025 139.734C260.285 140.352 260.876 140.481 260.92 141.399C259.978 142.63 260.754 141.865 261.181 142.876C261.012 143.834 260.225 144.106 260.239 144.839C260.625 145.139 260.73 145.167 260.956 145.559C260.462 148.04 260.008 146.693 259.537 147.392C260.941 149.099 259.031 149.337 258.224 150.75C258.095 150.977 258.174 151.692 258.013 151.908C256.114 154.447 253.363 156.266 249.993 157.111C248.949 157.38 248.431 157.549 247.571 157.154C247.321 157.074 247.264 157.157 246.904 157.247C245.718 156.951 244.415 157.278 243.354 156.741C236.675 153.366 237.022 152.795 234.588 146.487C234.069 145.143 234.597 144.752 234.831 143.286C234.279 142.751 234.136 142.737 234.386 142.127L235.064 141.906L235.169 141.621C234.187 140.266 235.911 139.865 236.488 138.295C236.272 137.83 236.251 137.806 236.166 137.318C236.533 136.681 237.575 134.835 238.071 134.149C238.091 134.12 238.404 134.211 238.857 133.918L239.017 132.748C239.603 132.222 240.24 131.497 241.142 131.469C242.059 131.44 241.966 131.123 242.119 130.507C242.885 129.776 247.369 129.014 248.733 128.891Z" fill="#1D1D1D"/>
</svg>
