<svg width="500" height="500" viewBox="0 0 500 500" fill="none" xmlns="http://www.w3.org/2000/svg">
<path d="M216.919 158.222C222.855 156.861 225.599 156.87 231.732 157.149L232.355 157.23C243.079 158.558 255.199 158.425 266.196 161.361C270.995 162.642 272.827 164.129 276.963 165.587L281.958 164.236C285.51 165.399 291.181 166.614 293.248 169.497C292.427 172.722 291.356 169.678 291.867 172.73C293.224 172.968 295.473 170.672 296.555 169.697C302.887 171.325 307.923 173.242 313.94 175.765C317.348 177.194 321.693 177.871 325.169 179.309C356.144 191.533 387.134 211.755 406.158 239.522C408.586 243.066 410.096 246.975 412.053 250.748C413.759 254.039 416.835 256.927 417.827 260.676C422.714 274.51 426.234 289.575 427.092 304.226C426.947 306.663 425.713 308.71 425.663 311.2C425.553 316.666 426.71 322.309 425.795 327.73C425.199 331.263 424.206 335.018 423.13 338.422C421.843 342.495 420.578 346.932 418.75 350.782C416.228 356.096 414.257 361.521 411.975 366.913C406.042 373.327 403.866 380.39 398.253 386.94C388.066 399.007 376.02 409.72 363.016 418.676C361.749 419.55 358.718 418.708 356.947 420.42C356.395 421.655 355.646 424.188 354.35 424.478C338.32 428.069 310.264 444.99 294.394 442.957C292.867 443.829 291.113 445.027 289.439 445.253C279.638 441.924 280.939 446.076 273.647 446.408C273.602 445.907 273.553 445.405 273.501 444.904C267.675 445.082 258.644 449.587 254.375 443.956C250.109 447.135 243.823 446.831 240.235 442.819C239.493 442.699 233.003 444.379 230.823 444.093C220.897 442.789 199.715 437.214 190.742 439.156C184.909 435.278 183.206 436.111 176.706 434.414C174.65 433.878 173.379 431.556 170.861 431.369C163.516 434.074 165.647 430.354 160.834 429.127C148.963 426.1 138.506 422.186 127.995 415.835C124.925 413.98 120.883 408.451 118.019 407.735C116.372 408.047 116.022 408.184 114.322 408.11C112.611 406.901 112.971 407.656 112.592 406.066L114.132 404.75C113.696 402.608 98.1936 397.965 100.424 391.367C101.022 389.599 94.6141 385.418 93.4856 383.498C91.4766 380.081 89.3026 376.621 86.8676 373.34C83.2901 367.874 83.6006 367.091 82.8741 360.389C82.3161 359.647 80.0536 356.624 79.7751 355.432C77.8071 347.01 74.5046 336.436 74.7126 327.9C74.7431 326.643 76.1731 326.228 77.0361 325.808L76.8921 325.193C72.1871 321.258 73.2356 320.584 73.1486 314.86C72.8086 307.839 73.1306 300.801 73.3351 293.842C73.6071 284.594 74.8461 277.814 77.7606 269.022C79.2606 264.497 79.9511 260.203 82.0401 255.622C84.5161 250.194 87.7271 245.339 90.0141 239.883C91.6851 235.464 91.3446 235.473 95.7266 233.519C99.2806 218.72 120.565 196.287 132.174 186.675C140.039 180.161 158.329 169.514 168.457 167.695C171.155 167.142 173.855 165.713 176.627 164.725C180.992 163.169 184.037 162.595 188.587 161.833C188.768 161.816 188.949 161.8 189.129 161.783C194.271 162.548 196.881 158.542 201.526 160.35C204.879 157.963 213.21 156.832 216.919 158.222Z" fill="#96DA01"/>
<path d="M168.457 167.696C171.155 167.143 173.855 165.714 176.627 164.726C180.992 163.17 184.037 162.596 188.587 161.834C185.053 165.225 173.175 170.06 168.457 167.696Z" fill="#97C829"/>
<path d="M201.527 160.349C204.881 157.962 213.212 156.832 216.92 158.221L217.075 159.054C215.293 160.228 203.548 162.135 202.121 161.344L201.527 160.349Z" fill="#97C829"/>
<path d="M82.875 360.391C87.0405 361.576 87.07 363.884 88.3255 367.822C87.827 369.658 87.3415 371.498 86.8685 373.342C83.291 367.876 83.6015 367.093 82.875 360.391Z" fill="#97C829"/>
<path d="M240.238 442.821L240.671 442.843C248.248 443.149 245.432 441.162 254.378 443.958C250.112 447.137 243.826 446.833 240.238 442.821Z" fill="#97C829"/>
<path d="M318.685 311.388L319.86 311.13C320.17 309.814 320.173 310.511 319.257 308.979C320.203 308.545 319.69 308.688 321.08 309.137C321.036 309.857 321.049 310.505 321.109 311.23L321.887 311.308L323.898 309.609C327.79 309.951 327.441 314.017 330.368 315.573C330.945 314.92 330.993 314.672 331.798 314.332C334.548 316.738 333.657 318.887 331.923 321.512L331.989 322.102C333.175 321.97 332.804 322.026 333.933 321.524C335.438 324.631 330.647 337.803 326.95 339.455L326.029 338.905C326.166 337.88 326.286 336.853 326.388 335.824C324.335 337.743 323.823 339.806 323.028 342.487C321.534 343.734 322.41 343.354 320.18 343.327C320.224 345.005 320.308 345.468 320.585 347.071L320.184 347.681L316.341 348.091L315.95 349.041C316.919 349.899 316.958 349.658 317.362 350.86L316.37 351.474L315.058 349.701C313.28 350.52 313.37 352.137 312.903 352.302C309.851 353.378 310.779 349.899 308.187 354.623C305.566 356.107 305.134 354.843 303.176 356.482C303.602 357.097 303.889 357.539 304.298 358.19C301.475 360.583 295.936 359.473 292.771 361.075C292.666 361.129 291.682 363.994 291.519 364.489C290.148 365.151 286.048 366.199 284.635 365.715L284.277 364.461L283.307 364.676L284.163 365.845C282.433 367.051 280.166 366.099 277.108 367.539C277.295 368.647 277.165 368.169 277.439 368.989C273.407 369.863 271.824 365.336 268.782 369.632C268.296 370.319 262.74 368.766 261.435 369.535L261.707 371.265L261.148 371.42L259.621 370.532C258.52 371.019 258.322 371.125 257.326 371.797C255.899 371.624 255.347 371.127 254.14 370.362C250.965 370.348 251.195 372.116 248.009 371.782C247.425 370.745 247.099 370.062 246.611 368.974C245.185 368.302 245.935 368.467 244.254 368.611L243.612 369.601L243.578 369.553C244.043 369.822 245.695 370.722 245.985 371.017L245.46 371.717C242.209 371.78 244.825 370.715 242.635 370.899C241.177 371.021 240.736 372.726 238.821 372.633C239.232 371.427 239.212 371.63 239.935 370.527C238.091 369.113 234.838 372.237 232.278 371.777C229.73 370.157 228.845 369.013 226.158 368.922C225.197 369.723 225.254 369.654 224.791 370.818C222.542 370.511 222.038 370.039 220.866 368.116C218.173 367.997 212.768 368.785 211.202 368.358C210.634 367.379 210.238 366.634 209.741 365.618C207.868 364.657 207.39 364.2 205.365 365.312C203.062 363.523 205.08 362.403 202.089 362.426C200.052 362.442 199.546 362.939 197.639 362.034L196.875 361.198L195.613 361.463L194.11 362.252C191.789 361.607 192.483 360.161 189.845 359.113L188.349 360.102L187.348 359.77C184.521 355.848 184.108 356.514 178.903 355.25L179.577 354.193C178.203 351.41 171.083 349.857 171.702 345.926L173.43 345.36C169.702 343.919 163.525 338.314 163.342 333.692C163.264 331.732 164.276 331.619 163.197 329.424C161.926 328.943 161.489 328.903 160.512 327.964L160.856 327.063C161.605 327.279 162.312 327.552 163.028 327.861C163.93 326.121 162.61 322.211 163.305 319.172C164.561 319.5 163.979 319.581 165.101 319.236L165.557 318.172L164.241 317.158L164.173 316.264L165.112 315.318L166.614 315.429C168.107 314.373 169.725 312.33 170.97 310.905C172.886 310.275 178.908 312.144 181.039 312.817L181.027 314.002L181.563 314.356C183.543 313.747 184.332 313.189 186.054 314.493L185.186 316.249L185.527 316.988C189.259 317.956 186.277 315.446 189.487 316.799C191.845 317.792 193.308 320.648 196.141 320.722C195.648 319.388 195.664 319.759 195.577 318.399C197.25 318.633 197.417 318.865 198.862 319.701C198.864 320.797 198.91 320.237 198.716 321.381C199.757 321.691 200.057 321.824 200.997 322.313L201.862 322.767L202.494 321.308L203.079 321.34L203.401 323.43C205.569 324.083 214.709 323.977 217.827 324.167C222.491 324.451 226.51 324.774 231.201 325.804L231.78 327.029C233.436 327.612 236.27 325.841 239.258 325.726C243.036 331.344 243.033 326.126 246.774 325.909C248.058 325.835 252.685 327.054 253.861 326.641C255.349 326.12 254.463 325.223 257.131 325.199L258.35 326.76C260.27 327.336 268.343 324.229 270.854 323.374L271.268 324.901C272.721 324.847 273.799 324.989 274.979 324.202C274.314 323.179 273.713 323.27 272.272 322.735C273.19 322.466 273.818 322.427 274.768 322.692C279.249 323.94 278.244 320.797 282.537 320.21C284.212 321.144 284.197 321.482 285.808 320.876C286.553 319.057 286.729 317.98 288.661 317.699C288.787 318.608 288.831 318.829 289.037 319.691C293.813 320.537 296.881 314.296 301 315.04C302.611 315.331 302.955 315.169 304.66 314.983L305.306 314.909C306.043 314.125 305.731 314.571 305.731 313.021L306.376 312.469L307.756 313.107C308.469 312.948 312.515 309.585 314.392 308.537C315.82 309.531 317.224 310.443 318.685 311.388Z" fill="#000101"/>
<path d="M173.43 345.359C176.01 346.433 176.48 347.123 178.426 349.184L180.632 349.451L181.185 350.173C180.938 351.476 180.912 351.411 180.206 352.554L180.511 352.965C185.068 353.265 189.102 357.42 193.526 359.24C193.881 358.988 194.236 358.737 194.591 358.485C196.436 360.871 192.902 359.143 195.614 361.462L194.111 362.252C191.789 361.607 192.484 360.16 189.845 359.113L188.349 360.102L187.349 359.77C184.521 355.847 184.109 356.513 178.904 355.25L179.577 354.193C178.204 351.41 171.084 349.856 171.702 345.926L173.43 345.359Z" fill="#97C829"/>
<path d="M314.391 308.537C315.819 309.531 317.223 310.443 318.683 311.388C318.115 311.978 317.87 312.246 317.453 312.968C315.12 314.192 312.036 316.12 309.385 314.685C307.874 313.867 306.524 314.97 305.305 314.909C306.042 314.125 305.729 314.571 305.729 313.021L306.375 312.469L307.754 313.107C308.467 312.948 312.514 309.585 314.391 308.537Z" fill="#103306"/>
<path d="M204.501 260.453C209.566 263.863 219.263 263.074 220.935 265.326C220.651 266.456 220.546 266.865 220.375 268.025C227.625 270.464 223.471 271.964 224.5 275.784C225.681 277.14 226.088 277.451 226.704 279.179C226.518 281.06 226.937 280.399 225.918 281.573L224.414 281.065L224.156 281.698C225.523 282.93 225.746 282.94 226.382 284.699C225.559 286.495 224.521 286.812 222.73 287.742L221.939 288.145C222.166 289.155 222.34 289.192 222.946 290.042L222.132 290.647C221.196 289.516 221.749 289.773 220.576 289.375C219.074 291.349 221.075 291.42 219.077 293.43C217.402 293.7 216.957 293.796 215.345 294.305C215.497 295.621 215.468 295.565 215.172 296.869C214.741 296.326 214.052 295.235 213.504 295.116C210.178 294.392 203.938 295.797 200.719 296.644L199.912 295.766L200.119 293.892L199.309 293.432L197.863 293.956C196.93 291.036 193.593 289.342 190.76 286.951C189.504 283.605 191.372 271.584 192.368 267.987L193.156 267.582L194.508 269.136L195.117 268.658C196.877 261.404 200.093 264.634 204.501 260.453Z" fill="#000101"/>
<path d="M285.604 261.443C287.714 263.583 293.407 262.699 295.923 263.31C294.999 264.315 295.038 263.905 294.832 264.953C296.24 265.707 296.424 265.602 297.373 266.797L296.293 267.736C296.541 269.058 296.247 268.477 297.454 269.37L299.562 268.935C300.613 269.984 302.623 273.615 303.486 275.067L303.058 275.424L300.342 274.971L300.164 275.726C301.434 276.608 301.747 276.711 302.698 277.953C301.392 281.725 302.567 279.573 304.177 281.718C302.953 283.386 301.086 283.54 299.364 285.856L299.552 286.672L300.812 287.384L301.382 285.941L301.876 286.081C302.012 287.558 302.174 287.612 301.471 288.862L300.576 289.014C299.113 288.138 299.198 287.977 297.573 287.756C296.494 289.653 299.041 290.353 297.711 291.576C295.18 293.902 290.241 298.894 286.71 296.661C287.45 295.767 288.709 295.957 290.272 295.763L290.626 294.501L290.217 293.861C289.121 294.161 289.573 294.065 288.588 295.138L288.092 294.358L286.788 294.119C284.421 295.558 287.315 294.513 285.517 297.412C283.798 297.616 284.408 297.615 282.578 296.359C276.303 299.502 278.734 295.825 275.937 293.575C274.394 293.695 271.858 294.301 271.167 292.653L273.311 293.04C271.728 291.487 270.963 290.995 270.179 288.997C271.137 283.226 270.124 285.488 267.781 283.128C266.933 279.212 267.478 276.365 269.443 273.024C270.766 273.354 270.374 273.449 271.573 273.207C269.855 271.375 268.887 270.435 268.91 267.967C270.369 266.76 270.715 267.5 273.546 267.727C276.441 265.237 274.371 264.714 275.084 262.795C277.221 262.583 275.796 264.097 279.046 264.943C278.385 264.035 278.545 264.29 278.117 263.263L278.928 262.596C281.194 262.13 282.533 262.167 284.759 262.946L285.604 261.443Z" fill="#000101"/>
<path d="M229.6 54.9095C230.201 54.7232 230.988 54.4625 230.59 54.7212C233.125 53.0754 246.134 51.3958 246.461 55.8959L246.647 55.9344C250.111 56.6859 252.389 57.5276 254.688 60.4834C257.249 64.885 257.782 66.0353 258.653 71.1026C260.717 71.3891 260.688 71.4507 262.154 71.9017C264.152 72.5169 274.739 74.0541 276.369 74.0052C280.676 74.9125 286.102 76.5727 290.236 77.0502C292.419 77.0944 302.369 80.7629 304.885 81.9101C307.832 83.5137 310.716 85.1856 313.665 86.7935C315.312 87.6915 318.805 88.8719 320.041 89.9236C324.066 93.3482 332.667 100.393 335.257 104.996C339.515 112.563 343.798 120.987 346.508 129.174C347.163 132.102 346.847 135.224 347.054 138.215C347.061 139.649 348.249 141.303 348.303 142.675C348.612 150.584 349.831 158.433 350.431 166.312C350.879 172.19 349.968 176.894 351.59 182.692C351.855 182.985 352.175 183.337 352.548 183.749C355.154 184.12 359.813 184.444 362.252 184.565C367.362 188.711 371.195 188.996 373.097 195.559L373.774 196.901C373.8 199.852 374.021 202.758 373.75 205.681C373.61 207.187 373.153 208.642 372.97 210.039C371.729 216.599 364.494 222.482 358.325 222.623C352.57 222.754 335.457 226.322 331.862 223.196C328.747 222.931 322.333 224.355 318.913 224.328C313.704 224.288 308.73 223.34 303.582 224.67L302.91 224.439L303.038 223.564C303.858 223.092 304.558 223.31 305.533 223.417C306.245 222.931 306.255 222.995 306.569 222.204C303.739 221.266 297.533 225.585 296.78 224.931L297.188 224.419C297.731 223.732 297.878 223.457 298.292 222.697L298.122 222.12L297.266 221.822C290.477 225.618 292.387 220.797 285.713 224.784C284.626 224.258 283.243 223.534 282.162 223.075C278.369 223.99 270.945 224.379 267.102 224.402C263.923 224.422 262.05 221.192 260.038 224.121C259.812 224.449 252.066 223.223 251.182 223.544C249.914 223.598 248.187 223.802 247.166 223.176L246.837 222.462C244.759 222.536 245.102 224.791 243.141 223.025C242.21 222.184 241.49 222.345 240.368 222.673L240.217 222.921L241.103 223.611L240.825 224.288L240.235 224.348L240.01 223.926C239.661 223.286 239.803 223.531 239.349 222.881C237.177 222.65 234.156 222.405 232.38 223.477C231.453 224.033 230.307 223.605 229.349 223.36C226.227 222.556 221.435 223.993 218.199 223.785C215.776 223.631 214.12 221.882 211.668 223.226C211.035 223.578 210.407 223.94 209.784 224.315L209.311 224.154L208.813 222.606L208.276 222.392C207.459 222.911 207.741 222.676 207.169 223.504C203.694 223.43 200.267 223.253 196.787 223.487C196.561 223.501 195.609 222.944 195.364 222.804C192.854 223.102 194.66 225.012 191.608 222.914C191.453 222.921 191.05 222.931 190.839 222.975C186.702 223.886 181.879 223.139 177.661 223.263C168.819 223.517 159.765 223.903 150.936 223.474C149.058 223.38 145.434 224.399 143.861 224.328C142.594 224.271 140.46 223.353 138.497 223.125C136.257 225.052 136.859 222.814 133.884 222.68C131.121 225.112 128.203 223.122 124.808 223.025C123.549 222.991 122.237 223.082 120.986 223.182C120.439 222.606 119.674 221.624 118.74 221.839C116.47 222.358 113.283 220.348 111.253 219.353C110.226 216.686 110.793 217.121 108.118 216.478C108.795 215.905 108.469 216.197 109.097 215.6C106.484 213.211 107.726 213.05 105.834 210.421C105.249 210.847 105.24 210.855 104.57 211.12C104 210.558 104.182 210.903 104.061 210.065C106.061 208.089 104.641 206.553 104.186 203.583C103.01 195.911 107.627 192.223 111.926 186.734C116.055 185.686 122.61 184.363 127.091 184.23C126.861 184.236 128.69 184.678 128.625 184.662C129.048 176.562 127.155 165.512 128.561 157.24C129.061 154.297 130.606 144.226 131.567 142.279C131.787 140.159 131.42 137.435 131.21 135.26C132.98 132.09 133.289 131.321 133.935 127.837C133.992 127.031 135.253 122.583 135.558 121.03C135.995 119.809 135.526 121.017 135.977 120.073C143.438 104.468 150.423 92.98 166.33 84.8244C166.911 84.1727 177.006 79.672 178.346 79.4089C184.333 78.2336 190.499 76.1482 196.415 74.751C199.625 74.3483 216.99 72.2887 218.823 70.9039L220.734 71.4337C220.2 64.1332 227.026 59.9651 228.297 56.2829L229.6 54.9095Z" fill="#FEE501"/>
<path d="M299.276 185.209C300.354 183.809 301.505 182.329 303.469 182.331C304.281 182.979 304.09 182.568 304.237 183.492L302.946 183.908L303.045 184.278C303.931 185.099 304.08 185.012 305.263 185.206C305.902 183.687 305.985 182.473 307.092 181.299L307.582 181.335C308.474 182.493 308.626 183.88 308.965 185.347L311.605 183.652C314.182 183.692 315.671 184.008 318.208 184.384C318.881 183.98 319.052 183.873 319.605 183.346L320.03 182.935C321.292 182.739 320.716 182.657 321.834 183.07C322.08 183.8 322.203 184.204 322.349 184.95L322.471 185.581L322.9 185.819L323.374 185.535C323.634 184.615 323.701 184.359 324.103 183.502C325.619 183.096 326.568 183.035 327.948 183.683C328.644 184.57 328.557 184.651 329.504 185.183L329.968 183.923C331.138 183.394 343.649 184.637 346.12 184.217C346.486 184.155 346.83 184.885 347.068 185.225C348.194 185.277 349.057 184.2 350.647 183.406L350.935 183.265L351.59 182.694C351.855 182.986 352.175 183.339 352.548 183.751C355.154 184.121 359.813 184.446 362.252 184.567C367.362 188.713 371.195 188.997 373.097 195.56L373.774 196.903C373.8 199.854 374.021 202.76 373.75 205.683C373.61 207.189 373.153 208.644 372.97 210.04C371.729 216.6 364.494 222.484 358.325 222.625C352.57 222.755 335.457 226.324 331.862 223.198C328.747 222.933 322.333 224.357 318.913 224.33C313.704 224.29 308.73 223.342 303.582 224.672L302.91 224.441L303.038 223.566C303.858 223.094 304.558 223.312 305.533 223.419C306.245 222.933 306.255 222.997 306.569 222.206C303.739 221.268 297.533 225.587 296.78 224.933L297.188 224.421C297.731 223.734 297.878 223.459 298.292 222.698L298.122 222.122L297.266 221.824C290.477 225.62 292.387 220.799 285.713 224.786C284.626 224.26 283.243 223.536 282.162 223.077C278.369 223.992 270.945 224.38 267.102 224.404C263.923 224.424 262.05 221.194 260.038 224.122C259.812 224.451 252.066 223.224 251.182 223.546C249.914 223.6 248.187 223.804 247.166 223.178L246.837 222.464C244.759 222.538 245.102 224.792 243.141 223.027C242.21 222.186 241.49 222.347 240.368 222.675L240.217 222.923L241.103 223.613L240.825 224.29L240.235 224.35L240.01 223.928C239.661 223.288 239.803 223.533 239.349 222.883C237.177 222.651 234.156 222.407 232.38 223.479C231.453 224.035 230.307 223.606 229.349 223.362C226.227 222.558 221.435 223.995 218.199 223.787C215.776 223.633 214.12 221.884 211.668 223.228C211.035 223.58 210.407 223.941 209.784 224.317L209.311 224.156L208.813 222.608L208.276 222.393C207.459 222.913 207.741 222.678 207.169 223.506C203.694 223.432 200.267 223.255 196.787 223.489C196.561 223.503 195.609 222.946 195.364 222.806C192.854 223.104 194.66 225.014 191.608 222.916C191.453 222.923 191.05 222.933 190.839 222.976C186.702 223.888 181.879 223.141 177.661 223.265C168.819 223.519 159.765 223.905 150.936 223.476C149.058 223.382 145.434 224.4 143.861 224.33C142.594 224.273 140.46 223.355 138.497 223.127C136.257 225.054 136.859 222.816 133.884 222.682C131.121 225.114 128.203 223.124 124.808 223.027C123.549 222.993 122.237 223.084 120.986 223.184C120.439 222.608 119.674 221.626 118.74 221.841C116.47 222.36 113.283 220.35 111.253 219.355C110.226 216.688 110.793 217.123 108.118 216.48C108.795 215.907 108.469 216.198 109.097 215.602C106.484 213.213 107.726 213.052 105.834 210.423C105.249 210.849 105.24 210.857 104.57 211.122C104 210.56 104.182 210.905 104.061 210.067C106.061 208.09 104.641 206.555 104.186 203.585C103.01 195.913 107.627 192.225 111.926 186.736C116.055 185.688 122.61 184.365 127.091 184.232C126.861 184.238 128.69 184.68 128.625 184.664L128.776 184.838C129.498 184.538 130.407 184.493 131.215 184.384C133.588 184.217 134.147 183.562 136.28 183.302C139.711 185.259 143.43 184.306 147.264 184.494C150.533 184.654 153.437 183.255 156.667 183.015L156.995 183.305C156.376 183.971 156.258 183.82 156.257 184.397L163.614 184.784C165.195 183.986 164.556 183.747 165.996 182.225L166.515 182.289C167.437 183.662 167.671 184.742 169.292 184.215C169.945 183.336 170.211 182.805 171.194 182.322C172.568 182.816 171.918 183.243 173.398 184.823L174.22 184.836C174.662 184.559 176.406 183.433 176.762 183.467C181.07 183.879 185.659 186 189.921 183.605C190.506 185.017 190.244 185.088 191.267 185.601C193.339 185.319 193.833 184.916 195.682 184.261C196.196 184.079 197.545 184.052 198.383 183.839C202.177 183.673 203.434 183.404 207.015 182.396C207.855 183.088 207.739 183.182 208.201 184.256L208.78 184.436C210.031 183.491 210.949 182.253 212.201 181.999L212.656 182.105C212.252 182.983 212.289 182.748 211.456 183.451C213.67 184.85 221.232 182.917 223.323 184.264C222.83 183.946 224.67 185.53 224.213 185.13C225.052 184.875 225.905 183.933 226.215 183.873C228.406 183.45 232.86 183.157 234.923 183.734C239.219 184.938 237.899 185.754 240.818 182.123C241.599 183.566 241.993 184.919 243.311 185.422C244.11 185.013 244.07 184.987 244.683 184.309C245.367 185.391 245.669 186.151 246.812 186.68C248.181 186.718 249.003 186.233 250.293 185.694C251.775 184.86 254.162 183.983 255.96 183.041C257.602 184.249 259.179 185.832 261.295 184.815C261.087 183.499 260.26 184.159 259.457 182.663C262.019 182.543 265.987 186.035 267.73 185.167C267.416 184.403 267.132 183.845 266.763 183.111L267.137 182.693C267.999 183.19 269.051 184.502 269.874 184.673C271.886 185.092 273.175 185.313 275.035 184.246C276.921 183.686 278.32 183.653 280.265 183.495L281.532 183.472C282.781 183.506 284.349 183.496 285.559 183.643C289.525 184.841 294.228 185.045 297.259 181.796L299.276 185.209Z" fill="#FE5A03"/>
<path d="M236.528 222.352C240.389 220.449 255.947 222.838 261.216 221.853C262.688 221.575 265.21 223.568 266.511 223.602C269.542 223.602 272.546 222.989 275.58 222.861C281.06 222.627 285.949 223.136 291.373 221.836C291.971 221.695 296.697 221.444 297.093 221.471L297.267 221.823C290.479 225.619 292.389 220.797 285.714 224.784C284.627 224.258 283.244 223.535 282.164 223.076C278.371 223.99 270.946 224.379 267.104 224.402C263.924 224.423 262.051 221.193 260.039 224.121C259.814 224.449 252.068 223.223 251.184 223.545C249.916 223.598 248.188 223.803 247.168 223.176L246.838 222.463C244.76 222.536 245.103 224.791 243.143 223.025C242.212 222.184 241.491 222.345 240.37 222.674L240.218 222.922L241.104 223.612L240.826 224.289L240.237 224.349L240.012 223.927C239.662 223.287 239.805 223.531 239.351 222.881C237.179 222.65 234.158 222.406 232.381 223.478C231.455 224.034 230.309 223.605 229.35 223.36C226.229 222.556 221.436 223.994 218.2 223.786C215.778 223.632 214.121 221.883 211.67 223.226C211.036 223.578 210.408 223.94 209.786 224.315L209.313 224.155L208.815 222.607L208.277 222.392C207.46 222.911 207.742 222.677 207.171 223.505C203.696 223.431 200.269 223.253 196.789 223.488C196.562 223.501 195.611 222.945 195.366 222.804C192.855 223.102 194.662 225.012 191.609 222.915C191.901 222.932 192.198 222.962 192.487 222.888C197.085 221.705 210.584 221.353 215.553 221.571C218.533 221.699 221.476 222.466 224.467 222.536C229.455 222.65 231.039 220.821 236.528 222.352Z" fill="#FA7D3D"/>
<path d="M111.926 186.735C116.055 185.687 122.61 184.364 127.091 184.23C126.861 184.237 128.69 184.679 128.625 184.663L128.776 184.837C126.914 186.273 122.944 186.025 120.459 186.307C117.609 186.616 114.78 187.09 111.984 187.729C110.699 191.794 108.357 190.87 108.033 195.375C106.055 196.871 105.002 197.45 105.069 200.247C105.207 206.028 106.13 214.103 112.292 216.338C112.792 217.145 112.688 217.266 112.722 218.254C113.924 219.283 115.179 218.717 116.668 218.405C117.234 218.945 118.919 220.57 119.53 220.804C123.138 222.195 130.18 223.163 133.884 222.681C131.121 225.113 128.203 223.123 124.808 223.026C123.549 222.992 122.237 223.083 120.986 223.183C120.439 222.607 119.674 221.625 118.74 221.84C116.47 222.359 113.283 220.349 111.253 219.353C110.226 216.686 110.793 217.122 108.118 216.479C108.795 215.906 108.469 216.197 109.097 215.601C106.484 213.212 107.726 213.051 105.834 210.422C105.249 210.847 105.24 210.855 104.57 211.121C104 210.559 104.182 210.904 104.061 210.066C106.061 208.089 104.641 206.554 104.186 203.584C103.01 195.911 107.627 192.224 111.926 186.735Z" fill="#FA7D3D"/>
<path d="M351.592 182.693C351.858 182.986 352.177 183.338 352.55 183.75C355.156 184.121 359.815 184.445 362.254 184.566C367.364 188.712 371.197 188.997 373.099 195.56C368.032 192.206 367.768 192.542 364.609 187.388C361.904 186.858 359.799 185.865 357.174 185.306C356.35 185.13 355.972 185.797 355.268 186.463C353.749 186.132 352.037 184.365 350.938 183.264L351.592 182.693Z" fill="#FA7D3D"/>
<path d="M281.531 183.471C282.78 183.505 284.348 183.495 285.558 183.642C284.72 184.724 283.668 186.596 282.313 186.497C281.601 185.523 281.657 184.69 281.531 183.471Z" fill="#FA7D3D"/>
<path d="M275.035 184.243C276.921 183.684 278.32 183.65 280.264 183.492L280.031 183.703C278.968 184.679 278.367 185.383 277.433 186.483C276.304 185.719 276.175 184.938 275.035 184.243Z" fill="#FA7D3D"/>
<path d="M276.975 199.191C278.162 199.721 279.974 201.143 280.399 202.43C280.65 203.191 280.406 203.218 279.959 204.163L279.076 203.926C277.635 202.619 276.098 201.179 276.975 199.191Z" fill="#FA7D3D"/>
<path d="M267.725 198.885C268.832 199.519 269.507 200.376 270.216 201.402L270.071 202.204C268.617 202.37 268.063 202.673 267.06 201.542C266.986 200.321 267.235 199.991 267.725 198.885Z" fill="#FA7D3D"/>
<path d="M119.997 209.816L120.667 210.127C121.465 211.547 121.667 212.103 120.63 213.446C119.676 213.074 119.568 213.158 119.042 212.324C118.937 211.25 119.415 210.752 119.997 209.816Z" fill="#FA7D3D"/>
<path d="M231.543 203.173C232.62 203.179 232.794 203.085 233.742 203.607C234.316 204.516 234.086 205.195 233.959 206.296C232.509 205.742 232.184 204.586 231.543 203.173Z" fill="#FA7D3D"/>
<path d="M227.612 207.74C228.02 207.61 228.466 207.717 228.772 208.018C229.078 208.319 229.194 208.764 229.074 209.177C228.954 209.59 228.618 209.903 228.199 209.991C227.594 210.118 226.996 209.747 226.839 209.146C226.682 208.545 227.022 207.927 227.612 207.74Z" fill="#FA7D3D"/>
<path d="M127.564 197.488C129.25 198.424 129.325 199.131 129.115 200.844C128.212 200.648 128.277 200.622 127.608 199.959C127.212 198.823 127.349 198.668 127.564 197.488Z" fill="#FA7D3D"/>
<path d="M229.602 54.9095C230.203 54.7232 230.991 54.4625 230.592 54.7212C233.127 53.0754 246.136 51.3958 246.463 55.8959L246.649 55.9344C250.113 56.6859 252.392 57.5276 254.691 60.4834C257.251 64.885 257.784 66.0353 258.656 71.1026C258.476 71.3221 257.828 72.4382 256.735 72.4338C249.684 72.4057 242.203 72.1038 235.216 71.9644C235.017 71.9604 234.501 71.045 234.305 70.714C231.886 70.4493 231.657 74.5902 227.475 71.4316C225.312 71.8046 227.278 72.6449 225.963 72.5042C223.282 72.2174 223.927 70.8564 220.737 71.4337C220.202 64.1332 227.028 59.9651 228.299 56.2829L229.602 54.9095Z" fill="#FE5A03"/>
<path d="M229.602 54.9095C230.203 54.7232 230.99 54.4625 230.592 54.7212C233.127 53.0754 246.136 51.3958 246.463 55.8959C245.625 55.6657 244.386 54.9075 243.573 54.4552C241.867 54.4806 240.121 54.5262 238.421 54.6585C234.846 54.937 233.014 56.374 229.602 54.9095Z" fill="#FA7D3D"/>
<path d="M246.648 55.9336C250.113 56.6851 252.391 57.5268 254.69 60.4826C252.023 60.5201 247.848 58.3198 246.648 55.9336Z" fill="#FA7D3D"/>
<path d="M276.369 74.0059C280.675 74.9132 286.102 76.5734 290.236 77.0508C290.2 77.5678 290.282 77.3034 289.891 77.806C286.977 78.1277 278.023 76.0728 275.465 74.4418L276.369 74.0059Z" fill="#FCED55"/>
<path d="M244.684 184.306C245.013 183.207 244.735 183.67 245.547 182.862C247.8 182.429 249.333 183.79 250.293 185.692C249.004 186.231 248.182 186.715 246.813 186.678C245.67 186.148 245.368 185.389 244.684 184.306Z" fill="#FFB407"/>
<path d="M192.68 181.684C194.104 183.57 194.08 183.819 196.475 183.822L198.383 183.836C197.546 184.049 196.197 184.077 195.682 184.259C193.833 184.914 193.339 185.317 191.267 185.599C190.244 185.086 190.507 185.015 189.922 183.603C190.858 182.926 191.712 182.313 192.68 181.684Z" fill="#FF920F"/>
<path d="M217.734 134.133C218.668 135.093 218.14 135.802 218.549 137.424L219.019 137.517C220.209 136.39 220.522 135.665 222.096 136.267C223.174 137.503 223.365 138.821 224.219 139.565C225.076 138.988 225.078 138.944 226.045 138.633L226.398 139.13C226.022 139.886 225.802 140.368 225.495 141.154C227.546 142.584 227.104 144.232 228.652 146.372C228.007 147.118 227.455 147.776 226.843 148.549L227.155 148.636C228.097 148.272 228.72 147.923 229.72 147.995C231.355 149.121 231.28 151.57 233.202 151.757C233.917 150.784 233.604 150.992 234.549 150.386C235.713 151.169 234.316 151.09 234.959 152.621C236.018 152.443 236.104 152.461 237.186 152.52C240.105 154.478 239.516 152.067 240.767 151.052C241.147 151.986 241.21 152.412 242.042 152.972C243.481 153.098 250.119 148.201 252.346 147.166C251.465 146.315 251.14 145.824 250.412 144.821L250.481 144.441C251.514 144.497 251.929 144.605 252.888 144.193C253.712 142.137 252.127 143.184 251.721 141.502L252.155 141.036L253.534 141.196L253.824 140.635C253.276 139.755 253.372 140.127 253.292 139.14C256.261 136.12 257.658 137.439 260.497 135.942C260.332 135.349 260.325 135.339 260.237 134.709L260.858 134.666L261.111 135.615C261.876 135.959 262.701 135.515 263.747 135.246L264.586 135.783C265.227 137.283 264.632 136.905 264.711 138.757C266.335 137.909 266.929 136.82 268.808 137.555L269.01 138.147C267.517 141.824 269.336 142.535 269.402 146.369C269.429 147.969 268.666 150.041 268.121 151.577C266.631 151.712 266.382 151.498 265.858 152.899C266.688 154.167 267.023 153.256 268.009 154.444L267.59 154.783C265.787 154.641 265.565 154.328 264.344 155.675C265.763 159.223 263.226 159.279 260.499 159.752C259.604 160.571 259.859 160.529 259.507 161.965C258.511 161.393 258.833 161.422 257.789 161.276L257.421 161.944L257.879 163.423L257.386 163.741C256.545 163.62 255.867 163.54 255.021 163.47L254.663 163.935C254.682 164.94 254.731 165.168 254.511 166.164L254.004 166.21C253.526 165.213 253.659 165.211 252.902 164.513C251.525 165.341 252.626 165.912 251.04 166.845C246.482 165.687 249.279 168.106 247.049 169.503L246.586 169.18C246.596 168.366 246.582 167.551 246.545 166.737L246.102 166.604C245.396 167.81 245.258 168.683 243.838 168.553C240.835 165.569 241.866 169.144 238.854 169.469C237.84 168.824 239.489 168.773 239.044 167.335C237.955 167.085 235.584 167.725 234.365 167.976C234.901 168.444 234.703 168.144 234.898 168.914L234.375 169.061C232.827 168.555 231.68 167.566 230.347 166.597C228.333 166.554 230.494 166.944 228.695 167.577C227.098 166.129 228.235 165.839 227.037 164.664C226.031 165.157 226.445 165.648 225.359 166.793C224.141 165.577 225.58 165.073 224.451 163.903L223.382 164.815C222.329 164.667 221.615 163.772 220.677 162.972L220.194 163.054L219.428 164.25H219.097C219.199 163.479 219.286 162.706 219.358 161.932C218.6 161.057 218.466 161.274 217.093 160.911C216.241 160.2 216.17 159.581 215.808 158.505L215.662 158.062C214.684 157.263 214.988 157.519 213.345 157.577C212.693 156.424 213.645 155.871 213.53 155.365C213.126 153.591 211.443 151.672 210.834 149.882L211.8 148.335C208.42 143.594 212.361 144.596 210.102 140.757L210.297 140.302L212.149 140.181L212.46 139.673C211.665 137.135 212.741 137.182 214.706 135.414C215.036 135.803 215.141 136.374 215.313 136.901L215.958 137.032C216.953 136.366 217.067 135.723 217.544 134.592L217.734 134.133Z" fill="black"/>
<path d="M228.298 56.2832C227.027 59.9654 220.201 64.1335 220.735 71.434L218.824 70.9043C219.352 69.2903 219.212 68.6269 219.551 67.1456C220.911 61.2112 223.707 59.3808 228.298 56.2832Z" fill="#FA7D3D"/>
<path d="M373.773 196.902C375.244 199.491 376.598 200.732 375.721 203.961C375.204 205.86 374.08 208.432 372.969 210.04C373.152 208.643 373.609 207.188 373.749 205.682C374.02 202.759 373.799 199.854 373.773 196.902Z" fill="#FA7D3D"/>
</svg>
