<svg width="500" height="500" viewBox="0 0 500 500" fill="none" xmlns="http://www.w3.org/2000/svg">
<path d="M209.919 152.222C215.855 150.861 218.599 150.87 224.732 151.149L225.355 151.23C236.079 152.558 248.199 152.425 259.196 155.361C263.995 156.642 265.827 158.129 269.963 159.587L274.958 158.236C278.51 159.399 284.181 160.614 286.248 163.497C285.427 166.722 284.356 163.678 284.867 166.73C286.224 166.968 288.473 164.672 289.555 163.697C295.887 165.325 300.923 167.242 306.94 169.765C310.348 171.194 314.693 171.871 318.169 173.309C349.144 185.533 380.134 205.755 399.158 233.522C401.586 237.066 403.096 240.975 405.053 244.748C406.759 248.039 409.835 250.927 410.827 254.676C415.714 268.51 419.234 283.575 420.092 298.226C419.947 300.663 418.713 302.71 418.663 305.2C418.553 310.666 419.71 316.309 418.795 321.73C418.199 325.263 417.206 329.018 416.13 332.422C414.843 336.495 413.578 340.932 411.75 344.782C409.228 350.096 407.257 355.521 404.975 360.913C399.042 367.327 396.866 374.39 391.253 380.94C381.066 393.007 369.02 403.72 356.016 412.676C354.749 413.55 351.718 412.708 349.947 414.42C349.395 415.655 348.646 418.188 347.35 418.478C331.32 422.069 303.264 438.99 287.394 436.957C285.867 437.829 284.113 439.027 282.439 439.253C272.638 435.924 273.939 440.076 266.647 440.408C266.602 439.907 266.553 439.405 266.501 438.904C260.675 439.082 251.644 443.587 247.375 437.956C243.109 441.135 236.823 440.831 233.235 436.819C232.493 436.699 226.003 438.379 223.823 438.093C213.897 436.789 192.715 431.214 183.742 433.156C177.909 429.278 176.206 430.111 169.706 428.414C167.65 427.878 166.379 425.556 163.861 425.369C156.516 428.074 158.647 424.354 153.834 423.127C141.963 420.1 131.506 416.186 120.995 409.835C117.925 407.98 113.883 402.451 111.019 401.735C109.372 402.047 109.022 402.184 107.322 402.11C105.611 400.901 105.971 401.656 105.592 400.066L107.132 398.75C106.696 396.608 91.1936 391.965 93.4241 385.367C94.0221 383.599 87.6141 379.418 86.4856 377.498C84.4766 374.081 82.3026 370.621 79.8676 367.34C76.2901 361.874 76.6006 361.091 75.8741 354.389C75.3161 353.647 73.0536 350.624 72.7751 349.432C70.8071 341.01 67.5046 330.436 67.7126 321.9C67.7431 320.643 69.1731 320.228 70.0361 319.808L69.8921 319.193C65.1871 315.258 66.2356 314.584 66.1486 308.86C65.8086 301.839 66.1306 294.801 66.3351 287.842C66.6071 278.594 67.8461 271.814 70.7606 263.022C72.2606 258.497 72.9511 254.203 75.0401 249.622C77.5161 244.194 80.7271 239.339 83.0141 233.883C84.6851 229.464 84.3446 229.473 88.7266 227.519C92.2806 212.72 113.565 190.287 125.174 180.675C133.039 174.161 151.329 163.514 161.457 161.695C164.155 161.142 166.855 159.713 169.627 158.725C173.992 157.169 177.037 156.595 181.587 155.833C181.768 155.816 181.949 155.8 182.129 155.783C187.271 156.548 189.881 152.542 194.526 154.35C197.879 151.963 206.21 150.832 209.919 152.222Z" fill="#96DA01"/>
<path d="M161.457 161.696C164.155 161.143 166.855 159.714 169.627 158.726C173.992 157.17 177.037 156.596 181.587 155.834C178.053 159.225 166.175 164.06 161.457 161.696Z" fill="#97C829"/>
<path d="M194.527 154.349C197.881 151.962 206.212 150.832 209.92 152.221L210.075 153.054C208.293 154.228 196.548 156.135 195.121 155.344L194.527 154.349Z" fill="#97C829"/>
<path d="M75.875 354.391C80.0405 355.576 80.07 357.884 81.3255 361.822C80.827 363.658 80.3415 365.498 79.8685 367.342C76.291 361.876 76.6015 361.093 75.875 354.391Z" fill="#97C829"/>
<path d="M233.238 436.821L233.671 436.843C241.248 437.149 238.432 435.162 247.378 437.958C243.112 441.137 236.826 440.833 233.238 436.821Z" fill="#97C829"/>
<path d="M311.685 305.388L312.86 305.13C313.17 303.814 313.173 304.511 312.257 302.979C313.203 302.545 312.69 302.688 314.08 303.137C314.036 303.857 314.049 304.505 314.109 305.23L314.887 305.308L316.898 303.609C320.79 303.951 320.441 308.017 323.368 309.573C323.945 308.92 323.993 308.672 324.798 308.332C327.548 310.738 326.657 312.887 324.923 315.512L324.989 316.102C326.175 315.97 325.804 316.026 326.933 315.524C328.438 318.631 323.647 331.803 319.95 333.455L319.029 332.905C319.166 331.88 319.286 330.853 319.388 329.824C317.335 331.743 316.823 333.806 316.028 336.487C314.534 337.734 315.41 337.354 313.18 337.327C313.224 339.005 313.308 339.468 313.585 341.071L313.184 341.681L309.341 342.091L308.95 343.041C309.919 343.899 309.958 343.658 310.362 344.86L309.37 345.474L308.058 343.701C306.28 344.52 306.37 346.137 305.903 346.302C302.851 347.378 303.779 343.899 301.187 348.623C298.566 350.107 298.134 348.843 296.176 350.482C296.602 351.097 296.889 351.539 297.298 352.19C294.475 354.583 288.936 353.473 285.771 355.075C285.666 355.129 284.682 357.994 284.519 358.489C283.148 359.151 279.048 360.199 277.635 359.715L277.277 358.461L276.307 358.676L277.163 359.845C275.433 361.051 273.166 360.099 270.108 361.539C270.295 362.647 270.165 362.169 270.439 362.989C266.407 363.863 264.824 359.336 261.782 363.632C261.296 364.319 255.74 362.766 254.435 363.535L254.707 365.265L254.148 365.42L252.621 364.532C251.52 365.019 251.322 365.125 250.326 365.797C248.899 365.624 248.347 365.127 247.14 364.362C243.965 364.348 244.195 366.116 241.009 365.782C240.425 364.745 240.099 364.062 239.611 362.974C238.185 362.302 238.935 362.467 237.254 362.611L236.612 363.601L236.578 363.553C237.043 363.822 238.695 364.722 238.985 365.017L238.46 365.717C235.209 365.78 237.825 364.715 235.635 364.899C234.177 365.021 233.736 366.726 231.821 366.633C232.232 365.427 232.212 365.63 232.935 364.527C231.091 363.113 227.838 366.237 225.278 365.777C222.73 364.157 221.845 363.013 219.158 362.922C218.197 363.723 218.254 363.654 217.791 364.818C215.542 364.511 215.038 364.039 213.866 362.116C211.173 361.997 205.768 362.785 204.202 362.358C203.634 361.379 203.238 360.634 202.741 359.618C200.868 358.657 200.39 358.2 198.365 359.312C196.062 357.523 198.08 356.403 195.089 356.426C193.052 356.442 192.546 356.939 190.639 356.034L189.875 355.198L188.613 355.463L187.11 356.252C184.789 355.607 185.483 354.161 182.845 353.113L181.349 354.102L180.348 353.77C177.521 349.848 177.108 350.514 171.903 349.25L172.577 348.193C171.203 345.41 164.083 343.857 164.702 339.926L166.43 339.36C162.702 337.919 156.525 332.314 156.342 327.692C156.264 325.732 157.276 325.619 156.197 323.424C154.926 322.943 154.489 322.903 153.512 321.964L153.856 321.063C154.605 321.279 155.312 321.552 156.028 321.861C156.93 320.121 155.61 316.211 156.305 313.172C157.561 313.5 156.979 313.581 158.101 313.236L158.557 312.172L157.241 311.158L157.173 310.264L158.112 309.318L159.614 309.429C161.107 308.373 162.725 306.33 163.97 304.905C165.886 304.275 171.908 306.144 174.039 306.817L174.027 308.002L174.563 308.356C176.543 307.747 177.332 307.189 179.054 308.493L178.186 310.249L178.527 310.988C182.259 311.956 179.277 309.446 182.487 310.799C184.845 311.792 186.308 314.648 189.141 314.722C188.648 313.388 188.664 313.759 188.577 312.399C190.25 312.633 190.417 312.865 191.862 313.701C191.864 314.797 191.91 314.237 191.716 315.381C192.757 315.691 193.057 315.824 193.997 316.313L194.862 316.767L195.494 315.308L196.079 315.34L196.401 317.43C198.569 318.083 207.709 317.977 210.827 318.167C215.491 318.451 219.51 318.774 224.201 319.804L224.78 321.029C226.436 321.612 229.27 319.841 232.258 319.726C236.036 325.344 236.033 320.126 239.774 319.909C241.058 319.835 245.685 321.054 246.861 320.641C248.349 320.12 247.463 319.223 250.131 319.199L251.35 320.76C253.27 321.336 261.343 318.229 263.854 317.374L264.268 318.901C265.721 318.847 266.799 318.989 267.979 318.202C267.314 317.179 266.713 317.27 265.272 316.735C266.19 316.466 266.818 316.427 267.768 316.692C272.249 317.94 271.244 314.797 275.537 314.21C277.212 315.144 277.197 315.482 278.808 314.876C279.553 313.057 279.729 311.98 281.661 311.699C281.787 312.608 281.831 312.829 282.037 313.691C286.813 314.537 289.881 308.296 294 309.04C295.611 309.331 295.955 309.169 297.66 308.983L298.306 308.909C299.043 308.125 298.731 308.571 298.731 307.021L299.376 306.469L300.756 307.107C301.469 306.948 305.515 303.585 307.392 302.537C308.82 303.531 310.224 304.443 311.685 305.388Z" fill="#000101"/>
<path d="M166.43 339.359C169.01 340.433 169.48 341.123 171.426 343.184L173.632 343.451L174.185 344.173C173.938 345.476 173.912 345.411 173.206 346.554L173.511 346.965C178.068 347.265 182.102 351.42 186.526 353.24C186.881 352.988 187.236 352.737 187.591 352.485C189.436 354.871 185.902 353.143 188.614 355.462L187.111 356.252C184.789 355.607 185.484 354.16 182.845 353.113L181.349 354.102L180.349 353.77C177.521 349.847 177.109 350.513 171.904 349.25L172.577 348.193C171.204 345.41 164.084 343.856 164.702 339.926L166.43 339.359Z" fill="#97C829"/>
<path d="M307.391 302.537C308.819 303.531 310.223 304.443 311.683 305.388C311.115 305.978 310.87 306.246 310.453 306.968C308.12 308.192 305.036 310.12 302.385 308.685C300.874 307.867 299.524 308.97 298.305 308.909C299.042 308.125 298.729 308.571 298.729 307.021L299.375 306.469L300.754 307.107C301.467 306.948 305.514 303.585 307.391 302.537Z" fill="#103306"/>
<path d="M197.501 254.453C202.566 257.863 212.263 257.074 213.935 259.326C213.651 260.456 213.546 260.865 213.375 262.025C220.625 264.464 216.471 265.964 217.5 269.784C218.681 271.14 219.088 271.451 219.704 273.179C219.518 275.06 219.937 274.399 218.918 275.573L217.414 275.065L217.156 275.698C218.523 276.93 218.746 276.94 219.382 278.699C218.559 280.495 217.521 280.812 215.73 281.742L214.939 282.145C215.166 283.155 215.34 283.192 215.946 284.042L215.132 284.647C214.196 283.516 214.749 283.773 213.576 283.375C212.074 285.349 214.075 285.42 212.077 287.43C210.402 287.7 209.957 287.796 208.345 288.305C208.497 289.621 208.468 289.565 208.172 290.869C207.741 290.326 207.052 289.235 206.504 289.116C203.178 288.392 196.938 289.797 193.719 290.644L192.912 289.766L193.119 287.892L192.309 287.432L190.863 287.956C189.93 285.036 186.593 283.342 183.76 280.951C182.504 277.605 184.372 265.584 185.368 261.987L186.156 261.582L187.508 263.136L188.117 262.658C189.877 255.404 193.093 258.634 197.501 254.453Z" fill="#000101"/>
<path d="M278.604 255.443C280.714 257.583 286.407 256.699 288.923 257.31C287.999 258.315 288.038 257.905 287.832 258.953C289.24 259.707 289.424 259.602 290.373 260.797L289.293 261.736C289.541 263.058 289.247 262.477 290.454 263.37L292.562 262.935C293.613 263.984 295.623 267.615 296.486 269.067L296.058 269.424L293.342 268.971L293.164 269.726C294.434 270.608 294.747 270.711 295.698 271.953C294.392 275.725 295.567 273.573 297.177 275.718C295.953 277.386 294.086 277.54 292.364 279.856L292.552 280.672L293.812 281.384L294.382 279.941L294.876 280.081C295.012 281.558 295.174 281.612 294.471 282.862L293.576 283.014C292.113 282.138 292.198 281.977 290.573 281.756C289.494 283.653 292.041 284.353 290.711 285.576C288.18 287.902 283.241 292.894 279.71 290.661C280.45 289.767 281.709 289.957 283.272 289.763L283.626 288.501L283.217 287.861C282.121 288.161 282.573 288.065 281.588 289.138L281.092 288.358L279.788 288.119C277.421 289.558 280.315 288.513 278.517 291.412C276.798 291.616 277.408 291.615 275.578 290.359C269.303 293.502 271.734 289.825 268.937 287.575C267.394 287.695 264.858 288.301 264.167 286.653L266.311 287.04C264.728 285.487 263.963 284.995 263.179 282.997C264.137 277.226 263.124 279.488 260.781 277.128C259.933 273.212 260.478 270.365 262.443 267.024C263.766 267.354 263.374 267.449 264.573 267.207C262.855 265.375 261.887 264.435 261.91 261.967C263.369 260.76 263.715 261.5 266.546 261.727C269.441 259.237 267.371 258.714 268.084 256.795C270.221 256.583 268.796 258.097 272.046 258.943C271.385 258.035 271.545 258.29 271.117 257.263L271.928 256.596C274.194 256.13 275.533 256.167 277.759 256.946L278.604 255.443Z" fill="#000101"/>
<path d="M222.24 168.539C222.378 168.325 222.512 168.11 222.646 167.895C224.083 156.307 228.502 146.704 232.527 136.134C237.118 124.085 236.935 118.652 245.709 108.258C252.512 100.198 256.691 92.8376 267.088 87.9309C280.208 79.9436 295.681 83.0878 310.264 80.0793C312.418 79.8968 315.502 81.3441 317.488 81.3444C340.902 81.3515 360.408 94.7058 380.715 104.502C397.695 112.694 409.729 139.028 407.832 157.1C405.778 176.664 399.557 197.692 395.147 217.018C399.455 222.403 403.364 228.501 400.053 235.696C398.988 234.996 399.469 235.024 398.466 235.047C398.369 235.662 398.259 236.275 398.13 236.884C395.602 248.49 376.872 260.052 365.755 261.356C363.959 261.567 360.905 262.288 359.173 261.907C358.829 261.322 358.626 260.988 358.239 260.42C354.214 263.247 350.119 258.823 345.877 259.163C334.296 260.094 323.54 258.404 312.582 254.376L309.768 255.534C306.801 253.982 305.496 253.372 302.236 252.503C296.86 251.072 291.476 249.573 286.111 248.087C283.207 247.282 280.404 245.703 277.506 244.83C269.279 242.89 261.389 240.054 253.36 237.453C253.15 236.289 253.345 236.588 252.76 235.667L251.57 237.211L251.102 237.007C250.876 236.331 250.649 235.66 250.412 234.989C250.063 235.374 249.755 235.698 249.397 236.068C247.271 235.735 245.215 233.762 243.304 233.024C236.377 230.346 230.364 227.063 224.469 222.438C222.582 220.958 216.498 214.409 216.032 211.964C215.836 210.845 216.204 211.401 215.564 210.479C209.325 201.482 207.034 187.098 211.276 176.889C213.09 172.526 218.054 169.982 222.24 168.539Z" fill="#0167FC"/>
<path d="M222.239 168.539C223.304 169.157 233.396 170.949 235.962 171.607C245.423 173.868 254.92 175.746 264.334 178.261C266.049 178.719 266.726 178.11 269.43 178.995C278.865 182.083 288.788 184.919 298.395 187.381C298.513 188.239 298.481 187.836 298.051 188.808C300.45 189.708 303.149 189.012 305.806 189.946C310.849 191.718 316.077 193.54 321.271 194.812C323.259 195.299 327.438 195.574 329.089 196.569C329.528 196.833 329.688 197.424 330.108 197.708C331.086 198.366 335.052 198.551 336.545 198.902C343.296 200.492 368.487 206.838 372.135 210.567C373.052 211.502 373.984 212.41 374.889 213.358L375.354 213.144C375.005 212.008 375.048 212.053 374.337 211.11C377.689 212.192 381.377 213.587 384.662 214.535C388.125 215.535 391.549 215.967 395.146 217.019C399.454 222.404 403.364 228.501 400.052 235.696C398.988 234.996 399.468 235.025 398.465 235.047C398.368 235.662 398.259 236.275 398.129 236.884C395.601 248.49 376.871 260.052 365.754 261.356C363.958 261.567 360.904 262.288 359.172 261.908C358.829 261.322 358.625 260.989 358.238 260.42C354.213 263.247 350.118 258.823 345.876 259.164C334.295 260.094 323.539 258.404 312.581 254.376L309.767 255.535C306.8 253.982 305.495 253.372 302.235 252.504C296.859 251.073 291.476 249.574 286.11 248.087C283.206 247.282 280.404 245.704 277.506 244.83C269.278 242.89 261.388 240.055 253.359 237.454C253.149 236.289 253.344 236.589 252.759 235.667L251.569 237.211L251.102 237.007C250.875 236.332 250.648 235.66 250.411 234.99C250.062 235.374 249.755 235.699 249.396 236.069C247.27 235.736 245.214 233.762 243.303 233.024C236.376 230.346 230.363 227.064 224.468 222.438C222.581 220.958 216.497 214.41 216.032 211.964C215.835 210.845 216.203 211.402 215.564 210.479C209.325 201.483 207.033 187.098 211.275 176.889C213.089 172.527 218.054 169.982 222.239 168.539Z" fill="#121211"/>
<path d="M313.364 123.514L313.883 123.431C314.95 124.438 319.442 124.874 321.001 125.629C330.592 130.273 345.141 130.148 352.13 138.961C352.075 139.482 352.099 139.853 351.817 140.255C351.223 141.11 353.168 144.605 352.695 146.008C351.773 148.735 350.223 148.944 349.923 151.918C349.505 154.649 349.909 159.62 347.958 161.737C344.272 165.738 349.75 168.515 342.934 171.079C336.353 173.557 333.177 170.174 327.466 169.124L327.124 168.971C322.247 166.881 318.482 167.248 314.288 165.477L314.014 164.141C312.218 163.255 305.432 162.858 303.079 162.182C300.707 161.501 302.494 160.549 300.79 160.4C296.792 160.05 297.422 162.008 293.568 159.537C284.352 145.967 291.548 146.58 289.946 136.732C293.363 132.139 295.27 124.072 297.487 121.578C300.657 119.821 308.756 122.75 313.364 123.514Z" fill="#121211"/>
</svg>
