<svg width="500" height="500" viewBox="0 0 500 500" fill="none" xmlns="http://www.w3.org/2000/svg">
<path d="M219.805 106.222C225.742 104.861 228.486 104.87 234.618 105.149L235.241 105.23C245.965 106.558 258.086 106.425 269.083 109.361C273.882 110.642 275.713 112.129 279.85 113.587L284.844 112.236C288.396 113.399 294.068 114.614 296.135 117.497C295.314 120.722 294.243 117.678 294.753 120.73C296.111 120.968 298.359 118.672 299.441 117.697C305.773 119.325 310.809 121.242 316.827 123.765C320.235 125.194 324.579 125.871 328.056 127.309C359.031 139.533 390.021 159.755 409.044 187.522C411.472 191.066 412.983 194.975 414.939 198.748C416.645 202.039 419.722 204.927 420.714 208.676C425.6 222.51 429.121 237.575 429.979 252.226C429.834 254.663 428.599 256.71 428.549 259.2C428.439 264.666 429.597 270.309 428.682 275.73C428.085 279.263 427.093 283.018 426.017 286.422C424.729 290.495 423.464 294.932 421.637 298.782C419.115 304.096 417.144 309.521 414.862 314.913C408.928 321.327 406.753 328.39 401.139 334.94C390.953 347.007 378.906 357.72 365.902 366.676C364.636 367.55 361.604 366.708 359.834 368.42C359.281 369.655 358.533 372.188 357.236 372.478C341.206 376.069 313.15 392.99 297.28 390.957C295.753 391.829 293.999 393.027 292.325 393.253C282.525 389.924 283.825 394.076 276.534 394.408C276.488 393.907 276.439 393.405 276.388 392.904C270.562 393.082 261.53 397.587 257.261 391.956C252.996 395.135 246.709 394.831 243.122 390.819C242.38 390.699 235.89 392.379 233.709 392.093C223.783 390.789 202.601 385.214 193.629 387.156C187.795 383.278 186.093 384.111 179.592 382.414C177.536 381.878 176.265 379.556 173.747 379.369C166.403 382.074 168.534 378.354 163.72 377.127C151.849 374.1 141.393 370.186 130.882 363.835C127.811 361.98 123.77 356.451 120.905 355.735C119.258 356.047 118.909 356.184 117.208 356.11C115.498 354.901 115.857 355.656 115.478 354.066L117.019 352.75C116.582 350.608 101.08 345.965 103.311 339.367C103.909 337.599 97.5008 333.418 96.3723 331.498C94.3633 328.081 92.1893 324.621 89.7543 321.34C86.1768 315.874 86.4873 315.091 85.7608 308.389C85.2028 307.647 82.9403 304.624 82.6618 303.432C80.6938 295.01 77.3913 284.436 77.5993 275.9C77.6298 274.643 79.0598 274.228 79.9228 273.808L79.7788 273.193C75.0738 269.258 76.1223 268.584 76.0353 262.86C75.6953 255.839 76.0173 248.801 76.2218 241.842C76.4938 232.594 77.7328 225.814 80.6473 217.022C82.1473 212.497 82.8378 208.203 84.9268 203.622C87.4028 198.194 90.6138 193.339 92.9008 187.883C94.5718 183.464 94.2313 183.473 98.6133 181.519C102.167 166.72 123.452 144.287 135.06 134.675C142.926 128.161 161.216 117.514 171.344 115.695C174.041 115.142 176.741 113.713 179.513 112.725C183.879 111.169 186.923 110.595 191.473 109.833C191.654 109.816 191.835 109.8 192.016 109.783C197.157 110.548 199.767 106.542 204.412 108.35C207.766 105.963 216.097 104.832 219.805 106.222Z" fill="#96DA01"/>
<path d="M171.344 115.696C174.041 115.143 176.741 113.714 179.513 112.726C183.879 111.17 186.923 110.596 191.473 109.834C187.939 113.225 176.061 118.06 171.344 115.696Z" fill="#97C829"/>
<path d="M204.414 108.349C207.768 105.962 216.099 104.832 219.807 106.221L219.962 107.054C218.18 108.228 206.435 110.135 205.008 109.344L204.414 108.349Z" fill="#97C829"/>
<path d="M85.7617 308.391C89.9272 309.576 89.9567 311.884 91.2122 315.822C90.7137 317.658 90.2282 319.498 89.7552 321.342C86.1777 315.876 86.4882 315.093 85.7617 308.391Z" fill="#97C829"/>
<path d="M243.125 390.821L243.557 390.843C251.134 391.149 248.318 389.162 257.264 391.958C252.999 395.137 246.713 394.833 243.125 390.821Z" fill="#97C829"/>
<path d="M321.571 259.388L322.747 259.13C323.056 257.814 323.059 258.511 322.143 256.979C323.09 256.545 322.576 256.688 323.967 257.137C323.923 257.857 323.936 258.505 323.996 259.23L324.774 259.308L326.784 257.609C330.676 257.951 330.327 262.017 333.254 263.573C333.831 262.92 333.88 262.672 334.684 262.332C337.435 264.738 336.543 266.887 334.81 269.512L334.875 270.102C336.061 269.97 335.69 270.026 336.82 269.524C338.325 272.631 333.534 285.803 329.837 287.455L328.915 286.905C329.052 285.88 329.172 284.853 329.275 283.824C327.222 285.743 326.709 287.806 325.914 290.487C324.42 291.734 325.297 291.354 323.067 291.327C323.111 293.005 323.194 293.468 323.472 295.071L323.07 295.681L319.227 296.091L318.837 297.041C319.806 297.899 319.845 297.658 320.248 298.86L319.257 299.474L317.944 297.701C316.167 298.52 316.257 300.137 315.79 300.302C312.738 301.378 313.666 297.899 311.074 302.623C308.452 304.107 308.021 302.843 306.062 304.482C306.488 305.097 306.776 305.539 307.184 306.19C304.362 308.583 298.823 307.473 295.657 309.075C295.552 309.129 294.568 311.994 294.405 312.489C293.034 313.151 288.935 314.199 287.521 313.715L287.164 312.461L286.193 312.676L287.05 313.845C285.32 315.051 283.052 314.099 279.994 315.539C280.182 316.647 280.052 316.169 280.326 316.989C276.293 317.863 274.71 313.336 271.668 317.632C271.182 318.319 265.627 316.766 264.322 317.535L264.593 319.265L264.034 319.42L262.507 318.532C261.407 319.019 261.209 319.125 260.212 319.797C258.785 319.624 258.234 319.127 257.026 318.362C253.852 318.348 254.081 320.116 250.895 319.782C250.311 318.745 249.985 318.062 249.497 316.974C248.071 316.302 248.821 316.467 247.14 316.611L246.499 317.601L246.464 317.553C246.929 317.822 248.581 318.722 248.871 319.017L248.346 319.717C245.095 319.78 247.712 318.715 245.522 318.899C244.064 319.021 243.623 320.726 241.707 320.633C242.118 319.427 242.098 319.63 242.822 318.527C240.978 317.113 237.724 320.237 235.165 319.777C232.617 318.157 231.731 317.013 229.045 316.922C228.083 317.723 228.141 317.654 227.677 318.818C225.429 318.511 224.924 318.039 223.752 316.116C221.059 315.997 215.654 316.785 214.088 316.358C213.52 315.379 213.125 314.634 212.628 313.618C210.755 312.657 210.277 312.2 208.251 313.312C205.949 311.523 207.966 310.403 204.976 310.426C202.939 310.442 202.433 310.939 200.525 310.034L199.761 309.198L198.5 309.463L196.997 310.252C194.675 309.607 195.37 308.161 192.731 307.113L191.235 308.102L190.235 307.77C187.407 303.848 186.995 304.514 181.79 303.25L182.463 302.193C181.09 299.41 173.97 297.857 174.588 293.926L176.316 293.36C172.589 291.919 166.411 286.314 166.228 281.692C166.151 279.732 167.163 279.619 166.083 277.424C164.812 276.943 164.376 276.903 163.398 275.964L163.742 275.063C164.491 275.279 165.199 275.552 165.914 275.861C166.816 274.121 165.497 270.211 166.191 267.172C167.448 267.5 166.865 267.581 167.988 267.236L168.443 266.172L167.128 265.158L167.059 264.264L167.998 263.318L169.501 263.429C170.993 262.373 172.611 260.33 173.857 258.905C175.773 258.275 181.795 260.144 183.925 260.817L183.913 262.002L184.45 262.356C186.429 261.747 187.219 261.189 188.94 262.493L188.073 264.249L188.414 264.988C192.145 265.956 189.163 263.446 192.373 264.799C194.732 265.792 196.194 268.648 199.027 268.722C198.534 267.388 198.551 267.759 198.463 266.399C200.136 266.633 200.304 266.865 201.749 267.701C201.75 268.797 201.796 268.237 201.602 269.381C202.644 269.691 202.943 269.824 203.883 270.313L204.748 270.767L205.38 269.308L205.966 269.34L206.287 271.43C208.456 272.083 217.596 271.977 220.714 272.167C225.378 272.451 229.396 272.774 234.087 273.804L234.666 275.029C236.323 275.612 239.157 273.841 242.144 273.726C245.922 279.344 245.92 274.126 249.661 273.909C250.944 273.835 255.572 275.054 256.748 274.641C258.236 274.12 257.35 273.223 260.017 273.199L261.236 274.76C263.157 275.336 271.23 272.229 273.741 271.374L274.155 272.901C275.607 272.847 276.685 272.989 277.865 272.202C277.201 271.179 276.599 271.27 275.158 270.735C276.076 270.466 276.705 270.427 277.654 270.692C282.136 271.94 281.131 268.797 285.423 268.21C287.098 269.144 287.083 269.482 288.695 268.876C289.44 267.057 289.615 265.98 291.548 265.699C291.674 266.608 291.718 266.829 291.923 267.691C296.7 268.537 299.768 262.296 303.886 263.04C305.497 263.331 305.841 263.169 307.547 262.983L308.193 262.909C308.93 262.125 308.617 262.571 308.617 261.021L309.263 260.469L310.642 261.107C311.355 260.948 315.402 257.585 317.279 256.537C318.707 257.531 320.111 258.443 321.571 259.388Z" fill="#000101"/>
<path d="M176.317 293.359C178.896 294.433 179.366 295.123 181.312 297.184L183.518 297.451L184.071 298.173C183.825 299.476 183.798 299.411 183.092 300.554L183.397 300.965C187.954 301.265 191.988 305.42 196.412 307.24C196.768 306.988 197.123 306.737 197.478 306.485C199.323 308.871 195.788 307.143 198.5 309.462L196.997 310.252C194.676 309.607 195.37 308.16 192.732 307.113L191.236 308.102L190.235 307.77C187.408 303.847 186.995 304.513 181.79 303.25L182.464 302.193C181.09 299.41 173.97 297.856 174.589 293.926L176.317 293.359Z" fill="#97C829"/>
<path d="M317.277 256.537C318.705 257.531 320.109 258.443 321.57 259.388C321.002 259.978 320.757 260.246 320.34 260.968C318.006 262.192 314.922 264.12 312.272 262.685C310.761 261.867 309.41 262.97 308.191 262.909C308.928 262.125 308.616 262.571 308.616 261.021L309.261 260.469L310.641 261.107C311.354 260.948 315.4 257.585 317.277 256.537Z" fill="#103306"/>
<path d="M207.388 208.453C212.452 211.863 222.149 211.074 223.821 213.326C223.538 214.456 223.433 214.865 223.261 216.025C230.512 218.464 226.357 219.964 227.387 223.784C228.567 225.14 228.975 225.451 229.59 227.179C229.404 229.06 229.824 228.399 228.804 229.573L227.3 229.065L227.042 229.698C228.409 230.93 228.632 230.94 229.269 232.699C228.446 234.495 227.408 234.812 225.616 235.742L224.826 236.145C225.052 237.155 225.227 237.192 225.832 238.042L225.019 238.647C224.082 237.516 224.636 237.773 223.463 237.375C221.961 239.349 223.962 239.42 221.963 241.43C220.289 241.7 219.844 241.796 218.231 242.305C218.384 243.621 218.354 243.565 218.058 244.869C217.627 244.326 216.938 243.235 216.391 243.116C213.065 242.392 206.825 243.797 203.605 244.644L202.799 243.766L203.006 241.892L202.195 241.432L200.749 241.956C199.816 239.036 196.48 237.342 193.646 234.951C192.39 231.605 194.258 219.584 195.255 215.987L196.043 215.582L197.394 217.136L198.003 216.658C199.763 209.404 202.979 212.634 207.388 208.453Z" fill="#000101"/>
<path d="M288.491 209.443C290.601 211.583 296.294 210.699 298.81 211.31C297.886 212.315 297.924 211.905 297.719 212.953C299.126 213.707 299.311 213.602 300.26 214.797L299.18 215.736C299.427 217.058 299.133 216.477 300.341 217.37L302.448 216.935C303.499 217.984 305.51 221.615 306.373 223.067L305.945 223.424L303.229 222.971L303.05 223.726C304.321 224.608 304.634 224.711 305.584 225.953C304.279 229.725 305.453 227.573 307.064 229.718C305.84 231.386 303.973 231.54 302.25 233.856L302.439 234.672L303.699 235.384L304.269 233.941L304.762 234.081C304.899 235.558 305.061 235.612 304.358 236.862L303.463 237.014C302 236.138 302.085 235.977 300.459 235.756C299.38 237.653 301.928 238.353 300.597 239.576C298.066 241.902 293.128 246.894 289.596 244.661C290.337 243.767 291.596 243.957 293.158 243.763L293.512 242.501L293.104 241.861C292.008 242.161 292.46 242.065 291.474 243.138L290.979 242.358L289.675 242.119C287.308 243.558 290.202 242.513 288.404 245.412C286.685 245.616 287.294 245.615 285.464 244.359C279.19 247.502 281.62 243.825 278.824 241.575C277.28 241.695 274.744 242.301 274.053 240.653L276.197 241.04C274.614 239.487 273.85 238.995 273.066 236.997C274.024 231.226 273.011 233.488 270.668 231.128C269.82 227.212 270.364 224.365 272.329 221.024C273.653 221.354 273.26 221.449 274.46 221.207C272.742 219.375 271.774 218.435 271.797 215.967C273.256 214.76 273.601 215.5 276.433 215.727C279.328 213.237 277.257 212.714 277.971 210.795C280.108 210.583 278.683 212.097 281.932 212.943C281.272 212.035 281.432 212.29 281.003 211.263L281.814 210.596C284.08 210.13 285.42 210.167 287.646 210.946L288.491 209.443Z" fill="#000101"/>
<path d="M351.791 183.587C352.259 183.129 352.204 183.107 352.92 182.963C354.154 183.362 354.112 184.017 355.418 184.833L355.768 184.78L356.499 183.701C359.047 183.359 370.773 183.879 373.796 184.291C372.935 184.174 375.589 184.915 375.173 184.797C375.666 184.482 375.692 184.435 376.036 184.026L376.745 184.018C378.197 184.869 378.052 185 379.604 184.417C380.886 184.586 380.354 185.186 381.692 185.703C381.922 185.386 382.157 185.072 382.401 184.762C389.507 183.914 399.594 185.838 406.767 186.738C410.702 187.232 412.784 187.07 416.929 187.902L416.721 188.601C417.709 188.786 417.832 188.899 418.605 189.376C420.193 189.457 420.903 188.929 421.955 189.345C422.101 190.045 422.098 190.339 422.102 191.027C422.729 190.795 423.514 189.796 424.06 189.259L423.74 188.606C424.351 188.806 424.674 188.811 424.993 189.162C425.715 190.443 425.872 190.251 427.616 190.588C430.213 191.603 432.189 191.996 433.736 193.823L433.907 194.162C434.126 194.599 434.194 194.825 434.325 195.289L434.747 195.48C435.59 195.004 436.339 194.514 437.311 194.219C440.582 199.202 440.199 203.896 438.069 208.927C437.053 211.33 435.297 215.035 433.257 217.038C432.502 216.899 432.226 216.815 431.532 217.207C429.547 218.326 424.483 221.831 424.905 223.915C420.966 229.341 421.086 236.128 419.201 242.214C417.993 246.11 416.261 250.504 415.419 254.485C415 256.472 413.292 259.056 412.888 261.196C411.372 264.392 410.067 264.52 409.006 268.357C408.506 269.103 407.131 270.822 406.89 271.457C405.159 276.006 399.878 279.528 398.005 283.787C396.746 284.449 396.209 284.438 394.721 284.554C393.225 285.883 389.351 290.542 387.422 290.475C386.448 290.119 386.916 290.134 385.969 290.388C384.311 291.997 381.82 294.838 378.939 294.655C378.694 295.307 378.516 296.307 377.931 296.564C377.412 296.034 377.393 295.879 377.106 295.262L376.567 295.353C376.023 296.932 370.399 298.33 368.537 297.387C367.809 297.017 368.217 299.058 366.227 298.663C365.809 298.079 365.662 297.85 365.13 297.311C363.6 298.79 364.593 298.758 361.638 299.178C359.757 299.446 355.03 300.214 353.254 299.908L352.988 299.543L352.907 299.847C348.196 301.845 346.72 299.987 341.365 300.248C340.371 300.253 339.068 300.043 338.048 299.918C337.523 300.034 337.344 300.011 336.788 300.037C334.713 299.039 335.088 299.132 333.057 299.884C327.92 298.355 319.488 298.132 315.804 295.547L315.916 294.986L315.682 294.853L314.579 295.416C313.379 295.467 308.128 293.136 306.445 292.752C305.69 292.578 303.618 291.83 302.731 291.563C300.998 289.871 300.958 290.101 298.673 288.917C296.583 287.835 294.205 286.112 292.601 284.594C292.197 284.21 291.868 284.242 291.246 284.083C289.806 282.83 288.611 281.241 287.368 279.854C280.409 272.083 276.298 263.357 272.052 254.613C271 252.444 270.733 250.854 270.024 248.652C269.951 248.424 269.279 248.394 268.811 248.304C268.381 246.691 268.809 244.626 268.311 243.172C266.955 239.19 266.099 235.268 264.105 231.409C263.794 230.81 264.039 229.525 263.744 228.652C263.632 226.643 263.245 225.901 262.347 224.052C262.648 221.317 258.787 217.903 256.494 215.853C251.325 215.031 251.527 214.509 246.539 216.597C244.212 217.57 243.206 218.25 242.538 220.286C241.847 221.211 240.927 222.314 240.298 223.227C239.481 224.895 238.89 226.545 238.242 228.253C237.738 229.584 236.226 232.061 235.914 233.28C234.851 237.441 234.147 241.119 232.111 245.098C231.288 246.707 229.529 248.319 228.78 249.716C226.814 253.38 224.926 257.83 222.663 261.324C220.459 264.723 216.377 268.393 214.136 271.694C212.944 271.91 212.007 271.977 211.072 272.555L210.945 272.954L210.859 273.206C209.852 276.245 203.674 278.551 201.556 282.013L200.418 282.503L199.986 282.617C198.572 282.998 197.992 283.17 196.484 283.34C195.996 283.694 195.244 284.235 195.003 284.629C194.124 286.065 186.944 287.236 184.594 287.577C184.022 288.001 184.054 287.982 183.698 288.541C182.655 288.678 181.059 288.955 180.052 288.874C178.47 288.339 178.363 288.872 177.301 289.862C175.701 289.76 174.098 289.718 172.499 289.738C172.023 289.744 171.983 289.79 171.575 289.958L170.93 289.889L170.343 289.52C169.722 289.821 169.179 290.359 168.439 290.437C166.572 290.629 164.617 290.545 162.726 290.485C159.738 290.056 154.259 290.575 151.53 290.106C151.437 290.079 151.344 290.053 151.251 290.027L150.792 289.906C148.632 289.333 142.92 288.536 140.671 288.543C139.346 287.485 134.394 286.348 132.606 286.172C131.766 286.129 129.383 285.118 127.976 284.808C126.283 284.434 124.473 284.28 122.973 283.833C122.066 283.218 120.778 282.332 119.766 281.877C117.778 280.984 117.931 280.618 116.911 279.119C116.178 279.415 116.142 279.498 115.328 279.521C113.352 278.821 113.11 277.246 111.587 275.944L110.886 276.204C109.437 276.043 104.215 268.977 102.417 267.301L101.214 267.606L100.306 267.201C99.4506 266.183 97.645 263.129 96.9091 261.93C96.6731 260.195 95.0985 257.723 94.656 255.914C94.0537 253.451 93.4039 254.475 91.8812 252.935C90.7782 249.912 89.4587 247.468 88.3939 244.052C87.7137 241.339 86.4886 238.736 86.2607 236.039C85.9476 235.187 85.5606 232.747 85.2071 231.629C83.9309 227.598 81.8345 218.33 82.6317 214.669C84.2041 212.442 83.0874 211.532 81.6927 209.31L81.1972 209.398L80.9085 209.244C79.7448 207.355 81.2062 204.294 80.0159 203.299L79.7357 203.596C78.8298 203.044 78.3512 201.284 77.5925 200.518C75.3519 198.256 72.6752 196.462 71.0289 193.85C67.3403 187.999 65.8704 179.551 68.2429 173.51L69.0915 173.758L69.7383 173.194C72.2198 170.992 74.5115 170.042 77.9571 169.038C78.0319 169.791 78.0003 169.852 78.3412 170.593C78.8137 170.48 79.2329 169.569 79.5243 169.112C82.2502 169.369 83.8536 168.819 86.4448 168.631C87.6681 168.542 87.2613 169.962 89.6043 168.588C91.0602 167.735 92.4748 168.101 94.1938 168.192C94.8474 167.828 94.9746 167.691 95.7692 167.565L96.1337 167.841C96.2613 168.46 96.2858 168.627 96.5447 169.243L96.8956 169.158C96.9349 168.982 96.992 168.48 97.1174 168.305C97.8108 167.339 104.842 168.994 106.547 168.741C106.861 168.695 107.328 168.448 107.628 168.335C109.509 168.456 107.329 168.565 108.826 169.381C109.534 168.772 109.853 168.507 110.728 168.056L110.832 168.964L110.896 169.349L111.257 169.562C112.122 169.241 112.587 169.092 113.491 168.839C115.474 169.083 114.014 169.613 115.616 169.74C117.018 169.864 119.857 169.332 121.097 169.558C123.068 169.916 123.917 171.716 125.727 170.45C127.459 169.239 128.087 170.141 129.963 170.889C130.853 170.894 131.161 170.665 131.919 170.311L132.211 170.173C134.698 171.161 136.385 171.06 138.916 170.311L138.888 171.302L139.121 171.66C141.482 172.155 141.954 171.173 143.3 172.291C143.95 172.12 143.959 172.092 144.527 171.784C150.004 172.408 155.843 173.505 161.356 174.095C165.45 174.533 165.696 174.326 169.542 175.758C171.038 175.164 171.197 174.651 172.874 175.332C173.314 176.079 173.383 176.333 173.642 177.138L173.882 177.207C174.227 176.61 174.601 175.717 175.264 175.421C177.454 176.015 176.061 177.991 178.2 176.874C179.024 177.048 179.381 177.334 180.058 177.744C181.317 177.839 181.498 177.604 182.647 177.071C183.428 177.063 183.534 177 184.231 177.255C184.461 177.766 184.697 178.275 184.94 178.782L185.369 178.897C186.268 178.42 187.957 177.414 188.926 177.239C189.634 177.567 190.014 177.771 190.644 178.205C193.317 180.049 194.649 177.16 195.424 180.6L195.752 180.829C196.512 180.274 196.974 179.895 197.665 179.286C200.562 180.197 203.269 180.5 204.39 182.917C205.288 182.305 205.914 181.739 207.055 181.518C209.425 181.741 209.076 184.093 212.061 182.992C213.275 183.645 213.303 183.784 213.689 184.922C214.567 185.094 215.418 184.637 216.339 184.361C218.293 185.192 218.899 185.517 221.048 185.974C223.315 186.456 224.776 186.361 226.76 187.338C228.835 187.753 229.064 188.567 230.228 188.795C230.933 188.286 230.847 187.977 231.173 187.125C232.422 187.109 232.462 187.535 232.889 188.398L232.998 188.893C234.334 189.398 234.241 189.287 235.398 188.6L235.88 188.727L236.719 189.992L237.014 190.038L237.713 189.357L238.161 189.412C238.489 189.961 238.79 190.481 239.163 191.015C240.033 190.81 240.083 190.566 240.796 189.977C243.713 190.817 245.247 191.203 248.207 192.157C249.21 191.819 250.169 191.508 251.138 191.115C251.593 191.76 251.873 192.403 252.576 192.752C253.311 192.05 253.207 191.896 254.126 191.694L255.698 192.048C257.142 189.906 261.818 191.716 264.941 191.319C265.432 190.865 265.527 190.738 266.152 190.381L266.651 190.571C266.937 191.102 267.057 191.315 267.431 191.811C268.36 191.723 268.189 191.628 269.017 190.986C270.718 191.428 268.913 191.13 270.175 191.948C271.388 191.957 274.102 192.127 274.861 191.649C276.963 190.935 283.381 190.044 285.709 190.168L286.098 190.254C287.223 189.793 287.929 189.784 289.06 189.518C293.062 188.581 297.032 187.375 301.034 186.328L303.812 186.53C304.852 186.28 305.732 186.047 306.764 186.257C308.387 187.557 309.055 185.828 311.129 185.909C311.796 185.936 312.396 185.029 312.659 184.711L313.687 184.263C314.295 184.948 314.261 185.079 314.375 185.877C314.198 186.353 314.229 186.101 314.501 186.663L314.893 186.661C315.669 185.892 316.074 185.335 317.263 185.036C318.538 185.084 319.436 185.687 320.581 186.25C321.823 186.189 321.923 185.353 322.381 185.242C324.705 184.674 327.248 185.009 329.638 184.365L329.83 184.554C330.262 184.066 330.492 183.722 331.127 183.389C331.711 183.894 331.579 183.861 331.825 184.58L331.904 184.811L332.206 184.876L333.175 183.658C334.9 183.71 337.236 183.764 339.029 183.679C339.247 183.813 339.464 183.947 339.682 184.081C340.734 184.06 343.54 183.608 344.427 183.646C345.983 183.712 349.612 183.298 350.439 184.324C350.517 184.38 350.595 184.437 350.675 184.493L351.791 183.587Z" fill="#000101"/>
<path d="M351.792 183.587C352.26 183.129 352.204 183.107 352.921 182.963C354.155 183.362 354.113 184.017 355.419 184.833L355.769 184.78L356.5 183.701C359.048 183.359 370.774 183.879 373.797 184.291C372.936 184.174 375.59 184.915 375.174 184.797C375.667 184.482 375.693 184.435 376.037 184.026L376.746 184.018C378.198 184.869 378.053 185 379.605 184.417C380.887 184.586 380.355 185.186 381.692 185.703C381.923 185.386 382.158 185.072 382.402 184.762C389.508 183.914 399.595 185.838 406.768 186.738C410.703 187.232 412.784 187.07 416.93 187.902L416.722 188.601C412.179 188.379 407.909 187.314 403.283 187.556C403.018 187.57 402.295 186.765 402.146 186.601C401.172 186.394 401.626 186.366 400.733 186.678C400.288 187.215 399.875 187.699 399.398 188.219L398.918 188.148C398.447 187.46 398.372 187.286 398.04 186.543C397.343 186.371 395.463 187.335 394.862 187.695C393.058 186.845 393.707 184.233 389.536 187.122C387.113 185.585 386.634 186.107 384.313 187.022C382.961 186.48 383.795 185.66 382.641 185.542C381.204 186.271 381.368 186.356 379.601 185.886C379.154 186.235 378.809 186.522 378.39 186.893C376.978 186.699 377.693 185.833 376.319 185.859C375.325 186.436 375.841 186.361 374.792 186.299C374.02 185.809 373.158 185.14 372.243 185.011C371.523 185.235 371.321 185.542 370.846 186.018C367.854 186.52 366.339 184.395 364.783 186.567C364.396 187.107 364.413 187.166 364.031 187.141L363.871 186.869C363.489 186.229 363.366 185.833 362.639 185.438C359.06 184.99 355.311 186.994 352.726 184.134C352.398 183.769 352.311 183.757 351.792 183.587Z" fill="#000101"/>
<path d="M86.2617 236.039C88.9543 238.379 89.2956 241.196 88.3948 244.052C87.7146 241.339 86.4895 238.736 86.2617 236.039Z" fill="#000101"/>
<path d="M423.738 188.605C424.348 188.806 424.672 188.811 424.991 189.162C425.712 190.443 425.87 190.251 427.614 190.588C426.942 190.873 425.876 191.854 425.289 192.338C425.149 190.816 425.339 190.198 424.058 189.258L423.738 188.605Z" fill="#000101"/>
<path d="M338.049 299.919C338.945 299.496 340.205 298.705 341.054 298.692C341.555 299.348 341.369 299.351 341.365 300.249C340.372 300.254 339.068 300.044 338.049 299.919Z" fill="#000101"/>
<path d="M301.034 186.329L303.812 186.53C302.584 187.472 302.322 187.782 301.39 188.875C301.327 188.047 301.319 187.123 301.034 186.329Z" fill="#000101"/>
<path d="M374.973 202.261C375.78 201.254 376.658 199.795 378.146 199.541C378.993 200.686 378.11 200.362 379.268 201.001C381.153 201.074 381.23 200.826 382.597 199.826L382.943 199.57L383.283 199.814C383.318 200.431 383.344 200.918 383.452 201.539C384.766 201.443 386.055 200.99 386.814 200.831C387.355 200.718 390.605 202.799 391.278 203.003C391.67 203.122 392.455 202.297 392.689 202.068L393.072 202.197L393.307 203.174L393.801 203.305L394.606 202.98C394.548 205.162 397 205.07 397.981 206.473C399.677 208.895 401.646 212.046 401.933 214.804C401.998 215.994 401.517 216.687 402 217.924C402.562 217.725 402.437 217.667 402.89 217.161C404.076 219.547 401.13 229.65 401.241 232.664C401.285 233.879 399.76 237.144 399.588 238.521C398.642 242.509 398.201 244.849 396.429 248.652C396.038 253.164 392.178 259.063 390.337 263.348C389.849 264.482 388.651 265.705 387.452 266.451L387.354 266.514L387.233 266.73C386.183 268.678 387.026 269.24 384.473 270.262C383.701 271.402 381.946 274.42 381.107 275.086L380.821 275.099L380.541 274.213C379.213 275.418 380.213 276.867 378.129 277.804L377.756 277.134C376.026 277.747 376.196 280.288 374.749 280.119L374.587 279.578C373.39 279.841 373.767 279.755 372.809 280.541C372.708 281.102 372.643 281.445 372.474 282.003L372.219 281.932L372.073 280.982L371.712 280.86C369.864 281.62 369.988 281.435 369.082 282.794C368.55 282.261 368.487 282.257 368.106 281.641C366.485 282.669 364.713 283.762 362.659 284.21C362.099 283.925 362.225 284.001 361.761 283.644C360.266 283.888 356.988 285.086 355.555 285.63C354.922 284.978 354.833 284.711 354.453 283.971C353.64 284.982 352.832 285.823 352.441 286.977L352.142 287.012C351.629 286.055 351.507 285.567 351.198 284.55C350.346 285.146 350.22 285.822 349.267 286.181C348.376 285.989 348.047 285.888 347.593 285.229L347.368 285.259C346.732 285.22 346.035 285.07 345.399 284.959L345.123 284.724C344.775 285.292 344.496 285.784 344.046 286.312L343.683 286.286C343.077 285.54 343.089 285.556 342.778 284.708C342.285 285.344 342.172 285.528 341.801 286.218C341.509 286.655 340.666 287.232 340.176 287.611L339.912 287.505C339.832 286.447 340.015 285.71 338.89 285.064C338.085 285.429 338.122 285.528 337.257 285.528C336.541 284.823 336.758 284.889 336.554 283.859C335.9 284.155 334.958 285.524 334.499 286.103C333.975 285.1 333.492 284 333.017 282.977C332.612 284.065 332.091 284.981 331.534 286.013L330.644 282.532C330.351 283.243 330.056 284.394 329.137 284.646C328.294 284.256 327.262 282.943 326.643 282.254L326.374 282.254C326.141 282.745 325.97 283.083 325.687 283.555C325.064 283.163 324.619 281.918 324.313 281.264C323.77 281.962 323.303 282.796 322.845 283.544C322.234 282.774 321.611 281.781 321.062 280.966C318.093 280.648 316.609 280.384 313.639 279.792C313.53 279.039 313.519 278.424 313.097 277.74C312.44 278.11 312.429 278.578 312.096 279.309C308.069 274.626 302.448 271.534 299.488 266.172C299.086 265.441 298.926 265.566 298.576 264.549L297.981 264.372L296.701 264.702L296.203 264.503C295.725 263.767 296.137 262.443 296.293 261.563C294.353 257.744 292.871 254.289 291.038 250.587L290.366 250.36C289.891 249.083 290.934 246.731 289.655 245.66C289.126 246.152 289.404 246.102 288.829 246.157C288.42 244.917 288.7 243.272 288.372 241.831C288.003 240.216 286.383 236.272 286.223 234.959C285.877 232.117 285.325 223.927 285.841 221.605C285.391 219.675 286.435 217.093 287.063 215.176C289.901 210.54 292.262 206.883 298.154 204.351C300.214 203.466 302.637 202.761 304.224 201.569C304.605 201.282 304.655 201.28 305.178 201.223C305.729 201.623 305.471 201.41 305.952 201.863C308.098 201.747 308.981 199.156 310.854 201.629L311.024 201.702C311.669 201.202 311.967 200.822 312.765 200.616C313.1 201.04 313.011 200.879 313.142 201.355C314.019 200.73 314.563 200.107 315.619 199.726C317.602 199.845 315.994 200.662 317.662 199.71C317.853 200.155 317.975 200.492 318.124 200.946C319.12 200.628 318.162 200.06 319.347 199.962C319.845 200.44 319.819 200.628 319.993 201.226C320.418 200.588 320.847 199.65 321.526 199.379C321.811 199.883 321.821 199.901 321.95 200.439L324.032 198.838L324.407 199.711C326.467 200.5 330.858 199.288 332.658 199.316C336.079 199.369 339.858 199.96 343.405 199.592C344.423 199.487 343.868 198.562 344.91 198.683C345.343 199.295 345.296 199.802 345.355 200.497C346.013 200.647 346.376 200.377 346.916 200.064C347.941 199.404 349.729 199.565 351.079 199.535C353.231 199.486 355.428 199.469 357.583 199.346C358.763 199.279 358.833 200.152 359.002 200.806L359.268 200.946C359.837 200.157 361.481 199.107 362.668 199.162C362.968 199.794 362.851 200.059 362.828 200.759C363.3 200.718 365.387 198.775 365.868 198.337C365.906 199.161 365.847 200.107 366.171 200.86C366.549 200.583 366.413 200.702 366.587 200.269C367.803 199.799 371.602 199.319 372.895 199.669L372.959 200.012C373.041 200.406 373.059 200.494 373.201 200.86C373.839 200.346 373.984 199.846 374.583 199.554C375.789 199.957 375.155 201.422 374.973 202.261Z" fill="#000101"/>
<path d="M396.432 248.652C396.04 253.164 392.181 259.063 390.339 263.348C389.851 264.482 388.654 265.705 387.455 266.451L387.357 266.514C387.468 265.956 388.163 264.089 388.571 263.682C391.455 260.799 393.78 250.946 396.432 248.652Z" fill="#000101"/>
<path d="M287.061 215.177C288.324 217.377 287.19 219.668 285.839 221.606C285.389 219.676 286.433 217.093 287.061 215.177Z" fill="#000101"/>
<path d="M338.892 285.063C339.589 285.024 340.033 284.997 340.731 284.911C341.547 285.389 341.336 285.356 341.802 286.217C341.51 286.654 340.667 287.231 340.177 287.61L339.914 287.505C339.833 286.446 340.016 285.71 338.892 285.063Z" fill="#000101"/>
<path d="M296.293 261.562C296.911 262.798 297.157 263.211 297.981 264.371L296.702 264.701L296.204 264.502C295.726 263.766 296.138 262.442 296.293 261.562Z" fill="#000101"/>
<path d="M101.734 218.474C102.238 211.988 101.276 205.967 101.562 199.561C101.599 198.736 104.511 192.23 104.878 192.012L105.213 192.715L105.567 192.695C106.129 191.643 108.031 188.689 109.431 188.389L109.73 188.838C110.557 188.352 110.035 187.38 111.378 186.349L111.644 186.481C111.856 187.134 111.715 186.963 112.164 187.499L112.763 187.429C113.901 186.605 115.247 185.661 116.911 186.135C120.521 187.165 120.753 184.914 122.744 184.513C122.788 185.325 122.619 185.548 123.108 186.129C123.626 185.721 123.422 185.811 124.058 185.565L124.305 185.884L124.494 186.14L124.877 185.927C124.957 185.355 124.927 185.415 125.135 184.868C125.633 185.398 125.742 186.076 125.956 186.747L126.137 186.822C126.423 186.014 126.249 185.991 126.915 185.53L127.539 185.664C128.435 186.244 128.465 186.411 129.006 187.261L129.165 187.517C129.329 186.902 129.397 186.411 129.487 185.791C130.025 185.389 129.708 185.506 130.486 185.451C131.156 185.71 131.261 185.974 131.645 186.484L131.789 186.679L132.055 186.726C132.635 186.27 133.029 185.974 133.652 185.557L134.095 185.669L134.513 186.744C135.163 186.37 134.594 186.013 135.43 185.419L136.097 186.846L136.47 186.949L137.438 186.156L137.698 186.383C137.479 186.952 137.31 187.426 137.129 188.003L137.422 188.037C137.851 186.886 138.4 186.312 139.988 186.612C140.62 187.103 140.573 187.4 140.695 188.09L140.736 188.341L141.068 188.455C141.146 188.277 141.678 187.085 141.758 186.991C142.616 185.983 148.1 188.13 149.695 187.769C150.696 187.542 150.501 187.555 150.953 186.947L151.301 186.894C151.999 188.671 152.874 188.563 154.916 189.631L156.1 187.337L156.583 189.205L156.803 189.31C157.04 188.656 157.01 188.451 157.514 187.937C157.839 188.624 157.891 189.333 158.341 189.704C158.56 189.065 158.702 188.199 159.296 187.909C159.817 188.613 159.102 188.84 159.739 189.376L160.756 188.756L161.119 188.814L161.637 189.642C161.965 189.449 162.219 189.294 162.532 189.094C163.243 189.365 163.33 189.671 163.699 190.238L163.84 190.459C164.253 189.757 164.487 188.843 165.098 188.512C165.141 189.108 165.075 189.678 165.489 190.158L166.429 189.814C166.952 190.022 166.778 189.958 167.382 190.022L167.748 189.654C167.76 190.128 167.801 190.336 167.894 190.809C168.684 190.656 168.848 189.598 169.767 189.474C169.901 189.955 169.963 190.171 170.174 190.635C171.084 190.476 170.777 190.421 171.59 190.594L171.713 191.443L172.018 191.551C172.328 191.018 172.453 190.615 173.084 190.327C174.695 191.335 174.112 190.545 175.129 190.357C175.112 190.94 175.039 191.217 175.288 191.77C175.801 191.261 175.847 191.167 176.532 190.776C177.169 191.209 176.886 191.001 177.146 191.859L177.428 191.957C177.663 191.28 177.491 191.472 178.004 190.965C178.258 191.48 178.314 191.723 178.782 192.135L179.444 191.268L180.137 191.327L180.479 191.053L180.369 190.732L180.776 190.327L181.11 190.457L181.138 191.084C181.919 191.646 181.48 191.45 182.527 191.664C183.398 191.418 183.71 190.879 184.254 190.265L184.758 190.219C185.293 190.842 185.391 190.788 185.21 191.761C185.258 192.8 185.049 192.533 185.748 193.22C186.54 193.486 187.28 193.256 188.152 193.113L188.647 193.285C188.944 193.869 188.764 194.358 188.662 194.986C189.221 194.4 189.293 194.255 190.143 193.907C191.296 193.881 192.158 194.577 193.307 194.931C195.224 194.671 197.952 196.121 199.384 197.063L200.448 195.586C201.004 196.398 200.16 197.465 200.891 197.686C202.297 197.107 203.561 197.44 204.821 198.182C204.953 198.639 204.956 198.71 204.974 199.177C205.9 199.721 206.599 199.502 207.037 199.695C207.967 200.106 207.207 200.947 208.156 201.464L208.719 201.154C211.69 202.581 212.212 204.392 212.76 206.941L213.751 205.95L214.16 205.924C214.611 206.704 214.735 208.672 215.283 210.108C215.755 211.364 215.9 212.406 216.386 213.528L216.466 213.465C216.657 214.581 216.286 219.445 216.37 219.556L217.239 218.826C217.704 219.776 216.608 222.958 216.463 224.084C215.482 231.712 212.452 238.767 208.873 245.802C208.325 246.88 208.014 248.131 207.386 249.218C207.194 249.548 206.987 249.87 206.765 250.186L206.729 250.051C203.805 254.124 202.361 258.222 199.951 261.828C199.818 260.92 199.755 260.171 199.419 259.285C197.7 263.764 195.944 264.965 191.55 268.171C189.704 269.517 188.774 269.704 187.771 271.56C186.954 270.574 188.329 270.63 187.146 270.357C183.753 271.833 180.462 273.288 176.839 274.461C176.048 274.717 173.693 274.405 172.796 274.608C171.927 274.804 171.336 275.425 170.413 275.829C169.324 274.965 170.895 275.31 169.445 274.782C165.458 275.33 163.604 275.713 159.807 276.435C158.971 275.575 160.149 274.96 159.224 274.765C157.978 275.317 157.658 275.763 156.941 276.749C156.377 275.908 155.753 275.019 155.266 274.156C154.899 274.793 154.665 275.539 154.01 275.798C153.735 275.587 153.456 275.377 153.173 275.171L152.923 276.055L152.528 276.197C152.037 275.593 152.012 275.422 151.73 274.754C150.759 275.017 151.177 275.805 150.227 275.967C149.776 275.124 149.831 274.98 149.813 274.051L149.528 273.87C148.88 274.231 148.668 275.105 148.408 275.754C147.637 275.84 147.83 274.445 146.757 273.916C146.729 274.446 146.838 274.324 146.54 274.718C145.586 274.166 145.028 273.821 144.158 273.194L143.572 275.225C143.209 274.173 142.943 273.404 142.44 272.369L142.175 272.335L141.846 273.617L141.552 273.742C140.921 273.221 140.28 272.705 139.627 272.199C139.11 272.521 139.082 272.705 138.754 273.184C138.234 272.819 138.136 272.715 137.677 272.299C136.821 271.895 136.215 271.387 135.406 270.916L134.909 271.021L134.384 271.892C134.559 272.562 134.434 273.303 133.931 273.837C132.409 273.707 132.391 272.202 132.401 271.288C132.041 270.619 131.681 269.695 130.982 269.297C128.932 269.156 129.169 268.361 128.719 266.913C128.543 267.424 128.304 268.318 127.828 268.536C124.698 264.918 121.839 265.344 120.699 261.676L120.583 261.297C119.756 261.345 120.711 261.639 119.713 262.466C117.41 259.265 114.994 256.558 113.92 253.006C113.207 253.349 111.925 255.154 111.399 255.814C111.811 253.943 112.867 253.269 111.982 251.473C111.384 247.729 109.34 245.893 108.742 242.44C108.597 241.606 108.846 240.857 108.298 240.021C108.198 240.61 108.171 241.038 107.877 241.586C107.358 240.802 106.198 234.866 105.975 233.636L105.299 234.69L105.052 234.634C104.847 230.812 104.199 229.282 103.736 225.758C100.379 224.402 101.344 220.835 101.734 218.474Z" fill="#000101"/>
<path d="M128.722 266.914L128.937 266.191L129.152 266.124C129.902 266.575 129.59 266.538 129.876 266.738C132.717 268.71 136.362 268.773 137.681 272.3C136.824 271.897 136.219 271.388 135.409 270.917L134.912 271.022L134.388 271.893C134.562 272.563 134.437 273.304 133.934 273.838C132.413 273.708 132.394 272.204 132.404 271.289C132.044 270.62 131.684 269.696 130.985 269.298C128.935 269.157 129.172 268.363 128.722 266.914Z" fill="#000101"/>
<path d="M132.403 271.288L132.953 270.479L133.363 270.406C133.892 271.003 134.016 271.25 134.387 271.892C134.561 272.562 134.436 273.303 133.933 273.838C132.412 273.708 132.393 272.203 132.403 271.288Z" fill="#000101"/>
<path d="M101.735 218.474C103.333 221.268 103.511 222.747 103.737 225.759C100.38 224.403 101.345 220.835 101.735 218.474Z" fill="#000101"/>
<path d="M180.138 191.328L180.481 191.055L180.371 190.733L180.777 190.329L181.111 190.459L181.139 191.086C181.921 191.648 181.481 191.452 182.529 191.666C183.399 191.42 183.711 190.881 184.256 190.267L184.759 190.22C185.294 190.844 185.392 190.79 185.212 191.763C184.783 192.433 184.345 193.271 183.665 193.757C183.57 193.202 183.538 192.688 183.495 192.133C183.041 192.388 182.644 192.624 182.2 192.889L181.614 192.78C180.915 192.046 180.74 192.164 180.138 191.328Z" fill="#000101"/>
<path d="M144.158 273.194C145.17 272.821 148.811 272.753 149.859 273.347C150.014 273.848 150.043 273.615 149.813 274.051L149.528 273.871C148.879 274.232 148.668 275.105 148.408 275.754C147.637 275.84 147.83 274.446 146.757 273.916C146.729 274.447 146.838 274.325 146.54 274.719C145.586 274.166 145.028 273.822 144.158 273.194Z" fill="#000101"/>
<path d="M188.662 194.987C189.221 194.401 189.293 194.256 190.143 193.908C191.296 193.882 192.158 194.578 193.307 194.932L192.979 195.403L192.536 195.452C190.82 195.647 190.195 196.163 188.645 195.508L188.662 194.987Z" fill="#000101"/>
<path d="M212.762 206.942L213.753 205.951L214.162 205.925C214.613 206.705 214.737 208.673 215.285 210.109C214.014 209.43 213.349 208.045 212.762 206.942Z" fill="#000101"/>
<path d="M111.982 251.474L112.714 251.64C113.167 252.305 113.209 252.569 113.92 253.007C113.207 253.35 111.925 255.155 111.399 255.816C111.81 253.944 112.867 253.27 111.982 251.474Z" fill="#000101"/>
<path d="M345.398 284.959C346.035 285.07 346.731 285.22 347.368 285.258C346.835 285.79 346.558 286.329 346.165 286.943C345.813 286.272 345.633 285.653 345.398 284.959Z" fill="#000101"/>
<path d="M138.887 171.302C140.245 171.027 140.425 170.426 141.77 170.478C145.548 170.623 149.26 171.459 152.925 172.221L154.239 171.798C157.816 172.376 162.402 172.748 165.849 173.198C166.24 173.249 168.278 174.628 169.93 174.696C171.252 174.208 171.255 173.979 172.616 174.294C174.247 174.717 175.749 175.402 177.385 175.79C178.179 175.979 182.555 175.769 182.836 175.979C185.406 177.834 186.305 176.985 189.498 176.932C190.349 176.846 195.935 178.925 195.977 178.921C199.041 178.626 200.123 179.52 202.8 179.88C208.002 180.579 211.468 181.877 216.252 183.668C216.29 183.873 216.38 184.184 216.338 184.361C215.417 184.637 214.567 185.094 213.688 184.922C213.302 183.784 213.274 183.645 212.06 182.992C209.075 184.093 209.424 181.741 207.055 181.518C205.913 181.739 205.288 182.305 204.389 182.917C203.268 180.5 200.561 180.197 197.664 179.286C196.974 179.895 196.511 180.275 195.751 180.829L195.423 180.6C194.648 177.16 193.316 180.05 190.643 178.206C190.013 177.771 189.633 177.567 188.926 177.239C187.956 177.414 186.267 178.42 185.368 178.897L184.939 178.782C184.696 178.275 184.46 177.766 184.23 177.255C183.533 177.001 183.427 177.063 182.647 177.071C181.497 177.604 181.317 177.839 180.057 177.744C179.38 177.334 179.023 177.048 178.199 176.874C176.06 177.991 177.453 176.015 175.263 175.421C174.6 175.717 174.226 176.61 173.881 177.208L173.641 177.138C173.382 176.333 173.313 176.079 172.873 175.332C171.197 174.651 171.037 175.164 169.541 175.758C165.695 174.326 165.449 174.533 161.356 174.095C155.842 173.505 150.003 172.409 144.526 171.784C143.958 172.092 143.949 172.12 143.299 172.291C141.953 171.173 141.481 172.155 139.12 171.66L138.887 171.302Z" fill="#000101"/>
<path d="M291.246 284.084C291.868 284.243 292.197 284.211 292.601 284.595C294.204 286.113 296.583 287.835 298.673 288.918C300.958 290.101 300.997 289.871 302.73 291.564C303.618 291.831 305.69 292.579 306.445 292.752C308.128 293.136 313.379 295.468 314.579 295.417L315.681 294.854L315.915 294.987L315.804 295.547C319.487 298.132 327.919 298.356 333.056 299.885C335.087 299.132 334.713 299.039 336.787 300.037C337.344 300.012 337.523 300.034 338.048 299.918C339.067 300.044 340.371 300.253 341.365 300.249C346.719 299.987 348.195 301.846 352.907 299.848C352.42 301.04 351.699 301.455 350.062 301.662C348.078 301.912 346.011 301.135 343.975 300.954C341.514 300.737 338.006 301.707 335.782 300.548C335.256 300.225 335.379 300.256 334.645 299.917C333.816 300.352 333.767 300.423 332.775 300.65C329.157 299.989 325.621 299.336 321.93 298.911C320.831 298.783 318.111 297.368 316.844 297.08C314.052 296.45 313.472 296.782 311.35 295.083L311.089 294.87C310.926 295.144 311.05 294.995 310.633 295.267C309.283 294.671 307.711 294.738 307.507 294.639C301.002 291.527 295.602 289.133 291.246 284.084Z" fill="#000101"/>
<path d="M68.2452 173.509C69.7346 170.474 79.0942 166.619 82.1012 168.535C83.1981 168.641 83.1337 167.728 83.8826 167.676C85.1611 167.502 88.1938 168.339 89.3214 167.75C93.0914 165.781 107.999 168.758 110.14 167.792L110.73 168.055C109.856 168.506 109.536 168.771 108.828 169.38C107.331 168.564 109.511 168.455 107.631 168.334C107.331 168.447 106.863 168.694 106.55 168.74C104.844 168.993 97.8131 167.339 97.1197 168.304C96.9943 168.479 96.9372 168.981 96.8979 169.157L96.5469 169.242C96.2881 168.626 96.2636 168.46 96.1359 167.841L95.7714 167.564C94.9769 167.69 94.8497 167.827 94.196 168.191C92.477 168.1 91.0624 167.734 89.6066 168.588C87.2635 169.962 87.6704 168.541 86.4471 168.63C83.8559 168.818 82.2525 169.369 79.5265 169.112C79.2351 169.568 78.8159 170.479 78.3435 170.592C78.0026 169.851 78.0342 169.79 77.9594 169.037C74.5137 170.041 72.2221 170.991 69.7406 173.194L69.0938 173.758L68.2452 173.509Z" fill="#000101"/>
<path d="M100.308 267.2L101.216 267.606L102.419 267.301C104.217 268.977 109.439 276.043 110.887 276.204L111.589 275.943C113.112 277.246 113.354 278.821 115.33 279.521C116.144 279.498 116.18 279.415 116.913 279.119C117.933 280.617 117.779 280.984 119.768 281.877C120.78 282.331 122.068 283.218 122.975 283.833L122.423 284.586C118.654 282.003 113.527 280.145 109.91 277.127C108.292 275.779 107.042 273.581 105.679 272.383C102.913 269.952 102.104 270.222 100.308 267.2Z" fill="#000101"/>
<path d="M312.658 184.712C312.395 185.03 311.796 185.936 311.128 185.91C309.055 185.829 308.386 187.557 306.763 186.258C305.731 186.048 304.851 186.281 303.811 186.531L301.033 186.329C297.032 187.376 293.061 188.582 289.06 189.519C287.928 189.785 287.222 189.794 286.097 190.255L285.709 190.169C285.742 189.766 285.889 189.14 285.968 188.722C287.435 188.282 287.922 188.046 289.551 187.983C291.715 187.898 296.376 186.8 298.304 186.073C301.588 184.833 310.408 185.818 312.658 184.712Z" fill="#000101"/>
<path d="M353.254 299.907C355.03 300.213 359.757 299.445 361.638 299.177C364.593 298.757 363.6 298.789 365.13 297.31C365.662 297.849 365.809 298.078 366.227 298.662C368.217 299.057 367.809 297.015 368.538 297.386C370.399 298.329 376.023 296.931 376.567 295.352L377.106 295.261C376.796 296.044 376.381 297.449 375.468 297.723C374.119 298.128 367.131 299.795 366.169 299.64L365.777 299.1C361.688 299.99 358.189 301.534 353.517 300.558L353.254 299.907Z" fill="#000101"/>
<path d="M110.831 168.963C111.607 169.008 112.157 168.548 112.916 168.146C113.851 168.137 117.603 168.504 118.622 168.672C124.22 169.593 133.761 169.144 138.915 170.31C136.384 171.06 134.697 171.16 132.21 170.173L131.918 170.311C131.161 170.664 130.852 170.893 129.963 170.888C128.086 170.141 127.458 169.238 125.726 170.45C123.916 171.716 123.067 169.916 121.096 169.557C119.857 169.332 117.017 169.863 115.615 169.739C114.013 169.613 115.474 169.083 113.49 168.838C112.586 169.091 112.121 169.241 111.257 169.562L110.895 169.349L110.831 168.963Z" fill="#000101"/>
<path d="M242.539 220.286C243.207 218.251 244.212 217.57 246.54 216.597C251.528 214.509 251.325 215.031 256.495 215.853C258.788 217.903 262.649 221.317 262.348 224.052C260.982 221.269 259.137 219.216 256.424 217.127L250.675 216.073C250.188 216.302 249.549 216.613 249.015 216.738C246.514 217.326 244.433 218.893 242.539 220.286Z" fill="#000101"/>
<path d="M151.532 290.106C154.26 290.575 159.74 290.056 162.728 290.485C164.618 290.545 166.573 290.629 168.44 290.437C169.18 290.359 169.723 289.821 170.344 289.52L170.931 289.889L170.25 290.379C169.309 290.835 168.267 291.935 167.437 292.081C167.211 291.608 167.187 291.465 167.068 290.968C166.269 290.843 165.78 291.53 165.47 291.53C161.419 291.519 157.461 291.326 153.415 291.662C152.185 291.764 152.258 290.786 151.694 290.334L151.532 290.106Z" fill="#000101"/>
<path d="M242.322 189.515C245.764 189.865 249.16 190.353 252.605 190.618C254.618 190.773 255.096 190.374 255.697 192.047L254.125 191.694C253.206 191.896 253.31 192.05 252.575 192.752C251.872 192.402 251.592 191.76 251.137 191.114C250.168 191.507 249.209 191.819 248.206 192.156C245.246 191.203 243.712 190.817 240.796 189.976L242.322 189.515Z" fill="#000101"/>
<path d="M183.701 288.541C184.057 287.983 184.025 288.002 184.597 287.577C186.947 287.236 194.127 286.065 195.005 284.63C195.247 284.235 195.998 283.695 196.487 283.341C197.995 283.17 198.574 282.999 199.989 282.618C199.192 283.59 198.629 284.481 197.188 284.851C196.513 284.523 196.806 284.743 196.481 284.029C195.614 284.627 194.557 285.906 193.898 286.277C191.37 287.707 187.075 288.198 184.227 289.095L183.701 288.541Z" fill="#000101"/>
<path d="M200.42 282.504L201.558 282.014C203.676 278.553 209.854 276.246 210.86 273.207L210.947 272.955L211.074 272.556C212.009 271.978 212.945 271.911 214.137 271.695C210.767 275.17 208.149 277.973 203.399 280.366C202.805 281.456 202.373 282.445 201.437 283.361L200.903 283.493C200.338 283.018 200.579 283.282 200.42 282.504Z" fill="#000101"/>
<path d="M314.373 185.877C315.085 185.513 316.23 184.641 316.934 184.379C318.897 183.645 322.722 184.755 324.726 184.461C325.07 183.848 324.891 184.024 325.454 183.557C326.162 183.703 326.338 183.766 327.022 183.971C327.875 183.797 328.196 183.764 329.051 183.679L329.637 184.365C327.247 185.01 324.704 184.675 322.38 185.242C321.922 185.354 321.822 186.19 320.579 186.25C319.434 185.687 318.537 185.085 317.262 185.037C316.073 185.335 315.668 185.892 314.892 186.661L314.5 186.664C314.227 186.101 314.197 186.354 314.373 185.877Z" fill="#000101"/>
<path d="M378.938 294.655C381.819 294.839 384.309 291.998 385.967 290.389C386.914 290.135 386.446 290.12 387.42 290.475C388.205 290.946 388.246 290.913 389.159 291.103C387.766 292.397 383.861 293.728 381.983 294.804C380.895 295.43 380.222 296.005 379.308 296.765L378.938 294.655Z" fill="#000101"/>
<path d="M216.254 183.668C219.35 184.299 222.394 185.086 225.531 185.722C226.902 186.406 227.598 186.533 229.113 186.932C228.05 187.233 227.907 187.246 226.761 187.338C224.778 186.362 223.316 186.456 221.049 185.974C218.9 185.518 218.294 185.192 216.34 184.361C216.382 184.184 216.292 183.873 216.254 183.668Z" fill="#000101"/>
<path d="M387.422 290.474C389.351 290.541 393.225 285.882 394.721 284.554C396.209 284.437 396.746 284.449 398.005 283.786C396.852 285.387 391.069 288.684 389.16 291.102C388.247 290.912 388.206 290.945 387.422 290.474Z" fill="#000101"/>
<path d="M274.863 191.649L275.036 191.431C276.899 189.118 282.58 189.251 285.971 188.722C285.892 189.139 285.745 189.766 285.712 190.168C283.383 190.045 276.965 190.936 274.863 191.649Z" fill="#000101"/>
<path d="M122.971 283.833C124.472 284.28 126.281 284.434 127.974 284.808C129.381 285.118 131.764 286.129 132.604 286.172L133.184 287.196L132.625 287.294C129.022 285.977 124.637 285.86 122.42 284.586L122.971 283.833Z" fill="#000101"/>
<path d="M140.672 288.542C142.921 288.535 148.633 289.332 150.793 289.905L151.252 290.026C151.345 290.052 151.438 290.078 151.532 290.105L151.694 290.333C150.282 291.833 148.432 290.88 147.159 289.809L146.911 289.597C145.875 290.358 142.278 289.752 140.818 289.464L140.672 288.542Z" fill="#000101"/>
<path d="M424.992 189.162L425.295 189.256C430.164 190.735 430.013 189.497 434.888 192.788C434.119 193.114 434.141 193.221 433.735 193.823C432.188 191.996 430.213 191.603 427.615 190.588C425.871 190.251 425.714 190.443 424.992 189.162Z" fill="#000101"/>
<path d="M424.906 223.915C424.485 221.831 429.548 218.326 431.533 217.207C432.228 216.816 432.504 216.899 433.259 217.039C430.592 220.343 428.235 219.484 424.906 223.915Z" fill="#000101"/>
<path d="M132.605 286.172C134.393 286.348 139.345 287.484 140.671 288.542L140.816 289.465L140.049 289.059C138.449 289.299 134.799 287.776 133.185 287.196L132.605 286.172Z" fill="#000101"/>
<path d="M91.8828 252.936C93.4055 254.475 94.0553 253.451 94.6576 255.914C95.1001 257.724 96.6748 260.195 96.9108 261.931C94.8404 259.286 92.6957 255.956 91.8828 252.936Z" fill="#000101"/>
<path d="M232.89 188.398C236.937 188.237 238.375 188.722 242.324 189.515L240.797 189.976C240.084 190.565 240.034 190.81 239.164 191.015C238.791 190.481 238.489 189.961 238.162 189.411L237.714 189.357L237.014 190.037L236.719 189.992L235.881 188.726L235.399 188.599C234.241 189.287 234.335 189.398 232.999 188.892L232.89 188.398Z" fill="#000101"/>
<path d="M416.93 187.903C418.252 187.488 422.24 188.788 423.742 188.606L424.062 189.259C423.516 189.796 422.731 190.795 422.104 191.027C422.099 190.34 422.102 190.045 421.956 189.345C420.904 188.93 420.194 189.457 418.606 189.376C417.833 188.9 417.71 188.786 416.723 188.601L416.93 187.903Z" fill="#000101"/>
<path d="M170.929 289.888L171.574 289.957C171.982 289.789 172.022 289.743 172.497 289.737C174.097 289.717 175.7 289.759 177.3 289.861L177.534 290.489C174.972 290.901 173.438 291.056 170.837 291.218C170.264 290.804 170.514 291.035 170.247 290.379L170.929 289.888Z" fill="#000101"/>
<path d="M81.1974 209.397L81.6929 209.309C83.0876 211.531 84.2043 212.441 82.632 214.668C81.6474 212.319 81.6987 211.781 81.1974 209.397Z" fill="#000101"/>
<path d="M269.016 190.987L269.34 190.774C271.94 191.539 273.129 190.213 274.336 190.635L274.859 191.649C274.101 192.128 271.386 191.957 270.174 191.949C268.912 191.131 270.716 191.429 269.016 190.987Z" fill="#000101"/>
<path d="M434.887 192.789C435.846 193.301 436.465 193.605 437.31 194.22C436.337 194.515 435.589 195.005 434.746 195.481L434.324 195.29C434.192 194.826 434.125 194.6 433.906 194.163L433.734 193.824C434.14 193.222 434.118 193.115 434.887 192.789Z" fill="#000101"/>
<path d="M183.697 288.541L184.224 289.095C183.348 289.615 182.952 289.908 181.943 290.232C181.081 290.061 181.487 290.221 180.792 289.594L180.051 288.874C181.058 288.956 182.654 288.679 183.697 288.541Z" fill="#000101"/>
<path d="M229.111 186.931C230.134 187.305 230.076 187.287 231.173 187.125C230.846 187.976 230.933 188.285 230.228 188.794C229.063 188.566 228.835 187.753 226.76 187.338C227.905 187.245 228.049 187.232 229.111 186.931Z" fill="#000101"/>
<path d="M177.3 289.862C178.361 288.872 178.468 288.339 180.05 288.874L180.791 289.594C179.639 289.941 178.733 290.218 177.534 290.489L177.3 289.862Z" fill="#000101"/>
</svg>
