<svg width="500" height="500" viewBox="0 0 500 500" fill="none" xmlns="http://www.w3.org/2000/svg">
<path d="M220.077 157.331C227.147 145.17 237.567 138.582 251.757 138.283C254.807 138.219 257.268 138.286 259.918 139.906C265.008 142.017 266.038 143.855 268.593 148.647C276.543 155.972 270.497 159.537 278.507 165.418C279.442 166.104 283.848 167.857 285.298 168.551C288.533 168.06 290.348 167.799 293.643 167.7C309.803 152.028 331.733 155.179 340.673 173.95C344.553 182.099 340.213 190.117 347.218 197.331C349.383 199.298 353.827 200.893 356.617 202.382C359.832 201.78 363.308 201.058 366.513 200.549C375.133 204.549 378.528 201.549 383.223 213.118C386.908 222.189 384.518 226.776 384.273 235.727C380.433 240.512 379.673 243.053 377.293 248.749C377.918 250.883 378.838 254.432 379.628 256.393C390.438 263.967 397.348 270.182 400.393 284.061C401.653 289.787 398.832 295.905 396.182 301.023C386.522 307.077 386.443 309.946 380.158 319.102C381.888 322.008 382.233 322.541 384.593 325.022C385.123 331.918 389.073 337.351 389.363 343.844C389.613 349.358 385.833 357.395 383.228 362.358C380.458 363.847 375.743 367.548 374.638 367.978C366.373 371.187 349.623 367.353 347.723 378.991C347.473 380.547 347.122 380.014 347.382 382.013C348.757 386.483 348.432 393.958 346.762 398.233C339.737 412.243 333.508 414.756 318.348 414.343L317.843 414.673C309.743 419.908 307.328 411.652 296.488 409.333C285.078 415.125 285.062 423.447 275.887 431.358C266.132 439.773 247.442 441.345 238.367 431.206C235.862 428.403 237.672 429.456 233.817 428.032C232.262 426.304 230.773 423.833 229.473 421.855C223.803 421.305 223.447 420.971 218.632 417.821C196.917 429.274 169.923 430.954 164.913 400.597C164.333 397.069 164.698 396.178 167.208 393.931C165.463 389.936 160.978 386.556 159.283 382.313C154.373 379.202 150.583 378.834 145.038 378.838C134.193 376.807 134.213 378.933 124.298 371.633C107.723 359.428 112.683 350.621 119.853 334.201C120.978 331.624 122.623 329.812 124.338 327.682L124.298 325.876C124.208 322.696 124.428 321.731 124.963 318.635C123.143 315.97 118.093 311.395 115.163 307.679C107.833 306.635 100.157 302.661 99.1875 294.672C98.0975 285.656 101.823 271.237 108.738 265.052C114.023 260.323 120.903 260.248 121.233 250.999C122.258 241.986 117.593 238.81 115.298 230.953C114.308 227.562 115.143 223.169 114.303 219.561C115.213 213.747 116.368 212.486 119.653 207.769C121.038 205.416 122.272 205.088 124.447 203.826C132.957 198.89 139.632 202.319 148.492 201.699C152.317 201.431 154.587 200.438 158.132 199.055C159.647 196.746 161.203 194.463 162.803 192.209C162.478 188.543 162.307 185.186 163.202 181.558C164.697 174.206 165.837 167.383 171.077 161.394C175.832 155.953 182.603 156.189 189.268 155.856C196.218 161.943 206.512 164.924 215.377 161.679C216.857 161.137 218.992 158.547 220.077 157.331Z" fill="#FDEA03"/>
<path d="M259.918 139.906C265.008 142.018 266.038 143.855 268.593 148.648C265.948 148 264.498 147.137 262.083 145.925C261.158 143.911 260.603 142.01 259.918 139.906Z" fill="#F6E74B"/>
<path d="M299.252 245.461C300.252 244.668 302.452 244.191 303.722 244.223C310.637 244.401 317.917 242.002 324.162 245.986C326.817 247.833 322.672 249.335 326.512 252.917C327.542 252.391 327.347 252.515 328.222 251.845L328.732 252.435C328.477 253.568 328.417 253.796 327.972 254.865L328.472 254.985L329.512 253.986C330.692 257.123 327.697 260.529 329.137 261.876L330.972 261.812L331.052 262.729C329.997 262.627 330.512 262.709 329.492 262.487L328.872 263.677C329.647 265.738 329.687 264.774 328.942 266.673L326.972 267.311L326.777 268.403C327.447 269.137 328.027 269.748 328.737 270.446C327.782 271.609 327.947 271.291 326.522 272.097C325.672 275.014 325.882 276.858 324.437 279.458L323.887 279.691L322.682 278.719C320.407 280.339 323.182 279.643 319.252 282.726C319.352 282.265 319.147 281.882 319.017 281.439C317.617 281.693 317.712 281.66 316.687 282.652C316.662 284.117 316.922 284.376 317.532 285.709C316.692 285.412 316.287 285.236 315.487 284.845L314.907 285.27L315.567 286.371L315.127 286.355C313.627 286.311 313.377 286.259 311.877 286.668C309.177 289.341 312.947 289.742 307.547 290.801C303.187 294.758 304.022 288.855 300.132 290.463C298.922 290.963 297.567 292.716 296.112 292.727L295.677 291.442C293.822 291.34 294.142 291.514 292.952 293.011C289.542 294.138 287.782 291.83 284.782 291.178L283.827 292.162C282.712 291.192 282.682 290.655 282.157 289.253C281.002 288.335 280.957 288.095 279.552 287.877L278.847 288.271C277.987 288.74 277.617 288.911 276.727 289.275C274.887 288.083 275.042 287.176 274.482 284.727C272.747 283.878 270.722 283.101 269.502 281.711L271.482 281.811L272.122 280.865C271.712 280.346 271.547 280.058 271.047 279.634L269.782 280.512C266.267 280.381 264.832 276.548 262.912 274.167C256.657 266.414 257.312 259.145 256.707 249.424C257.492 249.043 258.282 248.675 259.077 248.317C267.127 244.723 271.257 246.979 279.467 246.338C283.052 246.058 287.797 244.149 291.437 244.077C294.287 244.021 296.587 244.443 299.252 245.461Z" fill="#000101"/>
<path d="M256.707 249.424C257.492 249.043 258.282 248.675 259.077 248.317C267.127 244.723 271.257 246.979 279.467 246.338C283.052 246.058 287.797 244.149 291.437 244.077C294.287 244.021 296.587 244.443 299.252 245.461L299.952 246.237C298.702 247.941 296.967 246.045 296.007 248.139C297.417 248.195 297.592 248.12 298.997 247.849L299.547 248.425C298.182 250.419 293.752 250.484 291.832 252.647L292.477 253.093L293.962 251.849L294.342 252.321C292.907 254.761 286.917 258.526 284.297 260.129C283.662 261.417 283.817 261.785 283.867 263.229C282.867 264.098 280.957 264.146 279.167 265.345L278.432 266.583C279.832 268.928 279.982 265.667 280.327 268.402L279.832 268.82L278.627 268.62C278.272 269.614 278.217 269.728 277.997 270.769C277.327 270.261 277.282 270.094 276.457 269.923C275.527 271.624 274.047 274.134 273.612 275.97C273.002 278.557 272.007 278.224 271.047 279.634L269.782 280.512C266.267 280.381 264.832 276.548 262.912 274.167C256.657 266.414 257.312 259.145 256.707 249.424Z" fill="#FEFDFC"/>
<path d="M200.013 249.839C204.758 250.086 207.033 247.962 209.633 248.052L209.838 249.477C214.028 250.694 221.428 245.614 228.593 250.131C228.403 251.3 228.018 251.402 227.143 252.47C228.193 252.282 228.358 252.209 229.373 251.881L230.568 253.144L231.733 253.023L232.713 251.787L233.608 251.999C234.263 255.207 232.263 251.97 233.058 255.259C233.788 255.26 234.393 255.252 235.128 255.226L234.973 255.781C233.233 256.312 233.548 256.81 232.088 257.465C233.468 257.557 234.073 257.538 235.458 257.458L236.703 258.452C236.783 261.846 235.148 259.398 235.538 261.164C236.118 263.782 237.943 265.076 237.913 267.93C235.738 269.765 236.778 267.16 234.853 268.961C235.778 270.011 235.923 270.079 237.073 270.909L237.248 271.759C236.283 271.926 235.318 272.065 234.343 272.177L233.903 272.9L235.693 275.518C235.068 276.83 235.523 276.262 233.988 276.979C233.143 276.639 232.298 276.305 231.453 275.979L231.333 277.115C232.293 278.177 232.888 278.178 234.288 278.601L234.038 280.035C232.518 280.555 233.133 280.417 231.398 280.204C229.558 281.729 230.013 284.215 230.153 286.36C227.693 288.143 228.013 286.059 225.948 288.659C226.158 289.919 226.113 289.865 226.738 290.97L226.643 291.294L225.323 290.337C224.668 290.481 218.743 294.018 217.113 294.828L216.623 296.574L216.093 296.625L215.713 294.489C212.808 294.363 209.668 297.954 205.198 297.465C201.223 293.053 199.908 296.853 195.053 297.583C194.063 296.629 193.508 296.484 193.438 295.465L195.843 295.939C195.973 294.82 195.903 295.319 194.883 293.937C193.263 294.083 193.138 294.222 191.678 294.834C187.393 293.736 187.588 290.501 183.288 293.388C182.003 292.802 180.978 291.173 180.048 289.991L180.428 289.791L183.033 290.818L183.158 290.225C180.798 287.068 179.363 289.319 176.613 285.97C177.453 285.552 178.188 285.853 179.318 285.983C179.018 284.589 178.718 284.716 177.463 283.522L176.598 283.367C176.333 283.729 176.068 284.091 175.803 284.453L175.778 283.12L175.983 283.071L176.153 281.726C174.598 282.741 175.398 282.583 173.718 282.428C167.038 278.174 164.328 261.036 165.663 253.997C166.688 252.692 167.788 251.446 168.868 250.185C176.503 250.425 184.643 249.375 192.318 249.18C195.193 249.107 197.748 247.833 200.013 249.839Z" fill="#000101"/>
<path d="M168.868 250.184C176.503 250.423 184.643 249.374 192.318 249.179C195.193 249.106 197.748 247.831 200.013 249.838C199.358 251.426 199.383 251.753 198.063 252.857L198.043 253.88L199.158 254.943C197.673 256.236 196.328 255.041 194.883 256.404L194.943 257.273L196.128 258.132C195.413 259.244 195.233 259.3 194.213 260.176C194.378 260.881 194.533 261.587 194.683 262.295C193.433 262.275 194.063 262.393 192.843 261.431C191.628 263.389 192.788 265.137 191.373 267.681L190.848 267.626L190.033 266.149C184.028 270.432 184.198 276.924 178.923 278.226C178.633 279.095 178.358 279.969 178.093 280.846C177.408 281.181 176.868 281.49 176.153 281.724C174.598 282.739 175.398 282.582 173.718 282.426C167.038 278.172 164.328 261.035 165.663 253.996C166.688 252.691 167.788 251.444 168.868 250.184Z" fill="#FEFDFC"/>
<path d="M284.22 317.902L284.43 317.977L284.54 319.22C287.67 319.275 284.18 318.724 287.02 317.477C287.21 317.861 287.615 318.913 288.035 318.925C292.055 319.036 299.795 318.947 303.485 320.338C304.225 321.95 303.945 323.97 303.875 325.811L304.595 325.897C305.145 324.644 305.35 323.963 306.275 322.926L306.78 323.335C306.605 326.293 304.51 325.916 305.755 329.856C307.045 329.323 306.85 329.053 307.75 327.574L308.08 328.06C308.1 329.968 308.23 330.723 307.55 332.531C305.75 333.477 305.75 333.374 304.62 335.004C305.23 335.425 304.955 335.269 305.67 335.608L306.195 335.85C306.185 337.283 306.36 337.427 305.53 338.522L304.03 338.672L303.745 339.396C304.71 339.861 304.53 339.697 305.33 340.377L304.89 341.194C303.64 341.98 302.78 341.73 301.25 341.644L300.6 341.604C301.005 342.217 301.415 342.826 301.83 343.429C300.38 345.358 297.775 343.888 296.815 342.358L295.1 342.737L293.715 341.55L293.085 341.917L293.275 342.595L295.7 343.712L295.475 344.235C292.41 344.908 293.485 344.07 291.67 343.616C288.635 342.856 286.28 344.867 281.8 344.078C277.92 340.068 275.79 344.751 272.585 344.547C268.67 344.298 264.59 343.24 260.425 343.009C255.66 342.744 252.29 344.965 247.97 344.866L247.7 344.355L248.965 342.433L248.74 341.859L247.8 341.958C246.065 345.16 245.85 344.395 242.24 344.282C239.155 347.455 240.315 344.464 236.78 344.327C236.295 344.308 235.805 345.868 233.525 346.256L234.665 344.616C231.45 343.881 230.42 345.243 227.845 346.801L225.41 345.691C223.39 345.787 223.92 346.411 221.89 345.919C222.11 344.912 222.09 345.409 221.96 344.43C220.7 343.823 221.2 343.897 219.835 344.005C220 345.449 220.155 344.98 219.67 346.178C218.14 345.065 218.32 343.545 216.12 342.557L215.29 342.896C215.695 344.408 216.99 345.487 218.1 346.684L218.04 347.053C216.045 346.89 213.635 345.536 212.165 344.181C212.74 342.64 212.905 342.954 212.69 341.59C210.08 341.66 212.895 342.498 210.45 343.115C207.54 339.299 208.71 335.647 209.495 331.524C208.58 331.947 208.625 331.92 207.58 332.251L206.41 331.59L206.54 330.842L209.38 330.23L209.85 329.394L209.43 328.731C208.505 328.969 208.9 329.046 208.21 328.69C210.155 325.824 209.845 327.007 210.045 323.976C211.715 322.934 211.36 324.519 213.55 323.721C213.275 322.883 213.08 322.19 212.855 321.337L213.565 321.089C214.34 322.22 214.33 322.48 215.52 323.058C218.255 322.343 217.635 321.075 218.28 320.937C220.35 320.494 222.495 323.067 224.63 322.113C223.695 320.914 223.7 321.396 223.665 320.281L224.975 320.084C225.825 320.807 225.65 320.762 226.025 321.821C228.995 322.215 230.255 319.941 232.725 320.654L231.275 321.773L231.34 322.462C233.095 323.304 232.225 323.189 234 323.044L234.35 320.961C235.775 320.095 234.98 320.397 236.955 320.459C238.28 321.27 238.5 321.488 240.01 321.948C240.485 320.882 240.225 321.374 240.775 320.463C243.165 320.567 246.465 320.741 248.8 321.033C249.275 321.093 251.855 318.472 253.875 318.644L254.36 320.13L254.975 320.355L257.01 319.115C257.52 319.658 257.96 320.098 258.495 320.611L259.415 320.205L259.975 318.282L260.485 318.403L260.81 320.026C262.64 321.537 265.25 319.209 266.86 318.883C267.615 318.73 268.3 320.898 270.99 321.077L271.295 320.573L270.04 318.81C272.22 317.901 281.005 319.933 284.22 317.902Z" fill="#000101"/>
<path d="M221.302 81.2894C222.864 80.5591 223.001 80.3583 223.68 79.0196C225.141 76.1413 229.411 74.7193 232.517 73.1766C233.006 72.9339 233.66 73.3307 234.46 72.872C234.431 72.568 234.413 72.297 234.4 71.9919L234.821 71.8764C235.226 72.0175 235.518 72.113 235.938 72.2273C238.709 70.3899 248.238 71.3847 250.997 73.4822C254.678 73.4816 254.049 73.2484 255.393 75.1928C256.106 76.2222 259.416 77.1672 259.531 78.8049C259.65 80.4955 262.406 82.3768 262.973 84.1171C263.716 85.6984 263.37 86.3797 263.887 87.7139C264.733 88.4219 266.598 88.4644 267.688 87.9447C268.291 87.5547 268.508 86.4826 269.041 86.0835C274.143 82.2699 278.961 78.1049 285.924 76.6868C286.604 76.5486 287.673 76.0766 288.378 76.1283L288.43 76.748L288.892 77.0018C289.911 76.9412 290.905 76.2869 291.904 76.7831C293.321 77.4849 295.73 76.6243 297.232 76.9391C299.77 77.4451 301.893 79.0257 304.156 79.9186C307.405 81.1999 308.199 82.3268 310.181 84.5527L310.248 85.1577C310.475 87.4692 312.386 88.6287 313.208 90.7766C313.385 91.2402 313.244 92.881 313.349 93.643C315.812 95.9419 311.22 101.567 313.937 104.936C318.171 105.23 322.517 103.659 326.563 102.848C328.178 102.524 330.328 103.107 332.014 103.022C332.534 102.769 332.902 102.507 333.467 102.552C334.789 103.333 335.571 103.195 337.059 103.58C340.547 104.484 342.917 106.143 345.788 107.799C346.826 110.323 348.637 109.697 349.088 111.539C349.354 112.626 349.42 112.354 349.945 113.239C351.989 116.683 353.012 123.553 350.723 127.091C348.957 129.816 348.201 129.913 346.636 133.296C345.968 133.617 343.853 134.817 344.023 135.294C344.447 136.494 344.529 135.924 343.985 137.365C345.825 138.74 347.538 136.514 349.072 137.453C349.99 138.078 351.551 138.229 352.818 138.437C367.972 140.92 371.873 159.306 365.554 169.577C365.078 169.806 364.516 170.045 364.022 170.264C363.611 170.8 363.749 170.652 363.842 171.425C365.576 173.767 369.256 175.184 370.803 177.379C371.787 177.709 372.453 177.902 373.474 178.152C374.459 179.425 375.156 180.303 376.599 181.299C380.056 183.687 381.806 187 384.928 189.675C385.053 191.37 385.866 192.719 386.066 194.404C386.496 198.048 385.561 202.413 383.774 205.895C382.791 207.814 378.397 212.126 375.863 212.964C374.114 213.542 373.342 213.404 371.85 214.751C371.672 214.881 367.516 215.577 366.713 215.75C365.916 215.337 366.4 214.614 365.441 214.951C362.333 216.046 360.621 214.763 357.72 214.318C356.477 214.128 355.573 214.401 353.919 214.053C351.962 212.316 349.192 211.625 346.771 210.399C345.304 209.656 345.28 209.337 343.406 209.245C341.114 209.132 338.871 208.697 336.559 208.584C333.651 210.128 333.968 210.663 332.426 212.94C331.168 214.797 329.605 216.789 328.259 218.627C327.052 220.187 323.858 222.272 323.108 223.607C319.751 224.79 318.56 224.254 316.128 226.135C315.514 226.175 313.771 226.246 313.204 226.372C305.934 227.977 301.327 226.385 294.488 224.471C292.718 222.6 293.069 222.745 290.168 222.404C289.065 222.036 287.672 220.916 286.884 220.293C285.019 218.823 283.084 217.652 281.196 216.221C281.294 216.295 278.508 215.795 278.093 215.662C277.584 215.997 275.602 217.215 275.329 217.52C272.789 220.347 271.286 224.382 268.571 227.05C267.781 227.826 264.072 229.474 263.551 230.586C263.251 231.223 256.428 232.298 255.436 232.166C253.596 232.251 252.607 233.081 250.506 232.827C246.161 232.316 241.7 231.551 237.737 230.05C236.996 229.77 235.189 229.652 234.593 229.143C230.866 225.959 227.529 222.409 223.684 219.284C223.636 219.236 223.587 219.187 223.539 219.139C220.198 218.848 221.357 219.756 218.541 220.533C217.146 221.869 216.922 223.283 215.973 224.396C214.109 226.581 209.301 231.177 206.265 232.024L205.151 233.221C202.346 233.703 199.845 234.497 197.153 234.98C195.336 235.307 188.671 235.694 186.997 234.856C186.646 234.68 186.413 234.397 186.183 234.131C185.329 233.923 181.745 233.177 181.33 232.832C179.537 231.336 177.631 230.243 175.634 228.938C175.412 228.493 175.262 228.176 175.08 227.712L174.69 227.659C171.921 227.261 172.205 225.853 170.734 224.764C168.389 223.029 165.524 221.708 164.341 219.12C163.026 218.843 162.265 218.692 161.015 218.265C158.98 218.704 158.394 219.238 156.58 219.743C155.305 221.509 154.13 222.743 152.285 224.173C150.649 225.441 149.794 225.828 148.472 227.311C148.392 227.327 148.311 227.34 148.23 227.356C146.958 227.327 145.515 229.075 144.749 228.668C144.619 228.598 144.081 228.491 143.929 228.459C143.096 228.969 142.487 229.438 141.474 229.562C139.756 229.772 136.642 230.754 135.117 230.966C130.087 231.665 121.678 228.967 117.634 227.041C114.011 225.317 109.07 220.619 108.414 217.173C108.148 215.774 107.609 211.837 108.329 210.407C108.573 209.922 109.537 208.839 109.941 208.281C110.31 208.093 109.652 207.332 109.665 207.311C110.877 205.344 112.402 203.412 113.906 201.578C114.58 200.754 115.696 199.839 116.56 199.119C118.123 197.82 119.557 196.311 121.236 195.122C122.691 194.093 124.453 193.209 125.892 192.15C127.057 191.223 128.5 189.744 129.658 189.103C129.001 188.844 128.967 188.859 128.432 188.425C127.94 186.16 126.767 187.236 125.339 185.779C124.294 184.712 123.222 183.19 122.436 181.972C121.784 180.961 120.398 179.511 120.711 178.365C120.819 177.942 120.849 177.821 120.75 177.374C120.658 177.307 119.824 176.679 119.815 176.63C119.157 172.667 120.202 168.604 121.218 164.723C121.416 163.97 122.81 162.652 123.096 161.75C122.82 161.397 122.777 161.385 122.652 160.985C125.628 156.566 128.768 152.513 135.21 151.082C136.128 150.879 137.095 150.595 138.002 150.343C138.436 149.867 138.964 149.353 139.423 148.883C139.033 146.604 137.652 144.448 136.818 142.177C136.649 142.119 135.741 141.8 135.671 141.745C134.937 141.041 133.145 138.862 133.027 137.95C132.613 134.772 133.449 131.541 132.946 128.287C132.872 127.807 134.009 127.332 134.025 127.243C134.411 125.014 135.636 123.332 137.149 121.469C139.305 120.671 140.485 118.937 142.203 117.666C147.539 113.719 158.924 110.643 165.614 113.037C165.718 113.149 165.823 113.259 165.931 113.368C166.592 114.032 166.887 113.94 168.124 114.003C169.518 114.074 170 114.314 171.256 114.754C173.384 113.645 171.977 112.692 171.59 110.857C170.286 104.664 169.702 97.8579 174.495 92.3134C174.65 92.1339 176.029 92.1859 176.016 91.0405C176.348 89.1557 179.957 87.4921 181.42 86.0307C183.896 83.0976 199.095 81.7305 201.411 83.7698C207.421 84.825 209.591 87.9487 213.831 90.5231L214.063 90.6621C214.54 90.6813 216.086 90.7611 216.439 90.4965C218.185 89.1869 218.604 86.7295 219.448 84.9951C219.867 84.1334 220.313 83.5461 220.59 82.7483C220.814 82.103 220.971 81.868 221.302 81.2894Z" fill="#3535D8"/>
<path d="M363.842 171.426C365.576 173.768 369.256 175.184 370.803 177.379C371.787 177.709 372.453 177.902 373.474 178.152C374.459 179.425 375.156 180.304 376.599 181.299C380.056 183.688 381.806 187 384.928 189.676C385.053 191.371 385.866 192.72 386.067 194.404C386.496 198.048 385.561 202.414 383.774 205.895C382.791 207.814 378.397 212.127 375.864 212.964C374.114 213.543 373.342 213.404 371.85 214.751C371.673 214.882 367.516 215.577 366.713 215.75C365.916 215.337 366.401 214.614 365.441 214.952C362.333 216.047 360.622 214.763 357.72 214.319C356.477 214.128 355.573 214.401 353.919 214.053C351.962 212.316 349.192 211.626 346.771 210.399C345.304 209.656 345.28 209.337 343.406 209.246C341.114 209.133 338.871 208.698 336.559 208.585C333.651 210.128 333.968 210.664 332.426 212.94C331.168 214.797 329.605 216.789 328.259 218.628C327.052 220.187 323.859 222.273 323.108 223.607C319.751 224.79 318.56 224.254 316.128 226.135C315.514 226.175 313.772 226.247 313.204 226.372C305.934 227.977 301.327 226.386 294.488 224.471C292.718 222.6 293.069 222.746 290.168 222.404C289.065 222.037 287.672 220.916 286.884 220.294C285.019 218.824 283.084 217.653 281.196 216.222C281.294 216.296 278.508 215.795 278.093 215.662C277.584 215.998 275.602 217.215 275.329 217.52C272.789 220.347 271.286 224.383 268.571 227.051C267.781 227.826 264.072 229.474 263.551 230.587C263.251 231.223 256.428 232.298 255.436 232.167C253.596 232.252 252.607 233.082 250.506 232.828C246.161 232.316 241.7 231.551 237.737 230.05C236.996 229.77 235.189 229.652 234.593 229.144C230.866 225.96 227.529 222.409 223.684 219.285C223.636 219.237 223.587 219.187 223.539 219.14C220.198 218.848 221.357 219.756 218.541 220.534C217.146 221.869 216.922 223.283 215.973 224.397C214.109 226.581 209.301 231.178 206.265 232.024L205.151 233.221C202.346 233.704 199.845 234.498 197.153 234.981C195.336 235.308 188.671 235.695 186.997 234.856C186.646 234.681 186.413 234.397 186.183 234.132C185.329 233.923 181.745 233.178 181.33 232.833C179.537 231.336 177.632 230.244 175.634 228.939C175.413 228.493 175.262 228.176 175.08 227.712L174.69 227.66C171.921 227.262 172.205 225.853 170.734 224.764C168.389 223.029 165.524 221.709 164.341 219.121C163.026 218.843 162.265 218.692 161.015 218.266C158.98 218.704 158.394 219.239 156.58 219.743C155.305 221.509 154.13 222.743 152.285 224.173C150.649 225.441 149.795 225.828 148.472 227.312C148.392 227.327 148.311 227.341 148.23 227.356C146.958 227.327 145.515 229.075 144.749 228.669C144.619 228.598 144.081 228.492 143.929 228.459C143.096 228.969 142.487 229.438 141.474 229.563C139.756 229.773 136.642 230.755 135.117 230.966C130.088 231.665 121.678 228.968 117.634 227.042C114.011 225.317 109.07 220.619 108.414 217.173C108.148 215.774 107.609 211.837 108.329 210.407C108.573 209.922 109.537 208.839 109.941 208.281C110.31 208.093 109.652 207.332 109.665 207.312C110.877 205.344 112.402 203.413 113.906 201.578C114.58 200.755 115.696 199.839 116.56 199.12C118.123 197.82 119.557 196.311 121.236 195.122C122.691 194.093 124.453 193.209 125.892 192.15C127.057 191.223 128.5 189.744 129.658 189.104C130.073 189.388 136.55 192.004 137.258 192.152C140.663 192.859 145.5 193.225 149.108 193.388C150.276 193.443 151.728 194.283 152.917 194.429C153.888 194.549 155.49 193.963 156.365 194.219C157.678 195.953 157.522 194.054 159.61 194.992L159.818 195.088L160.32 194.683C161.316 194.564 160.472 195.43 161.762 195.401C162.324 195.387 163.952 195.18 164.422 195.186C164.437 195.185 166.027 195.908 166.436 195.966C168.249 196.223 170.504 196.04 172.226 196.479C172.516 196.766 172.623 196.874 172.96 197.119C173.277 196.81 173.141 196.899 173.6 196.705C174.639 197.641 177.769 197.41 179.455 197.567C181.831 197.789 184.251 198.199 186.616 198.312C188.861 198.42 191.52 197.889 193.759 198.223C195.011 198.427 196.241 198.864 197.627 198.551L197.783 197.928L198.062 197.863L198.254 198.409C198.889 198.793 204.776 198.912 205.906 198.926C206.439 198.657 206.292 198.69 206.868 198.547C207.155 198.799 207.414 199.01 207.718 199.251C209.056 199.313 209.889 198.954 211.17 198.966L212.25 199.529C213.601 199.563 215.495 199.611 216.786 199.586C217.221 199.211 217.021 199.282 217.555 199.124L218.359 199.746C219.607 199.876 218.287 199.584 219.474 199.193L219.849 199.623C220.073 199.699 224.663 199.985 225.395 200.058C225.681 199.789 225.975 199.534 226.271 199.274C226.862 199.167 226.604 199.118 227.085 199.329L227.047 199.907C227.508 200.111 232.581 199.253 233.741 199.175C234.123 199.453 234.207 199.528 234.646 199.738C237.009 198.761 238.239 199.422 240.863 199.365C243.729 199.302 246.767 198.65 249.546 198.864C250.276 198.92 250.681 199.271 251.479 198.849C251.294 198.511 251.308 198.628 251.278 198.275C253.585 197.963 258.293 198.601 260.735 198.436C261.441 198.39 261.206 197.559 263.123 197.82C264.907 198.063 267.87 197.451 269.707 197.113C270.624 196.093 270.225 196.924 271.585 196.925L272.28 196.339C272.772 196.345 272.919 196.582 273.423 196.877C274.512 197.513 273.735 196.66 274.892 196.43C275.12 196.553 276.073 197.06 276.223 197.036C277.976 196.734 280.493 196.201 282.223 195.934C282.599 195.527 282.436 195.637 282.936 195.353C286.939 195.666 288.904 194.032 292.625 194.222C293.028 194.242 292.701 194.409 293.482 194.309C293.545 194.191 293.809 193.693 293.841 193.684C294.937 193.362 296.916 193.394 298.02 193.161C299.403 192.869 301.2 192.155 302.435 191.95C304.974 191.528 307.414 191.125 309.952 190.746C310.518 190.66 312.347 189.814 312.986 189.648C314.489 189.257 315.881 189.161 317.495 188.853C318.999 188.567 320.849 187.957 322.355 187.792C322.745 187.922 323.068 188.03 323.327 188.116C323.578 187.895 323.614 187.852 323.834 187.588L324.028 187.355C325.417 186.827 327.491 186.346 328.996 185.953C329.191 185.902 329.41 186.31 330.403 186.197C330.602 185.864 330.619 185.816 330.901 185.527C334.138 184.847 335.565 184.874 338.759 184.647L338.835 184.104C339.266 183.678 338.995 183.832 339.724 183.695C340.229 183.848 340.332 183.958 340.723 184.244L340.855 184.344C344.198 180.657 357.599 178.526 363.842 171.426Z" fill="#5959FF"/>
<path d="M265.778 156.282C264.747 155.03 263.666 154.437 262.354 153.387C262.492 152.999 262.453 153.127 262.821 152.783C262.451 151.818 262.358 152.505 262.12 152.02C261.618 150.997 262.743 150.714 261.448 150.091C261.079 149.064 259.787 144.551 260.492 143.57C260.851 143.068 261.095 143.096 260.996 142.535L260.33 142.214C259.868 140.32 262.63 138.836 262.815 138.051L262.177 137.84C262.086 137.196 263.547 135.543 264.059 134.988C265.637 133.275 269.854 131.067 272.485 130.852C275.958 130.569 279.513 131.313 282.095 133.166C284.22 134.691 285.745 136.012 286.511 138.272C286.619 138.591 287.154 138.924 287.479 139.15C287.295 139.614 287.305 139.555 287.005 139.992C287.611 141.561 288.592 143.479 288.428 145.082L288.272 145.296L287.896 145.376C287.879 146.364 288.995 147.825 288.437 148.488C287.198 149.961 287.3 152.139 286.465 153.797C286.419 153.884 285.414 154.116 285.216 154.159C285.063 154.653 285.101 154.759 285.124 155.255C282.368 157.648 278.098 160.009 273.803 159.668C272.577 159.572 268.739 158.344 267.97 157.561C267.238 157.161 266.493 156.705 265.778 156.282Z" fill="#1D1D1D"/>
<path d="M265.779 156.283C266.665 156.006 266.678 155.867 267.435 155.988C267.851 156.437 267.863 156.985 267.972 157.561C267.239 157.162 266.495 156.706 265.779 156.283Z" fill="#281E1D"/>
<path d="M210.632 135.348C216.15 134.775 221.357 137.378 223.722 141.261L223.418 141.617L223.485 141.9L224.502 142.252C225.088 143.05 224.017 142.737 224.503 143.397C224.898 143.933 225.535 143.938 225.768 144.8C225.048 146.158 225.691 145.277 226.339 146.152C226.361 147.096 225.605 147.511 225.769 148.204C226.229 148.412 226.342 148.418 226.657 148.746C226.654 151.201 225.911 150.012 225.568 150.77C227.366 152.111 225.444 152.718 224.9 154.221C224.813 154.462 225.041 155.126 224.919 155.363C223.48 158.153 221.013 160.429 217.709 161.904C216.687 162.368 216.186 162.632 215.218 162.428C214.945 162.402 214.903 162.492 214.549 162.649C213.265 162.604 211.987 163.174 210.782 162.876C203.2 161 203.44 160.389 199.638 154.882C198.827 153.709 199.292 153.232 199.234 151.793C198.554 151.395 198.404 151.41 198.537 150.78L199.192 150.436L199.242 150.144C197.951 149.052 199.648 148.328 199.921 146.722C199.604 146.322 199.577 146.304 199.389 145.858C199.638 145.179 200.335 143.218 200.706 142.467C200.721 142.436 201.063 142.46 201.47 142.092L201.395 140.948C201.892 140.332 202.401 139.516 203.326 139.309C204.267 139.099 204.106 138.817 204.138 138.201C204.779 137.354 209.249 135.736 210.632 135.348Z" fill="#1D1D1D"/>
</svg>
