<svg width="500" height="500" viewBox="0 0 500 500" fill="none" xmlns="http://www.w3.org/2000/svg">
<path d="M216.237 112.607C224.25 98.8237 236.061 91.3559 252.145 91.0175C255.602 90.9444 258.39 91.0204 261.394 92.8566C267.163 95.2499 268.33 97.3326 271.226 102.765C280.237 111.067 273.386 115.108 282.465 121.774C283.524 122.552 288.517 124.538 290.161 125.325C293.828 124.769 295.885 124.473 299.619 124.36C317.936 106.597 342.793 110.168 352.926 131.444C357.324 140.681 352.405 149.769 360.345 157.946C362.799 160.175 367.837 161.983 370.999 163.671C374.643 162.989 378.582 162.17 382.215 161.593C391.985 166.127 395.833 162.727 401.155 175.84C405.332 186.122 402.623 191.32 402.345 201.466C397.993 206.89 397.131 209.77 394.433 216.226C395.142 218.645 396.185 222.667 397.08 224.89C409.333 233.475 417.165 240.52 420.616 256.251C422.045 262.741 418.848 269.676 415.844 275.476C404.895 282.339 404.805 285.59 397.681 295.969C399.642 299.262 400.033 299.866 402.708 302.678C403.308 310.495 407.786 316.653 408.114 324.012C408.398 330.262 404.113 339.372 401.161 344.998C398.021 346.685 392.677 350.88 391.424 351.368C382.056 355.004 363.071 350.659 360.917 363.85C360.634 365.614 360.237 365.009 360.532 367.275C362.09 372.342 361.722 380.814 359.829 385.66C351.866 401.54 344.805 404.388 327.622 403.921L327.049 404.295C317.868 410.228 315.131 400.87 302.844 398.242C289.911 404.806 289.894 414.239 279.495 423.206C268.438 432.744 247.254 434.526 236.967 423.034C234.128 419.857 236.18 421.05 231.81 419.436C230.048 417.478 228.359 414.677 226.885 412.435C220.459 411.811 220.056 411.433 214.599 407.863C189.986 420.844 159.388 422.748 153.709 388.339C153.052 384.341 153.465 383.331 156.31 380.784C154.333 376.256 149.249 372.425 147.328 367.615C141.763 364.09 137.467 363.672 131.182 363.677C118.889 361.375 118.912 363.785 107.674 355.51C88.8866 341.676 94.5086 331.694 102.636 313.082C103.911 310.162 105.775 308.108 107.719 305.693L107.674 303.647C107.572 300.042 107.821 298.948 108.427 295.439C106.365 292.419 100.641 287.232 97.3196 283.021C89.0113 281.838 80.312 277.333 79.2125 268.278C77.977 258.058 82.1992 241.715 90.0371 234.705C96.0274 229.345 103.826 229.259 104.2 218.776C105.361 208.561 100.074 204.96 97.4726 196.055C96.3505 192.211 97.2969 187.232 96.3448 183.142C97.3763 176.552 98.6854 175.124 102.409 169.777C103.979 167.11 105.378 166.738 107.844 165.307C117.489 159.713 125.055 163.6 135.098 162.896C139.433 162.593 142.006 161.468 146.024 159.9C147.742 157.282 149.504 154.695 151.318 152.14C150.949 147.985 150.757 144.18 151.771 140.068C153.465 131.734 154.758 124.001 160.697 117.212C166.087 111.045 173.76 111.313 181.315 110.936C189.192 117.835 200.861 121.214 210.909 117.536C212.587 116.922 215.007 113.986 216.237 112.607Z" fill="#FDEA03"/>
<path d="M261.395 92.8574C267.164 95.2507 268.331 97.3335 271.227 102.766C268.229 102.031 266.586 101.053 263.848 99.6797C262.8 97.3969 262.171 95.2417 261.395 92.8574Z" fill="#F6E74B"/>
<path d="M305.977 212.499C307.11 211.601 309.604 211.059 311.044 211.096C318.881 211.298 327.133 208.578 334.211 213.095C337.221 215.188 332.523 216.89 336.875 220.951C338.043 220.354 337.822 220.494 338.813 219.735L339.391 220.404C339.102 221.688 339.034 221.947 338.53 223.159L339.097 223.295L340.275 222.162C341.613 225.718 338.218 229.578 339.85 231.105L341.93 231.032L342.021 232.072C340.825 231.956 341.409 232.049 340.253 231.798L339.55 233.146C340.428 235.483 340.474 234.389 339.629 236.542L337.396 237.266L337.175 238.503C337.935 239.335 338.592 240.028 339.397 240.818C338.315 242.137 338.502 241.777 336.886 242.69C335.923 245.997 336.161 248.087 334.523 251.034L333.9 251.297L332.534 250.196C329.955 252.032 333.101 251.243 328.646 254.738C328.759 254.215 328.527 253.781 328.38 253.279C326.793 253.567 326.901 253.53 325.739 254.653C325.71 256.315 326.005 256.607 326.697 258.119C325.745 257.782 325.285 257.582 324.379 257.139L323.721 257.621L324.469 258.869L323.971 258.851C322.27 258.801 321.987 258.742 320.287 259.206C317.227 262.236 321.5 262.69 315.379 263.89C310.437 268.376 311.384 261.685 306.974 263.507C305.603 264.074 304.067 266.061 302.418 266.074L301.925 264.617C299.822 264.501 300.185 264.699 298.836 266.395C294.971 267.672 292.976 265.057 289.576 264.317L288.493 265.433C287.23 264.334 287.196 263.725 286.6 262.135C285.291 261.095 285.24 260.823 283.648 260.576L282.849 261.023C281.874 261.554 281.455 261.748 280.446 262.161C278.36 260.809 278.536 259.782 277.901 257.006C275.935 256.043 273.639 255.163 272.257 253.587L274.501 253.701L275.226 252.628C274.761 252.04 274.574 251.713 274.008 251.233L272.574 252.228C268.59 252.08 266.963 247.735 264.787 245.036C257.697 236.249 258.44 228.009 257.754 216.991C258.644 216.56 259.539 216.142 260.44 215.737C269.565 211.662 274.246 214.22 283.551 213.493C287.615 213.176 292.993 211.012 297.119 210.931C300.349 210.867 302.956 211.346 305.977 212.499Z" fill="#000101"/>
<path d="M257.754 216.991C258.644 216.56 259.539 216.142 260.44 215.737C269.565 211.663 274.246 214.22 283.551 213.494C287.615 213.176 292.993 211.013 297.119 210.931C300.349 210.867 302.956 211.346 305.977 212.5L306.77 213.38C305.354 215.311 303.387 213.162 302.299 215.536C303.897 215.598 304.095 215.514 305.688 215.207L306.311 215.86C304.764 218.119 299.743 218.193 297.567 220.645L298.298 221.15L299.981 219.74L300.412 220.276C298.785 223.041 291.996 227.308 289.026 229.125C288.306 230.585 288.482 231.003 288.539 232.639C287.405 233.624 285.24 233.678 283.211 235.038L282.378 236.44C283.965 239.098 284.135 235.402 284.526 238.502L283.965 238.976L282.599 238.75C282.197 239.876 282.135 240.006 281.885 241.185C281.126 240.609 281.075 240.42 280.14 240.226C279.086 242.155 277.408 245 276.915 247.081C276.224 250.013 275.096 249.636 274.008 251.234L272.574 252.229C268.59 252.081 266.963 247.735 264.787 245.037C257.697 236.249 258.44 228.01 257.754 216.991Z" fill="#FEFDFC"/>
<path d="M193.493 217.463C198.871 217.742 201.45 215.335 204.397 215.437L204.629 217.053C209.378 218.432 217.766 212.673 225.887 217.794C225.672 219.119 225.235 219.234 224.244 220.445C225.434 220.232 225.621 220.149 226.771 219.777L228.126 221.209L229.446 221.072L230.557 219.671L231.571 219.911C232.314 223.547 230.047 219.878 230.948 223.606C231.775 223.607 232.461 223.598 233.294 223.568L233.119 224.197C231.146 224.799 231.503 225.364 229.849 226.106C231.413 226.21 232.099 226.189 233.668 226.098L235.08 227.225C235.17 231.072 233.317 228.297 233.759 230.299C234.416 233.267 236.485 234.733 236.451 237.968C233.986 240.048 235.165 237.095 232.983 239.136C234.031 240.326 234.195 240.404 235.499 241.345L235.697 242.308C234.603 242.498 233.51 242.655 232.405 242.781L231.906 243.602L233.935 246.569C233.226 248.055 233.742 247.412 232.002 248.224C231.044 247.839 230.087 247.461 229.129 247.091L228.993 248.379C230.081 249.582 230.755 249.584 232.342 250.063L232.059 251.689C230.336 252.278 231.033 252.121 229.067 251.88C226.981 253.609 227.497 256.426 227.655 258.857C224.867 260.878 225.23 258.516 222.889 261.464C223.127 262.891 223.076 262.831 223.785 264.083L223.677 264.45L222.181 263.365C221.438 263.529 214.723 267.537 212.875 268.455L212.32 270.435L211.719 270.493L211.288 268.072C207.995 267.928 204.436 271.999 199.37 271.444C194.864 266.444 193.374 270.751 187.871 271.578C186.749 270.497 186.12 270.332 186.04 269.177L188.766 269.715C188.914 268.446 188.834 269.012 187.678 267.446C185.842 267.611 185.7 267.769 184.046 268.463C179.189 267.218 179.41 263.551 174.536 266.824C173.079 266.16 171.917 264.313 170.863 262.973L171.294 262.747L174.247 263.911L174.388 263.238C171.713 259.66 170.087 262.211 166.97 258.416C167.922 257.941 168.755 258.283 170.036 258.43C169.696 256.851 169.356 256.994 167.933 255.641L166.953 255.465C166.653 255.876 166.352 256.286 166.052 256.696L166.023 255.185L166.256 255.129L166.449 253.605C164.686 254.755 165.593 254.577 163.689 254.401C156.117 249.579 153.045 230.154 154.559 222.176C155.72 220.697 156.967 219.284 158.191 217.855C166.845 218.126 176.072 216.937 184.771 216.716C188.03 216.633 190.926 215.189 193.493 217.463Z" fill="#000101"/>
<path d="M158.191 217.853C166.845 218.124 176.072 216.935 184.771 216.714C188.03 216.631 190.926 215.186 193.493 217.461C192.75 219.261 192.779 219.632 191.283 220.883L191.26 222.042L192.524 223.247C190.841 224.712 189.316 223.358 187.678 224.903L187.746 225.888L189.089 226.862C188.279 228.122 188.075 228.185 186.919 229.179C187.106 229.977 187.281 230.778 187.451 231.58C186.035 231.557 186.749 231.691 185.366 230.601C183.989 232.821 185.304 234.801 183.7 237.685L183.105 237.623L182.181 235.948C175.375 240.804 175.567 248.161 169.588 249.637C169.26 250.623 168.948 251.613 168.647 252.607C167.871 252.987 167.259 253.337 166.449 253.603C164.686 254.753 165.593 254.575 163.689 254.398C156.117 249.577 153.045 230.152 154.559 222.173C155.72 220.694 156.967 219.281 158.191 217.853Z" fill="#FEFDFC"/>
<path d="M288.941 294.609L289.179 294.694L289.303 296.103C292.851 296.165 288.895 295.54 292.114 294.127C292.33 294.563 292.789 295.755 293.265 295.768C297.821 295.895 306.594 295.793 310.777 297.37C311.616 299.197 311.298 301.487 311.219 303.574L312.035 303.671C312.658 302.25 312.891 301.479 313.939 300.304L314.511 300.767C314.313 304.12 311.938 303.692 313.35 308.158C314.812 307.554 314.591 307.248 315.611 305.572L315.985 306.123C316.008 308.286 316.155 309.141 315.384 311.191C313.344 312.263 313.344 312.146 312.063 313.994C312.755 314.47 312.443 314.293 313.253 314.678L313.848 314.953C313.837 316.577 314.035 316.74 313.095 317.981L311.394 318.151L311.071 318.971C312.165 319.498 311.961 319.313 312.868 320.083L312.369 321.01C310.952 321.9 309.978 321.617 308.243 321.52L307.507 321.474C307.966 322.169 308.43 322.859 308.901 323.543C307.257 325.73 304.305 324.063 303.217 322.329L301.273 322.758L299.703 321.413L298.989 321.829L299.204 322.597L301.953 323.863L301.698 324.457C298.224 325.219 299.442 324.27 297.385 323.754C293.945 322.893 291.276 325.173 286.198 324.279C281.8 319.733 279.386 325.042 275.753 324.81C271.315 324.527 266.691 323.329 261.97 323.066C256.569 322.767 252.749 325.284 247.853 325.171L247.547 324.593L248.98 322.414L248.725 321.764L247.66 321.876C245.693 325.505 245.45 324.638 241.358 324.509C237.861 328.106 239.176 324.716 235.169 324.56C234.62 324.539 234.064 326.307 231.48 326.747L232.772 324.889C229.128 324.055 227.96 325.599 225.042 327.365L222.282 326.107C219.992 326.216 220.593 326.922 218.292 326.365C218.541 325.224 218.519 325.787 218.371 324.678C216.943 323.99 217.51 324.074 215.963 324.196C216.15 325.833 216.326 325.301 215.776 326.659C214.042 325.397 214.246 323.674 211.752 322.555L210.811 322.939C211.27 324.652 212.738 325.875 213.996 327.232L213.928 327.65C211.667 327.466 208.935 325.931 207.269 324.395C207.921 322.649 208.108 323.005 207.864 321.458C204.906 321.537 208.097 322.488 205.325 323.187C202.027 318.861 203.353 314.723 204.243 310.049C203.206 310.529 203.257 310.498 202.072 310.873L200.746 310.123L200.893 309.276L204.112 308.582L204.645 307.634L204.169 306.883C203.121 307.153 203.568 307.241 202.786 306.836C204.991 303.588 204.64 304.929 204.866 301.493C206.759 300.313 206.357 302.109 208.839 301.205C208.527 300.255 208.306 299.47 208.051 298.503L208.856 298.222C209.734 299.504 209.723 299.798 211.072 300.453C214.172 299.643 213.469 298.206 214.2 298.049C216.547 297.547 218.978 300.464 221.398 299.382C220.338 298.023 220.344 298.57 220.304 297.305L221.789 297.082C222.752 297.902 222.554 297.85 222.979 299.051C226.345 299.498 227.773 296.92 230.573 297.729L228.93 298.996L229.003 299.778C230.992 300.732 230.006 300.601 232.018 300.437L232.415 298.077C234.03 297.095 233.129 297.437 235.368 297.508C236.869 298.427 237.119 298.673 238.83 299.195C239.369 297.986 239.074 298.544 239.697 297.511C242.406 297.63 246.147 297.827 248.793 298.158C249.332 298.226 252.256 295.255 254.546 295.45L255.096 297.134L255.793 297.389L258.099 295.984C258.677 296.599 259.176 297.098 259.782 297.679L260.825 297.22L261.46 295.04L262.038 295.177L262.406 297.016C264.481 298.729 267.439 296.09 269.264 295.721C270.12 295.547 270.896 298.005 273.945 298.208L274.291 297.636L272.868 295.638C275.339 294.608 285.297 296.911 288.941 294.609Z" fill="#000101"/>
<path d="M266.957 207.496C268.38 201.164 269.608 198.417 272.589 192.592C273.078 191.639 272.719 188.25 272.963 187.157C273.602 184.345 275.669 179.687 277.182 177.216C288.375 158.977 300.686 152.565 319.952 147.116C319.872 148.048 319.957 147.517 319.673 148.74C324.046 149.191 334.271 144.338 339.318 147.782L336.677 149.301L336.912 149.788C339.857 149.547 340.981 146.995 343.686 146.599C345.918 155.317 349.418 148.399 355.229 150.645C365.578 154.641 384.001 167.415 389.043 177.446C390.72 179.602 393.167 182.61 394.535 184.916C394.714 187.378 402.857 204.749 404.584 207.777C408.464 206.815 413.93 206.183 417.814 207.456C419.791 209.276 420.855 217.187 421.159 220.055C422.213 221.138 417.215 228.693 416.851 228.798C406.377 231.801 403.781 224.261 402.338 239.913C402.033 243.257 396.007 255.304 392.832 258.638L393.002 258.948L394.27 259.014C387.865 269.887 383.237 280.24 372.698 287.9C363.926 294.653 355.099 295.746 345.469 298.519C332.074 302.384 334.151 302.379 319.837 300.539L319.483 299.561C318.34 299.025 318.934 299.08 317.701 299.411L318.37 300.955L317.815 301.251C313.572 299.812 302.813 293.811 298.17 291.64C297.207 291.189 292.524 285.228 290.537 284.602L290.327 286.005L289.309 285.68C288.769 282.205 286.258 282.035 282.679 279.037L282.933 277.292L281.83 277.799C282.254 274.319 277.951 269.542 275.779 266.298C271.396 259.74 267.067 245.006 267.951 237.09C267.172 237 266.688 236.965 265.914 236.925C265.724 235.486 266.148 233.832 266.408 232.368C264.436 231.44 258.79 233.1 255.904 230.859C255.14 230.267 252.564 230.107 251.725 230.879C250.797 231.736 249.698 233.215 249.194 234.463C244.556 246.57 239.519 258.577 233.638 270.138C233.153 271.091 232.934 273.537 232.834 274.595C228.78 277.608 218.9 289.374 216.458 290.317L216.274 288.803C214.337 290.177 215.29 292.753 213.403 293.711C209.943 295.451 206.319 296.864 202.799 298.449C187.981 305.111 171.262 305.823 155.86 300.845C149.744 298.87 144.802 295.636 138.931 293.475C137.503 292.949 137.892 293.636 136.469 292.508L136.874 291.044L136.27 290.487C134.792 291.189 135.391 291.149 133.908 291.009C131.941 289.074 130.004 287.349 128.441 285.078L129.185 283.649C128.536 283.529 124.647 282.757 124.383 282.275C121.552 277.137 115.95 271.672 113.589 266.503C114.198 265.581 114.043 266.077 114.098 265.04C112.85 265.105 113.414 265.235 112.396 264.739C111.387 262.413 110.593 260.016 109.83 257.6C107.368 249.814 104.323 242.239 101.697 234.508C102.071 233.059 102.421 232.343 102.006 230.914C99.0508 227.625 97.6878 229.094 94.0733 228.527C89.8846 227.876 88.0823 224.421 85.8008 221.188C85.9106 217.498 85.8956 211.397 86.6046 207.963C91.7468 207.862 90.5386 202.343 98.4617 205.29C102.321 206.724 108.312 188.546 110.613 184.415C116.829 173.265 127.433 168.086 137.273 160.331C138.366 160.581 137.812 160.491 138.936 160.601C139.485 159.699 139.919 159.057 140.533 158.195L141.012 158.556L140.498 161.013L141.027 160.957L142.071 159.047C145.665 156.997 145.98 156.496 150.019 157.147L150.578 157.242L153.973 154.395C158.211 154.37 163.978 153.307 168.805 153.106L169.914 154.189C173.279 154.38 169.4 153.337 172.515 152.339L172.979 153.598C177.827 153.473 186.733 155.157 190.548 153.849C190.857 154.606 190.882 154.836 190.957 155.628C195.031 157.263 199.09 158.917 203.248 160.306C203.733 160.12 204.217 159.94 204.701 159.754C205.485 160.01 205.405 159.875 205.939 160.521C208.98 164.166 218.056 166.888 221.186 170.167C223.732 172.839 225.849 179.221 229.634 182.134C229.878 181.597 230.118 181.066 230.362 180.53C232.115 181.261 232.205 181.953 233.588 183.678C232.819 184.691 232.999 184.264 232.749 185.518C235.899 189.975 239.094 195.299 241.805 199.966C242.839 201.746 243.408 207.657 244.965 207.862C251.231 208.7 261.151 208.604 266.957 207.496Z" fill="#121211"/>
<path d="M394.533 184.915L392.441 186.314L391.797 186.053C391.078 182.905 388.118 179.39 387.953 178.378L389.042 177.445C390.719 179.601 393.165 182.609 394.533 184.915Z" fill="#474442"/>
<path d="M169.496 173.023C169.536 174.282 169.446 173.795 170.085 174.964C171.663 175.675 171.772 175.139 174.044 174.317C173.954 175.435 173.939 174.888 174.079 175.961C178.677 175.42 175.277 176.001 177.549 177.365L178.293 176.788L177.504 175.325L178.327 175.144C178.777 175.746 179.186 176.272 179.66 176.854C180.809 175.515 180.329 175.57 181.613 175.179L181.253 176.588C182.491 177.5 183.525 176.127 183.989 176.357C186.545 177.621 185.956 174.898 188.542 175.33L187.683 176.798C187.893 176.874 188.098 176.954 188.307 177.034C190.819 176.738 194.513 178.428 196.899 179.621C196.74 180.98 196.645 180.483 197.139 181.707L197.813 181.867C198.432 181.2 198.472 181.195 199.186 180.629L199.96 180.955L199.476 182.198L199.705 182.604L201.977 182.454C205.072 185.672 208.592 187.627 211.193 190.425C210.858 191.167 210.758 191.407 210.479 192.204C212.126 193.428 212.955 194.13 214.792 194.992C215.561 194.265 215.147 194.471 215.951 194.245L216.09 195.032C215.327 195.704 214.643 196.265 213.844 196.902L214.213 197.489C215.571 197.273 215.931 197.198 217.294 197.233C218.167 198.486 218.667 199.79 218.072 201.213L216.859 201.138C217.638 202.372 218.502 204.166 219.55 204.953L220.783 204.001L221.288 204.367L221.173 205.6C220.459 213.912 224.498 206.086 224.043 212.769C223.569 219.688 224.907 216.188 226.909 218.585L226.63 219.252L225.062 219.813C226.909 223.964 224.737 221.327 225.961 224.019C226.879 223.899 226.525 223.779 227.089 224.114C226.25 225.373 225.861 225.689 225.681 227.178C226.26 227.684 226.824 227.975 227.493 228.341C228.202 229.689 228.307 229.614 228.102 231.093C225.032 234.051 225.272 235.003 225.356 239.119C223.884 239.29 224.513 239.024 223.359 239.876L224.428 240.794L224.233 241.781L222.905 242.448C221.887 246.108 221.607 247.692 219.685 250.931L219.296 251.573L220.349 252.144C219.98 253.152 219.046 254.36 218.237 255.057C215.157 257.709 215.272 261.79 213.23 265.284C210.858 265.735 210.02 265.56 208.821 267.741L210.219 269.059L210.045 269.997C207.868 269.626 207.948 269.195 206.385 270.017C205.856 271.736 205.816 272.187 204.673 273.626C201.333 274.835 200.14 274.93 198.951 278.539C197.563 279.482 191.528 281.843 190.075 281.407C186.246 283.081 179.501 282.976 175.442 281.913L174.803 281.738L174.024 282.861C171.842 283.523 169.266 282.53 167.748 280.961C165.876 280.916 165.771 280.866 163.964 280.214L163.52 280.048C162.986 280.976 163.36 280.655 162.431 281.041C155.991 277.622 147.14 273.757 143.615 267.209C142.107 268.057 142.806 268.056 141.468 267.756C140.809 266.402 140.904 266.146 139.791 265.314L138.832 266.327L138.163 266.126C137.464 264.392 137.589 265.344 138.408 263.118C137.205 262.602 135.862 262.151 134.883 261.309L135.782 260.05L135.367 259.158L133.84 259.328C131.788 256.962 135.163 258.541 133.67 256.937C132.696 255.894 131.303 255.062 130.545 253.553C131.438 252.676 131.199 253.057 131.718 251.939L129.936 250.74C129.831 249.547 129.856 249.552 130.155 248.434C125.772 247.427 126.825 243.526 126.211 239.094L124.569 237.916L124.444 237.024C125.083 236.793 125.662 236.573 126.296 236.322L123.68 232.562C124.064 231.86 124.454 231.163 124.848 230.466C123.735 229.429 122.941 228.932 122.582 227.468C124.429 226.752 123.83 227.348 124.748 225.979C124.559 225.844 123.695 225.182 123.585 225.242C122.392 225.879 124.474 219.653 124.079 219.086C123.246 217.873 123.485 219.858 122.422 217.462C123.026 217.041 123.6 216.715 124.254 216.389L124.089 215.597L122.667 215.01L122.552 214.609C123.066 214.429 124.469 213.937 124.474 213.652C124.529 210.498 124.379 206.974 125.892 204.096C126.77 202.432 126.506 202.973 128.493 202.377C129.471 193.498 135.253 189.392 141.992 184.238L141.793 182.749C145.612 180.939 147.13 181.185 150.514 179.395C152.052 178.588 150.934 177.636 152.806 176.924L153.545 178.037L154.059 177.631C154.079 176.448 153.924 176.583 154.349 175.58C155.043 176.367 154.638 175.956 155.587 176.778C158.647 176.422 167.114 174.718 169.496 173.023Z" fill="#FEFEFE"/>
<path d="M176.996 216.746C179.407 218.07 181.514 216.295 184.819 217.052L185.078 217.774L183.93 219.694C185.148 219.809 184.784 218.501 186.751 217.227L188.114 218.471L189.527 217.508L190.161 217.944L189.322 219.178C190.37 220.12 190.345 219.97 191.688 220.491C192.712 222.11 195.193 226.718 194.958 228.603L193.446 228.222L193.026 228.939C193.401 229.846 193.73 230.673 194.065 231.601L192.437 232.478C193.521 234.167 194.479 234.909 193.68 236.779C192.422 236.669 192.467 236.654 191.239 236.925L190.75 238.855C188.583 242.129 176.047 240.254 174.305 237.922C174.699 236.694 174.549 237.326 174.749 236.037C174.444 235.852 174.145 235.666 173.845 235.471C171.803 234.122 171.399 233.41 170.93 231.119L172.058 230.026C171.893 228.347 171.469 226.422 171.139 224.737C172.987 221.328 178.438 221.193 176.996 216.746Z" fill="#121211"/>
<path d="M335.068 168.101L335.777 168.096C335.792 169.469 335.512 168.973 336.286 169.78C337.409 169.023 337.489 168.828 338.787 168.582L340.025 170.101C341.358 169.875 342.691 169.665 344.029 169.464C347.409 170.978 349.081 171.224 351.558 174.001L351.912 174.393C353.35 175.992 355.182 173.946 357.279 175.275L356.845 176.212C357.149 177.045 368.018 185.221 369.396 186.329C369.775 187.482 369.765 187.588 369.825 188.781C372.162 190.325 369.94 188.405 372.241 188.736C373.779 195.248 376.515 195.554 379.436 201.284C380.04 202.477 378.322 203.776 379.001 206.077C380.524 206.553 380.09 206.287 381.343 207.17C379.565 211.647 381.602 208.729 382.546 212.208L381.433 212.594C381.607 215.236 382.112 212.604 383.055 215.422C381.717 217.367 381.348 217.277 381.667 219.036C383 219.884 382.631 219.473 383.544 220.686C382.865 221.388 382.821 221.448 382.251 222.195C382.701 223.458 382.776 223.363 383.659 224.401L383.155 226.441C382.531 228.883 382.261 229.489 382.746 232.001C381.642 231.971 381.942 231.956 380.769 232.161L380.554 233.249L381.782 234.061L381.812 234.859L379.885 235.545C379.835 240.298 379.815 242.489 376.42 245.612C375.322 246.625 374.533 248.289 374.623 249.873L375.886 250.114C374.982 252.385 373.24 250.455 372.341 252.681C366.201 267.841 358.427 269.095 346.206 278.134C343.804 276.214 341.907 279.568 338.967 280.66C333.795 282.586 331.568 282.38 326.53 280.625L326.406 280.3C326.131 280.55 325.857 280.796 325.582 281.047L324.933 280.32L325.642 278.62L325.123 278.354C324.304 279.417 323.909 280.184 322.666 280.62C321.268 279.277 320.31 279.407 318.712 278.199L318.817 276.479C316.561 275.938 318.992 276.875 316.75 277.703L314.424 275.477L312.981 275.522L313.041 274.304L312.537 274.023L310.36 275.442C310.215 274.649 310.355 274.294 310.49 273.506L309.596 272.875C308.098 272.975 306.356 273.386 305.527 271.997L306.84 270.759C304.289 269.691 301.044 266.939 298.947 264.999C297.689 263.836 299.307 264.688 299.546 262.933C298.208 263.114 298.757 263.304 297.779 262.703L297.899 261.013L295.802 260.396C294.833 257.589 296.321 260.452 296.366 258.035L294.654 257.88C292.397 255.203 290.135 244.63 289.466 240.94L290.615 239.491C289.851 238.493 290.215 238.939 288.663 238.443C288.348 237.049 286.501 230.191 286.621 229.434C286.915 227.614 287.694 224.471 287.909 222.004C286.99 222.37 287.504 222.21 286.346 222.44L286.281 221.628C287.18 220.58 287.809 220.024 288.243 218.706C287.445 217.547 287.245 217.537 287.205 216.179C287.904 214.986 288.428 214.364 288.458 212.985L287.435 212.935C287.31 211.406 289.292 207.561 289.946 205.465L289.112 204.197C289.037 201.63 289.262 204.347 291.099 201.7L290.27 200.427C290.295 194.341 293.046 194.341 295.293 189.192C296.81 185.698 298.817 184.103 300.824 180.98L300.25 179.837L300.63 179.185L301.379 178.96C305.582 177.716 305.328 177.581 308.593 174.653C315.203 168.732 326.75 170.066 335.068 168.101Z" fill="#FEFEFE"/>
<path d="M332.327 212.995C333.121 212.604 332.656 212.704 333.74 212.879L334.044 214.088C335.213 214.474 335.597 214.504 336.82 214.734C336.76 215.757 336.775 215.201 336.795 216.404C338.213 217.868 337.349 217.341 339.661 217.682L340.115 218.314L339.152 219.587C339.321 221.527 341.538 222.505 342.037 223.924C343.964 229.373 335.462 239.926 329.93 239.475C326.765 239.736 323.34 238.202 320.655 236.467C319.546 235.75 320.984 236.222 320.854 234.056C320.02 233.905 319.331 233.76 318.513 233.58C317.384 231.489 318.558 231.915 318.428 228.707L317 227.689L317.05 226.631C317.794 226.295 318.283 226.05 318.997 225.653C318.752 217.226 322.042 218.835 328.023 214.674C329.995 213.301 329.746 213.451 332.327 212.995Z" fill="#121211"/>
</svg>
