<svg width="500" height="500" viewBox="0 0 500 500" fill="none" xmlns="http://www.w3.org/2000/svg">
<path d="M107.856 234.897C107.779 232.387 111.577 213.122 112.443 209.952C112.579 209.457 115.626 209.102 116.482 208.957L116.659 208.007C115.001 206.827 115.011 208.692 112.864 208.077C114.339 201.247 124.492 187.717 128.612 181.542C129.833 179.712 136.269 170.972 137.721 169.762C147.467 161.647 160.599 157.677 172.498 153.932C177.596 152.357 182.626 153.337 188.104 151.412C193.611 153.257 193.09 152.897 198.333 153.117C202.181 153.447 205.258 153.387 208.724 155.032C210.902 155.592 240.899 167.607 241.485 168.222L241.394 169.952C242.566 170.802 243.9 170.497 245.441 170.432C249.301 170.927 258.03 174.287 261.068 176.532C265.362 176.012 267.636 176.587 271.729 177.497C288.499 181.227 306.584 179.297 323.3 182.972C324.599 183.257 341.31 190.052 341.797 190.512C344.72 192.332 348.026 195.147 350.066 196.372C353.668 197.222 367.157 214.687 370.065 218.652C370.295 218.967 371.783 224.327 371.796 224.797C372.811 226.822 373.585 228.297 374.358 230.447C376.685 235.187 377.288 236.912 376.568 242.362C376.015 246.557 376.735 249.552 375.866 254.817C372.609 274.557 357.676 292.447 359.071 312.782C359.717 314.902 361.203 319.292 362.161 321.157C366.105 328.847 376.284 334.642 382.386 340.682C389.552 347.772 397.673 356.072 401.182 365.692C403.074 370.882 406.337 385.182 405.218 390.162C403.927 389.542 403.77 387.952 403.069 386.177C402.922 388.792 403.925 393.897 403.712 394.957C402.4 401.472 397.24 409.512 393.501 414.972C392.245 416.807 390.949 417.822 389.706 419.767L384.122 421.897C382.917 423.532 381.643 425.192 380.56 426.907C374.137 429.287 369.456 431.977 362.429 433.322C358.405 434.087 352.248 433.817 348.978 434.787C349.033 435.277 349.087 435.767 349.142 436.257C346.33 436.672 345.351 434.112 342.396 434.502C342.318 435.772 342.283 435.362 342.563 436.552C339.927 436.922 334.666 433.732 331.649 435.007C332.11 436.267 331.904 435.857 332.727 436.922C329.534 437.257 325.607 436.137 322.339 436.167C315.272 436.227 310.545 436.762 303.689 434.637C301.302 435.802 299.939 436.237 297.226 436.192C284.223 435.987 270.891 435.142 257.919 434.982L186.922 434.522C171.741 434.312 156.077 434.882 140.834 434.137C137.203 433.962 135.771 433.247 132.925 431.082C131.579 431.152 126.42 431.462 125.489 431.087C119.365 428.612 108.791 424.502 105.851 418.432C102.145 416.302 99.8446 416.582 97.1651 413.062C92.3056 406.682 90.1931 399.197 84.3621 393.612L84.2941 392.667C83.6806 384.662 79.6511 379.262 83.7021 373.492C82.0941 373.712 82.6101 373.797 81.1051 373.477C80.6071 371.557 82.0111 359.592 82.5641 357.362C83.4966 352.342 84.9316 344.842 87.2121 340.307C93.8156 327.177 104.733 317.597 111.086 304.632C111.986 302.437 111.895 299.307 112.629 297.147C115.331 289.197 115.991 282.952 110.793 275.687C111.138 272.967 110.795 268.647 110.658 265.772C109.552 263.117 109.325 262.547 108.907 259.722C108.049 256.792 107.794 251.452 107.528 248.202C106.823 243.702 106.792 239.332 107.856 234.897Z" fill="#F07350"/>
<path d="M82.5641 357.361C84.5281 360.321 85.8876 370.766 83.7021 373.491C82.0941 373.711 82.6101 373.796 81.1051 373.476C80.6071 371.556 82.0111 359.591 82.5641 357.361Z" fill="#EB7F6C"/>
<path d="M371.796 224.797C372.811 226.822 373.584 228.297 374.358 230.447C376.684 235.187 377.287 236.912 376.568 242.362L375.985 242.077C375.986 238.017 374.739 239.477 372.86 235.472C370.413 231.497 371.079 229.497 371.796 224.797Z" fill="#EB7F6C"/>
<path d="M245.441 170.432C249.301 170.927 258.03 174.287 261.068 176.532C260.884 176.602 260.7 176.677 260.516 176.747C251.644 176.497 251.45 175.007 245.441 170.432Z" fill="#EB7F6C"/>
<path d="M107.856 234.896C109.061 237.286 109.45 237.601 111.712 239.026C108.713 243.231 109.064 243.206 107.528 248.201C106.822 243.701 106.792 239.331 107.856 234.896Z" fill="#EB7F6C"/>
<path d="M341.795 190.512C344.718 192.332 348.024 195.147 350.065 196.372C348.077 198.057 343.875 196.057 341.849 194.932C340.924 193.547 341.494 192.717 341.795 190.512Z" fill="#EBA4A1"/>
<path d="M198.332 153.117C202.181 153.447 205.257 153.387 208.724 155.032C203.294 155.497 201.747 158.287 198.332 153.117Z" fill="#EB7F6C"/>
<path d="M108.906 259.722L109.545 259.117C109.626 259.312 109.708 259.507 109.79 259.702C111.899 259.152 110.941 259.047 112.778 259.722C113.412 262.342 112.089 263.537 110.657 265.772C109.551 263.117 109.324 262.547 108.906 259.722Z" fill="#EB7F6C"/>
<path d="M181.044 255.608C180.476 253.973 180.542 254.073 180.809 252.343C183.311 248.843 187.169 252.118 190.545 252.948L191.511 253.173C193.738 253.868 198.234 254.228 199.696 254.858C210.033 259.338 218.743 269.528 216.774 281.233C216.084 282.253 215.994 282.198 214.935 282.878C217.457 289.093 211.386 295.323 206.677 298.868C204.88 300.938 203.385 301.708 201.093 303.183C197.051 303.433 186.729 306.228 185.518 301.028L186.318 299.783C186.063 299.183 186.189 299.543 186.002 298.568L185.845 297.733L184.529 297.808C184.366 298.368 184.413 298.923 184.418 299.503C179.493 304.033 178.644 299.518 173.947 300.548C169.311 301.563 172.629 299.558 168.088 297.403C166.913 297.238 167.275 297.283 166.162 296.683C166.16 295.458 166.183 295.418 165.876 294.243C164.397 293.968 163.989 294.058 162.885 293.058C163.266 291.368 163.751 291.388 165.259 289.948L163.377 290.128C162.552 289.098 161.706 288.188 160.825 287.208L162.451 285.448C161.551 283.508 154.991 281.748 158.263 276.973L159.669 277.773C160.641 276.768 160.473 271.768 161.191 270.158C161.592 269.258 161.945 270.798 163.543 269.173L161.574 269.038L161.265 268.153C162.435 266.328 167.298 258.623 168.571 258.708C174.782 259.128 171.229 258.703 175.383 255.503C176.865 256.293 177.202 256.473 178.854 257.043C180.749 256.573 180.086 257.098 181.044 255.608Z" fill="#000101"/>
<path d="M181.047 255.608C180.479 253.973 180.545 254.073 180.813 252.343C183.314 248.843 187.172 252.118 190.548 252.948L191.514 253.173C193.742 253.868 198.237 254.228 199.7 254.858C210.036 259.338 218.746 269.528 216.777 281.233C216.087 282.253 215.997 282.198 214.939 282.878C217.461 289.093 211.389 295.323 206.681 298.868C204.883 300.938 203.388 301.708 201.096 303.183C197.055 303.433 186.732 306.228 185.521 301.028L186.322 299.783L188.132 296.348L188.533 295.003C190.491 294.953 191.628 294.953 193.609 294.693C195.026 293.163 193.217 292.803 194.039 290.243C195.775 290.853 195 290.943 196.483 290.513C197.493 288.743 198.968 286.428 198.487 284.423C197.565 285.263 197.895 285.153 196.812 285.578L196.914 284.658L199.283 283.538C199.347 282.623 199.718 278.883 199.412 277.878C199.258 277.368 198.74 278.123 197.784 276.873C200.156 273.443 201.524 270.983 197.846 267.643L195.464 265.503C195.949 264.438 196.038 264.183 196.341 263.048C194.492 261.808 195.242 263.293 191.828 263.453C192.107 263.053 192.38 262.648 192.648 262.238C193.956 260.208 193.656 260.508 193.238 258.453C193.027 259.953 193.165 259.988 192.168 261.073C189.033 260.623 190.922 257.218 185.227 257.338L185.12 256.918L184.438 256.558C182.85 256.793 182.458 256.393 181.047 255.608Z" fill="#FEFDFC"/>
<path d="M181.047 255.608C180.479 253.973 180.545 254.073 180.813 252.343C183.314 248.843 187.172 252.118 190.548 252.948L191.514 253.173C193.742 253.868 198.237 254.228 199.7 254.858C210.036 259.338 218.746 269.528 216.777 281.233C216.087 282.253 215.997 282.198 214.939 282.878C213.196 280.278 215.974 269.743 210.418 267.473C207.295 266.193 209.795 264.898 208.532 263.563C205.298 260.148 197.984 256.113 193.419 255.553L192.888 256.118L193.238 258.453C193.027 259.953 193.165 259.988 192.168 261.073C189.033 260.623 190.922 257.218 185.227 257.338L185.12 256.918L184.438 256.558C182.85 256.793 182.458 256.393 181.047 255.608Z" fill="#F1DED7"/>
<path d="M181.047 255.608C180.479 253.973 180.545 254.073 180.813 252.343C183.314 248.843 187.172 252.118 190.548 252.948L191.514 253.173C188.999 253.493 185.606 254.218 185.227 257.338L185.12 256.918L184.438 256.558C182.85 256.793 182.458 256.393 181.047 255.608Z" fill="#EB7F6C"/>
<path d="M186.32 299.783L188.131 296.348C188.62 298.693 190.357 301.458 192.857 302.413C197.91 304.338 203.475 299.273 206.679 298.868C204.882 300.938 203.387 301.708 201.095 303.183C197.053 303.433 186.731 306.228 185.52 301.028L186.32 299.783Z" fill="#F1DED7"/>
<path d="M168.09 297.402C172.419 295.202 172.061 300.377 176.469 299.287C178.996 298.667 180.304 296.847 183.14 297.007L184.531 297.807C184.367 298.367 184.414 298.922 184.419 299.502C179.495 304.032 178.645 299.517 173.949 300.547C169.312 301.562 172.63 299.557 168.09 297.402Z" fill="#32090A"/>
<path d="M276.733 262.486C275.009 261.671 270.315 259.742 269.53 258.397C272.84 257.637 281.465 256.507 284.329 257.827C284.082 258.667 283.986 259.002 283.939 259.892C289.086 260.267 295.179 263.787 298.533 267.617C301.468 270.977 301.402 274.741 303.315 278.346C306.157 283.206 300.458 287.871 300.445 290.836L301.941 292.692C301.071 296.532 294.076 298.042 294.915 300.677L296.181 301.606L296.113 302.421L295.478 302.916L294.993 302.661C294.369 302.341 293.888 302.131 293.249 301.861C288.273 304.411 277.862 310.726 273.269 305.416C273.05 304.201 272.288 302.977 272.211 302.017C271.86 301.707 269.16 301.717 268.5 301.692C268.44 302.682 268.428 302.607 268.196 303.567L266.334 302.281L266.85 304.351C265.888 305.386 266.463 305.031 265.018 305.361C263.548 304.591 262.912 302.602 262.156 300.997L261.414 300.897C261.03 302.172 261.293 301.577 260.64 302.692C257.146 302.312 253.029 298.637 250.916 295.932C248.875 293.322 251.135 294.402 251.697 291.802L250.981 291.416L249.706 292.432L249.083 292.161C248.656 291.191 246.558 289.627 246.644 289.137C247.078 286.657 246.805 287.066 245.432 285.156L245.707 284.596C246.313 284.986 246.82 285.376 247.355 285.846L247.959 284.892C247.46 283.492 246.563 283.637 244.84 282.372C246.011 281.372 245.781 281.952 246.078 280.747L244.43 278.796C244.666 277.166 248.05 271.471 249.06 269.656L248.717 269.957C249.938 266.742 251.038 266.981 252.476 263.731C254.472 262.901 256.462 262.057 258.445 261.197L259.692 262.307L260.468 262.117C262.027 259.627 261.871 259.296 264.809 259.211L265.564 260.546L265.087 259.207L265.568 259.226L266.131 260.171L266.699 259.567L266.429 259.346C266.842 260.656 265.321 259.662 264.243 261.887L264.998 262.262C273.618 258.722 270.113 265.081 276.733 262.486Z" fill="#000101"/>
<path d="M276.735 262.486C275.01 261.671 270.317 259.742 269.531 258.397C272.842 257.637 281.467 256.507 284.33 257.827C284.083 258.667 283.988 259.002 283.941 259.892C289.088 260.267 295.181 263.787 298.534 267.617C301.47 270.977 301.404 274.741 303.317 278.346C306.158 283.206 300.459 287.871 300.446 290.836L301.942 292.692C301.073 296.532 294.077 298.042 294.917 300.677L296.183 301.606L296.114 302.421L295.48 302.916L294.994 302.661C294.37 302.341 293.889 302.131 293.25 301.861C288.274 304.411 277.864 310.726 273.271 305.416C273.052 304.201 272.289 302.977 272.212 302.017C275.072 301.812 277.063 300.887 276.722 297.762L277.458 297.671C278.829 296.626 284.564 294.561 283.956 291.586L281.91 291.861L281.539 291.427L282.102 290.596C283.588 290.306 283.543 290.371 284.824 289.596C285.192 287.776 287.025 280.252 286.479 279.197C285.313 280.172 285.933 279.991 284.631 280.231L284.418 279.642L285.61 278.077C285.411 275.097 285.214 278.437 283.911 276.002C284.536 275.182 285.138 274.347 285.715 273.497C285.468 268.267 280.561 269.782 278.421 267.867C278.754 265.907 279.362 267.967 281.286 266.137C280.471 264.647 278.244 263.476 276.735 262.486Z" fill="#FEFDFC"/>
<path d="M268.5 301.691C269.511 301.471 269.615 301.491 270.565 301.106C269.543 300.131 269.992 300.631 269.521 299.031L270.128 298.171C273.14 297.236 273.592 297.251 276.721 297.761C277.062 300.886 275.071 301.811 272.211 302.016C271.86 301.706 269.16 301.716 268.5 301.691Z" fill="#181313"/>
<path d="M194.359 336.387C197.106 336.687 198.108 337.417 200.515 338.682C202.968 338.222 200.339 338.647 201.929 336.592C202.988 336.812 202.829 336.662 203.528 337.302C208.183 341.567 206.497 338.097 209.625 338.482L210.276 340.137C211.395 340.457 212.39 339.927 213.655 339.292C218.53 336.842 223.626 340.527 228.962 339.922C235.67 335.192 236.81 340.702 240.311 340.917C242.719 341.067 245.968 338.657 249.561 339.542C253.531 340.522 259.343 342.167 262.482 341.532L262.386 340.032L263.179 339.862C264.338 340.617 264.572 340.807 265.841 341.317C268.757 340.312 271.253 338.947 273.175 342.242L272.447 343.912C273.175 346.017 275.274 343.967 275.622 344.662C277.255 347.912 276.778 348.497 279.842 351.007C277.576 353.582 278.216 352.982 277.762 356.707C275.776 359.197 272.998 360.927 269.89 361.617C266.644 362.317 261.097 363.527 258.004 362.912L260.66 361.622C259.88 360.492 259.279 360.667 257.584 360.147C256.249 361.447 256.787 361.997 255.119 362.367C247.562 358.462 248.759 362.897 241.989 361.837C241.969 361.107 241.963 360.377 241.97 359.642C239.846 359.227 237.171 361.882 234.787 361.697C233.775 360.667 233.363 360.072 231.997 359.572C231.083 360.417 231.505 359.967 230.729 360.922C228.396 360.712 227.918 360.502 225.711 359.612L225.108 359.367L224.429 360.657C222.656 360.987 218.339 360.632 216.542 360.187C216.13 359.122 216.155 359.162 215.578 358.132C211.993 359.507 208.291 360.992 204.559 360.067L206.192 358.897C203.9 357.377 191.753 359.287 187.785 358.872C182.664 358.342 183.49 356.702 178.908 357.597C177.627 356.137 178.026 356.562 177.664 354.332C175.673 353.242 175.564 354.952 173.296 353.857L173.23 353.102L174.807 352.637C175.274 351.477 175.252 352.077 174.804 350.842L173.406 350.207L175.41 348.712C176.098 347.077 175.328 344.377 175.273 342.352C176.727 340.262 176.518 342.827 179.069 341.277C179.479 339.072 179.243 338.627 181.194 337.842L181.985 338.787C184.295 339.252 186.794 337.037 190.351 337.127L190.866 338.627C193.616 339.242 191.731 338.592 193.673 337.897C194.102 337.742 195.439 339.527 196.951 339.102C196.398 337.262 196.419 337.772 194.359 336.387Z" fill="#000101"/>
<path d="M189.644 219.333L190.317 219.653C193.411 221.123 194.603 221.393 197.941 222.163C197.819 222.838 197.705 223.418 197.561 224.098C198.842 224.488 198.979 224.423 200.339 224.443L201.439 225.638L201.342 226.443C199.803 226.663 199.044 226.683 197.517 226.733L197.58 227.538C199.605 228.423 200.634 228.143 202.1 229.818C202.239 231.873 198.994 237.808 196.066 237.763L194.403 236.588C192.804 237.408 192.541 237.643 191.155 238.698C190.303 238.523 186.783 237.493 186.619 237.493C183.179 237.563 179.532 237.773 176.068 237.848L174.768 239.218L173.994 238.943L173.63 237.328C171.639 237.383 168.901 238.253 166.865 238.688C163.251 239.463 153.679 239.708 150.517 238.503C149.609 236.763 149.47 235.598 148.105 235.123C147.735 236.053 147.819 235.563 147.873 236.598C146.583 235.618 146.698 235.618 146.02 234.113C146.18 232.863 146.316 232.593 146.738 231.388C146.243 227.733 143.914 226.638 146.197 223.958C147.209 222.773 149.677 221.153 151.039 220.183C150.972 219.693 150.898 219.208 150.816 218.723C153.226 218.308 163.397 217.138 165.32 217.723L165.897 219.378L166.73 219.363C169.337 219.338 172.318 219.808 175.053 219.888L176.177 218.513C179.274 218.633 181.104 220.493 182.979 219.978L183.658 218.553L184.446 218.528L184.476 220.453C185.726 220.623 185.133 220.698 186.261 220.263C188.011 220.328 188.106 220.118 189.644 219.333Z" fill="#000101"/>
<path d="M186.26 220.262C188.01 220.327 188.105 220.117 189.643 219.332L190.855 220.977C190.494 222.662 190.915 221.977 189.455 223.042C187.747 223.222 187.871 223.212 186.353 222.382L185.832 221.387L186.26 220.262Z" fill="#181313"/>
<path d="M267.79 222.732C268.581 222.917 269.421 223.132 270.23 223.182C274.423 223.437 277.243 225.377 281.535 225.652L283.715 223.702C289.744 222.297 301.725 225.062 307.616 227.177C310.372 232.427 310.665 228.642 313.123 231.717L311.884 233.102C311.972 239.742 309.414 242.977 302.343 242.782C299.44 242.702 297.442 242.782 294.826 241.307C292.016 242.727 281.006 241.527 277.14 241.827C275.593 241.947 275.678 241.482 274.611 240.307C270.725 238.792 251.41 246.162 254.78 232.272L254.956 231.577L254.078 230.177C255.474 230.327 254.962 230.412 256.252 229.967L256.793 228.832C256.197 228.082 255.761 227.722 254.979 227.167C257.041 223.142 264.031 225.312 267.79 222.732Z" fill="#000101"/>
<path d="M282.015 66.9866C282.621 66.9966 283.419 66.9964 282.986 67.0986C285.739 66.4482 298.32 68.5601 297.597 72.2713L297.763 72.3518C300.839 73.8796 302.782 75.1642 304.262 78.157C305.655 82.3836 305.892 83.4519 305.55 87.765C307.419 88.5453 307.378 88.5874 308.649 89.3407C310.381 90.3683 319.955 94.4257 321.495 94.8205C325.325 96.6982 330.033 99.4804 333.8 100.966C335.836 101.583 344.326 107.187 346.422 108.781C348.818 110.857 351.14 112.972 353.537 115.052C354.876 116.214 357.88 118.095 358.798 119.271C361.788 123.101 368.241 131.065 369.616 135.461C371.877 142.689 373.965 150.615 374.634 157.93C374.578 160.462 373.567 162.892 373.077 165.356C372.755 166.512 373.491 168.161 373.228 169.28C371.708 175.733 371.056 182.379 369.816 188.884C368.892 193.737 366.961 197.282 367.156 202.384C367.337 202.69 367.556 203.059 367.812 203.49C370.17 204.482 374.464 205.985 376.723 206.732C380.566 211.432 384.094 212.681 384.376 218.473L384.703 219.735C384.053 222.119 383.595 224.517 382.673 226.799C382.197 227.975 381.436 229.025 380.944 230.101C378.28 235.054 370.151 237.865 364.335 236.336C358.91 234.908 342.049 233.224 339.394 229.75C336.534 228.707 330.194 228.145 326.995 227.213C322.12 225.794 317.673 223.705 312.542 223.405L311.965 223.04L312.286 222.37C313.162 222.208 313.768 222.57 314.659 222.916C315.437 222.714 315.432 222.768 315.907 222.215C313.469 220.706 306.662 222.531 306.105 221.804L306.605 221.5C307.271 221.092 307.472 220.91 308.034 220.407L308.007 219.898L307.272 219.43C300.039 220.679 302.933 217.305 295.763 218.738C294.864 218.025 293.733 217.074 292.825 216.417C289.06 216.143 282.01 214.479 278.402 213.475C275.417 212.644 274.4 209.544 271.843 211.367C271.557 211.571 264.575 208.521 263.672 208.544C262.471 208.25 260.805 207.954 259.992 207.178L259.846 206.515C257.881 206.021 257.687 207.929 256.252 205.985C255.572 205.059 254.86 204.997 253.733 204.963L253.534 205.122L254.207 205.914L253.792 206.385L253.225 206.277L253.111 205.877C252.93 205.268 253.007 205.503 252.73 204.859C250.747 204.094 247.97 203.093 246.06 203.483C245.064 203.684 244.087 203.034 243.244 202.581C240.502 201.102 235.68 200.984 232.693 199.955C230.458 199.185 229.305 197.336 226.699 197.765C226.024 197.879 225.353 198.004 224.684 198.14L224.277 197.885L224.164 196.505L223.709 196.189C222.825 196.39 223.142 196.276 222.417 196.791C219.176 195.806 216.004 194.75 212.687 194.012C212.472 193.963 211.707 193.261 211.51 193.083C209.088 192.654 210.344 194.674 207.963 192.172C207.816 192.136 207.436 192.036 207.228 192.015C203.141 191.648 198.79 189.761 194.807 188.738C186.459 186.588 177.882 184.487 169.703 181.791C167.963 181.215 164.332 181.07 162.874 180.595C161.699 180.211 159.909 178.904 158.12 178.197C155.58 179.153 156.655 177.51 153.897 176.61C150.751 177.833 148.47 175.453 145.309 174.471C144.136 174.109 142.885 173.832 141.69 173.58C141.308 172.97 140.816 171.976 139.891 171.9C137.644 171.713 135.116 169.246 133.44 167.904C133.088 165.482 133.519 165.984 131.159 164.754C131.924 164.472 131.552 164.62 132.277 164.307C130.374 161.687 131.575 161.889 130.403 159.268C129.758 159.455 129.747 159.459 129.058 159.494C128.653 158.889 128.744 159.216 128.822 158.509C131.149 157.449 130.169 155.835 130.422 153.322C131.075 146.829 136.247 145.089 141.534 141.813C145.645 142.069 152.093 142.749 156.324 143.835C156.107 143.78 157.721 144.622 157.664 144.592C159.913 138.181 160.666 128.778 163.877 122.49C165.018 120.254 168.771 112.555 170.117 111.242C170.809 109.594 171.088 107.302 171.388 105.495C173.773 103.413 174.238 102.876 175.641 100.242C175.879 99.6078 178.079 96.362 178.72 95.1923C179.409 94.325 178.693 95.1732 179.332 94.5332C189.897 83.9522 199.074 76.5609 215.853 74.2292C216.547 73.859 227.041 72.9227 228.358 73.0678C234.239 73.7156 240.498 73.6783 246.364 74.1286C249.465 74.6588 266.217 77.6249 268.252 76.9978L269.923 77.9334C271.092 71.9115 278.445 70.3727 280.479 67.7457L282.015 66.9866Z" fill="#0081FA"/>
<path d="M317.534 190.478C318.865 189.637 320.283 188.752 322.124 189.277C322.737 190.015 322.652 189.633 322.578 190.416L321.273 190.407L321.281 190.732C321.924 191.629 322.084 191.599 323.148 192.069C324.095 191.017 324.451 190.061 325.757 189.41L326.208 189.57C326.779 190.74 326.605 191.898 326.587 193.169L329.45 192.507C331.856 193.225 333.18 193.877 335.473 194.855C336.197 194.709 336.381 194.668 337.02 194.391L337.512 194.173C338.741 194.352 338.219 194.133 339.173 194.762C339.236 195.416 339.26 195.774 339.226 196.413L339.196 196.954L339.544 197.261L340.053 197.158C340.507 196.486 340.629 196.298 341.202 195.715C342.716 195.791 343.619 195.995 344.765 196.885C345.214 197.784 345.114 197.826 345.881 198.507L346.604 197.616C347.822 197.501 359.267 201.834 361.68 202.154C362.038 202.202 362.193 202.881 362.338 203.218C363.382 203.56 364.437 202.922 366.11 202.707L366.413 202.67L367.157 202.384C367.339 202.69 367.558 203.059 367.813 203.49C370.172 204.483 374.466 205.985 376.725 206.732C380.567 211.432 384.096 212.682 384.377 218.473L384.705 219.735C384.055 222.119 383.597 224.518 382.675 226.8C382.199 227.975 381.437 229.025 380.946 230.101C378.282 235.054 370.152 237.865 364.337 236.336C358.911 234.908 342.05 233.225 339.396 229.75C336.536 228.707 330.196 228.146 326.996 227.214C322.121 225.794 317.675 223.706 312.544 223.406L311.967 223.041L312.287 222.371C313.163 222.208 313.77 222.57 314.66 222.916C315.439 222.715 315.433 222.768 315.909 222.215C313.47 220.706 306.663 222.532 306.107 221.805L306.606 221.501C307.273 221.092 307.474 220.91 308.036 220.408L308.008 219.898L307.274 219.43C300.041 220.68 302.935 217.305 295.765 218.739C294.866 218.026 293.735 217.075 292.827 216.417C289.061 216.144 282.012 214.479 278.404 213.475C275.418 212.644 274.401 209.544 271.845 211.367C271.558 211.571 264.577 208.521 263.674 208.544C262.473 208.25 260.806 207.954 259.993 207.178L259.848 206.516C257.882 206.022 257.688 207.929 256.254 205.985C255.573 205.06 254.861 204.997 253.735 204.963L253.536 205.122L254.209 205.914L253.793 206.385L253.227 206.277L253.112 205.877C252.931 205.268 253.009 205.503 252.732 204.859C250.748 204.094 247.972 203.093 246.061 203.483C245.065 203.684 244.089 203.034 243.246 202.581C240.504 201.103 235.682 200.984 232.695 199.955C230.459 199.186 229.306 197.336 226.701 197.765C226.026 197.88 225.354 198.004 224.685 198.14L224.279 197.885L224.166 196.506L223.711 196.19C222.826 196.39 223.144 196.277 222.419 196.791C219.178 195.806 216.005 194.75 212.689 194.012C212.474 193.963 211.709 193.262 211.511 193.083C209.089 192.655 210.346 194.674 207.964 192.172C207.818 192.136 207.437 192.037 207.229 192.015C203.142 191.648 198.792 189.762 194.808 188.738C186.46 186.588 177.883 184.488 169.705 181.791C167.965 181.215 164.334 181.07 162.875 180.595C161.701 180.212 159.91 178.904 158.122 178.198C155.581 179.153 156.657 177.51 153.899 176.61C150.752 177.834 148.471 175.454 145.31 174.471C144.138 174.109 142.887 173.832 141.691 173.58C141.31 172.97 140.818 171.976 139.893 171.9C137.646 171.714 135.117 169.246 133.442 167.904C133.089 165.483 133.521 165.984 131.16 164.754C131.926 164.473 131.554 164.621 132.279 164.308C130.376 161.688 131.577 161.889 130.405 159.268C129.759 159.455 129.749 159.459 129.059 159.494C128.654 158.89 128.746 159.216 128.824 158.509C131.151 157.45 130.171 155.835 130.424 153.322C131.077 146.83 136.248 145.09 141.535 141.814C145.646 142.07 152.094 142.75 156.325 143.835C156.109 143.78 157.722 144.623 157.665 144.592L157.767 144.772C158.512 144.723 159.375 144.929 160.158 145.057C162.42 145.554 163.094 145.175 165.154 145.535C167.923 148.024 171.627 148.246 175.179 149.419C178.207 150.419 181.25 150.065 184.333 150.732L184.574 151.053C183.841 151.425 183.766 151.272 183.632 151.736L190.441 154.007C192.106 153.785 191.562 153.423 193.26 152.581L193.732 152.77C194.283 154.121 194.255 155.054 195.895 155.061C196.709 154.527 197.08 154.17 198.111 154.043C199.287 154.806 198.58 154.978 199.605 156.644L200.374 156.873C200.851 156.768 202.744 156.326 203.07 156.448C207.014 157.927 210.832 160.857 215.376 160.064C215.601 161.356 215.339 161.344 216.18 162.029C218.187 162.354 218.743 162.161 220.627 162.126C221.151 162.116 222.421 162.453 223.255 162.505C226.85 163.382 228.09 163.5 231.679 163.642C232.308 164.423 232.177 164.467 232.365 165.456L232.866 165.755C234.256 165.327 235.399 164.575 236.632 164.704L237.034 164.91C236.454 165.51 236.543 165.33 235.601 165.674C237.357 167.391 244.889 167.848 246.541 169.489C246.152 169.102 247.514 170.868 247.177 170.423C248.022 170.442 249.038 169.911 249.341 169.945C251.493 170.187 255.735 171.137 257.537 172.152C261.29 174.265 259.865 174.571 263.433 172.424C263.836 173.794 263.895 174.989 265.016 175.745C265.859 175.629 265.827 175.597 266.557 175.214C266.95 176.268 267.06 176.96 268.01 177.691C269.285 178.085 270.167 177.914 271.499 177.823C273.08 177.547 275.518 177.476 277.419 177.196C278.683 178.606 279.799 180.301 282.015 180.045C282.122 178.931 281.196 179.242 280.784 177.823C283.214 178.408 286.135 182.278 287.968 182.043C287.849 181.344 287.71 180.819 287.531 180.129L287.978 179.892C288.672 180.522 289.359 181.859 290.091 182.216C291.882 183.089 293.04 183.61 295.028 183.247C296.924 183.298 298.243 183.643 300.103 184.034L301.296 184.353C302.459 184.713 303.932 185.123 305.032 185.564C308.477 187.584 312.839 189.001 316.425 187.192L317.534 190.478Z" fill="#0167FC"/>
<path d="M250.204 203.681C254.26 203.177 268.3 209.244 273.465 209.854C274.909 210.022 276.817 212.299 278.029 212.673C280.871 213.48 283.828 213.786 286.702 214.492C291.893 215.762 296.36 217.474 301.743 217.872C302.335 217.918 306.823 218.974 307.189 219.101L307.272 219.431C300.039 220.68 302.933 217.306 295.763 218.739C294.864 218.026 293.733 217.075 292.825 216.418C289.059 216.144 282.01 214.48 278.402 213.476C275.416 212.645 274.399 209.545 271.843 211.368C271.556 211.572 264.575 208.522 263.672 208.545C262.471 208.251 260.804 207.955 259.991 207.179L259.846 206.516C257.88 206.022 257.686 207.93 256.252 205.985C255.571 205.06 254.859 204.998 253.733 204.964L253.534 205.123L254.207 205.915L253.791 206.386L253.225 206.277L253.11 205.877C252.929 205.269 253.007 205.504 252.73 204.86C250.746 204.095 247.97 203.093 246.059 203.484C245.063 203.685 244.087 203.034 243.244 202.582C240.502 201.103 235.68 200.985 232.693 199.955C230.457 199.186 229.304 197.337 226.699 197.766C226.024 197.88 225.352 198.004 224.683 198.141L224.276 197.885L224.164 196.506L223.709 196.19C222.824 196.391 223.142 196.277 222.417 196.791C219.176 195.807 216.003 194.751 212.687 194.013C212.472 193.964 211.707 193.262 211.509 193.084C209.087 192.655 210.344 194.674 207.962 192.172C208.231 192.263 208.503 192.367 208.791 192.384C213.373 192.657 226.109 195.968 230.718 197.467C233.482 198.363 236.067 199.765 238.855 200.618C243.505 202.038 245.409 200.987 250.204 203.681Z" fill="#0167FC"/>
<path d="M141.534 141.813C145.645 142.069 152.093 142.749 156.324 143.835C156.108 143.779 157.721 144.622 157.664 144.592L157.766 144.772C155.692 145.432 152.026 144.175 149.632 143.741C146.889 143.231 144.128 142.859 141.361 142.629C139.227 145.561 137.242 144.193 135.907 147.735C133.711 148.413 132.591 148.599 132.014 150.869C130.821 155.561 129.839 162.311 135.105 165.752C135.389 166.535 135.264 166.605 135.069 167.409C135.962 168.558 137.268 168.436 138.735 168.582C139.142 169.167 140.35 170.925 140.869 171.276C143.934 173.357 150.315 176.012 153.898 176.61C150.751 177.833 148.47 175.453 145.309 174.471C144.137 174.108 142.886 173.832 141.69 173.58C141.309 172.97 140.817 171.976 139.892 171.899C137.645 171.713 135.116 169.245 133.441 167.903C133.088 165.482 133.52 165.984 131.159 164.753C131.925 164.472 131.553 164.62 132.278 164.307C130.375 161.687 131.576 161.888 130.404 159.267C129.758 159.454 129.748 159.458 129.058 159.493C128.653 158.889 128.745 159.216 128.823 158.508C131.15 157.449 130.17 155.834 130.423 153.322C131.076 146.829 136.247 145.089 141.534 141.813Z" fill="#0167FC"/>
<path d="M367.157 202.385C367.339 202.692 367.557 203.06 367.813 203.491C370.171 204.484 374.466 205.986 376.724 206.733C380.567 211.433 384.096 212.683 384.377 218.475C380.393 214.424 380.07 214.624 378.287 209.632C375.871 208.486 374.125 207.125 371.792 205.976C371.06 205.615 370.553 206.051 369.741 206.4C368.392 205.729 367.191 203.85 366.412 202.671L367.157 202.385Z" fill="#0167FC"/>
<path d="M301.297 184.354C302.459 184.713 303.932 185.123 305.033 185.564C304 186.212 302.585 187.44 301.337 186.999C300.893 186.025 301.135 185.369 301.297 184.354Z" fill="#0167FC"/>
<path d="M295.027 183.246C296.923 183.297 298.243 183.642 300.102 184.033L299.835 184.141C298.615 184.643 297.89 185.05 296.763 185.688C295.879 184.772 295.938 184.108 295.027 183.246Z" fill="#0167FC"/>
<path d="M293.428 195.801C294.419 196.543 295.793 198.171 295.897 199.321C295.958 200.001 295.723 199.957 295.088 200.599L294.315 200.173C293.263 198.737 292.151 197.168 293.428 195.801Z" fill="#0167FC"/>
<path d="M284.823 193.091C285.716 193.896 286.153 194.767 286.583 195.782L286.264 196.389C284.862 196.135 284.274 196.231 283.592 195.054C283.801 194.051 284.11 193.851 284.823 193.091Z" fill="#0167FC"/>
<path d="M143.819 162.553L144.377 162.982C144.799 164.337 144.862 164.839 143.582 165.645C142.773 165.091 142.653 165.13 142.35 164.318C142.498 163.425 143.06 163.152 143.819 162.553Z" fill="#0167FC"/>
<path d="M249.917 186.909C250.925 187.2 251.111 187.171 251.88 187.844C252.21 188.729 251.839 189.215 251.468 190.067C250.236 189.235 250.195 188.217 249.917 186.909Z" fill="#0167FC"/>
<path d="M245.189 189.539C245.602 189.543 245.995 189.748 246.213 190.072C246.432 190.396 246.439 190.785 246.232 191.086C246.025 191.386 245.638 191.549 245.225 191.508C244.628 191.45 244.153 190.991 244.143 190.465C244.134 189.94 244.594 189.532 245.189 189.539Z" fill="#0167FC"/>
<path d="M153.735 154.64C155.101 155.842 155.01 156.432 154.421 157.755C153.619 157.357 153.686 157.353 153.211 156.641C153.099 155.62 153.263 155.532 153.735 154.64Z" fill="#0167FC"/>
<path d="M282.016 66.9868C282.622 66.9968 283.42 66.9966 282.987 67.0988C285.74 66.4484 298.322 68.5603 297.599 72.2715L297.764 72.352C300.84 73.8798 302.784 75.1644 304.263 78.1571C305.656 82.3838 305.893 83.4521 305.551 87.7652C305.332 87.8941 304.47 88.6205 303.446 88.3257C296.841 86.4253 289.897 84.19 283.378 82.2169C283.192 82.1607 282.918 81.286 282.81 80.9674C280.603 80.11 279.441 83.3839 276.242 79.7264C274.129 79.4506 275.78 80.6511 274.579 80.1875C272.132 79.2426 273.048 78.3183 269.924 77.9336C271.093 71.9117 278.447 70.3729 280.481 67.7459L282.016 66.9868Z" fill="#0167FC"/>
<path d="M282.016 66.987C282.622 66.9971 283.421 66.9969 282.988 67.0991C285.741 66.4487 298.322 68.5605 297.599 72.2718C296.866 71.8633 295.878 70.9226 295.219 70.3419C293.614 69.9082 291.966 69.4797 290.343 69.1337C286.927 68.4059 284.881 69.0754 282.016 66.987Z" fill="#0167FC"/>
<path d="M297.762 72.3516C300.838 73.8794 302.781 75.164 304.261 78.1567C301.752 77.4767 298.34 74.5928 297.762 72.3516Z" fill="#0167FC"/>
<path d="M321.496 94.8207C325.326 96.6984 330.034 99.4807 333.801 100.966C333.649 101.373 333.786 101.182 333.304 101.482C330.499 100.966 322.574 96.9261 320.549 94.9311L321.496 94.8207Z" fill="#0081FA"/>
<path d="M266.557 175.215C267.118 174.417 266.751 174.716 267.697 174.281C269.908 174.533 271.035 176.037 271.5 177.824C270.168 177.915 269.286 178.086 268.011 177.692C267.06 176.961 266.951 176.269 266.557 175.215Z" fill="#0081FA"/>
<path d="M218.399 159.252C219.302 161.151 219.223 161.344 221.467 161.985L223.253 162.505C222.419 162.453 221.148 162.116 220.624 162.126C218.741 162.161 218.185 162.354 216.178 162.029C215.336 161.344 215.599 161.356 215.373 160.063C216.405 159.768 217.347 159.501 218.399 159.252Z" fill="#0081FA"/>
<path d="M252.769 127.63C253.425 128.653 252.768 129.082 252.781 130.498L253.2 130.698C254.573 130.107 255.032 129.606 256.37 130.511C257.098 131.793 256.976 132.905 257.606 133.732C258.542 133.495 258.554 133.461 259.532 133.468L259.749 133.962C259.224 134.471 258.907 134.801 258.44 135.352C260.035 137.049 259.244 138.259 260.206 140.394C259.43 140.824 258.762 141.206 258.012 141.666L258.284 141.819C259.25 141.777 259.915 141.662 260.836 141.987C262.11 143.328 261.48 145.28 263.239 145.943C264.132 145.35 263.792 145.434 264.816 145.197C265.728 146.138 264.436 145.703 264.689 147.107C265.723 147.246 265.799 147.283 266.8 147.618C269.089 149.973 269.089 147.875 270.493 147.39C270.636 148.244 270.597 148.603 271.249 149.275C272.569 149.761 279.914 147.584 282.238 147.344C281.607 146.424 281.415 145.942 280.961 144.941L281.113 144.653C282.068 144.973 282.433 145.171 283.427 145.094C284.67 143.658 282.944 144.079 282.948 142.616L283.461 142.357L284.717 142.853L285.118 142.478C284.806 141.623 284.811 141.949 284.961 141.132C288.436 139.491 289.443 140.925 292.448 140.475C292.428 139.954 292.425 139.944 292.486 139.414L293.078 139.544L293.098 140.376C293.737 140.856 294.612 140.718 295.654 140.781L296.318 141.436C296.575 142.815 296.105 142.352 295.754 143.864C297.471 143.615 298.277 142.896 299.871 143.988L299.925 144.518C297.684 147.082 299.226 148.139 298.411 151.244C298.071 152.54 296.881 154.006 296.019 155.098C294.591 154.809 294.406 154.571 293.595 155.56C294.083 156.802 294.605 156.157 295.258 157.377L294.787 157.538C293.13 156.944 292.993 156.633 291.541 157.392C292.059 160.627 289.668 159.996 287.003 159.652C285.976 160.073 286.226 160.107 285.567 161.169C284.764 160.444 285.059 160.553 284.113 160.157L283.616 160.597L283.707 161.91L283.172 162.035C282.411 161.713 281.794 161.469 281.016 161.187L280.574 161.466C280.363 162.281 280.356 162.477 279.922 163.221L279.436 163.123C279.216 162.193 279.341 162.226 278.791 161.463C277.31 161.763 278.213 162.516 276.512 162.845C272.503 160.698 274.572 163.392 272.162 163.923L271.802 163.539C271.997 162.886 272.171 162.226 272.323 161.561L271.937 161.335C271 162.119 270.671 162.785 269.369 162.303C267.237 159.099 267.385 162.253 264.487 161.713C263.684 160.923 265.241 161.321 265.153 160.045C264.189 159.553 261.82 159.438 260.62 159.315C261.015 159.835 260.898 159.541 260.904 160.212L260.38 160.191C259.045 159.372 258.196 158.27 257.167 157.135C255.289 156.563 257.226 157.453 255.395 157.483C254.229 155.892 255.361 155.961 254.507 154.696C253.451 154.825 253.727 155.331 252.446 155.964C251.583 154.66 253.047 154.637 252.256 153.395L251.045 153.844C250.092 153.445 249.627 152.534 248.931 151.64L248.46 151.577L247.468 152.337L247.157 152.248C247.429 151.654 247.687 151.055 247.933 150.45C247.421 149.544 247.247 149.684 246.042 149.025C245.407 148.226 245.481 147.709 245.388 146.746L245.352 146.35C244.618 145.446 244.845 145.733 243.291 145.342C242.943 144.24 243.963 144.048 243.971 143.61C243.998 142.074 242.859 140.08 242.698 138.476L243.957 137.487C241.872 132.77 245.338 134.626 244.098 130.932L244.386 130.618L246.15 131.014L246.557 130.687C246.393 128.432 247.39 128.756 249.637 127.856C249.857 128.257 249.825 128.744 249.866 129.215L250.441 129.493C251.526 129.221 251.78 128.734 252.486 127.949L252.769 127.63Z" fill="black"/>
<path d="M280.48 67.7456C278.446 70.3726 271.092 71.9114 269.924 77.9333L268.253 76.9977C269.117 75.8385 269.137 75.2668 269.794 74.1643C272.427 69.7472 275.466 69.0175 280.48 67.7456Z" fill="#0167FC"/>
<path d="M384.703 219.736C385.49 222.212 386.476 223.573 384.915 225.939C383.996 227.33 382.353 229.103 380.944 230.102C381.435 229.026 382.197 227.976 382.673 226.8C383.595 224.518 384.053 222.12 384.703 219.736Z" fill="#0167FC"/>
</svg>
