<svg width="500" height="500" viewBox="0 0 500 500" fill="none" xmlns="http://www.w3.org/2000/svg">
<path d="M97.322 183.259C97.2351 180.425 101.523 158.674 102.501 155.095C102.654 154.536 106.094 154.135 107.061 153.972L107.261 152.899C105.389 151.567 105.4 153.672 102.976 152.978C104.642 145.267 116.104 129.99 120.756 123.018C122.135 120.952 129.401 111.084 131.041 109.718C142.044 100.556 156.871 96.0736 170.306 91.8452C176.062 90.067 181.741 91.1734 187.926 89C194.144 91.0831 193.556 90.6767 199.475 90.9251C203.82 91.2976 207.294 91.2299 211.208 93.0872C213.667 93.7194 247.534 107.285 248.196 107.979L248.093 109.933C249.417 110.892 250.923 110.548 252.663 110.475C257.021 111.034 266.877 114.827 270.306 117.362C275.155 116.775 277.723 117.424 282.344 118.451C301.277 122.663 321.696 120.484 340.57 124.633C342.036 124.955 360.904 132.627 361.454 133.146C364.754 135.201 368.487 138.379 370.791 139.762C374.857 140.722 390.087 160.441 393.371 164.918C393.63 165.273 395.31 171.325 395.325 171.856C396.471 174.142 397.344 175.807 398.218 178.235C400.844 183.587 401.525 185.534 400.713 191.688C400.088 196.424 400.901 199.806 399.92 205.75C396.243 228.038 379.382 248.236 380.958 271.196C381.687 273.589 383.365 278.546 384.446 280.652C388.899 289.334 400.392 295.877 407.281 302.696C415.372 310.701 424.542 320.073 428.503 330.934C430.64 336.794 434.323 352.939 433.06 358.562C431.603 357.862 431.425 356.067 430.634 354.063C430.468 357.015 431.6 362.779 431.36 363.976C429.879 371.332 424.053 380.409 419.831 386.574C418.413 388.646 416.95 389.792 415.546 391.988L409.241 394.393C407.881 396.239 406.443 398.113 405.22 400.049C397.968 402.736 392.683 405.774 384.749 407.292C380.205 408.156 373.254 407.851 369.562 408.946C369.624 409.499 369.685 410.053 369.747 410.606C366.572 411.074 365.467 408.184 362.13 408.624C362.043 410.058 362.003 409.595 362.319 410.939C359.343 411.357 353.403 407.755 349.996 409.195C350.517 410.617 350.285 410.154 351.214 411.357C347.609 411.735 343.174 410.47 339.485 410.504C331.506 410.572 326.169 411.176 318.428 408.777C315.733 410.092 314.194 410.583 311.131 410.533C296.45 410.301 281.398 409.347 266.751 409.166L186.591 408.647C169.452 408.41 151.766 409.053 134.555 408.212C130.456 408.015 128.84 407.207 125.626 404.763C124.107 404.842 118.281 405.192 117.231 404.769C110.316 401.974 98.3777 397.334 95.0577 390.48C90.874 388.076 88.2766 388.392 85.2513 384.417C79.7646 377.214 77.3795 368.763 70.796 362.457L70.7192 361.39C70.0265 352.352 65.477 346.255 70.0508 339.741C68.2353 339.989 68.8179 340.085 67.1186 339.724C66.5564 337.556 68.1415 324.047 68.7659 321.529C69.8188 315.861 71.439 307.393 74.0138 302.273C81.4695 287.449 93.796 276.632 100.969 261.994C101.985 259.516 101.882 255.982 102.71 253.543C105.761 244.567 106.507 237.516 100.637 229.313C101.028 226.242 100.64 221.365 100.485 218.119C99.2369 215.121 98.9806 214.478 98.5086 211.288C97.5393 207.98 97.2514 201.951 96.9517 198.281C96.1551 193.201 96.1207 188.267 97.322 183.259Z" fill="#F07350"/>
<path d="M68.7659 321.527C70.9834 324.869 72.5183 336.662 70.0508 339.739C68.2353 339.987 68.8179 340.083 67.1186 339.722C66.5564 337.554 68.1415 324.045 68.7659 321.527Z" fill="#EB7F6C"/>
<path d="M395.326 171.855C396.472 174.142 397.345 175.807 398.219 178.235C400.845 183.586 401.526 185.534 400.714 191.687L400.056 191.366C400.057 186.782 398.649 188.43 396.528 183.908C393.765 179.42 394.517 177.162 395.326 171.855Z" fill="#EB7F6C"/>
<path d="M252.664 110.475C257.022 111.033 266.878 114.827 270.307 117.362C270.1 117.441 269.892 117.526 269.684 117.605C259.668 117.322 259.449 115.64 252.664 110.475Z" fill="#EB7F6C"/>
<path d="M97.3225 183.258C98.6836 185.956 99.1222 186.312 101.677 187.921C98.2907 192.668 98.6864 192.64 96.9522 198.28C96.1556 193.199 96.1212 188.265 97.3225 183.258Z" fill="#EB7F6C"/>
<path d="M361.451 133.146C364.752 135.201 368.484 138.38 370.788 139.763C368.544 141.665 363.799 139.407 361.512 138.137C360.467 136.573 361.111 135.636 361.451 133.146Z" fill="#EBA4A1"/>
<path d="M199.473 90.9258C203.818 91.2984 207.291 91.2306 211.205 93.0879C205.074 93.6129 203.328 96.763 199.473 90.9258Z" fill="#EB7F6C"/>
<path d="M98.5078 211.289L99.2287 210.605C99.3207 210.826 99.4127 211.046 99.5053 211.266C101.887 210.645 100.805 210.526 102.879 211.289C103.595 214.247 102.102 215.596 100.484 218.119C99.2361 215.122 98.9798 214.478 98.5078 211.289Z" fill="#EB7F6C"/>
<path d="M179.957 206.644C179.315 204.798 179.39 204.911 179.692 202.957C182.516 199.006 186.872 202.703 190.684 203.641L191.774 203.895C194.289 204.679 199.365 205.086 201.016 205.797C212.687 210.855 222.521 222.36 220.298 235.576C219.519 236.727 219.417 236.665 218.222 237.433C221.069 244.45 214.214 251.484 208.898 255.487C206.869 257.824 205.181 258.693 202.593 260.359C198.03 260.641 186.375 263.797 185.008 257.925L185.912 256.52C185.623 255.842 185.766 256.249 185.554 255.148L185.378 254.205L183.892 254.29C183.707 254.922 183.76 255.549 183.766 256.204C178.206 261.318 177.247 256.221 171.944 257.384C166.709 258.53 170.456 256.266 165.329 253.833C164.002 253.646 164.411 253.697 163.155 253.02C163.152 251.637 163.178 251.591 162.832 250.265C161.161 249.954 160.701 250.056 159.454 248.927C159.884 247.019 160.432 247.041 162.134 245.416L160.01 245.619C159.078 244.456 158.123 243.428 157.129 242.322L158.964 240.335C157.948 238.144 150.541 236.157 154.236 230.766L155.824 231.669C156.921 230.535 156.731 224.889 157.542 223.072C157.995 222.055 158.393 223.794 160.197 221.959L157.974 221.807L157.626 220.808C158.946 218.747 164.437 210.048 165.874 210.144C172.886 210.618 168.875 210.138 173.565 206.525C175.238 207.417 175.619 207.62 177.484 208.264C179.623 207.733 178.875 208.326 179.957 206.644Z" fill="#000101"/>
<path d="M179.959 206.644C179.317 204.798 179.392 204.911 179.694 202.957C182.518 199.006 186.874 202.703 190.686 203.641L191.776 203.895C194.291 204.679 199.367 205.086 201.018 205.797C212.689 210.855 222.523 222.36 220.3 235.576C219.521 236.727 219.419 236.665 218.224 237.433C221.071 244.45 214.216 251.484 208.9 255.487C206.871 257.824 205.183 258.693 202.595 260.359C198.032 260.641 186.377 263.797 185.01 257.925L185.914 256.52L187.958 252.641L188.411 251.123C190.621 251.066 191.905 251.066 194.141 250.773C195.741 249.045 193.699 248.639 194.627 245.749C196.587 246.437 195.712 246.539 197.386 246.053C198.527 244.055 200.192 241.441 199.649 239.178C198.608 240.126 198.98 240.002 197.758 240.482L197.873 239.443L200.547 238.178C200.62 237.145 201.039 232.923 200.694 231.788C200.519 231.212 199.934 232.064 198.856 230.653C201.533 226.78 203.078 224.003 198.925 220.232L196.236 217.816C196.784 216.613 196.884 216.325 197.226 215.044C195.138 213.644 195.985 215.321 192.131 215.501C192.445 215.05 192.754 214.592 193.056 214.129C194.534 211.837 194.194 212.176 193.723 209.856C193.485 211.55 193.64 211.589 192.515 212.814C188.975 212.306 191.107 208.462 184.677 208.597L184.557 208.123L183.787 207.716C181.994 207.982 181.552 207.53 179.959 206.644Z" fill="#FEFDFC"/>
<path d="M179.959 206.644C179.317 204.798 179.392 204.911 179.694 202.957C182.518 199.006 186.874 202.703 190.686 203.641L191.776 203.895C194.291 204.679 199.367 205.086 201.018 205.797C212.689 210.855 222.523 222.36 220.3 235.576C219.521 236.727 219.419 236.665 218.224 237.433C216.257 234.498 219.393 222.603 213.12 220.04C209.594 218.595 212.416 217.133 210.99 215.625C207.339 211.77 199.081 207.214 193.927 206.582L193.328 207.22L193.723 209.856C193.485 211.55 193.64 211.589 192.515 212.814C188.975 212.306 191.107 208.462 184.677 208.597L184.557 208.123L183.787 207.716C181.994 207.982 181.552 207.53 179.959 206.644Z" fill="#F1DED7"/>
<path d="M179.959 206.644C179.317 204.798 179.392 204.911 179.694 202.957C182.518 199.006 186.874 202.703 190.686 203.641L191.776 203.895C188.936 204.256 185.105 205.074 184.677 208.597L184.557 208.123L183.787 207.716C181.994 207.982 181.552 207.53 179.959 206.644Z" fill="#EB7F6C"/>
<path d="M185.912 256.519L187.956 252.641C188.508 255.288 190.47 258.41 193.292 259.488C198.997 261.662 205.28 255.943 208.898 255.486C206.869 257.823 205.181 258.692 202.593 260.358C198.03 260.64 186.375 263.796 185.008 257.925L185.912 256.519Z" fill="#F1DED7"/>
<path d="M165.328 253.831C170.216 251.347 169.812 257.19 174.789 255.959C177.642 255.259 179.118 253.204 182.321 253.385L183.891 254.288C183.706 254.92 183.759 255.547 183.765 256.202C178.205 261.316 177.246 256.219 171.943 257.382C166.708 258.528 170.455 256.264 165.328 253.831Z" fill="#32090A"/>
<path d="M287.992 214.409C286.045 213.488 280.746 211.309 279.859 209.791C283.597 208.933 293.335 207.657 296.568 209.147C296.289 210.096 296.181 210.474 296.128 211.479C301.939 211.902 308.819 215.876 312.605 220.201C315.919 223.994 315.845 228.245 318.005 232.315C321.213 237.803 314.778 243.07 314.764 246.417L316.453 248.512C315.471 252.847 307.573 254.552 308.52 257.527L309.95 258.577L309.873 259.497L309.156 260.056L308.608 259.768C307.903 259.407 307.36 259.17 306.639 258.865C301.021 261.744 289.267 268.874 284.081 262.879C283.834 261.507 282.973 260.124 282.886 259.04C282.49 258.69 279.441 258.701 278.696 258.673C278.628 259.791 278.615 259.706 278.353 260.79L276.251 259.339L276.833 261.676C275.747 262.845 276.397 262.444 274.765 262.817C273.105 261.947 272.387 259.701 271.534 257.888L270.695 257.776C270.262 259.215 270.559 258.543 269.822 259.802C265.877 259.373 261.228 255.224 258.843 252.17C256.538 249.223 259.09 250.442 259.725 247.507L258.917 247.072L257.477 248.218L256.774 247.913C256.291 246.818 253.923 245.051 254.019 244.498C254.509 241.698 254.201 242.161 252.651 240.004L252.962 239.372C253.646 239.812 254.218 240.253 254.822 240.783L255.504 239.705C254.941 238.124 253.928 238.288 251.982 236.86C253.305 235.731 253.045 236.386 253.38 235.025L251.52 232.823C251.786 230.983 255.607 224.553 256.747 222.504L256.36 222.843C257.739 219.213 258.98 219.484 260.604 215.814C262.858 214.877 265.104 213.923 267.344 212.952L268.751 214.205L269.628 213.991C271.388 211.179 271.212 210.807 274.529 210.711L275.381 212.218L274.843 210.705L275.386 210.728L276.021 211.795L276.663 211.112L276.358 210.863C276.824 212.342 275.107 211.219 273.89 213.731L274.742 214.155C284.475 210.158 280.517 217.338 287.992 214.409Z" fill="#000101"/>
<path d="M287.996 214.409C286.049 213.488 280.75 211.309 279.863 209.791C283.601 208.933 293.339 207.657 296.572 209.147C296.293 210.096 296.185 210.474 296.132 211.479C301.944 211.902 308.823 215.876 312.609 220.201C315.924 223.994 315.849 228.245 318.009 232.315C321.217 237.803 314.783 243.07 314.768 246.417L316.457 248.512C315.475 252.847 307.577 254.552 308.525 257.527L309.954 258.577L309.877 259.497L309.161 260.056L308.612 259.768C307.908 259.407 307.365 259.17 306.643 258.865C301.025 261.744 289.271 268.874 284.085 262.879C283.838 261.507 282.977 260.124 282.89 259.04C286.119 258.809 288.367 257.764 287.982 254.236L288.813 254.134C290.361 252.954 296.836 250.623 296.15 247.264L293.839 247.575L293.421 247.083L294.056 246.146C295.734 245.819 295.683 245.892 297.129 245.017C297.545 242.962 299.614 234.466 298.998 233.275C297.682 234.376 298.382 234.173 296.912 234.444L296.672 233.778L298.017 232.011C297.792 228.646 297.57 232.417 296.099 229.668C296.805 228.742 297.484 227.799 298.135 226.839C297.856 220.934 292.317 222.645 289.901 220.483C290.276 218.27 290.962 220.596 293.135 218.53C292.215 216.847 289.7 215.526 287.996 214.409Z" fill="#FEFDFC"/>
<path d="M278.699 258.673C279.841 258.425 279.958 258.447 281.031 258.012C279.877 256.912 280.384 257.476 279.852 255.67L280.537 254.699C283.938 253.643 284.448 253.66 287.981 254.236C288.366 257.764 286.118 258.808 282.889 259.04C282.493 258.69 279.444 258.701 278.699 258.673Z" fill="#181313"/>
<path d="M194.988 297.846C198.09 298.184 199.221 299.009 201.939 300.437C204.709 299.918 201.74 300.397 203.535 298.077C204.731 298.326 204.551 298.156 205.34 298.879C210.597 303.694 208.693 299.776 212.224 300.211L212.96 302.08C214.223 302.441 215.347 301.843 216.775 301.126C222.278 298.359 228.033 302.52 234.057 301.837C241.631 296.496 242.918 302.718 246.871 302.96C249.59 303.13 253.257 300.409 257.314 301.408C261.797 302.514 268.359 304.372 271.903 303.655L271.795 301.961L272.69 301.769C273.999 302.622 274.263 302.836 275.696 303.412C278.988 302.277 281.806 300.736 283.976 304.456L283.154 306.342C283.976 308.718 286.346 306.404 286.739 307.189C288.582 310.858 288.044 311.519 291.504 314.352C288.945 317.26 289.668 316.582 289.155 320.788C286.912 323.599 283.776 325.553 280.267 326.332C276.602 327.122 270.339 328.488 266.847 327.794L269.846 326.337C268.966 325.062 268.286 325.259 266.373 324.672C264.865 326.14 265.473 326.761 263.59 327.179C255.057 322.77 256.409 327.777 248.765 326.58C248.742 325.756 248.736 324.932 248.744 324.102C246.346 323.633 243.325 326.631 240.634 326.422C239.491 325.259 239.026 324.587 237.483 324.023C236.452 324.977 236.929 324.469 236.052 325.547C233.418 325.31 232.879 325.073 230.386 324.068L229.705 323.791L228.939 325.248C226.938 325.62 222.063 325.22 220.034 324.717C219.569 323.515 219.597 323.56 218.945 322.397C214.898 323.949 210.719 325.626 206.504 324.582L208.349 323.261C205.761 321.545 192.046 323.701 187.566 323.233C181.784 322.634 182.717 320.782 177.544 321.793C176.097 320.145 176.547 320.624 176.138 318.107C173.891 316.876 173.767 318.807 171.207 317.57L171.133 316.718L172.913 316.193C173.44 314.883 173.416 315.561 172.91 314.166L171.331 313.449L173.594 311.761C174.371 309.915 173.501 306.867 173.439 304.58C175.081 302.221 174.845 305.117 177.725 303.367C178.188 300.877 177.922 300.375 180.125 299.488L181.018 300.555C183.625 301.08 186.447 298.58 190.463 298.681L191.045 300.375C194.15 301.069 192.021 300.335 194.214 299.551C194.698 299.376 196.208 301.391 197.915 300.911C197.291 298.834 197.314 299.409 194.988 297.846Z" fill="#000101"/>
<path d="M189.664 165.687L190.424 166.048C193.916 167.708 195.262 168.013 199.031 168.882C198.894 169.644 198.765 170.299 198.602 171.067C200.048 171.507 200.203 171.434 201.739 171.456L202.981 172.805L202.872 173.714C201.134 173.963 200.276 173.985 198.552 174.042L198.624 174.951C200.91 175.95 202.072 175.634 203.727 177.525C203.884 179.845 200.22 186.546 196.914 186.495L195.037 185.169C193.231 186.094 192.934 186.36 191.369 187.551C190.407 187.353 186.433 186.19 186.248 186.19C182.364 186.269 178.246 186.506 174.336 186.591L172.867 188.138L171.994 187.827L171.583 186.004C169.335 186.066 166.243 187.048 163.945 187.54C159.865 188.415 149.057 188.691 145.487 187.331C144.462 185.366 144.305 184.051 142.763 183.514C142.346 184.564 142.441 184.011 142.502 185.18C141.046 184.073 141.175 184.073 140.41 182.374C140.591 180.963 140.744 180.658 141.22 179.297C140.661 175.171 138.032 173.934 140.609 170.909C141.752 169.571 144.538 167.742 146.076 166.646C146.001 166.093 145.917 165.546 145.825 164.998C148.546 164.529 160.029 163.208 162.201 163.869L162.852 165.737L163.793 165.721C166.736 165.692 170.101 166.223 173.189 166.313L174.458 164.761C177.955 164.896 180.022 166.996 182.139 166.415L182.905 164.806L183.794 164.778L183.829 166.951C185.24 167.143 184.57 167.228 185.844 166.737C187.82 166.81 187.927 166.573 189.664 165.687Z" fill="#000101"/>
<path d="M185.842 166.736C187.818 166.809 187.925 166.572 189.662 165.686L191.031 167.543C190.623 169.445 191.098 168.672 189.449 169.874C187.522 170.078 187.662 170.066 185.947 169.129L185.359 168.006L185.842 166.736Z" fill="#181313"/>
<path d="M277.895 169.525C278.788 169.734 279.737 169.977 280.651 170.033C285.385 170.321 288.568 172.512 293.414 172.822L295.875 170.621C302.683 169.034 316.21 172.156 322.861 174.544C325.973 180.472 326.304 176.198 329.079 179.67L327.68 181.234C327.779 188.731 324.892 192.383 316.908 192.163C313.63 192.073 311.374 192.163 308.42 190.498C305.248 192.101 292.817 190.746 288.452 191.085C286.706 191.22 286.802 190.695 285.597 189.369C281.209 187.658 259.402 195.979 263.207 180.297L263.405 179.512L262.414 177.931C263.99 178.101 263.412 178.197 264.868 177.694L265.479 176.413C264.807 175.566 264.314 175.159 263.431 174.533C265.759 169.988 273.652 172.438 277.895 169.525Z" fill="#000101"/>
<path d="M250.307 228.158C252.033 222.411 253.348 219.957 256.484 214.778C256.998 213.932 256.884 210.783 257.181 209.791C257.955 207.239 260.169 203.078 261.73 200.896C273.273 184.802 285.087 179.687 303.281 175.91C303.146 176.765 303.259 176.281 302.917 177.39C306.938 178.09 316.719 174.277 321.171 177.781L318.627 179.01L318.813 179.474C321.557 179.443 322.762 177.163 325.293 176.973C326.797 185.157 330.484 179.004 335.721 181.452C345.047 185.808 361.283 198.782 365.305 208.36C366.719 210.457 368.79 213.389 369.908 215.605C369.916 217.886 376.335 234.434 377.739 237.338C381.393 236.702 386.497 236.474 390.011 237.9C391.725 239.706 392.199 247.071 392.296 249.735C393.201 250.802 388.086 257.445 387.742 257.519C377.848 259.609 375.931 252.487 373.584 266.828C373.086 269.892 366.728 280.611 363.573 283.48L363.71 283.777L364.88 283.92C358.246 293.532 353.292 302.78 343.038 309.161C334.479 314.82 326.234 315.256 317.137 317.188C304.483 319.884 306.407 320.014 293.271 317.39L293.006 316.465C291.981 315.896 292.528 315.986 291.365 316.211L291.885 317.678L291.352 317.915C287.515 316.313 277.94 310.082 273.78 307.779C272.917 307.3 268.965 301.5 267.165 300.793L266.881 302.074L265.958 301.707C265.683 298.469 263.369 298.149 260.248 295.152L260.596 293.559L259.541 293.955C260.159 290.774 256.482 286.089 254.68 282.957C251.044 276.625 247.987 262.757 249.316 255.514C248.601 255.38 248.155 255.317 247.441 255.229C247.358 253.89 247.858 252.392 248.193 251.059C246.426 250.076 241.09 251.24 238.563 248.986C237.893 248.391 235.518 248.076 234.692 248.734C233.776 249.464 232.664 250.757 232.116 251.876C227.04 262.74 221.6 273.487 215.407 283.767C214.897 284.614 214.536 286.856 214.375 287.825C210.427 290.34 200.518 300.551 198.196 301.262L198.123 299.854C196.24 300.995 196.957 303.433 195.147 304.194C191.831 305.574 188.383 306.643 185.022 307.875C170.87 313.059 155.34 312.632 141.399 307.043C135.863 304.825 131.494 301.522 126.197 299.149C124.909 298.571 125.225 299.23 123.98 298.097L124.449 296.774L123.926 296.221C122.512 296.773 123.069 296.775 121.705 296.549C120.008 294.637 118.326 292.921 117.025 290.725L117.807 289.456C117.213 289.303 113.662 288.339 113.448 287.878C111.158 282.955 106.323 277.553 104.47 272.633C105.094 271.822 104.918 272.27 105.036 271.316C103.876 271.295 104.39 271.452 103.479 270.928C102.695 268.718 102.115 266.457 101.563 264.179C99.7867 256.839 97.4555 249.656 95.5226 242.356C95.9629 241.045 96.3328 240.406 96.0413 239.062C93.5166 235.837 92.1596 237.103 88.8489 236.347C85.012 235.474 83.566 232.172 81.6619 229.042C82.0018 225.646 82.3818 220.019 83.2599 216.898C88.0284 217.139 87.2659 211.97 94.4128 215.202C97.894 216.775 104.615 200.399 107.013 196.738C113.489 186.859 123.643 182.771 133.256 176.256C134.253 176.558 133.745 176.439 134.778 176.614C135.345 175.817 135.789 175.253 136.413 174.498L136.834 174.862L136.199 177.094L136.693 177.077L137.782 175.384C141.243 173.726 141.567 173.284 145.265 174.147L145.777 174.271L149.105 171.865C153.031 172.116 158.44 171.51 162.923 171.638L163.88 172.708C166.984 173.102 163.459 171.889 166.408 171.171L166.757 172.362C171.254 172.56 179.393 174.691 183.01 173.732C183.248 174.45 183.256 174.664 183.274 175.399C186.941 177.171 190.593 178.959 194.355 180.51C194.815 180.37 195.275 180.235 195.736 180.095C196.445 180.382 196.38 180.252 196.833 180.883C199.413 184.441 207.643 187.54 210.33 190.766C212.515 193.396 214.064 199.418 217.38 202.35C217.641 201.871 217.897 201.396 218.159 200.918C219.734 201.706 219.773 202.35 220.942 204.03C220.165 204.914 220.359 204.533 220.047 205.672C222.676 209.987 225.291 215.104 227.501 219.584C228.343 221.292 228.488 226.78 229.917 227.07C235.666 228.249 244.858 228.804 250.307 228.158Z" fill="#121211"/>
<path d="M369.908 215.604L367.881 216.759L367.301 216.476C366.839 213.526 364.324 210.094 364.237 209.149L365.305 208.36C366.719 210.456 368.79 213.389 369.908 215.604Z" fill="#474442"/>
<path d="M162.277 190.049C162.232 191.212 162.181 190.758 162.697 191.877C164.112 192.636 164.248 192.148 166.405 191.537C166.25 192.562 166.271 192.057 166.331 193.056C170.624 192.854 167.438 193.17 169.454 194.575L170.18 194.092L169.544 192.691L170.318 192.577C170.696 193.161 171.041 193.673 171.442 194.24C172.592 193.08 172.145 193.1 173.358 192.823L172.934 194.099C174.022 195.02 175.068 193.82 175.483 194.063C177.769 195.394 177.399 192.845 179.766 193.411L178.876 194.71C179.065 194.793 179.249 194.88 179.438 194.967C181.783 194.857 185.095 196.655 187.228 197.91C186.992 199.152 186.937 198.689 187.315 199.849L187.929 200.04C188.545 199.466 188.583 199.464 189.281 198.987L189.976 199.338L189.447 200.453L189.634 200.843L191.747 200.851C194.406 204.02 197.539 206.051 199.767 208.8C199.41 209.462 199.302 209.678 198.991 210.395C200.438 211.629 201.16 212.33 202.806 213.245C203.565 212.624 203.168 212.787 203.927 212.631L204.005 213.366C203.255 213.936 202.585 214.409 201.804 214.945L202.108 215.51C203.38 215.399 203.718 215.353 204.977 215.473C205.706 216.686 206.084 217.92 205.442 219.195L204.323 219.047C204.965 220.235 205.649 221.946 206.569 222.74L207.772 221.941L208.216 222.311L208.03 223.441C206.832 231.06 211.077 224.105 210.225 230.239C209.339 236.588 210.804 233.448 212.504 235.787L212.202 236.384L210.714 236.8C212.156 240.748 210.315 238.176 211.274 240.738C212.133 240.686 211.812 240.552 212.313 240.899C211.455 242.005 211.074 242.271 210.812 243.632C211.315 244.137 211.819 244.441 212.415 244.822C212.984 246.112 213.086 246.049 212.801 247.4C209.767 249.929 209.927 250.823 209.74 254.624C208.365 254.686 208.965 254.481 207.842 255.192L208.772 256.108L208.528 257.006L207.255 257.535C206.076 260.844 205.715 262.287 203.726 265.149L203.324 265.715L204.262 266.311C203.855 267.216 202.913 268.27 202.119 268.86C199.095 271.106 198.938 274.877 196.821 277.967C194.596 278.229 193.831 278.013 192.58 279.946L193.79 281.253L193.567 282.106C191.576 281.623 191.678 281.231 190.177 281.887C189.576 283.439 189.51 283.852 188.359 285.105C185.188 286.003 184.076 286.013 182.743 289.265C181.397 290.044 175.655 291.831 174.338 291.334C170.684 292.63 164.444 292.096 160.754 290.853L160.174 290.65L159.38 291.635C157.317 292.104 154.995 291.021 153.691 289.476C151.96 289.313 151.866 289.26 150.235 288.541L149.834 288.36C149.28 289.181 149.647 288.909 148.762 289.205C143.019 285.634 135.071 281.496 132.23 275.23C130.779 275.913 131.426 275.959 130.207 275.594C129.684 274.303 129.788 274.074 128.811 273.234L127.858 274.106L127.251 273.878C126.716 272.233 126.77 273.119 127.672 271.12C126.591 270.565 125.376 270.062 124.525 269.222L125.438 268.12L125.112 267.27L123.686 267.328C121.939 265.013 124.962 266.688 123.683 265.112C122.849 264.087 121.613 263.229 121.008 261.789C121.892 261.037 121.645 261.373 122.198 260.376L120.625 259.155C120.605 258.048 120.628 258.054 120.977 257.043C116.983 255.83 118.21 252.301 117.928 248.174L116.483 246.981L116.425 246.15C117.032 245.979 117.582 245.813 118.185 245.623L116.005 241.986C116.407 241.363 116.812 240.746 117.223 240.129C116.259 239.1 115.556 238.591 115.317 237.217C117.074 236.676 116.481 237.187 117.42 235.985C117.253 235.848 116.496 235.181 116.39 235.23C115.244 235.739 117.574 230.132 117.245 229.584C116.551 228.411 116.645 230.258 115.815 227.979C116.402 227.63 116.954 227.366 117.581 227.108L117.48 226.367L116.2 225.734L116.119 225.357C116.607 225.224 117.938 224.861 117.961 224.598C118.216 221.694 118.304 218.434 119.891 215.878C120.812 214.4 120.532 214.882 122.411 214.461C123.89 206.336 129.509 202.925 136.083 198.609L135.994 197.223C139.648 195.801 141.037 196.126 144.288 194.695C145.764 194.051 144.79 193.1 146.569 192.564L147.182 193.639L147.684 193.298C147.779 192.208 147.627 192.323 148.085 191.425C148.676 192.196 148.328 191.791 149.154 192.611C152.011 192.481 159.962 191.458 162.277 190.049Z" fill="#FEFEFE"/>
<path d="M166.399 230.856C168.546 232.233 170.612 230.733 173.623 231.645L173.817 232.328L172.63 234.024C173.751 234.209 173.498 232.979 175.401 231.932L176.583 233.167L177.954 232.371L178.513 232.814L177.657 233.897C178.567 234.834 178.553 234.694 179.763 235.262C180.606 236.822 182.607 241.231 182.268 242.955L180.892 242.505L180.457 243.139C180.745 244 180.997 244.784 181.247 245.661L179.683 246.365C180.577 247.993 181.417 248.74 180.556 250.412C179.398 250.229 179.441 250.218 178.286 250.388L177.709 252.136C175.491 255.015 164.003 252.473 162.54 250.21C162.984 249.103 162.805 249.676 163.073 248.501C162.803 248.31 162.537 248.12 162.273 247.92C160.469 246.544 160.14 245.861 159.853 243.718L160.969 242.783C160.925 241.224 160.656 239.421 160.46 237.846C162.39 234.822 167.448 235.05 166.399 230.856Z" fill="#121211"/>
<path d="M315.921 196.243L316.578 196.284C316.503 197.552 316.276 197.076 316.94 197.871C318.03 197.246 318.116 197.07 319.334 196.928L320.383 198.409C321.632 198.288 322.88 198.18 324.132 198.082C327.164 199.697 328.697 200.032 330.811 202.754L331.114 203.137C332.342 204.705 334.171 202.938 336.027 204.299L335.564 205.135C335.792 205.922 345.329 214.168 346.534 215.279C346.811 216.367 346.795 216.463 346.773 217.567C348.837 219.143 346.904 217.228 349.014 217.682C350.017 223.788 352.531 224.247 354.866 229.721C355.348 230.86 353.674 231.946 354.154 234.112C355.534 234.65 355.149 234.377 356.252 235.272C354.317 239.285 356.392 236.727 357.041 239.996L355.985 240.28C355.977 242.728 356.613 240.334 357.305 242.993C355.941 244.7 355.604 244.593 355.787 246.236C356.966 247.104 356.651 246.701 357.419 247.879C356.745 248.482 356.699 248.535 356.124 249.187C356.458 250.381 356.534 250.298 357.285 251.312L356.686 253.161C355.951 255.373 355.662 255.914 355.949 258.262C354.929 258.163 355.207 258.168 354.107 258.282L353.838 259.271L354.923 260.1L354.9 260.837L353.071 261.345C352.718 265.725 352.558 267.744 349.212 270.404C348.13 271.267 347.292 272.751 347.273 274.218L348.427 274.521C347.444 276.557 345.955 274.664 344.979 276.659C338.313 290.242 331.034 290.894 319.133 298.437C317.033 296.511 315.06 299.481 312.266 300.298C307.352 301.738 305.303 301.404 300.751 299.46L300.657 299.151C300.386 299.364 300.116 299.573 299.846 299.787L299.292 299.074L300.058 297.553L299.594 297.274C298.767 298.201 298.353 298.883 297.173 299.205C295.966 297.875 295.07 297.933 293.668 296.715L293.876 295.136C291.821 294.491 294.012 295.513 291.883 296.13L289.872 293.927L288.533 293.875L288.667 292.755L288.219 292.464L286.111 293.631C286.028 292.891 286.181 292.572 286.356 291.855L285.57 291.214C284.176 291.21 282.536 291.476 281.858 290.142L283.154 289.085C280.86 287.935 278.033 285.186 276.216 283.261C275.126 282.107 276.569 282.998 276.905 281.395C275.654 281.475 276.15 281.686 275.283 281.068L275.503 279.517L273.601 278.813C272.885 276.161 274.078 278.897 274.276 276.672L272.7 276.417C270.783 273.802 269.371 263.905 268.99 260.459L270.147 259.197C269.504 258.228 269.812 258.663 268.407 258.105C268.205 256.799 266.937 250.355 267.097 249.664C267.487 248.005 268.412 245.157 268.77 242.896C267.895 243.174 268.382 243.059 267.294 243.197L267.287 242.444C268.187 241.536 268.805 241.063 269.292 239.876C268.627 238.756 268.443 238.734 268.494 237.478C269.218 236.423 269.744 235.884 269.86 234.614L268.916 234.502C268.899 233.084 270.983 229.666 271.724 227.776L271.033 226.552C271.13 224.18 271.162 226.7 273.035 224.378L272.349 223.15C272.765 217.539 275.313 217.718 277.726 213.115C279.357 209.991 281.318 208.651 283.378 205.901L282.92 204.809L283.314 204.233L284.022 204.073C287.995 203.199 287.768 203.058 290.98 200.57C297.484 195.538 308.092 197.516 315.921 196.243Z" fill="#FEFEFE"/>
<path d="M310.485 237.467C311.245 237.158 310.809 237.22 311.801 237.452L312.005 238.586C313.061 239.018 313.416 239.071 314.533 239.363C314.412 240.302 314.462 239.79 314.402 240.901C315.621 242.343 314.855 241.801 316.974 242.265L317.354 242.877L316.379 243.989C316.411 245.789 318.401 246.835 318.772 248.175C320.204 253.326 311.65 262.507 306.556 261.732C303.608 261.767 300.536 260.131 298.16 258.357C297.18 257.624 298.481 258.152 298.501 256.146C297.738 255.953 297.11 255.775 296.363 255.555C295.453 253.554 296.512 254.023 296.599 251.056L295.343 250.025L295.457 249.052C296.168 248.791 296.637 248.596 297.323 248.277C297.641 240.489 300.584 242.187 306.391 238.737C308.306 237.598 308.065 237.721 310.485 237.467Z" fill="#121211"/>
</svg>
