<svg width="500" height="500" viewBox="0 0 500 500" fill="none" xmlns="http://www.w3.org/2000/svg">
<path d="M105.856 236.485C105.779 233.975 109.577 214.71 110.443 211.54C110.579 211.045 113.626 210.69 114.482 210.545L114.659 209.595C113.001 208.415 113.011 210.28 110.864 209.665C112.339 202.835 122.492 189.305 126.612 183.13C127.833 181.3 134.269 172.56 135.721 171.35C145.467 163.235 158.599 159.265 170.498 155.52C175.596 153.945 180.626 154.925 186.104 153C191.611 154.845 191.09 154.485 196.333 154.705C200.181 155.035 203.258 154.975 206.724 156.62C208.902 157.18 238.899 169.195 239.485 169.81L239.394 171.54C240.566 172.39 241.9 172.085 243.441 172.02C247.301 172.515 256.03 175.875 259.068 178.12C263.362 177.6 265.636 178.175 269.729 179.085C286.499 182.815 304.584 180.885 321.3 184.56C322.599 184.845 339.31 191.64 339.797 192.1C342.72 193.92 346.026 196.735 348.066 197.96C351.668 198.81 365.157 216.275 368.065 220.24C368.295 220.555 369.783 225.915 369.796 226.385C370.811 228.41 371.585 229.885 372.358 232.035C374.685 236.775 375.288 238.5 374.568 243.95C374.015 248.145 374.735 251.14 373.866 256.405C370.609 276.145 355.676 294.035 357.071 314.37C357.717 316.49 359.203 320.88 360.161 322.745C364.105 330.435 374.284 336.23 380.386 342.27C387.552 349.36 395.673 357.66 399.182 367.28C401.074 372.47 404.337 386.77 403.218 391.75C401.927 391.13 401.77 389.54 401.069 387.765C400.922 390.38 401.925 395.485 401.712 396.545C400.4 403.06 395.24 411.1 391.501 416.56C390.245 418.395 388.949 419.41 387.706 421.355L382.122 423.485C380.917 425.12 379.643 426.78 378.56 428.495C372.137 430.875 367.456 433.565 360.429 434.91C356.405 435.675 350.248 435.405 346.978 436.375C347.033 436.865 347.087 437.355 347.142 437.845C344.33 438.26 343.351 435.7 340.396 436.09C340.318 437.36 340.283 436.95 340.563 438.14C337.927 438.51 332.666 435.32 329.649 436.595C330.11 437.855 329.904 437.445 330.727 438.51C327.534 438.845 323.607 437.725 320.339 437.755C313.272 437.815 308.545 438.35 301.689 436.225C299.302 437.39 297.939 437.825 295.226 437.78C282.223 437.575 268.891 436.73 255.919 436.57L184.922 436.11C169.741 435.9 154.077 436.47 138.834 435.725C135.203 435.55 133.771 434.835 130.925 432.67C129.579 432.74 124.42 433.05 123.489 432.675C117.365 430.2 106.791 426.09 103.851 420.02C100.145 417.89 97.8446 418.17 95.1651 414.65C90.3056 408.27 88.1931 400.785 82.3621 395.2L82.2941 394.255C81.6806 386.25 77.6511 380.85 81.7021 375.08C80.0941 375.3 80.6101 375.385 79.1051 375.065C78.6071 373.145 80.0111 361.18 80.5641 358.95C81.4966 353.93 82.9316 346.43 85.2121 341.895C91.8156 328.765 102.733 319.185 109.086 306.22C109.986 304.025 109.895 300.895 110.629 298.735C113.331 290.785 113.991 284.54 108.793 277.275C109.138 274.555 108.795 270.235 108.658 267.36C107.552 264.705 107.325 264.135 106.907 261.31C106.049 258.38 105.794 253.04 105.528 249.79C104.823 245.29 104.792 240.92 105.856 236.485Z" fill="#F07350"/>
<path d="M80.5641 358.949C82.5281 361.909 83.8876 372.354 81.7021 375.079C80.0941 375.299 80.6101 375.384 79.1051 375.064C78.6071 373.144 80.0111 361.179 80.5641 358.949Z" fill="#EB7F6C"/>
<path d="M369.796 226.385C370.811 228.41 371.584 229.885 372.358 232.035C374.684 236.775 375.287 238.5 374.568 243.95L373.985 243.665C373.986 239.605 372.739 241.065 370.86 237.06C368.413 233.085 369.079 231.085 369.796 226.385Z" fill="#EB7F6C"/>
<path d="M243.441 172.02C247.301 172.515 256.03 175.875 259.068 178.12C258.884 178.19 258.7 178.265 258.516 178.335C249.644 178.085 249.45 176.595 243.441 172.02Z" fill="#EB7F6C"/>
<path d="M105.856 236.484C107.061 238.874 107.45 239.189 109.712 240.614C106.713 244.819 107.064 244.794 105.528 249.789C104.822 245.289 104.792 240.919 105.856 236.484Z" fill="#EB7F6C"/>
<path d="M339.795 192.1C342.718 193.92 346.024 196.735 348.065 197.96C346.077 199.645 341.875 197.645 339.849 196.52C338.924 195.135 339.494 194.305 339.795 192.1Z" fill="#EBA4A1"/>
<path d="M196.332 154.705C200.181 155.035 203.257 154.975 206.724 156.62C201.294 157.085 199.747 159.875 196.332 154.705Z" fill="#EB7F6C"/>
<path d="M106.906 261.31L107.545 260.705C107.626 260.9 107.708 261.095 107.79 261.29C109.899 260.74 108.941 260.635 110.778 261.31C111.412 263.93 110.089 265.125 108.657 267.36C107.551 264.705 107.324 264.135 106.906 261.31Z" fill="#EB7F6C"/>
<path d="M179.044 257.196C178.476 255.561 178.542 255.661 178.809 253.931C181.311 250.431 185.169 253.706 188.545 254.536L189.511 254.761C191.738 255.456 196.234 255.816 197.696 256.446C208.033 260.926 216.743 271.116 214.774 282.821C214.084 283.841 213.994 283.786 212.935 284.466C215.457 290.681 209.386 296.911 204.677 300.456C202.88 302.526 201.385 303.296 199.093 304.771C195.051 305.021 184.729 307.816 183.518 302.616L184.318 301.371C184.063 300.771 184.189 301.131 184.002 300.156L183.845 299.321L182.529 299.396C182.366 299.956 182.413 300.511 182.418 301.091C177.493 305.621 176.644 301.106 171.947 302.136C167.311 303.151 170.629 301.146 166.088 298.991C164.913 298.826 165.275 298.871 164.162 298.271C164.16 297.046 164.183 297.006 163.876 295.831C162.397 295.556 161.989 295.646 160.885 294.646C161.266 292.956 161.751 292.976 163.259 291.536L161.377 291.716C160.552 290.686 159.706 289.776 158.825 288.796L160.451 287.036C159.551 285.096 152.991 283.336 156.263 278.561L157.669 279.361C158.641 278.356 158.473 273.356 159.191 271.746C159.592 270.846 159.945 272.386 161.543 270.761L159.574 270.626L159.265 269.741C160.435 267.916 165.298 260.211 166.571 260.296C172.782 260.716 169.229 260.291 173.383 257.091C174.865 257.881 175.202 258.061 176.854 258.631C178.749 258.161 178.086 258.686 179.044 257.196Z" fill="#000101"/>
<path d="M179.047 257.196C178.479 255.561 178.545 255.661 178.813 253.931C181.314 250.431 185.172 253.706 188.548 254.536L189.514 254.761C191.742 255.456 196.237 255.816 197.7 256.446C208.036 260.926 216.746 271.116 214.777 282.821C214.087 283.841 213.997 283.786 212.939 284.466C215.461 290.681 209.389 296.911 204.681 300.456C202.883 302.526 201.388 303.296 199.096 304.771C195.055 305.021 184.732 307.816 183.521 302.616L184.322 301.371L186.132 297.936L186.533 296.591C188.491 296.541 189.628 296.541 191.609 296.281C193.026 294.751 191.217 294.391 192.039 291.831C193.775 292.441 193 292.531 194.483 292.101C195.493 290.331 196.968 288.016 196.487 286.011C195.565 286.851 195.895 286.741 194.812 287.166L194.914 286.246L197.283 285.126C197.347 284.211 197.718 280.471 197.412 279.466C197.258 278.956 196.74 279.711 195.784 278.461C198.156 275.031 199.524 272.571 195.846 269.231L193.464 267.091C193.949 266.026 194.038 265.771 194.341 264.636C192.492 263.396 193.242 264.881 189.828 265.041C190.107 264.641 190.38 264.236 190.648 263.826C191.956 261.796 191.656 262.096 191.238 260.041C191.027 261.541 191.165 261.576 190.168 262.661C187.033 262.211 188.922 258.806 183.227 258.926L183.12 258.506L182.438 258.146C180.85 258.381 180.458 257.981 179.047 257.196Z" fill="#FEFDFC"/>
<path d="M179.047 257.196C178.479 255.561 178.545 255.661 178.813 253.931C181.314 250.431 185.172 253.706 188.548 254.536L189.514 254.761C191.742 255.456 196.237 255.816 197.7 256.446C208.036 260.926 216.746 271.116 214.777 282.821C214.087 283.841 213.997 283.786 212.939 284.466C211.196 281.866 213.974 271.331 208.418 269.061C205.295 267.781 207.795 266.486 206.532 265.151C203.298 261.736 195.984 257.701 191.419 257.141L190.888 257.706L191.238 260.041C191.027 261.541 191.165 261.576 190.168 262.661C187.033 262.211 188.922 258.806 183.227 258.926L183.12 258.506L182.438 258.146C180.85 258.381 180.458 257.981 179.047 257.196Z" fill="#F1DED7"/>
<path d="M179.047 257.196C178.479 255.561 178.545 255.661 178.813 253.931C181.314 250.431 185.172 253.706 188.548 254.536L189.514 254.761C186.999 255.081 183.606 255.806 183.227 258.926L183.12 258.506L182.438 258.146C180.85 258.381 180.458 257.981 179.047 257.196Z" fill="#EB7F6C"/>
<path d="M184.32 301.371L186.131 297.936C186.62 300.281 188.357 303.046 190.857 304.001C195.91 305.926 201.475 300.861 204.679 300.456C202.882 302.526 201.387 303.296 199.095 304.771C195.053 305.021 184.731 307.816 183.52 302.616L184.32 301.371Z" fill="#F1DED7"/>
<path d="M166.09 298.99C170.419 296.79 170.061 301.965 174.469 300.875C176.996 300.255 178.304 298.435 181.14 298.595L182.531 299.395C182.367 299.955 182.414 300.51 182.419 301.09C177.495 305.62 176.645 301.105 171.949 302.135C167.312 303.15 170.63 301.145 166.09 298.99Z" fill="#32090A"/>
<path d="M274.733 264.074C273.009 263.259 268.315 261.329 267.53 259.984C270.84 259.224 279.465 258.094 282.329 259.414C282.082 260.254 281.986 260.589 281.939 261.479C287.086 261.854 293.179 265.374 296.533 269.204C299.468 272.564 299.402 276.329 301.315 279.934C304.157 284.794 298.458 289.459 298.445 292.424L299.941 294.279C299.071 298.119 292.076 299.629 292.915 302.264L294.181 303.194L294.113 304.009L293.478 304.504L292.993 304.249C292.369 303.929 291.888 303.719 291.249 303.449C286.273 305.999 275.862 312.314 271.269 307.004C271.05 305.789 270.288 304.564 270.211 303.604C269.86 303.294 267.16 303.304 266.5 303.279C266.44 304.269 266.428 304.194 266.196 305.154L264.334 303.869L264.85 305.939C263.888 306.974 264.463 306.619 263.018 306.949C261.548 306.179 260.912 304.189 260.156 302.584L259.414 302.484C259.03 303.759 259.293 303.164 258.64 304.279C255.146 303.899 251.029 300.224 248.916 297.519C246.875 294.909 249.135 295.989 249.697 293.389L248.981 293.004L247.706 294.019L247.083 293.749C246.656 292.779 244.558 291.214 244.644 290.724C245.078 288.244 244.805 288.654 243.432 286.744L243.707 286.184C244.313 286.574 244.82 286.964 245.355 287.434L245.959 286.479C245.46 285.079 244.563 285.224 242.84 283.959C244.011 282.959 243.781 283.539 244.078 282.334L242.43 280.384C242.666 278.754 246.05 273.059 247.06 271.244L246.717 271.544C247.938 268.329 249.038 268.569 250.476 265.319C252.472 264.489 254.462 263.644 256.445 262.784L257.692 263.894L258.468 263.704C260.027 261.214 259.871 260.884 262.809 260.799L263.564 262.134L263.087 260.794L263.568 260.814L264.131 261.759L264.699 261.154L264.429 260.934C264.842 262.244 263.321 261.249 262.243 263.474L262.998 263.849C271.618 260.309 268.113 266.669 274.733 264.074Z" fill="#000101"/>
<path d="M274.735 264.074C273.01 263.259 268.317 261.329 267.531 259.984C270.842 259.224 279.467 258.094 282.33 259.414C282.083 260.254 281.988 260.589 281.941 261.479C287.088 261.854 293.181 265.374 296.534 269.204C299.47 272.564 299.404 276.329 301.317 279.934C304.158 284.794 298.459 289.459 298.446 292.424L299.942 294.279C299.073 298.119 292.077 299.629 292.917 302.264L294.183 303.194L294.114 304.009L293.48 304.504L292.994 304.249C292.37 303.929 291.889 303.719 291.25 303.449C286.274 305.999 275.864 312.314 271.271 307.004C271.052 305.789 270.289 304.564 270.212 303.604C273.072 303.399 275.063 302.474 274.722 299.349L275.458 299.259C276.829 298.214 282.564 296.149 281.956 293.174L279.91 293.449L279.539 293.014L280.102 292.184C281.588 291.894 281.543 291.959 282.824 291.184C283.192 289.364 285.025 281.839 284.479 280.784C283.313 281.759 283.933 281.579 282.631 281.819L282.418 281.229L283.61 279.664C283.411 276.684 283.214 280.024 281.911 277.589C282.536 276.769 283.138 275.934 283.715 275.084C283.468 269.854 278.561 271.369 276.421 269.454C276.754 267.494 277.362 269.554 279.286 267.724C278.471 266.234 276.244 265.064 274.735 264.074Z" fill="#FEFDFC"/>
<path d="M266.5 303.279C267.511 303.059 267.615 303.079 268.565 302.694C267.543 301.719 267.992 302.219 267.521 300.619L268.128 299.759C271.14 298.824 271.592 298.839 274.721 299.349C275.062 302.474 273.071 303.399 270.211 303.604C269.86 303.294 267.16 303.304 266.5 303.279Z" fill="#181313"/>
<path d="M192.359 337.975C195.106 338.275 196.108 339.005 198.515 340.27C200.968 339.81 198.339 340.235 199.929 338.18C200.988 338.4 200.829 338.25 201.528 338.89C206.183 343.155 204.497 339.685 207.625 340.07L208.276 341.725C209.395 342.045 210.39 341.515 211.655 340.88C216.53 338.43 221.626 342.115 226.962 341.51C233.67 336.78 234.81 342.29 238.311 342.505C240.719 342.655 243.968 340.245 247.561 341.13C251.531 342.11 257.343 343.755 260.482 343.12L260.386 341.62L261.179 341.45C262.338 342.205 262.572 342.395 263.841 342.905C266.757 341.9 269.253 340.535 271.175 343.83L270.447 345.5C271.175 347.605 273.274 345.555 273.622 346.25C275.255 349.5 274.778 350.085 277.842 352.595C275.576 355.17 276.216 354.57 275.762 358.295C273.776 360.785 270.998 362.515 267.89 363.205C264.644 363.905 259.097 365.115 256.004 364.5L258.66 363.21C257.88 362.08 257.279 362.255 255.584 361.735C254.249 363.035 254.787 363.585 253.119 363.955C245.562 360.05 246.759 364.485 239.989 363.425C239.969 362.695 239.963 361.965 239.97 361.23C237.846 360.815 235.171 363.47 232.787 363.285C231.775 362.255 231.363 361.66 229.997 361.16C229.083 362.005 229.505 361.555 228.729 362.51C226.396 362.3 225.918 362.09 223.711 361.2L223.108 360.955L222.429 362.245C220.656 362.575 216.339 362.22 214.542 361.775C214.13 360.71 214.155 360.75 213.578 359.72C209.993 361.095 206.291 362.58 202.559 361.655L204.192 360.485C201.9 358.965 189.753 360.875 185.785 360.46C180.664 359.93 181.49 358.29 176.908 359.185C175.627 357.725 176.026 358.15 175.664 355.92C173.673 354.83 173.564 356.54 171.296 355.445L171.23 354.69L172.807 354.225C173.274 353.065 173.252 353.665 172.804 352.43L171.406 351.795L173.41 350.3C174.098 348.665 173.328 345.965 173.273 343.94C174.727 341.85 174.518 344.415 177.069 342.865C177.479 340.66 177.243 340.215 179.194 339.43L179.985 340.375C182.295 340.84 184.794 338.625 188.351 338.715L188.866 340.215C191.616 340.83 189.731 340.18 191.673 339.485C192.102 339.33 193.439 341.115 194.951 340.69C194.398 338.85 194.419 339.36 192.359 337.975Z" fill="#000101"/>
<path d="M187.644 220.921L188.317 221.241C191.411 222.711 192.603 222.981 195.941 223.751C195.819 224.426 195.705 225.006 195.561 225.686C196.842 226.076 196.979 226.011 198.339 226.031L199.439 227.226L199.342 228.031C197.803 228.251 197.044 228.271 195.517 228.321L195.58 229.126C197.605 230.011 198.634 229.731 200.1 231.406C200.239 233.461 196.994 239.396 194.066 239.351L192.403 238.176C190.804 238.996 190.541 239.231 189.155 240.286C188.303 240.111 184.783 239.081 184.619 239.081C181.179 239.151 177.532 239.361 174.068 239.436L172.768 240.806L171.994 240.531L171.63 238.916C169.639 238.971 166.901 239.841 164.865 240.276C161.251 241.051 151.679 241.296 148.517 240.091C147.609 238.351 147.47 237.186 146.105 236.711C145.735 237.641 145.819 237.151 145.873 238.186C144.583 237.206 144.698 237.206 144.02 235.701C144.18 234.451 144.316 234.181 144.738 232.976C144.243 229.321 141.914 228.226 144.197 225.546C145.209 224.361 147.677 222.741 149.039 221.771C148.972 221.281 148.898 220.796 148.816 220.311C151.226 219.896 161.397 218.726 163.32 219.311L163.897 220.966L164.73 220.951C167.337 220.926 170.318 221.396 173.053 221.476L174.177 220.101C177.274 220.221 179.104 222.081 180.979 221.566L181.658 220.141L182.446 220.116L182.476 222.041C183.726 222.211 183.133 222.286 184.261 221.851C186.011 221.916 186.106 221.706 187.644 220.921Z" fill="#000101"/>
<path d="M184.26 221.85C186.01 221.915 186.105 221.705 187.643 220.92L188.855 222.565C188.494 224.25 188.915 223.565 187.455 224.63C185.747 224.81 185.871 224.8 184.353 223.97L183.832 222.975L184.26 221.85Z" fill="#181313"/>
<path d="M265.79 224.32C266.581 224.505 267.421 224.72 268.23 224.77C272.423 225.025 275.243 226.965 279.535 227.24L281.715 225.29C287.744 223.885 299.725 226.65 305.616 228.765C308.372 234.015 308.665 230.23 311.123 233.305L309.884 234.69C309.972 241.33 307.414 244.565 300.343 244.37C297.44 244.29 295.442 244.37 292.826 242.895C290.016 244.315 279.006 243.115 275.14 243.415C273.593 243.535 273.678 243.07 272.611 241.895C268.725 240.38 249.41 247.75 252.78 233.86L252.956 233.165L252.078 231.765C253.474 231.915 252.962 232 254.252 231.555L254.793 230.42C254.197 229.67 253.761 229.31 252.979 228.755C255.041 224.73 262.031 226.9 265.79 224.32Z" fill="#000101"/>
<path d="M127.893 163.547C128.061 163.36 128.223 163.171 128.385 162.982C128.883 152.038 133.892 143.399 138.211 133.779C143.138 122.812 142.152 117.567 153.256 108.75C161.865 101.913 166.833 95.397 180.981 92.0706C198.595 86.1473 221.045 91.2361 241.407 90.293C244.45 90.4054 249.034 92.2083 251.862 92.474C285.201 95.6088 314.758 111.049 344.981 123.176C370.253 133.317 390.906 160.234 390.619 177.349C390.308 195.876 384.26 215.254 380.563 233.238C387.416 238.989 393.797 245.371 390.043 251.843C388.434 251.028 389.122 251.12 387.696 251.007C387.64 251.585 387.567 252.16 387.464 252.728C385.415 263.544 360.291 272.154 344.637 271.922C342.107 271.884 337.855 272.169 335.339 271.572C334.771 270.963 334.437 270.616 333.81 270.018C328.456 272.197 322.035 267.398 316.04 267.159C299.675 266.506 284.134 263.444 267.994 258.11L264.141 258.847C259.71 256.958 257.77 256.198 253.012 254.928C245.166 252.834 237.301 250.674 229.463 248.529C225.221 247.367 221.019 245.476 216.776 244.249C204.802 241.285 193.189 237.506 181.409 233.934C180.955 232.787 181.273 233.101 180.317 232.137L178.829 233.462L178.136 233.203C177.723 232.524 177.31 231.848 176.884 231.172C176.438 231.495 176.043 231.766 175.583 232.074C172.511 231.47 169.32 229.298 166.5 228.333C156.28 224.835 147.279 220.877 138.268 215.644C135.383 213.969 125.845 206.863 124.856 204.451C124.426 203.349 125.026 203.933 123.991 202.961C113.906 193.481 108.722 179.351 113.398 170.106C115.398 166.157 122.126 164.374 127.893 163.547Z" fill="#0167FC"/>
<path d="M127.893 163.547C129.493 164.282 144.102 167.353 147.843 168.328C161.616 171.766 175.389 174.839 189.13 178.514C191.633 179.183 192.515 178.688 196.483 179.9C210.33 184.128 224.837 188.179 238.845 191.829C239.128 192.669 239.029 192.278 238.546 193.154C242.082 194.339 245.832 194.031 249.74 195.284C257.157 197.661 264.845 200.11 272.41 202.026C275.305 202.76 281.292 203.582 283.776 204.76C284.436 205.072 284.743 205.661 285.38 205.991C286.86 206.754 292.531 207.461 294.704 207.998C304.529 210.428 341.245 219.892 346.938 223.963C348.368 224.985 349.817 225.982 351.231 227.013L351.864 226.87C351.216 225.731 351.283 225.78 350.145 224.779C355.062 226.267 360.499 228.1 365.304 229.451C370.368 230.874 375.301 231.747 380.564 233.238C387.417 238.989 393.798 245.371 390.044 251.843C388.435 251.028 389.123 251.12 387.697 251.007C387.641 251.585 387.568 252.16 387.465 252.728C385.415 263.544 360.292 272.154 344.637 271.922C342.107 271.884 337.856 272.169 335.339 271.572C334.772 270.963 334.437 270.616 333.811 270.018C328.457 272.197 322.036 267.398 316.041 267.159C299.675 266.506 284.134 263.444 267.995 258.109L264.142 258.847C259.711 256.958 257.771 256.197 253.013 254.928C245.167 252.834 237.302 250.674 229.464 248.529C225.222 247.367 221.02 245.476 216.777 244.249C204.803 241.285 193.19 237.506 181.41 233.934C180.956 232.787 181.274 233.101 180.318 232.137L178.829 233.462L178.137 233.203C177.724 232.524 177.31 231.848 176.884 231.172C176.439 231.495 176.044 231.766 175.583 232.074C172.511 231.47 169.321 229.298 166.5 228.333C156.28 224.835 147.28 220.877 138.268 215.644C135.384 213.969 125.846 206.863 124.857 204.45C124.427 203.349 125.026 203.933 123.992 202.961C113.907 193.481 108.722 179.351 113.399 170.106C115.399 166.156 122.127 164.374 127.893 163.547Z" fill="#121211"/>
<path d="M251.622 132.45L252.35 132.44C254.004 133.551 260.459 134.569 262.779 135.503C277.056 141.248 297.755 143.071 308.882 152.475C308.874 152.968 308.958 153.328 308.61 153.677C307.878 154.419 311.115 158.038 310.628 159.323C309.68 161.82 307.501 161.814 307.471 164.632C307.241 167.201 308.48 172.033 305.986 173.806C301.271 177.158 309.442 180.56 300.08 182.113C291.042 183.615 286.067 179.939 277.794 178.167L277.288 177.975C270.065 175.315 264.753 175.165 258.544 172.902L257.975 171.582C255.3 170.49 245.585 169.202 242.144 168.238C238.675 167.266 241.093 166.59 238.646 166.219C232.907 165.349 234.066 167.315 228.248 164.426C213.314 150.153 223.641 151.703 220.045 142.025C224.296 138.067 225.933 130.57 228.757 128.469C233.037 127.204 244.959 131.1 251.622 132.45Z" fill="#121211"/>
</svg>
