<svg width="500" height="500" viewBox="0 0 500 500" fill="none" xmlns="http://www.w3.org/2000/svg">
<path d="M92.6452 180.755C92.5556 177.833 96.9768 155.407 97.9849 151.717C98.1426 151.141 101.69 150.728 102.686 150.559L102.892 149.453C100.963 148.079 100.974 150.25 98.4743 149.535C100.192 141.584 112.01 125.834 116.806 118.646C118.227 116.516 125.719 106.342 127.41 104.933C138.755 95.4866 154.041 90.8652 167.893 86.5058C173.827 84.6723 179.682 85.8131 186.06 83.5723C192.47 85.72 191.864 85.3009 197.966 85.557C202.446 85.9412 206.028 85.8713 210.063 87.7862C212.598 88.4381 247.516 102.424 248.199 103.14L248.093 105.154C249.457 106.144 251.01 105.789 252.804 105.713C257.298 106.289 267.459 110.2 270.995 112.814C275.994 112.208 278.641 112.878 283.405 113.937C302.926 118.279 323.979 116.032 343.437 120.31C344.949 120.642 364.402 128.552 364.969 129.088C368.372 131.206 372.22 134.483 374.595 135.909C378.788 136.898 394.491 157.229 397.876 161.845C398.143 162.211 399.875 168.451 399.891 168.998C401.072 171.355 401.973 173.072 402.873 175.575C405.581 181.093 406.283 183.101 405.446 189.445C404.802 194.328 405.639 197.814 404.628 203.943C400.837 226.922 383.453 247.747 385.078 271.419C385.83 273.887 387.56 278.997 388.674 281.168C393.266 290.12 405.114 296.865 412.218 303.896C420.559 312.15 430.013 321.812 434.098 333.01C436.301 339.051 440.098 355.698 438.796 361.495C437.294 360.773 437.111 358.922 436.295 356.856C436.124 359.9 437.291 365.843 437.043 367.077C435.516 374.66 429.509 384.02 425.157 390.375C423.695 392.511 422.186 393.693 420.739 395.957L414.238 398.437C412.836 400.34 411.353 402.272 410.093 404.269C402.616 407.039 397.167 410.17 388.987 411.736C384.302 412.627 377.135 412.312 373.329 413.441C373.392 414.012 373.456 414.582 373.519 415.153C370.246 415.636 369.107 412.656 365.666 413.11C365.576 414.588 365.535 414.111 365.861 415.496C362.793 415.927 356.668 412.213 353.156 413.698C353.693 415.164 353.453 414.687 354.412 415.927C350.695 416.317 346.123 415.013 342.319 415.048C334.093 415.118 328.59 415.741 320.609 413.267C317.83 414.623 316.244 415.129 313.086 415.077C297.949 414.838 282.43 413.855 267.329 413.668L184.683 413.133C167.012 412.889 148.777 413.552 131.033 412.685C126.807 412.481 125.14 411.649 121.827 409.129C120.261 409.21 114.255 409.571 113.171 409.134C106.042 406.253 93.7336 401.469 90.3107 394.403C85.9972 391.924 83.3193 392.25 80.2001 388.152C74.5433 380.725 72.0842 372.012 65.2965 365.511L65.2174 364.411C64.5032 355.092 59.8126 348.806 64.5282 342.09C62.6564 342.346 63.257 342.445 61.5051 342.072C60.9254 339.837 62.5598 325.909 63.2035 323.313C64.289 317.469 65.9595 308.739 68.6141 303.46C76.3011 288.176 89.0098 277.024 96.4052 261.932C97.4529 259.376 97.3469 255.733 98.2008 253.219C101.346 243.964 102.115 236.694 96.0635 228.237C96.4657 225.071 96.0665 220.042 95.9064 216.696C94.6195 213.605 94.3553 212.942 93.8687 209.653C92.8693 206.242 92.5725 200.026 92.2634 196.243C91.4422 191.005 91.4067 185.918 92.6452 180.755Z" fill="#F07350"/>
<path d="M63.2035 323.312C65.4897 326.758 67.0723 338.917 64.5282 342.089C62.6564 342.345 63.257 342.444 61.5051 342.072C60.9254 339.837 62.5598 325.908 63.2035 323.312Z" fill="#EB7F6C"/>
<path d="M399.892 168.998C401.073 171.355 401.974 173.072 402.874 175.575C405.583 181.093 406.284 183.101 405.447 189.445L404.768 189.113C404.77 184.387 403.318 186.087 401.131 181.425C398.283 176.797 399.058 174.469 399.892 168.998Z" fill="#EB7F6C"/>
<path d="M252.805 105.713C257.298 106.289 267.459 110.2 270.995 112.814C270.781 112.895 270.567 112.983 270.352 113.064C260.025 112.773 259.8 111.039 252.805 105.713Z" fill="#EB7F6C"/>
<path d="M92.6446 180.754C94.0479 183.536 94.5002 183.903 97.1339 185.561C93.6428 190.456 94.0508 190.427 92.2628 196.242C91.4415 191.004 91.406 185.917 92.6446 180.754Z" fill="#EB7F6C"/>
<path d="M364.967 129.088C368.37 131.207 372.218 134.483 374.593 135.909C372.28 137.871 367.388 135.543 365.03 134.233C363.953 132.621 364.617 131.655 364.967 129.088Z" fill="#EBA4A1"/>
<path d="M197.965 85.5566C202.445 85.9408 206.026 85.8709 210.061 87.7858C203.74 88.3271 201.94 91.5749 197.965 85.5566Z" fill="#EB7F6C"/>
<path d="M93.8672 209.653L94.6105 208.949C94.7053 209.176 94.8002 209.403 94.8956 209.63C97.3507 208.99 96.2361 208.868 98.3739 209.653C99.1125 212.703 97.5724 214.094 95.9049 216.696C94.618 213.606 94.3538 212.942 93.8672 209.653Z" fill="#EB7F6C"/>
<path d="M177.841 204.864C177.18 202.961 177.256 203.077 177.568 201.064C180.48 196.989 184.971 200.802 188.901 201.768L190.025 202.03C192.618 202.839 197.851 203.258 199.554 203.991C211.586 209.206 221.725 221.068 219.433 234.694C218.63 235.881 218.525 235.817 217.293 236.609C220.229 243.843 213.161 251.095 207.68 255.222C205.588 257.632 203.847 258.528 201.179 260.245C196.475 260.536 184.459 263.79 183.049 257.737L183.981 256.287C183.683 255.589 183.83 256.008 183.612 254.873L183.43 253.901L181.898 253.988C181.708 254.64 181.763 255.286 181.768 255.961C176.036 261.235 175.047 255.979 169.58 257.178C164.183 258.359 168.045 256.025 162.76 253.517C161.391 253.325 161.813 253.377 160.518 252.679C160.515 251.253 160.541 251.206 160.185 249.838C158.462 249.518 157.988 249.623 156.702 248.459C157.146 246.492 157.71 246.515 159.466 244.839L157.276 245.048C156.315 243.849 155.33 242.79 154.305 241.649L156.197 239.6C155.149 237.342 147.513 235.293 151.322 229.735L152.959 230.666C154.091 229.496 153.895 223.676 154.731 221.802C155.198 220.754 155.608 222.547 157.468 220.655L155.177 220.498L154.817 219.468C156.179 217.343 161.839 208.374 163.321 208.473C170.551 208.962 166.416 208.467 171.251 204.742C172.976 205.662 173.368 205.871 175.292 206.535C177.497 205.988 176.726 206.599 177.841 204.864Z" fill="#000101"/>
<path d="M177.845 204.864C177.184 202.961 177.26 203.077 177.572 201.064C180.484 196.989 184.975 200.802 188.905 201.768L190.029 202.03C192.622 202.839 197.855 203.258 199.558 203.991C211.59 209.206 221.729 221.068 219.437 234.694C218.634 235.881 218.529 235.817 217.297 236.609C220.233 243.843 213.165 251.095 207.684 255.222C205.592 257.632 203.851 258.528 201.183 260.245C196.479 260.536 184.463 263.79 183.053 257.737L183.985 256.287L186.092 252.289L186.559 250.723C188.838 250.665 190.161 250.665 192.467 250.362C194.117 248.581 192.012 248.162 192.968 245.182C194.989 245.892 194.087 245.997 195.813 245.496C196.989 243.436 198.706 240.741 198.146 238.407C197.072 239.385 197.457 239.257 196.196 239.752L196.315 238.681L199.072 237.377C199.147 236.312 199.579 231.958 199.223 230.788C199.043 230.195 198.44 231.073 197.328 229.618C200.089 225.626 201.682 222.762 197.4 218.874L194.627 216.383C195.192 215.143 195.295 214.846 195.648 213.525C193.495 212.082 194.369 213.81 190.395 213.997C190.719 213.531 191.037 213.059 191.349 212.582C192.872 210.219 192.522 210.568 192.036 208.176C191.79 209.922 191.95 209.963 190.79 211.226C187.141 210.702 189.339 206.738 182.71 206.878L182.586 206.389L181.792 205.97C179.944 206.244 179.487 205.778 177.845 204.864Z" fill="#FEFDFC"/>
<path d="M177.845 204.864C177.184 202.961 177.26 203.077 177.572 201.064C180.484 196.989 184.975 200.802 188.905 201.768L190.029 202.03C192.622 202.839 197.855 203.258 199.558 203.991C211.59 209.206 221.729 221.068 219.437 234.694C218.634 235.881 218.529 235.817 217.297 236.609C215.269 233.582 218.502 221.318 212.035 218.676C208.399 217.186 211.309 215.679 209.839 214.125C206.075 210.149 197.561 205.452 192.246 204.8L191.629 205.458L192.036 208.176C191.79 209.922 191.95 209.963 190.79 211.226C187.141 210.702 189.339 206.738 182.71 206.878L182.586 206.389L181.792 205.97C179.944 206.244 179.487 205.778 177.845 204.864Z" fill="#F1DED7"/>
<path d="M177.845 204.864C177.184 202.961 177.26 203.077 177.572 201.064C180.484 196.989 184.975 200.802 188.905 201.768L190.029 202.03C187.101 202.402 183.151 203.246 182.71 206.878L182.586 206.389L181.792 205.97C179.944 206.244 179.487 205.778 177.845 204.864Z" fill="#EB7F6C"/>
<path d="M183.983 256.286L186.09 252.287C186.66 255.017 188.682 258.236 191.592 259.347C197.474 261.588 203.952 255.692 207.682 255.221C205.59 257.63 203.849 258.527 201.181 260.244C196.477 260.535 184.46 263.788 183.051 257.735L183.983 256.286Z" fill="#F1DED7"/>
<path d="M162.762 253.516C167.802 250.955 167.385 256.979 172.516 255.71C175.457 254.989 176.98 252.87 180.282 253.056L181.9 253.988C181.71 254.639 181.765 255.286 181.77 255.961C176.038 261.234 175.049 255.978 169.582 257.177C164.185 258.359 168.047 256.025 162.762 253.516Z" fill="#32090A"/>
<path d="M289.229 212.87C287.221 211.922 281.758 209.675 280.843 208.109C284.697 207.225 294.737 205.909 298.07 207.446C297.783 208.424 297.672 208.814 297.617 209.85C303.608 210.286 310.701 214.384 314.605 218.842C318.022 222.753 317.945 227.136 320.172 231.333C323.48 236.99 316.846 242.42 316.831 245.872L318.572 248.031C317.56 252.501 309.417 254.259 310.394 257.326L311.868 258.409L311.788 259.358L311.049 259.934L310.484 259.637C309.758 259.264 309.198 259.02 308.454 258.706C302.661 261.674 290.543 269.025 285.196 262.844C284.941 261.43 284.054 260.004 283.964 258.886C283.556 258.525 280.413 258.537 279.644 258.508C279.574 259.66 279.561 259.573 279.29 260.69L277.123 259.195L277.724 261.604C276.604 262.809 277.274 262.396 275.592 262.78C273.88 261.884 273.139 259.567 272.26 257.699L271.396 257.582C270.949 259.067 271.255 258.374 270.495 259.672C266.427 259.23 261.635 254.952 259.176 251.803C256.799 248.765 259.43 250.022 260.085 246.995L259.251 246.547L257.767 247.729L257.042 247.414C256.545 246.285 254.103 244.463 254.202 243.893C254.707 241.006 254.39 241.483 252.792 239.26L253.112 238.608C253.818 239.062 254.407 239.516 255.03 240.063L255.733 238.951C255.153 237.322 254.109 237.49 252.102 236.018C253.465 234.854 253.198 235.529 253.543 234.126L251.625 231.856C251.9 229.959 255.84 223.33 257.015 221.217L256.616 221.566C258.037 217.823 259.317 218.103 260.992 214.32C263.315 213.353 265.631 212.37 267.94 211.369L269.391 212.661L270.295 212.44C272.11 209.541 271.928 209.157 275.348 209.058L276.227 210.612L275.672 209.052L276.231 209.075L276.887 210.175L277.548 209.471L277.233 209.215C277.715 210.74 275.944 209.582 274.689 212.172L275.568 212.608C285.603 208.488 281.522 215.891 289.229 212.87Z" fill="#000101"/>
<path d="M289.233 212.87C287.226 211.922 281.762 209.675 280.848 208.109C284.701 207.225 294.741 205.909 298.075 207.446C297.787 208.424 297.676 208.814 297.621 209.85C303.613 210.286 310.706 214.384 314.609 218.842C318.026 222.753 317.95 227.136 320.176 231.333C323.484 236.99 316.85 242.42 316.835 245.872L318.576 248.031C317.564 252.501 309.421 254.259 310.398 257.326L311.872 258.409L311.792 259.358L311.054 259.934L310.488 259.637C309.762 259.264 309.202 259.02 308.458 258.706C302.666 261.674 290.547 269.025 285.201 262.844C284.946 261.43 284.058 260.004 283.969 258.886C287.298 258.648 289.615 257.571 289.219 253.933L290.075 253.828C291.671 252.612 298.347 250.208 297.639 246.745L295.257 247.065L294.826 246.559L295.481 245.592C297.21 245.255 297.158 245.33 298.649 244.428C299.078 242.31 301.211 233.55 300.576 232.322C299.219 233.457 299.941 233.247 298.425 233.527L298.177 232.84L299.564 231.018C299.333 227.549 299.104 231.437 297.586 228.603C298.315 227.648 299.015 226.676 299.686 225.687C299.399 219.599 293.687 221.362 291.196 219.133C291.583 216.851 292.291 219.249 294.531 217.119C293.583 215.385 290.99 214.023 289.233 212.87Z" fill="#FEFDFC"/>
<path d="M279.648 258.508C280.825 258.252 280.946 258.275 282.052 257.827C280.863 256.692 281.385 257.274 280.837 255.412L281.543 254.411C285.05 253.322 285.575 253.34 289.218 253.933C289.615 257.571 287.298 258.648 283.968 258.887C283.56 258.526 280.417 258.537 279.648 258.508Z" fill="#181313"/>
<path d="M193.341 298.896C196.539 299.246 197.706 300.095 200.508 301.568C203.363 301.033 200.303 301.527 202.153 299.135C203.386 299.391 203.201 299.217 204.015 299.962C209.434 304.926 207.471 300.887 211.112 301.335L211.87 303.262C213.172 303.634 214.331 303.017 215.804 302.278C221.478 299.426 227.411 303.716 233.622 303.011C241.431 297.505 242.758 303.919 246.833 304.17C249.636 304.344 253.418 301.539 257.6 302.569C262.222 303.71 268.988 305.625 272.641 304.886L272.53 303.139L273.453 302.942C274.802 303.82 275.075 304.042 276.552 304.635C279.946 303.465 282.851 301.876 285.089 305.712L284.241 307.656C285.089 310.106 287.533 307.72 287.937 308.529C289.838 312.312 289.283 312.993 292.85 315.915C290.212 318.913 290.957 318.214 290.428 322.55C288.117 325.449 284.883 327.463 281.265 328.266C277.487 329.081 271.029 330.489 267.429 329.773L270.521 328.272C269.613 326.956 268.913 327.16 266.94 326.555C265.386 328.068 266.013 328.708 264.071 329.139C255.273 324.593 256.667 329.756 248.786 328.522C248.763 327.672 248.756 326.823 248.764 325.967C246.292 325.484 243.178 328.575 240.403 328.359C239.224 327.16 238.745 326.468 237.155 325.886C236.091 326.869 236.582 326.345 235.679 327.457C232.963 327.213 232.407 326.968 229.837 325.932L229.135 325.647L228.345 327.148C226.282 327.533 221.256 327.119 219.164 326.601C218.684 325.362 218.713 325.408 218.042 324.209C213.869 325.81 209.56 327.538 205.215 326.462L207.116 325.1C204.448 323.33 190.308 325.554 185.689 325.071C179.727 324.454 180.689 322.545 175.356 323.586C173.864 321.887 174.328 322.382 173.907 319.786C171.589 318.517 171.462 320.507 168.823 319.233L168.746 318.354L170.582 317.813C171.125 316.462 171.1 317.161 170.578 315.723L168.95 314.984L171.283 313.244C172.085 311.34 171.188 308.197 171.124 305.84C172.817 303.407 172.573 306.393 175.543 304.589C176.02 302.022 175.746 301.504 178.017 300.59L178.938 301.69C181.626 302.232 184.536 299.653 188.676 299.758L189.276 301.504C192.477 302.22 190.282 301.463 192.543 300.654C193.042 300.474 194.599 302.552 196.359 302.057C195.715 299.915 195.739 300.509 193.341 298.896Z" fill="#000101"/>
<path d="M187.853 162.637L188.636 163.01C192.237 164.721 193.625 165.035 197.51 165.932C197.369 166.717 197.236 167.393 197.068 168.184C198.559 168.638 198.719 168.563 200.302 168.586L201.583 169.977L201.47 170.914C199.678 171.17 198.794 171.193 197.017 171.251L197.091 172.189C199.447 173.219 200.645 172.893 202.352 174.843C202.514 177.235 198.736 184.144 195.328 184.091L193.392 182.723C191.531 183.678 191.224 183.952 189.611 185.18C188.619 184.976 184.522 183.777 184.331 183.777C180.326 183.858 176.081 184.103 172.049 184.19L170.535 185.785L169.634 185.465L169.211 183.585C166.893 183.649 163.706 184.662 161.336 185.168C157.129 186.07 145.987 186.355 142.306 184.953C141.248 182.927 141.087 181.571 139.498 181.018C139.067 182.101 139.165 181.53 139.228 182.735C137.726 181.594 137.86 181.594 137.071 179.842C137.257 178.387 137.415 178.073 137.906 176.67C137.33 172.416 134.62 171.141 137.277 168.021C138.455 166.642 141.328 164.756 142.913 163.627C142.836 163.056 142.749 162.492 142.654 161.927C145.459 161.444 157.299 160.082 159.538 160.763L160.209 162.69L161.179 162.672C164.213 162.643 167.683 163.19 170.867 163.283L172.175 161.683C175.781 161.823 177.911 163.988 180.094 163.388L180.884 161.729L181.801 161.7L181.837 163.941C183.292 164.139 182.601 164.226 183.914 163.72C185.952 163.796 186.062 163.551 187.853 162.637Z" fill="#000101"/>
<path d="M183.912 163.719C185.949 163.795 186.059 163.551 187.85 162.637L189.261 164.552C188.841 166.513 189.331 165.716 187.631 166.955C185.643 167.165 185.788 167.153 184.02 166.187L183.414 165.029L183.912 163.719Z" fill="#181313"/>
<path d="M278.821 166.594C279.741 166.809 280.72 167.059 281.661 167.118C286.542 167.414 289.825 169.673 294.821 169.993L297.358 167.723C304.377 166.087 318.324 169.306 325.182 171.768C328.39 177.879 328.731 173.473 331.592 177.053L330.149 178.665C330.252 186.395 327.275 190.16 319.043 189.933C315.663 189.84 313.338 189.933 310.292 188.216C307.021 189.869 294.205 188.473 289.705 188.822C287.904 188.961 288.003 188.42 286.761 187.052C282.237 185.289 259.754 193.868 263.677 177.699L263.881 176.89L262.859 175.26C264.484 175.435 263.888 175.534 265.389 175.016L266.02 173.695C265.326 172.822 264.819 172.402 263.908 171.756C266.308 167.071 274.445 169.597 278.821 166.594Z" fill="#000101"/>
<path d="M318.211 193.795C318.592 193.317 318.548 193.295 319.122 193.134C320.104 193.517 320.061 194.19 321.094 194.999L321.374 194.938L321.974 193.818C324.016 193.417 333.385 193.714 335.796 194.075C335.109 193.972 337.221 194.678 336.89 194.566C337.289 194.233 337.31 194.185 337.591 193.758L338.158 193.737C339.307 194.579 339.189 194.716 340.438 194.088C341.461 194.235 341.027 194.861 342.089 195.363C342.278 195.034 342.47 194.708 342.669 194.385C348.363 193.374 356.402 195.142 362.124 195.92C365.264 196.346 366.931 196.139 370.233 196.909L370.058 197.628C370.845 197.798 370.941 197.912 371.553 198.384C372.821 198.435 373.397 197.881 374.232 198.285C374.339 198.999 374.332 199.301 374.326 200.005C374.831 199.755 375.473 198.715 375.917 198.155L375.67 197.492C376.155 197.686 376.414 197.684 376.664 198.037C377.223 199.334 377.351 199.135 378.741 199.445C380.804 200.432 382.378 200.795 383.589 202.635L383.722 202.979C383.891 203.423 383.941 203.653 384.04 204.125L384.375 204.312C385.056 203.808 385.661 203.29 386.442 202.969C388.989 208.008 388.617 212.822 386.843 218.019C385.997 220.5 384.541 224.331 382.882 226.423C382.281 226.295 382.061 226.215 381.501 226.63C379.898 227.816 375.8 231.508 376.108 233.634C372.883 239.27 372.884 246.22 371.292 252.491C370.272 256.505 368.825 261.04 368.096 265.135C367.734 267.179 366.332 269.86 365.979 272.06C364.722 275.364 363.677 275.521 362.775 279.472C362.365 280.246 361.241 282.034 361.04 282.69C359.593 287.383 355.32 291.097 353.763 295.497C352.748 296.201 352.319 296.2 351.127 296.349C349.912 297.739 346.75 302.589 345.208 302.559C344.434 302.215 344.808 302.22 344.047 302.5C342.699 304.181 340.668 307.141 338.367 307.011C338.162 307.684 338.005 308.712 337.534 308.986C337.126 308.454 337.114 308.295 336.893 307.67L336.46 307.774C336.003 309.402 331.488 310.947 330.012 310.018C329.434 309.653 329.732 311.736 328.147 311.372C327.82 310.782 327.706 310.55 327.288 310.008C326.044 311.554 326.839 311.501 324.47 311.991C322.963 312.303 319.172 313.184 317.756 312.907L317.549 312.538L317.48 312.851C313.685 314.992 312.531 313.118 308.246 313.493C307.451 313.518 306.411 313.33 305.598 313.222C305.177 313.351 305.034 313.332 304.589 313.369C302.944 312.388 303.242 312.476 301.607 313.288C297.521 311.825 290.782 311.765 287.873 309.191L287.97 308.615L287.785 308.483L286.896 309.082C285.935 309.158 281.769 306.876 280.429 306.516C279.828 306.354 278.182 305.629 277.476 305.373C276.114 303.675 276.079 303.911 274.268 302.745C272.612 301.678 270.735 299.961 269.474 298.439C269.156 298.053 268.892 298.093 268.397 297.943C267.263 296.688 266.33 295.085 265.356 293.689C259.9 285.869 256.735 277.014 253.461 268.143C252.651 265.943 252.459 264.32 251.924 262.079C251.868 261.847 251.331 261.829 250.958 261.747C250.637 260.103 251.008 257.979 250.63 256.5C249.602 252.449 248.972 248.449 247.431 244.536C247.191 243.929 247.405 242.608 247.181 241.72C247.12 239.664 246.82 238.912 246.129 237.037C246.408 234.229 243.368 230.81 241.563 228.756C237.441 228.018 237.61 227.479 233.593 229.717C231.718 230.762 230.905 231.478 230.342 233.577C229.777 234.538 229.026 235.686 228.51 236.634C227.833 238.359 227.338 240.061 226.796 241.823C226.374 243.196 225.13 245.764 224.864 247.018C223.956 251.301 223.342 255.082 221.658 259.199C220.978 260.864 219.549 262.55 218.931 263.995C217.308 267.788 215.736 272.384 213.878 276.008C212.068 279.534 208.753 283.375 206.914 286.8C205.958 287.046 205.209 287.133 204.453 287.744L204.346 288.155L204.273 288.415C203.426 291.547 198.454 294.034 196.712 297.622L195.795 298.147L195.448 298.273C194.312 298.691 193.846 298.878 192.638 299.083C192.243 299.455 191.634 300.024 191.435 300.433C190.713 301.921 184.956 303.265 183.072 303.661C182.608 304.107 182.634 304.087 182.342 304.666C181.506 304.828 180.226 305.144 179.422 305.08C178.164 304.565 178.071 305.113 177.209 306.148C175.931 306.075 174.65 306.064 173.37 306.117C172.99 306.133 172.958 306.181 172.629 306.361L172.114 306.303L171.65 305.938C171.149 306.258 170.707 306.82 170.114 306.915C168.619 307.149 167.057 307.102 165.546 307.078C163.163 306.699 158.774 307.34 156.6 306.915C156.525 306.89 156.451 306.865 156.377 306.839L156.012 306.725C154.292 306.182 149.737 305.48 147.938 305.532C146.893 304.475 142.95 303.41 141.523 303.266C140.852 303.238 138.96 302.25 137.84 301.962C136.491 301.613 135.047 301.491 133.853 301.063C133.137 300.451 132.119 299.569 131.317 299.124C129.739 298.25 129.867 297.871 129.072 296.356C128.482 296.675 128.452 296.76 127.801 296.8C126.23 296.123 126.059 294.514 124.859 293.211L124.295 293.492C123.139 293.356 119.062 286.224 117.648 284.543L116.682 284.88L115.962 284.482C115.292 283.457 113.891 280.366 113.319 279.153C113.155 277.38 111.93 274.88 111.601 273.036C111.154 270.525 110.62 271.586 109.424 270.04C108.585 266.966 107.564 264.49 106.76 261.012C106.254 258.247 105.311 255.606 105.166 252.847C104.928 251.981 104.653 249.49 104.385 248.352C103.421 244.249 101.875 234.799 102.563 231.033C103.851 228.719 102.971 227.81 101.887 225.562L101.49 225.662L101.261 225.51C100.357 223.599 101.568 220.435 100.63 219.439L100.402 219.749C99.6855 219.202 99.3274 217.409 98.7315 216.639C96.9715 214.367 94.8563 212.583 93.5765 209.942C90.7089 204.023 89.6516 195.399 91.6329 189.164L92.3079 189.402L92.833 188.811C94.8479 186.505 96.6935 185.487 99.4626 184.389C99.5119 185.159 99.4858 185.222 99.748 185.974C100.127 185.849 100.475 184.907 100.715 184.434C102.891 184.642 104.18 184.047 106.255 183.802C107.234 183.686 106.889 185.149 108.782 183.695C109.958 182.791 111.084 183.138 112.457 183.197C112.985 182.811 113.088 182.668 113.725 182.523L114.013 182.799C114.106 183.43 114.124 183.601 114.322 184.226L114.604 184.132C114.638 183.951 114.69 183.435 114.793 183.254C115.361 182.251 120.96 183.805 122.327 183.511C122.578 183.458 122.955 183.195 123.197 183.073C124.699 183.159 122.954 183.315 124.14 184.121C124.714 183.482 124.974 183.205 125.679 182.726L125.75 183.653L125.796 184.047L126.081 184.258C126.777 183.912 127.151 183.749 127.878 183.472C129.46 183.683 128.285 184.255 129.564 184.352C130.683 184.451 132.961 183.85 133.949 184.056C135.52 184.384 136.173 186.21 137.638 184.877C139.041 183.601 139.53 184.513 141.02 185.241C141.731 185.228 141.981 184.988 142.592 184.61L142.827 184.463C144.802 185.425 146.152 185.288 148.186 184.469L148.15 185.485L148.331 185.847C150.212 186.307 150.603 185.292 151.664 186.409C152.186 186.222 152.194 186.192 152.652 185.866C157.023 186.395 161.676 187.401 166.076 187.895C169.343 188.262 169.543 188.045 172.598 189.434C173.803 188.796 173.937 188.267 175.268 188.931C175.61 189.687 175.661 189.946 175.857 190.765L176.048 190.832C176.332 190.213 176.644 189.29 177.178 188.974C178.92 189.538 177.779 191.59 179.505 190.403C180.161 190.565 180.443 190.85 180.978 191.258C181.984 191.329 182.132 191.085 183.059 190.516C183.682 190.492 183.769 190.426 184.322 190.673C184.499 191.191 184.681 191.708 184.868 192.222L185.209 192.332C185.934 191.825 187.299 190.761 188.077 190.562C188.638 190.884 188.939 191.085 189.436 191.517C191.548 193.352 192.653 190.366 193.225 193.874L193.484 194.102C194.099 193.519 194.475 193.121 195.035 192.484C197.339 193.359 199.499 193.614 200.362 196.068C201.089 195.423 201.597 194.83 202.512 194.581C204.404 194.762 204.092 197.178 206.494 195.99C207.456 196.634 207.476 196.777 207.769 197.935C208.469 198.092 209.156 197.608 209.895 197.306C211.446 198.118 211.926 198.439 213.638 198.864C215.445 199.312 216.614 199.186 218.187 200.147C219.84 200.53 220.012 201.359 220.939 201.569C221.51 201.034 221.445 200.719 221.718 199.84C222.717 199.799 222.743 200.234 223.072 201.109L223.153 201.614C224.214 202.105 224.141 201.993 225.076 201.265L225.46 201.386L226.112 202.665L226.348 202.706L226.916 201.995L227.274 202.042C227.528 202.598 227.762 203.124 228.052 203.664C228.751 203.437 228.795 203.185 229.373 202.568C231.693 203.37 232.915 203.735 235.268 204.652C236.074 204.286 236.846 203.948 237.626 203.526C237.981 204.178 238.196 204.83 238.753 205.174C239.35 204.44 239.27 204.285 240.007 204.059L241.259 204.39C242.443 202.168 246.157 203.927 248.66 203.458C249.059 202.983 249.136 202.851 249.641 202.473L250.037 202.657C250.258 203.196 250.352 203.411 250.644 203.912C251.388 203.803 251.252 203.709 251.924 203.035C253.277 203.454 251.838 203.185 252.836 203.997C253.805 203.982 255.973 204.102 256.587 203.596C258.277 202.823 263.422 201.782 265.282 201.862L265.591 201.942C266.497 201.448 267.061 201.424 267.97 201.13C271.183 200.089 274.374 198.774 277.589 197.622L279.807 197.773C280.642 197.496 281.349 197.24 282.171 197.434C283.451 198.732 284.009 196.948 285.666 196.99C286.199 197.004 286.691 196.063 286.906 195.732L287.734 195.253C288.211 195.942 288.182 196.076 288.262 196.892C288.114 197.383 288.142 197.124 288.352 197.695L288.666 197.684C289.296 196.881 289.628 196.302 290.583 195.973C291.602 195.997 292.311 196.596 293.219 197.149C294.213 197.062 294.304 196.204 294.673 196.081C296.539 195.453 298.567 195.745 300.487 195.037L300.638 195.227C300.991 194.718 301.179 194.362 301.691 194.008C302.151 194.513 302.046 194.482 302.233 195.213L302.292 195.449L302.533 195.509L303.325 194.242C304.703 194.26 306.571 194.269 308.006 194.146C308.178 194.279 308.35 194.412 308.522 194.545C309.364 194.502 311.614 193.982 312.322 194.004C313.565 194.041 316.473 193.543 317.119 194.578C317.181 194.634 317.243 194.69 317.306 194.746L318.211 193.795Z" fill="#000101"/>
<path d="M318.212 193.794C318.593 193.316 318.549 193.295 319.124 193.133C320.105 193.517 320.062 194.189 321.095 194.999L321.376 194.937L321.975 193.817C324.017 193.416 333.386 193.713 335.797 194.074C335.111 193.972 337.222 194.677 336.891 194.565C337.29 194.232 337.311 194.184 337.592 193.757L338.159 193.736C339.308 194.578 339.191 194.715 340.439 194.087C341.462 194.234 341.028 194.86 342.091 195.362C342.279 195.033 342.472 194.707 342.671 194.384C348.365 193.373 356.404 195.141 362.126 195.919C365.266 196.346 366.932 196.138 370.235 196.908L370.059 197.627C366.43 197.491 363.03 196.486 359.328 196.827C359.116 196.847 358.55 196.037 358.433 195.872C357.656 195.679 358.02 195.641 357.301 195.979C356.938 196.537 356.601 197.042 356.213 197.583L355.83 197.521C355.463 196.825 355.406 196.649 355.15 195.894C354.595 195.732 353.078 196.757 352.593 197.138C351.163 196.304 351.718 193.615 348.342 196.658C346.426 195.133 346.036 195.676 344.168 196.66C343.094 196.133 343.773 195.276 342.851 195.178C341.693 195.953 341.822 196.037 340.416 195.591C340.054 195.958 339.773 196.258 339.434 196.647C338.308 196.477 338.891 195.575 337.792 195.63C336.989 196.241 337.403 196.154 336.565 196.111C335.955 195.625 335.275 194.957 334.545 194.843C333.966 195.086 333.801 195.405 333.414 195.902C331.015 196.477 329.833 194.331 328.558 196.587C328.241 197.147 328.254 197.207 327.949 197.189L327.825 196.914C327.528 196.266 327.436 195.863 326.86 195.473C324.004 195.085 320.978 197.213 318.952 194.336C318.694 193.969 318.625 193.958 318.212 193.794Z" fill="#000101"/>
<path d="M105.168 252.848C107.288 255.19 107.522 258.069 106.762 261.012C106.256 258.247 105.312 255.606 105.168 252.848Z" fill="#000101"/>
<path d="M375.668 197.492C376.153 197.686 376.412 197.684 376.662 198.037C377.221 199.334 377.349 199.135 378.739 199.445C378.198 199.751 377.331 200.776 376.856 201.284C376.765 199.728 376.926 199.091 375.915 198.155L375.668 197.492Z" fill="#000101"/>
<path d="M305.598 313.222C306.321 312.771 307.339 311.936 308.018 311.905C308.41 312.567 308.26 312.574 308.245 313.493C307.45 313.518 306.411 313.33 305.598 313.222Z" fill="#000101"/>
<path d="M277.589 197.622L279.807 197.773C278.812 198.762 278.598 199.085 277.838 200.223C277.799 199.376 277.805 198.43 277.589 197.622Z" fill="#000101"/>
<path d="M336.486 212.458C337.146 211.41 337.868 209.898 339.061 209.608C339.723 210.764 339.021 210.449 339.938 211.081C341.444 211.118 341.509 210.862 342.616 209.81L342.896 209.541L343.165 209.784C343.184 210.416 343.198 210.914 343.276 211.548C344.328 211.423 345.365 210.933 345.974 210.755C346.408 210.628 348.978 212.694 349.513 212.89C349.825 213.004 350.464 212.143 350.655 211.904L350.959 212.028L351.133 213.024L351.527 213.149L352.174 212.799C352.097 215.036 354.059 214.892 354.824 216.31C356.146 218.756 357.677 221.944 357.868 224.764C357.903 225.98 357.508 226.7 357.878 227.958C358.33 227.743 358.231 227.686 358.6 227.158C359.515 229.578 357.019 239.985 357.065 243.07C357.083 244.313 355.819 247.688 355.662 249.102C354.849 253.206 354.464 255.611 352.994 259.542C352.618 264.172 349.45 270.291 347.918 274.717C347.512 275.888 346.537 277.165 345.568 277.953L345.489 278.02L345.389 278.243C344.522 280.26 345.189 280.817 343.132 281.916C342.5 283.099 341.054 286.225 340.374 286.925L340.145 286.943L339.933 286.042C338.855 287.302 339.634 288.767 337.955 289.768L337.666 289.089C336.274 289.752 336.374 292.351 335.22 292.207L335.098 291.656C334.137 291.949 334.44 291.853 333.663 292.678C333.574 293.254 333.518 293.608 333.375 294.183L333.172 294.115L333.068 293.145L332.781 293.027C331.293 293.843 331.395 293.651 330.651 295.061C330.233 294.526 330.183 294.522 329.887 293.899C328.576 294.985 327.145 296.14 325.496 296.639C325.052 296.359 325.152 296.434 324.786 296.078C323.587 296.358 320.949 297.651 319.796 298.237C319.299 297.582 319.231 297.309 318.938 296.56C318.274 297.612 317.616 298.489 317.287 299.679L317.048 299.721C316.65 298.751 316.56 298.253 316.327 297.218C315.637 297.845 315.527 298.541 314.761 298.927C314.051 298.748 313.789 298.652 313.435 297.986L313.255 298.021C312.747 297.994 312.192 297.855 311.685 297.754L311.468 297.518C311.181 298.107 310.951 298.616 310.584 299.166L310.294 299.147C309.82 298.395 309.829 298.411 309.593 297.549C309.189 298.21 309.096 298.401 308.79 299.115C308.551 299.569 307.869 300.176 307.471 300.575L307.262 300.471C307.213 299.389 307.369 298.631 306.479 297.991C305.83 298.382 305.858 298.482 305.167 298.499C304.604 297.791 304.776 297.855 304.628 296.804C304.101 297.121 303.328 298.542 302.953 299.143C302.549 298.127 302.178 297.01 301.812 295.972C301.473 297.094 301.044 298.042 300.584 299.111L299.921 295.563C299.677 296.297 299.425 297.482 298.686 297.759C298.018 297.377 297.211 296.052 296.726 295.359L296.511 295.365C296.318 295.872 296.176 296.221 295.943 296.711C295.45 296.321 295.112 295.056 294.876 294.391C294.433 295.117 294.047 295.981 293.671 296.756C293.193 295.98 292.709 294.975 292.281 294.152C289.911 293.885 288.729 293.645 286.362 293.098C286.285 292.329 286.286 291.7 285.958 291.007C285.427 291.4 285.412 291.879 285.135 292.635C281.98 287.918 277.529 284.865 275.238 279.432C274.927 278.692 274.797 278.823 274.531 277.788L274.057 277.619L273.03 277.982L272.635 277.789C272.262 277.044 272.61 275.68 272.747 274.775C271.249 270.902 270.113 267.394 268.698 263.639L268.165 263.42C267.803 262.121 268.669 259.692 267.662 258.62C267.232 259.135 267.455 259.079 266.995 259.146C266.685 257.884 266.932 256.194 266.69 254.725C266.417 253.077 265.177 249.07 265.067 247.729C264.83 244.825 264.503 236.448 264.948 234.059C264.615 232.091 265.486 229.425 266.015 227.45C268.349 222.644 270.288 218.851 275.034 216.139C276.694 215.191 278.641 214.421 279.926 213.168C280.236 212.866 280.275 212.863 280.694 212.795C281.129 213.194 280.926 212.981 281.304 213.434C283.022 213.273 283.764 210.601 285.227 213.097L285.362 213.168C285.885 212.643 286.128 212.248 286.769 212.021C287.031 212.449 286.962 212.285 287.06 212.77C287.77 212.112 288.214 211.463 289.064 211.051C290.648 211.134 289.35 212.003 290.697 210.994C290.843 211.447 290.936 211.79 291.049 212.251C291.85 211.905 291.092 211.343 292.041 211.219C292.432 211.698 292.409 211.891 292.54 212.501C292.889 211.839 293.245 210.869 293.792 210.578C294.012 211.089 294.02 211.107 294.115 211.655L295.803 209.973L296.09 210.86C297.727 211.627 301.254 210.297 302.693 210.29C305.428 210.275 308.442 210.805 311.282 210.357C312.098 210.229 311.667 209.293 312.498 209.396C312.836 210.014 312.791 210.535 312.829 211.244C313.353 211.385 313.647 211.101 314.084 210.77C314.912 210.074 316.339 210.203 317.419 210.144C319.141 210.051 320.897 209.989 322.622 209.82C323.566 209.728 323.61 210.621 323.736 211.288L323.947 211.426C324.413 210.606 325.743 209.498 326.691 209.53C326.922 210.171 326.825 210.446 326.796 211.163C327.175 211.111 328.87 209.079 329.261 208.621C329.28 209.464 329.219 210.434 329.468 211.199C329.774 210.908 329.664 211.032 329.808 210.585C330.787 210.08 333.832 209.512 334.861 209.845L334.907 210.194C334.967 210.596 334.98 210.686 335.089 211.058C335.606 210.518 335.729 210.004 336.212 209.692C337.171 210.081 336.644 211.595 336.486 212.458Z" fill="#000101"/>
<path d="M352.995 259.542C352.619 264.171 349.451 270.29 347.918 274.716C347.512 275.888 346.538 277.165 345.569 277.953L345.489 278.02C345.586 277.446 346.168 275.519 346.5 275.094C348.846 272.083 350.843 261.944 352.995 259.542Z" fill="#000101"/>
<path d="M266.014 227.449C266.994 229.677 266.055 232.047 264.948 234.058C264.615 232.091 265.486 229.425 266.014 227.449Z" fill="#000101"/>
<path d="M306.478 297.99C307.036 297.937 307.391 297.9 307.951 297.798C308.597 298.271 308.428 298.241 308.789 299.114C308.55 299.568 307.868 300.176 307.47 300.574L307.261 300.471C307.212 299.388 307.368 298.63 306.478 297.99Z" fill="#000101"/>
<path d="M272.748 274.776C273.225 276.03 273.415 276.447 274.058 277.619L273.03 277.982L272.635 277.789C272.263 277.044 272.611 275.68 272.748 274.776Z" fill="#000101"/>
<path d="M117.784 234.547C118.278 227.895 117.592 221.747 117.911 215.18C117.952 214.334 120.371 207.612 120.668 207.381L120.925 208.094L121.209 208.067C121.673 206.978 123.235 203.915 124.359 203.579L124.591 204.033C125.259 203.519 124.856 202.534 125.944 201.45L126.154 201.58C126.315 202.245 126.205 202.072 126.556 202.613L127.036 202.529C127.958 201.662 129.047 200.668 130.37 201.121C133.243 202.103 133.46 199.793 135.057 199.342C135.082 200.173 134.943 200.405 135.326 200.99C135.746 200.561 135.582 200.658 136.094 200.393L136.286 200.715L136.434 200.974L136.743 200.748C136.815 200.16 136.79 200.222 136.964 199.658C137.355 200.191 137.433 200.883 137.595 201.565L137.738 201.639C137.978 200.806 137.839 200.785 138.378 200.3L138.876 200.425C139.584 201.001 139.605 201.171 140.026 202.031L140.15 202.29C140.289 201.657 140.35 201.152 140.431 200.516C140.867 200.093 140.612 200.219 141.235 200.147C141.767 200.399 141.847 200.667 142.147 201.183L142.259 201.379L142.471 201.422C142.941 200.943 143.26 200.632 143.764 200.193L144.117 200.299L144.436 201.391C144.961 200.995 144.511 200.641 145.188 200.015L145.701 201.464L145.998 201.561L146.783 200.73L146.988 200.957C146.805 201.544 146.663 202.033 146.511 202.627L146.744 202.657C147.104 201.469 147.551 200.871 148.816 201.146C149.315 201.636 149.273 201.941 149.36 202.646L149.39 202.902L149.654 203.012C149.718 202.828 150.16 201.596 150.226 201.498C150.926 200.449 155.281 202.538 156.561 202.136C157.365 201.883 157.209 201.9 157.579 201.269L157.857 201.208C158.391 203.013 159.092 202.885 160.71 203.938L161.688 201.565L162.048 203.469L162.223 203.572C162.422 202.897 162.401 202.688 162.811 202.151C163.061 202.849 163.093 203.574 163.448 203.944C163.631 203.286 163.757 202.396 164.236 202.087C164.643 202.797 164.068 203.044 164.57 203.58L165.391 202.925L165.681 202.977L166.084 203.814C166.349 203.611 166.554 203.447 166.807 203.236C167.372 203.499 167.437 203.81 167.724 204.384L167.834 204.607C168.174 203.88 168.374 202.939 168.867 202.588C168.893 203.198 168.832 203.783 169.157 204.266L169.913 203.895C170.328 204.098 170.19 204.035 170.672 204.089L170.97 203.705C170.973 204.19 171.003 204.402 171.071 204.884C171.705 204.712 171.85 203.625 172.587 203.48C172.687 203.969 172.734 204.19 172.896 204.66C173.626 204.479 173.381 204.429 174.029 204.59L174.115 205.457L174.357 205.562C174.613 205.009 174.718 204.594 175.227 204.287C176.501 205.287 176.046 204.489 176.861 204.276C176.84 204.874 176.778 205.159 176.969 205.72C177.386 205.189 177.425 205.091 177.977 204.678C178.481 205.108 178.257 204.901 178.454 205.774L178.678 205.869C178.875 205.171 178.734 205.371 179.152 204.842C179.348 205.363 179.389 205.611 179.758 206.024L180.299 205.123L180.852 205.169L181.13 204.882L181.047 204.555L181.377 204.132L181.643 204.259L181.656 204.9C182.273 205.46 181.924 205.269 182.759 205.466C183.459 205.197 183.715 204.639 184.159 203.999L184.562 203.941C184.982 204.569 185.061 204.512 184.903 205.512C184.927 206.575 184.763 206.306 185.313 206.995C185.942 207.252 186.537 207.002 187.236 206.838L187.63 207.005C187.859 207.596 187.708 208.101 187.618 208.746C188.073 208.134 188.133 207.984 188.817 207.611C189.74 207.561 190.419 208.257 191.333 208.597C192.869 208.292 195.03 209.722 196.162 210.658L197.034 209.124C197.466 209.945 196.776 211.054 197.358 211.266C198.49 210.645 199.496 210.961 200.493 211.695C200.593 212.161 200.594 212.233 200.602 212.711C201.335 213.249 201.897 213.011 202.244 213.201C202.982 213.603 202.363 214.479 203.114 214.99L203.569 214.661C205.924 216.063 206.316 217.908 206.719 220.507L207.525 219.472L207.853 219.438C208.202 220.228 208.274 222.24 208.692 223.7C209.052 224.977 209.153 226.041 209.526 227.181L209.591 227.115C209.729 228.254 209.364 233.243 209.429 233.355L210.134 232.59C210.493 233.554 209.572 236.835 209.44 237.992C208.55 245.824 206.028 253.111 203.069 260.388C202.615 261.503 202.349 262.791 201.831 263.917C201.674 264.258 201.504 264.592 201.322 264.921L201.295 264.783C198.9 269.014 197.688 273.24 195.711 276.982C195.617 276.054 195.577 275.288 195.321 274.388C193.884 279.009 192.463 280.275 188.905 283.647C187.41 285.063 186.664 285.273 185.836 287.194C185.197 286.2 186.295 286.23 185.353 285.975C182.619 287.554 179.968 289.11 177.055 290.385C176.419 290.663 174.54 290.39 173.82 290.616C173.122 290.834 172.641 291.483 171.897 291.915C171.038 291.051 172.29 291.374 171.138 290.861C167.943 291.503 166.455 291.933 163.408 292.748C162.752 291.884 163.703 291.23 162.966 291.049C161.962 291.639 161.7 292.103 161.112 293.127C160.673 292.277 160.187 291.379 159.81 290.505C159.507 291.165 159.31 291.933 158.782 292.212C158.565 292.001 158.345 291.792 158.121 291.587L157.91 292.497L157.592 292.651C157.208 292.041 157.19 291.867 156.974 291.189C156.194 291.478 156.517 292.276 155.755 292.461C155.406 291.606 155.452 291.458 155.451 290.507L155.225 290.328C154.702 290.71 154.521 291.609 154.303 292.279C153.686 292.383 153.86 290.951 153.009 290.43C152.98 290.974 153.068 290.846 152.824 291.256C152.069 290.709 151.628 290.368 150.941 289.743L150.444 291.835C150.169 290.765 149.967 289.982 149.579 288.932L149.368 288.903L149.087 290.222L148.849 290.356C148.353 289.835 147.847 289.32 147.332 288.815C146.914 289.154 146.89 289.343 146.62 289.841C146.21 289.478 146.133 289.373 145.772 288.956C145.093 288.56 144.616 288.051 143.975 287.585L143.576 287.703L143.145 288.605C143.275 289.288 143.165 290.049 142.755 290.607C141.54 290.504 141.546 288.963 141.567 288.026C141.289 287.348 141.014 286.409 140.46 286.015C138.823 285.912 139.024 285.094 138.684 283.619C138.536 284.146 138.333 285.067 137.949 285.3C135.497 281.657 133.205 282.15 132.345 278.416L132.257 278.031C131.595 278.096 132.355 278.378 131.546 279.246C129.749 276.013 127.855 273.288 127.046 269.672C126.471 270.038 125.42 271.912 124.99 272.599C125.346 270.674 126.2 269.963 125.517 268.141C125.092 264.318 123.482 262.479 123.053 258.954C122.949 258.102 123.158 257.33 122.731 256.486C122.643 257.091 122.616 257.53 122.373 258.097C121.969 257.304 121.124 251.247 120.964 249.992L120.408 251.085L120.211 251.033C120.101 247.122 119.604 245.568 119.283 241.968C116.618 240.647 117.439 236.973 117.784 234.547Z" fill="#000101"/>
<path d="M138.684 283.619L138.866 282.874L139.039 282.801C139.632 283.248 139.383 283.217 139.609 283.415C141.853 285.378 144.767 285.369 145.772 288.956C145.093 288.559 144.616 288.051 143.975 287.585L143.576 287.702L143.145 288.605C143.275 289.287 143.165 290.049 142.755 290.606C141.54 290.504 141.546 288.963 141.567 288.026C141.289 287.348 141.014 286.409 140.46 286.015C138.823 285.912 139.024 285.093 138.684 283.619Z" fill="#000101"/>
<path d="M141.569 288.026L142.019 287.186L142.349 287.103C142.763 287.703 142.859 287.954 143.146 288.604C143.277 289.287 143.166 290.049 142.756 290.606C141.542 290.504 141.548 288.963 141.569 288.026Z" fill="#000101"/>
<path d="M117.786 234.547C119.024 237.377 119.146 238.888 119.285 241.968C116.619 240.646 117.441 236.973 117.786 234.547Z" fill="#000101"/>
<path d="M180.851 205.169L181.129 204.882L181.045 204.554L181.376 204.132L181.641 204.259L181.655 204.9C182.272 205.46 181.923 205.268 182.758 205.466C183.457 205.197 183.714 204.639 184.158 203.999L184.561 203.941C184.981 204.569 185.06 204.512 184.902 205.512C184.549 206.207 184.187 207.074 183.638 207.585C183.569 207.019 183.551 206.493 183.524 205.926C183.157 206.195 182.836 206.446 182.478 206.726L182.011 206.626C181.462 205.888 181.321 206.013 180.851 205.169Z" fill="#000101"/>
<path d="M150.944 289.741C151.759 289.339 154.67 289.196 155.5 289.783C155.617 290.294 155.643 290.055 155.453 290.505L155.228 290.327C154.705 290.709 154.524 291.608 154.306 292.278C153.689 292.382 153.863 290.95 153.012 290.429C152.982 290.973 153.071 290.845 152.827 291.255C152.072 290.708 151.63 290.367 150.944 289.741Z" fill="#000101"/>
<path d="M187.616 208.745C188.072 208.133 188.132 207.983 188.816 207.61C189.738 207.56 190.418 208.255 191.332 208.595L191.062 209.084L190.708 209.143C189.333 209.377 188.826 209.918 187.596 209.279L187.616 208.745Z" fill="#000101"/>
<path d="M206.72 220.506L207.527 219.471L207.854 219.437C208.204 220.227 208.276 222.239 208.694 223.699C207.687 223.029 207.175 221.624 206.72 220.506Z" fill="#000101"/>
<path d="M125.518 268.14L126.101 268.294C126.454 268.967 126.483 269.237 127.046 269.671C126.471 270.036 125.421 271.91 124.991 272.598C125.346 270.673 126.201 269.962 125.518 268.14Z" fill="#000101"/>
<path d="M311.684 297.754C312.191 297.855 312.746 297.994 313.254 298.021C312.821 298.577 312.592 299.134 312.269 299.77C311.997 299.09 311.862 298.46 311.684 297.754Z" fill="#000101"/>
<path d="M148.15 185.485C149.24 185.177 149.393 184.558 150.467 184.584C153.486 184.657 156.442 185.438 159.362 186.146L160.418 185.686C163.271 186.205 166.932 186.495 169.682 186.887C169.994 186.931 171.604 188.303 172.924 188.339C173.988 187.812 173.993 187.578 175.077 187.874C176.375 188.274 177.567 188.945 178.87 189.31C179.502 189.487 183.004 189.185 183.226 189.394C185.255 191.243 185.985 190.355 188.539 190.236C189.221 190.131 193.658 192.149 193.692 192.144C196.146 191.78 196.998 192.674 199.134 192.989C203.283 193.601 206.037 194.861 209.837 196.598C209.864 196.808 209.932 197.125 209.896 197.307C209.156 197.608 208.469 198.093 207.769 197.935C207.477 196.777 207.456 196.635 206.494 195.991C204.092 197.178 204.404 194.763 202.513 194.582C201.597 194.831 201.089 195.423 200.362 196.068C199.499 193.614 197.339 193.359 195.036 192.484C194.475 193.121 194.1 193.519 193.484 194.103L193.225 193.874C192.654 190.366 191.548 193.353 189.437 191.518C188.939 191.086 188.638 190.884 188.077 190.562C187.299 190.761 185.935 191.826 185.209 192.332L184.868 192.223C184.681 191.708 184.499 191.191 184.322 190.673C183.769 190.426 183.683 190.493 183.059 190.517C182.132 191.085 181.985 191.329 180.979 191.258C180.443 190.851 180.162 190.566 179.506 190.404C177.78 191.59 178.921 189.539 177.178 188.975C176.644 189.291 176.333 190.213 176.048 190.832L175.857 190.765C175.661 189.947 175.61 189.688 175.269 188.931C173.937 188.267 173.803 188.796 172.599 189.434C169.543 188.045 169.343 188.262 166.077 187.896C161.676 187.401 157.023 186.396 152.652 185.866C152.194 186.193 152.186 186.222 151.664 186.41C150.604 185.292 150.212 186.308 148.331 185.848L148.15 185.485Z" fill="#000101"/>
<path d="M268.398 297.943C268.893 298.094 269.157 298.054 269.474 298.439C270.736 299.962 272.613 301.679 274.269 302.746C276.08 303.912 276.115 303.675 277.476 305.374C278.183 305.63 279.829 306.354 280.43 306.517C281.77 306.876 285.936 309.159 286.897 309.083L287.786 308.484L287.971 308.616L287.874 309.192C290.783 311.765 297.522 311.825 301.608 313.288C303.243 312.477 302.945 312.389 304.59 313.37C305.035 313.332 305.178 313.351 305.599 313.222C306.412 313.331 307.452 313.519 308.246 313.494C312.532 313.119 313.686 314.993 317.481 312.852C317.075 314.083 316.493 314.522 315.181 314.768C313.591 315.063 311.949 314.308 310.324 314.164C308.359 313.991 305.541 315.056 303.779 313.913C303.362 313.593 303.461 313.622 302.878 313.29C302.209 313.751 302.169 313.825 301.373 314.078C298.489 313.473 295.671 312.875 292.726 312.514C291.849 312.405 289.694 311.01 288.684 310.74C286.461 310.151 285.993 310.503 284.32 308.805L284.114 308.593C283.979 308.877 284.08 308.722 283.744 309.008C282.672 308.425 281.414 308.525 281.253 308.428C276.095 305.371 271.811 303.027 268.398 297.943Z" fill="#000101"/>
<path d="M91.6332 189.164C92.8665 186.025 100.404 181.889 102.782 183.791C103.657 183.878 103.618 182.944 104.218 182.876C105.243 182.672 107.656 183.469 108.566 182.843C111.608 180.75 123.486 183.5 125.212 182.468L125.679 182.725C124.974 183.204 124.715 183.482 124.14 184.121C122.955 183.315 124.699 183.159 123.197 183.073C122.956 183.195 122.578 183.457 122.327 183.511C120.96 183.805 115.361 182.251 114.793 183.254C114.691 183.435 114.638 183.951 114.604 184.131L114.322 184.226C114.124 183.6 114.107 183.43 114.013 182.798L113.726 182.522C113.089 182.668 112.985 182.811 112.457 183.197C111.084 183.138 109.958 182.791 108.782 183.695C106.889 185.149 107.235 183.686 106.255 183.802C104.181 184.046 102.891 184.642 100.715 184.434C100.476 184.907 100.128 185.848 99.7483 185.974C99.4861 185.222 99.5123 185.159 99.4629 184.389C96.6939 185.486 94.8482 186.505 92.8333 188.811L92.3083 189.402L91.6332 189.164Z" fill="#000101"/>
<path d="M115.96 284.483L116.681 284.88L117.647 284.544C119.061 286.224 123.138 293.357 124.294 293.493L124.858 293.212C126.058 294.515 126.229 296.124 127.799 296.801C128.451 296.761 128.481 296.675 129.071 296.357C129.866 297.872 129.738 298.25 131.315 299.125C132.118 299.57 133.136 300.452 133.852 301.064L133.4 301.846C130.422 299.276 126.349 297.477 123.499 294.458C122.225 293.11 121.255 290.883 120.183 289.684C118.005 287.25 117.355 287.542 115.96 284.483Z" fill="#000101"/>
<path d="M286.907 195.732C286.692 196.063 286.2 197.003 285.667 196.99C284.01 196.948 283.451 198.732 282.171 197.433C281.349 197.24 280.643 197.496 279.808 197.773L277.589 197.622C274.375 198.774 271.183 200.089 267.971 201.129C267.062 201.424 266.497 201.448 265.592 201.942L265.282 201.862C265.315 201.448 265.441 200.804 265.51 200.375C266.689 199.894 267.081 199.643 268.385 199.546C270.116 199.416 273.859 198.198 275.41 197.414C278.053 196.078 285.092 196.91 286.907 195.732Z" fill="#000101"/>
<path d="M317.755 312.907C319.172 313.185 322.962 312.304 324.47 311.992C326.838 311.502 326.044 311.555 327.287 310.009C327.705 310.55 327.82 310.782 328.146 311.372C329.731 311.737 329.434 309.653 330.011 310.018C331.487 310.947 336.002 309.403 336.46 307.774L336.892 307.67C336.633 308.478 336.281 309.925 335.548 310.224C334.464 310.666 328.853 312.514 328.086 312.374L327.78 311.83C324.498 312.822 321.679 314.474 317.956 313.569L317.755 312.907Z" fill="#000101"/>
<path d="M125.751 183.653C126.37 183.684 126.817 183.202 127.429 182.775C128.177 182.746 131.172 183.047 131.984 183.198C136.448 184.03 144.082 183.379 148.188 184.469C146.153 185.288 144.803 185.425 142.828 184.463L142.593 184.61C141.982 184.987 141.732 185.228 141.021 185.241C139.531 184.513 139.042 183.601 137.639 184.877C136.174 186.21 135.521 184.383 133.95 184.056C132.962 183.849 130.684 184.451 129.565 184.352C128.286 184.254 129.461 183.683 127.879 183.472C127.152 183.749 126.778 183.911 126.082 184.257L125.797 184.047L125.751 183.653Z" fill="#000101"/>
<path d="M230.344 233.577C230.907 231.479 231.72 230.762 233.595 229.718C237.612 227.479 237.443 228.018 241.565 228.756C243.37 230.81 246.41 234.229 246.131 237.037C245.077 234.214 243.63 232.148 241.491 230.063L236.908 229.098C236.516 229.344 236.001 229.674 235.572 229.813C233.564 230.465 231.879 232.112 230.344 233.577Z" fill="#000101"/>
<path d="M156.601 306.914C158.776 307.339 163.165 306.698 165.548 307.077C167.058 307.101 168.621 307.148 170.116 306.913C170.709 306.819 171.15 306.257 171.651 305.937L172.116 306.302L171.564 306.818C170.805 307.304 169.957 308.452 169.291 308.618C169.117 308.138 169.1 307.992 169.011 307.486C168.375 307.373 167.974 308.087 167.726 308.093C164.487 308.163 161.325 308.044 158.085 308.47C157.1 308.599 157.172 307.596 156.728 307.145L156.601 306.914Z" fill="#000101"/>
<path d="M230.602 202.064C233.348 202.353 236.057 202.785 238.808 202.987C240.416 203.106 240.803 202.688 241.261 204.389L240.008 204.059C239.271 204.284 239.352 204.44 238.755 205.174C238.197 204.83 237.983 204.177 237.628 203.525C236.848 203.948 236.076 204.285 235.269 204.651C232.916 203.734 231.695 203.37 229.374 202.567L230.602 202.064Z" fill="#000101"/>
<path d="M182.344 304.667C182.636 304.087 182.61 304.107 183.074 303.661C184.958 303.265 190.715 301.922 191.437 300.433C191.636 300.025 192.245 299.456 192.64 299.084C193.848 298.879 194.314 298.691 195.45 298.273C194.8 299.284 194.337 300.208 193.18 300.616C192.644 300.294 192.876 300.513 192.625 299.788C191.924 300.419 191.061 301.75 190.529 302.143C188.488 303.659 185.047 304.247 182.757 305.223L182.344 304.667Z" fill="#000101"/>
<path d="M195.797 298.146L196.713 297.622C198.455 294.033 203.427 291.547 204.274 288.414L204.347 288.154L204.454 287.744C205.21 287.133 205.96 287.045 206.916 286.8C204.173 290.426 202.04 293.35 198.208 295.897C197.718 297.025 197.359 298.046 196.598 299.003L196.169 299.149C195.724 298.674 195.913 298.94 195.797 298.146Z" fill="#000101"/>
<path d="M288.26 196.891C288.833 196.503 289.762 195.587 290.328 195.305C291.908 194.513 294.951 195.574 296.557 195.232C296.84 194.597 296.695 194.782 297.152 194.292C297.716 194.427 297.856 194.489 298.4 194.684C299.084 194.489 299.341 194.449 300.026 194.345L300.485 195.036C298.565 195.744 296.537 195.452 294.67 196.079C294.302 196.203 294.211 197.061 293.216 197.148C292.309 196.595 291.6 195.995 290.581 195.972C289.626 196.301 289.294 196.88 288.663 197.683L288.349 197.694C288.14 197.123 288.112 197.382 288.26 196.891Z" fill="#000101"/>
<path d="M338.367 307.011C340.668 307.141 342.699 304.181 344.047 302.5C344.808 302.221 344.434 302.215 345.208 302.559C345.828 303.026 345.862 302.991 346.589 303.168C345.458 304.521 342.316 305.962 340.8 307.103C339.921 307.766 339.375 308.368 338.633 309.164L338.367 307.011Z" fill="#000101"/>
<path d="M209.836 196.598C212.302 197.182 214.726 197.927 217.225 198.516C218.312 199.189 218.867 199.304 220.072 199.683C219.218 200.013 219.103 200.028 218.186 200.146C216.614 199.186 215.444 199.312 213.637 198.864C211.926 198.439 211.446 198.118 209.895 197.306C209.931 197.124 209.863 196.807 209.836 196.598Z" fill="#000101"/>
<path d="M345.21 302.559C346.752 302.589 349.914 297.739 351.129 296.348C352.321 296.199 352.75 296.2 353.765 295.497C352.822 297.159 348.152 300.653 346.591 303.167C345.864 302.991 345.831 303.025 345.21 302.559Z" fill="#000101"/>
<path d="M256.587 203.596L256.729 203.369C258.251 200.962 262.791 200.984 265.51 200.374C265.441 200.804 265.315 201.448 265.282 201.861C263.422 201.781 258.278 202.823 256.587 203.596Z" fill="#000101"/>
<path d="M133.853 301.064C135.046 301.492 136.491 301.613 137.839 301.963C138.96 302.251 140.851 303.239 141.522 303.267L141.972 304.304L141.524 304.416C138.661 303.139 135.156 303.107 133.401 301.846L133.853 301.064Z" fill="#000101"/>
<path d="M147.938 305.531C149.736 305.479 154.292 306.181 156.011 306.724L156.377 306.839C156.451 306.864 156.525 306.889 156.599 306.914L156.726 307.145C155.575 308.709 154.11 307.77 153.107 306.699L152.911 306.487C152.073 307.287 149.205 306.738 148.041 306.473L147.938 305.531Z" fill="#000101"/>
<path d="M376.664 198.037L376.905 198.127C380.778 199.544 380.674 198.279 384.526 201.552C383.907 201.902 383.923 202.011 383.59 202.635C382.378 200.795 380.804 200.433 378.742 199.445C377.352 199.135 377.223 199.334 376.664 198.037Z" fill="#000101"/>
<path d="M376.106 233.634C375.799 231.508 379.896 227.817 381.499 226.63C382.06 226.216 382.279 226.296 382.881 226.423C380.703 229.861 378.83 229.029 376.106 233.634Z" fill="#000101"/>
<path d="M141.523 303.266C142.951 303.41 146.894 304.475 147.939 305.532L148.043 306.473L147.435 306.073C146.152 306.352 143.255 304.864 141.973 304.303L141.523 303.266Z" fill="#000101"/>
<path d="M109.426 270.041C110.622 271.587 111.156 270.526 111.603 273.036C111.931 274.881 113.156 277.381 113.32 279.153C111.702 276.486 110.034 273.118 109.426 270.041Z" fill="#000101"/>
<path d="M223.074 201.108C226.312 200.863 227.455 201.33 230.602 202.063L229.374 202.567C228.796 203.184 228.752 203.436 228.053 203.663C227.763 203.123 227.529 202.597 227.275 202.041L226.918 201.994L226.349 202.705L226.113 202.664L225.461 201.385L225.077 201.264C224.142 201.992 224.215 202.104 223.154 201.613L223.074 201.108Z" fill="#000101"/>
<path d="M370.232 196.908C371.294 196.456 374.465 197.708 375.668 197.491L375.915 198.154C375.471 198.715 374.829 199.754 374.325 200.004C374.33 199.3 374.337 198.998 374.23 198.284C373.395 197.88 372.82 198.434 371.551 198.383C370.94 197.911 370.843 197.797 370.056 197.627L370.232 196.908Z" fill="#000101"/>
<path d="M172.113 306.304L172.628 306.361C172.956 306.182 172.989 306.134 173.369 306.118C174.648 306.065 175.929 306.076 177.208 306.148L177.386 306.786C175.332 307.26 174.103 307.45 172.021 307.667C171.569 307.255 171.766 307.486 171.561 306.82L172.113 306.304Z" fill="#000101"/>
<path d="M101.491 225.662L101.888 225.562C102.972 227.809 103.852 228.719 102.564 231.032C101.81 228.646 101.858 228.094 101.491 225.662Z" fill="#000101"/>
<path d="M251.923 203.035L252.185 202.81C254.254 203.542 255.223 202.16 256.182 202.568L256.586 203.596C255.973 204.101 253.805 203.982 252.836 203.997C251.838 203.185 253.277 203.453 251.923 203.035Z" fill="#000101"/>
<path d="M384.524 201.553C385.284 202.058 385.774 202.357 386.441 202.97C385.659 203.291 385.054 203.809 384.373 204.313L384.038 204.126C383.94 203.654 383.889 203.423 383.72 202.98L383.588 202.636C383.92 202.011 383.904 201.902 384.524 201.553Z" fill="#000101"/>
<path d="M182.343 304.667L182.756 305.223C182.048 305.774 181.728 306.082 180.917 306.434C180.23 306.276 180.552 306.432 180.005 305.804L179.423 305.081C180.227 305.145 181.507 304.829 182.343 304.667Z" fill="#000101"/>
<path d="M220.072 199.684C220.885 200.047 220.839 200.029 221.718 199.841C221.445 200.72 221.51 201.034 220.939 201.57C220.011 201.36 219.84 200.531 218.186 200.147C219.104 200.029 219.219 200.014 220.072 199.684Z" fill="#000101"/>
<path d="M177.208 306.148C178.071 305.113 178.164 304.565 179.421 305.081L180.003 305.803C179.077 306.183 178.349 306.484 177.386 306.786L177.208 306.148Z" fill="#000101"/>
</svg>
