<svg width="500" height="500" viewBox="0 0 500 500" fill="none" xmlns="http://www.w3.org/2000/svg">
<path d="M261.425 118.935C263.63 112.075 268.365 111.42 270.555 106.145L270.205 105.745L267.955 106.87C268.355 102.145 273.375 101.685 275.975 99L284.295 100.145C286.46 103.085 283.675 103.97 284.555 107.24C285.95 107.04 285.41 107.065 286.795 105.945C287.955 106.99 287.93 108.53 287.41 110.01C286.06 113.855 293.24 123.54 293.275 126.46C293.395 135.3 296.73 139.785 299.705 147.76C300.715 150.47 298.735 153.805 299.42 155.4C300.75 155.295 301.345 155.175 302.655 154.905L303.09 155.46C302.795 156.545 302.585 157.35 302.555 158.48C304.92 159.795 313.075 154.28 315.155 152.7C315.85 152.175 318.105 153.19 318.76 153.48C320.335 152.945 320.64 152.065 321.55 150.635C332.48 146.34 343.27 139.13 354.06 134.335C360.46 131.49 361.91 137.335 360.35 142.755L360.69 143.68L362.31 144.025C362.88 146.19 360.975 148.835 359.825 150.89C364.125 157.825 361.195 155.26 359.48 162.66C356.995 173.4 356.41 184.58 354.905 195.375C360.565 198.505 358.975 197.065 364.5 197.12C368.875 195.455 371.395 194.65 375.835 196.03C377.985 194.565 388.08 192.96 390.36 193.285L390.225 194.75L390.815 194.995C391.605 193.985 391.85 193.5 392.49 192.405L393.52 192.155C395.11 193.01 395.275 193.595 396.19 195.145C396.645 194.225 397.395 192.995 398.665 192.735C403.225 191.805 411.2 190.74 415.57 192.515C417.185 193.17 417.805 196.08 418.16 197.505C418.45 198.665 418.73 199.83 418.995 200.995C416.94 203.69 416.455 204.875 413.24 205.545C410.385 215.395 411.35 209.375 406.67 214.35L405.915 217.785C405.435 219.965 396.41 228.82 394.145 230.325C392.735 234.555 389.865 239.56 387.405 243.35L386.195 242.695L385.335 243.605C384.155 246.405 383.97 246.47 381.86 248.54L379.76 250.615C382.25 253.215 382.92 253.335 386.285 254.435C386.6 255.69 386.62 255.915 386.7 257.21C394.205 258.37 406.155 261.685 411.55 267.075C415.455 266.18 426.095 271.005 430.205 272.615C431.46 273.11 433.195 276.47 434.48 277.175C435.705 277.805 436.335 276.17 437.595 277.46C437.69 279.54 437.685 279.655 437.325 281.7C435.095 286.3 437.655 286.56 432.705 288.83C430.89 290.32 410.965 297.21 408.575 297.01L408.25 298L407.69 298.21C397.435 302.075 387.245 307.96 376.925 311.925C375.5 312.475 376.205 316.355 376.51 317.425C378.13 318.5 379.175 318.775 379.89 320.255L378.745 320.75C380.365 325.355 383.29 324 383.295 330.795L384.095 331.46C385.725 330.93 385.46 330.825 387.075 330.94L387.47 331.73C387.135 332.69 386.92 333.51 386.42 334.39C389.54 335.42 389.785 335.935 391.03 338.965L392.8 341.735C395.63 346.075 397.145 352.565 401.065 356.21C403.08 358.585 402.585 358.84 403.835 360.89C410.285 370.74 409.295 379.94 395.57 375.28C389.045 374.805 380.09 372.525 373.245 371.77C372.265 371.665 369.295 370.2 367.34 369.735L366.865 370.435L366.08 370.54C366.105 369.745 366.075 370.02 366.16 369.3L366.22 368.835C361.95 367.145 356.92 370.3 354.555 366.01L353.36 366.985C351.34 367.375 346.84 366.7 344.52 366.45L342.735 365.705C333.555 364.6 334.63 371.195 335.69 377.57C336.075 379.915 335.515 382.68 335.12 385.055C335.07 387.355 335.74 394.715 335.395 395.7C335.76 397.655 335.8 397.35 335.51 399.155C335.015 402.225 336.245 407.36 335.735 410.63C334.92 415.835 332.94 419.615 332.705 425.025L333.075 425.325L335.06 423.05C336.055 424.485 334.125 425.965 333.12 427.035C332.77 428.485 333.495 429.545 334.135 430.98L333.795 431.81C331.61 430.115 331.96 429.755 329.965 429.955C331.395 431.08 331.07 430.4 331.545 431.84C330.87 432.595 330.185 433.32 329.435 433.995C330.245 434.37 330.41 434.27 330.805 434.83C328.2 435.05 325.5 436.39 324.32 436.115C320.75 435.29 322.56 433.075 321.31 431.125C319.77 431.46 318.525 431.955 317.125 431.405C315.67 429.9 316.485 429.485 316 428.08C314.27 423.095 308.09 423.425 307.14 417.515L306.445 416.92L305.05 417.61C302.245 416.945 301.36 416.12 299.685 413.755C297.515 410.88 294.14 407.8 291.5 405.235C291.34 405.145 291.175 405.06 291.015 404.97C285.785 399.725 278.37 394.04 272.695 389.475C270.895 391.74 269.605 393.355 266.56 393.345L265.885 394.105C264.89 398.35 263.75 399.895 260.72 402.97C258.23 405.945 259.625 404.43 256.505 405.54C255.565 405.875 254.335 411.385 253.66 412.965C252.62 415.38 244.925 423.49 244.86 425.05C244.51 433.15 238.08 431.73 236.93 441.9C235.785 442.205 235.83 442.165 234.64 442.055C232.62 443.395 230.485 445.15 228.19 445.475C224.525 444.525 221.81 438.31 221.57 434.685C219.01 432.765 220.915 436.13 218.625 433.505C219.09 427.04 216.655 423.725 214.685 417.605C213.53 414.015 212.515 412.875 214.01 409.145C211.03 407.77 207.8 395.97 208.365 392.85L209.295 392.215L209.59 391.62L207.61 391.935C206.49 390.12 206.755 386.895 206.79 384.675C205.36 383.88 201.945 381.465 200.69 382.04C189.995 386.91 182.135 392.51 170.645 396.25C168.935 398.745 166.115 401.735 163.135 402.58C161.96 403.03 160.275 404.045 159.125 404.195C156.98 404.47 154.12 403.84 152.535 405.815C151.35 407.29 152.92 407.585 151.215 409.115C144.165 406.71 145.54 405.315 144.98 397.87C149.63 392.125 147.26 393.22 149.26 387.085C154.47 375.805 156.39 360.05 160.75 348.175C155.225 345.36 152.92 345.26 146.99 345.82C140.7 347.155 135.195 346.285 129.015 345.325C128.16 346.655 128.21 346.625 127.005 347.63L126.01 347.58C125.6 346.695 125.285 345.98 124.935 345.07C123.97 345.635 123.13 346.375 122.255 346.755L122.775 348.075C119.945 348.51 118.785 347.815 115.47 348.265C110.545 349.46 106.19 347.75 102.39 347.75L102.22 348.205L103.56 349.01L103.435 349.5C100.71 350.055 99.0247 349.19 96.6747 347.885C95.6547 346.425 96.0997 343.615 96.1897 341.67C98.6347 337.785 102.885 332.165 105.825 328.66C108.67 325.23 113.115 321.63 114.855 317.455C117.38 311.39 134.775 294.87 134.685 289.575L133.745 288.96C134.615 287.795 134.685 287.755 135.235 286.43C133.715 284.01 123.93 280.115 120.89 278.555C118.515 278.435 109.115 268.55 108.8 268.535C100.48 268.15 97.7847 262.13 91.4447 258.195C86.3647 255.05 82.9547 250.23 89.9947 247.01C90.4697 245.155 90.0347 245.81 91.5497 244.47L92.0347 244.045C95.3997 241.05 101.455 241.565 104.905 238.32C105.895 237.385 105.74 237.495 106.955 237.105C106.505 238.165 106.12 239.23 105.785 240.33C108.025 238.825 114.415 233.23 116.53 233.84C115.815 234.92 114.8 235.935 114.97 236.865C117.3 235.865 117.27 234.405 117.835 234.12C124.9 230.58 153.86 228.21 141.52 215.275C141.52 215.275 141.68 213.03 141.695 212.79C134.065 211.815 140.845 208.245 135.905 203.68C134.915 202.76 134.5 202.08 134.07 200.845C134.055 198.82 134.18 198.885 135.31 197.1C128.045 194.675 128.245 192.155 128.13 185L127.515 184.41L126.275 184.45C122.085 182.535 113.685 164.115 117.555 159.32C118.605 158.02 119.795 156.26 121.68 156.3C126.265 156.395 127.585 155.95 131.19 158.665C131.36 158.86 132.035 159.6 132.13 159.795C133.025 159.27 134.17 158.25 135.8 158.92C140.13 160.705 144.865 162.665 149.275 164.38C149.545 164.96 149.815 165.545 150.09 166.13C153.265 166.08 153.67 164.925 156.945 167.365C159.555 169.305 161.04 169.47 164.28 169.55C171.915 175.685 170.25 171.505 173.99 173.48C175.585 179.16 176.79 175.505 179.755 175.615L180.925 177.195C190.97 178.185 186.92 153.73 187.215 148.11C187.905 145.38 186.1 143.87 187 141.25C187.905 140.335 188.665 139.775 189.005 138.555C188.515 137.85 187.19 135.885 187.19 135.175C187.205 128.965 186.895 113.15 190.45 108.12C191.965 107.41 191.47 107.63 193.565 108.24L194.21 105.995C200.04 103.24 210.22 117.295 211.76 122.155C213.88 126.585 219.76 128.185 220.36 133.885L221.7 134.185C226.735 142.28 229.095 144.19 233.275 153.17C234.895 154.905 235.285 154.26 237.755 154.765C237.005 156.82 234.92 156.23 235.08 157.885C237.855 158.335 240.2 154.87 242.375 153.14C243.73 151.31 246.91 147.18 248.005 145.32C249.77 142.64 250.905 137.575 252.505 135.04C255.145 130.855 258.01 121.705 261.425 118.935Z" fill="#FD235B"/>
<path d="M187.218 148.111C188.023 149.541 188.533 150.596 189.538 151.896C189.673 155.566 189.708 158.976 189.583 162.586C189.458 166.321 187.998 171.276 189.603 174.526C190.418 176.176 190.808 176.041 190.348 177.746L189.593 177.906L189.253 177.496C188.713 176.861 188.933 177.111 188.233 176.386C186.288 176.641 184.758 177.586 183.303 178.896C179.948 178.751 178.608 177.921 175.428 177.606C173.503 177.416 171.708 178.146 170.148 177.171L169.558 175.701L168.028 175.536L167.918 176.971L167.278 177.451C165.323 176.051 166.123 172.321 162.478 171.131C157.343 169.456 150.163 169.461 144.908 169.951L144.518 169.386C145.448 167.341 145.753 167.631 145.208 166.096C139.913 162.756 137.153 166.206 132.133 159.796C133.028 159.271 134.173 158.251 135.803 158.921C140.133 160.706 144.868 162.666 149.278 164.381C149.548 164.961 149.818 165.546 150.093 166.131C153.268 166.081 153.673 164.926 156.948 167.366C159.558 169.306 161.043 169.471 164.283 169.551C171.918 175.686 170.253 171.506 173.993 173.481C175.588 179.161 176.793 175.506 179.758 175.616L180.928 177.196C190.973 178.186 186.923 153.731 187.218 148.111Z" fill="#EE4177"/>
<path d="M391.03 338.967L392.8 341.737C395.63 346.077 397.145 352.567 401.065 356.212C403.08 358.587 402.585 358.842 403.835 360.892C410.285 370.742 409.295 379.942 395.57 375.282C399 370.767 398.515 374.487 403.12 373.152C404.195 371.287 404.51 368.937 402.53 367.587C400.27 368.122 400.05 368.272 398.545 366.702L398.82 365.877L399.755 365.812C400.41 365.177 400.875 364.677 401.485 364.012C400.665 360.997 398.79 363.052 397.54 357.517C396.23 357.177 395.82 357.102 394.61 356.532C392.8 354.062 392.715 352.117 392.185 349.057C392.925 343.512 389.63 343.137 391.03 338.967Z" fill="#EE4177"/>
<path d="M242.375 153.141C243.73 151.311 246.91 147.181 248.005 145.321C249.77 142.641 250.905 137.576 252.505 135.041C255.145 130.856 258.01 121.706 261.425 118.936C260.43 122.161 259.02 124.831 258.55 127.996C258.995 128.766 259.305 129.361 259.62 130.201C257.28 134.186 253.325 136.651 251.525 140.181C248.92 145.281 255.44 148.941 246.22 150.611C245.36 151.721 245.355 153.441 245.165 154.926C243.24 154.501 244.475 153.951 242.375 153.141Z" fill="#EE4177"/>
<path d="M330.276 402.936C334.061 400.191 334.446 400.336 335.396 395.701C335.761 397.656 335.801 397.351 335.511 399.156C335.016 402.226 336.246 407.361 335.736 410.631C334.921 415.836 332.941 419.616 332.706 425.026L333.076 425.326L335.061 423.051C336.056 424.486 334.126 425.966 333.121 427.036C332.771 428.486 333.496 429.546 334.136 430.981L333.796 431.811C331.611 430.116 331.961 429.756 329.966 429.956C328.471 421.631 332.011 420.271 333.501 412.531C334.251 408.631 332.636 405.966 330.276 402.936Z" fill="#EE4177"/>
<path d="M127.516 184.411L126.276 184.451C122.086 182.536 113.686 164.116 117.556 159.321C118.606 158.021 119.796 156.261 121.681 156.301C126.266 156.396 127.586 155.951 131.191 158.666C126.221 159.111 120.471 154.836 118.241 162.786C118.786 164.506 121.391 172.251 122.386 173.586C124.666 176.636 125.996 182.096 127.516 184.411Z" fill="#EE4177"/>
<path d="M149.26 387.086C151.71 392.751 147.295 396.231 150.01 398.481L152.675 398.901C152.055 400.846 149.785 399.786 149.105 403.896L149.651 404.656C152.191 404.546 154.22 402.591 156.12 401.856C155.3 402.171 163.19 402.586 163.135 402.581C161.96 403.031 160.275 404.046 159.125 404.196C156.98 404.471 154.12 403.841 152.535 405.816C151.35 407.291 152.921 407.586 151.216 409.116C144.166 406.711 145.54 405.316 144.98 397.871C149.63 392.126 147.26 393.221 149.26 387.086Z" fill="#EE4177"/>
<path d="M396.191 195.146C396.646 194.226 397.396 192.996 398.666 192.736C403.226 191.806 411.201 190.741 415.571 192.516C417.186 193.171 417.806 196.081 418.161 197.506C418.451 198.666 418.731 199.831 418.996 200.996C416.941 203.691 416.456 204.876 413.241 205.546C413.906 202.711 417.566 200.251 416.501 196.946C415.306 195.556 411.931 194.156 410.171 194.346C409.716 196.101 410.046 195.656 409.051 196.996L408.251 196.886C407.506 195.746 407.476 195.411 406.321 194.781C405.786 195.556 405.411 196.031 404.806 196.761L404.121 196.496L403.626 194.466L402.976 194.361C400.441 195.461 398.786 196.511 396.191 195.146Z" fill="#EE4177"/>
<path d="M411.551 267.077C415.456 266.182 426.096 271.007 430.206 272.617C431.461 273.112 433.196 276.472 434.481 277.177C435.706 277.807 436.336 276.172 437.596 277.462C437.691 279.542 437.686 279.657 437.326 281.702C436.281 280.927 436.391 280.912 435.681 279.807C434.976 281.212 434.286 281.147 432.926 281.547C429.071 278.547 431.576 277.837 429.211 275.767C424.256 275.802 426.431 273.747 425.146 272.957C420.486 270.097 415.646 272.177 411.551 267.077Z" fill="#EE4177"/>
<path d="M193.566 108.24L194.211 105.995C200.041 103.24 210.221 117.295 211.761 122.155C208.121 120.545 203.021 113.025 200.681 109.675C199.611 108.14 195.316 111.155 193.566 108.24Z" fill="#EE4177"/>
<path d="M333.857 366.197C335.342 364.462 336.162 363.717 337.882 362.182L342.737 365.707C333.557 364.602 334.632 371.197 335.692 377.572C336.077 379.917 335.517 382.682 335.122 385.057C333.887 383.807 332.462 382.777 332.027 381.282C332.342 380.977 333.357 380.027 333.377 379.612C333.562 375.092 333.457 370.732 333.857 366.197Z" fill="#EE4177"/>
<path d="M291.5 405.237C293.67 405.017 294.175 404.787 296.06 405.662C297.865 407.592 298.15 409.187 299.64 410.967C301.22 410.757 303.115 410.277 304.47 410.947C305.025 413.162 304.11 414.227 305.245 416.102L306.445 416.922L305.05 417.612C302.245 416.947 301.36 416.122 299.685 413.757C297.515 410.882 294.14 407.802 291.5 405.237Z" fill="#EE4177"/>
<path d="M220.362 133.887L221.702 134.187C226.737 142.282 229.097 144.192 233.277 153.172C229.087 151.212 232.472 153.687 228.652 152.902L228.512 152.212C229.802 151.402 230.027 151.502 230.702 150.287C228.702 147.037 225.437 140.972 221.512 140.427C219.867 140.702 219.472 141.302 218.252 142.452L217.807 142.872C217.072 141.912 220.307 138.097 220.707 136.822C220.707 136.822 220.387 134.117 220.362 133.887Z" fill="#EE4177"/>
<path d="M135.311 197.102C141.466 203.532 138.131 205.602 141.696 212.792C134.066 211.817 140.846 208.247 135.906 203.682C134.916 202.762 134.501 202.082 134.071 200.847C134.056 198.822 134.181 198.887 135.311 197.102Z" fill="#EE4177"/>
<path d="M89.9961 247.01C90.4711 245.155 90.0361 245.811 91.5511 244.471L92.0361 244.045C95.4011 241.05 101.456 241.565 104.906 238.32C105.896 237.385 105.741 237.495 106.956 237.105C106.506 238.165 106.121 239.231 105.786 240.331C103.611 241.186 103.401 240.81 102.631 242.35C103.041 244.34 103.306 243.62 102.491 244.855C101.281 244.48 100.556 243.615 99.6061 242.735C98.3811 243.515 98.4411 243.845 97.6661 245.23C95.3311 245.905 94.0511 244.52 92.2411 245.165C89.8711 246.005 93.0111 246.92 89.9961 247.01Z" fill="#EE4177"/>
<path d="M214.011 409.147C211.031 407.772 207.801 395.972 208.366 392.852L209.296 392.217C209.991 395.987 211.706 398.837 213.041 402.362C213.786 404.337 213.736 406.957 214.011 409.147Z" fill="#EE4177"/>
<path d="M129.016 345.326C132.411 343.016 135.236 346.036 137.766 344.816C138.331 344.201 138.816 343.421 139.441 343.321C140.361 343.176 146.416 345.476 146.991 345.821C140.701 347.156 135.196 346.286 129.016 345.326Z" fill="#EE4177"/>
<path d="M432.927 281.547C434.287 281.147 434.977 281.212 435.682 279.807C436.392 280.912 436.282 280.927 437.327 281.702C435.097 286.302 437.657 286.562 432.707 288.832C432.602 286.512 432.752 283.867 432.927 281.547Z" fill="#EE4177"/>
<path d="M364.5 197.121C368.875 195.456 371.395 194.651 375.835 196.031C372.145 199.001 368.835 199.486 364.5 197.121Z" fill="#EE4177"/>
<path d="M379.761 250.615C378.936 249.37 378.881 248.22 378.621 246.74C379.906 243.33 381.926 245.465 385.336 243.605C384.156 246.405 383.971 246.47 381.861 248.54L379.761 250.615Z" fill="#EE4177"/>
<path d="M260.721 402.971C259.826 397.801 261.456 396.29 265.886 394.105C264.891 398.35 263.751 399.896 260.721 402.971Z" fill="#EE4177"/>
<path d="M344.52 366.451C348.045 365.721 350.975 362.986 353.68 364.361L354.555 366.011L353.359 366.986C351.339 367.376 346.84 366.701 344.52 366.451Z" fill="#EE4177"/>
<path d="M115.473 348.266C114.858 348.206 115.243 348.276 114.363 347.881C114.978 346.416 116.188 344.981 117.778 344.676C119.183 347.116 119.378 346.451 122.258 346.756L122.778 348.076C119.948 348.511 118.788 347.816 115.473 348.266Z" fill="#EE4177"/>
<path d="M271.13 281.961C273.825 283.136 279.2 284.351 282.435 285.396C287.59 291.396 288.185 286.476 290.26 289.361L289.16 290.811L289.695 291.401C290.63 290.776 291.025 290.586 292.04 290.096C293.52 290.371 304.925 297.976 305.98 299.246C305.455 306.061 315.71 305.296 315.52 312.871C315.5 313.576 320.69 316.786 320.89 318.571C321.305 322.231 319.545 329.006 318.245 332.096C316.3 331.916 316.365 331.896 314.475 332.351C313.475 333.531 313.805 332.821 313.845 334.696L313.21 335.111C301.315 336.316 305.555 332.586 301.29 329.646C300.29 330.511 300.335 330.586 299.1 330.991C295.5 329.031 292.19 324.226 288.995 321.721C288.295 321.176 283.175 320.276 282.83 319.516C282.255 318.241 283.095 317.711 281.485 316.691C280.005 317.266 280.365 317.411 279.425 319.301C276.855 319.506 270.11 315.341 265.765 315.151C264.265 316.091 263.51 316.761 261.745 316.946L261.37 316.311C262.61 315.481 262.705 315.421 263.735 314.346L263.34 313.991L262.355 314.066C261.19 315.141 260.945 315.431 259.565 316.271C258.68 316.346 257.7 316.421 256.96 315.811C255.255 314.396 252.32 316.216 250.33 316.426C246.07 316.871 246.61 317.091 243.35 315.076C241.455 315.576 234.805 320.661 233 322.026C231.705 321.631 233.135 321.341 231.94 319.246C228.65 322.086 215.71 333.861 211.275 336.501C210.465 336.986 209.4 333.601 204.645 334.436C203.565 333.916 202.54 333.551 201.425 333.131C201.335 331.596 201.32 331.176 201.46 329.586L203.4 329.536L203.545 329.031C202.115 328.176 202.05 328.331 201.06 327.041C201.735 325.906 202.73 324.686 201.575 323.571L200.085 324.636L199.785 323.746C199.935 322.436 200.2 322.086 201.09 321.131C204.66 317.296 201.575 318.506 202.675 315.596C203.91 315.431 203.495 315.561 204.645 315.011L203.985 313.541L204.36 312.856C205.575 313.006 205.185 313.026 206.32 312.821L206.47 311.756L205.255 310.396L205.965 308.941C207.51 307.956 206.665 308.156 208.615 308.511C210.02 308.041 214.97 302.056 217.015 300.376C218.345 300.961 217.83 300.871 219.255 300.941C221.445 297.811 218.49 300.836 219.42 297.661L220.93 298.016L221.535 297.581L220.765 296.421C224.935 291.486 232.69 291.276 236.885 288.306C237.03 287.181 237.02 287.131 237.435 286.086C238.71 285.666 240.275 285.586 241.51 286.041C243.99 286.956 246.335 286.006 249 285.256L248.94 285.426C250.075 285.166 257.035 283.446 257.605 283.446C261.33 283.421 265.455 284.551 269.49 283.816C270.175 282.486 269.87 282.966 271.13 281.961Z" fill="#000101"/>
<path d="M287.911 234.997C288.906 236.187 289.196 236.222 289.286 237.697L287.796 236.577L287.191 237.007C289.176 240.867 292.911 238.562 292.126 241.957L293.081 242.482C294.291 241.907 293.871 242.187 294.781 241.152C296.826 241.207 301.301 241.537 303.036 240.972C305.256 237.327 302.656 238.927 304.596 235.812L306.486 235.802C308.401 233.172 305.466 230.297 308.066 229.167L311.176 230.282L311.371 229.902L310.221 228.427L310.741 227.997C311.641 228.377 312.391 228.717 313.271 229.147C314.166 228.642 314.631 228.362 315.461 227.762C317.096 228.162 316.981 228.172 318.281 229.272L317.706 229.442L318.201 229.062L318.026 228.892L317.781 229.427L315.306 229.397C315.841 230.742 318.511 231.367 318.901 233.472C318.981 233.907 320.096 235.422 320.391 235.837L320.886 235.712C321.321 234.162 321.251 234.107 321.216 232.467C322.251 235.797 320.981 246.897 320.046 250.817C319.841 251.667 319.051 252.007 318.311 252.287L318.146 251.492C319.871 248.962 320.166 249.392 319.996 246.872L319.396 246.437C317.811 247.777 315.501 255.317 312.631 256.562L312.256 256.122L312.761 254.452C312.146 254.927 308.931 257.582 308.516 257.812C305.766 259.342 302.216 258.927 299.331 260.467L298.146 259.822C295.156 260.757 291.041 264.302 289.136 258.427L288.101 257.452C283.121 257.587 283.446 258.807 279.956 253.687C275.306 252.652 274.301 252.357 273.596 247.542C274.126 244.317 273.911 247.957 276.746 244.927C277.141 243.317 277.191 243.422 276.761 241.837C275.466 241.477 275.471 241.642 274.116 241.817C273.286 240.422 273.921 239.487 273.831 237.212L272.556 237.082L272.316 236.442C273.626 235.637 273.576 235.702 274.541 234.517L273.336 231.287L273.836 231.047C275.501 232.182 275.606 232.332 277.596 232.422C276.166 230.397 275.986 230.847 276.046 228.872C277.921 227.877 279.161 228.867 280.856 229.892L281.536 229.507L280.821 228.207C283.886 228.587 287.406 231.757 287.911 234.997Z" fill="#000101"/>
<path d="M277.595 232.42C276.165 230.395 275.985 230.845 276.045 228.87C277.92 227.875 279.16 228.865 280.855 229.89L281.535 229.505L280.82 228.205C283.885 228.585 287.405 231.755 287.91 234.995C286.525 233.915 285.375 232.24 283.785 232.115L283.435 232.51C280.245 236.095 280.99 232.225 277.595 232.42Z" fill="#32090A"/>
<path d="M289.137 258.426C292.747 259.321 291.342 258.681 294.927 258.186L295.387 258.436C296.302 258.931 297.217 259.371 298.147 259.821C295.157 260.756 291.042 264.301 289.137 258.426Z" fill="#181313"/>
<path d="M273.598 247.541C277.328 249.316 277.903 250.066 279.958 253.686C275.308 252.651 274.303 252.356 273.598 247.541Z" fill="#DA1D4E"/>
<path d="M219.712 234.195C230.597 237.795 229.802 245.995 227.692 255.425C226.537 255.15 227.152 255.255 225.852 255.145C224.642 257.34 226.382 256.89 225.367 259.125C222.417 258.56 220.317 261.75 218.397 264.055C218.387 266.73 218.527 266.3 216.102 267.345C216.587 266.2 216.612 266.75 216.297 265.67L214.822 265.24C213.042 265.93 213.812 265.395 212.592 267.1L212.727 267.81C213.772 267.225 213.687 267.235 214.882 267.225C213.942 267.89 212.242 268.745 211.057 268.195C208.057 266.805 201.667 270.3 199.207 267.785L200.852 266.745L200.702 266.27C199.167 265.965 198.527 266.415 197.057 267.005L196.487 267.24L195.787 266.795C195.497 265.28 195.522 264.96 194.792 263.575L194.077 264.575L193.112 264.57C189.787 262.815 189.102 262.08 187.792 258.59C186.627 258.92 187.017 258.935 185.957 260.175L185.122 260.025C182.462 256.92 179.967 244.675 182.252 241.725L182.902 243.325L183.467 243.455L183.942 242.53C183.512 241.48 183.387 241.12 183.107 240.02L183.717 239.16C188.857 238.28 185.047 237.985 187.772 236.48C191.157 237.85 192.497 236.26 194.832 237.3C195.227 238.99 194.747 239.03 193.762 241.075L194.392 241.685C195.457 240.675 194.977 240.925 196.312 240.47C197.742 241.805 197.352 241.03 197.767 242.735L196.652 243.9L196.867 244.615C199.137 246.495 207.287 251.485 209.062 249.23C213.687 243.36 212.467 238.745 219.712 234.195Z" fill="#000101"/>
<path d="M328.586 254.695C329.856 255.375 332.666 257.495 334.291 258.505C339.356 261.645 344.861 263.825 349.236 267.85C356.691 274.705 354.866 277.195 355.306 285.725C353.746 287.71 352.261 289.1 350.481 290.86C348.436 292.475 342.806 293.695 340.196 294.275C329.991 289.17 327.946 283.95 327.356 272.925C326.946 265.31 325.596 262.025 328.586 254.695Z" fill="#4BBCF5"/>
<path d="M183.177 266.771C191.467 269.506 190.217 291.336 186.217 297.246C182.787 302.311 178.912 302.311 173.442 303.641L168.567 302.251C165.312 297.301 164.252 297.661 161.352 293.841C161.867 292.766 162.007 292.606 161.932 291.381C161.367 281.856 171.142 277.936 177.352 272.721C179.687 270.761 181.087 269.156 183.177 266.771Z" fill="#4BBCF5"/>
<path d="M167.043 83.8254C168.19 82.8126 168.257 82.5983 168.503 81.2198C169.032 78.256 172.309 76.0151 174.566 73.9182C174.922 73.5882 175.576 73.8095 176.142 73.2131C176.042 72.9401 175.96 72.6952 175.874 72.4176L176.203 72.2195C176.582 72.2604 176.853 72.2843 177.238 72.2973C179.139 70.003 187.483 68.8309 190.346 70.1539C193.474 69.3476 192.881 69.2711 194.504 70.7632C195.365 71.5525 198.412 71.6961 198.915 73.1753C199.434 74.7024 202.242 75.8272 203.154 77.3018C204.176 78.5918 204.051 79.2933 204.821 80.4057C205.714 80.8711 207.31 80.5018 208.108 79.7857C208.524 79.2954 208.443 78.2632 208.797 77.78C212.189 73.1599 215.253 68.2794 220.819 65.4527C221.362 65.177 222.154 64.5093 222.766 64.4026L222.963 64.9604L223.419 65.0924C224.27 64.8136 224.952 63.9951 225.924 64.2322C227.302 64.5666 229.136 63.2488 230.49 63.2092C232.772 63.1185 234.967 64.1058 237.111 64.4307C240.189 64.8966 241.143 65.758 243.378 67.3689L243.585 67.9099C244.349 69.9837 246.26 70.6304 247.49 72.4234C247.755 72.8106 248.041 74.3487 248.319 75.0257C250.981 76.5984 248.47 82.7709 251.613 85.2707C255.284 84.6139 258.588 82.2199 261.826 80.5889C263.118 79.9379 265.089 80.0032 266.5 79.5559C266.88 79.2099 267.127 78.8884 267.619 78.8062C268.936 79.2345 269.566 78.936 270.926 78.9641C274.114 79.0315 276.538 80.0362 279.387 80.9292C280.894 83.0204 282.278 82.0493 283.117 83.642C283.612 84.5829 283.6 84.318 284.266 85.0163C286.855 87.7323 289.424 93.8199 288.354 97.5702C287.528 100.461 286.909 100.715 286.416 104.165C285.928 104.606 284.428 106.172 284.69 106.572C285.347 107.582 285.276 107.04 285.17 108.483C287.074 109.343 287.979 106.923 289.515 107.45C290.45 107.824 291.813 107.621 292.941 107.534C306.434 106.498 314.297 122.534 311.469 133.352C311.121 133.667 310.702 134.009 310.337 134.318C310.12 134.901 310.201 134.735 310.471 135.425C312.524 137.197 316.002 137.692 317.86 139.37C318.778 139.457 319.391 139.489 320.321 139.495C321.472 140.449 322.282 141.104 323.755 141.702C327.284 143.139 329.59 145.799 332.905 147.574C333.431 149.103 334.455 150.165 335.042 151.668C336.309 154.921 336.594 159.136 335.938 162.725C335.577 164.704 332.91 169.627 330.964 170.951C329.621 171.865 328.931 171.907 327.996 173.471C327.877 173.63 324.517 175.179 323.878 175.513C323.099 175.308 323.331 174.537 322.599 175.058C320.229 176.744 318.457 175.94 315.882 176.166C314.778 176.263 314.077 176.712 312.586 176.754C310.493 175.587 307.968 175.559 305.608 174.962C304.177 174.601 304.078 174.314 302.463 174.639C300.487 175.038 298.474 175.129 296.481 175.531C294.391 177.585 294.793 178.008 294.046 180.436C293.437 182.418 292.601 184.59 291.912 186.573C291.273 188.27 289.075 190.885 288.768 192.275C286.207 194.096 285.063 193.864 283.462 196.125C282.949 196.296 281.487 196.743 281.035 196.983C275.255 200.049 270.946 199.595 264.66 199.333C262.694 198.002 263.028 198.059 260.479 198.38C259.45 198.284 257.989 197.559 257.165 197.16C255.217 196.218 253.282 195.566 251.325 194.664C251.426 194.711 248.935 194.861 248.549 194.83C248.2 195.249 246.816 196.802 246.66 197.141C245.201 200.294 244.923 204.33 243.276 207.375C242.796 208.261 240.052 210.587 239.884 211.722C239.787 212.373 234.255 214.854 233.38 214.95C231.837 215.431 231.202 216.41 229.354 216.636C225.535 217.117 221.554 217.391 217.816 216.88C217.117 216.785 215.552 217.072 214.919 216.735C210.965 214.626 207.251 212.095 203.21 210.066C203.157 210.033 203.104 209.998 203.051 209.965C200.14 210.428 201.349 211.009 199.149 212.34C198.294 213.872 198.453 215.22 197.922 216.45C196.879 218.865 193.93 224.14 191.56 225.582L190.909 226.925C188.645 227.982 186.716 229.259 184.549 230.292C183.085 230.99 177.517 232.805 175.887 232.401C175.546 232.316 175.278 232.107 175.016 231.914C174.239 231.909 171.009 232.009 170.571 231.782C168.677 230.8 166.788 230.214 164.767 229.452C164.469 229.092 164.263 228.833 163.993 228.447L163.649 228.484C161.197 228.724 161.09 227.368 159.571 226.69C157.148 225.609 154.387 225.024 152.741 222.905C151.556 222.938 150.871 222.966 149.704 222.848C148.083 223.696 147.717 224.315 146.301 225.176C145.654 227.077 144.961 228.468 143.747 230.185C142.671 231.708 142.04 232.251 141.283 233.903C141.219 233.935 141.153 233.965 141.089 233.997C140.001 234.248 139.207 236.17 138.455 235.964C138.328 235.928 137.844 235.948 137.706 235.952C137.125 236.603 136.723 237.167 135.893 237.502C134.485 238.072 132.082 239.655 130.839 240.183C126.738 241.926 118.924 241.289 115.011 240.405C111.506 239.614 106.145 236.38 104.735 233.358C104.162 232.131 102.73 228.632 102.988 227.161C103.075 226.662 103.627 225.457 103.832 224.855C104.099 224.602 103.351 224.047 103.357 224.025C103.901 221.952 104.718 219.844 105.543 217.83C105.912 216.926 106.634 215.841 107.19 214.991C108.196 213.455 109.042 211.755 110.175 210.295C111.156 209.031 112.435 207.834 113.396 206.546C114.156 205.439 115.016 203.765 115.842 202.923C115.219 202.829 115.195 202.85 114.633 202.568C113.654 200.595 112.923 201.84 111.349 200.815C110.198 200.063 108.91 198.9 107.941 197.953C107.136 197.167 105.6 196.138 105.583 195.017C105.569 194.605 105.566 194.488 105.371 194.099C105.275 194.057 104.411 193.663 104.392 193.62C102.852 190.123 102.735 186.162 102.638 182.375C102.62 181.64 103.478 180.124 103.498 179.233C103.177 178.969 103.137 178.967 102.931 178.627C104.367 173.916 106.033 169.506 111.153 166.782C111.883 166.393 112.634 165.921 113.343 165.492C113.594 164.959 113.915 164.371 114.189 163.839C113.293 161.831 111.586 160.153 110.316 158.249C110.158 158.233 109.307 158.138 109.235 158.104C108.437 157.617 106.375 156.008 106.048 155.196C104.911 152.368 104.822 149.217 103.589 146.337C103.407 145.913 104.256 145.227 104.247 145.142C104.024 143.01 104.649 141.197 105.474 139.154C107.109 137.949 107.682 136.098 108.828 134.554C112.386 129.76 121.299 124.444 127.576 125.178C127.692 125.258 127.809 125.336 127.927 125.413C128.653 125.878 128.882 125.729 129.948 125.516C131.15 125.276 131.62 125.391 132.796 125.52C134.329 124.036 132.898 123.468 132.115 121.867C129.475 116.464 127.295 110.34 129.995 104.197C130.083 103.999 131.267 103.745 130.973 102.695C130.789 100.891 133.444 98.5731 134.326 96.9103C135.704 93.6741 148.281 89.0914 150.754 90.4577C156.123 90.1116 158.739 92.5061 162.98 93.9427L163.211 94.0198C163.621 93.933 164.954 93.6679 165.189 93.3476C166.348 91.7624 166.097 89.4133 166.384 87.6354C166.528 86.752 166.762 86.1149 166.8 85.3213C166.83 84.6795 166.905 84.4294 167.043 83.8254Z" fill="#02FEF6"/>
<path d="M310.47 135.424C312.523 137.196 316.001 137.692 317.858 139.37C318.776 139.457 319.389 139.489 320.319 139.495C321.471 140.449 322.281 141.103 323.754 141.702C327.282 143.139 329.589 145.799 332.904 147.574C333.429 149.103 334.454 150.164 335.041 151.668C336.307 154.921 336.593 159.136 335.936 162.725C335.575 164.704 332.908 169.627 330.963 170.95C329.62 171.865 328.929 171.907 327.995 173.471C327.876 173.629 324.516 175.178 323.876 175.513C323.097 175.308 323.33 174.537 322.598 175.058C320.227 176.744 318.456 175.94 315.88 176.166C314.777 176.263 314.076 176.712 312.584 176.754C310.492 175.587 307.967 175.559 305.606 174.962C304.176 174.601 304.077 174.313 302.461 174.639C300.485 175.037 298.472 175.128 296.479 175.531C294.39 177.585 294.792 178.008 294.045 180.436C293.435 182.418 292.6 184.589 291.911 186.573C291.271 188.27 289.074 190.884 288.766 192.275C286.206 194.096 285.061 193.864 283.46 196.124C282.948 196.296 281.485 196.743 281.034 196.983C275.253 200.048 270.945 199.594 264.659 199.333C262.692 198.001 263.026 198.058 260.477 198.38C259.448 198.284 257.988 197.559 257.164 197.16C255.215 196.218 253.281 195.565 251.323 194.664C251.424 194.711 248.933 194.861 248.548 194.83C248.199 195.249 246.815 196.801 246.659 197.141C245.2 200.294 244.921 204.33 243.274 207.375C242.794 208.26 240.051 210.586 239.883 211.722C239.786 212.373 234.253 214.854 233.378 214.95C231.836 215.431 231.2 216.409 229.352 216.636C225.533 217.117 221.553 217.391 217.814 216.88C217.115 216.784 215.55 217.072 214.918 216.735C210.963 214.626 207.249 212.095 203.209 210.066C203.156 210.033 203.103 209.998 203.05 209.965C200.139 210.428 201.348 211.009 199.147 212.339C198.292 213.872 198.452 215.22 197.921 216.45C196.877 218.865 193.929 224.14 191.558 225.582L190.908 226.925C188.644 227.982 186.715 229.259 184.547 230.292C183.084 230.99 177.516 232.804 175.886 232.401C175.544 232.316 175.276 232.107 175.015 231.913C174.237 231.909 171.007 232.009 170.57 231.782C168.675 230.8 166.786 230.214 164.766 229.452C164.467 229.092 164.261 228.833 163.992 228.446L163.647 228.483C161.196 228.724 161.089 227.368 159.569 226.69C157.147 225.609 154.386 225.023 152.74 222.905C151.554 222.938 150.87 222.966 149.702 222.848C148.082 223.696 147.716 224.315 146.299 225.175C145.653 227.077 144.96 228.467 143.746 230.185C142.669 231.708 142.038 232.25 141.282 233.903C141.217 233.934 141.152 233.965 141.087 233.996C139.999 234.248 139.205 236.17 138.454 235.964C138.326 235.928 137.843 235.948 137.705 235.951C137.124 236.602 136.722 237.166 135.892 237.502C134.484 238.071 132.08 239.655 130.837 240.183C126.736 241.926 118.923 241.289 115.009 240.405C111.504 239.614 106.143 236.38 104.734 233.358C104.161 232.131 102.729 228.632 102.987 227.161C103.074 226.662 103.625 225.456 103.83 224.855C104.098 224.602 103.35 224.047 103.356 224.025C103.9 221.952 104.717 219.844 105.542 217.83C105.911 216.926 106.633 215.84 107.189 214.991C108.195 213.455 109.04 211.755 110.173 210.295C111.155 209.031 112.433 207.834 113.394 206.546C114.155 205.439 115.015 203.765 115.84 202.923C116.264 203.093 122.415 204.079 123.053 204.06C126.121 203.963 130.323 203.241 133.429 202.602C134.435 202.396 135.877 202.85 136.923 202.724C137.778 202.622 138.995 201.732 139.801 201.776C141.346 203.082 140.744 201.371 142.75 201.776L142.95 201.819L143.277 201.336C144.094 201.01 143.591 201.99 144.68 201.68C145.154 201.545 146.486 200.998 146.887 200.901C146.9 200.897 148.429 201.213 148.792 201.176C150.396 201.015 152.266 200.354 153.839 200.381C154.156 200.58 154.274 200.656 154.621 200.807C154.813 200.454 154.72 200.566 155.062 200.288C156.177 200.92 158.779 200.022 160.25 199.797C162.325 199.481 164.483 199.328 166.52 198.914C168.455 198.522 170.583 197.453 172.568 197.269C173.683 197.183 174.836 197.314 175.937 196.724L175.914 196.117L176.135 195.996L176.434 196.456C177.068 196.67 182.101 195.491 183.064 195.257C183.451 194.892 183.334 194.955 183.788 194.698C184.095 194.866 184.367 195.003 184.684 195.158C185.837 194.922 186.456 194.41 187.548 194.141L188.605 194.422C189.761 194.157 191.382 193.786 192.473 193.481C192.75 193.041 192.598 193.15 193.012 192.888L193.849 193.283C194.942 193.13 193.749 193.151 194.661 192.532L195.085 192.845C195.294 192.865 199.266 192.123 199.905 192.031C200.082 191.721 200.269 191.422 200.456 191.118C200.932 190.89 200.7 190.903 201.161 190.991L201.272 191.53C201.715 191.616 205.813 189.718 206.779 189.392C207.173 189.564 207.263 189.614 207.688 189.711C209.454 188.297 210.663 188.635 212.879 188.008C215.299 187.323 217.719 186.058 220.133 185.647C220.767 185.539 221.198 185.772 221.772 185.21C221.531 184.94 221.572 185.045 221.459 184.727C223.342 183.935 227.501 183.491 229.535 182.805C230.124 182.608 229.719 181.896 231.412 181.717C232.988 181.549 235.355 180.339 236.832 179.626C237.359 178.488 237.226 179.338 238.382 179.042L238.827 178.352C239.247 178.249 239.43 178.435 239.932 178.595C241.014 178.941 240.143 178.328 241.069 177.864C241.293 177.926 242.229 178.184 242.35 178.128C243.766 177.468 245.772 176.427 247.176 175.803C247.395 175.347 247.284 175.483 247.638 175.113C251.118 174.524 252.383 172.593 255.592 171.954C255.939 171.884 255.703 172.109 256.341 171.846C256.366 171.724 256.467 171.209 256.492 171.193C257.344 170.657 259.033 170.254 259.914 169.799C261.017 169.227 262.368 168.178 263.366 167.719C265.419 166.776 267.393 165.872 269.455 164.968C269.915 164.765 271.261 163.588 271.762 163.295C272.943 162.607 274.102 162.214 275.397 161.578C276.605 160.986 278.025 160.02 279.265 159.54C279.629 159.573 279.93 159.602 280.17 159.625C280.33 159.367 280.349 159.319 280.471 159.029L280.578 158.772C281.628 157.983 283.271 157.087 284.453 156.397C284.607 156.307 284.893 156.634 285.709 156.313C285.796 155.964 285.798 155.915 285.966 155.588C288.549 154.256 289.768 153.968 292.426 153.059L292.356 152.544C292.617 152.059 292.425 152.259 293.011 151.974C293.477 152.005 293.593 152.083 293.995 152.26L294.132 152.322C296.061 148.204 306.921 143.314 310.47 135.424Z" fill="white"/>
<path d="M223.393 142.978C222.208 142.054 221.142 141.746 219.767 141.068C219.788 140.682 219.787 140.808 220.015 140.411C219.461 139.606 219.552 140.258 219.23 139.864C218.55 139.034 219.436 138.528 218.182 138.239C217.614 137.376 215.4 133.513 215.756 132.458C215.937 131.918 216.152 131.891 215.928 131.397L215.283 131.248C214.422 129.61 216.402 127.642 216.364 126.88L215.77 126.825C215.534 126.254 216.366 124.416 216.664 123.793C217.581 121.875 220.618 118.924 222.801 118.151C225.682 117.13 228.887 117.036 231.539 118.172C233.723 119.108 235.345 119.988 236.556 121.896C236.726 122.165 237.263 122.355 237.595 122.491C237.554 122.958 237.548 122.901 237.401 123.368C238.304 124.677 239.612 126.224 239.87 127.732L239.79 127.963L239.49 128.119C239.72 129.03 241.03 130.128 240.72 130.859C240.031 132.483 240.657 134.462 240.357 136.167C240.34 136.257 239.543 136.691 239.386 136.774C239.378 137.261 239.436 137.35 239.579 137.801C237.829 140.602 234.785 143.705 231.051 144.332C229.985 144.512 226.419 144.224 225.572 143.673C224.851 143.467 224.106 143.211 223.393 142.978Z" fill="#1D1D1D"/>
<path d="M223.395 142.978C224.079 142.53 224.056 142.4 224.729 142.345C225.194 142.667 225.34 143.167 225.575 143.673C224.854 143.467 224.108 143.211 223.395 142.978Z" fill="#281E1D"/>
<path d="M171.349 135.819C175.896 134.085 180.965 135.336 183.936 138.385L183.766 138.779L183.893 139.024L184.844 139.125C185.539 139.73 184.551 139.677 185.128 140.177C185.596 140.582 186.138 140.448 186.55 141.189C186.274 142.594 186.603 141.643 187.37 142.305C187.622 143.168 187.082 143.715 187.393 144.316C187.836 144.406 187.933 144.386 188.281 144.619C188.887 146.875 187.961 145.945 187.857 146.716C189.716 147.555 188.234 148.533 188.144 150.033C188.129 150.274 188.487 150.833 188.442 151.078C187.909 153.956 186.377 156.587 183.933 158.665C183.179 159.314 182.82 159.666 181.947 159.691C181.707 159.727 181.694 159.819 181.432 160.041C180.33 160.281 179.386 161.084 178.288 161.074C171.38 161.01 171.434 160.396 166.84 156.17C165.861 155.27 166.138 154.73 165.732 153.42C165.056 153.203 164.932 153.25 164.89 152.643L165.36 152.183L165.331 151.904C163.963 151.184 165.226 150.147 165.061 148.612C164.693 148.314 164.666 148.303 164.396 147.934C164.439 147.257 164.546 145.302 164.676 144.532C164.681 144.5 164.977 144.446 165.232 144.019L164.886 142.985C165.156 142.31 165.386 141.45 166.121 141.057C166.868 140.658 166.662 140.434 166.537 139.861C166.872 138.943 170.27 136.479 171.349 135.819Z" fill="#1D1D1D"/>
</svg>
