<svg width="500" height="500" viewBox="0 0 500 500" fill="none" xmlns="http://www.w3.org/2000/svg">
<path d="M249.425 131.369C251.63 124.509 256.365 123.854 258.555 118.579L258.205 118.179L255.955 119.304C256.355 114.579 261.375 114.119 263.975 111.434L272.295 112.579C274.46 115.519 271.675 116.404 272.555 119.674C273.95 119.474 273.41 119.499 274.795 118.379C275.955 119.424 275.93 120.964 275.41 122.444C274.06 126.289 281.24 135.974 281.275 138.894C281.395 147.734 284.73 152.219 287.705 160.194C288.715 162.904 286.735 166.239 287.42 167.834C288.75 167.729 289.345 167.609 290.655 167.339L291.09 167.894C290.795 168.979 290.585 169.784 290.555 170.914C292.92 172.229 301.075 166.714 303.155 165.134C303.85 164.609 306.105 165.624 306.76 165.914C308.335 165.379 308.64 164.499 309.55 163.069C320.48 158.774 331.27 151.564 342.06 146.769C348.46 143.924 349.91 149.769 348.35 155.189L348.69 156.114L350.31 156.459C350.88 158.624 348.975 161.269 347.825 163.324C352.125 170.259 349.195 167.694 347.48 175.094C344.995 185.834 344.41 197.014 342.905 207.809C348.565 210.939 346.975 209.499 352.5 209.554C356.875 207.889 359.395 207.084 363.835 208.464C365.985 206.999 376.08 205.394 378.36 205.719L378.225 207.184L378.815 207.429C379.605 206.419 379.85 205.934 380.49 204.839L381.52 204.589C383.11 205.444 383.275 206.029 384.19 207.579C384.645 206.659 385.395 205.429 386.665 205.169C391.225 204.239 399.2 203.174 403.57 204.949C405.185 205.604 405.805 208.514 406.16 209.939C406.45 211.099 406.73 212.264 406.995 213.429C404.94 216.124 404.455 217.309 401.24 217.979C398.385 227.829 399.35 221.809 394.67 226.784L393.915 230.219C393.435 232.399 384.41 241.254 382.145 242.759C380.735 246.989 377.865 251.994 375.405 255.784L374.195 255.129L373.335 256.039C372.155 258.839 371.97 258.904 369.86 260.974L367.76 263.049C370.25 265.649 370.92 265.769 374.285 266.869C374.6 268.124 374.62 268.349 374.7 269.644C382.205 270.804 394.155 274.119 399.55 279.509C403.455 278.614 414.095 283.439 418.205 285.049C419.46 285.544 421.195 288.904 422.48 289.609C423.705 290.239 424.335 288.604 425.595 289.894C425.69 291.974 425.685 292.089 425.325 294.134C423.095 298.734 425.655 298.994 420.705 301.264C418.89 302.754 398.965 309.644 396.575 309.444L396.25 310.434L395.69 310.644C385.435 314.509 375.245 320.394 364.925 324.359C363.5 324.909 364.205 328.789 364.51 329.859C366.13 330.934 367.175 331.209 367.89 332.689L366.745 333.184C368.365 337.789 371.29 336.434 371.295 343.229L372.095 343.894C373.725 343.364 373.46 343.259 375.075 343.374L375.47 344.164C375.135 345.124 374.92 345.944 374.42 346.824C377.54 347.854 377.785 348.369 379.03 351.399L380.8 354.169C383.63 358.509 385.145 364.999 389.065 368.644C391.08 371.019 390.585 371.274 391.835 373.324C398.285 383.174 397.295 392.374 383.57 387.714C377.045 387.239 368.09 384.959 361.245 384.204C360.265 384.099 357.295 382.634 355.34 382.169L354.865 382.869L354.08 382.974C354.105 382.179 354.075 382.454 354.16 381.734L354.22 381.269C349.95 379.579 344.92 382.734 342.555 378.444L341.36 379.419C339.34 379.809 334.84 379.134 332.52 378.884L330.735 378.139C321.555 377.034 322.63 383.629 323.69 390.004C324.075 392.349 323.515 395.114 323.12 397.489C323.07 399.789 323.74 407.149 323.395 408.134C323.76 410.089 323.8 409.784 323.51 411.589C323.015 414.659 324.245 419.794 323.735 423.064C322.92 428.269 320.94 432.049 320.705 437.459L321.075 437.759L323.06 435.484C324.055 436.919 322.125 438.399 321.12 439.469C320.77 440.919 321.495 441.979 322.135 443.414L321.795 444.244C319.61 442.549 319.96 442.189 317.965 442.389C319.395 443.514 319.07 442.834 319.545 444.274C318.87 445.029 318.185 445.754 317.435 446.429C318.245 446.804 318.41 446.704 318.805 447.264C316.2 447.484 313.5 448.824 312.32 448.549C308.75 447.724 310.56 445.509 309.31 443.559C307.77 443.894 306.525 444.389 305.125 443.839C303.67 442.334 304.485 441.919 304 440.514C302.27 435.529 296.09 435.859 295.14 429.949L294.445 429.354L293.05 430.044C290.245 429.379 289.36 428.554 287.685 426.189C285.515 423.314 282.14 420.234 279.5 417.669C279.34 417.579 279.175 417.494 279.015 417.404C273.785 412.159 266.37 406.474 260.695 401.909C258.895 404.174 257.605 405.789 254.56 405.779L253.885 406.539C252.89 410.784 251.75 412.329 248.72 415.404C246.23 418.379 247.625 416.864 244.505 417.974C243.565 418.309 242.335 423.819 241.66 425.399C240.62 427.814 232.925 435.924 232.86 437.484C232.51 445.584 226.08 444.164 224.93 454.334C223.785 454.639 223.83 454.599 222.64 454.489C220.62 455.829 218.485 457.584 216.19 457.909C212.525 456.959 209.81 450.744 209.57 447.119C207.01 445.199 208.915 448.564 206.625 445.939C207.09 439.474 204.655 436.159 202.685 430.039C201.53 426.449 200.515 425.309 202.01 421.579C199.03 420.204 195.8 408.404 196.365 405.284L197.295 404.649L197.59 404.054L195.61 404.369C194.49 402.554 194.755 399.329 194.79 397.109C193.36 396.314 189.945 393.899 188.69 394.474C177.995 399.344 170.135 404.944 158.645 408.684C156.935 411.179 154.115 414.169 151.135 415.014C149.96 415.464 148.275 416.479 147.125 416.629C144.98 416.904 142.12 416.274 140.535 418.249C139.35 419.724 140.92 420.019 139.215 421.549C132.165 419.144 133.54 417.749 132.98 410.304C137.63 404.559 135.26 405.654 137.26 399.519C142.47 388.239 144.39 372.484 148.75 360.609C143.225 357.794 140.92 357.694 134.99 358.254C128.7 359.589 123.195 358.719 117.015 357.759C116.16 359.089 116.21 359.059 115.005 360.064L114.01 360.014C113.6 359.129 113.285 358.414 112.935 357.504C111.97 358.069 111.13 358.809 110.255 359.189L110.775 360.509C107.945 360.944 106.785 360.249 103.47 360.699C98.5447 361.894 94.1897 360.184 90.3897 360.184L90.2197 360.639L91.5597 361.444L91.4347 361.934C88.7097 362.489 87.0247 361.624 84.6747 360.319C83.6547 358.859 84.0997 356.049 84.1897 354.104C86.6347 350.219 90.8847 344.599 93.8247 341.094C96.6697 337.664 101.115 334.064 102.855 329.889C105.38 323.824 122.775 307.304 122.685 302.009L121.745 301.394C122.615 300.229 122.685 300.189 123.235 298.864C121.715 296.444 111.93 292.549 108.89 290.989C106.515 290.869 97.1147 280.984 96.7997 280.969C88.4797 280.584 85.7847 274.564 79.4447 270.629C74.3647 267.484 70.9547 262.664 77.9947 259.444C78.4697 257.589 78.0347 258.244 79.5497 256.904L80.0347 256.479C83.3997 253.484 89.4547 253.999 92.9047 250.754C93.8947 249.819 93.7397 249.929 94.9547 249.539C94.5047 250.599 94.1197 251.664 93.7847 252.764C96.0247 251.259 102.415 245.664 104.53 246.274C103.815 247.354 102.8 248.369 102.97 249.299C105.3 248.299 105.27 246.839 105.835 246.554C112.9 243.014 141.86 240.644 129.52 227.709C129.52 227.709 129.68 225.464 129.695 225.224C122.065 224.249 128.845 220.679 123.905 216.114C122.915 215.194 122.5 214.514 122.07 213.279C122.055 211.254 122.18 211.319 123.31 209.534C116.045 207.109 116.245 204.589 116.13 197.434L115.515 196.844L114.275 196.884C110.085 194.969 101.685 176.549 105.555 171.754C106.605 170.454 107.795 168.694 109.68 168.734C114.265 168.829 115.585 168.384 119.19 171.099C119.36 171.294 120.035 172.034 120.13 172.229C121.025 171.704 122.17 170.684 123.8 171.354C128.13 173.139 132.865 175.099 137.275 176.814C137.545 177.394 137.815 177.979 138.09 178.564C141.265 178.514 141.67 177.359 144.945 179.799C147.555 181.739 149.04 181.904 152.28 181.984C159.915 188.119 158.25 183.939 161.99 185.914C163.585 191.594 164.79 187.939 167.755 188.049L168.925 189.629C178.97 190.619 174.92 166.164 175.215 160.544C175.905 157.814 174.1 156.304 175 153.684C175.905 152.769 176.665 152.209 177.005 150.989C176.515 150.284 175.19 148.319 175.19 147.609C175.205 141.399 174.895 125.584 178.45 120.554C179.965 119.844 179.47 120.064 181.565 120.674L182.21 118.429C188.04 115.674 198.22 129.729 199.76 134.589C201.88 139.019 207.76 140.619 208.36 146.319L209.7 146.619C214.735 154.714 217.095 156.624 221.275 165.604C222.895 167.339 223.285 166.694 225.755 167.199C225.005 169.254 222.92 168.664 223.08 170.319C225.855 170.769 228.2 167.304 230.375 165.574C231.73 163.744 234.91 159.614 236.005 157.754C237.77 155.074 238.905 150.009 240.505 147.474C243.145 143.289 246.01 134.139 249.425 131.369Z" fill="#FD235B"/>
<path d="M175.218 160.545C176.023 161.975 176.533 163.03 177.538 164.33C177.673 168 177.708 171.41 177.583 175.02C177.458 178.755 175.998 183.71 177.603 186.96C178.418 188.61 178.808 188.475 178.348 190.18L177.593 190.34L177.253 189.93C176.713 189.295 176.933 189.545 176.233 188.82C174.288 189.075 172.758 190.02 171.303 191.33C167.948 191.185 166.608 190.355 163.428 190.04C161.503 189.85 159.708 190.58 158.148 189.605L157.558 188.135L156.028 187.97L155.918 189.405L155.278 189.885C153.323 188.485 154.123 184.755 150.478 183.565C145.343 181.89 138.163 181.895 132.908 182.385L132.518 181.82C133.448 179.775 133.753 180.065 133.208 178.53C127.913 175.19 125.153 178.64 120.133 172.23C121.028 171.705 122.173 170.685 123.803 171.355C128.133 173.14 132.868 175.1 137.278 176.815C137.548 177.395 137.818 177.98 138.093 178.565C141.268 178.515 141.673 177.36 144.948 179.8C147.558 181.74 149.043 181.905 152.283 181.985C159.918 188.12 158.253 183.94 161.993 185.915C163.588 191.595 164.793 187.94 167.758 188.05L168.928 189.63C178.973 190.62 174.923 166.165 175.218 160.545Z" fill="#EE4177"/>
<path d="M379.03 351.4L380.8 354.17C383.63 358.51 385.145 365 389.065 368.645C391.08 371.02 390.585 371.275 391.835 373.325C398.285 383.175 397.295 392.375 383.57 387.715C387 383.2 386.515 386.92 391.12 385.585C392.195 383.72 392.51 381.37 390.53 380.02C388.27 380.555 388.05 380.705 386.545 379.135L386.82 378.31L387.755 378.245C388.41 377.61 388.875 377.11 389.485 376.445C388.665 373.43 386.79 375.485 385.54 369.95C384.23 369.61 383.82 369.535 382.61 368.965C380.8 366.495 380.715 364.55 380.185 361.49C380.925 355.945 377.63 355.57 379.03 351.4Z" fill="#EE4177"/>
<path d="M230.375 165.574C231.73 163.744 234.91 159.614 236.005 157.754C237.77 155.074 238.905 150.009 240.505 147.474C243.145 143.289 246.01 134.139 249.425 131.369C248.43 134.594 247.02 137.264 246.55 140.429C246.995 141.199 247.305 141.794 247.62 142.634C245.28 146.619 241.325 149.084 239.525 152.614C236.92 157.714 243.44 161.374 234.22 163.044C233.36 164.154 233.355 165.874 233.165 167.359C231.24 166.934 232.475 166.384 230.375 165.574Z" fill="#EE4177"/>
<path d="M318.276 415.37C322.061 412.625 322.446 412.77 323.396 408.135C323.761 410.09 323.801 409.785 323.511 411.59C323.016 414.66 324.246 419.795 323.736 423.065C322.921 428.27 320.941 432.05 320.706 437.46L321.076 437.76L323.061 435.485C324.056 436.92 322.126 438.4 321.121 439.47C320.771 440.92 321.496 441.98 322.136 443.415L321.796 444.245C319.611 442.55 319.961 442.19 317.966 442.39C316.471 434.065 320.011 432.705 321.501 424.965C322.251 421.065 320.636 418.4 318.276 415.37Z" fill="#EE4177"/>
<path d="M115.516 196.845L114.276 196.885C110.086 194.97 101.686 176.55 105.556 171.755C106.606 170.455 107.796 168.695 109.681 168.735C114.266 168.83 115.586 168.385 119.191 171.1C114.221 171.545 108.471 167.27 106.241 175.22C106.786 176.94 109.391 184.685 110.386 186.02C112.666 189.07 113.996 194.53 115.516 196.845Z" fill="#EE4177"/>
<path d="M137.26 399.52C139.71 405.185 135.295 408.664 138.01 410.914L140.675 411.335C140.055 413.28 137.785 412.22 137.105 416.33L137.651 417.09C140.191 416.98 142.22 415.024 144.12 414.289C143.3 414.604 151.19 415.02 151.135 415.015C149.96 415.465 148.275 416.48 147.125 416.63C144.98 416.905 142.12 416.275 140.535 418.25C139.35 419.725 140.921 420.019 139.216 421.549C132.166 419.144 133.54 417.75 132.98 410.305C137.63 404.56 135.26 405.655 137.26 399.52Z" fill="#EE4177"/>
<path d="M384.191 207.58C384.646 206.66 385.396 205.43 386.666 205.17C391.226 204.24 399.201 203.175 403.571 204.95C405.186 205.605 405.806 208.515 406.161 209.94C406.451 211.1 406.731 212.265 406.996 213.43C404.941 216.125 404.456 217.31 401.241 217.98C401.906 215.145 405.566 212.685 404.501 209.38C403.306 207.99 399.931 206.59 398.171 206.78C397.716 208.535 398.046 208.09 397.051 209.43L396.251 209.32C395.506 208.18 395.476 207.845 394.321 207.215C393.786 207.99 393.411 208.465 392.806 209.195L392.121 208.93L391.626 206.9L390.976 206.795C388.441 207.895 386.786 208.945 384.191 207.58Z" fill="#EE4177"/>
<path d="M399.551 279.51C403.456 278.615 414.096 283.44 418.206 285.05C419.461 285.545 421.196 288.905 422.481 289.61C423.706 290.24 424.336 288.605 425.596 289.895C425.691 291.975 425.686 292.09 425.326 294.135C424.281 293.36 424.391 293.345 423.681 292.24C422.976 293.645 422.286 293.58 420.926 293.98C417.071 290.98 419.576 290.27 417.211 288.2C412.256 288.235 414.431 286.18 413.146 285.39C408.486 282.53 403.646 284.61 399.551 279.51Z" fill="#EE4177"/>
<path d="M181.566 120.674L182.211 118.429C188.041 115.674 198.221 129.729 199.761 134.589C196.121 132.979 191.021 125.459 188.681 122.109C187.611 120.574 183.316 123.589 181.566 120.674Z" fill="#EE4177"/>
<path d="M321.857 378.63C323.342 376.895 324.162 376.15 325.882 374.615L330.737 378.14C321.557 377.035 322.632 383.63 323.692 390.005C324.077 392.35 323.517 395.115 323.122 397.49C321.887 396.24 320.462 395.21 320.027 393.715C320.342 393.41 321.357 392.46 321.377 392.045C321.562 387.525 321.457 383.165 321.857 378.63Z" fill="#EE4177"/>
<path d="M279.5 417.67C281.67 417.45 282.175 417.22 284.06 418.095C285.865 420.025 286.15 421.62 287.64 423.4C289.22 423.19 291.115 422.71 292.47 423.38C293.025 425.595 292.11 426.66 293.245 428.535L294.445 429.355L293.05 430.045C290.245 429.38 289.36 428.555 287.685 426.19C285.515 423.315 282.14 420.235 279.5 417.67Z" fill="#EE4177"/>
<path d="M208.362 146.32L209.702 146.62C214.737 154.715 217.097 156.625 221.277 165.605C217.087 163.645 220.472 166.12 216.652 165.335L216.512 164.645C217.802 163.835 218.027 163.935 218.702 162.72C216.702 159.47 213.437 153.405 209.512 152.86C207.867 153.135 207.472 153.735 206.252 154.885L205.807 155.305C205.072 154.345 208.307 150.53 208.707 149.255C208.707 149.255 208.387 146.55 208.362 146.32Z" fill="#EE4177"/>
<path d="M123.311 209.535C129.466 215.965 126.131 218.035 129.696 225.225C122.066 224.25 128.846 220.68 123.906 216.115C122.916 215.195 122.501 214.515 122.071 213.28C122.056 211.255 122.181 211.32 123.311 209.535Z" fill="#EE4177"/>
<path d="M77.9961 259.444C78.4711 257.589 78.0361 258.244 79.5511 256.904L80.0361 256.479C83.4011 253.484 89.4561 253.999 92.9061 250.754C93.8961 249.819 93.7411 249.929 94.9561 249.539C94.5061 250.599 94.1211 251.664 93.7861 252.764C91.6111 253.619 91.4011 253.244 90.6311 254.784C91.0411 256.774 91.3061 256.054 90.4911 257.289C89.2811 256.914 88.5561 256.049 87.6061 255.169C86.3811 255.949 86.4411 256.279 85.6661 257.664C83.3311 258.339 82.0511 256.954 80.2411 257.599C77.8711 258.439 81.0111 259.354 77.9961 259.444Z" fill="#EE4177"/>
<path d="M202.011 421.58C199.031 420.205 195.801 408.405 196.366 405.285L197.296 404.65C197.991 408.42 199.706 411.27 201.041 414.795C201.786 416.77 201.736 419.39 202.011 421.58Z" fill="#EE4177"/>
<path d="M117.016 357.76C120.411 355.45 123.236 358.47 125.766 357.25C126.331 356.635 126.816 355.855 127.441 355.755C128.361 355.61 134.416 357.91 134.991 358.255C128.701 359.59 123.196 358.72 117.016 357.76Z" fill="#EE4177"/>
<path d="M420.927 293.98C422.287 293.58 422.977 293.645 423.682 292.24C424.392 293.345 424.282 293.36 425.327 294.135C423.097 298.735 425.657 298.995 420.707 301.265C420.602 298.945 420.752 296.3 420.927 293.98Z" fill="#EE4177"/>
<path d="M352.5 209.555C356.875 207.89 359.395 207.085 363.835 208.465C360.145 211.435 356.835 211.92 352.5 209.555Z" fill="#EE4177"/>
<path d="M367.761 263.049C366.936 261.804 366.881 260.654 366.621 259.174C367.906 255.764 369.926 257.899 373.336 256.039C372.156 258.839 371.971 258.904 369.861 260.974L367.761 263.049Z" fill="#EE4177"/>
<path d="M248.721 415.404C247.826 410.234 249.456 408.724 253.886 406.539C252.891 410.784 251.751 412.329 248.721 415.404Z" fill="#EE4177"/>
<path d="M332.52 378.885C336.045 378.155 338.975 375.42 341.68 376.795L342.555 378.445L341.359 379.42C339.339 379.81 334.84 379.135 332.52 378.885Z" fill="#EE4177"/>
<path d="M103.473 360.699C102.858 360.639 103.243 360.709 102.363 360.314C102.978 358.849 104.188 357.414 105.778 357.109C107.183 359.549 107.378 358.884 110.258 359.189L110.778 360.509C107.948 360.944 106.788 360.249 103.473 360.699Z" fill="#EE4177"/>
<path d="M259.13 294.395C261.825 295.57 267.2 296.785 270.435 297.83C275.59 303.83 276.185 298.909 278.26 301.794L277.16 303.245L277.695 303.835C278.63 303.21 279.025 303.02 280.04 302.53C281.52 302.805 292.925 310.41 293.98 311.68C293.455 318.495 303.71 317.73 303.52 325.305C303.5 326.01 308.69 329.22 308.89 331.005C309.305 334.665 307.545 341.44 306.245 344.53C304.3 344.35 304.365 344.329 302.475 344.784C301.475 345.964 301.805 345.255 301.845 347.13L301.21 347.544C289.315 348.749 293.555 345.02 289.29 342.08C288.29 342.945 288.335 343.019 287.1 343.424C283.5 341.464 280.19 336.66 276.995 334.155C276.295 333.61 271.175 332.71 270.83 331.95C270.255 330.675 271.095 330.145 269.485 329.125C268.005 329.7 268.365 329.844 267.425 331.734C264.855 331.939 258.11 327.775 253.765 327.585C252.265 328.525 251.51 329.195 249.745 329.38L249.37 328.745C250.61 327.915 250.705 327.855 251.735 326.78L251.34 326.424L250.355 326.5C249.19 327.575 248.945 327.865 247.565 328.705C246.68 328.78 245.7 328.855 244.96 328.245C243.255 326.83 240.32 328.649 238.33 328.859C234.07 329.304 234.61 329.525 231.35 327.51C229.455 328.01 222.805 333.095 221 334.46C219.705 334.065 221.135 333.775 219.94 331.68C216.65 334.52 203.71 346.295 199.275 348.935C198.465 349.42 197.4 346.035 192.645 346.87C191.565 346.35 190.54 345.985 189.425 345.565C189.335 344.03 189.32 343.61 189.46 342.02L191.4 341.97L191.545 341.465C190.115 340.61 190.05 340.764 189.06 339.474C189.735 338.339 190.73 337.12 189.575 336.005L188.085 337.07L187.785 336.18C187.935 334.87 188.2 334.52 189.09 333.565C192.66 329.73 189.575 330.94 190.675 328.03C191.91 327.865 191.495 327.995 192.645 327.445L191.985 325.974L192.36 325.289C193.575 325.439 193.185 325.46 194.32 325.255L194.47 324.19L193.255 322.83L193.965 321.375C195.51 320.39 194.665 320.59 196.615 320.945C198.02 320.475 202.97 314.49 205.015 312.81C206.345 313.395 205.83 313.305 207.255 313.375C209.445 310.245 206.49 313.27 207.42 310.095L208.93 310.45L209.535 310.015L208.765 308.854C212.935 303.919 220.69 303.71 224.885 300.74C225.03 299.615 225.02 299.565 225.435 298.52C226.71 298.1 228.275 298.019 229.51 298.474C231.99 299.389 234.335 298.44 237 297.69L236.94 297.859C238.075 297.599 245.035 295.88 245.605 295.88C249.33 295.855 253.455 296.985 257.49 296.25C258.175 294.92 257.87 295.4 259.13 294.395Z" fill="#000101"/>
<path d="M275.911 247.43C276.906 248.62 277.196 248.655 277.286 250.13L275.796 249.01L275.191 249.44C277.176 253.3 280.911 250.995 280.126 254.39L281.081 254.915C282.291 254.34 281.871 254.62 282.781 253.585C284.826 253.64 289.301 253.97 291.036 253.405C293.256 249.76 290.656 251.36 292.596 248.245L294.486 248.235C296.401 245.605 293.466 242.73 296.066 241.6L299.176 242.715L299.371 242.335L298.221 240.86L298.741 240.43C299.641 240.81 300.391 241.15 301.271 241.58C302.166 241.075 302.631 240.795 303.461 240.195C305.096 240.595 304.981 240.605 306.281 241.705L305.706 241.875L306.201 241.495L306.026 241.325L305.781 241.86L303.306 241.83C303.841 243.175 306.511 243.8 306.901 245.905C306.981 246.34 308.096 247.855 308.391 248.27L308.886 248.145C309.321 246.595 309.251 246.54 309.216 244.9C310.251 248.23 308.981 259.33 308.046 263.25C307.841 264.1 307.051 264.44 306.311 264.72L306.146 263.925C307.871 261.395 308.166 261.825 307.996 259.305L307.396 258.87C305.811 260.21 303.501 267.75 300.631 268.995L300.256 268.555L300.761 266.885C300.146 267.36 296.931 270.015 296.516 270.245C293.766 271.775 290.216 271.36 287.331 272.9L286.146 272.255C283.156 273.19 279.041 276.735 277.136 270.86L276.101 269.885C271.121 270.02 271.446 271.24 267.956 266.12C263.306 265.085 262.301 264.79 261.596 259.975C262.126 256.75 261.911 260.39 264.746 257.36C265.141 255.75 265.191 255.855 264.761 254.27C263.466 253.91 263.471 254.075 262.116 254.25C261.286 252.855 261.921 251.92 261.831 249.645L260.556 249.515L260.316 248.875C261.626 248.07 261.576 248.135 262.541 246.95L261.336 243.72L261.836 243.48C263.501 244.615 263.606 244.765 265.596 244.855C264.166 242.83 263.986 243.28 264.046 241.305C265.921 240.31 267.161 241.3 268.856 242.325L269.536 241.94L268.821 240.64C271.886 241.02 275.406 244.19 275.911 247.43Z" fill="#000101"/>
<path d="M265.595 244.854C264.165 242.829 263.985 243.279 264.045 241.304C265.92 240.309 267.16 241.299 268.855 242.324L269.535 241.939L268.82 240.639C271.885 241.019 275.405 244.189 275.91 247.429C274.525 246.349 273.375 244.674 271.785 244.549L271.435 244.944C268.245 248.529 268.99 244.659 265.595 244.854Z" fill="#32090A"/>
<path d="M277.137 270.859C280.747 271.754 279.342 271.114 282.927 270.619L283.387 270.869C284.302 271.364 285.217 271.804 286.147 272.254C283.157 273.189 279.042 276.734 277.137 270.859Z" fill="#181313"/>
<path d="M261.598 259.975C265.328 261.75 265.903 262.5 267.958 266.12C263.308 265.085 262.303 264.79 261.598 259.975Z" fill="#DA1D4E"/>
<path d="M207.712 246.629C218.597 250.229 217.802 258.429 215.692 267.859C214.537 267.584 215.152 267.689 213.852 267.579C212.642 269.774 214.382 269.324 213.367 271.559C210.417 270.994 208.317 274.184 206.397 276.489C206.387 279.164 206.527 278.734 204.102 279.779C204.587 278.634 204.612 279.184 204.297 278.104L202.822 277.674C201.042 278.364 201.812 277.829 200.592 279.534L200.727 280.244C201.772 279.659 201.687 279.669 202.882 279.659C201.942 280.324 200.242 281.179 199.057 280.629C196.057 279.239 189.667 282.734 187.207 280.219L188.852 279.179L188.702 278.704C187.167 278.399 186.527 278.849 185.057 279.439L184.487 279.674L183.787 279.229C183.497 277.714 183.522 277.394 182.792 276.009L182.077 277.009L181.112 277.004C177.787 275.249 177.102 274.514 175.792 271.024C174.627 271.354 175.017 271.369 173.957 272.609L173.122 272.459C170.462 269.354 167.967 257.109 170.252 254.159L170.902 255.759L171.467 255.889L171.942 254.964C171.512 253.914 171.387 253.554 171.107 252.454L171.717 251.594C176.857 250.714 173.047 250.419 175.772 248.914C179.157 250.284 180.497 248.694 182.832 249.734C183.227 251.424 182.747 251.464 181.762 253.509L182.392 254.119C183.457 253.109 182.977 253.359 184.312 252.904C185.742 254.239 185.352 253.464 185.767 255.169L184.652 256.334L184.867 257.049C187.137 258.929 195.287 263.919 197.062 261.664C201.687 255.794 200.467 251.179 207.712 246.629Z" fill="#000101"/>
<path d="M316.586 267.129C317.856 267.809 320.666 269.929 322.291 270.939C327.356 274.079 332.861 276.259 337.236 280.284C344.691 287.139 342.866 289.629 343.306 298.159C341.746 300.144 340.261 301.534 338.481 303.294C336.436 304.909 330.806 306.129 328.196 306.709C317.991 301.604 315.946 296.384 315.356 285.359C314.946 277.744 313.596 274.459 316.586 267.129Z" fill="#4BBCF5"/>
<path d="M171.177 279.205C179.467 281.94 178.217 303.77 174.217 309.68C170.787 314.745 166.912 314.745 161.442 316.075L156.567 314.685C153.312 309.735 152.252 310.095 149.352 306.275C149.867 305.2 150.007 305.04 149.932 303.815C149.367 294.29 159.142 290.37 165.352 285.155C167.687 283.195 169.087 281.59 171.177 279.205Z" fill="#4BBCF5"/>
<path d="M257.58 58.9249C258.128 58.8384 258.847 58.7112 258.469 58.8811C260.871 57.8 272.462 57.8861 272.261 61.6707L272.42 61.724C275.376 62.7452 277.283 63.7061 278.979 66.4299C280.747 70.3874 281.09 71.4061 281.306 75.7253C283.084 76.1993 283.053 76.2474 284.289 76.7902C285.974 77.5305 295.092 80.0189 296.527 80.1642C300.206 81.4113 304.786 83.4131 308.359 84.2825C310.269 84.5685 318.598 88.759 320.679 90.0014C323.091 91.6731 325.439 93.3945 327.85 95.07C329.198 96.0058 332.133 97.3874 333.103 98.4042C336.261 101.715 343.041 108.564 344.814 112.692C347.728 119.479 350.571 126.983 352.061 134.11C352.318 136.622 351.702 139.186 351.559 141.701C351.41 142.895 352.273 144.408 352.171 145.557C351.586 152.179 351.804 158.854 351.477 165.483C351.233 170.429 349.924 174.242 350.718 179.256C350.919 179.529 351.161 179.859 351.444 180.245C353.689 180.851 357.74 181.653 359.865 182.032C363.898 186.068 367.229 186.742 368.185 192.424L368.633 193.619C368.337 196.08 368.215 198.525 367.661 200.928C367.375 202.166 366.817 203.325 366.504 204.468C364.705 209.789 357.722 213.862 352.297 213.276C347.236 212.728 331.841 213.746 329.027 210.732C326.324 210.156 320.544 210.61 317.549 210.198C312.984 209.57 308.725 208.212 304.066 208.732L303.501 208.463L303.709 207.75C304.479 207.45 305.069 207.711 305.913 207.912C306.59 207.588 306.592 207.642 306.953 207.02C304.573 205.916 298.662 208.804 298.072 208.174L298.485 207.793C299.036 207.283 299.195 207.071 299.64 206.485L299.554 205.986L298.835 205.64C292.47 208.026 294.668 204.229 288.382 206.788C287.486 206.226 286.352 205.465 285.454 204.96C282.028 205.288 275.475 204.765 272.102 204.346C269.312 204 268.019 201.096 265.937 203.305C265.704 203.553 259.044 201.648 258.233 201.814C257.116 201.714 255.578 201.687 254.751 201.049L254.54 200.417C252.709 200.242 252.766 202.158 251.238 200.464C250.512 199.658 249.863 199.709 248.844 199.855L248.684 200.044L249.386 200.72L249.069 201.252L248.546 201.235L248.394 200.857C248.157 200.285 248.256 200.505 247.928 199.912C246.048 199.471 243.425 198.923 241.751 199.613C240.878 199.97 239.92 199.482 239.105 199.169C236.455 198.143 232.096 198.793 229.281 198.251C227.173 197.846 225.91 196.201 223.614 197.04C223.02 197.26 222.43 197.49 221.844 197.731L221.447 197.543L221.178 196.198L220.73 195.958C219.957 196.297 220.229 196.134 219.638 196.758C216.599 196.3 213.613 195.761 210.535 195.559C210.335 195.544 209.561 194.972 209.361 194.827C207.127 194.789 208.505 196.586 206.055 194.491C205.919 194.479 205.564 194.441 205.374 194.453C201.647 194.74 197.499 193.567 193.786 193.189C186.004 192.392 178.021 191.679 170.326 190.315C168.688 190.022 165.4 190.457 164.028 190.219C162.923 190.027 161.151 189.019 159.454 188.605C157.281 189.954 158.051 188.158 155.457 187.707C152.77 189.418 150.426 187.427 147.459 186.959C146.359 186.787 145.199 186.713 144.091 186.654C143.673 186.111 143.109 185.207 142.267 185.279C140.22 185.452 137.642 183.414 135.97 182.354C135.358 180.016 135.808 180.443 133.532 179.602C134.188 179.202 133.87 179.408 134.486 178.983C132.453 176.695 133.559 176.703 132.185 174.298C131.627 174.585 131.618 174.591 131.001 174.736C130.562 174.202 130.685 174.511 130.669 173.799C132.637 172.381 131.558 170.941 131.481 168.416C131.281 161.892 135.73 159.349 140.095 155.268C143.83 154.867 149.722 154.513 153.666 154.914C153.464 154.893 155.02 155.47 154.965 155.449C156.214 148.752 155.751 139.334 157.88 132.606C158.637 130.213 161.084 122.003 162.138 120.491C162.561 118.751 162.534 116.44 162.585 114.606C164.481 112.168 164.835 111.563 165.78 108.735C165.917 108.07 167.505 104.511 167.941 103.252C168.456 102.285 167.914 103.237 168.412 102.503C176.646 90.3594 184.017 81.5906 198.852 76.6148C199.432 76.1384 208.773 73.5427 209.976 73.4766C215.354 73.1811 220.988 72.1484 226.328 71.6601C229.186 71.691 244.639 71.9579 246.396 71.014L248.015 71.6732C248.337 65.5329 254.776 62.8412 256.289 59.9199L257.58 58.9249Z" fill="#4BBCF5"/>
<path d="M304.567 175.379C305.664 174.336 306.834 173.235 308.557 173.462C309.198 174.093 309.075 173.73 309.104 174.516L307.927 174.715L307.973 175.034C308.661 175.819 308.802 175.764 309.818 176.06C310.543 174.868 310.748 173.867 311.846 173.015L312.272 173.101C312.928 174.167 312.912 175.34 313.05 176.6L315.548 175.49C317.804 175.817 319.076 176.251 321.26 176.853C321.894 176.593 322.055 176.524 322.598 176.148L323.014 175.854C324.143 175.835 323.647 175.701 324.582 176.172C324.719 176.809 324.783 177.159 324.831 177.796L324.869 178.336L325.22 178.584L325.666 178.401C325.993 177.665 326.08 177.459 326.526 176.791C327.899 176.626 328.738 176.684 329.878 177.381C330.392 178.199 330.307 178.256 331.08 178.808L331.623 177.811C332.707 177.504 343.544 179.967 345.757 179.9C346.085 179.89 346.307 180.537 346.479 180.847C347.461 181.019 348.334 180.22 349.815 179.741L350.083 179.656L350.719 179.255C350.92 179.529 351.162 179.859 351.445 180.245C353.69 180.851 357.741 181.653 359.867 182.032C363.899 186.068 367.23 186.742 368.186 192.424L368.634 193.619C368.338 196.08 368.216 198.525 367.662 200.928C367.376 202.166 366.818 203.325 366.506 204.468C364.706 209.789 357.723 213.862 352.299 213.275C347.237 212.727 331.842 213.746 329.029 210.732C326.325 210.156 320.545 210.61 317.55 210.197C312.985 209.569 308.726 208.212 304.067 208.732L303.503 208.463L303.71 207.749C304.48 207.45 305.07 207.711 305.914 207.911C306.591 207.588 306.593 207.642 306.954 207.02C304.574 205.916 298.663 208.804 298.073 208.174L298.486 207.793C299.037 207.283 299.196 207.071 299.642 206.485L299.555 205.986L298.836 205.64C292.471 208.026 294.669 204.229 288.383 206.788C287.487 206.226 286.353 205.465 285.455 204.959C282.029 205.288 275.476 204.765 272.103 204.346C269.313 203.999 268.02 201.096 265.939 203.305C265.705 203.553 259.045 201.647 258.234 201.814C257.117 201.714 255.579 201.687 254.752 201.049L254.541 200.417C252.71 200.241 252.767 202.158 251.239 200.464C250.513 199.658 249.864 199.709 248.845 199.855L248.685 200.044L249.387 200.72L249.07 201.252L248.547 201.235L248.395 200.857C248.158 200.285 248.257 200.504 247.929 199.911C246.049 199.471 243.426 198.922 241.752 199.613C240.879 199.97 239.921 199.482 239.106 199.169C236.456 198.143 232.097 198.793 229.282 198.251C227.174 197.846 225.911 196.2 223.616 197.04C223.022 197.26 222.431 197.49 221.845 197.731L221.448 197.543L221.179 196.197L220.731 195.958C219.958 196.297 220.23 196.134 219.639 196.758C216.6 196.3 213.614 195.761 210.536 195.559C210.336 195.544 209.562 194.972 209.363 194.827C207.129 194.789 208.506 196.585 206.056 194.491C205.92 194.478 205.565 194.441 205.375 194.453C201.648 194.74 197.5 193.567 193.787 193.189C186.005 192.392 178.023 191.679 170.327 190.315C168.689 190.022 165.401 190.457 164.029 190.218C162.924 190.026 161.152 189.018 159.455 188.605C157.282 189.953 158.052 188.158 155.458 187.707C152.771 189.417 150.428 187.427 147.461 186.959C146.36 186.787 145.2 186.713 144.092 186.654C143.674 186.111 143.11 185.206 142.268 185.278C140.221 185.452 137.643 183.414 135.971 182.354C135.36 180.016 135.809 180.443 133.533 179.602C134.189 179.202 133.871 179.408 134.487 178.983C132.454 176.695 133.561 176.703 132.187 174.298C131.628 174.585 131.619 174.591 131.002 174.735C130.564 174.202 130.686 174.511 130.67 173.799C132.638 172.381 131.56 170.94 131.482 168.416C131.283 161.892 135.731 159.349 140.097 155.268C143.831 154.867 149.723 154.513 153.667 154.913C153.465 154.893 155.021 155.47 154.966 155.449L155.079 155.611C155.745 155.443 156.548 155.509 157.268 155.511C159.367 155.643 159.928 155.161 161.827 155.189C164.624 157.209 167.988 156.84 171.33 157.434C174.18 157.941 176.878 157.107 179.737 157.276L179.993 157.555C179.378 158.039 179.292 157.899 179.228 158.38L185.638 159.542C187.111 159.058 186.577 158.786 188.005 157.683L188.453 157.795C189.113 159.044 189.201 159.97 190.679 159.716C191.347 159.058 191.638 158.647 192.552 158.357C193.704 158.925 193.088 159.207 194.214 160.691L194.934 160.796C195.352 160.616 197.003 159.877 197.311 159.946C201.045 160.781 204.84 163.07 208.837 161.563C209.197 162.805 208.959 162.835 209.801 163.378C211.648 163.38 212.126 163.101 213.818 162.766C214.289 162.673 215.475 162.805 216.232 162.723C219.578 163.018 220.709 162.937 223.96 162.507C224.621 163.179 224.509 163.243 224.798 164.191L225.286 164.407C226.486 163.763 227.425 162.837 228.551 162.769L228.938 162.909C228.489 163.593 228.547 163.402 227.74 163.892C229.53 165.31 236.371 164.563 238.059 165.924C237.661 165.603 239.103 167.132 238.746 166.746C239.509 166.63 240.36 165.943 240.638 165.928C242.605 165.825 246.543 166.09 248.289 166.806C251.926 168.299 250.68 168.828 253.634 166.137C254.163 167.428 254.361 168.6 255.463 169.169C256.208 168.92 256.176 168.894 256.787 168.399C257.27 169.378 257.452 170.045 258.397 170.616C259.593 170.804 260.367 170.494 261.556 170.193C262.947 169.667 265.135 169.209 266.814 168.63C268.123 169.823 269.335 171.322 271.3 170.716C271.261 169.597 270.465 170.052 269.922 168.715C272.182 168.906 275.283 172.268 276.906 171.744C276.714 171.072 276.525 170.575 276.28 169.921L276.654 169.616C277.356 170.128 278.136 171.34 278.84 171.577C280.559 172.156 281.666 172.487 283.413 171.811C285.127 171.56 286.358 171.691 288.08 171.782L289.194 171.907C290.285 172.078 291.662 172.249 292.707 172.51C296.055 173.96 300.158 174.666 303.169 172.307L304.567 175.379Z" fill="white"/>
<path d="M245.509 199.149C249.101 198.005 262.487 201.77 267.214 201.551C268.536 201.488 270.531 203.436 271.668 203.612C274.326 203.958 277.028 203.79 279.702 204.03C284.534 204.46 288.766 205.443 293.664 204.979C294.203 204.93 298.375 205.26 298.72 205.328L298.834 205.641C292.469 208.027 294.667 204.23 288.381 206.788C287.485 206.226 286.351 205.466 285.453 204.96C282.027 205.289 275.474 204.765 272.101 204.346C269.311 204 268.018 201.097 265.937 203.306C265.703 203.553 259.043 201.648 258.232 201.815C257.115 201.715 255.577 201.688 254.75 201.05L254.539 200.418C252.708 200.242 252.765 202.159 251.237 200.465C250.511 199.658 249.862 199.71 248.843 199.855L248.683 200.045L249.385 200.721L249.068 201.252L248.545 201.235L248.393 200.858C248.156 200.285 248.255 200.505 247.927 199.912C246.047 199.472 243.424 198.923 241.75 199.613C240.877 199.971 239.919 199.483 239.104 199.17C236.454 198.144 232.095 198.794 229.28 198.252C227.172 197.847 225.909 196.201 223.614 197.04C223.02 197.261 222.429 197.491 221.843 197.732L221.446 197.544L221.177 196.198L220.729 195.958C219.956 196.298 220.228 196.134 219.637 196.758C216.598 196.3 213.612 195.761 210.534 195.559C210.334 195.545 209.56 194.973 209.361 194.828C207.127 194.79 208.504 196.586 206.054 194.491C206.308 194.538 206.565 194.597 206.827 194.569C210.988 194.109 222.865 195.357 227.198 196.105C229.798 196.551 232.296 197.526 234.911 197.926C239.274 198.59 240.861 197.248 245.509 199.149Z" fill="white"/>
<path d="M140.094 155.267C143.829 154.866 149.721 154.512 153.665 154.913C153.463 154.892 155.018 155.469 154.963 155.448L155.077 155.61C153.288 156.593 149.833 155.933 147.623 155.885C145.091 155.817 142.558 155.889 140.037 156.102C138.47 159.341 136.516 158.303 135.743 162.018C133.846 163.038 132.86 163.4 132.616 165.736C132.11 170.566 132.045 177.396 137.207 179.96C137.557 180.69 137.454 180.779 137.376 181.605C138.319 182.599 139.481 182.271 140.82 182.181C141.258 182.695 142.56 184.241 143.07 184.506C146.084 186.075 152.155 187.685 155.455 187.706C152.769 189.417 150.425 187.426 147.458 186.958C146.358 186.786 145.197 186.712 144.09 186.653C143.672 186.11 143.108 185.206 142.265 185.278C140.218 185.451 137.641 183.413 135.968 182.353C135.357 180.015 135.807 180.442 133.531 179.601C134.186 179.201 133.869 179.407 134.484 178.982C132.452 176.694 133.558 176.702 132.184 174.297C131.625 174.585 131.616 174.59 131 174.735C130.561 174.201 130.683 174.51 130.668 173.798C132.636 172.38 131.557 170.94 131.48 168.415C131.28 161.891 135.728 159.348 140.094 155.267Z" fill="white"/>
<path d="M350.719 179.256C350.92 179.53 351.162 179.86 351.444 180.246C353.689 180.852 357.741 181.654 359.866 182.033C363.899 186.069 367.229 186.743 368.185 192.425C364.105 189.054 363.838 189.303 361.626 184.651C359.31 183.902 357.572 182.834 355.331 182.069C354.627 181.829 354.224 182.34 353.534 182.815C352.237 182.366 350.927 180.699 350.083 179.657L350.719 179.256Z" fill="white"/>
<path d="M289.195 171.908C290.286 172.079 291.663 172.25 292.708 172.511C291.856 173.316 290.73 174.755 289.553 174.518C289.034 173.625 289.173 172.938 289.195 171.908Z" fill="white"/>
<path d="M283.411 171.811C285.125 171.56 286.356 171.692 288.078 171.782L287.851 171.932C286.812 172.622 286.209 173.14 285.271 173.95C284.364 173.185 284.335 172.519 283.411 171.811Z" fill="white"/>
<path d="M283.495 184.479C284.478 185.055 285.913 186.446 286.146 187.566C286.284 188.229 286.067 188.223 285.572 188.959L284.824 188.661C283.702 187.408 282.51 186.034 283.495 184.479Z" fill="white"/>
<path d="M275.411 183.169C276.314 183.823 276.812 184.615 277.323 185.55L277.109 186.201C275.815 186.173 275.297 186.362 274.54 185.306C274.607 184.281 274.861 184.035 275.411 183.169Z" fill="white"/>
<path d="M144.671 175.411L145.225 175.747C145.77 177.02 145.887 177.506 144.832 178.506C144.036 178.087 143.933 178.145 143.561 177.391C143.586 176.484 144.059 176.124 144.671 175.411Z" fill="white"/>
<path d="M243.214 182.61C244.158 182.738 244.321 182.679 245.096 183.222C245.501 184.045 245.226 184.584 244.995 185.487C243.784 184.86 243.623 183.86 243.214 182.61Z" fill="white"/>
<path d="M239.276 185.964C239.648 185.903 240.027 186.043 240.263 186.328C240.499 186.613 240.552 186.998 240.402 187.328C240.253 187.658 239.924 187.88 239.547 187.905C239.002 187.942 238.518 187.565 238.445 187.046C238.373 186.528 238.738 186.052 239.276 185.964Z" fill="white"/>
<path d="M152.644 166.01C154.021 166.982 154.01 167.579 153.64 168.981C152.869 168.716 152.929 168.701 152.415 168.072C152.19 167.081 152.327 166.968 152.644 166.01Z" fill="white"/>
<path d="M257.582 58.9256C258.13 58.8391 258.849 58.7119 258.471 58.8818C260.872 57.8006 272.464 57.8867 272.263 61.6714L272.421 61.7247C275.378 62.7459 277.285 63.7068 278.981 66.4306C280.749 70.3881 281.092 71.4067 281.307 75.7259C281.126 75.8882 280.437 76.7436 279.479 76.6152C273.298 75.787 266.77 74.6819 260.657 73.7683C260.483 73.7423 260.13 72.9211 259.994 72.6231C257.901 72.1266 257.252 75.5488 253.926 72.4412C251.989 72.5048 253.622 73.4291 252.484 73.1618C250.164 72.617 250.877 71.5573 248.017 71.6739C248.339 65.5336 254.777 62.8418 256.291 59.9206L257.582 58.9256Z" fill="white"/>
<path d="M257.582 58.926C258.129 58.8395 258.848 58.7123 258.471 58.8822C260.872 57.801 272.463 57.8871 272.262 61.6718C271.553 61.3845 270.548 60.6117 269.884 60.1423C268.386 59.9688 266.849 59.8074 265.344 59.7236C262.179 59.5475 260.416 60.5351 257.582 58.926Z" fill="white"/>
<path d="M272.422 61.7246C275.379 62.7458 277.285 63.7067 278.981 66.4305C276.638 66.1574 273.215 63.8486 272.422 61.7246Z" fill="white"/>
<path d="M296.527 80.1656C300.206 81.4127 304.785 83.4146 308.359 84.284C308.271 84.7104 308.372 84.4996 307.974 84.8735C305.384 84.8088 297.754 82.0757 295.687 80.4255L296.527 80.1656Z" fill="white"/>
<path d="M256.788 168.399C257.196 167.521 256.902 167.875 257.701 167.295C259.724 167.191 260.922 168.5 261.558 170.193C260.368 170.494 259.594 170.804 258.398 170.617C257.453 170.045 257.271 169.378 256.788 168.399Z" fill="white"/>
<path d="M211.462 160.28C212.506 162.013 212.458 162.217 214.558 162.493L216.23 162.723C215.473 162.805 214.287 162.674 213.816 162.767C212.123 163.101 211.646 163.38 209.799 163.379C208.957 162.835 209.195 162.806 208.835 161.563C209.729 161.106 210.545 160.693 211.462 160.28Z" fill="white"/>
<path d="M238.592 123.541C239.307 124.447 238.767 124.977 238.95 126.374L239.352 126.505C240.518 125.703 240.871 125.135 242.186 125.816C242.997 126.968 243.022 128.087 243.69 128.805C244.505 128.422 244.511 128.385 245.393 128.237L245.649 128.691C245.238 129.278 244.992 129.654 244.638 130.274C246.281 131.698 245.715 133.02 246.841 134.979C246.194 135.527 245.639 136.011 245.019 136.586L245.282 136.693C246.148 136.498 246.733 136.278 247.602 136.453C248.913 137.577 248.582 139.607 250.247 139.982C250.98 139.254 250.683 139.391 251.578 138.994C252.514 139.779 251.297 139.554 251.695 140.903C252.643 140.875 252.716 140.9 253.659 141.072C256.007 143.036 255.752 140.961 256.958 140.259C257.191 141.08 257.199 141.442 257.868 142.003C259.117 142.272 265.469 138.952 267.534 138.345C266.854 137.535 266.622 137.089 266.092 136.171L266.194 135.862C267.094 136.027 267.446 136.164 268.332 135.931C269.278 134.312 267.774 135.003 267.6 133.557L268.031 133.218L269.223 133.509L269.538 133.074C269.153 132.279 269.197 132.6 269.233 131.769C272.165 129.593 273.247 130.851 275.899 129.928C275.818 129.416 275.814 129.406 275.805 128.872L276.354 128.906L276.473 129.726C277.107 130.099 277.878 129.824 278.825 129.72L279.502 130.262C279.902 131.585 279.421 131.202 279.29 132.753C280.806 132.233 281.445 131.393 283.013 132.22L283.126 132.736C281.418 135.627 282.936 136.427 282.578 139.627C282.429 140.962 281.535 142.601 280.891 143.818C279.57 143.76 279.374 143.554 278.763 144.661C279.354 145.811 279.746 145.091 280.482 146.193L280.077 146.427C278.512 146.103 278.351 145.817 277.135 146.799C277.994 149.916 275.763 149.673 273.321 149.756C272.447 150.335 272.675 150.33 272.211 151.485C271.399 150.896 271.679 150.956 270.778 150.715L270.384 151.229L270.625 152.514L270.158 152.722C269.434 152.525 268.848 152.382 268.113 152.227L267.749 152.573C267.657 153.412 267.675 153.607 267.374 154.411L266.925 154.392C266.614 153.507 266.73 153.52 266.142 152.853C264.844 153.386 265.749 153.987 264.257 154.583C260.384 153.098 262.575 155.432 260.468 156.34L260.097 156.019C260.194 155.342 260.27 154.662 260.326 153.98L259.952 153.818C259.202 154.742 258.987 155.453 257.755 155.183C255.445 152.355 255.962 155.45 253.285 155.377C252.466 154.724 253.917 154.87 253.683 153.622C252.754 153.289 250.606 153.552 249.51 153.621C249.929 154.072 249.788 153.8 249.875 154.463L249.401 154.526C248.099 153.928 247.2 152.973 246.135 152.015C244.374 151.748 246.227 152.32 244.581 152.642C243.337 151.254 244.365 151.142 243.443 150.027C242.506 150.323 242.817 150.779 241.74 151.608C240.804 150.457 242.12 150.201 241.256 149.098L240.22 149.735C239.313 149.492 238.783 148.665 238.048 147.892L237.615 147.905L236.814 148.814L236.523 148.776C236.696 148.146 236.856 147.512 237.004 146.875C236.433 146.061 236.293 146.226 235.128 145.767C234.458 145.077 234.463 144.554 234.262 143.617L234.181 143.231C233.41 142.454 233.649 142.702 232.203 142.563C231.755 141.528 232.65 141.176 232.604 140.742C232.442 139.218 231.174 137.428 230.834 135.868L231.849 134.69C229.398 130.357 232.746 131.641 231.181 128.186L231.402 127.829L233.039 127.94L233.367 127.552C232.945 125.349 233.883 125.51 235.797 124.263C236.045 124.624 236.075 125.111 236.169 125.57L236.721 125.753C237.665 125.312 237.835 124.789 238.376 123.901L238.592 123.541Z" fill="black"/>
<path d="M256.289 59.9211C254.775 62.8423 248.337 65.5341 248.015 71.6744L246.396 71.0152C247.034 69.7314 246.982 69.1629 247.441 67.9682C249.277 63.1817 251.927 61.9765 256.289 59.9211Z" fill="white"/>
<path d="M368.635 193.619C369.644 195.942 370.698 197.131 369.578 199.72C368.919 201.241 367.654 203.255 366.506 204.467C366.818 203.325 367.377 202.166 367.663 200.928C368.216 198.525 368.338 196.08 368.635 193.619Z" fill="white"/>
</svg>
