<svg width="500" height="500" viewBox="0 0 500 500" fill="none" xmlns="http://www.w3.org/2000/svg">
<path d="M249.425 126.935C251.63 120.075 256.365 119.42 258.555 114.145L258.205 113.745L255.955 114.87C256.355 110.145 261.375 109.685 263.975 107L272.295 108.145C274.46 111.085 271.675 111.97 272.555 115.24C273.95 115.04 273.41 115.065 274.795 113.945C275.955 114.99 275.93 116.53 275.41 118.01C274.06 121.855 281.24 131.54 281.275 134.46C281.395 143.3 284.73 147.785 287.705 155.76C288.715 158.47 286.735 161.805 287.42 163.4C288.75 163.295 289.345 163.175 290.655 162.905L291.09 163.46C290.795 164.545 290.585 165.35 290.555 166.48C292.92 167.795 301.075 162.28 303.155 160.7C303.85 160.175 306.105 161.19 306.76 161.48C308.335 160.945 308.64 160.065 309.55 158.635C320.48 154.34 331.27 147.13 342.06 142.335C348.46 139.49 349.91 145.335 348.35 150.755L348.69 151.68L350.31 152.025C350.88 154.19 348.975 156.835 347.825 158.89C352.125 165.825 349.195 163.26 347.48 170.66C344.995 181.4 344.41 192.58 342.905 203.375C348.565 206.505 346.975 205.065 352.5 205.12C356.875 203.455 359.395 202.65 363.835 204.03C365.985 202.565 376.08 200.96 378.36 201.285L378.225 202.75L378.815 202.995C379.605 201.985 379.85 201.5 380.49 200.405L381.52 200.155C383.11 201.01 383.275 201.595 384.19 203.145C384.645 202.225 385.395 200.995 386.665 200.735C391.225 199.805 399.2 198.74 403.57 200.515C405.185 201.17 405.805 204.08 406.16 205.505C406.45 206.665 406.73 207.83 406.995 208.995C404.94 211.69 404.455 212.875 401.24 213.545C398.385 223.395 399.35 217.375 394.67 222.35L393.915 225.785C393.435 227.965 384.41 236.82 382.145 238.325C380.735 242.555 377.865 247.56 375.405 251.35L374.195 250.695L373.335 251.605C372.155 254.405 371.97 254.47 369.86 256.54L367.76 258.615C370.25 261.215 370.92 261.335 374.285 262.435C374.6 263.69 374.62 263.915 374.7 265.21C382.205 266.37 394.155 269.685 399.55 275.075C403.455 274.18 414.095 279.005 418.205 280.615C419.46 281.11 421.195 284.47 422.48 285.175C423.705 285.805 424.335 284.17 425.595 285.46C425.69 287.54 425.685 287.655 425.325 289.7C423.095 294.3 425.655 294.56 420.705 296.83C418.89 298.32 398.965 305.21 396.575 305.01L396.25 306L395.69 306.21C385.435 310.075 375.245 315.96 364.925 319.925C363.5 320.475 364.205 324.355 364.51 325.425C366.13 326.5 367.175 326.775 367.89 328.255L366.745 328.75C368.365 333.355 371.29 332 371.295 338.795L372.095 339.46C373.725 338.93 373.46 338.825 375.075 338.94L375.47 339.73C375.135 340.69 374.92 341.51 374.42 342.39C377.54 343.42 377.785 343.935 379.03 346.965L380.8 349.735C383.63 354.075 385.145 360.565 389.065 364.21C391.08 366.585 390.585 366.84 391.835 368.89C398.285 378.74 397.295 387.94 383.57 383.28C377.045 382.805 368.09 380.525 361.245 379.77C360.265 379.665 357.295 378.2 355.34 377.735L354.865 378.435L354.08 378.54C354.105 377.745 354.075 378.02 354.16 377.3L354.22 376.835C349.95 375.145 344.92 378.3 342.555 374.01L341.36 374.985C339.34 375.375 334.84 374.7 332.52 374.45L330.735 373.705C321.555 372.6 322.63 379.195 323.69 385.57C324.075 387.915 323.515 390.68 323.12 393.055C323.07 395.355 323.74 402.715 323.395 403.7C323.76 405.655 323.8 405.35 323.51 407.155C323.015 410.225 324.245 415.36 323.735 418.63C322.92 423.835 320.94 427.615 320.705 433.025L321.075 433.325L323.06 431.05C324.055 432.485 322.125 433.965 321.12 435.035C320.77 436.485 321.495 437.545 322.135 438.98L321.795 439.81C319.61 438.115 319.96 437.755 317.965 437.955C319.395 439.08 319.07 438.4 319.545 439.84C318.87 440.595 318.185 441.32 317.435 441.995C318.245 442.37 318.41 442.27 318.805 442.83C316.2 443.05 313.5 444.39 312.32 444.115C308.75 443.29 310.56 441.075 309.31 439.125C307.77 439.46 306.525 439.955 305.125 439.405C303.67 437.9 304.485 437.485 304 436.08C302.27 431.095 296.09 431.425 295.14 425.515L294.445 424.92L293.05 425.61C290.245 424.945 289.36 424.12 287.685 421.755C285.515 418.88 282.14 415.8 279.5 413.235C279.34 413.145 279.175 413.06 279.015 412.97C273.785 407.725 266.37 402.04 260.695 397.475C258.895 399.74 257.605 401.355 254.56 401.345L253.885 402.105C252.89 406.35 251.75 407.895 248.72 410.97C246.23 413.945 247.625 412.43 244.505 413.54C243.565 413.875 242.335 419.385 241.66 420.965C240.62 423.38 232.925 431.49 232.86 433.05C232.51 441.15 226.08 439.73 224.93 449.9C223.785 450.205 223.83 450.165 222.64 450.055C220.62 451.395 218.485 453.15 216.19 453.475C212.525 452.525 209.81 446.31 209.57 442.685C207.01 440.765 208.915 444.13 206.625 441.505C207.09 435.04 204.655 431.725 202.685 425.605C201.53 422.015 200.515 420.875 202.01 417.145C199.03 415.77 195.8 403.97 196.365 400.85L197.295 400.215L197.59 399.62L195.61 399.935C194.49 398.12 194.755 394.895 194.79 392.675C193.36 391.88 189.945 389.465 188.69 390.04C177.995 394.91 170.135 400.51 158.645 404.25C156.935 406.745 154.115 409.735 151.135 410.58C149.96 411.03 148.275 412.045 147.125 412.195C144.98 412.47 142.12 411.84 140.535 413.815C139.35 415.29 140.92 415.585 139.215 417.115C132.165 414.71 133.54 413.315 132.98 405.87C137.63 400.125 135.26 401.22 137.26 395.085C142.47 383.805 144.39 368.05 148.75 356.175C143.225 353.36 140.92 353.26 134.99 353.82C128.7 355.155 123.195 354.285 117.015 353.325C116.16 354.655 116.21 354.625 115.005 355.63L114.01 355.58C113.6 354.695 113.285 353.98 112.935 353.07C111.97 353.635 111.13 354.375 110.255 354.755L110.775 356.075C107.945 356.51 106.785 355.815 103.47 356.265C98.5447 357.46 94.1897 355.75 90.3897 355.75L90.2197 356.205L91.5597 357.01L91.4347 357.5C88.7097 358.055 87.0247 357.19 84.6747 355.885C83.6547 354.425 84.0997 351.615 84.1897 349.67C86.6347 345.785 90.8847 340.165 93.8247 336.66C96.6697 333.23 101.115 329.63 102.855 325.455C105.38 319.39 122.775 302.87 122.685 297.575L121.745 296.96C122.615 295.795 122.685 295.755 123.235 294.43C121.715 292.01 111.93 288.115 108.89 286.555C106.515 286.435 97.1147 276.55 96.7997 276.535C88.4797 276.15 85.7847 270.13 79.4447 266.195C74.3647 263.05 70.9547 258.23 77.9947 255.01C78.4697 253.155 78.0347 253.81 79.5497 252.47L80.0347 252.045C83.3997 249.05 89.4547 249.565 92.9047 246.32C93.8947 245.385 93.7397 245.495 94.9547 245.105C94.5047 246.165 94.1197 247.23 93.7847 248.33C96.0247 246.825 102.415 241.23 104.53 241.84C103.815 242.92 102.8 243.935 102.97 244.865C105.3 243.865 105.27 242.405 105.835 242.12C112.9 238.58 141.86 236.21 129.52 223.275C129.52 223.275 129.68 221.03 129.695 220.79C122.065 219.815 128.845 216.245 123.905 211.68C122.915 210.76 122.5 210.08 122.07 208.845C122.055 206.82 122.18 206.885 123.31 205.1C116.045 202.675 116.245 200.155 116.13 193L115.515 192.41L114.275 192.45C110.085 190.535 101.685 172.115 105.555 167.32C106.605 166.02 107.795 164.26 109.68 164.3C114.265 164.395 115.585 163.95 119.19 166.665C119.36 166.86 120.035 167.6 120.13 167.795C121.025 167.27 122.17 166.25 123.8 166.92C128.13 168.705 132.865 170.665 137.275 172.38C137.545 172.96 137.815 173.545 138.09 174.13C141.265 174.08 141.67 172.925 144.945 175.365C147.555 177.305 149.04 177.47 152.28 177.55C159.915 183.685 158.25 179.505 161.99 181.48C163.585 187.16 164.79 183.505 167.755 183.615L168.925 185.195C178.97 186.185 174.92 161.73 175.215 156.11C175.905 153.38 174.1 151.87 175 149.25C175.905 148.335 176.665 147.775 177.005 146.555C176.515 145.85 175.19 143.885 175.19 143.175C175.205 136.965 174.895 121.15 178.45 116.12C179.965 115.41 179.47 115.63 181.565 116.24L182.21 113.995C188.04 111.24 198.22 125.295 199.76 130.155C201.88 134.585 207.76 136.185 208.36 141.885L209.7 142.185C214.735 150.28 217.095 152.19 221.275 161.17C222.895 162.905 223.285 162.26 225.755 162.765C225.005 164.82 222.92 164.23 223.08 165.885C225.855 166.335 228.2 162.87 230.375 161.14C231.73 159.31 234.91 155.18 236.005 153.32C237.77 150.64 238.905 145.575 240.505 143.04C243.145 138.855 246.01 129.705 249.425 126.935Z" fill="#FD235B"/>
<path d="M175.218 156.111C176.023 157.541 176.533 158.596 177.538 159.896C177.673 163.566 177.708 166.976 177.583 170.586C177.458 174.321 175.998 179.276 177.603 182.526C178.418 184.176 178.808 184.041 178.348 185.746L177.593 185.906L177.253 185.496C176.713 184.861 176.933 185.111 176.233 184.386C174.288 184.641 172.758 185.586 171.303 186.896C167.948 186.751 166.608 185.921 163.428 185.606C161.503 185.416 159.708 186.146 158.148 185.171L157.558 183.701L156.028 183.536L155.918 184.971L155.278 185.451C153.323 184.051 154.123 180.321 150.478 179.131C145.343 177.456 138.163 177.461 132.908 177.951L132.518 177.386C133.448 175.341 133.753 175.631 133.208 174.096C127.913 170.756 125.153 174.206 120.133 167.796C121.028 167.271 122.173 166.251 123.803 166.921C128.133 168.706 132.868 170.666 137.278 172.381C137.548 172.961 137.818 173.546 138.093 174.131C141.268 174.081 141.673 172.926 144.948 175.366C147.558 177.306 149.043 177.471 152.283 177.551C159.918 183.686 158.253 179.506 161.993 181.481C163.588 187.161 164.793 183.506 167.758 183.616L168.928 185.196C178.973 186.186 174.923 161.731 175.218 156.111Z" fill="#EE4177"/>
<path d="M379.03 346.967L380.8 349.737C383.63 354.077 385.145 360.567 389.065 364.212C391.08 366.587 390.585 366.842 391.835 368.892C398.285 378.742 397.295 387.942 383.57 383.282C387 378.767 386.515 382.487 391.12 381.152C392.195 379.287 392.51 376.937 390.53 375.587C388.27 376.122 388.05 376.272 386.545 374.702L386.82 373.877L387.755 373.812C388.41 373.177 388.875 372.677 389.485 372.012C388.665 368.997 386.79 371.052 385.54 365.517C384.23 365.177 383.82 365.102 382.61 364.532C380.8 362.062 380.715 360.117 380.185 357.057C380.925 351.512 377.63 351.137 379.03 346.967Z" fill="#EE4177"/>
<path d="M230.375 161.141C231.73 159.311 234.91 155.181 236.005 153.321C237.77 150.641 238.905 145.576 240.505 143.041C243.145 138.856 246.01 129.706 249.425 126.936C248.43 130.161 247.02 132.831 246.55 135.996C246.995 136.766 247.305 137.361 247.62 138.201C245.28 142.186 241.325 144.651 239.525 148.181C236.92 153.281 243.44 156.941 234.22 158.611C233.36 159.721 233.355 161.441 233.165 162.926C231.24 162.501 232.475 161.951 230.375 161.141Z" fill="#EE4177"/>
<path d="M318.276 410.936C322.061 408.191 322.446 408.336 323.396 403.701C323.761 405.656 323.801 405.351 323.511 407.156C323.016 410.226 324.246 415.361 323.736 418.631C322.921 423.836 320.941 427.616 320.706 433.026L321.076 433.326L323.061 431.051C324.056 432.486 322.126 433.966 321.121 435.036C320.771 436.486 321.496 437.546 322.136 438.981L321.796 439.811C319.611 438.116 319.961 437.756 317.966 437.956C316.471 429.631 320.011 428.271 321.501 420.531C322.251 416.631 320.636 413.966 318.276 410.936Z" fill="#EE4177"/>
<path d="M115.516 192.411L114.276 192.451C110.086 190.536 101.686 172.116 105.556 167.321C106.606 166.021 107.796 164.261 109.681 164.301C114.266 164.396 115.586 163.951 119.191 166.666C114.221 167.111 108.471 162.836 106.241 170.786C106.786 172.506 109.391 180.251 110.386 181.586C112.666 184.636 113.996 190.096 115.516 192.411Z" fill="#EE4177"/>
<path d="M137.26 395.086C139.71 400.751 135.295 404.231 138.01 406.481L140.675 406.901C140.055 408.846 137.785 407.786 137.105 411.896L137.651 412.656C140.191 412.546 142.22 410.591 144.12 409.856C143.3 410.171 151.19 410.586 151.135 410.581C149.96 411.031 148.275 412.046 147.125 412.196C144.98 412.471 142.12 411.841 140.535 413.816C139.35 415.291 140.921 415.586 139.216 417.116C132.166 414.711 133.54 413.316 132.98 405.871C137.63 400.126 135.26 401.221 137.26 395.086Z" fill="#EE4177"/>
<path d="M384.191 203.146C384.646 202.226 385.396 200.996 386.666 200.736C391.226 199.806 399.201 198.741 403.571 200.516C405.186 201.171 405.806 204.081 406.161 205.506C406.451 206.666 406.731 207.831 406.996 208.996C404.941 211.691 404.456 212.876 401.241 213.546C401.906 210.711 405.566 208.251 404.501 204.946C403.306 203.556 399.931 202.156 398.171 202.346C397.716 204.101 398.046 203.656 397.051 204.996L396.251 204.886C395.506 203.746 395.476 203.411 394.321 202.781C393.786 203.556 393.411 204.031 392.806 204.761L392.121 204.496L391.626 202.466L390.976 202.361C388.441 203.461 386.786 204.511 384.191 203.146Z" fill="#EE4177"/>
<path d="M399.551 275.077C403.456 274.182 414.096 279.007 418.206 280.617C419.461 281.112 421.196 284.472 422.481 285.177C423.706 285.807 424.336 284.172 425.596 285.462C425.691 287.542 425.686 287.657 425.326 289.702C424.281 288.927 424.391 288.912 423.681 287.807C422.976 289.212 422.286 289.147 420.926 289.547C417.071 286.547 419.576 285.837 417.211 283.767C412.256 283.802 414.431 281.747 413.146 280.957C408.486 278.097 403.646 280.177 399.551 275.077Z" fill="#EE4177"/>
<path d="M181.566 116.24L182.211 113.995C188.041 111.24 198.221 125.295 199.761 130.155C196.121 128.545 191.021 121.025 188.681 117.675C187.611 116.14 183.316 119.155 181.566 116.24Z" fill="#EE4177"/>
<path d="M321.857 374.197C323.342 372.462 324.162 371.717 325.882 370.182L330.737 373.707C321.557 372.602 322.632 379.197 323.692 385.572C324.077 387.917 323.517 390.682 323.122 393.057C321.887 391.807 320.462 390.777 320.027 389.282C320.342 388.977 321.357 388.027 321.377 387.612C321.562 383.092 321.457 378.732 321.857 374.197Z" fill="#EE4177"/>
<path d="M279.5 413.237C281.67 413.017 282.175 412.787 284.06 413.662C285.865 415.592 286.15 417.187 287.64 418.967C289.22 418.757 291.115 418.277 292.47 418.947C293.025 421.162 292.11 422.227 293.245 424.102L294.445 424.922L293.05 425.612C290.245 424.947 289.36 424.122 287.685 421.757C285.515 418.882 282.14 415.802 279.5 413.237Z" fill="#EE4177"/>
<path d="M208.362 141.887L209.702 142.187C214.737 150.282 217.097 152.192 221.277 161.172C217.087 159.212 220.472 161.687 216.652 160.902L216.512 160.212C217.802 159.402 218.027 159.502 218.702 158.287C216.702 155.037 213.437 148.972 209.512 148.427C207.867 148.702 207.472 149.302 206.252 150.452L205.807 150.872C205.072 149.912 208.307 146.097 208.707 144.822C208.707 144.822 208.387 142.117 208.362 141.887Z" fill="#EE4177"/>
<path d="M123.311 205.102C129.466 211.532 126.131 213.602 129.696 220.792C122.066 219.817 128.846 216.247 123.906 211.682C122.916 210.762 122.501 210.082 122.071 208.847C122.056 206.822 122.181 206.887 123.311 205.102Z" fill="#EE4177"/>
<path d="M77.9961 255.01C78.4711 253.155 78.0361 253.811 79.5511 252.471L80.0361 252.045C83.4011 249.05 89.4561 249.565 92.9061 246.32C93.8961 245.385 93.7411 245.495 94.9561 245.105C94.5061 246.165 94.1211 247.231 93.7861 248.331C91.6111 249.186 91.4011 248.81 90.6311 250.35C91.0411 252.34 91.3061 251.62 90.4911 252.855C89.2811 252.48 88.5561 251.615 87.6061 250.735C86.3811 251.515 86.4411 251.845 85.6661 253.23C83.3311 253.905 82.0511 252.52 80.2411 253.165C77.8711 254.005 81.0111 254.92 77.9961 255.01Z" fill="#EE4177"/>
<path d="M202.011 417.147C199.031 415.772 195.801 403.972 196.366 400.852L197.296 400.217C197.991 403.987 199.706 406.837 201.041 410.362C201.786 412.337 201.736 414.957 202.011 417.147Z" fill="#EE4177"/>
<path d="M117.016 353.326C120.411 351.016 123.236 354.036 125.766 352.816C126.331 352.201 126.816 351.421 127.441 351.321C128.361 351.176 134.416 353.476 134.991 353.821C128.701 355.156 123.196 354.286 117.016 353.326Z" fill="#EE4177"/>
<path d="M420.927 289.547C422.287 289.147 422.977 289.212 423.682 287.807C424.392 288.912 424.282 288.927 425.327 289.702C423.097 294.302 425.657 294.562 420.707 296.832C420.602 294.512 420.752 291.867 420.927 289.547Z" fill="#EE4177"/>
<path d="M352.5 205.121C356.875 203.456 359.395 202.651 363.835 204.031C360.145 207.001 356.835 207.486 352.5 205.121Z" fill="#EE4177"/>
<path d="M367.761 258.615C366.936 257.37 366.881 256.22 366.621 254.74C367.906 251.33 369.926 253.465 373.336 251.605C372.156 254.405 371.971 254.47 369.861 256.54L367.761 258.615Z" fill="#EE4177"/>
<path d="M248.721 410.971C247.826 405.801 249.456 404.29 253.886 402.105C252.891 406.35 251.751 407.896 248.721 410.971Z" fill="#EE4177"/>
<path d="M332.52 374.451C336.045 373.721 338.975 370.986 341.68 372.361L342.555 374.011L341.359 374.986C339.339 375.376 334.84 374.701 332.52 374.451Z" fill="#EE4177"/>
<path d="M103.473 356.266C102.858 356.206 103.243 356.276 102.363 355.881C102.978 354.416 104.188 352.981 105.778 352.676C107.183 355.116 107.378 354.451 110.258 354.756L110.778 356.076C107.948 356.511 106.788 355.816 103.473 356.266Z" fill="#EE4177"/>
<path d="M259.13 289.961C261.825 291.136 267.2 292.351 270.435 293.396C275.59 299.396 276.185 294.476 278.26 297.361L277.16 298.811L277.695 299.401C278.63 298.776 279.025 298.586 280.04 298.096C281.52 298.371 292.925 305.976 293.98 307.246C293.455 314.061 303.71 313.296 303.52 320.871C303.5 321.576 308.69 324.786 308.89 326.571C309.305 330.231 307.545 337.006 306.245 340.096C304.3 339.916 304.365 339.896 302.475 340.351C301.475 341.531 301.805 340.821 301.845 342.696L301.21 343.111C289.315 344.316 293.555 340.586 289.29 337.646C288.29 338.511 288.335 338.586 287.1 338.991C283.5 337.031 280.19 332.226 276.995 329.721C276.295 329.176 271.175 328.276 270.83 327.516C270.255 326.241 271.095 325.711 269.485 324.691C268.005 325.266 268.365 325.411 267.425 327.301C264.855 327.506 258.11 323.341 253.765 323.151C252.265 324.091 251.51 324.761 249.745 324.946L249.37 324.311C250.61 323.481 250.705 323.421 251.735 322.346L251.34 321.991L250.355 322.066C249.19 323.141 248.945 323.431 247.565 324.271C246.68 324.346 245.7 324.421 244.96 323.811C243.255 322.396 240.32 324.216 238.33 324.426C234.07 324.871 234.61 325.091 231.35 323.076C229.455 323.576 222.805 328.661 221 330.026C219.705 329.631 221.135 329.341 219.94 327.246C216.65 330.086 203.71 341.861 199.275 344.501C198.465 344.986 197.4 341.601 192.645 342.436C191.565 341.916 190.54 341.551 189.425 341.131C189.335 339.596 189.32 339.176 189.46 337.586L191.4 337.536L191.545 337.031C190.115 336.176 190.05 336.331 189.06 335.041C189.735 333.906 190.73 332.686 189.575 331.571L188.085 332.636L187.785 331.746C187.935 330.436 188.2 330.086 189.09 329.131C192.66 325.296 189.575 326.506 190.675 323.596C191.91 323.431 191.495 323.561 192.645 323.011L191.985 321.541L192.36 320.856C193.575 321.006 193.185 321.026 194.32 320.821L194.47 319.756L193.255 318.396L193.965 316.941C195.51 315.956 194.665 316.156 196.615 316.511C198.02 316.041 202.97 310.056 205.015 308.376C206.345 308.961 205.83 308.871 207.255 308.941C209.445 305.811 206.49 308.836 207.42 305.661L208.93 306.016L209.535 305.581L208.765 304.421C212.935 299.486 220.69 299.276 224.885 296.306C225.03 295.181 225.02 295.131 225.435 294.086C226.71 293.666 228.275 293.586 229.51 294.041C231.99 294.956 234.335 294.006 237 293.256L236.94 293.426C238.075 293.166 245.035 291.446 245.605 291.446C249.33 291.421 253.455 292.551 257.49 291.816C258.175 290.486 257.87 290.966 259.13 289.961Z" fill="#000101"/>
<path d="M275.911 242.997C276.906 244.187 277.196 244.222 277.286 245.697L275.796 244.577L275.191 245.007C277.176 248.867 280.911 246.562 280.126 249.957L281.081 250.482C282.291 249.907 281.871 250.187 282.781 249.152C284.826 249.207 289.301 249.537 291.036 248.972C293.256 245.327 290.656 246.927 292.596 243.812L294.486 243.802C296.401 241.172 293.466 238.297 296.066 237.167L299.176 238.282L299.371 237.902L298.221 236.427L298.741 235.997C299.641 236.377 300.391 236.717 301.271 237.147C302.166 236.642 302.631 236.362 303.461 235.762C305.096 236.162 304.981 236.172 306.281 237.272L305.706 237.442L306.201 237.062L306.026 236.892L305.781 237.427L303.306 237.397C303.841 238.742 306.511 239.367 306.901 241.472C306.981 241.907 308.096 243.422 308.391 243.837L308.886 243.712C309.321 242.162 309.251 242.107 309.216 240.467C310.251 243.797 308.981 254.897 308.046 258.817C307.841 259.667 307.051 260.007 306.311 260.287L306.146 259.492C307.871 256.962 308.166 257.392 307.996 254.872L307.396 254.437C305.811 255.777 303.501 263.317 300.631 264.562L300.256 264.122L300.761 262.452C300.146 262.927 296.931 265.582 296.516 265.812C293.766 267.342 290.216 266.927 287.331 268.467L286.146 267.822C283.156 268.757 279.041 272.302 277.136 266.427L276.101 265.452C271.121 265.587 271.446 266.807 267.956 261.687C263.306 260.652 262.301 260.357 261.596 255.542C262.126 252.317 261.911 255.957 264.746 252.927C265.141 251.317 265.191 251.422 264.761 249.837C263.466 249.477 263.471 249.642 262.116 249.817C261.286 248.422 261.921 247.487 261.831 245.212L260.556 245.082L260.316 244.442C261.626 243.637 261.576 243.702 262.541 242.517L261.336 239.287L261.836 239.047C263.501 240.182 263.606 240.332 265.596 240.422C264.166 238.397 263.986 238.847 264.046 236.872C265.921 235.877 267.161 236.867 268.856 237.892L269.536 237.507L268.821 236.207C271.886 236.587 275.406 239.757 275.911 242.997Z" fill="#000101"/>
<path d="M265.595 240.42C264.165 238.395 263.985 238.845 264.045 236.87C265.92 235.875 267.16 236.865 268.855 237.89L269.535 237.505L268.82 236.205C271.885 236.585 275.405 239.755 275.91 242.995C274.525 241.915 273.375 240.24 271.785 240.115L271.435 240.51C268.245 244.095 268.99 240.225 265.595 240.42Z" fill="#32090A"/>
<path d="M277.137 266.426C280.747 267.321 279.342 266.681 282.927 266.186L283.387 266.436C284.302 266.931 285.217 267.371 286.147 267.821C283.157 268.756 279.042 272.301 277.137 266.426Z" fill="#181313"/>
<path d="M261.598 255.541C265.328 257.316 265.903 258.066 267.958 261.686C263.308 260.651 262.303 260.356 261.598 255.541Z" fill="#DA1D4E"/>
<path d="M207.712 242.195C218.597 245.795 217.802 253.995 215.692 263.425C214.537 263.15 215.152 263.255 213.852 263.145C212.642 265.34 214.382 264.89 213.367 267.125C210.417 266.56 208.317 269.75 206.397 272.055C206.387 274.73 206.527 274.3 204.102 275.345C204.587 274.2 204.612 274.75 204.297 273.67L202.822 273.24C201.042 273.93 201.812 273.395 200.592 275.1L200.727 275.81C201.772 275.225 201.687 275.235 202.882 275.225C201.942 275.89 200.242 276.745 199.057 276.195C196.057 274.805 189.667 278.3 187.207 275.785L188.852 274.745L188.702 274.27C187.167 273.965 186.527 274.415 185.057 275.005L184.487 275.24L183.787 274.795C183.497 273.28 183.522 272.96 182.792 271.575L182.077 272.575L181.112 272.57C177.787 270.815 177.102 270.08 175.792 266.59C174.627 266.92 175.017 266.935 173.957 268.175L173.122 268.025C170.462 264.92 167.967 252.675 170.252 249.725L170.902 251.325L171.467 251.455L171.942 250.53C171.512 249.48 171.387 249.12 171.107 248.02L171.717 247.16C176.857 246.28 173.047 245.985 175.772 244.48C179.157 245.85 180.497 244.26 182.832 245.3C183.227 246.99 182.747 247.03 181.762 249.075L182.392 249.685C183.457 248.675 182.977 248.925 184.312 248.47C185.742 249.805 185.352 249.03 185.767 250.735L184.652 251.9L184.867 252.615C187.137 254.495 195.287 259.485 197.062 257.23C201.687 251.36 200.467 246.745 207.712 242.195Z" fill="#000101"/>
<path d="M316.586 262.695C317.856 263.375 320.666 265.495 322.291 266.505C327.356 269.645 332.861 271.825 337.236 275.85C344.691 282.705 342.866 285.195 343.306 293.725C341.746 295.71 340.261 297.1 338.481 298.86C336.436 300.475 330.806 301.695 328.196 302.275C317.991 297.17 315.946 291.95 315.356 280.925C314.946 273.31 313.596 270.025 316.586 262.695Z" fill="#4BBCF5"/>
<path d="M171.177 274.771C179.467 277.506 178.217 299.336 174.217 305.246C170.787 310.311 166.912 310.311 161.442 311.641L156.567 310.251C153.312 305.301 152.252 305.661 149.352 301.841C149.867 300.766 150.007 300.606 149.932 299.381C149.367 289.856 159.142 285.936 165.352 280.721C167.687 278.761 169.087 277.156 171.177 274.771Z" fill="#4BBCF5"/>
<path d="M219.842 142.571C219.959 142.384 220.073 142.195 220.188 142.007C221.503 131.903 225.295 123.499 228.767 114.257C232.726 103.721 232.627 98.9929 240.07 89.8577C245.842 82.7734 249.411 76.324 258.16 71.9503C269.217 64.868 282.134 67.4544 294.367 64.6925C296.171 64.5126 298.738 65.7425 300.4 65.7235C319.993 65.5009 336.186 76.9376 353.084 85.2681C367.214 92.2347 377.027 115.046 375.263 130.799C373.353 147.853 367.942 166.222 364.063 183.092C367.615 187.738 370.827 193.009 367.986 199.306C367.102 198.707 367.504 198.727 366.664 198.756C366.576 199.293 366.479 199.828 366.365 200.359C364.136 210.489 348.349 220.738 339.034 221.982C337.528 222.184 334.965 222.841 333.52 222.527C333.238 222.02 333.071 221.732 332.753 221.241C329.357 223.741 325.974 219.929 322.42 220.267C312.719 221.191 303.735 219.824 294.605 216.424L292.238 217.46C289.771 216.138 288.685 215.619 285.965 214.895C281.48 213.701 276.99 212.449 272.514 211.207C270.092 210.534 267.762 209.188 265.345 208.455C258.479 206.846 251.904 204.455 245.211 202.269C245.046 201.257 245.207 201.516 244.727 200.719L243.715 202.075L243.326 201.902C243.143 201.316 242.96 200.734 242.768 200.152C242.472 200.49 242.212 200.776 241.908 201.102C240.132 200.833 238.431 199.134 236.839 198.51C231.069 196.246 226.069 193.447 221.181 189.477C219.616 188.207 214.588 182.565 214.223 180.44C214.069 179.468 214.372 179.949 213.846 179.152C208.713 171.38 206.936 158.878 210.586 149.948C212.146 146.132 216.325 143.868 219.842 142.571Z" fill="#0167FC"/>
<path d="M219.842 142.571C220.727 143.098 229.155 144.56 231.296 145.107C239.191 146.984 247.12 148.526 254.974 150.624C256.404 151.006 256.977 150.469 259.231 151.213C267.096 153.81 275.372 156.182 283.388 158.232C283.479 158.978 283.455 158.628 283.086 159.478C285.085 160.238 287.35 159.606 289.564 160.393C293.767 161.886 298.125 163.421 302.459 164.478C304.117 164.883 307.612 165.081 308.984 165.932C309.349 166.157 309.477 166.67 309.826 166.914C310.638 167.477 313.954 167.599 315.201 167.89C320.835 169.209 341.853 174.488 344.87 177.699C345.628 178.505 346.399 179.286 347.147 180.102L347.538 179.911C347.257 178.925 347.293 178.964 346.707 178.15C349.501 179.059 352.574 180.238 355.314 181.032C358.202 181.868 361.063 182.211 364.063 183.091C367.616 187.738 370.827 193.008 367.986 199.306C367.102 198.706 367.504 198.726 366.664 198.756C366.577 199.292 366.479 199.827 366.365 200.359C364.136 210.489 348.35 220.738 339.034 221.982C337.528 222.183 334.966 222.841 333.52 222.526C333.238 222.02 333.071 221.731 332.753 221.24C329.357 223.741 325.974 219.929 322.421 220.267C312.72 221.19 303.735 219.824 294.605 216.424L292.238 217.46C289.771 216.137 288.685 215.619 285.965 214.895C281.48 213.701 276.99 212.449 272.515 211.206C270.092 210.534 267.762 209.187 265.346 208.455C258.48 206.846 251.905 204.455 245.211 202.268C245.047 201.256 245.207 201.515 244.727 200.719L243.716 202.075L243.326 201.901C243.144 201.316 242.96 200.733 242.769 200.152C242.473 200.49 242.212 200.776 241.909 201.101C240.133 200.832 238.431 199.134 236.839 198.51C231.069 196.246 226.069 193.447 221.181 189.477C219.616 188.207 214.589 182.565 214.223 180.44C214.07 179.468 214.373 179.949 213.846 179.152C208.713 171.38 206.936 158.878 210.586 149.948C212.146 146.132 216.325 143.868 219.842 142.571Z" fill="#121211"/>
<path d="M296.535 102.48L296.97 102.403C297.853 103.27 301.608 103.605 302.905 104.247C310.886 108.197 323.062 107.946 328.824 115.551C328.774 116.005 328.79 116.328 328.55 116.681C328.045 117.431 329.638 120.455 329.228 121.681C328.43 124.064 327.131 124.261 326.851 126.854C326.475 129.235 326.764 133.56 325.111 135.422C321.987 138.941 326.544 141.306 320.815 143.605C315.284 145.827 312.659 142.912 307.89 142.053L307.606 141.924C303.545 140.152 300.391 140.508 296.898 139.007L296.682 137.847C295.188 137.093 289.513 136.814 287.55 136.248C285.572 135.678 287.077 134.831 285.652 134.718C282.31 134.453 282.818 136.151 279.617 134.038C272.038 122.313 278.053 122.776 276.809 114.218C279.713 110.185 281.387 103.143 283.267 100.95C285.938 99.3891 292.686 101.86 296.535 102.48Z" fill="#121211"/>
</svg>
