<svg width="500" height="500" viewBox="0 0 500 500" fill="none" xmlns="http://www.w3.org/2000/svg">
<path d="M249.425 96.935C251.63 90.075 256.365 89.42 258.555 84.145L258.205 83.745L255.955 84.87C256.355 80.145 261.375 79.685 263.975 77L272.295 78.145C274.46 81.085 271.675 81.97 272.555 85.24C273.95 85.04 273.41 85.065 274.795 83.945C275.955 84.99 275.93 86.53 275.41 88.01C274.06 91.855 281.24 101.54 281.275 104.46C281.395 113.3 284.73 117.785 287.705 125.76C288.715 128.47 286.735 131.805 287.42 133.4C288.75 133.295 289.345 133.175 290.655 132.905L291.09 133.46C290.795 134.545 290.585 135.35 290.555 136.48C292.92 137.795 301.075 132.28 303.155 130.7C303.85 130.175 306.105 131.19 306.76 131.48C308.335 130.945 308.64 130.065 309.55 128.635C320.48 124.34 331.27 117.13 342.06 112.335C348.46 109.49 349.91 115.335 348.35 120.755L348.69 121.68L350.31 122.025C350.88 124.19 348.975 126.835 347.825 128.89C352.125 135.825 349.195 133.26 347.48 140.66C344.995 151.4 344.41 162.58 342.905 173.375C348.565 176.505 346.975 175.065 352.5 175.12C356.875 173.455 359.395 172.65 363.835 174.03C365.985 172.565 376.08 170.96 378.36 171.285L378.225 172.75L378.815 172.995C379.605 171.985 379.85 171.5 380.49 170.405L381.52 170.155C383.11 171.01 383.275 171.595 384.19 173.145C384.645 172.225 385.395 170.995 386.665 170.735C391.225 169.805 399.2 168.74 403.57 170.515C405.185 171.17 405.805 174.08 406.16 175.505C406.45 176.665 406.73 177.83 406.995 178.995C404.94 181.69 404.455 182.875 401.24 183.545C398.385 193.395 399.35 187.375 394.67 192.35L393.915 195.785C393.435 197.965 384.41 206.82 382.145 208.325C380.735 212.555 377.865 217.56 375.405 221.35L374.195 220.695L373.335 221.605C372.155 224.405 371.97 224.47 369.86 226.54L367.76 228.615C370.25 231.215 370.92 231.335 374.285 232.435C374.6 233.69 374.62 233.915 374.7 235.21C382.205 236.37 394.155 239.685 399.55 245.075C403.455 244.18 414.095 249.005 418.205 250.615C419.46 251.11 421.195 254.47 422.48 255.175C423.705 255.805 424.335 254.17 425.595 255.46C425.69 257.54 425.685 257.655 425.325 259.7C423.095 264.3 425.655 264.56 420.705 266.83C418.89 268.32 398.965 275.21 396.575 275.01L396.25 276L395.69 276.21C385.435 280.075 375.245 285.96 364.925 289.925C363.5 290.475 364.205 294.355 364.51 295.425C366.13 296.5 367.175 296.775 367.89 298.255L366.745 298.75C368.365 303.355 371.29 302 371.295 308.795L372.095 309.46C373.725 308.93 373.46 308.825 375.075 308.94L375.47 309.73C375.135 310.69 374.92 311.51 374.42 312.39C377.54 313.42 377.785 313.935 379.03 316.965L380.8 319.735C383.63 324.075 385.145 330.565 389.065 334.21C391.08 336.585 390.585 336.84 391.835 338.89C398.285 348.74 397.295 357.94 383.57 353.28C377.045 352.805 368.09 350.525 361.245 349.77C360.265 349.665 357.295 348.2 355.34 347.735L354.865 348.435L354.08 348.54C354.105 347.745 354.075 348.02 354.16 347.3L354.22 346.835C349.95 345.145 344.92 348.3 342.555 344.01L341.36 344.985C339.34 345.375 334.84 344.7 332.52 344.45L330.735 343.705C321.555 342.6 322.63 349.195 323.69 355.57C324.075 357.915 323.515 360.68 323.12 363.055C323.07 365.355 323.74 372.715 323.395 373.7C323.76 375.655 323.8 375.35 323.51 377.155C323.015 380.225 324.245 385.36 323.735 388.63C322.92 393.835 320.94 397.615 320.705 403.025L321.075 403.325L323.06 401.05C324.055 402.485 322.125 403.965 321.12 405.035C320.77 406.485 321.495 407.545 322.135 408.98L321.795 409.81C319.61 408.115 319.96 407.755 317.965 407.955C319.395 409.08 319.07 408.4 319.545 409.84C318.87 410.595 318.185 411.32 317.435 411.995C318.245 412.37 318.41 412.27 318.805 412.83C316.2 413.05 313.5 414.39 312.32 414.115C308.75 413.29 310.56 411.075 309.31 409.125C307.77 409.46 306.525 409.955 305.125 409.405C303.67 407.9 304.485 407.485 304 406.08C302.27 401.095 296.09 401.425 295.14 395.515L294.445 394.92L293.05 395.61C290.245 394.945 289.36 394.12 287.685 391.755C285.515 388.88 282.14 385.8 279.5 383.235C279.34 383.145 279.175 383.06 279.015 382.97C273.785 377.725 266.37 372.04 260.695 367.475C258.895 369.74 257.605 371.355 254.56 371.345L253.885 372.105C252.89 376.35 251.75 377.895 248.72 380.97C246.23 383.945 247.625 382.43 244.505 383.54C243.565 383.875 242.335 389.385 241.66 390.965C240.62 393.38 232.925 401.49 232.86 403.05C232.51 411.15 226.08 409.73 224.93 419.9C223.785 420.205 223.83 420.165 222.64 420.055C220.62 421.395 218.485 423.15 216.19 423.475C212.525 422.525 209.81 416.31 209.57 412.685C207.01 410.765 208.915 414.13 206.625 411.505C207.09 405.04 204.655 401.725 202.685 395.605C201.53 392.015 200.515 390.875 202.01 387.145C199.03 385.77 195.8 373.97 196.365 370.85L197.295 370.215L197.59 369.62L195.61 369.935C194.49 368.12 194.755 364.895 194.79 362.675C193.36 361.88 189.945 359.465 188.69 360.04C177.995 364.91 170.135 370.51 158.645 374.25C156.935 376.745 154.115 379.735 151.135 380.58C149.96 381.03 148.275 382.045 147.125 382.195C144.98 382.47 142.12 381.84 140.535 383.815C139.35 385.29 140.92 385.585 139.215 387.115C132.165 384.71 133.54 383.315 132.98 375.87C137.63 370.125 135.26 371.22 137.26 365.085C142.47 353.805 144.39 338.05 148.75 326.175C143.225 323.36 140.92 323.26 134.99 323.82C128.7 325.155 123.195 324.285 117.015 323.325C116.16 324.655 116.21 324.625 115.005 325.63L114.01 325.58C113.6 324.695 113.285 323.98 112.935 323.07C111.97 323.635 111.13 324.375 110.255 324.755L110.775 326.075C107.945 326.51 106.785 325.815 103.47 326.265C98.5447 327.46 94.1897 325.75 90.3897 325.75L90.2197 326.205L91.5597 327.01L91.4347 327.5C88.7097 328.055 87.0247 327.19 84.6747 325.885C83.6547 324.425 84.0997 321.615 84.1897 319.67C86.6347 315.785 90.8847 310.165 93.8247 306.66C96.6697 303.23 101.115 299.63 102.855 295.455C105.38 289.39 122.775 272.87 122.685 267.575L121.745 266.96C122.615 265.795 122.685 265.755 123.235 264.43C121.715 262.01 111.93 258.115 108.89 256.555C106.515 256.435 97.1147 246.55 96.7997 246.535C88.4797 246.15 85.7847 240.13 79.4447 236.195C74.3647 233.05 70.9547 228.23 77.9947 225.01C78.4697 223.155 78.0347 223.81 79.5497 222.47L80.0347 222.045C83.3997 219.05 89.4547 219.565 92.9047 216.32C93.8947 215.385 93.7397 215.495 94.9547 215.105C94.5047 216.165 94.1197 217.23 93.7847 218.33C96.0247 216.825 102.415 211.23 104.53 211.84C103.815 212.92 102.8 213.935 102.97 214.865C105.3 213.865 105.27 212.405 105.835 212.12C112.9 208.58 141.86 206.21 129.52 193.275C129.52 193.275 129.68 191.03 129.695 190.79C122.065 189.815 128.845 186.245 123.905 181.68C122.915 180.76 122.5 180.08 122.07 178.845C122.055 176.82 122.18 176.885 123.31 175.1C116.045 172.675 116.245 170.155 116.13 163L115.515 162.41L114.275 162.45C110.085 160.535 101.685 142.115 105.555 137.32C106.605 136.02 107.795 134.26 109.68 134.3C114.265 134.395 115.585 133.95 119.19 136.665C119.36 136.86 120.035 137.6 120.13 137.795C121.025 137.27 122.17 136.25 123.8 136.92C128.13 138.705 132.865 140.665 137.275 142.38C137.545 142.96 137.815 143.545 138.09 144.13C141.265 144.08 141.67 142.925 144.945 145.365C147.555 147.305 149.04 147.47 152.28 147.55C159.915 153.685 158.25 149.505 161.99 151.48C163.585 157.16 164.79 153.505 167.755 153.615L168.925 155.195C178.97 156.185 174.92 131.73 175.215 126.11C175.905 123.38 174.1 121.87 175 119.25C175.905 118.335 176.665 117.775 177.005 116.555C176.515 115.85 175.19 113.885 175.19 113.175C175.205 106.965 174.895 91.15 178.45 86.12C179.965 85.41 179.47 85.63 181.565 86.24L182.21 83.995C188.04 81.24 198.22 95.295 199.76 100.155C201.88 104.585 207.76 106.185 208.36 111.885L209.7 112.185C214.735 120.28 217.095 122.19 221.275 131.17C222.895 132.905 223.285 132.26 225.755 132.765C225.005 134.82 222.92 134.23 223.08 135.885C225.855 136.335 228.2 132.87 230.375 131.14C231.73 129.31 234.91 125.18 236.005 123.32C237.77 120.64 238.905 115.575 240.505 113.04C243.145 108.855 246.01 99.705 249.425 96.935Z" fill="#FD235B"/>
<path d="M175.218 126.111C176.023 127.541 176.533 128.596 177.538 129.896C177.673 133.566 177.708 136.976 177.583 140.586C177.458 144.321 175.998 149.276 177.603 152.526C178.418 154.176 178.808 154.041 178.348 155.746L177.593 155.906L177.253 155.496C176.713 154.861 176.933 155.111 176.233 154.386C174.288 154.641 172.758 155.586 171.303 156.896C167.948 156.751 166.608 155.921 163.428 155.606C161.503 155.416 159.708 156.146 158.148 155.171L157.558 153.701L156.028 153.536L155.918 154.971L155.278 155.451C153.323 154.051 154.123 150.321 150.478 149.131C145.343 147.456 138.163 147.461 132.908 147.951L132.518 147.386C133.448 145.341 133.753 145.631 133.208 144.096C127.913 140.756 125.153 144.206 120.133 137.796C121.028 137.271 122.173 136.251 123.803 136.921C128.133 138.706 132.868 140.666 137.278 142.381C137.548 142.961 137.818 143.546 138.093 144.131C141.268 144.081 141.673 142.926 144.948 145.366C147.558 147.306 149.043 147.471 152.283 147.551C159.918 153.686 158.253 149.506 161.993 151.481C163.588 157.161 164.793 153.506 167.758 153.616L168.928 155.196C178.973 156.186 174.923 131.731 175.218 126.111Z" fill="#EE4177"/>
<path d="M379.03 316.967L380.8 319.737C383.63 324.077 385.145 330.567 389.065 334.212C391.08 336.587 390.585 336.842 391.835 338.892C398.285 348.742 397.295 357.942 383.57 353.282C387 348.767 386.515 352.487 391.12 351.152C392.195 349.287 392.51 346.937 390.53 345.587C388.27 346.122 388.05 346.272 386.545 344.702L386.82 343.877L387.755 343.812C388.41 343.177 388.875 342.677 389.485 342.012C388.665 338.997 386.79 341.052 385.54 335.517C384.23 335.177 383.82 335.102 382.61 334.532C380.8 332.062 380.715 330.117 380.185 327.057C380.925 321.512 377.63 321.137 379.03 316.967Z" fill="#EE4177"/>
<path d="M230.375 131.141C231.73 129.311 234.91 125.181 236.005 123.321C237.77 120.641 238.905 115.576 240.505 113.041C243.145 108.856 246.01 99.7055 249.425 96.9355C248.43 100.161 247.02 102.831 246.55 105.996C246.995 106.766 247.305 107.361 247.62 108.201C245.28 112.186 241.325 114.651 239.525 118.181C236.92 123.281 243.44 126.941 234.22 128.611C233.36 129.721 233.355 131.441 233.165 132.926C231.24 132.501 232.475 131.951 230.375 131.141Z" fill="#EE4177"/>
<path d="M318.276 380.936C322.061 378.191 322.446 378.336 323.396 373.701C323.761 375.656 323.801 375.351 323.511 377.156C323.016 380.226 324.246 385.361 323.736 388.631C322.921 393.836 320.941 397.616 320.706 403.026L321.076 403.326L323.061 401.051C324.056 402.486 322.126 403.966 321.121 405.036C320.771 406.486 321.496 407.546 322.136 408.981L321.796 409.811C319.611 408.116 319.961 407.756 317.966 407.956C316.471 399.631 320.011 398.271 321.501 390.531C322.251 386.631 320.636 383.966 318.276 380.936Z" fill="#EE4177"/>
<path d="M115.516 162.411L114.276 162.451C110.086 160.536 101.686 142.116 105.556 137.321C106.606 136.021 107.796 134.261 109.681 134.301C114.266 134.396 115.586 133.951 119.191 136.666C114.221 137.111 108.471 132.836 106.241 140.786C106.786 142.506 109.391 150.251 110.386 151.586C112.666 154.636 113.996 160.096 115.516 162.411Z" fill="#EE4177"/>
<path d="M137.26 365.086C139.71 370.751 135.295 374.231 138.01 376.481L140.675 376.901C140.055 378.846 137.785 377.786 137.105 381.896L137.651 382.656C140.191 382.546 142.22 380.591 144.12 379.856C143.3 380.171 151.19 380.586 151.135 380.581C149.96 381.031 148.275 382.046 147.125 382.196C144.98 382.471 142.12 381.841 140.535 383.816C139.35 385.291 140.921 385.586 139.216 387.116C132.166 384.711 133.54 383.316 132.98 375.871C137.63 370.126 135.26 371.221 137.26 365.086Z" fill="#EE4177"/>
<path d="M384.191 173.146C384.646 172.226 385.396 170.996 386.666 170.736C391.226 169.806 399.201 168.741 403.571 170.516C405.186 171.171 405.806 174.081 406.161 175.506C406.451 176.666 406.731 177.831 406.996 178.996C404.941 181.691 404.456 182.876 401.241 183.546C401.906 180.711 405.566 178.251 404.501 174.946C403.306 173.556 399.931 172.156 398.171 172.346C397.716 174.101 398.046 173.656 397.051 174.996L396.251 174.886C395.506 173.746 395.476 173.411 394.321 172.781C393.786 173.556 393.411 174.031 392.806 174.761L392.121 174.496L391.626 172.466L390.976 172.361C388.441 173.461 386.786 174.511 384.191 173.146Z" fill="#EE4177"/>
<path d="M399.551 245.077C403.456 244.182 414.096 249.007 418.206 250.617C419.461 251.112 421.196 254.472 422.481 255.177C423.706 255.807 424.336 254.172 425.596 255.462C425.691 257.542 425.686 257.657 425.326 259.702C424.281 258.927 424.391 258.912 423.681 257.807C422.976 259.212 422.286 259.147 420.926 259.547C417.071 256.547 419.576 255.837 417.211 253.767C412.256 253.802 414.431 251.747 413.146 250.957C408.486 248.097 403.646 250.177 399.551 245.077Z" fill="#EE4177"/>
<path d="M181.566 86.2401L182.211 83.9951C188.041 81.2401 198.221 95.2952 199.761 100.155C196.121 98.5452 191.021 91.0251 188.681 87.6751C187.611 86.1401 183.316 89.1551 181.566 86.2401Z" fill="#EE4177"/>
<path d="M321.857 344.197C323.342 342.462 324.162 341.717 325.882 340.182L330.737 343.707C321.557 342.602 322.632 349.197 323.692 355.572C324.077 357.917 323.517 360.682 323.122 363.057C321.887 361.807 320.462 360.777 320.027 359.282C320.342 358.977 321.357 358.027 321.377 357.612C321.562 353.092 321.457 348.732 321.857 344.197Z" fill="#EE4177"/>
<path d="M279.5 383.237C281.67 383.017 282.175 382.787 284.06 383.662C285.865 385.592 286.15 387.187 287.64 388.967C289.22 388.757 291.115 388.277 292.47 388.947C293.025 391.162 292.11 392.227 293.245 394.102L294.445 394.922L293.05 395.612C290.245 394.947 289.36 394.122 287.685 391.757C285.515 388.882 282.14 385.802 279.5 383.237Z" fill="#EE4177"/>
<path d="M208.362 111.887L209.702 112.187C214.737 120.282 217.097 122.192 221.277 131.172C217.087 129.212 220.472 131.687 216.652 130.902L216.512 130.212C217.802 129.402 218.027 129.502 218.702 128.287C216.702 125.037 213.437 118.972 209.512 118.427C207.867 118.702 207.472 119.302 206.252 120.452L205.807 120.872C205.072 119.912 208.307 116.097 208.707 114.822C208.707 114.822 208.387 112.117 208.362 111.887Z" fill="#EE4177"/>
<path d="M123.311 175.102C129.466 181.532 126.131 183.602 129.696 190.792C122.066 189.817 128.846 186.247 123.906 181.682C122.916 180.762 122.501 180.082 122.071 178.847C122.056 176.822 122.181 176.887 123.311 175.102Z" fill="#EE4177"/>
<path d="M77.9961 225.01C78.4711 223.155 78.0361 223.811 79.5511 222.471L80.0361 222.045C83.4011 219.05 89.4561 219.565 92.9061 216.32C93.8961 215.385 93.7411 215.495 94.9561 215.105C94.5061 216.165 94.1211 217.231 93.7861 218.331C91.6111 219.186 91.4011 218.81 90.6311 220.35C91.0411 222.34 91.3061 221.62 90.4911 222.855C89.2811 222.48 88.5561 221.615 87.6061 220.735C86.3811 221.515 86.4411 221.845 85.6661 223.23C83.3311 223.905 82.0511 222.52 80.2411 223.165C77.8711 224.005 81.0111 224.92 77.9961 225.01Z" fill="#EE4177"/>
<path d="M202.011 387.147C199.031 385.772 195.801 373.972 196.366 370.852L197.296 370.217C197.991 373.987 199.706 376.837 201.041 380.362C201.786 382.337 201.736 384.957 202.011 387.147Z" fill="#EE4177"/>
<path d="M117.016 323.326C120.411 321.016 123.236 324.036 125.766 322.816C126.331 322.201 126.816 321.421 127.441 321.321C128.361 321.176 134.416 323.476 134.991 323.821C128.701 325.156 123.196 324.286 117.016 323.326Z" fill="#EE4177"/>
<path d="M420.927 259.547C422.287 259.147 422.977 259.212 423.682 257.807C424.392 258.912 424.282 258.927 425.327 259.702C423.097 264.302 425.657 264.562 420.707 266.832C420.602 264.512 420.752 261.867 420.927 259.547Z" fill="#EE4177"/>
<path d="M352.5 175.121C356.875 173.456 359.395 172.651 363.835 174.031C360.145 177.001 356.835 177.486 352.5 175.121Z" fill="#EE4177"/>
<path d="M367.761 228.615C366.936 227.37 366.881 226.22 366.621 224.74C367.906 221.33 369.926 223.465 373.336 221.605C372.156 224.405 371.971 224.47 369.861 226.54L367.761 228.615Z" fill="#EE4177"/>
<path d="M248.721 380.971C247.826 375.801 249.456 374.29 253.886 372.105C252.891 376.35 251.751 377.896 248.721 380.971Z" fill="#EE4177"/>
<path d="M332.52 344.451C336.045 343.721 338.975 340.986 341.68 342.361L342.555 344.011L341.359 344.986C339.339 345.376 334.84 344.701 332.52 344.451Z" fill="#EE4177"/>
<path d="M103.473 326.266C102.858 326.206 103.243 326.276 102.363 325.881C102.978 324.416 104.188 322.981 105.778 322.676C107.183 325.116 107.378 324.451 110.258 324.756L110.778 326.076C107.948 326.511 106.788 325.816 103.473 326.266Z" fill="#EE4177"/>
<path d="M259.13 259.961C261.825 261.136 267.2 262.351 270.435 263.396C275.59 269.396 276.185 264.476 278.26 267.361L277.16 268.811L277.695 269.401C278.63 268.776 279.025 268.586 280.04 268.096C281.52 268.371 292.925 275.976 293.98 277.246C293.455 284.061 303.71 283.296 303.52 290.871C303.5 291.576 308.69 294.786 308.89 296.571C309.305 300.231 307.545 307.006 306.245 310.096C304.3 309.916 304.365 309.896 302.475 310.351C301.475 311.531 301.805 310.821 301.845 312.696L301.21 313.111C289.315 314.316 293.555 310.586 289.29 307.646C288.29 308.511 288.335 308.586 287.1 308.991C283.5 307.031 280.19 302.226 276.995 299.721C276.295 299.176 271.175 298.276 270.83 297.516C270.255 296.241 271.095 295.711 269.485 294.691C268.005 295.266 268.365 295.411 267.425 297.301C264.855 297.506 258.11 293.341 253.765 293.151C252.265 294.091 251.51 294.761 249.745 294.946L249.37 294.311C250.61 293.481 250.705 293.421 251.735 292.346L251.34 291.991L250.355 292.066C249.19 293.141 248.945 293.431 247.565 294.271C246.68 294.346 245.7 294.421 244.96 293.811C243.255 292.396 240.32 294.216 238.33 294.426C234.07 294.871 234.61 295.091 231.35 293.076C229.455 293.576 222.805 298.661 221 300.026C219.705 299.631 221.135 299.341 219.94 297.246C216.65 300.086 203.71 311.861 199.275 314.501C198.465 314.986 197.4 311.601 192.645 312.436C191.565 311.916 190.54 311.551 189.425 311.131C189.335 309.596 189.32 309.176 189.46 307.586L191.4 307.536L191.545 307.031C190.115 306.176 190.05 306.331 189.06 305.041C189.735 303.906 190.73 302.686 189.575 301.571L188.085 302.636L187.785 301.746C187.935 300.436 188.2 300.086 189.09 299.131C192.66 295.296 189.575 296.506 190.675 293.596C191.91 293.431 191.495 293.561 192.645 293.011L191.985 291.541L192.36 290.856C193.575 291.006 193.185 291.026 194.32 290.821L194.47 289.756L193.255 288.396L193.965 286.941C195.51 285.956 194.665 286.156 196.615 286.511C198.02 286.041 202.97 280.056 205.015 278.376C206.345 278.961 205.83 278.871 207.255 278.941C209.445 275.811 206.49 278.836 207.42 275.661L208.93 276.016L209.535 275.581L208.765 274.421C212.935 269.486 220.69 269.276 224.885 266.306C225.03 265.181 225.02 265.131 225.435 264.086C226.71 263.666 228.275 263.586 229.51 264.041C231.99 264.956 234.335 264.006 237 263.256L236.94 263.426C238.075 263.166 245.035 261.446 245.605 261.446C249.33 261.421 253.455 262.551 257.49 261.816C258.175 260.486 257.87 260.966 259.13 259.961Z" fill="#000101"/>
<path d="M275.911 212.997C276.906 214.187 277.196 214.222 277.286 215.697L275.796 214.577L275.191 215.007C277.176 218.867 280.911 216.562 280.126 219.957L281.081 220.482C282.291 219.907 281.871 220.187 282.781 219.152C284.826 219.207 289.301 219.537 291.036 218.972C293.256 215.327 290.656 216.927 292.596 213.812L294.486 213.802C296.401 211.172 293.466 208.297 296.066 207.167L299.176 208.282L299.371 207.902L298.221 206.427L298.741 205.997C299.641 206.377 300.391 206.717 301.271 207.147C302.166 206.642 302.631 206.362 303.461 205.762C305.096 206.162 304.981 206.172 306.281 207.272L305.706 207.442L306.201 207.062L306.026 206.892L305.781 207.427L303.306 207.397C303.841 208.742 306.511 209.367 306.901 211.472C306.981 211.907 308.096 213.422 308.391 213.837L308.886 213.712C309.321 212.162 309.251 212.107 309.216 210.467C310.251 213.797 308.981 224.897 308.046 228.817C307.841 229.667 307.051 230.007 306.311 230.287L306.146 229.492C307.871 226.962 308.166 227.392 307.996 224.872L307.396 224.437C305.811 225.777 303.501 233.317 300.631 234.562L300.256 234.122L300.761 232.452C300.146 232.927 296.931 235.582 296.516 235.812C293.766 237.342 290.216 236.927 287.331 238.467L286.146 237.822C283.156 238.757 279.041 242.302 277.136 236.427L276.101 235.452C271.121 235.587 271.446 236.807 267.956 231.687C263.306 230.652 262.301 230.357 261.596 225.542C262.126 222.317 261.911 225.957 264.746 222.927C265.141 221.317 265.191 221.422 264.761 219.837C263.466 219.477 263.471 219.642 262.116 219.817C261.286 218.422 261.921 217.487 261.831 215.212L260.556 215.082L260.316 214.442C261.626 213.637 261.576 213.702 262.541 212.517L261.336 209.287L261.836 209.047C263.501 210.182 263.606 210.332 265.596 210.422C264.166 208.397 263.986 208.847 264.046 206.872C265.921 205.877 267.161 206.867 268.856 207.892L269.536 207.507L268.821 206.207C271.886 206.587 275.406 209.757 275.911 212.997Z" fill="#000101"/>
<path d="M265.595 210.42C264.165 208.395 263.985 208.845 264.045 206.87C265.92 205.875 267.16 206.865 268.855 207.89L269.535 207.505L268.82 206.205C271.885 206.585 275.405 209.755 275.91 212.995C274.525 211.915 273.375 210.24 271.785 210.115L271.435 210.51C268.245 214.095 268.99 210.225 265.595 210.42Z" fill="#32090A"/>
<path d="M277.137 236.426C280.747 237.321 279.342 236.681 282.927 236.186L283.387 236.436C284.302 236.931 285.217 237.371 286.147 237.821C283.157 238.756 279.042 242.301 277.137 236.426Z" fill="#181313"/>
<path d="M261.598 225.541C265.328 227.316 265.903 228.066 267.958 231.686C263.308 230.651 262.303 230.356 261.598 225.541Z" fill="#DA1D4E"/>
<path d="M207.712 212.195C218.597 215.795 217.802 223.995 215.692 233.425C214.537 233.15 215.152 233.255 213.852 233.145C212.642 235.34 214.382 234.89 213.367 237.125C210.417 236.56 208.317 239.75 206.397 242.055C206.387 244.73 206.527 244.3 204.102 245.345C204.587 244.2 204.612 244.75 204.297 243.67L202.822 243.24C201.042 243.93 201.812 243.395 200.592 245.1L200.727 245.81C201.772 245.225 201.687 245.235 202.882 245.225C201.942 245.89 200.242 246.745 199.057 246.195C196.057 244.805 189.667 248.3 187.207 245.785L188.852 244.745L188.702 244.27C187.167 243.965 186.527 244.415 185.057 245.005L184.487 245.24L183.787 244.795C183.497 243.28 183.522 242.96 182.792 241.575L182.077 242.575L181.112 242.57C177.787 240.815 177.102 240.08 175.792 236.59C174.627 236.92 175.017 236.935 173.957 238.175L173.122 238.025C170.462 234.92 167.967 222.675 170.252 219.725L170.902 221.325L171.467 221.455L171.942 220.53C171.512 219.48 171.387 219.12 171.107 218.02L171.717 217.16C176.857 216.28 173.047 215.985 175.772 214.48C179.157 215.85 180.497 214.26 182.832 215.3C183.227 216.99 182.747 217.03 181.762 219.075L182.392 219.685C183.457 218.675 182.977 218.925 184.312 218.47C185.742 219.805 185.352 219.03 185.767 220.735L184.652 221.9L184.867 222.615C187.137 224.495 195.287 229.485 197.062 227.23C201.687 221.36 200.467 216.745 207.712 212.195Z" fill="#000101"/>
<path d="M316.586 232.695C317.856 233.375 320.666 235.495 322.291 236.505C327.356 239.645 332.861 241.825 337.236 245.85C344.691 252.705 342.866 255.195 343.306 263.725C341.746 265.71 340.261 267.1 338.481 268.86C336.436 270.475 330.806 271.695 328.196 272.275C317.991 267.17 315.946 261.95 315.356 250.925C314.946 243.31 313.596 240.025 316.586 232.695Z" fill="#4BBCF5"/>
<path d="M171.177 244.771C179.467 247.506 178.217 269.336 174.217 275.246C170.787 280.311 166.912 280.311 161.442 281.641L156.567 280.251C153.312 275.301 152.252 275.661 149.352 271.841C149.867 270.766 150.007 270.606 149.932 269.381C149.367 259.856 159.142 255.936 165.352 250.721C167.687 248.761 169.087 247.156 171.177 244.771Z" fill="#4BBCF5"/>
<path d="M321.489 194.505C321.806 194.043 321.764 194.027 322.279 193.84C323.202 194.125 323.208 194.741 324.208 195.41L324.461 195.336L324.933 194.273C326.775 193.77 335.366 193.412 337.596 193.579C336.961 193.532 338.941 194.034 338.63 193.954C338.973 193.623 338.989 193.577 339.217 193.17L339.734 193.112C340.842 193.803 340.744 193.936 341.844 193.279C342.789 193.345 342.435 193.945 343.441 194.332C343.591 194.018 343.745 193.708 343.905 193.4C349.047 192.095 356.52 193.168 361.808 193.493C364.709 193.672 366.22 193.371 369.293 193.851L369.181 194.519C369.912 194.621 370.008 194.719 370.599 195.109C371.764 195.07 372.252 194.525 373.044 194.838C373.19 195.483 373.204 195.759 373.246 196.402C373.691 196.139 374.208 195.148 374.577 194.606L374.306 194.018C374.763 194.162 374.999 194.144 375.252 194.449C375.851 195.595 375.955 195.404 377.247 195.594C379.201 196.356 380.666 196.582 381.898 198.179L382.042 198.484C382.226 198.878 382.288 199.084 382.411 199.509L382.729 199.656C383.318 199.151 383.837 198.638 384.53 198.292C387.199 202.719 387.183 207.137 385.911 211.998C385.304 214.319 384.23 217.912 382.853 219.933C382.294 219.857 382.088 219.799 381.603 220.215C380.217 221.405 376.716 225.049 377.141 226.968C374.571 232.328 375.039 238.669 374.006 244.499C373.342 248.23 372.325 252.466 371.934 256.251C371.739 258.14 370.638 260.681 370.463 262.712C369.536 265.811 368.59 266.025 368.031 269.691C367.708 270.425 366.801 272.132 366.66 272.744C365.653 277.124 361.994 280.799 360.866 284.919C359.984 285.629 359.592 285.657 358.512 285.874C357.494 287.224 354.927 291.862 353.515 291.938C352.783 291.676 353.126 291.656 352.449 291.962C351.329 293.587 349.67 296.424 347.556 296.46C347.414 297.088 347.34 298.037 346.927 298.319C346.518 297.86 346.496 297.716 346.252 297.16L345.863 297.284C345.554 298.801 341.527 300.514 340.115 299.765C339.562 299.471 339.974 301.352 338.5 301.126C338.161 300.61 338.041 300.406 337.622 299.939C336.588 301.434 337.312 301.332 335.178 301.938C333.819 302.324 330.411 303.383 329.097 303.225L328.882 302.903L328.84 303.193C325.512 305.402 324.33 303.769 320.435 304.399C319.71 304.475 318.746 304.373 317.995 304.329C317.618 304.475 317.486 304.467 317.081 304.531C315.51 303.747 315.789 303.807 314.348 304.657C310.511 303.597 304.342 303.995 301.507 301.842L301.557 301.31L301.379 301.202L300.606 301.808C299.732 301.942 295.767 300.139 294.517 299.901C293.956 299.793 292.401 299.243 291.738 299.057C290.377 297.598 290.361 297.816 288.626 296.874C287.039 296.012 285.206 294.571 283.95 293.267C283.633 292.936 283.395 292.99 282.932 292.886C281.81 291.818 280.848 290.417 279.862 289.209C274.344 282.44 270.852 274.573 267.26 266.698C266.37 264.745 266.086 263.276 265.444 261.267C265.378 261.059 264.885 261.079 264.539 261.029C264.134 259.551 264.33 257.588 263.886 256.263C262.671 252.636 261.826 249.028 260.153 245.562C259.892 245.023 259.999 243.804 259.734 243.008C259.54 241.137 259.215 240.471 258.456 238.806C258.522 236.225 255.511 233.309 253.721 231.556C249.9 231.16 250.019 230.657 246.494 232.969C244.85 234.048 244.154 234.757 243.78 236.709C243.328 237.625 242.718 238.722 242.31 239.622C241.807 241.242 241.468 242.828 241.092 244.473C240.798 245.754 239.833 248.18 239.674 249.343C239.132 253.312 238.824 256.804 237.562 260.673C237.051 262.238 235.858 263.873 235.389 265.233C234.16 268.803 233.032 273.102 231.576 276.534C230.157 279.873 227.383 283.601 225.932 286.85C225.074 287.138 224.394 287.268 223.744 287.876L223.673 288.259L223.624 288.501C223.06 291.416 218.679 294.019 217.327 297.41L216.524 297.951L216.215 298.089C215.203 298.547 214.79 298.749 213.699 299.017C213.362 299.383 212.843 299.943 212.689 300.33C212.128 301.736 206.952 303.349 205.255 303.837C204.861 304.275 204.883 304.255 204.655 304.803C203.901 305.007 202.751 305.382 202.011 305.378C200.826 304.991 200.778 305.498 200.058 306.5C198.884 306.52 197.711 306.596 196.545 306.73C196.198 306.77 196.171 306.816 195.883 307.002L195.408 306.984L194.958 306.682C194.522 307.008 194.156 307.55 193.62 307.677C192.267 307.991 190.835 308.053 189.451 308.133C187.245 307.947 183.274 308.827 181.255 308.585C181.186 308.567 181.116 308.549 181.047 308.531L180.705 308.451C179.095 308.071 174.88 307.737 173.238 307.905C172.211 307.01 168.531 306.304 167.216 306.268C166.601 306.288 164.804 305.514 163.759 305.326C162.502 305.097 161.172 305.083 160.051 304.773C159.355 304.263 158.364 303.527 157.6 303.175C156.097 302.482 156.189 302.128 155.36 300.8C154.842 301.13 154.82 301.21 154.226 301.29C152.744 300.778 152.48 299.321 151.294 298.213L150.797 298.507C149.73 298.461 145.519 292.226 144.113 290.788L143.252 291.16L142.566 290.846C141.884 289.955 140.394 287.228 139.789 286.16C139.519 284.553 138.23 282.354 137.806 280.693C137.227 278.433 136.81 279.437 135.612 278.106C134.637 275.357 133.536 273.166 132.566 270.047C131.917 267.558 130.876 265.211 130.558 262.704C130.282 261.93 129.862 259.675 129.541 258.654C128.383 254.975 126.331 246.456 126.707 242.973C127.73 240.776 126.864 240.005 125.72 238.027L125.363 238.145L125.144 238.022C124.188 236.338 125.083 233.369 124.158 232.524L123.97 232.822C123.278 232.371 122.829 230.759 122.232 230.096C120.469 228.141 118.414 226.656 117.065 224.331C114.043 219.123 112.494 211.325 113.887 205.503L114.521 205.674L114.961 205.1C116.649 202.86 118.269 201.807 120.729 200.619C120.826 201.318 120.806 201.378 121.097 202.046C121.435 201.906 121.69 201.024 121.877 200.576C123.882 200.62 125.022 199.99 126.903 199.627C127.791 199.456 127.574 200.814 129.208 199.36C130.223 198.456 131.276 198.697 132.537 198.658C132.993 198.271 133.078 198.133 133.652 197.958L133.933 198.19C134.061 198.76 134.088 198.915 134.312 199.472L134.564 199.367C134.582 199.2 134.596 198.726 134.678 198.553C135.13 197.6 140.357 198.642 141.588 198.282C141.814 198.216 142.141 197.951 142.354 197.824C143.734 197.802 142.148 198.061 143.287 198.717C143.77 198.095 143.988 197.824 144.601 197.34L144.728 198.182L144.797 198.538L145.073 198.711C145.686 198.348 146.017 198.175 146.663 197.873C148.125 197.959 147.088 198.56 148.265 198.563C149.296 198.578 151.339 197.876 152.257 197.998C153.716 198.192 154.437 199.814 155.688 198.5C156.884 197.241 157.394 198.041 158.806 198.605C159.455 198.545 159.668 198.309 160.201 197.923L160.407 197.773C162.278 198.518 163.504 198.302 165.31 197.419L165.345 198.348L165.535 198.666C167.287 198.96 167.577 198.007 168.622 198.955C169.087 198.749 169.092 198.722 169.49 198.393C173.524 198.583 177.849 199.188 181.908 199.343C184.921 199.458 185.089 199.247 187.978 200.309C189.037 199.645 189.125 199.154 190.387 199.67C190.751 200.338 190.815 200.571 191.049 201.304L191.229 201.352C191.447 200.769 191.67 199.906 192.137 199.582C193.769 199.98 192.864 201.928 194.363 200.729C194.974 200.833 195.251 201.074 195.768 201.41C196.693 201.407 196.811 201.175 197.621 200.594C198.19 200.53 198.265 200.463 198.787 200.652C198.984 201.113 199.185 201.572 199.391 202.029L199.711 202.106C200.34 201.595 201.517 200.532 202.215 200.298C202.75 200.554 203.039 200.718 203.523 201.079C205.579 202.611 206.389 199.812 207.148 202.975L207.401 203.165C207.924 202.592 208.241 202.203 208.711 201.584C210.877 202.228 212.871 202.316 213.825 204.497C214.447 203.859 214.872 203.284 215.693 202.996C217.436 203.034 217.313 205.259 219.43 204.014C220.354 204.537 220.382 204.666 220.727 205.703C221.379 205.8 221.974 205.311 222.631 204.987C224.105 205.623 224.565 205.884 226.16 206.156C227.843 206.444 228.904 206.25 230.408 207.021C231.946 207.26 232.159 208.005 233.022 208.134C233.508 207.607 233.427 207.325 233.618 206.504C234.529 206.399 234.582 206.795 234.942 207.571L235.05 208.026C236.054 208.403 235.979 208.306 236.785 207.579L237.145 207.663L237.828 208.787L238.046 208.808L238.519 208.121L238.849 208.14C239.119 208.63 239.368 209.095 239.67 209.568C240.294 209.314 240.317 209.081 240.805 208.479C242.981 209.055 244.123 209.306 246.338 209.984C247.051 209.596 247.735 209.236 248.42 208.799C248.788 209.37 249.029 209.951 249.562 210.227C250.059 209.517 249.975 209.381 250.634 209.126L251.802 209.343C252.736 207.236 256.252 208.592 258.51 207.996C258.843 207.535 258.905 207.41 259.341 207.031L259.716 207.172C259.955 207.649 260.055 207.839 260.355 208.276C261.028 208.127 260.898 208.05 261.467 207.39C262.734 207.681 261.399 207.533 262.367 208.207C263.252 208.128 265.244 208.091 265.771 207.589C267.266 206.77 271.902 205.474 273.609 205.422L273.898 205.475C274.693 204.963 275.208 204.903 276.019 204.573C278.889 203.408 281.72 201.994 284.583 200.727L286.622 200.715C287.368 200.406 287.997 200.125 288.762 200.247C290.021 201.346 290.411 199.68 291.93 199.607C292.419 199.584 292.806 198.693 292.98 198.376L293.705 197.883C294.188 198.479 294.17 198.605 294.298 199.343C294.196 199.802 294.204 199.563 294.435 200.07L294.721 200.039C295.244 199.264 295.508 198.713 296.36 198.349C297.294 198.302 297.983 198.801 298.85 199.245C299.754 199.099 299.78 198.31 300.109 198.172C301.774 197.474 303.649 197.604 305.358 196.829L305.508 196.992C305.797 196.504 305.945 196.167 306.39 195.809C306.845 196.239 306.747 196.218 306.967 196.873L307.037 197.084L307.262 197.123L307.901 195.913C309.163 195.837 310.872 195.72 312.176 195.511C312.343 195.621 312.509 195.731 312.675 195.84C313.443 195.745 315.466 195.119 316.116 195.091C317.256 195.041 319.882 194.392 320.543 195.293C320.604 195.34 320.664 195.387 320.726 195.433L321.489 194.505Z" fill="#000101"/>
<path d="M321.488 194.505C321.805 194.043 321.763 194.027 322.278 193.84C323.201 194.125 323.207 194.741 324.207 195.41L324.46 195.336L324.932 194.273C326.774 193.77 335.365 193.412 337.595 193.579C336.96 193.532 338.94 194.034 338.629 193.954C338.972 193.623 338.988 193.577 339.216 193.17L339.733 193.112C340.841 193.803 340.743 193.936 341.843 193.279C342.789 193.345 342.434 193.945 343.44 194.332C343.59 194.018 343.744 193.708 343.905 193.4C349.046 192.095 356.519 193.168 361.807 193.493C364.708 193.672 366.219 193.371 369.292 193.851L369.18 194.519C365.85 194.639 362.672 193.951 359.308 194.51C359.116 194.542 358.543 193.841 358.425 193.699C357.701 193.575 358.032 193.516 357.397 193.873C357.102 194.406 356.828 194.889 356.509 195.41L356.155 195.378C355.772 194.768 355.708 194.611 355.423 193.939C354.904 193.829 353.586 194.866 353.167 195.247C351.803 194.581 352.129 192.09 349.246 195.094C347.391 193.831 347.07 194.353 345.427 195.376C344.41 194.967 344.973 194.14 344.123 194.113C343.115 194.898 343.239 194.966 341.923 194.653C341.616 195.012 341.38 195.305 341.096 195.682C340.054 195.603 340.527 194.741 339.525 194.865C338.831 195.476 339.204 195.369 338.435 195.386C337.844 194.984 337.176 194.42 336.501 194.365C335.988 194.626 335.858 194.928 335.538 195.407C333.382 196.093 332.155 194.214 331.142 196.358C330.889 196.891 330.905 196.945 330.625 196.949L330.492 196.706C330.178 196.135 330.066 195.773 329.513 195.456C326.874 195.294 324.249 197.439 322.202 194.95C321.941 194.632 321.877 194.627 321.488 194.505Z" fill="#000101"/>
<path d="M130.559 262.704C132.656 264.699 133.064 267.31 132.567 270.047C131.917 267.558 130.877 265.211 130.559 262.704Z" fill="#000101"/>
<path d="M374.305 194.018C374.762 194.161 374.998 194.143 375.25 194.448C375.849 195.594 375.954 195.404 377.246 195.593C376.771 195.909 376.048 196.902 375.647 197.398C375.459 195.984 375.563 195.392 374.575 194.605L374.305 194.018Z" fill="#000101"/>
<path d="M317.996 304.329C318.627 303.869 319.503 303.039 320.122 302.965C320.525 303.543 320.388 303.559 320.436 304.399C319.711 304.475 318.747 304.373 317.996 304.329Z" fill="#000101"/>
<path d="M284.582 200.726L286.622 200.715C285.778 201.684 285.604 201.994 284.985 203.083C284.893 202.312 284.834 201.449 284.582 200.726Z" fill="#000101"/>
<path d="M339.464 210.307C339.997 209.307 340.556 207.878 341.628 207.533C342.311 208.543 341.648 208.304 342.53 208.819C343.91 208.751 343.952 208.514 344.894 207.479L345.132 207.215L345.395 207.418C345.455 207.994 345.501 208.447 345.615 209.02C346.569 208.836 347.484 208.319 348.029 208.116C348.418 207.971 350.909 209.683 351.412 209.826C351.704 209.909 352.231 209.081 352.389 208.85L352.676 208.942L352.902 209.84L353.271 209.927L353.84 209.564C353.92 211.611 355.705 211.347 356.501 212.59C357.875 214.733 359.49 217.539 359.855 220.099C359.969 221.207 359.656 221.89 360.079 223.013C360.478 222.787 360.384 222.741 360.686 222.235C361.686 224.382 360.103 234.046 360.354 236.857C360.454 237.991 359.524 241.156 359.476 242.456C359.009 246.256 358.819 248.476 357.739 252.162C357.707 256.412 355.22 262.208 354.116 266.35C353.824 267.446 353.018 268.677 352.185 269.461L352.117 269.527L352.041 269.737C351.383 271.636 352.031 272.1 350.223 273.241C349.724 274.363 348.612 277.312 348.037 277.997L347.829 278.028L347.575 277.22C346.673 278.443 347.484 279.727 346.016 280.754L345.705 280.153C344.477 280.852 344.743 283.217 343.678 283.163L343.529 282.668C342.67 283.001 342.94 282.893 342.285 283.697C342.243 284.229 342.215 284.555 342.123 285.089L341.932 285.041L341.772 284.163L341.502 284.075C340.195 284.919 340.275 284.737 339.69 286.074C339.272 285.614 339.226 285.614 338.913 285.065C337.787 286.144 336.555 287.294 335.08 287.861C334.655 287.634 334.752 287.696 334.393 287.396C333.315 287.732 330.989 289.089 329.973 289.701C329.474 289.137 329.394 288.893 329.075 288.229C328.538 289.233 327.995 290.077 327.775 291.186L327.559 291.24C327.13 290.382 327.014 289.933 326.731 289.005C326.142 289.623 326.088 290.266 325.413 290.67C324.752 290.554 324.505 290.484 324.136 289.899L323.974 289.943C323.507 289.953 322.99 289.863 322.52 289.805L322.305 289.605C322.083 290.161 321.906 290.642 321.608 291.168L321.341 291.17C320.857 290.516 320.867 290.53 320.592 289.759C320.268 290.39 320.195 290.57 319.963 291.242C319.775 291.672 319.192 292.272 318.855 292.663L318.657 292.582C318.538 291.598 318.631 290.896 317.773 290.372C317.206 290.772 317.238 290.862 316.607 290.924C316.044 290.316 316.206 290.362 316 289.413C315.539 289.737 314.928 291.086 314.625 291.66C314.187 290.76 313.772 289.765 313.367 288.843C313.133 289.889 312.804 290.784 312.455 291.79L311.61 288.597C311.436 289.283 311.285 290.382 310.628 290.684C309.991 290.38 309.164 289.225 308.673 288.625L308.476 288.645C308.334 289.121 308.228 289.449 308.048 289.911C307.571 289.589 307.176 288.457 306.915 287.867C306.559 288.559 306.264 289.373 305.972 290.105C305.483 289.429 304.972 288.545 304.525 287.823C302.339 287.738 301.241 287.598 299.039 287.258C298.917 286.562 298.875 285.988 298.528 285.378C298.07 285.772 298.088 286.21 297.885 286.918C294.682 282.826 290.404 280.339 287.941 275.535C287.607 274.881 287.497 275.009 287.184 274.083L286.739 273.961L285.824 274.361L285.449 274.211C285.058 273.557 285.285 272.288 285.349 271.454C283.718 268.02 282.442 264.895 280.895 261.564L280.392 261.4C279.973 260.239 280.602 257.964 279.608 257.054C279.25 257.552 279.45 257.486 279.033 257.578C278.665 256.448 278.777 254.889 278.456 253.564C278.096 252.08 276.691 248.506 276.501 247.29C276.088 244.656 275.225 237.034 275.471 234.824C275.034 233.051 275.651 230.56 276.002 228.722C277.813 224.18 279.332 220.588 283.491 217.795C284.946 216.818 286.675 215.985 287.767 214.755C288.03 214.459 288.066 214.454 288.444 214.363C288.869 214.698 288.669 214.517 289.045 214.905C290.606 214.643 291.105 212.155 292.612 214.334L292.74 214.39C293.183 213.876 293.379 213.499 293.95 213.248C294.219 213.621 294.145 213.477 294.267 213.912C294.872 213.264 295.235 212.643 295.984 212.21C297.438 212.178 296.31 213.059 297.475 212.048C297.639 212.451 297.747 212.757 297.881 213.171C298.591 212.802 297.859 212.339 298.719 212.162C299.109 212.574 299.101 212.751 299.262 213.299C299.536 212.671 299.797 211.762 300.278 211.46C300.514 211.911 300.522 211.927 300.646 212.421L302.077 210.773L302.399 211.563C303.948 212.152 307.086 210.702 308.402 210.599C310.903 210.402 313.696 210.683 316.264 210.084C317.002 209.912 316.545 209.086 317.312 209.125C317.663 209.666 317.657 210.144 317.739 210.789C318.228 210.883 318.478 210.603 318.855 210.272C319.566 209.581 320.881 209.603 321.864 209.477C323.433 209.276 325.036 209.102 326.603 208.832C327.46 208.684 327.561 209.496 327.721 210.096L327.923 210.207C328.294 209.428 329.436 208.328 330.306 208.293C330.56 208.863 330.49 209.12 330.512 209.776C330.855 209.703 332.269 207.735 332.596 207.291C332.67 208.059 332.68 208.948 332.958 209.63C333.219 209.344 333.127 209.465 333.229 209.047C334.09 208.52 336.837 207.797 337.801 208.032L337.867 208.347C337.949 208.71 337.967 208.791 338.092 209.124C338.528 208.596 338.606 208.118 339.027 207.801C339.931 208.092 339.55 209.509 339.464 210.307Z" fill="#000101"/>
<path d="M357.739 252.162C357.707 256.412 355.221 262.208 354.117 266.35C353.824 267.446 353.019 268.677 352.185 269.461L352.117 269.527C352.167 268.997 352.57 267.2 352.844 266.79C354.788 263.885 355.932 254.499 357.739 252.162Z" fill="#000101"/>
<path d="M276.002 228.722C277.048 230.689 276.349 232.914 275.471 234.824C275.034 233.051 275.651 230.56 276.002 228.722Z" fill="#000101"/>
<path d="M317.773 290.371C318.28 290.285 318.603 290.227 319.108 290.097C319.731 290.485 319.575 290.469 319.963 291.241C319.775 291.671 319.192 292.272 318.855 292.662L318.657 292.582C318.539 291.597 318.631 290.895 317.773 290.371Z" fill="#000101"/>
<path d="M285.35 271.453C285.871 272.566 286.073 272.934 286.741 273.96L285.825 274.36L285.45 274.21C285.06 273.556 285.286 272.287 285.35 271.453Z" fill="#000101"/>
<path d="M140.869 245.156C140.872 239.052 139.831 233.489 139.68 227.475C139.66 226.7 141.421 220.404 141.677 220.173L141.961 220.807L142.218 220.762C142.569 219.738 143.792 216.838 144.798 216.456L145.041 216.855C145.618 216.341 145.182 215.469 146.104 214.407L146.306 214.511C146.498 215.107 146.385 214.957 146.743 215.427L147.176 215.318C147.961 214.465 148.891 213.485 150.132 213.809C152.826 214.512 152.869 212.39 154.3 211.871C154.378 212.627 154.267 212.848 154.657 213.356C155.012 212.937 154.868 213.036 155.319 212.76L155.517 213.041L155.67 213.267L155.937 213.04C155.963 212.499 155.945 212.558 156.066 212.031C156.459 212.491 156.577 213.117 156.771 213.729L156.907 213.787C157.071 213.01 156.942 213.001 157.403 212.522L157.866 212.602C158.553 213.081 158.584 213.234 159.027 213.991L159.158 214.219C159.242 213.632 159.264 213.167 159.296 212.581C159.666 212.166 159.441 212.298 160.006 212.191C160.509 212.384 160.601 212.624 160.91 213.074L161.026 213.246L161.223 213.271C161.621 212.802 161.892 212.497 162.323 212.062L162.653 212.135L163.019 213.11C163.472 212.714 163.037 212.421 163.614 211.805L164.181 213.092L164.459 213.161L165.122 212.35L165.324 212.543C165.197 213.091 165.099 213.546 165 214.099L165.216 214.111C165.464 213.003 165.833 212.426 167.009 212.592C167.498 213.006 167.481 213.287 167.608 213.924L167.652 214.156L167.901 214.239C167.948 214.067 168.269 212.913 168.323 212.819C168.893 211.814 173.018 213.429 174.161 212.975C174.88 212.691 174.738 212.717 175.034 212.116L175.285 212.042C175.895 213.653 176.528 213.489 178.079 214.342L178.814 212.11L179.272 213.823L179.439 213.905C179.575 213.276 179.541 213.087 179.881 212.57C180.156 213.189 180.234 213.849 180.584 214.163C180.707 213.55 180.762 212.729 181.18 212.415C181.6 213.036 181.091 213.3 181.586 213.755L182.293 213.102L182.562 213.13L182.987 213.867C183.215 213.664 183.392 213.5 183.609 213.291C184.144 213.493 184.225 213.773 184.526 214.277L184.641 214.473C184.903 213.787 185.023 212.915 185.45 212.561C185.515 213.116 185.499 213.654 185.829 214.073L186.495 213.684C186.889 213.841 186.758 213.793 187.202 213.809L187.449 213.439C187.485 213.881 187.526 214.073 187.621 214.509C188.189 214.309 188.25 213.307 188.914 213.125C189.039 213.565 189.096 213.763 189.276 214.181C189.932 213.967 189.704 213.938 190.307 214.041L190.445 214.827L190.674 214.906C190.87 214.385 190.939 213.999 191.383 213.684C192.616 214.511 192.147 213.814 192.878 213.565C192.899 214.111 192.861 214.376 193.074 214.875C193.42 214.362 193.448 214.271 193.926 213.856C194.416 214.215 194.197 214.041 194.436 214.825L194.647 214.896C194.78 214.246 194.665 214.437 195.012 213.927C195.226 214.39 195.281 214.613 195.645 214.965L196.08 214.106L196.589 214.111L196.824 213.831L196.726 213.538L197 213.13L197.251 213.228L197.307 213.812C197.909 214.281 197.577 214.13 198.354 214.254C198.976 213.962 199.173 213.435 199.536 212.822L199.901 212.742C200.327 213.286 200.395 213.229 200.318 214.152C200.412 215.121 200.244 214.886 200.793 215.478C201.386 215.67 201.914 215.402 202.542 215.205L202.913 215.331C203.163 215.855 203.059 216.326 203.02 216.921C203.395 216.332 203.439 216.191 204.041 215.804C204.881 215.697 205.549 216.286 206.408 216.535C207.793 216.154 209.867 217.313 210.965 218.091L211.659 216.633C212.11 217.353 211.554 218.412 212.101 218.565C213.095 217.923 214.036 218.144 214.998 218.747C215.12 219.165 215.126 219.231 215.166 219.667C215.872 220.108 216.37 219.853 216.701 220.003C217.404 220.32 216.896 221.161 217.618 221.577L218.011 221.247C220.261 222.367 220.744 224.024 221.287 226.369L221.955 225.371L222.252 225.317C222.625 226.015 222.827 227.846 223.308 229.15C223.723 230.291 223.887 231.256 224.305 232.271L224.36 232.206C224.562 233.236 224.565 237.813 224.632 237.911L225.226 237.166C225.618 238.021 224.997 241.076 224.955 242.141C224.668 249.348 222.852 256.167 220.634 263.006C220.294 264.054 220.138 265.246 219.74 266.309C219.619 266.631 219.485 266.947 219.341 267.259L219.307 267.135C217.401 271.157 216.577 275.094 215.02 278.642C214.872 277.802 214.784 277.105 214.489 276.301C213.486 280.615 212.271 281.865 209.243 285.181C207.97 286.573 207.302 286.815 206.674 288.624C206.022 287.76 207.029 287.714 206.15 287.544C203.755 289.168 201.434 290.767 198.855 292.125C198.292 292.422 196.554 292.3 195.911 292.554C195.288 292.8 194.891 293.424 194.24 293.868C193.396 293.138 194.563 293.348 193.474 292.958C190.594 293.758 189.262 294.25 186.53 295.199C185.871 294.454 186.697 293.794 186.01 293.678C185.132 294.284 184.923 294.725 184.455 295.699C183.996 294.953 183.49 294.166 183.086 293.394C182.854 294.016 182.725 294.731 182.261 295.021C182.048 294.843 181.833 294.667 181.615 294.494L181.482 295.339L181.202 295.501C180.809 294.971 180.781 294.813 180.538 294.208C179.844 294.524 180.193 295.231 179.509 295.451C179.132 294.695 179.164 294.556 179.098 293.688L178.88 293.54C178.427 293.924 178.322 294.757 178.168 295.383C177.61 295.519 177.673 294.2 176.86 293.782C176.869 294.28 176.942 294.158 176.746 294.548C176.019 294.1 175.592 293.818 174.921 293.294L174.608 295.237C174.283 294.278 174.046 293.578 173.62 292.646L173.425 292.634L173.257 293.856L173.049 293.994C172.559 293.552 172.062 293.116 171.557 292.69C171.197 293.028 171.188 293.202 170.975 293.674C170.575 293.37 170.498 293.28 170.139 292.924C169.491 292.608 169.02 292.175 168.403 291.793L168.046 291.927L167.712 292.78C167.877 293.394 167.827 294.096 167.49 294.632C166.372 294.62 166.274 293.214 166.23 292.358C165.929 291.757 165.615 290.919 165.082 290.597C163.577 290.613 163.705 289.853 163.295 288.53C163.196 289.02 163.071 289.875 162.736 290.113C160.247 286.953 158.183 287.558 157.145 284.208L157.039 283.862C156.438 283.966 157.152 284.172 156.47 285.019C154.608 282.189 152.692 279.83 151.708 276.585C151.207 276.957 150.372 278.738 150.025 279.394C150.22 277.614 150.954 276.907 150.206 275.291C149.56 271.831 147.964 270.26 147.333 267.073C147.18 266.303 147.32 265.585 146.873 264.842C146.833 265.4 146.837 265.803 146.654 266.337C146.23 265.641 145.05 260.17 144.818 259.036L144.384 260.07L144.2 260.036C143.835 256.475 143.276 255.09 142.74 251.827C140.212 250.8 140.717 247.393 140.869 245.156Z" fill="#000101"/>
<path d="M163.297 288.53L163.413 287.838L163.566 287.76C164.139 288.128 163.909 288.116 164.129 288.282C166.314 289.923 168.979 289.719 170.141 292.924C169.493 292.608 169.022 292.176 168.404 291.793L168.048 291.927L167.713 292.78C167.879 293.394 167.829 294.096 167.491 294.633C166.373 294.621 166.275 293.214 166.231 292.358C165.931 291.757 165.616 290.919 165.083 290.597C163.578 290.613 163.707 289.853 163.297 288.53Z" fill="#000101"/>
<path d="M166.23 292.358L166.586 291.562L166.882 291.464C167.301 291.984 167.406 292.206 167.713 292.78C167.878 293.395 167.828 294.097 167.491 294.633C166.373 294.621 166.274 293.215 166.23 292.358Z" fill="#000101"/>
<path d="M140.871 245.156C142.194 247.655 142.408 249.026 142.742 251.827C140.215 250.801 140.719 247.393 140.871 245.156Z" fill="#000101"/>
<path d="M196.59 214.112L196.825 213.831L196.726 213.538L197.001 213.13L197.252 213.228L197.307 213.813C197.909 214.282 197.577 214.131 198.354 214.255C198.976 213.962 199.173 213.436 199.537 212.822L199.902 212.742C200.328 213.287 200.396 213.23 200.319 214.153C200.043 214.811 199.771 215.626 199.302 216.13C199.201 215.618 199.149 215.139 199.086 214.623C198.769 214.894 198.492 215.144 198.183 215.423L197.75 215.364C197.197 214.728 197.077 214.85 196.59 214.112Z" fill="#000101"/>
<path d="M174.922 293.295C175.64 292.872 178.294 292.546 179.093 293.026C179.235 293.485 179.243 293.265 179.099 293.689L178.881 293.541C178.428 293.925 178.323 294.757 178.169 295.383C177.611 295.519 177.674 294.201 176.86 293.783C176.87 294.281 176.942 294.159 176.747 294.549C176.019 294.101 175.592 293.819 174.922 293.295Z" fill="#000101"/>
<path d="M203.02 216.922C203.395 216.334 203.439 216.193 204.041 215.806C204.881 215.698 205.549 216.288 206.408 216.536L206.195 217.001L205.875 217.078C204.633 217.384 204.205 217.912 203.037 217.411L203.02 216.922Z" fill="#000101"/>
<path d="M221.289 226.37L221.957 225.372L222.254 225.318C222.627 226.016 222.829 227.847 223.309 229.151C222.343 228.608 221.78 227.36 221.289 226.37Z" fill="#000101"/>
<path d="M150.209 275.291L150.753 275.393C151.121 275.983 151.166 276.227 151.71 276.586C151.209 276.958 150.374 278.738 150.027 279.395C150.223 277.614 150.956 276.908 150.209 275.291Z" fill="#000101"/>
<path d="M322.523 289.806C322.994 289.864 323.511 289.954 323.978 289.944C323.619 290.48 323.447 291.004 323.195 291.606C322.9 291.004 322.734 290.438 322.523 289.806Z" fill="#000101"/>
<path d="M165.348 198.349C166.324 197.993 166.422 197.419 167.407 197.37C170.173 197.234 172.931 197.749 175.65 198.198L176.585 197.707C179.229 197.99 182.599 198.007 185.141 198.18C185.429 198.2 186.995 199.343 188.205 199.288C189.142 198.736 189.132 198.521 190.143 198.719C191.358 198.996 192.493 199.529 193.71 199.774C194.301 199.894 197.483 199.382 197.701 199.558C199.682 201.109 200.29 200.25 202.618 199.97C203.235 199.828 207.43 201.371 207.461 201.364C209.682 200.868 210.522 201.626 212.496 201.77C216.334 202.049 218.938 203.014 222.532 204.345C222.571 204.534 222.655 204.818 222.633 204.987C221.977 205.312 221.381 205.8 220.73 205.703C220.385 204.666 220.356 204.538 219.433 204.015C217.315 205.26 217.438 203.034 215.695 202.996C214.874 203.285 214.45 203.86 213.828 204.497C212.873 202.316 210.88 202.228 208.713 201.585C208.243 202.204 207.927 202.592 207.403 203.166L207.151 202.975C206.392 199.812 205.581 202.612 203.526 201.079C203.041 200.718 202.753 200.554 202.218 200.299C201.52 200.532 200.343 201.595 199.713 202.106L199.394 202.029C199.188 201.572 198.987 201.113 198.79 200.652C198.267 200.464 198.193 200.53 197.624 200.594C196.814 201.175 196.696 201.408 195.771 201.41C195.253 201.075 194.977 200.833 194.365 200.73C192.866 201.929 193.772 199.98 192.14 199.582C191.672 199.906 191.45 200.769 191.231 201.353L191.052 201.305C190.817 200.571 190.753 200.338 190.39 199.671C189.127 199.154 189.04 199.646 187.981 200.309C185.092 199.247 184.924 199.459 181.91 199.343C177.852 199.188 173.527 198.583 169.492 198.394C169.095 198.722 169.09 198.75 168.625 198.956C167.579 198.007 167.29 198.96 165.538 198.667L165.348 198.349Z" fill="#000101"/>
<path d="M282.934 292.887C283.396 292.991 283.635 292.937 283.951 293.267C285.208 294.571 287.041 296.012 288.628 296.874C290.363 297.817 290.379 297.599 291.739 299.057C292.403 299.243 293.957 299.794 294.518 299.902C295.769 300.14 299.734 301.942 300.607 301.808L301.381 301.202L301.559 301.31L301.509 301.842C304.344 303.995 310.513 303.597 314.35 304.658C315.791 303.807 315.512 303.747 317.083 304.532C317.488 304.467 317.62 304.475 317.997 304.329C318.748 304.373 319.712 304.475 320.437 304.399C324.332 303.769 325.514 305.402 328.842 303.193C328.554 304.343 328.051 304.784 326.867 305.096C325.432 305.472 323.879 304.894 322.383 304.872C320.573 304.846 318.067 306.006 316.378 305.082C315.975 304.818 316.067 304.838 315.512 304.574C314.931 305.04 314.899 305.11 314.188 305.394C311.509 305.036 308.89 304.68 306.171 304.548C305.362 304.507 303.296 303.379 302.355 303.201C300.281 302.813 299.876 303.165 298.231 301.728L298.029 301.548C297.925 301.816 298.007 301.668 297.718 301.952C296.698 301.492 295.554 301.668 295.4 301.59C290.475 299.147 286.398 297.297 282.934 292.887Z" fill="#000101"/>
<path d="M113.887 205.503C114.804 202.556 121.421 198.275 123.724 199.851C124.531 199.871 124.433 199.022 124.977 198.92C125.9 198.665 128.162 199.23 128.952 198.597C131.594 196.483 142.646 198.194 144.156 197.137L144.601 197.34C143.988 197.825 143.769 198.096 143.287 198.717C142.148 198.061 143.733 197.802 142.353 197.824C142.141 197.952 141.813 198.217 141.587 198.283C140.356 198.642 135.129 197.6 134.677 198.554C134.595 198.726 134.582 199.2 134.563 199.367L134.312 199.472C134.088 198.915 134.061 198.761 133.933 198.191L133.651 197.958C133.078 198.134 132.993 198.271 132.536 198.659C131.276 198.697 130.222 198.456 129.207 199.36C127.574 200.814 127.791 199.456 126.903 199.627C125.021 199.99 123.881 200.62 121.877 200.576C121.69 201.024 121.435 201.907 121.096 202.047C120.806 201.378 120.825 201.319 120.728 200.62C118.269 201.807 116.649 202.86 114.961 205.1L114.52 205.674L113.887 205.503Z" fill="#000101"/>
<path d="M142.566 290.846L143.252 291.16L144.113 290.788C145.52 292.227 149.731 298.461 150.797 298.507L151.295 298.213C152.48 299.322 152.745 300.778 154.227 301.29C154.821 301.21 154.842 301.13 155.361 300.8C156.19 302.129 156.098 302.483 157.601 303.175C158.365 303.527 159.355 304.264 160.052 304.774L159.692 305.518C156.794 303.373 152.946 302.005 150.136 299.442C148.879 298.297 147.842 296.33 146.78 295.308C144.624 293.233 144.048 293.543 142.566 290.846Z" fill="#000101"/>
<path d="M292.98 198.377C292.806 198.693 292.419 199.584 291.93 199.608C290.412 199.681 290.021 201.347 288.763 200.248C287.997 200.126 287.368 200.407 286.623 200.716L284.583 200.727C281.72 201.995 278.889 203.409 276.02 204.574C275.208 204.904 274.693 204.964 273.898 205.475L273.609 205.423C273.611 205.044 273.684 204.447 273.718 204.051C274.763 203.533 275.106 203.278 276.292 203.101C277.867 202.866 281.209 201.503 282.575 200.684C284.904 199.287 291.399 199.574 292.98 198.377Z" fill="#000101"/>
<path d="M329.098 303.225C330.412 303.383 333.82 302.324 335.179 301.938C337.312 301.332 336.589 301.434 337.623 299.939C338.042 300.405 338.162 300.61 338.501 301.126C339.975 301.352 339.562 299.471 340.115 299.765C341.528 300.514 345.555 298.801 345.864 297.284L346.252 297.16C346.07 297.914 345.846 299.259 345.195 299.581C344.233 300.057 339.224 302.12 338.513 302.044L338.196 301.568C335.261 302.694 332.792 304.391 329.326 303.815L329.098 303.225Z" fill="#000101"/>
<path d="M144.73 198.181C145.299 198.168 145.675 197.698 146.207 197.267C146.889 197.19 149.65 197.263 150.403 197.347C154.542 197.806 161.483 196.699 165.312 197.418C163.506 198.302 162.28 198.517 160.409 197.773L160.203 197.923C159.67 198.308 159.457 198.544 158.808 198.604C157.396 198.04 156.887 197.241 155.69 198.499C154.439 199.814 153.718 198.191 152.259 197.997C151.341 197.876 149.298 198.577 148.267 198.563C147.09 198.559 148.127 197.959 146.665 197.873C146.019 198.174 145.688 198.348 145.075 198.71L144.799 198.537L144.73 198.181Z" fill="#000101"/>
<path d="M243.781 236.71C244.155 234.757 244.851 234.049 246.495 232.97C250.02 230.657 249.901 231.16 253.722 231.557C255.512 233.31 258.523 236.226 258.457 238.806C257.303 236.301 255.84 234.513 253.742 232.754L249.485 232.182C249.142 232.432 248.693 232.768 248.311 232.924C246.517 233.654 245.086 235.27 243.781 236.71Z" fill="#000101"/>
<path d="M181.254 308.584C183.272 308.827 187.244 307.946 189.45 308.132C190.834 308.052 192.266 307.99 193.618 307.676C194.154 307.55 194.52 307.008 194.957 306.682L195.407 306.984L194.936 307.492C194.275 307.986 193.576 309.091 192.978 309.287C192.787 308.861 192.761 308.728 192.646 308.272C192.056 308.212 191.738 308.891 191.511 308.913C188.552 309.195 185.652 309.299 182.717 309.905C181.824 310.089 181.823 309.169 181.385 308.787L181.254 308.584Z" fill="#000101"/>
<path d="M241.894 207.938C244.426 208.017 246.933 208.229 249.464 208.229C250.942 208.229 251.269 207.822 251.802 209.343L250.634 209.126C249.975 209.381 250.059 209.518 249.562 210.228C249.029 209.951 248.788 209.37 248.42 208.799C247.735 209.237 247.051 209.597 246.338 209.985C244.123 209.306 242.981 209.056 240.805 208.479L241.894 207.938Z" fill="#000101"/>
<path d="M204.656 304.804C204.885 304.255 204.862 304.275 205.256 303.837C206.953 303.349 212.13 301.736 212.69 300.33C212.845 299.944 213.363 299.383 213.7 299.017C214.791 298.749 215.205 298.547 216.216 298.089C215.689 299.055 215.328 299.93 214.297 300.38C213.785 300.122 214.012 300.306 213.734 299.662C213.135 300.284 212.435 301.556 211.975 301.95C210.209 303.471 207.101 304.239 205.072 305.284L204.656 304.804Z" fill="#000101"/>
<path d="M216.523 297.951L217.327 297.411C218.679 294.02 223.06 291.416 223.624 288.501L223.673 288.259L223.743 287.877C224.394 287.269 225.073 287.139 225.932 286.851C223.666 290.344 221.912 293.155 218.578 295.736C218.206 296.799 217.946 297.755 217.314 298.679L216.932 298.841C216.492 298.437 216.683 298.667 216.523 297.951Z" fill="#000101"/>
<path d="M294.297 199.344C294.796 198.952 295.583 198.054 296.082 197.757C297.475 196.929 300.33 197.693 301.776 197.273C301.993 196.675 301.873 196.853 302.257 196.375C302.782 196.46 302.914 196.507 303.425 196.649C304.039 196.425 304.271 196.371 304.89 196.23L305.357 196.83C303.648 197.605 301.772 197.475 300.107 198.173C299.779 198.31 299.753 199.1 298.849 199.246C297.982 198.802 297.292 198.303 296.359 198.349C295.507 198.714 295.243 199.265 294.72 200.04L294.433 200.07C294.203 199.564 294.195 199.802 294.297 199.344Z" fill="#000101"/>
<path d="M347.555 296.459C349.668 296.423 351.327 293.586 352.447 291.961C353.125 291.655 352.782 291.675 353.513 291.937C354.112 292.322 354.141 292.288 354.818 292.4C353.874 293.71 351.097 295.237 349.787 296.379C349.027 297.044 348.568 297.63 347.943 298.406L347.555 296.459Z" fill="#000101"/>
<path d="M222.531 204.344C224.827 204.712 227.094 205.228 229.421 205.597C230.46 206.139 230.975 206.207 232.104 206.472C231.345 206.83 231.241 206.851 230.41 207.021C228.906 206.25 227.845 206.444 226.162 206.156C224.567 205.884 224.106 205.623 222.633 204.986C222.654 204.817 222.57 204.533 222.531 204.344Z" fill="#000101"/>
<path d="M353.516 291.938C354.928 291.862 357.495 287.224 358.513 285.873C359.593 285.657 359.985 285.629 360.867 284.919C360.115 286.5 356.078 290.001 354.82 292.4C354.143 292.288 354.115 292.322 353.516 291.938Z" fill="#000101"/>
<path d="M265.773 207.59L265.888 207.374C267.118 205.075 271.273 204.79 273.72 204.051C273.686 204.447 273.614 205.044 273.612 205.423C271.904 205.475 267.268 206.771 265.773 207.59Z" fill="#000101"/>
<path d="M160.052 304.773C161.172 305.084 162.502 305.098 163.759 305.326C164.804 305.514 166.601 306.288 167.217 306.268L167.698 307.184L167.295 307.316C164.59 306.344 161.382 306.55 159.691 305.518L160.052 304.773Z" fill="#000101"/>
<path d="M173.238 307.904C174.88 307.736 179.095 308.07 180.705 308.45L181.047 308.53C181.116 308.548 181.186 308.566 181.255 308.584L181.387 308.786C180.44 310.291 179.036 309.533 178.046 308.622L177.853 308.442C177.139 309.229 174.479 308.92 173.396 308.756L173.238 307.904Z" fill="#000101"/>
<path d="M375.254 194.449L375.48 194.515C379.119 195.548 378.939 194.401 382.683 197.129C382.14 197.489 382.162 197.587 381.9 198.18C380.668 196.582 379.203 196.357 377.249 195.594C375.957 195.405 375.853 195.595 375.254 194.449Z" fill="#000101"/>
<path d="M377.141 226.968C376.716 225.049 380.216 221.405 381.603 220.215C382.088 219.799 382.294 219.857 382.853 219.933C381.092 223.216 379.323 222.582 377.141 226.968Z" fill="#000101"/>
<path d="M167.215 306.268C168.53 306.304 172.21 307.01 173.237 307.904L173.395 308.757L172.812 308.432C171.658 308.773 168.906 307.61 167.696 307.184L167.215 306.268Z" fill="#000101"/>
<path d="M135.613 278.106C136.812 279.437 137.229 278.433 137.807 280.694C138.232 282.354 139.52 284.553 139.79 286.16C138.13 283.835 136.377 280.874 135.613 278.106Z" fill="#000101"/>
<path d="M234.941 207.57C237.888 207.129 238.965 207.478 241.893 207.936L240.804 208.478C240.316 209.08 240.293 209.313 239.67 209.567C239.367 209.094 239.118 208.629 238.848 208.139L238.518 208.12L238.045 208.807L237.827 208.786L237.144 207.663L236.785 207.578C235.978 208.305 236.053 208.402 235.049 208.025L234.941 207.57Z" fill="#000101"/>
<path d="M369.292 193.851C370.234 193.368 373.219 194.297 374.305 194.018L374.575 194.606C374.207 195.148 373.69 196.139 373.245 196.402C373.203 195.758 373.189 195.483 373.043 194.838C372.251 194.525 371.762 195.07 370.598 195.108C370.007 194.719 369.911 194.621 369.18 194.519L369.292 193.851Z" fill="#000101"/>
<path d="M195.408 306.984L195.882 307.002C196.171 306.816 196.198 306.77 196.545 306.73C197.711 306.596 198.884 306.52 200.058 306.5L200.264 307.07C198.417 307.64 197.306 307.897 195.415 308.235C194.974 307.889 195.17 308.087 194.938 307.492L195.408 306.984Z" fill="#000101"/>
<path d="M125.363 238.144L125.72 238.026C126.863 240.004 127.73 240.775 126.707 242.973C125.856 240.846 125.863 240.339 125.363 238.144Z" fill="#000101"/>
<path d="M261.469 207.39L261.693 207.168C263.635 207.697 264.428 206.37 265.334 206.678L265.772 207.589C265.246 208.091 263.254 208.128 262.368 208.207C261.401 207.533 262.735 207.681 261.469 207.39Z" fill="#000101"/>
<path d="M382.682 197.129C383.411 197.539 383.88 197.778 384.531 198.293C383.838 198.639 383.319 199.152 382.73 199.657L382.411 199.509C382.289 199.085 382.227 198.878 382.043 198.485L381.898 198.18C382.161 197.587 382.139 197.489 382.682 197.129Z" fill="#000101"/>
<path d="M204.655 304.803L205.071 305.283C204.461 305.833 204.188 306.135 203.47 306.511C202.831 306.413 203.136 306.533 202.593 305.997L202.012 305.377C202.752 305.381 203.902 305.007 204.655 304.803Z" fill="#000101"/>
<path d="M232.1 206.473C232.868 206.749 232.825 206.736 233.617 206.505C233.426 207.325 233.506 207.608 233.02 208.135C232.157 208.006 231.945 207.261 230.406 207.022C231.238 206.852 231.342 206.831 232.1 206.473Z" fill="#000101"/>
<path d="M200.059 306.5C200.778 305.498 200.826 304.992 202.011 305.378L202.593 305.998C201.771 306.406 201.125 306.73 200.265 307.07L200.059 306.5Z" fill="#000101"/>
</svg>
